%FSLAX24Y24*%
%MOIN*%
G70*
G01*
G75*
G04 Layer_Physical_Order=2*
G04 Layer_Color=16711680*
%ADD10R,0.0354X0.0354*%
%ADD11O,0.0689X0.0217*%
%ADD12O,0.0217X0.0689*%
%ADD13R,0.0394X0.0394*%
%ADD14R,0.0630X0.0236*%
%ADD15R,0.0630X0.0236*%
%ADD16C,0.0394*%
%ADD17O,0.0236X0.0866*%
%ADD18R,0.1299X0.0787*%
%ADD19R,0.0866X0.0925*%
%ADD20R,0.0610X0.0925*%
%ADD21R,0.0335X0.0335*%
%ADD22O,0.0236X0.0866*%
%ADD23R,0.0787X0.2362*%
%ADD24R,0.0630X0.1181*%
%ADD25R,0.0335X0.0669*%
%ADD26R,0.0472X0.1378*%
%ADD27R,0.2185X0.2559*%
%ADD28R,0.0492X0.1201*%
%ADD29C,0.0250*%
%ADD30C,0.0500*%
%ADD31C,0.0150*%
%ADD32C,0.0100*%
%ADD33C,0.0300*%
%ADD34C,0.0591*%
%ADD35R,0.0591X0.0591*%
%ADD36C,0.0630*%
%ADD37C,0.1161*%
%ADD38P,0.2706X8X22.5*%
%ADD39C,0.0591*%
%ADD40R,0.0591X0.0591*%
%ADD41C,0.0500*%
%ADD42C,0.0394*%
G36*
X164822Y303D02*
X303D01*
Y63467D01*
X164822D01*
Y303D01*
D02*
G37*
%LPC*%
G36*
X49036Y30108D02*
X48889Y30089D01*
X48751Y30032D01*
X48633Y29942D01*
X48543Y29824D01*
X48536Y29808D01*
Y29808D01*
Y29808D01*
Y29808D01*
X48536Y29808D01*
X48530Y29824D01*
X48439Y29942D01*
X48321Y30032D01*
X48184Y30089D01*
X48036Y30108D01*
X47889Y30089D01*
X47751Y30032D01*
X47633Y29942D01*
X47543Y29824D01*
X47486Y29686D01*
X47466Y29539D01*
X47486Y29391D01*
X47543Y29254D01*
X47633Y29136D01*
X47751Y29045D01*
X47889Y28988D01*
X48036Y28969D01*
X48184Y28988D01*
X48321Y29045D01*
X48439Y29136D01*
X48530Y29254D01*
X48536Y29269D01*
D01*
X48543Y29254D01*
X48633Y29136D01*
X48751Y29045D01*
X48889Y28988D01*
X49036Y28969D01*
X49184Y28988D01*
X49321Y29045D01*
X49439Y29136D01*
X49530Y29254D01*
X49586Y29391D01*
X49606Y29539D01*
X49586Y29686D01*
X49530Y29824D01*
X49439Y29942D01*
X49321Y30032D01*
X49184Y30089D01*
X49036Y30108D01*
D02*
G37*
G36*
X70295D02*
X70147Y30089D01*
X70010Y30032D01*
X69892Y29942D01*
X69801Y29824D01*
X69795Y29808D01*
Y29808D01*
Y29808D01*
Y29808D01*
X69795Y29808D01*
X69788Y29824D01*
X69697Y29942D01*
X69579Y30032D01*
X69442Y30089D01*
X69295Y30108D01*
X69147Y30089D01*
X69010Y30032D01*
X68892Y29942D01*
X68801Y29824D01*
X68744Y29686D01*
X68725Y29539D01*
X68744Y29391D01*
X68801Y29254D01*
X68892Y29136D01*
X69010Y29045D01*
X69147Y28988D01*
X69295Y28969D01*
X69442Y28988D01*
X69579Y29045D01*
X69697Y29136D01*
X69788Y29254D01*
X69795Y29269D01*
D01*
X69801Y29254D01*
X69892Y29136D01*
X70010Y29045D01*
X70147Y28988D01*
X70295Y28969D01*
X70442Y28988D01*
X70579Y29045D01*
X70697Y29136D01*
X70788Y29254D01*
X70845Y29391D01*
X70864Y29539D01*
X70845Y29686D01*
X70788Y29824D01*
X70697Y29942D01*
X70579Y30032D01*
X70442Y30089D01*
X70295Y30108D01*
D02*
G37*
G36*
X37067D02*
X36920Y30089D01*
X36783Y30032D01*
X36665Y29942D01*
X36574Y29824D01*
X36567Y29808D01*
Y29808D01*
Y29808D01*
Y29808D01*
X36567Y29808D01*
X36561Y29824D01*
X36470Y29942D01*
X36352Y30032D01*
X36215Y30089D01*
X36067Y30108D01*
X35920Y30089D01*
X35783Y30032D01*
X35665Y29942D01*
X35574Y29824D01*
X35517Y29686D01*
X35498Y29539D01*
X35517Y29391D01*
X35574Y29254D01*
X35665Y29136D01*
X35783Y29045D01*
X35920Y28988D01*
X36067Y28969D01*
X36215Y28988D01*
X36352Y29045D01*
X36470Y29136D01*
X36561Y29254D01*
X36567Y29269D01*
D01*
X36574Y29254D01*
X36665Y29136D01*
X36783Y29045D01*
X36920Y28988D01*
X37067Y28969D01*
X37215Y28988D01*
X37352Y29045D01*
X37470Y29136D01*
X37561Y29254D01*
X37618Y29391D01*
X37637Y29539D01*
X37618Y29686D01*
X37561Y29824D01*
X37470Y29942D01*
X37352Y30032D01*
X37215Y30089D01*
X37067Y30108D01*
D02*
G37*
G36*
X115648Y26171D02*
X115500Y26152D01*
X115363Y26095D01*
X115245Y26005D01*
X115154Y25886D01*
X115148Y25871D01*
Y25871D01*
Y25871D01*
Y25871D01*
X115148Y25871D01*
X115141Y25886D01*
X115051Y26005D01*
X114933Y26095D01*
X114795Y26152D01*
X114648Y26171D01*
X114500Y26152D01*
X114363Y26095D01*
X114245Y26005D01*
X114154Y25886D01*
X114097Y25749D01*
X114078Y25602D01*
X114097Y25454D01*
X114154Y25317D01*
X114245Y25199D01*
X114363Y25108D01*
X114500Y25051D01*
X114648Y25032D01*
X114795Y25051D01*
X114933Y25108D01*
X115051Y25199D01*
X115141Y25317D01*
X115148Y25332D01*
D01*
X115154Y25317D01*
X115245Y25199D01*
X115363Y25108D01*
X115500Y25051D01*
X115648Y25032D01*
X115795Y25051D01*
X115933Y25108D01*
X116051Y25199D01*
X116141Y25317D01*
X116198Y25454D01*
X116217Y25602D01*
X116198Y25749D01*
X116141Y25886D01*
X116051Y26005D01*
X115933Y26095D01*
X115795Y26152D01*
X115648Y26171D01*
D02*
G37*
G36*
X136906D02*
X136758Y26152D01*
X136621Y26095D01*
X136503Y26005D01*
X136412Y25886D01*
X136406Y25871D01*
Y25871D01*
Y25871D01*
Y25871D01*
X136406Y25871D01*
X136399Y25886D01*
X136309Y26005D01*
X136191Y26095D01*
X136053Y26152D01*
X135906Y26171D01*
X135758Y26152D01*
X135621Y26095D01*
X135503Y26005D01*
X135412Y25886D01*
X135355Y25749D01*
X135336Y25602D01*
X135355Y25454D01*
X135412Y25317D01*
X135503Y25199D01*
X135621Y25108D01*
X135758Y25051D01*
X135906Y25032D01*
X136053Y25051D01*
X136191Y25108D01*
X136309Y25199D01*
X136399Y25317D01*
X136406Y25332D01*
D01*
X136412Y25317D01*
X136503Y25199D01*
X136621Y25108D01*
X136758Y25051D01*
X136906Y25032D01*
X137053Y25051D01*
X137191Y25108D01*
X137309Y25199D01*
X137399Y25317D01*
X137456Y25454D01*
X137475Y25602D01*
X137456Y25749D01*
X137399Y25886D01*
X137309Y26005D01*
X137191Y26095D01*
X137053Y26152D01*
X136906Y26171D01*
D02*
G37*
G36*
X136749Y30108D02*
X136601Y30089D01*
X136464Y30032D01*
X136346Y29942D01*
X136255Y29824D01*
X136249Y29808D01*
Y29808D01*
Y29808D01*
Y29808D01*
X136249Y29808D01*
X136242Y29824D01*
X136152Y29942D01*
X136034Y30032D01*
X135896Y30089D01*
X135749Y30108D01*
X135601Y30089D01*
X135464Y30032D01*
X135346Y29942D01*
X135255Y29824D01*
X135198Y29686D01*
X135179Y29539D01*
X135198Y29391D01*
X135255Y29254D01*
X135346Y29136D01*
X135464Y29045D01*
X135601Y28988D01*
X135749Y28969D01*
X135896Y28988D01*
X136034Y29045D01*
X136152Y29136D01*
X136242Y29254D01*
X136249Y29269D01*
D01*
X136255Y29254D01*
X136346Y29136D01*
X136464Y29045D01*
X136601Y28988D01*
X136749Y28969D01*
X136896Y28988D01*
X137034Y29045D01*
X137152Y29136D01*
X137242Y29254D01*
X137299Y29391D01*
X137319Y29539D01*
X137299Y29686D01*
X137242Y29824D01*
X137152Y29942D01*
X137034Y30032D01*
X136896Y30089D01*
X136749Y30108D01*
D02*
G37*
G36*
X15809D02*
X15661Y30089D01*
X15524Y30032D01*
X15406Y29942D01*
X15315Y29824D01*
X15309Y29808D01*
Y29808D01*
Y29808D01*
Y29808D01*
X15309Y29808D01*
X15302Y29824D01*
X15212Y29942D01*
X15094Y30032D01*
X14956Y30089D01*
X14809Y30108D01*
X14661Y30089D01*
X14524Y30032D01*
X14406Y29942D01*
X14315Y29824D01*
X14259Y29686D01*
X14239Y29539D01*
X14259Y29391D01*
X14315Y29254D01*
X14406Y29136D01*
X14524Y29045D01*
X14661Y28988D01*
X14809Y28969D01*
X14956Y28988D01*
X15094Y29045D01*
X15212Y29136D01*
X15302Y29254D01*
X15309Y29269D01*
D01*
X15315Y29254D01*
X15406Y29136D01*
X15524Y29045D01*
X15661Y28988D01*
X15809Y28969D01*
X15956Y28988D01*
X16094Y29045D01*
X16212Y29136D01*
X16302Y29254D01*
X16359Y29391D01*
X16379Y29539D01*
X16359Y29686D01*
X16302Y29824D01*
X16212Y29942D01*
X16094Y30032D01*
X15956Y30089D01*
X15809Y30108D01*
D02*
G37*
G36*
X115491D02*
X115343Y30089D01*
X115206Y30032D01*
X115088Y29942D01*
X114997Y29824D01*
X114991Y29808D01*
Y29808D01*
Y29808D01*
Y29808D01*
X114991Y29808D01*
X114984Y29824D01*
X114894Y29942D01*
X114776Y30032D01*
X114638Y30089D01*
X114491Y30108D01*
X114343Y30089D01*
X114206Y30032D01*
X114088Y29942D01*
X113997Y29824D01*
X113940Y29686D01*
X113921Y29539D01*
X113940Y29391D01*
X113997Y29254D01*
X114088Y29136D01*
X114206Y29045D01*
X114343Y28988D01*
X114491Y28969D01*
X114638Y28988D01*
X114776Y29045D01*
X114894Y29136D01*
X114984Y29254D01*
X114991Y29269D01*
D01*
X114997Y29254D01*
X115088Y29136D01*
X115206Y29045D01*
X115343Y28988D01*
X115491Y28969D01*
X115638Y28988D01*
X115776Y29045D01*
X115894Y29136D01*
X115984Y29254D01*
X116041Y29391D01*
X116061Y29539D01*
X116041Y29686D01*
X115984Y29824D01*
X115894Y29942D01*
X115776Y30032D01*
X115638Y30089D01*
X115491Y30108D01*
D02*
G37*
G36*
X82263D02*
X82116Y30089D01*
X81978Y30032D01*
X81860Y29942D01*
X81770Y29824D01*
X81763Y29808D01*
Y29808D01*
Y29808D01*
Y29808D01*
X81763Y29808D01*
X81757Y29824D01*
X81666Y29942D01*
X81548Y30032D01*
X81411Y30089D01*
X81263Y30108D01*
X81116Y30089D01*
X80978Y30032D01*
X80860Y29942D01*
X80770Y29824D01*
X80713Y29686D01*
X80693Y29539D01*
X80713Y29391D01*
X80770Y29254D01*
X80860Y29136D01*
X80978Y29045D01*
X81116Y28988D01*
X81263Y28969D01*
X81411Y28988D01*
X81548Y29045D01*
X81666Y29136D01*
X81757Y29254D01*
X81763Y29269D01*
D01*
X81770Y29254D01*
X81860Y29136D01*
X81978Y29045D01*
X82116Y28988D01*
X82263Y28969D01*
X82411Y28988D01*
X82548Y29045D01*
X82666Y29136D01*
X82757Y29254D01*
X82814Y29391D01*
X82833Y29539D01*
X82814Y29686D01*
X82757Y29824D01*
X82666Y29942D01*
X82548Y30032D01*
X82411Y30089D01*
X82263Y30108D01*
D02*
G37*
G36*
X103522D02*
X103374Y30089D01*
X103237Y30032D01*
X103119Y29942D01*
X103028Y29824D01*
X103022Y29808D01*
Y29808D01*
Y29808D01*
Y29808D01*
X103022Y29808D01*
X103015Y29824D01*
X102925Y29942D01*
X102807Y30032D01*
X102669Y30089D01*
X102522Y30108D01*
X102374Y30089D01*
X102237Y30032D01*
X102119Y29942D01*
X102028Y29824D01*
X101971Y29686D01*
X101952Y29539D01*
X101971Y29391D01*
X102028Y29254D01*
X102119Y29136D01*
X102237Y29045D01*
X102374Y28988D01*
X102522Y28969D01*
X102669Y28988D01*
X102807Y29045D01*
X102925Y29136D01*
X103015Y29254D01*
X103022Y29269D01*
D01*
X103028Y29254D01*
X103119Y29136D01*
X103237Y29045D01*
X103374Y28988D01*
X103522Y28969D01*
X103669Y28988D01*
X103807Y29045D01*
X103925Y29136D01*
X104015Y29254D01*
X104072Y29391D01*
X104091Y29539D01*
X104072Y29686D01*
X104015Y29824D01*
X103925Y29942D01*
X103807Y30032D01*
X103669Y30089D01*
X103522Y30108D01*
D02*
G37*
G36*
X103679Y26171D02*
X103531Y26152D01*
X103394Y26095D01*
X103276Y26005D01*
X103185Y25886D01*
X103179Y25871D01*
Y25871D01*
Y25871D01*
Y25871D01*
X103179Y25871D01*
X103172Y25886D01*
X103081Y26005D01*
X102963Y26095D01*
X102826Y26152D01*
X102679Y26171D01*
X102531Y26152D01*
X102394Y26095D01*
X102276Y26005D01*
X102185Y25886D01*
X102128Y25749D01*
X102109Y25602D01*
X102128Y25454D01*
X102185Y25317D01*
X102276Y25199D01*
X102394Y25108D01*
X102531Y25051D01*
X102679Y25032D01*
X102826Y25051D01*
X102963Y25108D01*
X103081Y25199D01*
X103172Y25317D01*
X103179Y25332D01*
D01*
X103185Y25317D01*
X103276Y25199D01*
X103394Y25108D01*
X103531Y25051D01*
X103679Y25032D01*
X103826Y25051D01*
X103963Y25108D01*
X104081Y25199D01*
X104172Y25317D01*
X104229Y25454D01*
X104248Y25602D01*
X104229Y25749D01*
X104172Y25886D01*
X104081Y26005D01*
X103963Y26095D01*
X103826Y26152D01*
X103679Y26171D01*
D02*
G37*
G36*
X49351Y22234D02*
X49204Y22215D01*
X49066Y22158D01*
X48948Y22067D01*
X48857Y21949D01*
X48851Y21934D01*
Y21934D01*
Y21934D01*
Y21934D01*
X48851Y21934D01*
X48844Y21949D01*
X48754Y22067D01*
X48636Y22158D01*
X48498Y22215D01*
X48351Y22234D01*
X48204Y22215D01*
X48066Y22158D01*
X47948Y22067D01*
X47857Y21949D01*
X47801Y21812D01*
X47781Y21665D01*
X47801Y21517D01*
X47857Y21380D01*
X47948Y21262D01*
X48066Y21171D01*
X48204Y21114D01*
X48351Y21095D01*
X48498Y21114D01*
X48636Y21171D01*
X48754Y21262D01*
X48844Y21380D01*
X48851Y21395D01*
D01*
X48857Y21380D01*
X48948Y21262D01*
X49066Y21171D01*
X49204Y21114D01*
X49351Y21095D01*
X49498Y21114D01*
X49636Y21171D01*
X49754Y21262D01*
X49844Y21380D01*
X49901Y21517D01*
X49921Y21665D01*
X49901Y21812D01*
X49844Y21949D01*
X49754Y22067D01*
X49636Y22158D01*
X49498Y22215D01*
X49351Y22234D01*
D02*
G37*
G36*
X137064D02*
X136916Y22215D01*
X136779Y22158D01*
X136661Y22067D01*
X136570Y21949D01*
X136564Y21934D01*
Y21934D01*
Y21934D01*
Y21934D01*
X136564Y21934D01*
X136557Y21949D01*
X136467Y22067D01*
X136349Y22158D01*
X136211Y22215D01*
X136064Y22234D01*
X135916Y22215D01*
X135779Y22158D01*
X135661Y22067D01*
X135570Y21949D01*
X135513Y21812D01*
X135494Y21665D01*
X135513Y21517D01*
X135570Y21380D01*
X135661Y21262D01*
X135779Y21171D01*
X135916Y21114D01*
X136064Y21095D01*
X136211Y21114D01*
X136349Y21171D01*
X136467Y21262D01*
X136557Y21380D01*
X136564Y21395D01*
D01*
X136570Y21380D01*
X136661Y21262D01*
X136779Y21171D01*
X136916Y21114D01*
X137064Y21095D01*
X137211Y21114D01*
X137349Y21171D01*
X137467Y21262D01*
X137557Y21380D01*
X137614Y21517D01*
X137634Y21665D01*
X137614Y21812D01*
X137557Y21949D01*
X137467Y22067D01*
X137349Y22158D01*
X137211Y22215D01*
X137064Y22234D01*
D02*
G37*
G36*
X16124D02*
X15976Y22215D01*
X15839Y22158D01*
X15721Y22067D01*
X15630Y21949D01*
X15624Y21934D01*
Y21934D01*
Y21934D01*
Y21934D01*
X15624Y21934D01*
X15617Y21949D01*
X15527Y22067D01*
X15409Y22158D01*
X15271Y22215D01*
X15124Y22234D01*
X14976Y22215D01*
X14839Y22158D01*
X14721Y22067D01*
X14630Y21949D01*
X14573Y21812D01*
X14554Y21665D01*
X14573Y21517D01*
X14630Y21380D01*
X14721Y21262D01*
X14839Y21171D01*
X14976Y21114D01*
X15124Y21095D01*
X15271Y21114D01*
X15409Y21171D01*
X15527Y21262D01*
X15617Y21380D01*
X15624Y21395D01*
D01*
X15630Y21380D01*
X15721Y21262D01*
X15839Y21171D01*
X15976Y21114D01*
X16124Y21095D01*
X16271Y21114D01*
X16409Y21171D01*
X16527Y21262D01*
X16617Y21380D01*
X16674Y21517D01*
X16694Y21665D01*
X16674Y21812D01*
X16617Y21949D01*
X16527Y22067D01*
X16409Y22158D01*
X16271Y22215D01*
X16124Y22234D01*
D02*
G37*
G36*
X103837D02*
X103689Y22215D01*
X103552Y22158D01*
X103434Y22067D01*
X103343Y21949D01*
X103337Y21934D01*
Y21934D01*
Y21934D01*
Y21934D01*
X103337Y21934D01*
X103330Y21949D01*
X103240Y22067D01*
X103122Y22158D01*
X102984Y22215D01*
X102837Y22234D01*
X102689Y22215D01*
X102552Y22158D01*
X102434Y22067D01*
X102343Y21949D01*
X102286Y21812D01*
X102267Y21665D01*
X102286Y21517D01*
X102343Y21380D01*
X102434Y21262D01*
X102552Y21171D01*
X102689Y21114D01*
X102837Y21095D01*
X102984Y21114D01*
X103122Y21171D01*
X103240Y21262D01*
X103330Y21380D01*
X103337Y21395D01*
D01*
X103343Y21380D01*
X103434Y21262D01*
X103552Y21171D01*
X103689Y21114D01*
X103837Y21095D01*
X103984Y21114D01*
X104122Y21171D01*
X104240Y21262D01*
X104330Y21380D01*
X104387Y21517D01*
X104406Y21665D01*
X104387Y21812D01*
X104330Y21949D01*
X104240Y22067D01*
X104122Y22158D01*
X103984Y22215D01*
X103837Y22234D01*
D02*
G37*
G36*
X37382D02*
X37235Y22215D01*
X37098Y22158D01*
X36980Y22067D01*
X36889Y21949D01*
X36882Y21934D01*
Y21934D01*
Y21934D01*
Y21934D01*
X36882Y21934D01*
X36876Y21949D01*
X36785Y22067D01*
X36667Y22158D01*
X36530Y22215D01*
X36382Y22234D01*
X36235Y22215D01*
X36098Y22158D01*
X35980Y22067D01*
X35889Y21949D01*
X35832Y21812D01*
X35813Y21665D01*
X35832Y21517D01*
X35889Y21380D01*
X35980Y21262D01*
X36098Y21171D01*
X36235Y21114D01*
X36382Y21095D01*
X36530Y21114D01*
X36667Y21171D01*
X36785Y21262D01*
X36876Y21380D01*
X36882Y21395D01*
D01*
X36889Y21380D01*
X36980Y21262D01*
X37098Y21171D01*
X37235Y21114D01*
X37382Y21095D01*
X37530Y21114D01*
X37667Y21171D01*
X37785Y21262D01*
X37876Y21380D01*
X37933Y21517D01*
X37952Y21665D01*
X37933Y21812D01*
X37876Y21949D01*
X37785Y22067D01*
X37667Y22158D01*
X37530Y22215D01*
X37382Y22234D01*
D02*
G37*
G36*
X82420Y26171D02*
X82272Y26152D01*
X82135Y26095D01*
X82017Y26005D01*
X81926Y25886D01*
X81920Y25871D01*
Y25871D01*
Y25871D01*
Y25871D01*
X81920Y25871D01*
X81913Y25886D01*
X81823Y26005D01*
X81705Y26095D01*
X81567Y26152D01*
X81420Y26171D01*
X81272Y26152D01*
X81135Y26095D01*
X81017Y26005D01*
X80926Y25886D01*
X80870Y25749D01*
X80850Y25602D01*
X80870Y25454D01*
X80926Y25317D01*
X81017Y25199D01*
X81135Y25108D01*
X81272Y25051D01*
X81420Y25032D01*
X81567Y25051D01*
X81705Y25108D01*
X81823Y25199D01*
X81913Y25317D01*
X81920Y25332D01*
D01*
X81926Y25317D01*
X82017Y25199D01*
X82135Y25108D01*
X82272Y25051D01*
X82420Y25032D01*
X82567Y25051D01*
X82705Y25108D01*
X82823Y25199D01*
X82913Y25317D01*
X82970Y25454D01*
X82990Y25602D01*
X82970Y25749D01*
X82913Y25886D01*
X82823Y26005D01*
X82705Y26095D01*
X82567Y26152D01*
X82420Y26171D01*
D02*
G37*
G36*
X15966D02*
X15818Y26152D01*
X15681Y26095D01*
X15563Y26005D01*
X15472Y25886D01*
X15466Y25871D01*
Y25871D01*
Y25871D01*
Y25871D01*
X15466Y25871D01*
X15459Y25886D01*
X15369Y26005D01*
X15251Y26095D01*
X15113Y26152D01*
X14966Y26171D01*
X14818Y26152D01*
X14681Y26095D01*
X14563Y26005D01*
X14472Y25886D01*
X14415Y25749D01*
X14396Y25602D01*
X14415Y25454D01*
X14472Y25317D01*
X14563Y25199D01*
X14681Y25108D01*
X14818Y25051D01*
X14966Y25032D01*
X15113Y25051D01*
X15251Y25108D01*
X15369Y25199D01*
X15459Y25317D01*
X15466Y25332D01*
D01*
X15472Y25317D01*
X15563Y25199D01*
X15681Y25108D01*
X15818Y25051D01*
X15966Y25032D01*
X16113Y25051D01*
X16251Y25108D01*
X16369Y25199D01*
X16459Y25317D01*
X16516Y25454D01*
X16536Y25602D01*
X16516Y25749D01*
X16459Y25886D01*
X16369Y26005D01*
X16251Y26095D01*
X16113Y26152D01*
X15966Y26171D01*
D02*
G37*
G36*
X70451D02*
X70304Y26152D01*
X70167Y26095D01*
X70048Y26005D01*
X69958Y25886D01*
X69951Y25871D01*
Y25871D01*
Y25871D01*
Y25871D01*
X69951Y25871D01*
X69945Y25886D01*
X69854Y26005D01*
X69736Y26095D01*
X69599Y26152D01*
X69451Y26171D01*
X69304Y26152D01*
X69167Y26095D01*
X69048Y26005D01*
X68958Y25886D01*
X68901Y25749D01*
X68882Y25602D01*
X68901Y25454D01*
X68958Y25317D01*
X69048Y25199D01*
X69167Y25108D01*
X69304Y25051D01*
X69451Y25032D01*
X69599Y25051D01*
X69736Y25108D01*
X69854Y25199D01*
X69945Y25317D01*
X69951Y25332D01*
D01*
X69958Y25317D01*
X70048Y25199D01*
X70167Y25108D01*
X70304Y25051D01*
X70451Y25032D01*
X70599Y25051D01*
X70736Y25108D01*
X70854Y25199D01*
X70945Y25317D01*
X71002Y25454D01*
X71021Y25602D01*
X71002Y25749D01*
X70945Y25886D01*
X70854Y26005D01*
X70736Y26095D01*
X70599Y26152D01*
X70451Y26171D01*
D02*
G37*
G36*
X37224D02*
X37077Y26152D01*
X36939Y26095D01*
X36821Y26005D01*
X36731Y25886D01*
X36724Y25871D01*
Y25871D01*
Y25871D01*
Y25871D01*
X36724Y25871D01*
X36718Y25886D01*
X36627Y26005D01*
X36509Y26095D01*
X36372Y26152D01*
X36224Y26171D01*
X36077Y26152D01*
X35939Y26095D01*
X35821Y26005D01*
X35731Y25886D01*
X35674Y25749D01*
X35655Y25602D01*
X35674Y25454D01*
X35731Y25317D01*
X35821Y25199D01*
X35939Y25108D01*
X36077Y25051D01*
X36224Y25032D01*
X36372Y25051D01*
X36509Y25108D01*
X36627Y25199D01*
X36718Y25317D01*
X36724Y25332D01*
D01*
X36731Y25317D01*
X36821Y25199D01*
X36939Y25108D01*
X37077Y25051D01*
X37224Y25032D01*
X37372Y25051D01*
X37509Y25108D01*
X37627Y25199D01*
X37718Y25317D01*
X37775Y25454D01*
X37794Y25602D01*
X37775Y25749D01*
X37718Y25886D01*
X37627Y26005D01*
X37509Y26095D01*
X37372Y26152D01*
X37224Y26171D01*
D02*
G37*
G36*
X49193D02*
X49045Y26152D01*
X48908Y26095D01*
X48790Y26005D01*
X48699Y25886D01*
X48693Y25871D01*
Y25871D01*
Y25871D01*
Y25871D01*
X48693Y25871D01*
X48686Y25886D01*
X48596Y26005D01*
X48478Y26095D01*
X48340Y26152D01*
X48193Y26171D01*
X48045Y26152D01*
X47908Y26095D01*
X47790Y26005D01*
X47699Y25886D01*
X47642Y25749D01*
X47623Y25602D01*
X47642Y25454D01*
X47699Y25317D01*
X47790Y25199D01*
X47908Y25108D01*
X48045Y25051D01*
X48193Y25032D01*
X48340Y25051D01*
X48478Y25108D01*
X48596Y25199D01*
X48686Y25317D01*
X48693Y25332D01*
D01*
X48699Y25317D01*
X48790Y25199D01*
X48908Y25108D01*
X49045Y25051D01*
X49193Y25032D01*
X49340Y25051D01*
X49478Y25108D01*
X49596Y25199D01*
X49686Y25317D01*
X49743Y25454D01*
X49763Y25602D01*
X49743Y25749D01*
X49686Y25886D01*
X49596Y26005D01*
X49478Y26095D01*
X49340Y26152D01*
X49193Y26171D01*
D02*
G37*
G36*
X52421Y36014D02*
X52274Y35995D01*
X52136Y35938D01*
X52018Y35847D01*
X51928Y35729D01*
X51921Y35713D01*
Y35713D01*
Y35713D01*
Y35713D01*
X51921Y35713D01*
X51915Y35729D01*
X51824Y35847D01*
X51706Y35938D01*
X51569Y35995D01*
X51421Y36014D01*
X51274Y35995D01*
X51136Y35938D01*
X51018Y35847D01*
X50928Y35729D01*
X50871Y35592D01*
X50851Y35444D01*
X50871Y35297D01*
X50928Y35159D01*
X51018Y35041D01*
X51136Y34951D01*
X51274Y34894D01*
X51421Y34874D01*
X51569Y34894D01*
X51706Y34951D01*
X51824Y35041D01*
X51915Y35159D01*
X51921Y35175D01*
D01*
X51928Y35159D01*
X52018Y35041D01*
X52136Y34951D01*
X52274Y34894D01*
X52421Y34874D01*
X52569Y34894D01*
X52706Y34951D01*
X52824Y35041D01*
X52915Y35159D01*
X52972Y35297D01*
X52991Y35444D01*
X52972Y35592D01*
X52915Y35729D01*
X52824Y35847D01*
X52706Y35938D01*
X52569Y35995D01*
X52421Y36014D01*
D02*
G37*
G36*
X55965D02*
X55817Y35995D01*
X55680Y35938D01*
X55562Y35847D01*
X55471Y35729D01*
X55465Y35713D01*
Y35713D01*
Y35713D01*
Y35713D01*
X55465Y35713D01*
X55458Y35729D01*
X55367Y35847D01*
X55249Y35938D01*
X55112Y35995D01*
X54965Y36014D01*
X54817Y35995D01*
X54680Y35938D01*
X54562Y35847D01*
X54471Y35729D01*
X54414Y35592D01*
X54395Y35444D01*
X54414Y35297D01*
X54471Y35159D01*
X54562Y35041D01*
X54680Y34951D01*
X54817Y34894D01*
X54965Y34874D01*
X55112Y34894D01*
X55249Y34951D01*
X55367Y35041D01*
X55458Y35159D01*
X55465Y35175D01*
D01*
X55471Y35159D01*
X55562Y35041D01*
X55680Y34951D01*
X55817Y34894D01*
X55965Y34874D01*
X56112Y34894D01*
X56249Y34951D01*
X56367Y35041D01*
X56458Y35159D01*
X56515Y35297D01*
X56534Y35444D01*
X56515Y35592D01*
X56458Y35729D01*
X56367Y35847D01*
X56249Y35938D01*
X56112Y35995D01*
X55965Y36014D01*
D02*
G37*
G36*
X33367D02*
X33220Y35995D01*
X33082Y35938D01*
X32964Y35847D01*
X32874Y35729D01*
X32867Y35713D01*
Y35713D01*
Y35713D01*
Y35713D01*
X32867Y35713D01*
X32861Y35729D01*
X32770Y35847D01*
X32652Y35938D01*
X32515Y35995D01*
X32367Y36014D01*
X32220Y35995D01*
X32082Y35938D01*
X31964Y35847D01*
X31874Y35729D01*
X31817Y35592D01*
X31798Y35444D01*
X31817Y35297D01*
X31874Y35159D01*
X31964Y35041D01*
X32082Y34951D01*
X32220Y34894D01*
X32367Y34874D01*
X32515Y34894D01*
X32652Y34951D01*
X32770Y35041D01*
X32861Y35159D01*
X32867Y35175D01*
D01*
X32874Y35159D01*
X32964Y35041D01*
X33082Y34951D01*
X33220Y34894D01*
X33367Y34874D01*
X33515Y34894D01*
X33652Y34951D01*
X33770Y35041D01*
X33861Y35159D01*
X33918Y35297D01*
X33937Y35444D01*
X33918Y35592D01*
X33861Y35729D01*
X33770Y35847D01*
X33652Y35938D01*
X33515Y35995D01*
X33367Y36014D01*
D02*
G37*
G36*
X160974Y36244D02*
X160800Y36227D01*
X160632Y36176D01*
X160478Y36093D01*
X160342Y35982D01*
X160231Y35847D01*
X160148Y35692D01*
X160098Y35524D01*
X160080Y35350D01*
X160098Y35176D01*
X160148Y35008D01*
X160231Y34853D01*
X160342Y34718D01*
X160478Y34607D01*
X160632Y34524D01*
X160800Y34473D01*
X160974Y34456D01*
X161149Y34473D01*
X161317Y34524D01*
X161471Y34607D01*
X161607Y34718D01*
X161718Y34853D01*
X161800Y35008D01*
X161851Y35176D01*
X161869Y35350D01*
X161851Y35524D01*
X161800Y35692D01*
X161718Y35847D01*
X161607Y35982D01*
X161471Y36093D01*
X161317Y36176D01*
X161149Y36227D01*
X160974Y36244D01*
D02*
G37*
G36*
X29824Y36014D02*
X29677Y35995D01*
X29539Y35938D01*
X29421Y35847D01*
X29331Y35729D01*
X29324Y35713D01*
Y35713D01*
Y35713D01*
Y35713D01*
X29324Y35713D01*
X29318Y35729D01*
X29227Y35847D01*
X29109Y35938D01*
X28972Y35995D01*
X28824Y36014D01*
X28677Y35995D01*
X28539Y35938D01*
X28421Y35847D01*
X28331Y35729D01*
X28274Y35592D01*
X28254Y35444D01*
X28274Y35297D01*
X28331Y35159D01*
X28421Y35041D01*
X28539Y34951D01*
X28677Y34894D01*
X28824Y34874D01*
X28972Y34894D01*
X29109Y34951D01*
X29227Y35041D01*
X29318Y35159D01*
X29324Y35175D01*
D01*
X29331Y35159D01*
X29421Y35041D01*
X29539Y34951D01*
X29677Y34894D01*
X29824Y34874D01*
X29972Y34894D01*
X30109Y34951D01*
X30227Y35041D01*
X30318Y35159D01*
X30374Y35297D01*
X30394Y35444D01*
X30374Y35592D01*
X30318Y35729D01*
X30227Y35847D01*
X30109Y35938D01*
X29972Y35995D01*
X29824Y36014D01*
D02*
G37*
G36*
X85648D02*
X85501Y35995D01*
X85363Y35938D01*
X85245Y35847D01*
X85155Y35729D01*
X85148Y35713D01*
Y35713D01*
Y35713D01*
Y35713D01*
X85148Y35713D01*
X85142Y35729D01*
X85051Y35847D01*
X84933Y35938D01*
X84796Y35995D01*
X84648Y36014D01*
X84501Y35995D01*
X84363Y35938D01*
X84245Y35847D01*
X84155Y35729D01*
X84098Y35592D01*
X84078Y35444D01*
X84098Y35297D01*
X84155Y35159D01*
X84245Y35041D01*
X84363Y34951D01*
X84501Y34894D01*
X84648Y34874D01*
X84796Y34894D01*
X84933Y34951D01*
X85051Y35041D01*
X85142Y35159D01*
X85148Y35175D01*
D01*
X85155Y35159D01*
X85245Y35041D01*
X85363Y34951D01*
X85501Y34894D01*
X85648Y34874D01*
X85796Y34894D01*
X85933Y34951D01*
X86051Y35041D01*
X86142Y35159D01*
X86199Y35297D01*
X86218Y35444D01*
X86199Y35592D01*
X86142Y35729D01*
X86051Y35847D01*
X85933Y35938D01*
X85796Y35995D01*
X85648Y36014D01*
D02*
G37*
G36*
X89192D02*
X89044Y35995D01*
X88907Y35938D01*
X88789Y35847D01*
X88698Y35729D01*
X88692Y35713D01*
Y35713D01*
Y35713D01*
Y35713D01*
X88692Y35713D01*
X88685Y35729D01*
X88595Y35847D01*
X88477Y35938D01*
X88339Y35995D01*
X88192Y36014D01*
X88044Y35995D01*
X87907Y35938D01*
X87789Y35847D01*
X87698Y35729D01*
X87641Y35592D01*
X87622Y35444D01*
X87641Y35297D01*
X87698Y35159D01*
X87789Y35041D01*
X87907Y34951D01*
X88044Y34894D01*
X88192Y34874D01*
X88339Y34894D01*
X88477Y34951D01*
X88595Y35041D01*
X88685Y35159D01*
X88692Y35175D01*
D01*
X88698Y35159D01*
X88789Y35041D01*
X88907Y34951D01*
X89044Y34894D01*
X89192Y34874D01*
X89339Y34894D01*
X89477Y34951D01*
X89595Y35041D01*
X89685Y35159D01*
X89742Y35297D01*
X89761Y35444D01*
X89742Y35592D01*
X89685Y35729D01*
X89595Y35847D01*
X89477Y35938D01*
X89339Y35995D01*
X89192Y36014D01*
D02*
G37*
G36*
X66594D02*
X66447Y35995D01*
X66310Y35938D01*
X66192Y35847D01*
X66101Y35729D01*
X66094Y35713D01*
Y35713D01*
Y35713D01*
Y35713D01*
X66094Y35713D01*
X66088Y35729D01*
X65997Y35847D01*
X65879Y35938D01*
X65742Y35995D01*
X65594Y36014D01*
X65447Y35995D01*
X65310Y35938D01*
X65192Y35847D01*
X65101Y35729D01*
X65044Y35592D01*
X65025Y35444D01*
X65044Y35297D01*
X65101Y35159D01*
X65192Y35041D01*
X65310Y34951D01*
X65447Y34894D01*
X65594Y34874D01*
X65742Y34894D01*
X65879Y34951D01*
X65997Y35041D01*
X66088Y35159D01*
X66094Y35175D01*
D01*
X66101Y35159D01*
X66192Y35041D01*
X66310Y34951D01*
X66447Y34894D01*
X66594Y34874D01*
X66742Y34894D01*
X66879Y34951D01*
X66997Y35041D01*
X67088Y35159D01*
X67145Y35297D01*
X67164Y35444D01*
X67145Y35592D01*
X67088Y35729D01*
X66997Y35847D01*
X66879Y35938D01*
X66742Y35995D01*
X66594Y36014D01*
D02*
G37*
G36*
X59508D02*
X59360Y35995D01*
X59223Y35938D01*
X59105Y35847D01*
X59014Y35729D01*
X59008Y35713D01*
Y35713D01*
Y35713D01*
Y35713D01*
X59008Y35713D01*
X59001Y35729D01*
X58911Y35847D01*
X58793Y35938D01*
X58655Y35995D01*
X58508Y36014D01*
X58360Y35995D01*
X58223Y35938D01*
X58105Y35847D01*
X58014Y35729D01*
X57957Y35592D01*
X57938Y35444D01*
X57957Y35297D01*
X58014Y35159D01*
X58105Y35041D01*
X58223Y34951D01*
X58360Y34894D01*
X58508Y34874D01*
X58655Y34894D01*
X58793Y34951D01*
X58911Y35041D01*
X59001Y35159D01*
X59008Y35175D01*
D01*
X59014Y35159D01*
X59105Y35041D01*
X59223Y34951D01*
X59360Y34894D01*
X59508Y34874D01*
X59655Y34894D01*
X59793Y34951D01*
X59911Y35041D01*
X60001Y35159D01*
X60058Y35297D01*
X60078Y35444D01*
X60058Y35592D01*
X60001Y35729D01*
X59911Y35847D01*
X59793Y35938D01*
X59655Y35995D01*
X59508Y36014D01*
D02*
G37*
G36*
X63051D02*
X62904Y35995D01*
X62766Y35938D01*
X62648Y35847D01*
X62558Y35729D01*
X62551Y35713D01*
Y35713D01*
Y35713D01*
Y35713D01*
X62551Y35713D01*
X62545Y35729D01*
X62454Y35847D01*
X62336Y35938D01*
X62199Y35995D01*
X62051Y36014D01*
X61904Y35995D01*
X61766Y35938D01*
X61648Y35847D01*
X61558Y35729D01*
X61501Y35592D01*
X61481Y35444D01*
X61501Y35297D01*
X61558Y35159D01*
X61648Y35041D01*
X61766Y34951D01*
X61904Y34894D01*
X62051Y34874D01*
X62199Y34894D01*
X62336Y34951D01*
X62454Y35041D01*
X62545Y35159D01*
X62551Y35175D01*
D01*
X62558Y35159D01*
X62648Y35041D01*
X62766Y34951D01*
X62904Y34894D01*
X63051Y34874D01*
X63199Y34894D01*
X63336Y34951D01*
X63454Y35041D01*
X63545Y35159D01*
X63602Y35297D01*
X63621Y35444D01*
X63602Y35592D01*
X63545Y35729D01*
X63454Y35847D01*
X63336Y35938D01*
X63199Y35995D01*
X63051Y36014D01*
D02*
G37*
G36*
X48879Y34045D02*
X48731Y34026D01*
X48594Y33969D01*
X48476Y33879D01*
X48385Y33760D01*
X48379Y33745D01*
Y33745D01*
Y33745D01*
Y33745D01*
X48379Y33745D01*
X48372Y33760D01*
X48281Y33879D01*
X48163Y33969D01*
X48026Y34026D01*
X47879Y34045D01*
X47731Y34026D01*
X47594Y33969D01*
X47476Y33879D01*
X47385Y33760D01*
X47328Y33623D01*
X47309Y33476D01*
X47328Y33328D01*
X47385Y33191D01*
X47476Y33073D01*
X47594Y32982D01*
X47731Y32925D01*
X47879Y32906D01*
X48026Y32925D01*
X48163Y32982D01*
X48281Y33073D01*
X48372Y33191D01*
X48379Y33206D01*
D01*
X48385Y33191D01*
X48476Y33073D01*
X48594Y32982D01*
X48731Y32925D01*
X48879Y32906D01*
X49026Y32925D01*
X49163Y32982D01*
X49281Y33073D01*
X49372Y33191D01*
X49429Y33328D01*
X49448Y33476D01*
X49429Y33623D01*
X49372Y33760D01*
X49281Y33879D01*
X49163Y33969D01*
X49026Y34026D01*
X48879Y34045D01*
D02*
G37*
G36*
X103364D02*
X103217Y34026D01*
X103079Y33969D01*
X102961Y33879D01*
X102871Y33760D01*
X102864Y33745D01*
Y33745D01*
Y33745D01*
Y33745D01*
X102864Y33745D01*
X102858Y33760D01*
X102767Y33879D01*
X102649Y33969D01*
X102512Y34026D01*
X102364Y34045D01*
X102217Y34026D01*
X102079Y33969D01*
X101961Y33879D01*
X101871Y33760D01*
X101814Y33623D01*
X101794Y33476D01*
X101814Y33328D01*
X101871Y33191D01*
X101961Y33073D01*
X102079Y32982D01*
X102217Y32925D01*
X102364Y32906D01*
X102512Y32925D01*
X102649Y32982D01*
X102767Y33073D01*
X102858Y33191D01*
X102864Y33206D01*
D01*
X102871Y33191D01*
X102961Y33073D01*
X103079Y32982D01*
X103217Y32925D01*
X103364Y32906D01*
X103512Y32925D01*
X103649Y32982D01*
X103767Y33073D01*
X103858Y33191D01*
X103915Y33328D01*
X103934Y33476D01*
X103915Y33623D01*
X103858Y33760D01*
X103767Y33879D01*
X103649Y33969D01*
X103512Y34026D01*
X103364Y34045D01*
D02*
G37*
G36*
X115333D02*
X115185Y34026D01*
X115048Y33969D01*
X114930Y33879D01*
X114839Y33760D01*
X114833Y33745D01*
Y33745D01*
Y33745D01*
Y33745D01*
X114833Y33745D01*
X114826Y33760D01*
X114736Y33879D01*
X114618Y33969D01*
X114480Y34026D01*
X114333Y34045D01*
X114185Y34026D01*
X114048Y33969D01*
X113930Y33879D01*
X113839Y33760D01*
X113782Y33623D01*
X113763Y33476D01*
X113782Y33328D01*
X113839Y33191D01*
X113930Y33073D01*
X114048Y32982D01*
X114185Y32925D01*
X114333Y32906D01*
X114480Y32925D01*
X114618Y32982D01*
X114736Y33073D01*
X114826Y33191D01*
X114833Y33206D01*
D01*
X114839Y33191D01*
X114930Y33073D01*
X115048Y32982D01*
X115185Y32925D01*
X115333Y32906D01*
X115480Y32925D01*
X115618Y32982D01*
X115736Y33073D01*
X115826Y33191D01*
X115883Y33328D01*
X115903Y33476D01*
X115883Y33623D01*
X115826Y33760D01*
X115736Y33879D01*
X115618Y33969D01*
X115480Y34026D01*
X115333Y34045D01*
D02*
G37*
G36*
X147124Y30878D02*
X143274D01*
X143268Y30877D01*
X143261Y30878D01*
X143226Y30871D01*
X143190Y30867D01*
X143184Y30864D01*
X143177Y30863D01*
X143144Y30848D01*
X143111Y30834D01*
X143105Y30830D01*
X143099Y30827D01*
X143071Y30804D01*
X143043Y30782D01*
X143039Y30777D01*
X143034Y30772D01*
X142692Y30402D01*
X142674Y30404D01*
X142544Y30387D01*
X142422Y30337D01*
X142318Y30257D01*
X142238Y30152D01*
X142187Y30031D01*
X142170Y29900D01*
X142187Y29769D01*
X142238Y29648D01*
X142318Y29543D01*
X142422Y29463D01*
X142544Y29413D01*
X142674Y29396D01*
X142805Y29413D01*
X142927Y29463D01*
X143031Y29543D01*
X143111Y29648D01*
X143162Y29769D01*
X143179Y29900D01*
X143172Y29955D01*
X143418Y30222D01*
X146989D01*
X147150Y30061D01*
X147137Y30031D01*
X147120Y29900D01*
X147137Y29769D01*
X147188Y29648D01*
X147268Y29543D01*
X147372Y29463D01*
X147494Y29413D01*
X147624Y29396D01*
X147755Y29413D01*
X147877Y29463D01*
X147981Y29543D01*
X148061Y29648D01*
X148112Y29769D01*
X148129Y29900D01*
X148112Y30031D01*
X148061Y30152D01*
X147981Y30257D01*
X147877Y30337D01*
X147755Y30387D01*
X147750Y30388D01*
X147356Y30782D01*
X147288Y30834D01*
X147249Y30850D01*
X147209Y30867D01*
X147167Y30872D01*
X147124Y30878D01*
D02*
G37*
G36*
X160974Y31744D02*
X160800Y31727D01*
X160632Y31676D01*
X160478Y31593D01*
X160342Y31482D01*
X160231Y31347D01*
X160148Y31192D01*
X160098Y31024D01*
X160080Y30850D01*
X160098Y30676D01*
X160148Y30508D01*
X160231Y30353D01*
X160342Y30218D01*
X160478Y30107D01*
X160632Y30024D01*
X160800Y29973D01*
X160974Y29956D01*
X161149Y29973D01*
X161317Y30024D01*
X161471Y30107D01*
X161607Y30218D01*
X161718Y30353D01*
X161800Y30508D01*
X161851Y30676D01*
X161869Y30850D01*
X161851Y31024D01*
X161800Y31192D01*
X161718Y31347D01*
X161607Y31482D01*
X161471Y31593D01*
X161317Y31676D01*
X161149Y31727D01*
X160974Y31744D01*
D02*
G37*
G36*
X157474Y35400D02*
X157332Y35381D01*
X157199Y35326D01*
X157086Y35239D01*
X156998Y35125D01*
X156943Y34992D01*
X156925Y34850D01*
X156943Y34708D01*
X156998Y34575D01*
X157086Y34461D01*
X157199Y34374D01*
X157257Y34350D01*
Y34350D01*
D01*
D01*
D01*
X157199Y34326D01*
X157086Y34239D01*
X156998Y34125D01*
X156943Y33992D01*
X156925Y33850D01*
X156943Y33708D01*
X156998Y33575D01*
X157086Y33461D01*
X157199Y33374D01*
X157257Y33350D01*
Y33350D01*
D01*
D01*
D01*
X157199Y33326D01*
X157086Y33239D01*
X156998Y33125D01*
X156943Y32992D01*
X156925Y32850D01*
X156943Y32708D01*
X156998Y32575D01*
X157086Y32461D01*
X157199Y32374D01*
X157257Y32350D01*
Y32350D01*
D01*
D01*
D01*
X157199Y32326D01*
X157086Y32239D01*
X156998Y32125D01*
X156943Y31992D01*
X156925Y31850D01*
X156943Y31708D01*
X156998Y31575D01*
X157086Y31461D01*
X157199Y31374D01*
X157332Y31319D01*
X157474Y31300D01*
X157617Y31319D01*
X157749Y31374D01*
X157863Y31461D01*
X157929Y31547D01*
D01*
Y30805D01*
X159020D01*
Y31895D01*
X158810D01*
X158877Y31947D01*
X158968Y32065D01*
X159025Y32203D01*
X159044Y32350D01*
X159025Y32497D01*
X158968Y32635D01*
X158877Y32753D01*
X158759Y32843D01*
X158718Y32861D01*
X158718Y32861D01*
X158749Y32874D01*
X158863Y32961D01*
X158951Y33075D01*
X159006Y33208D01*
X159024Y33350D01*
X159006Y33492D01*
X158951Y33625D01*
X158863Y33739D01*
X158749Y33826D01*
X158692Y33850D01*
X158692D01*
X158749Y33874D01*
X158863Y33961D01*
X158951Y34075D01*
X159006Y34208D01*
X159024Y34350D01*
X159006Y34492D01*
X158951Y34625D01*
X158863Y34739D01*
X158749Y34826D01*
X158617Y34881D01*
X158474Y34900D01*
X158332Y34881D01*
X158200Y34826D01*
X158086Y34739D01*
X157998Y34625D01*
X157943Y34492D01*
X157925Y34350D01*
X157943Y34208D01*
X157998Y34075D01*
X158086Y33961D01*
X158200Y33874D01*
X158257Y33850D01*
Y33850D01*
D01*
D01*
D01*
X158200Y33826D01*
X158086Y33739D01*
X157998Y33625D01*
X157943Y33492D01*
X157925Y33350D01*
X157943Y33208D01*
X157998Y33075D01*
X158086Y32961D01*
X158200Y32874D01*
X158231Y32861D01*
D01*
D01*
Y32861D01*
D01*
X158190Y32843D01*
X158072Y32753D01*
X157981Y32635D01*
X157924Y32497D01*
X157905Y32350D01*
X157924Y32203D01*
X157981Y32065D01*
X158072Y31947D01*
X158139Y31895D01*
Y31895D01*
X158139D01*
X158139D01*
X158019D01*
X158006Y31992D01*
X157951Y32125D01*
X157863Y32239D01*
X157749Y32326D01*
X157692Y32350D01*
X157692D01*
X157749Y32374D01*
X157863Y32461D01*
X157951Y32575D01*
X158006Y32708D01*
X158024Y32850D01*
X158006Y32992D01*
X157951Y33125D01*
X157863Y33239D01*
X157749Y33326D01*
X157692Y33350D01*
X157692D01*
X157749Y33374D01*
X157863Y33461D01*
X157951Y33575D01*
X158006Y33708D01*
X158024Y33850D01*
X158006Y33992D01*
X157951Y34125D01*
X157863Y34239D01*
X157749Y34326D01*
X157692Y34350D01*
X157692D01*
X157749Y34374D01*
X157863Y34461D01*
X157951Y34575D01*
X158006Y34708D01*
X158024Y34850D01*
X158006Y34992D01*
X157951Y35125D01*
X157863Y35239D01*
X157749Y35326D01*
X157617Y35381D01*
X157474Y35400D01*
D02*
G37*
G36*
X82106Y34045D02*
X81958Y34026D01*
X81821Y33969D01*
X81703Y33879D01*
X81612Y33760D01*
X81606Y33745D01*
Y33745D01*
Y33745D01*
Y33745D01*
X81606Y33745D01*
X81599Y33760D01*
X81509Y33879D01*
X81391Y33969D01*
X81253Y34026D01*
X81106Y34045D01*
X80958Y34026D01*
X80821Y33969D01*
X80703Y33879D01*
X80612Y33760D01*
X80555Y33623D01*
X80536Y33476D01*
X80555Y33328D01*
X80612Y33191D01*
X80703Y33073D01*
X80821Y32982D01*
X80958Y32925D01*
X81106Y32906D01*
X81253Y32925D01*
X81391Y32982D01*
X81509Y33073D01*
X81599Y33191D01*
X81606Y33206D01*
D01*
X81612Y33191D01*
X81703Y33073D01*
X81821Y32982D01*
X81958Y32925D01*
X82106Y32906D01*
X82253Y32925D01*
X82391Y32982D01*
X82509Y33073D01*
X82599Y33191D01*
X82656Y33328D01*
X82675Y33476D01*
X82656Y33623D01*
X82599Y33760D01*
X82509Y33879D01*
X82391Y33969D01*
X82253Y34026D01*
X82106Y34045D01*
D02*
G37*
G36*
X15651D02*
X15504Y34026D01*
X15367Y33969D01*
X15249Y33879D01*
X15158Y33760D01*
X15151Y33745D01*
Y33745D01*
Y33745D01*
Y33745D01*
X15151Y33745D01*
X15145Y33760D01*
X15054Y33879D01*
X14936Y33969D01*
X14799Y34026D01*
X14651Y34045D01*
X14504Y34026D01*
X14367Y33969D01*
X14249Y33879D01*
X14158Y33760D01*
X14101Y33623D01*
X14082Y33476D01*
X14101Y33328D01*
X14158Y33191D01*
X14249Y33073D01*
X14367Y32982D01*
X14504Y32925D01*
X14651Y32906D01*
X14799Y32925D01*
X14936Y32982D01*
X15054Y33073D01*
X15145Y33191D01*
X15151Y33206D01*
D01*
X15158Y33191D01*
X15249Y33073D01*
X15367Y32982D01*
X15504Y32925D01*
X15651Y32906D01*
X15799Y32925D01*
X15936Y32982D01*
X16054Y33073D01*
X16145Y33191D01*
X16202Y33328D01*
X16221Y33476D01*
X16202Y33623D01*
X16145Y33760D01*
X16054Y33879D01*
X15936Y33969D01*
X15799Y34026D01*
X15651Y34045D01*
D02*
G37*
G36*
X36910D02*
X36763Y34026D01*
X36625Y33969D01*
X36507Y33879D01*
X36417Y33760D01*
X36410Y33745D01*
Y33745D01*
Y33745D01*
Y33745D01*
X36410Y33745D01*
X36404Y33760D01*
X36313Y33879D01*
X36195Y33969D01*
X36057Y34026D01*
X35910Y34045D01*
X35763Y34026D01*
X35625Y33969D01*
X35507Y33879D01*
X35417Y33760D01*
X35360Y33623D01*
X35340Y33476D01*
X35360Y33328D01*
X35417Y33191D01*
X35507Y33073D01*
X35625Y32982D01*
X35763Y32925D01*
X35910Y32906D01*
X36057Y32925D01*
X36195Y32982D01*
X36313Y33073D01*
X36404Y33191D01*
X36410Y33206D01*
D01*
X36417Y33191D01*
X36507Y33073D01*
X36625Y32982D01*
X36763Y32925D01*
X36910Y32906D01*
X37057Y32925D01*
X37195Y32982D01*
X37313Y33073D01*
X37404Y33191D01*
X37460Y33328D01*
X37480Y33476D01*
X37460Y33623D01*
X37404Y33760D01*
X37313Y33879D01*
X37195Y33969D01*
X37057Y34026D01*
X36910Y34045D01*
D02*
G37*
G36*
X136591D02*
X136444Y34026D01*
X136306Y33969D01*
X136188Y33879D01*
X136098Y33760D01*
X136091Y33745D01*
Y33745D01*
Y33745D01*
Y33745D01*
X136091Y33745D01*
X136085Y33760D01*
X135994Y33879D01*
X135876Y33969D01*
X135739Y34026D01*
X135591Y34045D01*
X135444Y34026D01*
X135306Y33969D01*
X135188Y33879D01*
X135098Y33760D01*
X135041Y33623D01*
X135021Y33476D01*
X135041Y33328D01*
X135098Y33191D01*
X135188Y33073D01*
X135306Y32982D01*
X135444Y32925D01*
X135591Y32906D01*
X135739Y32925D01*
X135876Y32982D01*
X135994Y33073D01*
X136085Y33191D01*
X136091Y33206D01*
D01*
X136098Y33191D01*
X136188Y33073D01*
X136306Y32982D01*
X136444Y32925D01*
X136591Y32906D01*
X136739Y32925D01*
X136876Y32982D01*
X136994Y33073D01*
X137085Y33191D01*
X137142Y33328D01*
X137161Y33476D01*
X137142Y33623D01*
X137085Y33760D01*
X136994Y33879D01*
X136876Y33969D01*
X136739Y34026D01*
X136591Y34045D01*
D02*
G37*
G36*
X70137D02*
X69990Y34026D01*
X69852Y33969D01*
X69734Y33879D01*
X69644Y33760D01*
X69637Y33745D01*
Y33745D01*
Y33745D01*
Y33745D01*
X69637Y33745D01*
X69631Y33760D01*
X69540Y33879D01*
X69422Y33969D01*
X69285Y34026D01*
X69137Y34045D01*
X68990Y34026D01*
X68852Y33969D01*
X68734Y33879D01*
X68644Y33760D01*
X68587Y33623D01*
X68567Y33476D01*
X68587Y33328D01*
X68644Y33191D01*
X68734Y33073D01*
X68852Y32982D01*
X68990Y32925D01*
X69137Y32906D01*
X69285Y32925D01*
X69422Y32982D01*
X69540Y33073D01*
X69631Y33191D01*
X69637Y33206D01*
D01*
X69644Y33191D01*
X69734Y33073D01*
X69852Y32982D01*
X69990Y32925D01*
X70137Y32906D01*
X70285Y32925D01*
X70422Y32982D01*
X70540Y33073D01*
X70631Y33191D01*
X70688Y33328D01*
X70707Y33476D01*
X70688Y33623D01*
X70631Y33760D01*
X70540Y33879D01*
X70422Y33969D01*
X70285Y34026D01*
X70137Y34045D01*
D02*
G37*
G36*
X70610Y22234D02*
X70462Y22215D01*
X70325Y22158D01*
X70207Y22067D01*
X70116Y21949D01*
X70110Y21934D01*
Y21934D01*
Y21934D01*
Y21934D01*
X70110Y21934D01*
X70103Y21949D01*
X70012Y22067D01*
X69894Y22158D01*
X69757Y22215D01*
X69610Y22234D01*
X69462Y22215D01*
X69325Y22158D01*
X69207Y22067D01*
X69116Y21949D01*
X69059Y21812D01*
X69040Y21665D01*
X69059Y21517D01*
X69116Y21380D01*
X69207Y21262D01*
X69325Y21171D01*
X69462Y21114D01*
X69610Y21095D01*
X69757Y21114D01*
X69894Y21171D01*
X70012Y21262D01*
X70103Y21380D01*
X70110Y21395D01*
D01*
X70116Y21380D01*
X70207Y21262D01*
X70325Y21171D01*
X70462Y21114D01*
X70610Y21095D01*
X70757Y21114D01*
X70894Y21171D01*
X71012Y21262D01*
X71103Y21380D01*
X71160Y21517D01*
X71179Y21665D01*
X71160Y21812D01*
X71103Y21949D01*
X71012Y22067D01*
X70894Y22158D01*
X70757Y22215D01*
X70610Y22234D01*
D02*
G37*
G36*
X76909Y16329D02*
X76761Y16309D01*
X76624Y16253D01*
X76506Y16162D01*
X76415Y16044D01*
X76409Y16028D01*
Y16028D01*
Y16028D01*
Y16028D01*
X76409Y16028D01*
X76402Y16044D01*
X76312Y16162D01*
X76194Y16253D01*
X76056Y16309D01*
X75909Y16329D01*
X75761Y16309D01*
X75624Y16253D01*
X75506Y16162D01*
X75415Y16044D01*
X75358Y15907D01*
X75339Y15759D01*
X75358Y15612D01*
X75415Y15474D01*
X75506Y15356D01*
X75624Y15266D01*
X75761Y15209D01*
X75909Y15189D01*
X76056Y15209D01*
X76194Y15266D01*
X76312Y15356D01*
X76402Y15474D01*
X76409Y15490D01*
D01*
X76415Y15474D01*
X76506Y15356D01*
X76624Y15266D01*
X76761Y15209D01*
X76909Y15189D01*
X77056Y15209D01*
X77194Y15266D01*
X77312Y15356D01*
X77402Y15474D01*
X77459Y15612D01*
X77479Y15759D01*
X77459Y15907D01*
X77402Y16044D01*
X77312Y16162D01*
X77194Y16253D01*
X77056Y16309D01*
X76909Y16329D01*
D02*
G37*
G36*
X86436D02*
X86288Y16309D01*
X86151Y16253D01*
X86033Y16162D01*
X85942Y16044D01*
X85936Y16028D01*
Y16028D01*
Y16028D01*
Y16028D01*
X85936Y16028D01*
X85929Y16044D01*
X85839Y16162D01*
X85721Y16253D01*
X85583Y16309D01*
X85436Y16329D01*
X85288Y16309D01*
X85151Y16253D01*
X85033Y16162D01*
X84942Y16044D01*
X84885Y15907D01*
X84866Y15759D01*
X84885Y15612D01*
X84942Y15474D01*
X85033Y15356D01*
X85151Y15266D01*
X85288Y15209D01*
X85436Y15189D01*
X85583Y15209D01*
X85721Y15266D01*
X85839Y15356D01*
X85929Y15474D01*
X85936Y15490D01*
D01*
X85942Y15474D01*
X86033Y15356D01*
X86151Y15266D01*
X86288Y15209D01*
X86436Y15189D01*
X86583Y15209D01*
X86721Y15266D01*
X86839Y15356D01*
X86929Y15474D01*
X86986Y15612D01*
X87006Y15759D01*
X86986Y15907D01*
X86929Y16044D01*
X86839Y16162D01*
X86721Y16253D01*
X86583Y16309D01*
X86436Y16329D01*
D02*
G37*
G36*
X67382D02*
X67234Y16309D01*
X67097Y16253D01*
X66979Y16162D01*
X66888Y16044D01*
X66882Y16028D01*
Y16028D01*
Y16028D01*
Y16028D01*
X66882Y16028D01*
X66875Y16044D01*
X66785Y16162D01*
X66667Y16253D01*
X66529Y16309D01*
X66382Y16329D01*
X66234Y16309D01*
X66097Y16253D01*
X65979Y16162D01*
X65888Y16044D01*
X65831Y15907D01*
X65812Y15759D01*
X65831Y15612D01*
X65888Y15474D01*
X65979Y15356D01*
X66097Y15266D01*
X66234Y15209D01*
X66382Y15189D01*
X66529Y15209D01*
X66667Y15266D01*
X66785Y15356D01*
X66875Y15474D01*
X66882Y15490D01*
D01*
X66888Y15474D01*
X66979Y15356D01*
X67097Y15266D01*
X67234Y15209D01*
X67382Y15189D01*
X67529Y15209D01*
X67667Y15266D01*
X67785Y15356D01*
X67875Y15474D01*
X67932Y15612D01*
X67952Y15759D01*
X67932Y15907D01*
X67875Y16044D01*
X67785Y16162D01*
X67667Y16253D01*
X67529Y16309D01*
X67382Y16329D01*
D02*
G37*
G36*
X60295D02*
X60148Y16309D01*
X60010Y16253D01*
X59892Y16162D01*
X59802Y16044D01*
X59795Y16028D01*
Y16028D01*
Y16028D01*
Y16028D01*
X59795Y16028D01*
X59789Y16044D01*
X59698Y16162D01*
X59580Y16253D01*
X59443Y16309D01*
X59295Y16329D01*
X59148Y16309D01*
X59010Y16253D01*
X58892Y16162D01*
X58802Y16044D01*
X58745Y15907D01*
X58725Y15759D01*
X58745Y15612D01*
X58802Y15474D01*
X58892Y15356D01*
X59010Y15266D01*
X59148Y15209D01*
X59295Y15189D01*
X59443Y15209D01*
X59580Y15266D01*
X59698Y15356D01*
X59789Y15474D01*
X59795Y15490D01*
D01*
X59802Y15474D01*
X59892Y15356D01*
X60010Y15266D01*
X60148Y15209D01*
X60295Y15189D01*
X60443Y15209D01*
X60580Y15266D01*
X60698Y15356D01*
X60789Y15474D01*
X60846Y15612D01*
X60865Y15759D01*
X60846Y15907D01*
X60789Y16044D01*
X60698Y16162D01*
X60580Y16253D01*
X60443Y16309D01*
X60295Y16329D01*
D02*
G37*
G36*
X63839D02*
X63691Y16309D01*
X63554Y16253D01*
X63436Y16162D01*
X63345Y16044D01*
X63339Y16028D01*
Y16028D01*
Y16028D01*
Y16028D01*
X63339Y16028D01*
X63332Y16044D01*
X63241Y16162D01*
X63123Y16253D01*
X62986Y16309D01*
X62839Y16329D01*
X62691Y16309D01*
X62554Y16253D01*
X62436Y16162D01*
X62345Y16044D01*
X62288Y15907D01*
X62269Y15759D01*
X62288Y15612D01*
X62345Y15474D01*
X62436Y15356D01*
X62554Y15266D01*
X62691Y15209D01*
X62839Y15189D01*
X62986Y15209D01*
X63123Y15266D01*
X63241Y15356D01*
X63332Y15474D01*
X63339Y15490D01*
D01*
X63345Y15474D01*
X63436Y15356D01*
X63554Y15266D01*
X63691Y15209D01*
X63839Y15189D01*
X63986Y15209D01*
X64123Y15266D01*
X64241Y15356D01*
X64332Y15474D01*
X64389Y15612D01*
X64408Y15759D01*
X64389Y15907D01*
X64332Y16044D01*
X64241Y16162D01*
X64123Y16253D01*
X63986Y16309D01*
X63839Y16329D01*
D02*
G37*
G36*
X27068D02*
X26921Y16309D01*
X26783Y16253D01*
X26665Y16162D01*
X26575Y16044D01*
X26568Y16028D01*
Y16028D01*
Y16028D01*
Y16028D01*
X26568Y16028D01*
X26562Y16044D01*
X26471Y16162D01*
X26353Y16253D01*
X26216Y16309D01*
X26068Y16329D01*
X25921Y16309D01*
X25783Y16253D01*
X25665Y16162D01*
X25575Y16044D01*
X25518Y15907D01*
X25498Y15759D01*
X25518Y15612D01*
X25575Y15474D01*
X25665Y15356D01*
X25783Y15266D01*
X25921Y15209D01*
X26068Y15189D01*
X26216Y15209D01*
X26353Y15266D01*
X26471Y15356D01*
X26562Y15474D01*
X26568Y15490D01*
D01*
X26575Y15474D01*
X26665Y15356D01*
X26783Y15266D01*
X26921Y15209D01*
X27068Y15189D01*
X27216Y15209D01*
X27353Y15266D01*
X27471Y15356D01*
X27562Y15474D01*
X27619Y15612D01*
X27638Y15759D01*
X27619Y15907D01*
X27562Y16044D01*
X27471Y16162D01*
X27353Y16253D01*
X27216Y16309D01*
X27068Y16329D01*
D02*
G37*
G36*
X97066D02*
X96918Y16309D01*
X96781Y16253D01*
X96663Y16162D01*
X96572Y16044D01*
X96566Y16028D01*
Y16028D01*
Y16028D01*
Y16028D01*
X96566Y16028D01*
X96559Y16044D01*
X96469Y16162D01*
X96351Y16253D01*
X96213Y16309D01*
X96066Y16329D01*
X95918Y16309D01*
X95781Y16253D01*
X95663Y16162D01*
X95572Y16044D01*
X95515Y15907D01*
X95496Y15759D01*
X95515Y15612D01*
X95572Y15474D01*
X95663Y15356D01*
X95781Y15266D01*
X95918Y15209D01*
X96066Y15189D01*
X96213Y15209D01*
X96351Y15266D01*
X96469Y15356D01*
X96559Y15474D01*
X96566Y15490D01*
D01*
X96572Y15474D01*
X96663Y15356D01*
X96781Y15266D01*
X96918Y15209D01*
X97066Y15189D01*
X97213Y15209D01*
X97351Y15266D01*
X97469Y15356D01*
X97559Y15474D01*
X97616Y15612D01*
X97635Y15759D01*
X97616Y15907D01*
X97559Y16044D01*
X97469Y16162D01*
X97351Y16253D01*
X97213Y16309D01*
X97066Y16329D01*
D02*
G37*
G36*
X23525D02*
X23377Y16309D01*
X23240Y16253D01*
X23122Y16162D01*
X23031Y16044D01*
X23025Y16028D01*
Y16028D01*
Y16028D01*
Y16028D01*
X23025Y16028D01*
X23018Y16044D01*
X22928Y16162D01*
X22810Y16253D01*
X22672Y16309D01*
X22525Y16329D01*
X22377Y16309D01*
X22240Y16253D01*
X22122Y16162D01*
X22031Y16044D01*
X21974Y15907D01*
X21955Y15759D01*
X21974Y15612D01*
X22031Y15474D01*
X22122Y15356D01*
X22240Y15266D01*
X22377Y15209D01*
X22525Y15189D01*
X22672Y15209D01*
X22810Y15266D01*
X22928Y15356D01*
X23018Y15474D01*
X23025Y15490D01*
D01*
X23031Y15474D01*
X23122Y15356D01*
X23240Y15266D01*
X23377Y15209D01*
X23525Y15189D01*
X23672Y15209D01*
X23810Y15266D01*
X23928Y15356D01*
X24018Y15474D01*
X24075Y15612D01*
X24095Y15759D01*
X24075Y15907D01*
X24018Y16044D01*
X23928Y16162D01*
X23810Y16253D01*
X23672Y16309D01*
X23525Y16329D01*
D02*
G37*
G36*
X10455D02*
X10307Y16309D01*
X10170Y16253D01*
X10052Y16162D01*
X9961Y16044D01*
X9955Y16028D01*
Y16028D01*
Y16028D01*
Y16028D01*
X9955Y16028D01*
X9948Y16044D01*
X9858Y16162D01*
X9740Y16253D01*
X9602Y16309D01*
X9455Y16329D01*
X9307Y16309D01*
X9170Y16253D01*
X9052Y16162D01*
X8961Y16044D01*
X8904Y15907D01*
X8885Y15759D01*
X8904Y15612D01*
X8961Y15474D01*
X9052Y15356D01*
X9170Y15266D01*
X9307Y15209D01*
X9455Y15189D01*
X9602Y15209D01*
X9740Y15266D01*
X9858Y15356D01*
X9948Y15474D01*
X9955Y15490D01*
D01*
X9961Y15474D01*
X10052Y15356D01*
X10170Y15266D01*
X10307Y15209D01*
X10455Y15189D01*
X10602Y15209D01*
X10740Y15266D01*
X10858Y15356D01*
X10948Y15474D01*
X11005Y15612D01*
X11024Y15759D01*
X11005Y15907D01*
X10948Y16044D01*
X10858Y16162D01*
X10740Y16253D01*
X10602Y16309D01*
X10455Y16329D01*
D02*
G37*
G36*
X19982D02*
X19834Y16309D01*
X19697Y16253D01*
X19579Y16162D01*
X19488Y16044D01*
X19482Y16028D01*
Y16028D01*
Y16028D01*
Y16028D01*
X19482Y16028D01*
X19475Y16044D01*
X19384Y16162D01*
X19266Y16253D01*
X19129Y16309D01*
X18982Y16329D01*
X18834Y16309D01*
X18697Y16253D01*
X18579Y16162D01*
X18488Y16044D01*
X18431Y15907D01*
X18412Y15759D01*
X18431Y15612D01*
X18488Y15474D01*
X18579Y15356D01*
X18697Y15266D01*
X18834Y15209D01*
X18982Y15189D01*
X19129Y15209D01*
X19266Y15266D01*
X19384Y15356D01*
X19475Y15474D01*
X19482Y15490D01*
D01*
X19488Y15474D01*
X19579Y15356D01*
X19697Y15266D01*
X19834Y15209D01*
X19982Y15189D01*
X20129Y15209D01*
X20266Y15266D01*
X20384Y15356D01*
X20475Y15474D01*
X20532Y15612D01*
X20551Y15759D01*
X20532Y15907D01*
X20475Y16044D01*
X20384Y16162D01*
X20266Y16253D01*
X20129Y16309D01*
X19982Y16329D01*
D02*
G37*
G36*
X56752D02*
X56604Y16309D01*
X56467Y16253D01*
X56349Y16162D01*
X56258Y16044D01*
X56252Y16028D01*
Y16028D01*
Y16028D01*
Y16028D01*
X56252Y16028D01*
X56245Y16044D01*
X56155Y16162D01*
X56037Y16253D01*
X55899Y16309D01*
X55752Y16329D01*
X55604Y16309D01*
X55467Y16253D01*
X55349Y16162D01*
X55258Y16044D01*
X55202Y15907D01*
X55182Y15759D01*
X55202Y15612D01*
X55258Y15474D01*
X55349Y15356D01*
X55467Y15266D01*
X55604Y15209D01*
X55752Y15189D01*
X55899Y15209D01*
X56037Y15266D01*
X56155Y15356D01*
X56245Y15474D01*
X56252Y15490D01*
D01*
X56258Y15474D01*
X56349Y15356D01*
X56467Y15266D01*
X56604Y15209D01*
X56752Y15189D01*
X56899Y15209D01*
X57037Y15266D01*
X57155Y15356D01*
X57245Y15474D01*
X57302Y15612D01*
X57322Y15759D01*
X57302Y15907D01*
X57245Y16044D01*
X57155Y16162D01*
X57037Y16253D01*
X56899Y16309D01*
X56752Y16329D01*
D02*
G37*
G36*
X154725Y14250D02*
X154582Y14231D01*
X154450Y14176D01*
X154336Y14089D01*
X154248Y13975D01*
X154225Y13918D01*
D01*
D01*
D01*
X154225D01*
X154201Y13975D01*
X154113Y14089D01*
X153999Y14176D01*
X153867Y14231D01*
X153724Y14250D01*
X153582Y14231D01*
X153450Y14176D01*
X153336Y14089D01*
X153248Y13975D01*
X153193Y13842D01*
X153175Y13700D01*
X153193Y13558D01*
X153248Y13425D01*
X153336Y13311D01*
X153421Y13245D01*
X153421Y13245D01*
X153421D01*
D01*
X153179D01*
Y12155D01*
X153397D01*
Y8336D01*
X151660Y6600D01*
X151624Y6604D01*
X136664D01*
X136629Y6600D01*
X135496Y7732D01*
X135428Y7784D01*
X135389Y7800D01*
X135349Y7817D01*
X135307Y7822D01*
X135264Y7828D01*
X133043D01*
X133021Y7857D01*
X132917Y7937D01*
X132795Y7987D01*
X132664Y8004D01*
X132534Y7987D01*
X132412Y7937D01*
X132308Y7857D01*
X132228Y7752D01*
X132177Y7631D01*
X132160Y7500D01*
X132177Y7369D01*
X132228Y7248D01*
X132308Y7143D01*
X132412Y7063D01*
X132534Y7013D01*
X132664Y6996D01*
X132795Y7013D01*
X132917Y7063D01*
X133021Y7143D01*
X133043Y7172D01*
X135129D01*
X136165Y6136D01*
X136160Y6100D01*
X136177Y5969D01*
X136228Y5848D01*
X136308Y5743D01*
X136360Y5704D01*
Y5704D01*
D01*
X136360D01*
X136360Y5704D01*
X136234Y5687D01*
X136112Y5637D01*
X136008Y5557D01*
X135928Y5452D01*
X135877Y5331D01*
X135860Y5200D01*
X135865Y5164D01*
X135529Y4828D01*
X126943D01*
X126921Y4857D01*
X126817Y4937D01*
X126695Y4987D01*
X126564Y5004D01*
X126434Y4987D01*
X126312Y4937D01*
X126208Y4857D01*
X126186Y4828D01*
X125800D01*
X125464Y5164D01*
X125469Y5200D01*
X125452Y5331D01*
X125401Y5452D01*
X125321Y5557D01*
X125217Y5637D01*
X125095Y5687D01*
X124964Y5704D01*
X124730D01*
D01*
X124781Y5743D01*
X124803Y5772D01*
X126486D01*
X126508Y5743D01*
X126612Y5663D01*
X126734Y5613D01*
X126864Y5596D01*
X126995Y5613D01*
X127117Y5663D01*
X127221Y5743D01*
X127301Y5848D01*
X127352Y5969D01*
X127369Y6100D01*
X127352Y6231D01*
X127301Y6352D01*
X127221Y6457D01*
X127117Y6537D01*
X126995Y6587D01*
X126864Y6604D01*
X126734Y6587D01*
X126612Y6537D01*
X126508Y6457D01*
X126486Y6428D01*
X124803D01*
X124781Y6457D01*
X124677Y6537D01*
X124555Y6587D01*
X124424Y6604D01*
X103437D01*
X103401Y6600D01*
X102269Y7732D01*
X102201Y7784D01*
X102162Y7800D01*
X102122Y7817D01*
X102080Y7822D01*
X102037Y7828D01*
X99816D01*
X99794Y7857D01*
X99690Y7937D01*
X99568Y7987D01*
X99437Y8004D01*
X99307Y7987D01*
X99185Y7937D01*
X99081Y7857D01*
X99001Y7752D01*
X98950Y7631D01*
X98933Y7500D01*
X98950Y7369D01*
X99001Y7248D01*
X99081Y7143D01*
X99185Y7063D01*
X99307Y7013D01*
X99437Y6996D01*
X99568Y7013D01*
X99690Y7063D01*
X99794Y7143D01*
X99816Y7172D01*
X101902D01*
X102938Y6136D01*
X102933Y6100D01*
X102950Y5969D01*
X103001Y5848D01*
X103081Y5743D01*
X103133Y5704D01*
Y5704D01*
D01*
X103133D01*
X103133Y5704D01*
X103007Y5687D01*
X102885Y5637D01*
X102781Y5557D01*
X102701Y5452D01*
X102650Y5331D01*
X102633Y5200D01*
X102638Y5164D01*
X102302Y4828D01*
X93716D01*
X93694Y4857D01*
X93590Y4937D01*
X93468Y4987D01*
X93337Y5004D01*
X93207Y4987D01*
X93085Y4937D01*
X92981Y4857D01*
X92959Y4828D01*
X92573D01*
X92237Y5164D01*
X92242Y5200D01*
X92225Y5331D01*
X92174Y5452D01*
X92094Y5557D01*
X91990Y5637D01*
X91868Y5687D01*
X91737Y5704D01*
X91503D01*
D01*
X91554Y5743D01*
X91576Y5772D01*
X93259D01*
X93281Y5743D01*
X93385Y5663D01*
X93507Y5613D01*
X93637Y5596D01*
X93768Y5613D01*
X93890Y5663D01*
X93994Y5743D01*
X94074Y5848D01*
X94125Y5969D01*
X94142Y6100D01*
X94125Y6231D01*
X94074Y6352D01*
X93994Y6457D01*
X93890Y6537D01*
X93768Y6587D01*
X93637Y6604D01*
X93507Y6587D01*
X93385Y6537D01*
X93281Y6457D01*
X93259Y6428D01*
X91576D01*
X91554Y6457D01*
X91450Y6537D01*
X91328Y6587D01*
X91197Y6604D01*
X70210D01*
X70174Y6600D01*
X69042Y7732D01*
X68974Y7784D01*
X68935Y7800D01*
X68895Y7817D01*
X68853Y7822D01*
X68810Y7828D01*
X66589D01*
X66567Y7857D01*
X66462Y7937D01*
X66341Y7987D01*
X66210Y8004D01*
X66080Y7987D01*
X65958Y7937D01*
X65854Y7857D01*
X65774Y7752D01*
X65723Y7631D01*
X65706Y7500D01*
X65723Y7369D01*
X65774Y7248D01*
X65854Y7143D01*
X65958Y7063D01*
X66080Y7013D01*
X66210Y6996D01*
X66341Y7013D01*
X66462Y7063D01*
X66567Y7143D01*
X66589Y7172D01*
X68675D01*
X69711Y6136D01*
X69706Y6100D01*
X69723Y5969D01*
X69774Y5848D01*
X69854Y5743D01*
X69905Y5704D01*
Y5704D01*
D01*
X69905D01*
X69905Y5704D01*
X69780Y5687D01*
X69658Y5637D01*
X69554Y5557D01*
X69474Y5452D01*
X69423Y5331D01*
X69406Y5200D01*
X69411Y5164D01*
X69075Y4828D01*
X60489D01*
X60467Y4857D01*
X60362Y4937D01*
X60241Y4987D01*
X60110Y5004D01*
X59980Y4987D01*
X59858Y4937D01*
X59754Y4857D01*
X59732Y4828D01*
X59346D01*
X59010Y5164D01*
X59015Y5200D01*
X58997Y5331D01*
X58947Y5452D01*
X58867Y5557D01*
X58762Y5637D01*
X58641Y5687D01*
X58510Y5704D01*
X58276D01*
D01*
X58327Y5743D01*
X58349Y5772D01*
X60032D01*
X60054Y5743D01*
X60158Y5663D01*
X60280Y5613D01*
X60410Y5596D01*
X60541Y5613D01*
X60662Y5663D01*
X60767Y5743D01*
X60847Y5848D01*
X60897Y5969D01*
X60915Y6100D01*
X60897Y6231D01*
X60847Y6352D01*
X60767Y6457D01*
X60662Y6537D01*
X60541Y6587D01*
X60410Y6604D01*
X60280Y6587D01*
X60158Y6537D01*
X60054Y6457D01*
X60032Y6428D01*
X58349D01*
X58327Y6457D01*
X58222Y6537D01*
X58101Y6587D01*
X57970Y6604D01*
X36983D01*
X36947Y6600D01*
X35815Y7732D01*
X35747Y7784D01*
X35708Y7800D01*
X35668Y7817D01*
X35626Y7822D01*
X35583Y7828D01*
X33362D01*
X33340Y7857D01*
X33235Y7937D01*
X33114Y7987D01*
X32983Y8004D01*
X32853Y7987D01*
X32731Y7937D01*
X32627Y7857D01*
X32547Y7752D01*
X32496Y7631D01*
X32479Y7500D01*
X32496Y7369D01*
X32547Y7248D01*
X32627Y7143D01*
X32731Y7063D01*
X32853Y7013D01*
X32983Y6996D01*
X33114Y7013D01*
X33235Y7063D01*
X33340Y7143D01*
X33362Y7172D01*
X35447D01*
X36484Y6136D01*
X36479Y6100D01*
X36496Y5969D01*
X36546Y5848D01*
X36627Y5743D01*
X36678Y5704D01*
Y5704D01*
D01*
X36678D01*
X36678Y5704D01*
X36553Y5687D01*
X36431Y5637D01*
X36327Y5557D01*
X36247Y5452D01*
X36196Y5331D01*
X36179Y5200D01*
X36184Y5164D01*
X35847Y4828D01*
X27262D01*
X27240Y4857D01*
X27135Y4937D01*
X27014Y4987D01*
X26883Y5004D01*
X26753Y4987D01*
X26631Y4937D01*
X26527Y4857D01*
X26446Y4752D01*
X26396Y4631D01*
X26379Y4500D01*
X26396Y4369D01*
X26446Y4248D01*
X26527Y4143D01*
X26631Y4063D01*
X26753Y4013D01*
X26883Y3996D01*
X27014Y4013D01*
X27135Y4063D01*
X27240Y4143D01*
X27262Y4172D01*
X35983D01*
X36026Y4178D01*
X36068Y4183D01*
X36108Y4200D01*
X36147Y4216D01*
X36215Y4268D01*
X36215Y4268D01*
X36215Y4268D01*
X36647Y4700D01*
X36683Y4696D01*
X36878D01*
X36878D01*
X36878Y4696D01*
X36827Y4657D01*
X36746Y4552D01*
X36696Y4431D01*
X36679Y4300D01*
X36684Y4264D01*
X35647Y3228D01*
X31862D01*
X31840Y3257D01*
X31735Y3337D01*
X31614Y3387D01*
X31483Y3404D01*
X31353Y3387D01*
X31231Y3337D01*
X31127Y3257D01*
X31047Y3152D01*
X30996Y3031D01*
X30979Y2900D01*
X30996Y2769D01*
X31047Y2648D01*
X31127Y2543D01*
X31231Y2463D01*
X31353Y2413D01*
X31483Y2396D01*
X31614Y2413D01*
X31735Y2463D01*
X31840Y2543D01*
X31862Y2572D01*
X35783D01*
X35826Y2578D01*
X35868Y2583D01*
X35908Y2600D01*
X35947Y2616D01*
X36015Y2668D01*
X36015Y2668D01*
X36015Y2668D01*
X37147Y3800D01*
X37183Y3796D01*
X57510D01*
X57546Y3800D01*
X58679Y2668D01*
X58679D01*
X58679D01*
D01*
X58679Y2668D01*
D01*
X58746Y2616D01*
X58786Y2600D01*
X58825Y2583D01*
X58868Y2578D01*
X58910Y2572D01*
X64332D01*
X64354Y2543D01*
X64458Y2463D01*
X64580Y2413D01*
X64710Y2396D01*
X64841Y2413D01*
X64962Y2463D01*
X65067Y2543D01*
X65089Y2572D01*
X69010D01*
X69053Y2578D01*
X69095Y2583D01*
X69135Y2600D01*
X69174Y2616D01*
X69242Y2668D01*
X69242Y2668D01*
X69242Y2668D01*
X70374Y3800D01*
X70410Y3796D01*
X90737D01*
X90773Y3800D01*
X91906Y2668D01*
X91906D01*
X91906D01*
D01*
X91906Y2668D01*
D01*
X91974Y2616D01*
X92013Y2600D01*
X92053Y2583D01*
X92095Y2578D01*
X92137Y2572D01*
X97559D01*
X97581Y2543D01*
X97685Y2463D01*
X97807Y2413D01*
X97937Y2396D01*
X98068Y2413D01*
X98190Y2463D01*
X98294Y2543D01*
X98316Y2572D01*
X102237D01*
X102280Y2578D01*
X102322Y2583D01*
X102362Y2600D01*
X102401Y2616D01*
X102469Y2668D01*
X102469Y2668D01*
X102469Y2668D01*
X103601Y3800D01*
X103637Y3796D01*
X123964D01*
X124000Y3800D01*
X125133Y2668D01*
X125133Y2668D01*
X125133D01*
D01*
X125133D01*
D01*
X125133Y2668D01*
D01*
X125201Y2616D01*
X125240Y2600D01*
X125280Y2583D01*
X125322Y2578D01*
X125364Y2572D01*
X130786D01*
X130808Y2543D01*
X130912Y2463D01*
X131034Y2413D01*
X131164Y2396D01*
X131295Y2413D01*
X131417Y2463D01*
X131521Y2543D01*
X131543Y2572D01*
X135464D01*
X135507Y2578D01*
X135549Y2583D01*
X135589Y2600D01*
X135628Y2616D01*
X135696Y2668D01*
X135696Y2668D01*
X135696Y2668D01*
X136828Y3800D01*
X136864Y3796D01*
X152474D01*
X152605Y3813D01*
X152727Y3863D01*
X152831Y3943D01*
X152911Y4048D01*
X152962Y4169D01*
X152979Y4300D01*
X152974Y4336D01*
X154956Y6318D01*
X154979Y6348D01*
X155008Y6386D01*
X155041Y6465D01*
X155052Y6550D01*
Y12264D01*
X155113Y12311D01*
X155201Y12425D01*
X155225Y12482D01*
Y12482D01*
X155248Y12425D01*
X155336Y12311D01*
X155450Y12224D01*
X155582Y12169D01*
X155724Y12150D01*
X155867Y12169D01*
X155999Y12224D01*
X156113Y12311D01*
X156201Y12425D01*
X156256Y12558D01*
X156274Y12700D01*
X156256Y12842D01*
X156201Y12975D01*
X156113Y13089D01*
X155999Y13176D01*
X155867Y13231D01*
X155724Y13250D01*
X155582Y13231D01*
X155450Y13176D01*
X155336Y13089D01*
X155248Y12975D01*
X155225Y12918D01*
D01*
D01*
D01*
X155225D01*
X155201Y12975D01*
X155113Y13089D01*
X154999Y13176D01*
X154942Y13200D01*
X154942D01*
X154999Y13224D01*
X155113Y13311D01*
X155201Y13425D01*
X155256Y13558D01*
X155274Y13700D01*
X155256Y13842D01*
X155201Y13975D01*
X155113Y14089D01*
X154999Y14176D01*
X154867Y14231D01*
X154725Y14250D01*
D02*
G37*
G36*
X93523Y16329D02*
X93375Y16309D01*
X93238Y16253D01*
X93120Y16162D01*
X93029Y16044D01*
X93023Y16028D01*
Y16028D01*
Y16028D01*
Y16028D01*
X93023Y16028D01*
X93016Y16044D01*
X92926Y16162D01*
X92808Y16253D01*
X92670Y16309D01*
X92523Y16329D01*
X92375Y16309D01*
X92238Y16253D01*
X92120Y16162D01*
X92029Y16044D01*
X91973Y15907D01*
X91953Y15759D01*
X91973Y15612D01*
X92029Y15474D01*
X92120Y15356D01*
X92238Y15266D01*
X92375Y15209D01*
X92523Y15189D01*
X92670Y15209D01*
X92808Y15266D01*
X92926Y15356D01*
X93016Y15474D01*
X93023Y15490D01*
D01*
X93029Y15474D01*
X93120Y15356D01*
X93238Y15266D01*
X93375Y15209D01*
X93523Y15189D01*
X93670Y15209D01*
X93808Y15266D01*
X93926Y15356D01*
X94016Y15474D01*
X94073Y15612D01*
X94093Y15759D01*
X94073Y15907D01*
X94016Y16044D01*
X93926Y16162D01*
X93808Y16253D01*
X93670Y16309D01*
X93523Y16329D01*
D02*
G37*
G36*
X27183Y6604D02*
X27053Y6587D01*
X26931Y6537D01*
X26827Y6457D01*
X26746Y6352D01*
X26696Y6231D01*
X26679Y6100D01*
X26696Y5969D01*
X26746Y5848D01*
X26827Y5743D01*
X26931Y5663D01*
X27053Y5613D01*
X27183Y5596D01*
X27314Y5613D01*
X27435Y5663D01*
X27540Y5743D01*
X27620Y5848D01*
X27670Y5969D01*
X27688Y6100D01*
X27670Y6231D01*
X27620Y6352D01*
X27540Y6457D01*
X27435Y6537D01*
X27314Y6587D01*
X27183Y6604D01*
D02*
G37*
G36*
X162598Y2409D02*
X162482Y2394D01*
X162373Y2349D01*
X162280Y2277D01*
X162208Y2184D01*
X162163Y2075D01*
X162148Y1958D01*
X162163Y1842D01*
X162208Y1733D01*
X162280Y1640D01*
X162373Y1568D01*
X162482Y1523D01*
X162598Y1508D01*
X162715Y1523D01*
X162824Y1568D01*
X162917Y1640D01*
X162989Y1733D01*
X163034Y1842D01*
X163049Y1958D01*
X163034Y2075D01*
X162989Y2184D01*
X162917Y2277D01*
X162824Y2349D01*
X162715Y2394D01*
X162598Y2409D01*
D02*
G37*
G36*
X5512Y3590D02*
X5395Y3575D01*
X5286Y3530D01*
X5193Y3458D01*
X5121Y3365D01*
X5076Y3256D01*
X5061Y3140D01*
X5076Y3023D01*
X5121Y2914D01*
X5193Y2821D01*
X5286Y2749D01*
X5395Y2704D01*
X5512Y2689D01*
X5628Y2704D01*
X5737Y2749D01*
X5831Y2821D01*
X5902Y2914D01*
X5947Y3023D01*
X5963Y3140D01*
X5947Y3256D01*
X5902Y3365D01*
X5831Y3458D01*
X5737Y3530D01*
X5628Y3575D01*
X5512Y3590D01*
D02*
G37*
G36*
X43682Y16329D02*
X43534Y16309D01*
X43397Y16253D01*
X43279Y16162D01*
X43188Y16044D01*
X43182Y16028D01*
Y16028D01*
Y16028D01*
Y16028D01*
X43182Y16028D01*
X43175Y16044D01*
X43085Y16162D01*
X42967Y16253D01*
X42829Y16309D01*
X42682Y16329D01*
X42534Y16309D01*
X42397Y16253D01*
X42279Y16162D01*
X42188Y16044D01*
X42131Y15907D01*
X42112Y15759D01*
X42131Y15612D01*
X42188Y15474D01*
X42279Y15356D01*
X42397Y15266D01*
X42534Y15209D01*
X42682Y15189D01*
X42829Y15209D01*
X42967Y15266D01*
X43085Y15356D01*
X43175Y15474D01*
X43182Y15490D01*
D01*
X43188Y15474D01*
X43279Y15356D01*
X43397Y15266D01*
X43534Y15209D01*
X43682Y15189D01*
X43829Y15209D01*
X43967Y15266D01*
X44085Y15356D01*
X44175Y15474D01*
X44232Y15612D01*
X44252Y15759D01*
X44232Y15907D01*
X44175Y16044D01*
X44085Y16162D01*
X43967Y16253D01*
X43829Y16309D01*
X43682Y16329D01*
D02*
G37*
G36*
X53209D02*
X53061Y16309D01*
X52924Y16253D01*
X52806Y16162D01*
X52715Y16044D01*
X52709Y16028D01*
Y16028D01*
Y16028D01*
Y16028D01*
X52709Y16028D01*
X52702Y16044D01*
X52612Y16162D01*
X52494Y16253D01*
X52356Y16309D01*
X52209Y16329D01*
X52061Y16309D01*
X51924Y16253D01*
X51806Y16162D01*
X51715Y16044D01*
X51658Y15907D01*
X51639Y15759D01*
X51658Y15612D01*
X51715Y15474D01*
X51806Y15356D01*
X51924Y15266D01*
X52061Y15209D01*
X52209Y15189D01*
X52356Y15209D01*
X52494Y15266D01*
X52612Y15356D01*
X52702Y15474D01*
X52709Y15490D01*
D01*
X52715Y15474D01*
X52806Y15356D01*
X52924Y15266D01*
X53061Y15209D01*
X53209Y15189D01*
X53356Y15209D01*
X53494Y15266D01*
X53612Y15356D01*
X53702Y15474D01*
X53759Y15612D01*
X53778Y15759D01*
X53759Y15907D01*
X53702Y16044D01*
X53612Y16162D01*
X53494Y16253D01*
X53356Y16309D01*
X53209Y16329D01*
D02*
G37*
G36*
X34155D02*
X34007Y16309D01*
X33870Y16253D01*
X33752Y16162D01*
X33661Y16044D01*
X33655Y16028D01*
Y16028D01*
Y16028D01*
Y16028D01*
X33655Y16028D01*
X33648Y16044D01*
X33558Y16162D01*
X33440Y16253D01*
X33302Y16309D01*
X33155Y16329D01*
X33007Y16309D01*
X32870Y16253D01*
X32752Y16162D01*
X32661Y16044D01*
X32604Y15907D01*
X32585Y15759D01*
X32604Y15612D01*
X32661Y15474D01*
X32752Y15356D01*
X32870Y15266D01*
X33007Y15209D01*
X33155Y15189D01*
X33302Y15209D01*
X33440Y15266D01*
X33558Y15356D01*
X33648Y15474D01*
X33655Y15490D01*
D01*
X33661Y15474D01*
X33752Y15356D01*
X33870Y15266D01*
X34007Y15209D01*
X34155Y15189D01*
X34302Y15209D01*
X34440Y15266D01*
X34558Y15356D01*
X34648Y15474D01*
X34705Y15612D01*
X34725Y15759D01*
X34705Y15907D01*
X34648Y16044D01*
X34558Y16162D01*
X34440Y16253D01*
X34302Y16309D01*
X34155Y16329D01*
D02*
G37*
G36*
X89980D02*
X89832Y16309D01*
X89695Y16253D01*
X89577Y16162D01*
X89486Y16044D01*
X89480Y16028D01*
Y16028D01*
Y16028D01*
Y16028D01*
X89480Y16028D01*
X89473Y16044D01*
X89383Y16162D01*
X89265Y16253D01*
X89127Y16309D01*
X88980Y16329D01*
X88832Y16309D01*
X88695Y16253D01*
X88577Y16162D01*
X88486Y16044D01*
X88429Y15907D01*
X88410Y15759D01*
X88429Y15612D01*
X88486Y15474D01*
X88577Y15356D01*
X88695Y15266D01*
X88832Y15209D01*
X88980Y15189D01*
X89127Y15209D01*
X89265Y15266D01*
X89383Y15356D01*
X89473Y15474D01*
X89480Y15490D01*
D01*
X89486Y15474D01*
X89577Y15356D01*
X89695Y15266D01*
X89832Y15209D01*
X89980Y15189D01*
X90127Y15209D01*
X90265Y15266D01*
X90383Y15356D01*
X90473Y15474D01*
X90530Y15612D01*
X90549Y15759D01*
X90530Y15907D01*
X90473Y16044D01*
X90383Y16162D01*
X90265Y16253D01*
X90127Y16309D01*
X89980Y16329D01*
D02*
G37*
G36*
X30611D02*
X30464Y16309D01*
X30327Y16253D01*
X30209Y16162D01*
X30118Y16044D01*
X30111Y16028D01*
Y16028D01*
Y16028D01*
Y16028D01*
X30111Y16028D01*
X30105Y16044D01*
X30014Y16162D01*
X29896Y16253D01*
X29759Y16309D01*
X29611Y16329D01*
X29464Y16309D01*
X29327Y16253D01*
X29209Y16162D01*
X29118Y16044D01*
X29061Y15907D01*
X29042Y15759D01*
X29061Y15612D01*
X29118Y15474D01*
X29209Y15356D01*
X29327Y15266D01*
X29464Y15209D01*
X29611Y15189D01*
X29759Y15209D01*
X29896Y15266D01*
X30014Y15356D01*
X30105Y15474D01*
X30111Y15490D01*
D01*
X30118Y15474D01*
X30209Y15356D01*
X30327Y15266D01*
X30464Y15209D01*
X30611Y15189D01*
X30759Y15209D01*
X30896Y15266D01*
X31014Y15356D01*
X31105Y15474D01*
X31162Y15612D01*
X31181Y15759D01*
X31162Y15907D01*
X31105Y16044D01*
X31014Y16162D01*
X30896Y16253D01*
X30759Y16309D01*
X30611Y16329D01*
D02*
G37*
G36*
X137221Y18297D02*
X137074Y18278D01*
X136936Y18221D01*
X136818Y18130D01*
X136728Y18012D01*
X136721Y17997D01*
Y17997D01*
Y17997D01*
Y17997D01*
X136721Y17997D01*
X136715Y18012D01*
X136624Y18130D01*
X136506Y18221D01*
X136369Y18278D01*
X136221Y18297D01*
X136074Y18278D01*
X135936Y18221D01*
X135818Y18130D01*
X135728Y18012D01*
X135671Y17875D01*
X135651Y17728D01*
X135671Y17580D01*
X135728Y17443D01*
X135818Y17325D01*
X135936Y17234D01*
X136074Y17177D01*
X136221Y17158D01*
X136369Y17177D01*
X136506Y17234D01*
X136624Y17325D01*
X136715Y17443D01*
X136721Y17458D01*
D01*
X136728Y17443D01*
X136818Y17325D01*
X136936Y17234D01*
X137074Y17177D01*
X137221Y17158D01*
X137369Y17177D01*
X137506Y17234D01*
X137624Y17325D01*
X137715Y17443D01*
X137772Y17580D01*
X137791Y17728D01*
X137772Y17875D01*
X137715Y18012D01*
X137624Y18130D01*
X137506Y18221D01*
X137369Y18278D01*
X137221Y18297D01*
D02*
G37*
G36*
X40429Y24149D02*
X38929D01*
X38179Y23399D01*
Y21899D01*
X38929Y21149D01*
X40429D01*
X41179Y21899D01*
Y23399D01*
X40429Y24149D01*
D02*
G37*
G36*
X115963Y18297D02*
X115815Y18278D01*
X115678Y18221D01*
X115560Y18130D01*
X115469Y18012D01*
X115463Y17997D01*
Y17997D01*
Y17997D01*
Y17997D01*
X115463Y17997D01*
X115456Y18012D01*
X115366Y18130D01*
X115248Y18221D01*
X115110Y18278D01*
X114963Y18297D01*
X114815Y18278D01*
X114678Y18221D01*
X114560Y18130D01*
X114469Y18012D01*
X114412Y17875D01*
X114393Y17728D01*
X114412Y17580D01*
X114469Y17443D01*
X114560Y17325D01*
X114678Y17234D01*
X114815Y17177D01*
X114963Y17158D01*
X115110Y17177D01*
X115248Y17234D01*
X115366Y17325D01*
X115456Y17443D01*
X115463Y17458D01*
D01*
X115469Y17443D01*
X115560Y17325D01*
X115678Y17234D01*
X115815Y17177D01*
X115963Y17158D01*
X116110Y17177D01*
X116248Y17234D01*
X116366Y17325D01*
X116456Y17443D01*
X116513Y17580D01*
X116532Y17728D01*
X116513Y17875D01*
X116456Y18012D01*
X116366Y18130D01*
X116248Y18221D01*
X116110Y18278D01*
X115963Y18297D01*
D02*
G37*
G36*
X16281D02*
X16134Y18278D01*
X15996Y18221D01*
X15878Y18130D01*
X15788Y18012D01*
X15781Y17997D01*
Y17997D01*
Y17997D01*
Y17997D01*
X15781Y17997D01*
X15775Y18012D01*
X15684Y18130D01*
X15566Y18221D01*
X15429Y18278D01*
X15281Y18297D01*
X15134Y18278D01*
X14996Y18221D01*
X14878Y18130D01*
X14788Y18012D01*
X14731Y17875D01*
X14712Y17728D01*
X14731Y17580D01*
X14788Y17443D01*
X14878Y17325D01*
X14996Y17234D01*
X15134Y17177D01*
X15281Y17158D01*
X15429Y17177D01*
X15566Y17234D01*
X15684Y17325D01*
X15775Y17443D01*
X15781Y17458D01*
D01*
X15788Y17443D01*
X15878Y17325D01*
X15996Y17234D01*
X16134Y17177D01*
X16281Y17158D01*
X16429Y17177D01*
X16566Y17234D01*
X16684Y17325D01*
X16775Y17443D01*
X16832Y17580D01*
X16851Y17728D01*
X16832Y17875D01*
X16775Y18012D01*
X16684Y18130D01*
X16566Y18221D01*
X16429Y18278D01*
X16281Y18297D01*
D02*
G37*
G36*
X103994D02*
X103847Y18278D01*
X103709Y18221D01*
X103591Y18130D01*
X103501Y18012D01*
X103494Y17997D01*
Y17997D01*
Y17997D01*
Y17997D01*
X103494Y17997D01*
X103488Y18012D01*
X103397Y18130D01*
X103279Y18221D01*
X103142Y18278D01*
X102994Y18297D01*
X102847Y18278D01*
X102709Y18221D01*
X102591Y18130D01*
X102501Y18012D01*
X102444Y17875D01*
X102424Y17728D01*
X102444Y17580D01*
X102501Y17443D01*
X102591Y17325D01*
X102709Y17234D01*
X102847Y17177D01*
X102994Y17158D01*
X103142Y17177D01*
X103279Y17234D01*
X103397Y17325D01*
X103488Y17443D01*
X103494Y17458D01*
D01*
X103501Y17443D01*
X103591Y17325D01*
X103709Y17234D01*
X103847Y17177D01*
X103994Y17158D01*
X104142Y17177D01*
X104279Y17234D01*
X104397Y17325D01*
X104488Y17443D01*
X104545Y17580D01*
X104564Y17728D01*
X104545Y17875D01*
X104488Y18012D01*
X104397Y18130D01*
X104279Y18221D01*
X104142Y18278D01*
X103994Y18297D01*
D02*
G37*
G36*
X115805Y22234D02*
X115658Y22215D01*
X115520Y22158D01*
X115402Y22067D01*
X115312Y21949D01*
X115305Y21934D01*
Y21934D01*
Y21934D01*
Y21934D01*
X115305Y21934D01*
X115299Y21949D01*
X115208Y22067D01*
X115090Y22158D01*
X114953Y22215D01*
X114805Y22234D01*
X114658Y22215D01*
X114520Y22158D01*
X114402Y22067D01*
X114312Y21949D01*
X114255Y21812D01*
X114235Y21665D01*
X114255Y21517D01*
X114312Y21380D01*
X114402Y21262D01*
X114520Y21171D01*
X114658Y21114D01*
X114805Y21095D01*
X114953Y21114D01*
X115090Y21171D01*
X115208Y21262D01*
X115299Y21380D01*
X115305Y21395D01*
D01*
X115312Y21380D01*
X115402Y21262D01*
X115520Y21171D01*
X115658Y21114D01*
X115805Y21095D01*
X115953Y21114D01*
X116090Y21171D01*
X116208Y21262D01*
X116299Y21380D01*
X116356Y21517D01*
X116375Y21665D01*
X116356Y21812D01*
X116299Y21949D01*
X116208Y22067D01*
X116090Y22158D01*
X115953Y22215D01*
X115805Y22234D01*
D02*
G37*
G36*
X82578D02*
X82431Y22215D01*
X82293Y22158D01*
X82175Y22067D01*
X82085Y21949D01*
X82078Y21934D01*
Y21934D01*
Y21934D01*
Y21934D01*
X82078Y21934D01*
X82072Y21949D01*
X81981Y22067D01*
X81863Y22158D01*
X81726Y22215D01*
X81578Y22234D01*
X81431Y22215D01*
X81293Y22158D01*
X81175Y22067D01*
X81085Y21949D01*
X81028Y21812D01*
X81008Y21665D01*
X81028Y21517D01*
X81085Y21380D01*
X81175Y21262D01*
X81293Y21171D01*
X81431Y21114D01*
X81578Y21095D01*
X81726Y21114D01*
X81863Y21171D01*
X81981Y21262D01*
X82072Y21380D01*
X82078Y21395D01*
D01*
X82085Y21380D01*
X82175Y21262D01*
X82293Y21171D01*
X82431Y21114D01*
X82578Y21095D01*
X82726Y21114D01*
X82863Y21171D01*
X82981Y21262D01*
X83072Y21380D01*
X83128Y21517D01*
X83148Y21665D01*
X83128Y21812D01*
X83072Y21949D01*
X82981Y22067D01*
X82863Y22158D01*
X82726Y22215D01*
X82578Y22234D01*
D02*
G37*
G36*
X63152Y24149D02*
X61652D01*
X60902Y23399D01*
Y21899D01*
X61652Y21149D01*
X63152D01*
X63902Y21899D01*
Y23399D01*
X63152Y24149D01*
D02*
G37*
G36*
X99687Y24149D02*
X98187D01*
X97437Y23399D01*
Y21899D01*
X98187Y21149D01*
X99687D01*
X100437Y21899D01*
Y23399D01*
X99687Y24149D01*
D02*
G37*
G36*
X118671D02*
X117171D01*
X116421Y23399D01*
Y21899D01*
X117171Y21149D01*
X118671D01*
X119421Y21899D01*
Y23399D01*
X118671Y24149D01*
D02*
G37*
G36*
X49508Y18297D02*
X49361Y18278D01*
X49224Y18221D01*
X49106Y18130D01*
X49015Y18012D01*
X49008Y17997D01*
Y17997D01*
Y17997D01*
Y17997D01*
X49008Y17997D01*
X49002Y18012D01*
X48911Y18130D01*
X48793Y18221D01*
X48656Y18278D01*
X48508Y18297D01*
X48361Y18278D01*
X48224Y18221D01*
X48106Y18130D01*
X48015Y18012D01*
X47958Y17875D01*
X47939Y17728D01*
X47958Y17580D01*
X48015Y17443D01*
X48106Y17325D01*
X48224Y17234D01*
X48361Y17177D01*
X48508Y17158D01*
X48656Y17177D01*
X48793Y17234D01*
X48911Y17325D01*
X49002Y17443D01*
X49008Y17458D01*
D01*
X49015Y17443D01*
X49106Y17325D01*
X49224Y17234D01*
X49361Y17177D01*
X49508Y17158D01*
X49656Y17177D01*
X49793Y17234D01*
X49911Y17325D01*
X50002Y17443D01*
X50059Y17580D01*
X50078Y17728D01*
X50059Y17875D01*
X50002Y18012D01*
X49911Y18130D01*
X49793Y18221D01*
X49656Y18278D01*
X49508Y18297D01*
D02*
G37*
G36*
X123207Y16329D02*
X123059Y16309D01*
X122922Y16253D01*
X122804Y16162D01*
X122713Y16044D01*
X122707Y16028D01*
Y16028D01*
Y16028D01*
Y16028D01*
X122707Y16028D01*
X122700Y16044D01*
X122610Y16162D01*
X122492Y16253D01*
X122354Y16309D01*
X122207Y16329D01*
X122059Y16309D01*
X121922Y16253D01*
X121804Y16162D01*
X121713Y16044D01*
X121656Y15907D01*
X121637Y15759D01*
X121656Y15612D01*
X121713Y15474D01*
X121804Y15356D01*
X121922Y15266D01*
X122059Y15209D01*
X122207Y15189D01*
X122354Y15209D01*
X122492Y15266D01*
X122610Y15356D01*
X122700Y15474D01*
X122707Y15490D01*
D01*
X122713Y15474D01*
X122804Y15356D01*
X122922Y15266D01*
X123059Y15209D01*
X123207Y15189D01*
X123354Y15209D01*
X123492Y15266D01*
X123610Y15356D01*
X123700Y15474D01*
X123757Y15612D01*
X123777Y15759D01*
X123757Y15907D01*
X123700Y16044D01*
X123610Y16162D01*
X123492Y16253D01*
X123354Y16309D01*
X123207Y16329D01*
D02*
G37*
G36*
X126750D02*
X126603Y16309D01*
X126465Y16253D01*
X126347Y16162D01*
X126257Y16044D01*
X126250Y16028D01*
Y16028D01*
Y16028D01*
Y16028D01*
X126250Y16028D01*
X126243Y16044D01*
X126153Y16162D01*
X126035Y16253D01*
X125897Y16309D01*
X125750Y16329D01*
X125603Y16309D01*
X125465Y16253D01*
X125347Y16162D01*
X125257Y16044D01*
X125200Y15907D01*
X125180Y15759D01*
X125200Y15612D01*
X125257Y15474D01*
X125347Y15356D01*
X125465Y15266D01*
X125603Y15209D01*
X125750Y15189D01*
X125897Y15209D01*
X126035Y15266D01*
X126153Y15356D01*
X126243Y15474D01*
X126250Y15490D01*
D01*
X126257Y15474D01*
X126347Y15356D01*
X126465Y15266D01*
X126603Y15209D01*
X126750Y15189D01*
X126897Y15209D01*
X127035Y15266D01*
X127153Y15356D01*
X127243Y15474D01*
X127300Y15612D01*
X127320Y15759D01*
X127300Y15907D01*
X127243Y16044D01*
X127153Y16162D01*
X127035Y16253D01*
X126897Y16309D01*
X126750Y16329D01*
D02*
G37*
G36*
X119663D02*
X119515Y16309D01*
X119378Y16253D01*
X119260Y16162D01*
X119169Y16044D01*
X119163Y16028D01*
Y16028D01*
Y16028D01*
Y16028D01*
X119163Y16028D01*
X119156Y16044D01*
X119066Y16162D01*
X118948Y16253D01*
X118810Y16309D01*
X118663Y16329D01*
X118515Y16309D01*
X118378Y16253D01*
X118260Y16162D01*
X118169Y16044D01*
X118112Y15907D01*
X118093Y15759D01*
X118112Y15612D01*
X118169Y15474D01*
X118260Y15356D01*
X118378Y15266D01*
X118515Y15209D01*
X118663Y15189D01*
X118810Y15209D01*
X118948Y15266D01*
X119066Y15356D01*
X119156Y15474D01*
X119163Y15490D01*
D01*
X119169Y15474D01*
X119260Y15356D01*
X119378Y15266D01*
X119515Y15209D01*
X119663Y15189D01*
X119810Y15209D01*
X119948Y15266D01*
X120066Y15356D01*
X120156Y15474D01*
X120213Y15612D01*
X120233Y15759D01*
X120213Y15907D01*
X120156Y16044D01*
X120066Y16162D01*
X119948Y16253D01*
X119810Y16309D01*
X119663Y16329D01*
D02*
G37*
G36*
X100609D02*
X100461Y16309D01*
X100324Y16253D01*
X100206Y16162D01*
X100115Y16044D01*
X100109Y16028D01*
Y16028D01*
Y16028D01*
Y16028D01*
X100109Y16028D01*
X100102Y16044D01*
X100012Y16162D01*
X99894Y16253D01*
X99756Y16309D01*
X99609Y16329D01*
X99461Y16309D01*
X99324Y16253D01*
X99206Y16162D01*
X99115Y16044D01*
X99059Y15907D01*
X99039Y15759D01*
X99059Y15612D01*
X99115Y15474D01*
X99206Y15356D01*
X99324Y15266D01*
X99461Y15209D01*
X99609Y15189D01*
X99756Y15209D01*
X99894Y15266D01*
X100012Y15356D01*
X100102Y15474D01*
X100109Y15490D01*
D01*
X100115Y15474D01*
X100206Y15356D01*
X100324Y15266D01*
X100461Y15209D01*
X100609Y15189D01*
X100756Y15209D01*
X100894Y15266D01*
X101012Y15356D01*
X101102Y15474D01*
X101159Y15612D01*
X101179Y15759D01*
X101159Y15907D01*
X101102Y16044D01*
X101012Y16162D01*
X100894Y16253D01*
X100756Y16309D01*
X100609Y16329D01*
D02*
G37*
G36*
X110136D02*
X109988Y16309D01*
X109851Y16253D01*
X109733Y16162D01*
X109642Y16044D01*
X109636Y16028D01*
Y16028D01*
Y16028D01*
Y16028D01*
X109636Y16028D01*
X109629Y16044D01*
X109539Y16162D01*
X109421Y16253D01*
X109283Y16309D01*
X109136Y16329D01*
X108988Y16309D01*
X108851Y16253D01*
X108733Y16162D01*
X108642Y16044D01*
X108585Y15907D01*
X108566Y15759D01*
X108585Y15612D01*
X108642Y15474D01*
X108733Y15356D01*
X108851Y15266D01*
X108988Y15209D01*
X109136Y15189D01*
X109283Y15209D01*
X109421Y15266D01*
X109539Y15356D01*
X109629Y15474D01*
X109636Y15490D01*
D01*
X109642Y15474D01*
X109733Y15356D01*
X109851Y15266D01*
X109988Y15209D01*
X110136Y15189D01*
X110283Y15209D01*
X110421Y15266D01*
X110539Y15356D01*
X110629Y15474D01*
X110686Y15612D01*
X110706Y15759D01*
X110686Y15907D01*
X110629Y16044D01*
X110539Y16162D01*
X110421Y16253D01*
X110283Y16309D01*
X110136Y16329D01*
D02*
G37*
G36*
X70767Y18297D02*
X70620Y18278D01*
X70482Y18221D01*
X70364Y18130D01*
X70274Y18012D01*
X70267Y17997D01*
Y17997D01*
Y17997D01*
Y17997D01*
X70267Y17997D01*
X70261Y18012D01*
X70170Y18130D01*
X70052Y18221D01*
X69914Y18278D01*
X69767Y18297D01*
X69620Y18278D01*
X69482Y18221D01*
X69364Y18130D01*
X69274Y18012D01*
X69217Y17875D01*
X69197Y17728D01*
X69217Y17580D01*
X69274Y17443D01*
X69364Y17325D01*
X69482Y17234D01*
X69620Y17177D01*
X69767Y17158D01*
X69914Y17177D01*
X70052Y17234D01*
X70170Y17325D01*
X70261Y17443D01*
X70267Y17458D01*
D01*
X70274Y17443D01*
X70364Y17325D01*
X70482Y17234D01*
X70620Y17177D01*
X70767Y17158D01*
X70914Y17177D01*
X71052Y17234D01*
X71170Y17325D01*
X71260Y17443D01*
X71317Y17580D01*
X71337Y17728D01*
X71317Y17875D01*
X71260Y18012D01*
X71170Y18130D01*
X71052Y18221D01*
X70914Y18278D01*
X70767Y18297D01*
D02*
G37*
G36*
X37540D02*
X37392Y18278D01*
X37255Y18221D01*
X37137Y18130D01*
X37046Y18012D01*
X37040Y17997D01*
Y17997D01*
Y17997D01*
Y17997D01*
X37040Y17997D01*
X37033Y18012D01*
X36943Y18130D01*
X36825Y18221D01*
X36687Y18278D01*
X36540Y18297D01*
X36392Y18278D01*
X36255Y18221D01*
X36137Y18130D01*
X36046Y18012D01*
X35990Y17875D01*
X35970Y17728D01*
X35990Y17580D01*
X36046Y17443D01*
X36137Y17325D01*
X36255Y17234D01*
X36392Y17177D01*
X36540Y17158D01*
X36687Y17177D01*
X36825Y17234D01*
X36943Y17325D01*
X37033Y17443D01*
X37040Y17458D01*
D01*
X37046Y17443D01*
X37137Y17325D01*
X37255Y17234D01*
X37392Y17177D01*
X37540Y17158D01*
X37687Y17177D01*
X37825Y17234D01*
X37943Y17325D01*
X38033Y17443D01*
X38090Y17580D01*
X38110Y17728D01*
X38090Y17875D01*
X38033Y18012D01*
X37943Y18130D01*
X37825Y18221D01*
X37687Y18278D01*
X37540Y18297D01*
D02*
G37*
G36*
X82736D02*
X82588Y18278D01*
X82451Y18221D01*
X82333Y18130D01*
X82242Y18012D01*
X82236Y17997D01*
Y17997D01*
Y17997D01*
Y17997D01*
X82236Y17997D01*
X82229Y18012D01*
X82138Y18130D01*
X82020Y18221D01*
X81883Y18278D01*
X81736Y18297D01*
X81588Y18278D01*
X81451Y18221D01*
X81333Y18130D01*
X81242Y18012D01*
X81185Y17875D01*
X81166Y17728D01*
X81185Y17580D01*
X81242Y17443D01*
X81333Y17325D01*
X81451Y17234D01*
X81588Y17177D01*
X81736Y17158D01*
X81883Y17177D01*
X82020Y17234D01*
X82138Y17325D01*
X82229Y17443D01*
X82236Y17458D01*
D01*
X82242Y17443D01*
X82333Y17325D01*
X82451Y17234D01*
X82588Y17177D01*
X82736Y17158D01*
X82883Y17177D01*
X83020Y17234D01*
X83138Y17325D01*
X83229Y17443D01*
X83286Y17580D01*
X83305Y17728D01*
X83286Y17875D01*
X83229Y18012D01*
X83138Y18130D01*
X83020Y18221D01*
X82883Y18278D01*
X82736Y18297D01*
D02*
G37*
G36*
X130293Y16329D02*
X130145Y16309D01*
X130008Y16253D01*
X129890Y16162D01*
X129799Y16044D01*
X129793Y16028D01*
Y16028D01*
Y16028D01*
Y16028D01*
X129793Y16028D01*
X129786Y16044D01*
X129696Y16162D01*
X129578Y16253D01*
X129440Y16309D01*
X129293Y16329D01*
X129145Y16309D01*
X129008Y16253D01*
X128890Y16162D01*
X128799Y16044D01*
X128742Y15907D01*
X128723Y15759D01*
X128742Y15612D01*
X128799Y15474D01*
X128890Y15356D01*
X129008Y15266D01*
X129145Y15209D01*
X129293Y15189D01*
X129440Y15209D01*
X129578Y15266D01*
X129696Y15356D01*
X129786Y15474D01*
X129793Y15490D01*
D01*
X129799Y15474D01*
X129890Y15356D01*
X130008Y15266D01*
X130145Y15209D01*
X130293Y15189D01*
X130440Y15209D01*
X130578Y15266D01*
X130696Y15356D01*
X130786Y15474D01*
X130843Y15612D01*
X130863Y15759D01*
X130843Y15907D01*
X130786Y16044D01*
X130696Y16162D01*
X130578Y16253D01*
X130440Y16309D01*
X130293Y16329D01*
D02*
G37*
G36*
X133836D02*
X133689Y16309D01*
X133551Y16253D01*
X133433Y16162D01*
X133343Y16044D01*
X133336Y16028D01*
Y16028D01*
Y16028D01*
Y16028D01*
X133336Y16028D01*
X133329Y16044D01*
X133239Y16162D01*
X133121Y16253D01*
X132983Y16309D01*
X132836Y16329D01*
X132689Y16309D01*
X132551Y16253D01*
X132433Y16162D01*
X132343Y16044D01*
X132286Y15907D01*
X132266Y15759D01*
X132286Y15612D01*
X132343Y15474D01*
X132433Y15356D01*
X132551Y15266D01*
X132689Y15209D01*
X132836Y15189D01*
X132983Y15209D01*
X133121Y15266D01*
X133239Y15356D01*
X133329Y15474D01*
X133336Y15490D01*
D01*
X133343Y15474D01*
X133433Y15356D01*
X133551Y15266D01*
X133689Y15209D01*
X133836Y15189D01*
X133983Y15209D01*
X134121Y15266D01*
X134239Y15356D01*
X134330Y15474D01*
X134386Y15612D01*
X134406Y15759D01*
X134386Y15907D01*
X134330Y16044D01*
X134239Y16162D01*
X134121Y16253D01*
X133983Y16309D01*
X133836Y16329D01*
D02*
G37*
G36*
X69350Y53730D02*
X69202Y53711D01*
X69065Y53654D01*
X68947Y53564D01*
X68856Y53446D01*
X68850Y53430D01*
Y53430D01*
Y53430D01*
Y53430D01*
X68850Y53430D01*
X68843Y53446D01*
X68753Y53564D01*
X68635Y53654D01*
X68497Y53711D01*
X68350Y53730D01*
X68202Y53711D01*
X68065Y53654D01*
X67947Y53564D01*
X67856Y53446D01*
X67799Y53308D01*
X67780Y53161D01*
X67799Y53013D01*
X67856Y52876D01*
X67947Y52758D01*
X68065Y52667D01*
X68202Y52610D01*
X68350Y52591D01*
X68497Y52610D01*
X68635Y52667D01*
X68753Y52758D01*
X68843Y52876D01*
X68850Y52891D01*
D01*
X68856Y52876D01*
X68947Y52758D01*
X69065Y52667D01*
X69202Y52610D01*
X69350Y52591D01*
X69497Y52610D01*
X69635Y52667D01*
X69753Y52758D01*
X69843Y52876D01*
X69900Y53013D01*
X69920Y53161D01*
X69900Y53308D01*
X69843Y53446D01*
X69753Y53564D01*
X69635Y53654D01*
X69497Y53711D01*
X69350Y53730D01*
D02*
G37*
G36*
X81318D02*
X81171Y53711D01*
X81033Y53654D01*
X80915Y53564D01*
X80825Y53446D01*
X80818Y53430D01*
Y53430D01*
Y53430D01*
Y53430D01*
X80818Y53430D01*
X80812Y53446D01*
X80721Y53564D01*
X80603Y53654D01*
X80466Y53711D01*
X80318Y53730D01*
X80171Y53711D01*
X80033Y53654D01*
X79915Y53564D01*
X79825Y53446D01*
X79768Y53308D01*
X79748Y53161D01*
X79768Y53013D01*
X79825Y52876D01*
X79915Y52758D01*
X80033Y52667D01*
X80171Y52610D01*
X80318Y52591D01*
X80466Y52610D01*
X80603Y52667D01*
X80721Y52758D01*
X80812Y52876D01*
X80818Y52891D01*
D01*
X80825Y52876D01*
X80915Y52758D01*
X81033Y52667D01*
X81171Y52610D01*
X81318Y52591D01*
X81466Y52610D01*
X81603Y52667D01*
X81721Y52758D01*
X81812Y52876D01*
X81869Y53013D01*
X81888Y53161D01*
X81869Y53308D01*
X81812Y53446D01*
X81721Y53564D01*
X81603Y53654D01*
X81466Y53711D01*
X81318Y53730D01*
D02*
G37*
G36*
X48091D02*
X47944Y53711D01*
X47806Y53654D01*
X47688Y53564D01*
X47598Y53446D01*
X47591Y53430D01*
Y53430D01*
Y53430D01*
Y53430D01*
X47591Y53430D01*
X47585Y53446D01*
X47494Y53564D01*
X47376Y53654D01*
X47239Y53711D01*
X47091Y53730D01*
X46944Y53711D01*
X46806Y53654D01*
X46688Y53564D01*
X46598Y53446D01*
X46541Y53308D01*
X46521Y53161D01*
X46541Y53013D01*
X46598Y52876D01*
X46688Y52758D01*
X46806Y52667D01*
X46944Y52610D01*
X47091Y52591D01*
X47239Y52610D01*
X47376Y52667D01*
X47494Y52758D01*
X47585Y52876D01*
X47591Y52891D01*
D01*
X47598Y52876D01*
X47688Y52758D01*
X47806Y52667D01*
X47944Y52610D01*
X48091Y52591D01*
X48239Y52610D01*
X48376Y52667D01*
X48494Y52758D01*
X48585Y52876D01*
X48642Y53013D01*
X48661Y53161D01*
X48642Y53308D01*
X48585Y53446D01*
X48494Y53564D01*
X48376Y53654D01*
X48239Y53711D01*
X48091Y53730D01*
D02*
G37*
G36*
X158118Y52723D02*
X158001Y52708D01*
X157892Y52663D01*
X157799Y52591D01*
X157727Y52498D01*
X157682Y52389D01*
X157667Y52272D01*
X157682Y52156D01*
X157727Y52047D01*
X157799Y51954D01*
X157892Y51882D01*
X158001Y51837D01*
X158118Y51821D01*
X158234Y51837D01*
X158343Y51882D01*
X158436Y51954D01*
X158508Y52047D01*
X158553Y52156D01*
X158568Y52272D01*
X158553Y52389D01*
X158508Y52498D01*
X158436Y52591D01*
X158343Y52663D01*
X158234Y52708D01*
X158118Y52723D01*
D02*
G37*
G36*
X36123Y53730D02*
X35975Y53711D01*
X35838Y53654D01*
X35720Y53564D01*
X35629Y53446D01*
X35623Y53430D01*
Y53430D01*
Y53430D01*
Y53430D01*
X35623Y53430D01*
X35616Y53446D01*
X35526Y53564D01*
X35408Y53654D01*
X35270Y53711D01*
X35123Y53730D01*
X34975Y53711D01*
X34838Y53654D01*
X34720Y53564D01*
X34629Y53446D01*
X34572Y53308D01*
X34553Y53161D01*
X34572Y53013D01*
X34629Y52876D01*
X34720Y52758D01*
X34838Y52667D01*
X34975Y52610D01*
X35123Y52591D01*
X35270Y52610D01*
X35408Y52667D01*
X35526Y52758D01*
X35616Y52876D01*
X35623Y52891D01*
D01*
X35629Y52876D01*
X35720Y52758D01*
X35838Y52667D01*
X35975Y52610D01*
X36123Y52591D01*
X36270Y52610D01*
X36408Y52667D01*
X36526Y52758D01*
X36616Y52876D01*
X36673Y53013D01*
X36692Y53161D01*
X36673Y53308D01*
X36616Y53446D01*
X36526Y53564D01*
X36408Y53654D01*
X36270Y53711D01*
X36123Y53730D01*
D02*
G37*
G36*
X135804D02*
X135656Y53711D01*
X135519Y53654D01*
X135401Y53564D01*
X135310Y53446D01*
X135304Y53430D01*
Y53430D01*
Y53430D01*
Y53430D01*
X135304Y53430D01*
X135297Y53446D01*
X135207Y53564D01*
X135089Y53654D01*
X134951Y53711D01*
X134804Y53730D01*
X134656Y53711D01*
X134519Y53654D01*
X134401Y53564D01*
X134310Y53446D01*
X134253Y53308D01*
X134234Y53161D01*
X134253Y53013D01*
X134310Y52876D01*
X134401Y52758D01*
X134519Y52667D01*
X134656Y52610D01*
X134804Y52591D01*
X134951Y52610D01*
X135089Y52667D01*
X135207Y52758D01*
X135297Y52876D01*
X135304Y52891D01*
D01*
X135310Y52876D01*
X135401Y52758D01*
X135519Y52667D01*
X135656Y52610D01*
X135804Y52591D01*
X135951Y52610D01*
X136089Y52667D01*
X136207Y52758D01*
X136297Y52876D01*
X136354Y53013D01*
X136374Y53161D01*
X136354Y53308D01*
X136297Y53446D01*
X136207Y53564D01*
X136089Y53654D01*
X135951Y53711D01*
X135804Y53730D01*
D02*
G37*
G36*
X29037Y55699D02*
X28889Y55680D01*
X28752Y55623D01*
X28634Y55532D01*
X28543Y55414D01*
X28537Y55398D01*
Y55398D01*
Y55398D01*
Y55398D01*
X28537Y55398D01*
X28530Y55414D01*
X28440Y55532D01*
X28322Y55623D01*
X28184Y55680D01*
X28037Y55699D01*
X27889Y55680D01*
X27752Y55623D01*
X27634Y55532D01*
X27543Y55414D01*
X27486Y55277D01*
X27467Y55129D01*
X27486Y54982D01*
X27543Y54844D01*
X27634Y54726D01*
X27752Y54636D01*
X27889Y54579D01*
X28037Y54559D01*
X28184Y54579D01*
X28322Y54636D01*
X28440Y54726D01*
X28530Y54844D01*
X28537Y54860D01*
D01*
X28543Y54844D01*
X28634Y54726D01*
X28752Y54636D01*
X28889Y54579D01*
X29037Y54559D01*
X29184Y54579D01*
X29322Y54636D01*
X29440Y54726D01*
X29530Y54844D01*
X29587Y54982D01*
X29606Y55129D01*
X29587Y55277D01*
X29530Y55414D01*
X29440Y55532D01*
X29322Y55623D01*
X29184Y55680D01*
X29037Y55699D01*
D02*
G37*
G36*
X114545Y53730D02*
X114398Y53711D01*
X114260Y53654D01*
X114142Y53564D01*
X114052Y53446D01*
X114045Y53430D01*
Y53430D01*
Y53430D01*
Y53430D01*
X114045Y53430D01*
X114039Y53446D01*
X113948Y53564D01*
X113830Y53654D01*
X113693Y53711D01*
X113545Y53730D01*
X113398Y53711D01*
X113260Y53654D01*
X113142Y53564D01*
X113052Y53446D01*
X112995Y53308D01*
X112975Y53161D01*
X112995Y53013D01*
X113052Y52876D01*
X113142Y52758D01*
X113260Y52667D01*
X113398Y52610D01*
X113545Y52591D01*
X113693Y52610D01*
X113830Y52667D01*
X113948Y52758D01*
X114039Y52876D01*
X114045Y52891D01*
D01*
X114052Y52876D01*
X114142Y52758D01*
X114260Y52667D01*
X114398Y52610D01*
X114545Y52591D01*
X114693Y52610D01*
X114830Y52667D01*
X114948Y52758D01*
X115039Y52876D01*
X115096Y53013D01*
X115115Y53161D01*
X115096Y53308D01*
X115039Y53446D01*
X114948Y53564D01*
X114830Y53654D01*
X114693Y53711D01*
X114545Y53730D01*
D02*
G37*
G36*
X14864D02*
X14717Y53711D01*
X14579Y53654D01*
X14461Y53564D01*
X14371Y53446D01*
X14364Y53430D01*
Y53430D01*
Y53430D01*
Y53430D01*
X14364Y53430D01*
X14358Y53446D01*
X14267Y53564D01*
X14149Y53654D01*
X14012Y53711D01*
X13864Y53730D01*
X13717Y53711D01*
X13579Y53654D01*
X13461Y53564D01*
X13371Y53446D01*
X13314Y53308D01*
X13294Y53161D01*
X13314Y53013D01*
X13371Y52876D01*
X13461Y52758D01*
X13579Y52667D01*
X13717Y52610D01*
X13864Y52591D01*
X14012Y52610D01*
X14149Y52667D01*
X14267Y52758D01*
X14358Y52876D01*
X14364Y52891D01*
D01*
X14371Y52876D01*
X14461Y52758D01*
X14579Y52667D01*
X14717Y52610D01*
X14864Y52591D01*
X15012Y52610D01*
X15149Y52667D01*
X15267Y52758D01*
X15358Y52876D01*
X15414Y53013D01*
X15434Y53161D01*
X15414Y53308D01*
X15358Y53446D01*
X15267Y53564D01*
X15149Y53654D01*
X15012Y53711D01*
X14864Y53730D01*
D02*
G37*
G36*
X102577D02*
X102429Y53711D01*
X102292Y53654D01*
X102174Y53564D01*
X102083Y53446D01*
X102077Y53430D01*
Y53430D01*
Y53430D01*
Y53430D01*
X102077Y53430D01*
X102070Y53446D01*
X101980Y53564D01*
X101862Y53654D01*
X101724Y53711D01*
X101577Y53730D01*
X101429Y53711D01*
X101292Y53654D01*
X101174Y53564D01*
X101083Y53446D01*
X101026Y53308D01*
X101007Y53161D01*
X101026Y53013D01*
X101083Y52876D01*
X101174Y52758D01*
X101292Y52667D01*
X101429Y52610D01*
X101577Y52591D01*
X101724Y52610D01*
X101862Y52667D01*
X101980Y52758D01*
X102070Y52876D01*
X102077Y52891D01*
D01*
X102083Y52876D01*
X102174Y52758D01*
X102292Y52667D01*
X102429Y52610D01*
X102577Y52591D01*
X102724Y52610D01*
X102862Y52667D01*
X102980Y52758D01*
X103070Y52876D01*
X103127Y53013D01*
X103147Y53161D01*
X103127Y53308D01*
X103070Y53446D01*
X102980Y53564D01*
X102862Y53654D01*
X102724Y53711D01*
X102577Y53730D01*
D02*
G37*
G36*
X48249Y49793D02*
X48101Y49774D01*
X47964Y49717D01*
X47846Y49627D01*
X47755Y49509D01*
X47749Y49493D01*
Y49493D01*
Y49493D01*
Y49493D01*
X47749Y49493D01*
X47742Y49509D01*
X47652Y49627D01*
X47534Y49717D01*
X47396Y49774D01*
X47249Y49793D01*
X47101Y49774D01*
X46964Y49717D01*
X46846Y49627D01*
X46755Y49509D01*
X46698Y49371D01*
X46679Y49224D01*
X46698Y49076D01*
X46755Y48939D01*
X46846Y48821D01*
X46964Y48730D01*
X47101Y48673D01*
X47249Y48654D01*
X47396Y48673D01*
X47534Y48730D01*
X47652Y48821D01*
X47742Y48939D01*
X47749Y48954D01*
D01*
X47755Y48939D01*
X47846Y48821D01*
X47964Y48730D01*
X48101Y48673D01*
X48249Y48654D01*
X48396Y48673D01*
X48534Y48730D01*
X48652Y48821D01*
X48742Y48939D01*
X48799Y49076D01*
X48818Y49224D01*
X48799Y49371D01*
X48742Y49509D01*
X48652Y49627D01*
X48534Y49717D01*
X48396Y49774D01*
X48249Y49793D01*
D02*
G37*
G36*
X69507D02*
X69360Y49774D01*
X69222Y49717D01*
X69104Y49627D01*
X69014Y49509D01*
X69007Y49493D01*
Y49493D01*
Y49493D01*
Y49493D01*
X69007Y49493D01*
X69001Y49509D01*
X68910Y49627D01*
X68792Y49717D01*
X68655Y49774D01*
X68507Y49793D01*
X68360Y49774D01*
X68222Y49717D01*
X68104Y49627D01*
X68014Y49509D01*
X67957Y49371D01*
X67937Y49224D01*
X67957Y49076D01*
X68014Y48939D01*
X68104Y48821D01*
X68222Y48730D01*
X68360Y48673D01*
X68507Y48654D01*
X68655Y48673D01*
X68792Y48730D01*
X68910Y48821D01*
X69001Y48939D01*
X69007Y48954D01*
D01*
X69014Y48939D01*
X69104Y48821D01*
X69222Y48730D01*
X69360Y48673D01*
X69507Y48654D01*
X69655Y48673D01*
X69792Y48730D01*
X69910Y48821D01*
X70001Y48939D01*
X70058Y49076D01*
X70077Y49224D01*
X70058Y49371D01*
X70001Y49509D01*
X69910Y49627D01*
X69792Y49717D01*
X69655Y49774D01*
X69507Y49793D01*
D02*
G37*
G36*
X36280D02*
X36133Y49774D01*
X35995Y49717D01*
X35877Y49627D01*
X35787Y49509D01*
X35780Y49493D01*
Y49493D01*
Y49493D01*
Y49493D01*
X35780Y49493D01*
X35774Y49509D01*
X35683Y49627D01*
X35565Y49717D01*
X35428Y49774D01*
X35280Y49793D01*
X35133Y49774D01*
X34995Y49717D01*
X34877Y49627D01*
X34787Y49509D01*
X34730Y49371D01*
X34710Y49224D01*
X34730Y49076D01*
X34787Y48939D01*
X34877Y48821D01*
X34995Y48730D01*
X35133Y48673D01*
X35280Y48654D01*
X35428Y48673D01*
X35565Y48730D01*
X35683Y48821D01*
X35774Y48939D01*
X35780Y48954D01*
D01*
X35787Y48939D01*
X35877Y48821D01*
X35995Y48730D01*
X36133Y48673D01*
X36280Y48654D01*
X36428Y48673D01*
X36565Y48730D01*
X36683Y48821D01*
X36774Y48939D01*
X36831Y49076D01*
X36850Y49224D01*
X36831Y49371D01*
X36774Y49509D01*
X36683Y49627D01*
X36565Y49717D01*
X36428Y49774D01*
X36280Y49793D01*
D02*
G37*
G36*
X118671Y49739D02*
X117171D01*
X116421Y48989D01*
Y47489D01*
X117171Y46739D01*
X118671D01*
X119421Y47489D01*
Y48989D01*
X118671Y49739D01*
D02*
G37*
G36*
X143774Y47754D02*
X143644Y47737D01*
X143522Y47687D01*
X143418Y47607D01*
X143338Y47502D01*
X143287Y47381D01*
X143270Y47250D01*
X143287Y47119D01*
X143338Y46998D01*
X143418Y46893D01*
X143522Y46813D01*
X143644Y46763D01*
X143774Y46746D01*
X143905Y46763D01*
X144027Y46813D01*
X144131Y46893D01*
X144211Y46998D01*
X144262Y47119D01*
X144279Y47250D01*
X144262Y47381D01*
X144211Y47502D01*
X144131Y47607D01*
X144027Y47687D01*
X143905Y47737D01*
X143774Y47754D01*
D02*
G37*
G36*
X114703Y49793D02*
X114556Y49774D01*
X114418Y49717D01*
X114300Y49627D01*
X114210Y49509D01*
X114203Y49493D01*
Y49493D01*
Y49493D01*
Y49493D01*
X114203Y49493D01*
X114197Y49509D01*
X114106Y49627D01*
X113988Y49717D01*
X113851Y49774D01*
X113703Y49793D01*
X113556Y49774D01*
X113418Y49717D01*
X113300Y49627D01*
X113210Y49509D01*
X113153Y49371D01*
X113134Y49224D01*
X113153Y49076D01*
X113210Y48939D01*
X113300Y48821D01*
X113418Y48730D01*
X113556Y48673D01*
X113703Y48654D01*
X113851Y48673D01*
X113988Y48730D01*
X114106Y48821D01*
X114197Y48939D01*
X114203Y48954D01*
D01*
X114210Y48939D01*
X114300Y48821D01*
X114418Y48730D01*
X114556Y48673D01*
X114703Y48654D01*
X114851Y48673D01*
X114988Y48730D01*
X115106Y48821D01*
X115197Y48939D01*
X115254Y49076D01*
X115273Y49224D01*
X115254Y49371D01*
X115197Y49509D01*
X115106Y49627D01*
X114988Y49717D01*
X114851Y49774D01*
X114703Y49793D01*
D02*
G37*
G36*
X135961D02*
X135814Y49774D01*
X135676Y49717D01*
X135558Y49627D01*
X135468Y49509D01*
X135461Y49493D01*
Y49493D01*
Y49493D01*
Y49493D01*
X135461Y49493D01*
X135455Y49509D01*
X135364Y49627D01*
X135246Y49717D01*
X135109Y49774D01*
X134961Y49793D01*
X134814Y49774D01*
X134676Y49717D01*
X134558Y49627D01*
X134468Y49509D01*
X134411Y49371D01*
X134391Y49224D01*
X134411Y49076D01*
X134468Y48939D01*
X134558Y48821D01*
X134676Y48730D01*
X134814Y48673D01*
X134961Y48654D01*
X135109Y48673D01*
X135246Y48730D01*
X135364Y48821D01*
X135455Y48939D01*
X135461Y48954D01*
D01*
X135468Y48939D01*
X135558Y48821D01*
X135676Y48730D01*
X135814Y48673D01*
X135961Y48654D01*
X136109Y48673D01*
X136246Y48730D01*
X136364Y48821D01*
X136455Y48939D01*
X136512Y49076D01*
X136531Y49224D01*
X136512Y49371D01*
X136455Y49509D01*
X136364Y49627D01*
X136246Y49717D01*
X136109Y49774D01*
X135961Y49793D01*
D02*
G37*
G36*
X102734D02*
X102587Y49774D01*
X102449Y49717D01*
X102331Y49627D01*
X102241Y49509D01*
X102234Y49493D01*
Y49493D01*
Y49493D01*
Y49493D01*
X102234Y49493D01*
X102228Y49509D01*
X102137Y49627D01*
X102019Y49717D01*
X101882Y49774D01*
X101734Y49793D01*
X101587Y49774D01*
X101449Y49717D01*
X101331Y49627D01*
X101241Y49509D01*
X101184Y49371D01*
X101164Y49224D01*
X101184Y49076D01*
X101241Y48939D01*
X101331Y48821D01*
X101449Y48730D01*
X101587Y48673D01*
X101734Y48654D01*
X101882Y48673D01*
X102019Y48730D01*
X102137Y48821D01*
X102228Y48939D01*
X102234Y48954D01*
D01*
X102241Y48939D01*
X102331Y48821D01*
X102449Y48730D01*
X102587Y48673D01*
X102734Y48654D01*
X102882Y48673D01*
X103019Y48730D01*
X103137Y48821D01*
X103228Y48939D01*
X103285Y49076D01*
X103304Y49224D01*
X103285Y49371D01*
X103228Y49509D01*
X103137Y49627D01*
X103019Y49717D01*
X102882Y49774D01*
X102734Y49793D01*
D02*
G37*
G36*
X81476D02*
X81328Y49774D01*
X81191Y49717D01*
X81073Y49627D01*
X80982Y49509D01*
X80976Y49493D01*
Y49493D01*
Y49493D01*
Y49493D01*
X80976Y49493D01*
X80969Y49509D01*
X80879Y49627D01*
X80761Y49717D01*
X80623Y49774D01*
X80476Y49793D01*
X80328Y49774D01*
X80191Y49717D01*
X80073Y49627D01*
X79982Y49509D01*
X79925Y49371D01*
X79906Y49224D01*
X79925Y49076D01*
X79982Y48939D01*
X80073Y48821D01*
X80191Y48730D01*
X80328Y48673D01*
X80476Y48654D01*
X80623Y48673D01*
X80761Y48730D01*
X80879Y48821D01*
X80969Y48939D01*
X80976Y48954D01*
D01*
X80982Y48939D01*
X81073Y48821D01*
X81191Y48730D01*
X81328Y48673D01*
X81476Y48654D01*
X81623Y48673D01*
X81761Y48730D01*
X81879Y48821D01*
X81969Y48939D01*
X82026Y49076D01*
X82046Y49224D01*
X82026Y49371D01*
X81969Y49509D01*
X81879Y49627D01*
X81761Y49717D01*
X81623Y49774D01*
X81476Y49793D01*
D02*
G37*
G36*
X15022D02*
X14874Y49774D01*
X14737Y49717D01*
X14619Y49627D01*
X14528Y49509D01*
X14522Y49493D01*
Y49493D01*
Y49493D01*
Y49493D01*
X14522Y49493D01*
X14515Y49509D01*
X14424Y49627D01*
X14306Y49717D01*
X14169Y49774D01*
X14022Y49793D01*
X13874Y49774D01*
X13737Y49717D01*
X13619Y49627D01*
X13528Y49509D01*
X13471Y49371D01*
X13452Y49224D01*
X13471Y49076D01*
X13528Y48939D01*
X13619Y48821D01*
X13737Y48730D01*
X13874Y48673D01*
X14022Y48654D01*
X14169Y48673D01*
X14306Y48730D01*
X14424Y48821D01*
X14515Y48939D01*
X14522Y48954D01*
D01*
X14528Y48939D01*
X14619Y48821D01*
X14737Y48730D01*
X14874Y48673D01*
X15022Y48654D01*
X15169Y48673D01*
X15306Y48730D01*
X15424Y48821D01*
X15515Y48939D01*
X15572Y49076D01*
X15591Y49224D01*
X15572Y49371D01*
X15515Y49509D01*
X15424Y49627D01*
X15306Y49717D01*
X15169Y49774D01*
X15022Y49793D01*
D02*
G37*
G36*
X32580Y55699D02*
X32432Y55680D01*
X32295Y55623D01*
X32177Y55532D01*
X32086Y55414D01*
X32080Y55398D01*
Y55398D01*
Y55398D01*
Y55398D01*
X32080Y55398D01*
X32073Y55414D01*
X31983Y55532D01*
X31865Y55623D01*
X31727Y55680D01*
X31580Y55699D01*
X31432Y55680D01*
X31295Y55623D01*
X31177Y55532D01*
X31086Y55414D01*
X31030Y55277D01*
X31010Y55129D01*
X31030Y54982D01*
X31086Y54844D01*
X31177Y54726D01*
X31295Y54636D01*
X31432Y54579D01*
X31580Y54559D01*
X31727Y54579D01*
X31865Y54636D01*
X31983Y54726D01*
X32073Y54844D01*
X32080Y54860D01*
D01*
X32086Y54844D01*
X32177Y54726D01*
X32295Y54636D01*
X32432Y54579D01*
X32580Y54559D01*
X32727Y54579D01*
X32865Y54636D01*
X32983Y54726D01*
X33073Y54844D01*
X33130Y54982D01*
X33150Y55129D01*
X33130Y55277D01*
X33073Y55414D01*
X32983Y55532D01*
X32865Y55623D01*
X32727Y55680D01*
X32580Y55699D01*
D02*
G37*
G36*
X118088D02*
X117940Y55680D01*
X117803Y55623D01*
X117685Y55532D01*
X117594Y55414D01*
X117588Y55398D01*
Y55398D01*
Y55398D01*
Y55398D01*
X117588Y55398D01*
X117581Y55414D01*
X117491Y55532D01*
X117373Y55623D01*
X117235Y55680D01*
X117088Y55699D01*
X116940Y55680D01*
X116803Y55623D01*
X116685Y55532D01*
X116594Y55414D01*
X116538Y55277D01*
X116518Y55129D01*
X116538Y54982D01*
X116594Y54844D01*
X116685Y54726D01*
X116803Y54636D01*
X116940Y54579D01*
X117088Y54559D01*
X117235Y54579D01*
X117373Y54636D01*
X117491Y54726D01*
X117581Y54844D01*
X117588Y54860D01*
D01*
X117594Y54844D01*
X117685Y54726D01*
X117803Y54636D01*
X117940Y54579D01*
X118088Y54559D01*
X118235Y54579D01*
X118373Y54636D01*
X118491Y54726D01*
X118581Y54844D01*
X118638Y54982D01*
X118658Y55129D01*
X118638Y55277D01*
X118581Y55414D01*
X118491Y55532D01*
X118373Y55623D01*
X118235Y55680D01*
X118088Y55699D01*
D02*
G37*
G36*
X121632D02*
X121484Y55680D01*
X121347Y55623D01*
X121229Y55532D01*
X121138Y55414D01*
X121132Y55398D01*
Y55398D01*
Y55398D01*
Y55398D01*
X121132Y55398D01*
X121125Y55414D01*
X121035Y55532D01*
X120917Y55623D01*
X120779Y55680D01*
X120632Y55699D01*
X120484Y55680D01*
X120347Y55623D01*
X120229Y55532D01*
X120138Y55414D01*
X120081Y55277D01*
X120062Y55129D01*
X120081Y54982D01*
X120138Y54844D01*
X120229Y54726D01*
X120347Y54636D01*
X120484Y54579D01*
X120632Y54559D01*
X120779Y54579D01*
X120917Y54636D01*
X121035Y54726D01*
X121125Y54844D01*
X121132Y54860D01*
D01*
X121138Y54844D01*
X121229Y54726D01*
X121347Y54636D01*
X121484Y54579D01*
X121632Y54559D01*
X121779Y54579D01*
X121917Y54636D01*
X122035Y54726D01*
X122125Y54844D01*
X122182Y54982D01*
X122202Y55129D01*
X122182Y55277D01*
X122125Y55414D01*
X122035Y55532D01*
X121917Y55623D01*
X121779Y55680D01*
X121632Y55699D01*
D02*
G37*
G36*
X99034D02*
X98887Y55680D01*
X98749Y55623D01*
X98631Y55532D01*
X98541Y55414D01*
X98534Y55398D01*
Y55398D01*
Y55398D01*
Y55398D01*
X98534Y55398D01*
X98528Y55414D01*
X98437Y55532D01*
X98319Y55623D01*
X98182Y55680D01*
X98034Y55699D01*
X97887Y55680D01*
X97749Y55623D01*
X97631Y55532D01*
X97541Y55414D01*
X97484Y55277D01*
X97464Y55129D01*
X97484Y54982D01*
X97541Y54844D01*
X97631Y54726D01*
X97749Y54636D01*
X97887Y54579D01*
X98034Y54559D01*
X98182Y54579D01*
X98319Y54636D01*
X98437Y54726D01*
X98528Y54844D01*
X98534Y54860D01*
D01*
X98541Y54844D01*
X98631Y54726D01*
X98749Y54636D01*
X98887Y54579D01*
X99034Y54559D01*
X99182Y54579D01*
X99319Y54636D01*
X99437Y54726D01*
X99528Y54844D01*
X99585Y54982D01*
X99604Y55129D01*
X99585Y55277D01*
X99528Y55414D01*
X99437Y55532D01*
X99319Y55623D01*
X99182Y55680D01*
X99034Y55699D01*
D02*
G37*
G36*
X25493D02*
X25346Y55680D01*
X25208Y55623D01*
X25090Y55532D01*
X25000Y55414D01*
X24993Y55398D01*
Y55398D01*
Y55398D01*
Y55398D01*
X24993Y55398D01*
X24987Y55414D01*
X24896Y55532D01*
X24778Y55623D01*
X24641Y55680D01*
X24493Y55699D01*
X24346Y55680D01*
X24208Y55623D01*
X24090Y55532D01*
X24000Y55414D01*
X23943Y55277D01*
X23924Y55129D01*
X23943Y54982D01*
X24000Y54844D01*
X24090Y54726D01*
X24208Y54636D01*
X24346Y54579D01*
X24493Y54559D01*
X24641Y54579D01*
X24778Y54636D01*
X24896Y54726D01*
X24987Y54844D01*
X24993Y54860D01*
D01*
X25000Y54844D01*
X25090Y54726D01*
X25208Y54636D01*
X25346Y54579D01*
X25493Y54559D01*
X25641Y54579D01*
X25778Y54636D01*
X25896Y54726D01*
X25987Y54844D01*
X26044Y54982D01*
X26063Y55129D01*
X26044Y55277D01*
X25987Y55414D01*
X25896Y55532D01*
X25778Y55623D01*
X25641Y55680D01*
X25493Y55699D01*
D02*
G37*
G36*
X95491D02*
X95343Y55680D01*
X95206Y55623D01*
X95088Y55532D01*
X94997Y55414D01*
X94991Y55398D01*
Y55398D01*
Y55398D01*
Y55398D01*
X94991Y55398D01*
X94984Y55414D01*
X94894Y55532D01*
X94776Y55623D01*
X94638Y55680D01*
X94491Y55699D01*
X94343Y55680D01*
X94206Y55623D01*
X94088Y55532D01*
X93997Y55414D01*
X93940Y55277D01*
X93921Y55129D01*
X93940Y54982D01*
X93997Y54844D01*
X94088Y54726D01*
X94206Y54636D01*
X94343Y54579D01*
X94491Y54559D01*
X94638Y54579D01*
X94776Y54636D01*
X94894Y54726D01*
X94984Y54844D01*
X94991Y54860D01*
D01*
X94997Y54844D01*
X95088Y54726D01*
X95206Y54636D01*
X95343Y54579D01*
X95491Y54559D01*
X95638Y54579D01*
X95776Y54636D01*
X95894Y54726D01*
X95984Y54844D01*
X96041Y54982D01*
X96061Y55129D01*
X96041Y55277D01*
X95984Y55414D01*
X95894Y55532D01*
X95776Y55623D01*
X95638Y55680D01*
X95491Y55699D01*
D02*
G37*
G36*
X139874Y57455D02*
X138474D01*
X138472Y57454D01*
X106650D01*
X106647Y57455D01*
X105247D01*
X105244Y57454D01*
X73423D01*
X73420Y57455D01*
X72020D01*
X72017Y57454D01*
X40196D01*
X40193Y57455D01*
X38793D01*
X38696Y57435D01*
X38613Y57380D01*
X38558Y57298D01*
X38538Y57200D01*
Y55500D01*
X38558Y55402D01*
X38613Y55320D01*
X39013Y54920D01*
X39096Y54865D01*
X39193Y54845D01*
X39793D01*
X39891Y54865D01*
X39973Y54920D01*
X40373Y55320D01*
X40429Y55402D01*
X40448Y55500D01*
Y56063D01*
X40839Y56446D01*
X71374D01*
X71765Y56054D01*
Y55500D01*
X71785Y55402D01*
X71840Y55320D01*
X72240Y54920D01*
X72323Y54865D01*
X72420Y54845D01*
X73020D01*
X73118Y54865D01*
X73201Y54920D01*
X73601Y55320D01*
X73656Y55402D01*
X73675Y55500D01*
Y56063D01*
X74066Y56446D01*
X104601D01*
X104993Y56054D01*
Y55500D01*
X105012Y55402D01*
X105067Y55320D01*
X105467Y54920D01*
X105550Y54865D01*
X105647Y54845D01*
X106247D01*
X106345Y54865D01*
X106428Y54920D01*
X106828Y55320D01*
X106883Y55402D01*
X106902Y55500D01*
Y56063D01*
X107293Y56446D01*
X137828D01*
X138220Y56054D01*
Y55500D01*
X138239Y55402D01*
X138294Y55320D01*
X138694Y54920D01*
X138777Y54865D01*
X138874Y54845D01*
X139474D01*
X139572Y54865D01*
X139655Y54920D01*
X140055Y55320D01*
X140110Y55402D01*
X140129Y55500D01*
Y57200D01*
X140110Y57298D01*
X140055Y57380D01*
X139972Y57435D01*
X139874Y57455D01*
D02*
G37*
G36*
X4574Y59810D02*
X4458Y59794D01*
X4349Y59749D01*
X4256Y59678D01*
X4184Y59584D01*
X4139Y59475D01*
X4124Y59359D01*
X4139Y59242D01*
X4184Y59133D01*
X4256Y59040D01*
X4349Y58969D01*
X4458Y58923D01*
X4574Y58908D01*
X4691Y58923D01*
X4800Y58969D01*
X4893Y59040D01*
X4965Y59133D01*
X5010Y59242D01*
X5025Y59359D01*
X5010Y59475D01*
X4965Y59584D01*
X4893Y59678D01*
X4800Y59749D01*
X4691Y59794D01*
X4574Y59810D01*
D02*
G37*
G36*
X132261Y55699D02*
X132114Y55680D01*
X131976Y55623D01*
X131858Y55532D01*
X131768Y55414D01*
X131761Y55398D01*
Y55398D01*
Y55398D01*
Y55398D01*
X131761Y55398D01*
X131755Y55414D01*
X131664Y55532D01*
X131546Y55623D01*
X131409Y55680D01*
X131261Y55699D01*
X131114Y55680D01*
X130976Y55623D01*
X130858Y55532D01*
X130768Y55414D01*
X130711Y55277D01*
X130691Y55129D01*
X130711Y54982D01*
X130768Y54844D01*
X130858Y54726D01*
X130976Y54636D01*
X131114Y54579D01*
X131261Y54559D01*
X131409Y54579D01*
X131546Y54636D01*
X131664Y54726D01*
X131755Y54844D01*
X131761Y54860D01*
D01*
X131768Y54844D01*
X131858Y54726D01*
X131976Y54636D01*
X132114Y54579D01*
X132261Y54559D01*
X132409Y54579D01*
X132546Y54636D01*
X132664Y54726D01*
X132755Y54844D01*
X132812Y54982D01*
X132831Y55129D01*
X132812Y55277D01*
X132755Y55414D01*
X132664Y55532D01*
X132546Y55623D01*
X132409Y55680D01*
X132261Y55699D01*
D02*
G37*
G36*
X125175D02*
X125027Y55680D01*
X124890Y55623D01*
X124772Y55532D01*
X124681Y55414D01*
X124675Y55398D01*
Y55398D01*
Y55398D01*
Y55398D01*
X124675Y55398D01*
X124668Y55414D01*
X124578Y55532D01*
X124460Y55623D01*
X124322Y55680D01*
X124175Y55699D01*
X124027Y55680D01*
X123890Y55623D01*
X123772Y55532D01*
X123681Y55414D01*
X123624Y55277D01*
X123605Y55129D01*
X123624Y54982D01*
X123681Y54844D01*
X123772Y54726D01*
X123890Y54636D01*
X124027Y54579D01*
X124175Y54559D01*
X124322Y54579D01*
X124460Y54636D01*
X124578Y54726D01*
X124668Y54844D01*
X124675Y54860D01*
D01*
X124681Y54844D01*
X124772Y54726D01*
X124890Y54636D01*
X125027Y54579D01*
X125175Y54559D01*
X125322Y54579D01*
X125460Y54636D01*
X125578Y54726D01*
X125668Y54844D01*
X125725Y54982D01*
X125744Y55129D01*
X125725Y55277D01*
X125668Y55414D01*
X125578Y55532D01*
X125460Y55623D01*
X125322Y55680D01*
X125175Y55699D01*
D02*
G37*
G36*
X128719D02*
X128571Y55680D01*
X128434Y55623D01*
X128316Y55532D01*
X128225Y55414D01*
X128219Y55398D01*
Y55398D01*
Y55398D01*
Y55398D01*
X128219Y55398D01*
X128212Y55414D01*
X128121Y55532D01*
X128003Y55623D01*
X127866Y55680D01*
X127719Y55699D01*
X127571Y55680D01*
X127434Y55623D01*
X127316Y55532D01*
X127225Y55414D01*
X127168Y55277D01*
X127149Y55129D01*
X127168Y54982D01*
X127225Y54844D01*
X127316Y54726D01*
X127434Y54636D01*
X127571Y54579D01*
X127719Y54559D01*
X127866Y54579D01*
X128003Y54636D01*
X128121Y54726D01*
X128212Y54844D01*
X128219Y54860D01*
D01*
X128225Y54844D01*
X128316Y54726D01*
X128434Y54636D01*
X128571Y54579D01*
X128719Y54559D01*
X128866Y54579D01*
X129003Y54636D01*
X129121Y54726D01*
X129212Y54844D01*
X129269Y54982D01*
X129288Y55129D01*
X129269Y55277D01*
X129212Y55414D01*
X129121Y55532D01*
X129003Y55623D01*
X128866Y55680D01*
X128719Y55699D01*
D02*
G37*
G36*
X62264D02*
X62116Y55680D01*
X61979Y55623D01*
X61861Y55532D01*
X61770Y55414D01*
X61764Y55398D01*
Y55398D01*
Y55398D01*
Y55398D01*
X61764Y55398D01*
X61757Y55414D01*
X61667Y55532D01*
X61549Y55623D01*
X61411Y55680D01*
X61264Y55699D01*
X61116Y55680D01*
X60979Y55623D01*
X60861Y55532D01*
X60770Y55414D01*
X60713Y55277D01*
X60694Y55129D01*
X60713Y54982D01*
X60770Y54844D01*
X60861Y54726D01*
X60979Y54636D01*
X61116Y54579D01*
X61264Y54559D01*
X61411Y54579D01*
X61549Y54636D01*
X61667Y54726D01*
X61757Y54844D01*
X61764Y54860D01*
D01*
X61770Y54844D01*
X61861Y54726D01*
X61979Y54636D01*
X62116Y54579D01*
X62264Y54559D01*
X62411Y54579D01*
X62549Y54636D01*
X62667Y54726D01*
X62757Y54844D01*
X62814Y54982D01*
X62834Y55129D01*
X62814Y55277D01*
X62757Y55414D01*
X62667Y55532D01*
X62549Y55623D01*
X62411Y55680D01*
X62264Y55699D01*
D02*
G37*
G36*
X65807D02*
X65660Y55680D01*
X65522Y55623D01*
X65404Y55532D01*
X65314Y55414D01*
X65307Y55398D01*
Y55398D01*
Y55398D01*
Y55398D01*
X65307Y55398D01*
X65301Y55414D01*
X65210Y55532D01*
X65092Y55623D01*
X64955Y55680D01*
X64807Y55699D01*
X64660Y55680D01*
X64522Y55623D01*
X64404Y55532D01*
X64314Y55414D01*
X64257Y55277D01*
X64237Y55129D01*
X64257Y54982D01*
X64314Y54844D01*
X64404Y54726D01*
X64522Y54636D01*
X64660Y54579D01*
X64807Y54559D01*
X64955Y54579D01*
X65092Y54636D01*
X65210Y54726D01*
X65301Y54844D01*
X65307Y54860D01*
D01*
X65314Y54844D01*
X65404Y54726D01*
X65522Y54636D01*
X65660Y54579D01*
X65807Y54559D01*
X65955Y54579D01*
X66092Y54636D01*
X66210Y54726D01*
X66301Y54844D01*
X66357Y54982D01*
X66377Y55129D01*
X66357Y55277D01*
X66301Y55414D01*
X66210Y55532D01*
X66092Y55623D01*
X65955Y55680D01*
X65807Y55699D01*
D02*
G37*
G36*
X58720D02*
X58573Y55680D01*
X58436Y55623D01*
X58317Y55532D01*
X58227Y55414D01*
X58220Y55398D01*
Y55398D01*
Y55398D01*
Y55398D01*
X58220Y55398D01*
X58214Y55414D01*
X58123Y55532D01*
X58005Y55623D01*
X57868Y55680D01*
X57720Y55699D01*
X57573Y55680D01*
X57436Y55623D01*
X57317Y55532D01*
X57227Y55414D01*
X57170Y55277D01*
X57151Y55129D01*
X57170Y54982D01*
X57227Y54844D01*
X57317Y54726D01*
X57436Y54636D01*
X57573Y54579D01*
X57720Y54559D01*
X57868Y54579D01*
X58005Y54636D01*
X58123Y54726D01*
X58214Y54844D01*
X58220Y54860D01*
D01*
X58227Y54844D01*
X58317Y54726D01*
X58436Y54636D01*
X58573Y54579D01*
X58720Y54559D01*
X58868Y54579D01*
X59005Y54636D01*
X59123Y54726D01*
X59214Y54844D01*
X59271Y54982D01*
X59290Y55129D01*
X59271Y55277D01*
X59214Y55414D01*
X59123Y55532D01*
X59005Y55623D01*
X58868Y55680D01*
X58720Y55699D01*
D02*
G37*
G36*
X51634D02*
X51486Y55680D01*
X51349Y55623D01*
X51231Y55532D01*
X51140Y55414D01*
X51134Y55398D01*
Y55398D01*
Y55398D01*
Y55398D01*
X51134Y55398D01*
X51127Y55414D01*
X51037Y55532D01*
X50919Y55623D01*
X50781Y55680D01*
X50634Y55699D01*
X50486Y55680D01*
X50349Y55623D01*
X50231Y55532D01*
X50140Y55414D01*
X50083Y55277D01*
X50064Y55129D01*
X50083Y54982D01*
X50140Y54844D01*
X50231Y54726D01*
X50349Y54636D01*
X50486Y54579D01*
X50634Y54559D01*
X50781Y54579D01*
X50919Y54636D01*
X51037Y54726D01*
X51127Y54844D01*
X51134Y54860D01*
D01*
X51140Y54844D01*
X51231Y54726D01*
X51349Y54636D01*
X51486Y54579D01*
X51634Y54559D01*
X51781Y54579D01*
X51919Y54636D01*
X52037Y54726D01*
X52127Y54844D01*
X52184Y54982D01*
X52204Y55129D01*
X52184Y55277D01*
X52127Y55414D01*
X52037Y55532D01*
X51919Y55623D01*
X51781Y55680D01*
X51634Y55699D01*
D02*
G37*
G36*
X55177D02*
X55030Y55680D01*
X54892Y55623D01*
X54774Y55532D01*
X54684Y55414D01*
X54677Y55398D01*
Y55398D01*
Y55398D01*
Y55398D01*
X54677Y55398D01*
X54671Y55414D01*
X54580Y55532D01*
X54462Y55623D01*
X54325Y55680D01*
X54177Y55699D01*
X54030Y55680D01*
X53892Y55623D01*
X53774Y55532D01*
X53684Y55414D01*
X53627Y55277D01*
X53607Y55129D01*
X53627Y54982D01*
X53684Y54844D01*
X53774Y54726D01*
X53892Y54636D01*
X54030Y54579D01*
X54177Y54559D01*
X54325Y54579D01*
X54462Y54636D01*
X54580Y54726D01*
X54671Y54844D01*
X54677Y54860D01*
D01*
X54684Y54844D01*
X54774Y54726D01*
X54892Y54636D01*
X55030Y54579D01*
X55177Y54559D01*
X55325Y54579D01*
X55462Y54636D01*
X55580Y54726D01*
X55671Y54844D01*
X55728Y54982D01*
X55747Y55129D01*
X55728Y55277D01*
X55671Y55414D01*
X55580Y55532D01*
X55462Y55623D01*
X55325Y55680D01*
X55177Y55699D01*
D02*
G37*
G36*
X18407D02*
X18259Y55680D01*
X18122Y55623D01*
X18004Y55532D01*
X17913Y55414D01*
X17907Y55398D01*
Y55398D01*
Y55398D01*
Y55398D01*
X17907Y55398D01*
X17900Y55414D01*
X17810Y55532D01*
X17692Y55623D01*
X17554Y55680D01*
X17407Y55699D01*
X17259Y55680D01*
X17122Y55623D01*
X17004Y55532D01*
X16913Y55414D01*
X16856Y55277D01*
X16837Y55129D01*
X16856Y54982D01*
X16913Y54844D01*
X17004Y54726D01*
X17122Y54636D01*
X17259Y54579D01*
X17407Y54559D01*
X17554Y54579D01*
X17692Y54636D01*
X17810Y54726D01*
X17900Y54844D01*
X17907Y54860D01*
D01*
X17913Y54844D01*
X18004Y54726D01*
X18122Y54636D01*
X18259Y54579D01*
X18407Y54559D01*
X18554Y54579D01*
X18692Y54636D01*
X18810Y54726D01*
X18900Y54844D01*
X18957Y54982D01*
X18977Y55129D01*
X18957Y55277D01*
X18900Y55414D01*
X18810Y55532D01*
X18692Y55623D01*
X18554Y55680D01*
X18407Y55699D01*
D02*
G37*
G36*
X21950D02*
X21803Y55680D01*
X21665Y55623D01*
X21547Y55532D01*
X21457Y55414D01*
X21450Y55398D01*
Y55398D01*
Y55398D01*
Y55398D01*
X21450Y55398D01*
X21444Y55414D01*
X21353Y55532D01*
X21235Y55623D01*
X21098Y55680D01*
X20950Y55699D01*
X20803Y55680D01*
X20665Y55623D01*
X20547Y55532D01*
X20457Y55414D01*
X20400Y55277D01*
X20380Y55129D01*
X20400Y54982D01*
X20457Y54844D01*
X20547Y54726D01*
X20665Y54636D01*
X20803Y54579D01*
X20950Y54559D01*
X21098Y54579D01*
X21235Y54636D01*
X21353Y54726D01*
X21444Y54844D01*
X21450Y54860D01*
D01*
X21457Y54844D01*
X21547Y54726D01*
X21665Y54636D01*
X21803Y54579D01*
X21950Y54559D01*
X22098Y54579D01*
X22235Y54636D01*
X22353Y54726D01*
X22444Y54844D01*
X22500Y54982D01*
X22520Y55129D01*
X22500Y55277D01*
X22444Y55414D01*
X22353Y55532D01*
X22235Y55623D01*
X22098Y55680D01*
X21950Y55699D01*
D02*
G37*
G36*
X91947D02*
X91800Y55680D01*
X91663Y55623D01*
X91545Y55532D01*
X91454Y55414D01*
X91447Y55398D01*
Y55398D01*
Y55398D01*
Y55398D01*
X91447Y55398D01*
X91441Y55414D01*
X91350Y55532D01*
X91232Y55623D01*
X91095Y55680D01*
X90948Y55699D01*
X90800Y55680D01*
X90663Y55623D01*
X90545Y55532D01*
X90454Y55414D01*
X90397Y55277D01*
X90378Y55129D01*
X90397Y54982D01*
X90454Y54844D01*
X90545Y54726D01*
X90663Y54636D01*
X90800Y54579D01*
X90948Y54559D01*
X91095Y54579D01*
X91232Y54636D01*
X91350Y54726D01*
X91441Y54844D01*
X91447Y54860D01*
D01*
X91454Y54844D01*
X91545Y54726D01*
X91663Y54636D01*
X91800Y54579D01*
X91947Y54559D01*
X92095Y54579D01*
X92232Y54636D01*
X92350Y54726D01*
X92441Y54844D01*
X92498Y54982D01*
X92517Y55129D01*
X92498Y55277D01*
X92441Y55414D01*
X92350Y55532D01*
X92232Y55623D01*
X92095Y55680D01*
X91947Y55699D01*
D02*
G37*
G36*
X84861D02*
X84713Y55680D01*
X84576Y55623D01*
X84458Y55532D01*
X84367Y55414D01*
X84361Y55398D01*
Y55398D01*
Y55398D01*
Y55398D01*
X84361Y55398D01*
X84354Y55414D01*
X84264Y55532D01*
X84146Y55623D01*
X84008Y55680D01*
X83861Y55699D01*
X83713Y55680D01*
X83576Y55623D01*
X83458Y55532D01*
X83367Y55414D01*
X83310Y55277D01*
X83291Y55129D01*
X83310Y54982D01*
X83367Y54844D01*
X83458Y54726D01*
X83576Y54636D01*
X83713Y54579D01*
X83861Y54559D01*
X84008Y54579D01*
X84146Y54636D01*
X84264Y54726D01*
X84354Y54844D01*
X84361Y54860D01*
D01*
X84367Y54844D01*
X84458Y54726D01*
X84576Y54636D01*
X84713Y54579D01*
X84861Y54559D01*
X85008Y54579D01*
X85146Y54636D01*
X85264Y54726D01*
X85354Y54844D01*
X85411Y54982D01*
X85431Y55129D01*
X85411Y55277D01*
X85354Y55414D01*
X85264Y55532D01*
X85146Y55623D01*
X85008Y55680D01*
X84861Y55699D01*
D02*
G37*
G36*
X88404D02*
X88257Y55680D01*
X88119Y55623D01*
X88001Y55532D01*
X87911Y55414D01*
X87904Y55398D01*
Y55398D01*
Y55398D01*
Y55398D01*
X87904Y55398D01*
X87898Y55414D01*
X87807Y55532D01*
X87689Y55623D01*
X87552Y55680D01*
X87404Y55699D01*
X87257Y55680D01*
X87119Y55623D01*
X87001Y55532D01*
X86911Y55414D01*
X86854Y55277D01*
X86834Y55129D01*
X86854Y54982D01*
X86911Y54844D01*
X87001Y54726D01*
X87119Y54636D01*
X87257Y54579D01*
X87404Y54559D01*
X87552Y54579D01*
X87689Y54636D01*
X87807Y54726D01*
X87898Y54844D01*
X87904Y54860D01*
D01*
X87911Y54844D01*
X88001Y54726D01*
X88119Y54636D01*
X88257Y54579D01*
X88404Y54559D01*
X88552Y54579D01*
X88689Y54636D01*
X88807Y54726D01*
X88898Y54844D01*
X88955Y54982D01*
X88974Y55129D01*
X88955Y55277D01*
X88898Y55414D01*
X88807Y55532D01*
X88689Y55623D01*
X88552Y55680D01*
X88404Y55699D01*
D02*
G37*
G36*
X81948Y37982D02*
X81801Y37963D01*
X81663Y37906D01*
X81545Y37816D01*
X81455Y37698D01*
X81448Y37682D01*
Y37682D01*
Y37682D01*
Y37682D01*
X81448Y37682D01*
X81442Y37698D01*
X81351Y37816D01*
X81233Y37906D01*
X81096Y37963D01*
X80948Y37982D01*
X80801Y37963D01*
X80663Y37906D01*
X80545Y37816D01*
X80455Y37698D01*
X80398Y37560D01*
X80378Y37413D01*
X80398Y37265D01*
X80455Y37128D01*
X80545Y37010D01*
X80663Y36919D01*
X80801Y36862D01*
X80948Y36843D01*
X81096Y36862D01*
X81233Y36919D01*
X81351Y37010D01*
X81442Y37128D01*
X81448Y37143D01*
D01*
X81455Y37128D01*
X81545Y37010D01*
X81663Y36919D01*
X81801Y36862D01*
X81948Y36843D01*
X82096Y36862D01*
X82233Y36919D01*
X82351Y37010D01*
X82442Y37128D01*
X82499Y37265D01*
X82518Y37413D01*
X82499Y37560D01*
X82442Y37698D01*
X82351Y37816D01*
X82233Y37906D01*
X82096Y37963D01*
X81948Y37982D01*
D02*
G37*
G36*
X15494D02*
X15346Y37963D01*
X15209Y37906D01*
X15091Y37816D01*
X15000Y37698D01*
X14994Y37682D01*
Y37682D01*
Y37682D01*
Y37682D01*
X14994Y37682D01*
X14987Y37698D01*
X14897Y37816D01*
X14779Y37906D01*
X14641Y37963D01*
X14494Y37982D01*
X14346Y37963D01*
X14209Y37906D01*
X14091Y37816D01*
X14001Y37698D01*
X13944Y37560D01*
X13924Y37413D01*
X13944Y37265D01*
X14001Y37128D01*
X14091Y37010D01*
X14209Y36919D01*
X14346Y36862D01*
X14494Y36843D01*
X14641Y36862D01*
X14779Y36919D01*
X14897Y37010D01*
X14987Y37128D01*
X14994Y37143D01*
D01*
X15000Y37128D01*
X15091Y37010D01*
X15209Y36919D01*
X15346Y36862D01*
X15494Y36843D01*
X15641Y36862D01*
X15779Y36919D01*
X15897Y37010D01*
X15987Y37128D01*
X16044Y37265D01*
X16064Y37413D01*
X16044Y37560D01*
X15987Y37698D01*
X15897Y37816D01*
X15779Y37906D01*
X15641Y37963D01*
X15494Y37982D01*
D02*
G37*
G36*
X69979D02*
X69832Y37963D01*
X69694Y37906D01*
X69576Y37816D01*
X69486Y37698D01*
X69479Y37682D01*
Y37682D01*
Y37682D01*
Y37682D01*
X69479Y37682D01*
X69472Y37698D01*
X69382Y37816D01*
X69264Y37906D01*
X69126Y37963D01*
X68979Y37982D01*
X68832Y37963D01*
X68694Y37906D01*
X68576Y37816D01*
X68485Y37698D01*
X68429Y37560D01*
X68409Y37413D01*
X68429Y37265D01*
X68485Y37128D01*
X68576Y37010D01*
X68694Y36919D01*
X68832Y36862D01*
X68979Y36843D01*
X69126Y36862D01*
X69264Y36919D01*
X69382Y37010D01*
X69472Y37128D01*
X69479Y37143D01*
D01*
X69486Y37128D01*
X69576Y37010D01*
X69694Y36919D01*
X69832Y36862D01*
X69979Y36843D01*
X70126Y36862D01*
X70264Y36919D01*
X70382Y37010D01*
X70472Y37128D01*
X70529Y37265D01*
X70549Y37413D01*
X70529Y37560D01*
X70472Y37698D01*
X70382Y37816D01*
X70264Y37906D01*
X70126Y37963D01*
X69979Y37982D01*
D02*
G37*
G36*
X36752D02*
X36604Y37963D01*
X36467Y37906D01*
X36349Y37816D01*
X36258Y37698D01*
X36252Y37682D01*
Y37682D01*
Y37682D01*
Y37682D01*
X36252Y37682D01*
X36245Y37698D01*
X36155Y37816D01*
X36037Y37906D01*
X35899Y37963D01*
X35752Y37982D01*
X35604Y37963D01*
X35467Y37906D01*
X35349Y37816D01*
X35258Y37698D01*
X35201Y37560D01*
X35182Y37413D01*
X35201Y37265D01*
X35258Y37128D01*
X35349Y37010D01*
X35467Y36919D01*
X35604Y36862D01*
X35752Y36843D01*
X35899Y36862D01*
X36037Y36919D01*
X36155Y37010D01*
X36245Y37128D01*
X36252Y37143D01*
D01*
X36258Y37128D01*
X36349Y37010D01*
X36467Y36919D01*
X36604Y36862D01*
X36752Y36843D01*
X36899Y36862D01*
X37037Y36919D01*
X37155Y37010D01*
X37245Y37128D01*
X37302Y37265D01*
X37322Y37413D01*
X37302Y37560D01*
X37245Y37698D01*
X37155Y37816D01*
X37037Y37906D01*
X36899Y37963D01*
X36752Y37982D01*
D02*
G37*
G36*
X48721D02*
X48574Y37963D01*
X48436Y37906D01*
X48318Y37816D01*
X48228Y37698D01*
X48221Y37682D01*
Y37682D01*
Y37682D01*
Y37682D01*
X48221Y37682D01*
X48215Y37698D01*
X48124Y37816D01*
X48006Y37906D01*
X47869Y37963D01*
X47721Y37982D01*
X47574Y37963D01*
X47436Y37906D01*
X47318Y37816D01*
X47228Y37698D01*
X47171Y37560D01*
X47151Y37413D01*
X47171Y37265D01*
X47228Y37128D01*
X47318Y37010D01*
X47436Y36919D01*
X47574Y36862D01*
X47721Y36843D01*
X47869Y36862D01*
X48006Y36919D01*
X48124Y37010D01*
X48215Y37128D01*
X48221Y37143D01*
D01*
X48228Y37128D01*
X48318Y37010D01*
X48436Y36919D01*
X48574Y36862D01*
X48721Y36843D01*
X48869Y36862D01*
X49006Y36919D01*
X49124Y37010D01*
X49215Y37128D01*
X49271Y37265D01*
X49291Y37413D01*
X49271Y37560D01*
X49215Y37698D01*
X49124Y37816D01*
X49006Y37906D01*
X48869Y37963D01*
X48721Y37982D01*
D02*
G37*
G36*
X103206D02*
X103059Y37963D01*
X102921Y37906D01*
X102803Y37816D01*
X102713Y37698D01*
X102706Y37682D01*
Y37682D01*
Y37682D01*
Y37682D01*
X102706Y37682D01*
X102700Y37698D01*
X102609Y37816D01*
X102491Y37906D01*
X102354Y37963D01*
X102206Y37982D01*
X102059Y37963D01*
X101921Y37906D01*
X101803Y37816D01*
X101713Y37698D01*
X101656Y37560D01*
X101636Y37413D01*
X101656Y37265D01*
X101713Y37128D01*
X101803Y37010D01*
X101921Y36919D01*
X102059Y36862D01*
X102206Y36843D01*
X102354Y36862D01*
X102491Y36919D01*
X102609Y37010D01*
X102700Y37128D01*
X102706Y37143D01*
D01*
X102713Y37128D01*
X102803Y37010D01*
X102921Y36919D01*
X103059Y36862D01*
X103206Y36843D01*
X103354Y36862D01*
X103491Y36919D01*
X103609Y37010D01*
X103700Y37128D01*
X103756Y37265D01*
X103776Y37413D01*
X103756Y37560D01*
X103700Y37698D01*
X103609Y37816D01*
X103491Y37906D01*
X103354Y37963D01*
X103206Y37982D01*
D02*
G37*
G36*
X157475Y44034D02*
X157333Y44015D01*
X157200Y43960D01*
X157086Y43873D01*
X156999Y43759D01*
X156944Y43626D01*
X156925Y43484D01*
X156944Y43342D01*
X156999Y43209D01*
X157086Y43095D01*
X157200Y43008D01*
X157257Y42984D01*
Y42984D01*
D01*
D01*
D01*
X157200Y42960D01*
X157086Y42873D01*
X156999Y42759D01*
X156944Y42626D01*
X156925Y42484D01*
X156944Y42342D01*
X156999Y42209D01*
X157086Y42095D01*
X157200Y42008D01*
X157257Y41984D01*
Y41984D01*
D01*
D01*
D01*
X157200Y41960D01*
X157086Y41873D01*
X156999Y41759D01*
X156944Y41626D01*
X156925Y41484D01*
X156944Y41342D01*
X156999Y41209D01*
X157086Y41095D01*
X157200Y41008D01*
X157257Y40984D01*
Y40984D01*
D01*
D01*
D01*
X157200Y40960D01*
X157086Y40873D01*
X156999Y40759D01*
X156944Y40626D01*
X156925Y40484D01*
X156944Y40342D01*
X156999Y40209D01*
X157086Y40095D01*
X157200Y40008D01*
X157333Y39953D01*
X157475Y39934D01*
X157617Y39953D01*
X157750Y40008D01*
X157864Y40095D01*
X157930Y40181D01*
D01*
Y39439D01*
X159020D01*
Y40529D01*
X158810D01*
D01*
X158878Y40581D01*
X158968Y40699D01*
X159025Y40836D01*
X159045Y40984D01*
X159025Y41131D01*
X158968Y41269D01*
X158878Y41387D01*
X158760Y41477D01*
X158718Y41495D01*
X158718Y41495D01*
X158750Y41508D01*
X158864Y41595D01*
X158951Y41709D01*
X159006Y41842D01*
X159025Y41984D01*
X159006Y42126D01*
X158951Y42259D01*
X158864Y42373D01*
X158750Y42460D01*
X158693Y42484D01*
X158693D01*
X158750Y42508D01*
X158864Y42595D01*
X158951Y42709D01*
X159006Y42842D01*
X159025Y42984D01*
X159006Y43126D01*
X158951Y43259D01*
X158864Y43373D01*
X158750Y43460D01*
X158617Y43515D01*
X158475Y43534D01*
X158333Y43515D01*
X158200Y43460D01*
X158086Y43373D01*
X157999Y43259D01*
X157944Y43126D01*
X157925Y42984D01*
X157944Y42842D01*
X157999Y42709D01*
X158086Y42595D01*
X158200Y42508D01*
X158257Y42484D01*
Y42484D01*
D01*
D01*
D01*
X158200Y42460D01*
X158086Y42373D01*
X157999Y42259D01*
X157944Y42126D01*
X157925Y41984D01*
X157944Y41842D01*
X157999Y41709D01*
X158086Y41595D01*
X158200Y41508D01*
X158231Y41495D01*
D01*
D01*
Y41495D01*
D01*
X158190Y41477D01*
X158072Y41387D01*
X157981Y41269D01*
X157924Y41131D01*
X157905Y40984D01*
X157924Y40836D01*
X157981Y40699D01*
X158072Y40581D01*
X158139Y40529D01*
Y40529D01*
X158139D01*
X158139D01*
X158019D01*
X158006Y40626D01*
X157951Y40759D01*
X157864Y40873D01*
X157750Y40960D01*
X157693Y40984D01*
X157693D01*
X157750Y41008D01*
X157864Y41095D01*
X157951Y41209D01*
X158006Y41342D01*
X158025Y41484D01*
X158006Y41626D01*
X157951Y41759D01*
X157864Y41873D01*
X157750Y41960D01*
X157693Y41984D01*
X157693D01*
X157750Y42008D01*
X157864Y42095D01*
X157951Y42209D01*
X158006Y42342D01*
X158025Y42484D01*
X158006Y42626D01*
X157951Y42759D01*
X157864Y42873D01*
X157750Y42960D01*
X157693Y42984D01*
X157693D01*
X157750Y43008D01*
X157864Y43095D01*
X157951Y43209D01*
X158006Y43342D01*
X158025Y43484D01*
X158006Y43626D01*
X157951Y43759D01*
X157864Y43873D01*
X157750Y43960D01*
X157617Y44015D01*
X157475Y44034D01*
D02*
G37*
G36*
X36595Y41919D02*
X36448Y41900D01*
X36310Y41843D01*
X36192Y41753D01*
X36102Y41635D01*
X36095Y41619D01*
Y41619D01*
Y41619D01*
Y41619D01*
X36095Y41619D01*
X36089Y41635D01*
X35998Y41753D01*
X35880Y41843D01*
X35743Y41900D01*
X35595Y41919D01*
X35448Y41900D01*
X35310Y41843D01*
X35192Y41753D01*
X35102Y41635D01*
X35045Y41497D01*
X35025Y41350D01*
X35045Y41202D01*
X35102Y41065D01*
X35192Y40947D01*
X35310Y40856D01*
X35448Y40799D01*
X35595Y40780D01*
X35743Y40799D01*
X35880Y40856D01*
X35998Y40947D01*
X36089Y41065D01*
X36095Y41080D01*
D01*
X36102Y41065D01*
X36192Y40947D01*
X36310Y40856D01*
X36448Y40799D01*
X36595Y40780D01*
X36743Y40799D01*
X36880Y40856D01*
X36998Y40947D01*
X37089Y41065D01*
X37145Y41202D01*
X37165Y41350D01*
X37145Y41497D01*
X37089Y41635D01*
X36998Y41753D01*
X36880Y41843D01*
X36743Y41900D01*
X36595Y41919D01*
D02*
G37*
G36*
X160975Y40378D02*
X160800Y40361D01*
X160633Y40310D01*
X160478Y40227D01*
X160343Y40116D01*
X160231Y39981D01*
X160149Y39826D01*
X160098Y39658D01*
X160081Y39484D01*
X160098Y39309D01*
X160149Y39142D01*
X160231Y38987D01*
X160343Y38852D01*
X160478Y38740D01*
X160633Y38658D01*
X160800Y38607D01*
X160975Y38590D01*
X161149Y38607D01*
X161317Y38658D01*
X161472Y38740D01*
X161607Y38852D01*
X161718Y38987D01*
X161801Y39142D01*
X161852Y39309D01*
X161869Y39484D01*
X161852Y39658D01*
X161801Y39826D01*
X161718Y39981D01*
X161607Y40116D01*
X161472Y40227D01*
X161317Y40310D01*
X161149Y40361D01*
X160975Y40378D01*
D02*
G37*
G36*
X115175Y37982D02*
X115028Y37963D01*
X114890Y37906D01*
X114772Y37816D01*
X114682Y37698D01*
X114675Y37682D01*
Y37682D01*
Y37682D01*
Y37682D01*
X114675Y37682D01*
X114669Y37698D01*
X114578Y37816D01*
X114460Y37906D01*
X114323Y37963D01*
X114175Y37982D01*
X114028Y37963D01*
X113890Y37906D01*
X113772Y37816D01*
X113682Y37698D01*
X113625Y37560D01*
X113605Y37413D01*
X113625Y37265D01*
X113682Y37128D01*
X113772Y37010D01*
X113890Y36919D01*
X114028Y36862D01*
X114175Y36843D01*
X114323Y36862D01*
X114460Y36919D01*
X114578Y37010D01*
X114669Y37128D01*
X114675Y37143D01*
D01*
X114682Y37128D01*
X114772Y37010D01*
X114890Y36919D01*
X115028Y36862D01*
X115175Y36843D01*
X115323Y36862D01*
X115460Y36919D01*
X115578Y37010D01*
X115669Y37128D01*
X115726Y37265D01*
X115745Y37413D01*
X115726Y37560D01*
X115669Y37698D01*
X115578Y37816D01*
X115460Y37906D01*
X115323Y37963D01*
X115175Y37982D01*
D02*
G37*
G36*
X136433D02*
X136286Y37963D01*
X136148Y37906D01*
X136030Y37816D01*
X135940Y37698D01*
X135933Y37682D01*
Y37682D01*
Y37682D01*
Y37682D01*
X135933Y37682D01*
X135927Y37698D01*
X135836Y37816D01*
X135718Y37906D01*
X135581Y37963D01*
X135433Y37982D01*
X135286Y37963D01*
X135148Y37906D01*
X135030Y37816D01*
X134940Y37698D01*
X134883Y37560D01*
X134863Y37413D01*
X134883Y37265D01*
X134940Y37128D01*
X135030Y37010D01*
X135148Y36919D01*
X135286Y36862D01*
X135433Y36843D01*
X135581Y36862D01*
X135718Y36919D01*
X135836Y37010D01*
X135927Y37128D01*
X135933Y37143D01*
D01*
X135940Y37128D01*
X136030Y37010D01*
X136148Y36919D01*
X136286Y36862D01*
X136433Y36843D01*
X136581Y36862D01*
X136718Y36919D01*
X136836Y37010D01*
X136927Y37128D01*
X136984Y37265D01*
X137003Y37413D01*
X136984Y37560D01*
X136927Y37698D01*
X136836Y37816D01*
X136718Y37906D01*
X136581Y37963D01*
X136433Y37982D01*
D02*
G37*
G36*
X92735Y36014D02*
X92587Y35995D01*
X92450Y35938D01*
X92332Y35847D01*
X92241Y35729D01*
X92235Y35713D01*
Y35713D01*
Y35713D01*
Y35713D01*
X92235Y35713D01*
X92228Y35729D01*
X92138Y35847D01*
X92020Y35938D01*
X91882Y35995D01*
X91735Y36014D01*
X91587Y35995D01*
X91450Y35938D01*
X91332Y35847D01*
X91241Y35729D01*
X91184Y35592D01*
X91165Y35444D01*
X91184Y35297D01*
X91241Y35159D01*
X91332Y35041D01*
X91450Y34951D01*
X91587Y34894D01*
X91735Y34874D01*
X91882Y34894D01*
X92020Y34951D01*
X92138Y35041D01*
X92228Y35159D01*
X92235Y35175D01*
D01*
X92241Y35159D01*
X92332Y35041D01*
X92450Y34951D01*
X92587Y34894D01*
X92735Y34874D01*
X92882Y34894D01*
X93020Y34951D01*
X93138Y35041D01*
X93228Y35159D01*
X93285Y35297D01*
X93305Y35444D01*
X93285Y35592D01*
X93228Y35729D01*
X93138Y35847D01*
X93020Y35938D01*
X92882Y35995D01*
X92735Y36014D01*
D02*
G37*
G36*
X96278D02*
X96131Y35995D01*
X95993Y35938D01*
X95875Y35847D01*
X95785Y35729D01*
X95778Y35713D01*
Y35713D01*
Y35713D01*
Y35713D01*
X95778Y35713D01*
X95772Y35729D01*
X95681Y35847D01*
X95563Y35938D01*
X95426Y35995D01*
X95278Y36014D01*
X95131Y35995D01*
X94993Y35938D01*
X94875Y35847D01*
X94785Y35729D01*
X94728Y35592D01*
X94708Y35444D01*
X94728Y35297D01*
X94785Y35159D01*
X94875Y35041D01*
X94993Y34951D01*
X95131Y34894D01*
X95278Y34874D01*
X95426Y34894D01*
X95563Y34951D01*
X95681Y35041D01*
X95772Y35159D01*
X95778Y35175D01*
D01*
X95785Y35159D01*
X95875Y35041D01*
X95993Y34951D01*
X96131Y34894D01*
X96278Y34874D01*
X96426Y34894D01*
X96563Y34951D01*
X96681Y35041D01*
X96772Y35159D01*
X96829Y35297D01*
X96848Y35444D01*
X96829Y35592D01*
X96772Y35729D01*
X96681Y35847D01*
X96563Y35938D01*
X96426Y35995D01*
X96278Y36014D01*
D02*
G37*
G36*
X26281D02*
X26133Y35995D01*
X25996Y35938D01*
X25878Y35847D01*
X25787Y35729D01*
X25781Y35713D01*
Y35713D01*
Y35713D01*
Y35713D01*
X25781Y35713D01*
X25774Y35729D01*
X25684Y35847D01*
X25566Y35938D01*
X25428Y35995D01*
X25281Y36014D01*
X25133Y35995D01*
X24996Y35938D01*
X24878Y35847D01*
X24787Y35729D01*
X24730Y35592D01*
X24711Y35444D01*
X24730Y35297D01*
X24787Y35159D01*
X24878Y35041D01*
X24996Y34951D01*
X25133Y34894D01*
X25281Y34874D01*
X25428Y34894D01*
X25566Y34951D01*
X25684Y35041D01*
X25774Y35159D01*
X25781Y35175D01*
D01*
X25787Y35159D01*
X25878Y35041D01*
X25996Y34951D01*
X26133Y34894D01*
X26281Y34874D01*
X26428Y34894D01*
X26566Y34951D01*
X26684Y35041D01*
X26774Y35159D01*
X26831Y35297D01*
X26851Y35444D01*
X26831Y35592D01*
X26774Y35729D01*
X26684Y35847D01*
X26566Y35938D01*
X26428Y35995D01*
X26281Y36014D01*
D02*
G37*
G36*
X19194D02*
X19047Y35995D01*
X18909Y35938D01*
X18791Y35847D01*
X18701Y35729D01*
X18694Y35713D01*
Y35713D01*
Y35713D01*
Y35713D01*
X18694Y35713D01*
X18688Y35729D01*
X18597Y35847D01*
X18479Y35938D01*
X18342Y35995D01*
X18194Y36014D01*
X18047Y35995D01*
X17909Y35938D01*
X17791Y35847D01*
X17701Y35729D01*
X17644Y35592D01*
X17624Y35444D01*
X17644Y35297D01*
X17701Y35159D01*
X17791Y35041D01*
X17909Y34951D01*
X18047Y34894D01*
X18194Y34874D01*
X18342Y34894D01*
X18479Y34951D01*
X18597Y35041D01*
X18688Y35159D01*
X18694Y35175D01*
D01*
X18701Y35159D01*
X18791Y35041D01*
X18909Y34951D01*
X19047Y34894D01*
X19194Y34874D01*
X19342Y34894D01*
X19479Y34951D01*
X19597Y35041D01*
X19688Y35159D01*
X19745Y35297D01*
X19764Y35444D01*
X19745Y35592D01*
X19688Y35729D01*
X19597Y35847D01*
X19479Y35938D01*
X19342Y35995D01*
X19194Y36014D01*
D02*
G37*
G36*
X22737D02*
X22590Y35995D01*
X22453Y35938D01*
X22334Y35847D01*
X22244Y35729D01*
X22237Y35713D01*
Y35713D01*
Y35713D01*
Y35713D01*
X22237Y35713D01*
X22231Y35729D01*
X22140Y35847D01*
X22022Y35938D01*
X21885Y35995D01*
X21737Y36014D01*
X21590Y35995D01*
X21453Y35938D01*
X21335Y35847D01*
X21244Y35729D01*
X21187Y35592D01*
X21168Y35444D01*
X21187Y35297D01*
X21244Y35159D01*
X21335Y35041D01*
X21453Y34951D01*
X21590Y34894D01*
X21737Y34874D01*
X21885Y34894D01*
X22022Y34951D01*
X22140Y35041D01*
X22231Y35159D01*
X22237Y35175D01*
D01*
X22244Y35159D01*
X22334Y35041D01*
X22453Y34951D01*
X22590Y34894D01*
X22737Y34874D01*
X22885Y34894D01*
X23022Y34951D01*
X23140Y35041D01*
X23231Y35159D01*
X23288Y35297D01*
X23307Y35444D01*
X23288Y35592D01*
X23231Y35729D01*
X23140Y35847D01*
X23022Y35938D01*
X22885Y35995D01*
X22737Y36014D01*
D02*
G37*
G36*
X99823D02*
X99675Y35995D01*
X99538Y35938D01*
X99420Y35847D01*
X99329Y35729D01*
X99323Y35713D01*
Y35713D01*
Y35713D01*
Y35713D01*
X99323Y35713D01*
X99316Y35729D01*
X99226Y35847D01*
X99108Y35938D01*
X98970Y35995D01*
X98823Y36014D01*
X98675Y35995D01*
X98538Y35938D01*
X98420Y35847D01*
X98329Y35729D01*
X98272Y35592D01*
X98253Y35444D01*
X98272Y35297D01*
X98329Y35159D01*
X98420Y35041D01*
X98538Y34951D01*
X98675Y34894D01*
X98823Y34874D01*
X98970Y34894D01*
X99108Y34951D01*
X99226Y35041D01*
X99316Y35159D01*
X99323Y35175D01*
D01*
X99329Y35159D01*
X99420Y35041D01*
X99538Y34951D01*
X99675Y34894D01*
X99823Y34874D01*
X99970Y34894D01*
X100108Y34951D01*
X100226Y35041D01*
X100316Y35159D01*
X100373Y35297D01*
X100393Y35444D01*
X100373Y35592D01*
X100316Y35729D01*
X100226Y35847D01*
X100108Y35938D01*
X99970Y35995D01*
X99823Y36014D01*
D02*
G37*
G36*
X129506D02*
X129358Y35995D01*
X129221Y35938D01*
X129103Y35847D01*
X129012Y35729D01*
X129006Y35713D01*
Y35713D01*
Y35713D01*
Y35713D01*
X129006Y35713D01*
X128999Y35729D01*
X128909Y35847D01*
X128791Y35938D01*
X128653Y35995D01*
X128506Y36014D01*
X128358Y35995D01*
X128221Y35938D01*
X128103Y35847D01*
X128012Y35729D01*
X127956Y35592D01*
X127936Y35444D01*
X127956Y35297D01*
X128012Y35159D01*
X128103Y35041D01*
X128221Y34951D01*
X128358Y34894D01*
X128506Y34874D01*
X128653Y34894D01*
X128791Y34951D01*
X128909Y35041D01*
X128999Y35159D01*
X129006Y35175D01*
D01*
X129012Y35159D01*
X129103Y35041D01*
X129221Y34951D01*
X129358Y34894D01*
X129506Y34874D01*
X129653Y34894D01*
X129791Y34951D01*
X129909Y35041D01*
X129999Y35159D01*
X130056Y35297D01*
X130076Y35444D01*
X130056Y35592D01*
X129999Y35729D01*
X129909Y35847D01*
X129791Y35938D01*
X129653Y35995D01*
X129506Y36014D01*
D02*
G37*
G36*
X133049D02*
X132901Y35995D01*
X132764Y35938D01*
X132646Y35847D01*
X132555Y35729D01*
X132549Y35713D01*
Y35713D01*
Y35713D01*
Y35713D01*
X132549Y35713D01*
X132542Y35729D01*
X132452Y35847D01*
X132334Y35938D01*
X132196Y35995D01*
X132049Y36014D01*
X131901Y35995D01*
X131764Y35938D01*
X131646Y35847D01*
X131555Y35729D01*
X131498Y35592D01*
X131479Y35444D01*
X131498Y35297D01*
X131555Y35159D01*
X131646Y35041D01*
X131764Y34951D01*
X131901Y34894D01*
X132049Y34874D01*
X132196Y34894D01*
X132334Y34951D01*
X132452Y35041D01*
X132542Y35159D01*
X132549Y35175D01*
D01*
X132555Y35159D01*
X132646Y35041D01*
X132764Y34951D01*
X132901Y34894D01*
X133049Y34874D01*
X133196Y34894D01*
X133334Y34951D01*
X133452Y35041D01*
X133542Y35159D01*
X133599Y35297D01*
X133618Y35444D01*
X133599Y35592D01*
X133542Y35729D01*
X133452Y35847D01*
X133334Y35938D01*
X133196Y35995D01*
X133049Y36014D01*
D02*
G37*
G36*
X125963D02*
X125815Y35995D01*
X125678Y35938D01*
X125560Y35847D01*
X125469Y35729D01*
X125463Y35713D01*
Y35713D01*
Y35713D01*
Y35713D01*
X125463Y35713D01*
X125456Y35729D01*
X125366Y35847D01*
X125248Y35938D01*
X125110Y35995D01*
X124963Y36014D01*
X124815Y35995D01*
X124678Y35938D01*
X124560Y35847D01*
X124469Y35729D01*
X124412Y35592D01*
X124393Y35444D01*
X124412Y35297D01*
X124469Y35159D01*
X124560Y35041D01*
X124678Y34951D01*
X124815Y34894D01*
X124963Y34874D01*
X125110Y34894D01*
X125248Y34951D01*
X125366Y35041D01*
X125456Y35159D01*
X125463Y35175D01*
D01*
X125469Y35159D01*
X125560Y35041D01*
X125678Y34951D01*
X125815Y34894D01*
X125963Y34874D01*
X126110Y34894D01*
X126248Y34951D01*
X126366Y35041D01*
X126456Y35159D01*
X126513Y35297D01*
X126532Y35444D01*
X126513Y35592D01*
X126456Y35729D01*
X126366Y35847D01*
X126248Y35938D01*
X126110Y35995D01*
X125963Y36014D01*
D02*
G37*
G36*
X118875D02*
X118728Y35995D01*
X118590Y35938D01*
X118472Y35847D01*
X118382Y35729D01*
X118375Y35713D01*
Y35713D01*
Y35713D01*
Y35713D01*
X118375Y35713D01*
X118369Y35729D01*
X118278Y35847D01*
X118160Y35938D01*
X118023Y35995D01*
X117875Y36014D01*
X117728Y35995D01*
X117590Y35938D01*
X117472Y35847D01*
X117382Y35729D01*
X117325Y35592D01*
X117306Y35444D01*
X117325Y35297D01*
X117382Y35159D01*
X117472Y35041D01*
X117590Y34951D01*
X117728Y34894D01*
X117875Y34874D01*
X118023Y34894D01*
X118160Y34951D01*
X118278Y35041D01*
X118369Y35159D01*
X118375Y35175D01*
D01*
X118382Y35159D01*
X118472Y35041D01*
X118590Y34951D01*
X118728Y34894D01*
X118875Y34874D01*
X119023Y34894D01*
X119160Y34951D01*
X119278Y35041D01*
X119369Y35159D01*
X119426Y35297D01*
X119445Y35444D01*
X119426Y35592D01*
X119369Y35729D01*
X119278Y35847D01*
X119160Y35938D01*
X119023Y35995D01*
X118875Y36014D01*
D02*
G37*
G36*
X122419D02*
X122271Y35995D01*
X122134Y35938D01*
X122016Y35847D01*
X121925Y35729D01*
X121919Y35713D01*
Y35713D01*
Y35713D01*
Y35713D01*
X121919Y35713D01*
X121912Y35729D01*
X121822Y35847D01*
X121704Y35938D01*
X121566Y35995D01*
X121419Y36014D01*
X121271Y35995D01*
X121134Y35938D01*
X121016Y35847D01*
X120925Y35729D01*
X120868Y35592D01*
X120849Y35444D01*
X120868Y35297D01*
X120925Y35159D01*
X121016Y35041D01*
X121134Y34951D01*
X121271Y34894D01*
X121419Y34874D01*
X121566Y34894D01*
X121704Y34951D01*
X121822Y35041D01*
X121912Y35159D01*
X121919Y35175D01*
D01*
X121925Y35159D01*
X122016Y35041D01*
X122134Y34951D01*
X122271Y34894D01*
X122419Y34874D01*
X122566Y34894D01*
X122704Y34951D01*
X122822Y35041D01*
X122912Y35159D01*
X122969Y35297D01*
X122989Y35444D01*
X122969Y35592D01*
X122912Y35729D01*
X122822Y35847D01*
X122704Y35938D01*
X122566Y35995D01*
X122419Y36014D01*
D02*
G37*
G36*
X81633Y45856D02*
X81485Y45837D01*
X81348Y45780D01*
X81230Y45690D01*
X81139Y45572D01*
X81133Y45556D01*
Y45556D01*
Y45556D01*
Y45556D01*
X81133Y45556D01*
X81126Y45572D01*
X81035Y45690D01*
X80917Y45780D01*
X80780Y45837D01*
X80633Y45856D01*
X80485Y45837D01*
X80348Y45780D01*
X80230Y45690D01*
X80139Y45572D01*
X80082Y45434D01*
X80063Y45287D01*
X80082Y45139D01*
X80139Y45002D01*
X80230Y44884D01*
X80348Y44793D01*
X80485Y44736D01*
X80633Y44717D01*
X80780Y44736D01*
X80917Y44793D01*
X81035Y44884D01*
X81126Y45002D01*
X81133Y45017D01*
D01*
X81139Y45002D01*
X81230Y44884D01*
X81348Y44793D01*
X81485Y44736D01*
X81633Y44717D01*
X81780Y44736D01*
X81917Y44793D01*
X82036Y44884D01*
X82126Y45002D01*
X82183Y45139D01*
X82202Y45287D01*
X82183Y45434D01*
X82126Y45572D01*
X82036Y45690D01*
X81917Y45780D01*
X81780Y45837D01*
X81633Y45856D01*
D02*
G37*
G36*
X15178D02*
X15031Y45837D01*
X14893Y45780D01*
X14775Y45690D01*
X14685Y45572D01*
X14678Y45556D01*
Y45556D01*
Y45556D01*
Y45556D01*
X14678Y45556D01*
X14672Y45572D01*
X14581Y45690D01*
X14463Y45780D01*
X14326Y45837D01*
X14178Y45856D01*
X14031Y45837D01*
X13893Y45780D01*
X13775Y45690D01*
X13685Y45572D01*
X13628Y45434D01*
X13609Y45287D01*
X13628Y45139D01*
X13685Y45002D01*
X13775Y44884D01*
X13893Y44793D01*
X14031Y44736D01*
X14178Y44717D01*
X14326Y44736D01*
X14463Y44793D01*
X14581Y44884D01*
X14672Y45002D01*
X14678Y45017D01*
D01*
X14685Y45002D01*
X14775Y44884D01*
X14893Y44793D01*
X15031Y44736D01*
X15178Y44717D01*
X15326Y44736D01*
X15463Y44793D01*
X15581Y44884D01*
X15672Y45002D01*
X15729Y45139D01*
X15748Y45287D01*
X15729Y45434D01*
X15672Y45572D01*
X15581Y45690D01*
X15463Y45780D01*
X15326Y45837D01*
X15178Y45856D01*
D02*
G37*
G36*
X69664D02*
X69517Y45837D01*
X69379Y45780D01*
X69261Y45690D01*
X69171Y45572D01*
X69164Y45556D01*
Y45556D01*
Y45556D01*
Y45556D01*
X69164Y45556D01*
X69158Y45572D01*
X69067Y45690D01*
X68949Y45780D01*
X68812Y45837D01*
X68664Y45856D01*
X68517Y45837D01*
X68379Y45780D01*
X68261Y45690D01*
X68171Y45572D01*
X68114Y45434D01*
X68094Y45287D01*
X68114Y45139D01*
X68171Y45002D01*
X68261Y44884D01*
X68379Y44793D01*
X68517Y44736D01*
X68664Y44717D01*
X68812Y44736D01*
X68949Y44793D01*
X69067Y44884D01*
X69158Y45002D01*
X69164Y45017D01*
D01*
X69171Y45002D01*
X69261Y44884D01*
X69379Y44793D01*
X69517Y44736D01*
X69664Y44717D01*
X69812Y44736D01*
X69949Y44793D01*
X70067Y44884D01*
X70158Y45002D01*
X70214Y45139D01*
X70234Y45287D01*
X70214Y45434D01*
X70158Y45572D01*
X70067Y45690D01*
X69949Y45780D01*
X69812Y45837D01*
X69664Y45856D01*
D02*
G37*
G36*
X36437D02*
X36289Y45837D01*
X36152Y45780D01*
X36034Y45690D01*
X35943Y45572D01*
X35937Y45556D01*
Y45556D01*
Y45556D01*
Y45556D01*
X35937Y45556D01*
X35930Y45572D01*
X35840Y45690D01*
X35722Y45780D01*
X35584Y45837D01*
X35437Y45856D01*
X35289Y45837D01*
X35152Y45780D01*
X35034Y45690D01*
X34943Y45572D01*
X34887Y45434D01*
X34867Y45287D01*
X34887Y45139D01*
X34943Y45002D01*
X35034Y44884D01*
X35152Y44793D01*
X35289Y44736D01*
X35437Y44717D01*
X35584Y44736D01*
X35722Y44793D01*
X35840Y44884D01*
X35930Y45002D01*
X35937Y45017D01*
D01*
X35943Y45002D01*
X36034Y44884D01*
X36152Y44793D01*
X36289Y44736D01*
X36437Y44717D01*
X36584Y44736D01*
X36722Y44793D01*
X36840Y44884D01*
X36930Y45002D01*
X36987Y45139D01*
X37007Y45287D01*
X36987Y45434D01*
X36930Y45572D01*
X36840Y45690D01*
X36722Y45780D01*
X36584Y45837D01*
X36437Y45856D01*
D02*
G37*
G36*
X48405D02*
X48258Y45837D01*
X48121Y45780D01*
X48003Y45690D01*
X47912Y45572D01*
X47905Y45556D01*
Y45556D01*
Y45556D01*
Y45556D01*
X47905Y45556D01*
X47899Y45572D01*
X47808Y45690D01*
X47690Y45780D01*
X47553Y45837D01*
X47405Y45856D01*
X47258Y45837D01*
X47121Y45780D01*
X47003Y45690D01*
X46912Y45572D01*
X46855Y45434D01*
X46836Y45287D01*
X46855Y45139D01*
X46912Y45002D01*
X47003Y44884D01*
X47121Y44793D01*
X47258Y44736D01*
X47405Y44717D01*
X47553Y44736D01*
X47690Y44793D01*
X47808Y44884D01*
X47899Y45002D01*
X47905Y45017D01*
D01*
X47912Y45002D01*
X48003Y44884D01*
X48121Y44793D01*
X48258Y44736D01*
X48405Y44717D01*
X48553Y44736D01*
X48690Y44793D01*
X48808Y44884D01*
X48899Y45002D01*
X48956Y45139D01*
X48975Y45287D01*
X48956Y45434D01*
X48899Y45572D01*
X48808Y45690D01*
X48690Y45780D01*
X48553Y45837D01*
X48405Y45856D01*
D02*
G37*
G36*
X102891D02*
X102744Y45837D01*
X102606Y45780D01*
X102488Y45690D01*
X102398Y45572D01*
X102391Y45556D01*
Y45556D01*
Y45556D01*
Y45556D01*
X102391Y45556D01*
X102385Y45572D01*
X102294Y45690D01*
X102176Y45780D01*
X102039Y45837D01*
X101891Y45856D01*
X101744Y45837D01*
X101606Y45780D01*
X101488Y45690D01*
X101398Y45572D01*
X101341Y45434D01*
X101321Y45287D01*
X101341Y45139D01*
X101398Y45002D01*
X101488Y44884D01*
X101606Y44793D01*
X101744Y44736D01*
X101891Y44717D01*
X102039Y44736D01*
X102176Y44793D01*
X102294Y44884D01*
X102385Y45002D01*
X102391Y45017D01*
D01*
X102398Y45002D01*
X102488Y44884D01*
X102606Y44793D01*
X102744Y44736D01*
X102891Y44717D01*
X103039Y44736D01*
X103176Y44793D01*
X103294Y44884D01*
X103385Y45002D01*
X103442Y45139D01*
X103461Y45287D01*
X103442Y45434D01*
X103385Y45572D01*
X103294Y45690D01*
X103176Y45780D01*
X103039Y45837D01*
X102891Y45856D01*
D02*
G37*
G36*
X63152Y49739D02*
X61652D01*
X60902Y48989D01*
Y47489D01*
X61652Y46739D01*
X63152D01*
X63902Y47489D01*
Y48989D01*
X63152Y49739D01*
D02*
G37*
G36*
X99687D02*
X98187D01*
X97437Y48989D01*
Y47489D01*
X98187Y46739D01*
X99687D01*
X100437Y47489D01*
Y48989D01*
X99687Y49739D01*
D02*
G37*
G36*
X40429D02*
X38929D01*
X38179Y48989D01*
Y47489D01*
X38929Y46739D01*
X40429D01*
X41179Y47489D01*
Y48989D01*
X40429Y49739D01*
D02*
G37*
G36*
X114860Y45856D02*
X114713Y45837D01*
X114575Y45780D01*
X114457Y45690D01*
X114367Y45572D01*
X114360Y45556D01*
Y45556D01*
Y45556D01*
Y45556D01*
X114360Y45556D01*
X114354Y45572D01*
X114263Y45690D01*
X114145Y45780D01*
X114008Y45837D01*
X113860Y45856D01*
X113713Y45837D01*
X113575Y45780D01*
X113457Y45690D01*
X113367Y45572D01*
X113310Y45434D01*
X113290Y45287D01*
X113310Y45139D01*
X113367Y45002D01*
X113457Y44884D01*
X113575Y44793D01*
X113713Y44736D01*
X113860Y44717D01*
X114008Y44736D01*
X114145Y44793D01*
X114263Y44884D01*
X114354Y45002D01*
X114360Y45017D01*
D01*
X114367Y45002D01*
X114457Y44884D01*
X114575Y44793D01*
X114713Y44736D01*
X114860Y44717D01*
X115008Y44736D01*
X115145Y44793D01*
X115263Y44884D01*
X115354Y45002D01*
X115411Y45139D01*
X115430Y45287D01*
X115411Y45434D01*
X115354Y45572D01*
X115263Y45690D01*
X115145Y45780D01*
X115008Y45837D01*
X114860Y45856D01*
D02*
G37*
G36*
X136118D02*
X135971Y45837D01*
X135833Y45780D01*
X135715Y45690D01*
X135625Y45572D01*
X135618Y45556D01*
Y45556D01*
Y45556D01*
Y45556D01*
X135618Y45556D01*
X135612Y45572D01*
X135521Y45690D01*
X135403Y45780D01*
X135266Y45837D01*
X135118Y45856D01*
X134971Y45837D01*
X134833Y45780D01*
X134715Y45690D01*
X134625Y45572D01*
X134568Y45434D01*
X134548Y45287D01*
X134568Y45139D01*
X134625Y45002D01*
X134715Y44884D01*
X134833Y44793D01*
X134971Y44736D01*
X135118Y44717D01*
X135266Y44736D01*
X135403Y44793D01*
X135521Y44884D01*
X135612Y45002D01*
X135618Y45017D01*
D01*
X135625Y45002D01*
X135715Y44884D01*
X135833Y44793D01*
X135971Y44736D01*
X136118Y44717D01*
X136266Y44736D01*
X136403Y44793D01*
X136521Y44884D01*
X136612Y45002D01*
X136669Y45139D01*
X136688Y45287D01*
X136669Y45434D01*
X136612Y45572D01*
X136521Y45690D01*
X136403Y45780D01*
X136266Y45837D01*
X136118Y45856D01*
D02*
G37*
G36*
X160975Y44878D02*
X160800Y44861D01*
X160633Y44810D01*
X160478Y44727D01*
X160343Y44616D01*
X160231Y44481D01*
X160149Y44326D01*
X160098Y44158D01*
X160081Y43984D01*
X160098Y43809D01*
X160149Y43642D01*
X160231Y43487D01*
X160343Y43352D01*
X160478Y43240D01*
X160633Y43158D01*
X160800Y43107D01*
X160975Y43090D01*
X161149Y43107D01*
X161317Y43158D01*
X161472Y43240D01*
X161607Y43352D01*
X161718Y43487D01*
X161801Y43642D01*
X161852Y43809D01*
X161869Y43984D01*
X161852Y44158D01*
X161801Y44326D01*
X161718Y44481D01*
X161607Y44616D01*
X161472Y44727D01*
X161317Y44810D01*
X161149Y44861D01*
X160975Y44878D01*
D02*
G37*
G36*
X81791Y41919D02*
X81643Y41900D01*
X81506Y41843D01*
X81388Y41753D01*
X81297Y41635D01*
X81291Y41619D01*
Y41619D01*
Y41619D01*
Y41619D01*
X81291Y41619D01*
X81284Y41635D01*
X81194Y41753D01*
X81076Y41843D01*
X80938Y41900D01*
X80791Y41919D01*
X80643Y41900D01*
X80506Y41843D01*
X80388Y41753D01*
X80297Y41635D01*
X80240Y41497D01*
X80221Y41350D01*
X80240Y41202D01*
X80297Y41065D01*
X80388Y40947D01*
X80506Y40856D01*
X80643Y40799D01*
X80791Y40780D01*
X80938Y40799D01*
X81076Y40856D01*
X81194Y40947D01*
X81284Y41065D01*
X81291Y41080D01*
D01*
X81297Y41065D01*
X81388Y40947D01*
X81506Y40856D01*
X81643Y40799D01*
X81791Y40780D01*
X81938Y40799D01*
X82076Y40856D01*
X82194Y40947D01*
X82284Y41065D01*
X82341Y41202D01*
X82360Y41350D01*
X82341Y41497D01*
X82284Y41635D01*
X82194Y41753D01*
X82076Y41843D01*
X81938Y41900D01*
X81791Y41919D01*
D02*
G37*
G36*
X69822D02*
X69675Y41900D01*
X69537Y41843D01*
X69419Y41753D01*
X69329Y41635D01*
X69322Y41619D01*
Y41619D01*
Y41619D01*
Y41619D01*
X69322Y41619D01*
X69316Y41635D01*
X69225Y41753D01*
X69107Y41843D01*
X68970Y41900D01*
X68822Y41919D01*
X68675Y41900D01*
X68537Y41843D01*
X68419Y41753D01*
X68329Y41635D01*
X68272Y41497D01*
X68252Y41350D01*
X68272Y41202D01*
X68329Y41065D01*
X68419Y40947D01*
X68537Y40856D01*
X68675Y40799D01*
X68822Y40780D01*
X68970Y40799D01*
X69107Y40856D01*
X69225Y40947D01*
X69316Y41065D01*
X69322Y41080D01*
D01*
X69329Y41065D01*
X69419Y40947D01*
X69537Y40856D01*
X69675Y40799D01*
X69822Y40780D01*
X69970Y40799D01*
X70107Y40856D01*
X70225Y40947D01*
X70316Y41065D01*
X70373Y41202D01*
X70392Y41350D01*
X70373Y41497D01*
X70316Y41635D01*
X70225Y41753D01*
X70107Y41843D01*
X69970Y41900D01*
X69822Y41919D01*
D02*
G37*
G36*
X48564D02*
X48416Y41900D01*
X48279Y41843D01*
X48161Y41753D01*
X48070Y41635D01*
X48064Y41619D01*
Y41619D01*
Y41619D01*
Y41619D01*
X48064Y41619D01*
X48057Y41635D01*
X47967Y41753D01*
X47849Y41843D01*
X47711Y41900D01*
X47564Y41919D01*
X47416Y41900D01*
X47279Y41843D01*
X47161Y41753D01*
X47070Y41635D01*
X47013Y41497D01*
X46994Y41350D01*
X47013Y41202D01*
X47070Y41065D01*
X47161Y40947D01*
X47279Y40856D01*
X47416Y40799D01*
X47564Y40780D01*
X47711Y40799D01*
X47849Y40856D01*
X47967Y40947D01*
X48057Y41065D01*
X48064Y41080D01*
D01*
X48070Y41065D01*
X48161Y40947D01*
X48279Y40856D01*
X48416Y40799D01*
X48564Y40780D01*
X48711Y40799D01*
X48849Y40856D01*
X48967Y40947D01*
X49057Y41065D01*
X49114Y41202D01*
X49133Y41350D01*
X49114Y41497D01*
X49057Y41635D01*
X48967Y41753D01*
X48849Y41843D01*
X48711Y41900D01*
X48564Y41919D01*
D02*
G37*
G36*
X15337D02*
X15189Y41900D01*
X15052Y41843D01*
X14934Y41753D01*
X14843Y41635D01*
X14837Y41619D01*
Y41619D01*
Y41619D01*
Y41619D01*
X14837Y41619D01*
X14830Y41635D01*
X14739Y41753D01*
X14621Y41843D01*
X14484Y41900D01*
X14337Y41919D01*
X14189Y41900D01*
X14052Y41843D01*
X13934Y41753D01*
X13843Y41635D01*
X13786Y41497D01*
X13767Y41350D01*
X13786Y41202D01*
X13843Y41065D01*
X13934Y40947D01*
X14052Y40856D01*
X14189Y40799D01*
X14337Y40780D01*
X14484Y40799D01*
X14621Y40856D01*
X14739Y40947D01*
X14830Y41065D01*
X14837Y41080D01*
D01*
X14843Y41065D01*
X14934Y40947D01*
X15052Y40856D01*
X15189Y40799D01*
X15337Y40780D01*
X15484Y40799D01*
X15621Y40856D01*
X15739Y40947D01*
X15830Y41065D01*
X15887Y41202D01*
X15906Y41350D01*
X15887Y41497D01*
X15830Y41635D01*
X15739Y41753D01*
X15621Y41843D01*
X15484Y41900D01*
X15337Y41919D01*
D02*
G37*
G36*
X136276D02*
X136128Y41900D01*
X135991Y41843D01*
X135873Y41753D01*
X135782Y41635D01*
X135776Y41619D01*
Y41619D01*
Y41619D01*
Y41619D01*
X135776Y41619D01*
X135769Y41635D01*
X135679Y41753D01*
X135561Y41843D01*
X135423Y41900D01*
X135276Y41919D01*
X135128Y41900D01*
X134991Y41843D01*
X134873Y41753D01*
X134782Y41635D01*
X134725Y41497D01*
X134706Y41350D01*
X134725Y41202D01*
X134782Y41065D01*
X134873Y40947D01*
X134991Y40856D01*
X135128Y40799D01*
X135276Y40780D01*
X135423Y40799D01*
X135561Y40856D01*
X135679Y40947D01*
X135769Y41065D01*
X135776Y41080D01*
D01*
X135782Y41065D01*
X135873Y40947D01*
X135991Y40856D01*
X136128Y40799D01*
X136276Y40780D01*
X136423Y40799D01*
X136561Y40856D01*
X136679Y40947D01*
X136769Y41065D01*
X136826Y41202D01*
X136846Y41350D01*
X136826Y41497D01*
X136769Y41635D01*
X136679Y41753D01*
X136561Y41843D01*
X136423Y41900D01*
X136276Y41919D01*
D02*
G37*
G36*
X115018D02*
X114871Y41900D01*
X114733Y41843D01*
X114615Y41753D01*
X114525Y41635D01*
X114518Y41619D01*
Y41619D01*
Y41619D01*
Y41619D01*
X114518Y41619D01*
X114512Y41635D01*
X114421Y41753D01*
X114303Y41843D01*
X114166Y41900D01*
X114018Y41919D01*
X113871Y41900D01*
X113733Y41843D01*
X113615Y41753D01*
X113525Y41635D01*
X113468Y41497D01*
X113449Y41350D01*
X113468Y41202D01*
X113525Y41065D01*
X113615Y40947D01*
X113733Y40856D01*
X113871Y40799D01*
X114018Y40780D01*
X114166Y40799D01*
X114303Y40856D01*
X114421Y40947D01*
X114512Y41065D01*
X114518Y41080D01*
D01*
X114525Y41065D01*
X114615Y40947D01*
X114733Y40856D01*
X114871Y40799D01*
X115018Y40780D01*
X115166Y40799D01*
X115303Y40856D01*
X115421Y40947D01*
X115512Y41065D01*
X115569Y41202D01*
X115588Y41350D01*
X115569Y41497D01*
X115512Y41635D01*
X115421Y41753D01*
X115303Y41843D01*
X115166Y41900D01*
X115018Y41919D01*
D02*
G37*
G36*
X103049D02*
X102902Y41900D01*
X102764Y41843D01*
X102646Y41753D01*
X102556Y41635D01*
X102549Y41619D01*
Y41619D01*
Y41619D01*
Y41619D01*
X102549Y41619D01*
X102543Y41635D01*
X102452Y41753D01*
X102334Y41843D01*
X102197Y41900D01*
X102049Y41919D01*
X101902Y41900D01*
X101764Y41843D01*
X101646Y41753D01*
X101556Y41635D01*
X101499Y41497D01*
X101479Y41350D01*
X101499Y41202D01*
X101556Y41065D01*
X101646Y40947D01*
X101764Y40856D01*
X101902Y40799D01*
X102049Y40780D01*
X102197Y40799D01*
X102334Y40856D01*
X102452Y40947D01*
X102543Y41065D01*
X102549Y41080D01*
D01*
X102556Y41065D01*
X102646Y40947D01*
X102764Y40856D01*
X102902Y40799D01*
X103049Y40780D01*
X103197Y40799D01*
X103334Y40856D01*
X103452Y40947D01*
X103543Y41065D01*
X103600Y41202D01*
X103619Y41350D01*
X103600Y41497D01*
X103543Y41635D01*
X103452Y41753D01*
X103334Y41843D01*
X103197Y41900D01*
X103049Y41919D01*
D02*
G37*
%LPD*%
G36*
X73420Y57170D02*
X74110D01*
X74204Y56939D01*
X73420Y56170D01*
Y55500D01*
X73020Y55100D01*
X72420D01*
X72020Y55500D01*
Y56160D01*
X71241Y56939D01*
X71337Y57170D01*
X72020D01*
Y57200D01*
X73420D01*
Y57170D01*
D02*
G37*
G36*
X58979Y4268D02*
X59008Y4246D01*
X59046Y4216D01*
X59102Y4193D01*
X59125Y4183D01*
X59135Y4182D01*
X59210Y4172D01*
X59732D01*
X59754Y4143D01*
X59858Y4063D01*
X59980Y4013D01*
X60110Y3996D01*
X60241Y4013D01*
X60362Y4063D01*
X60467Y4143D01*
X60489Y4172D01*
X69210D01*
X69253Y4178D01*
X69295Y4183D01*
X69335Y4200D01*
X69374Y4216D01*
X69442Y4268D01*
X69442Y4268D01*
X69442Y4268D01*
X69874Y4700D01*
X69910Y4696D01*
X70105D01*
X70105D01*
X70105Y4696D01*
X70054Y4657D01*
X69974Y4552D01*
X69923Y4431D01*
X69906Y4300D01*
X69911Y4264D01*
X68875Y3228D01*
X65089D01*
X65067Y3257D01*
X64962Y3337D01*
X64841Y3387D01*
X64710Y3404D01*
X64580Y3387D01*
X64458Y3337D01*
X64354Y3257D01*
X64332Y3228D01*
X59046D01*
X58010Y4264D01*
X58015Y4300D01*
X57997Y4431D01*
X57947Y4552D01*
X57867Y4657D01*
X57816Y4696D01*
D01*
Y4696D01*
X58510D01*
X58546Y4700D01*
X58979Y4268D01*
D02*
G37*
G36*
X139874Y55500D02*
X139474Y55100D01*
X138874D01*
X138474Y55500D01*
Y56160D01*
X137695Y56939D01*
X137791Y57170D01*
X138474D01*
Y57200D01*
X139874D01*
Y55500D01*
D02*
G37*
G36*
X106647Y57170D02*
X107337D01*
X107431Y56939D01*
X106647Y56170D01*
Y55500D01*
X106247Y55100D01*
X105647D01*
X105247Y55500D01*
Y56160D01*
X104468Y56939D01*
X104564Y57170D01*
X105247D01*
Y57200D01*
X106647D01*
Y57170D01*
D02*
G37*
G36*
X40193D02*
X40883D01*
X40977Y56939D01*
X40193Y56170D01*
Y55500D01*
X39793Y55100D01*
X39193D01*
X38793Y55500D01*
Y57200D01*
X40193D01*
Y57170D01*
D02*
G37*
G36*
X154336Y12311D02*
X154397Y12264D01*
Y6686D01*
X152510Y4800D01*
X152474Y4804D01*
X148180D01*
D01*
X148231Y4843D01*
X148231Y4843D01*
X148231Y4843D01*
X148331Y4943D01*
X148331Y4943D01*
X148331Y4943D01*
X148411Y5048D01*
X148447Y5134D01*
X148462Y5169D01*
X148479Y5300D01*
X148462Y5431D01*
X148411Y5552D01*
X148378Y5596D01*
D01*
D01*
D01*
Y5596D01*
X151624D01*
X151755Y5613D01*
X151877Y5663D01*
X151981Y5743D01*
X152061Y5848D01*
X152112Y5969D01*
X152129Y6100D01*
X152124Y6136D01*
X153956Y7968D01*
X153979Y7998D01*
X154008Y8036D01*
X154041Y8115D01*
X154052Y8200D01*
Y12155D01*
X154270D01*
Y12397D01*
X154270D01*
D01*
X154336Y12311D01*
D02*
G37*
G36*
X92206Y4268D02*
X92235Y4246D01*
X92274Y4216D01*
X92329Y4193D01*
X92353Y4183D01*
X92362Y4182D01*
X92437Y4172D01*
X92959D01*
X92981Y4143D01*
X93085Y4063D01*
X93207Y4013D01*
X93337Y3996D01*
X93468Y4013D01*
X93590Y4063D01*
X93694Y4143D01*
X93716Y4172D01*
X102437D01*
X102480Y4178D01*
X102522Y4183D01*
X102562Y4200D01*
X102601Y4216D01*
X102669Y4268D01*
X102669Y4268D01*
X102669Y4268D01*
X103101Y4700D01*
X103137Y4696D01*
X103332D01*
X103332D01*
X103332Y4696D01*
X103281Y4657D01*
X103201Y4552D01*
X103150Y4431D01*
X103133Y4300D01*
X103138Y4264D01*
X102102Y3228D01*
X98316D01*
X98294Y3257D01*
X98190Y3337D01*
X98068Y3387D01*
X97937Y3404D01*
X97807Y3387D01*
X97685Y3337D01*
X97581Y3257D01*
X97559Y3228D01*
X92273D01*
X91237Y4264D01*
X91242Y4300D01*
X91225Y4431D01*
X91174Y4552D01*
X91094Y4657D01*
X91043Y4696D01*
D01*
Y4696D01*
X91737D01*
X91773Y4700D01*
X92206Y4268D01*
D02*
G37*
G36*
X125433D02*
X125462Y4246D01*
X125501Y4216D01*
X125556Y4193D01*
X125580Y4183D01*
X125590Y4182D01*
X125664Y4172D01*
X126186D01*
X126208Y4143D01*
X126312Y4063D01*
X126434Y4013D01*
X126564Y3996D01*
X126695Y4013D01*
X126817Y4063D01*
X126921Y4143D01*
X126943Y4172D01*
X135664D01*
X135707Y4178D01*
X135749Y4183D01*
X135789Y4200D01*
X135828Y4216D01*
X135896Y4268D01*
X135896Y4268D01*
X135896Y4268D01*
X136328Y4700D01*
X136364Y4696D01*
X136559D01*
X136559D01*
X136559Y4696D01*
X136508Y4657D01*
X136428Y4552D01*
X136377Y4431D01*
X136360Y4300D01*
X136365Y4264D01*
X135329Y3228D01*
X131543D01*
X131521Y3257D01*
X131417Y3337D01*
X131295Y3387D01*
X131164Y3404D01*
X131034Y3387D01*
X130912Y3337D01*
X130808Y3257D01*
X130786Y3228D01*
X125500D01*
X124464Y4264D01*
X124469Y4300D01*
X124452Y4431D01*
X124401Y4552D01*
X124321Y4657D01*
X124270Y4696D01*
D01*
Y4696D01*
X124964D01*
X125000Y4700D01*
X125433Y4268D01*
D02*
G37*
D30*
X70210Y6100D02*
X91197D01*
X70410Y4300D02*
X90737D01*
X36983Y6100D02*
X57970D01*
X37183Y4300D02*
X57510D01*
X36683Y5200D02*
X58510D01*
X69910D02*
X91737D01*
X136364D02*
X147874D01*
X136864Y4300D02*
X152474D01*
X136664Y6100D02*
X151624D01*
X147874Y5200D02*
X147974Y5300D01*
X39493Y56950D02*
X139174D01*
X103437Y6100D02*
X124424D01*
X103637Y4300D02*
X123964D01*
X103137Y5200D02*
X124964D01*
D31*
X35983Y4500D02*
X36683Y5200D01*
X26883Y4500D02*
X35983D01*
X35583Y7500D02*
X36983Y6100D01*
X32983Y7500D02*
X35583D01*
X35783Y2900D02*
X37183Y4300D01*
X31483Y2900D02*
X35783D01*
X68810Y7500D02*
X70210Y6100D01*
X66210Y7500D02*
X68810D01*
X102437Y4500D02*
X103137Y5200D01*
X91737D02*
X92437Y4500D01*
X102437D01*
X91297Y6100D02*
X93637D01*
X102037Y7500D02*
X103437Y6100D01*
X99437Y7500D02*
X102037D01*
X102237Y2900D02*
X103637Y4300D01*
X90737D02*
X92137Y2900D01*
X102237D01*
X58070Y6100D02*
X60410D01*
X57510Y4300D02*
X58910Y2900D01*
X69010D02*
X70410Y4300D01*
X58910Y2900D02*
X69010D01*
X58510Y5200D02*
X59210Y4500D01*
X69210D02*
X69910Y5200D01*
X59210Y4500D02*
X69210D01*
X124524Y6100D02*
X126864D01*
X125664Y4500D02*
X135664D01*
X136364Y5200D01*
X124964D02*
X125664Y4500D01*
X135464Y2900D02*
X136864Y4300D01*
X123964D02*
X125364Y2900D01*
X132664Y7500D02*
X135264D01*
X136664Y6100D01*
X147624Y29900D02*
Y30050D01*
X147124Y30550D02*
X147624Y30050D01*
X143274Y30550D02*
X147124D01*
X142674Y29900D02*
X143274Y30550D01*
X153724Y8200D02*
Y12700D01*
X151624Y6100D02*
X153724Y8200D01*
X154725Y6550D02*
Y12700D01*
X125364Y2900D02*
X135464D01*
X152474Y4300D02*
X154725Y6550D01*
D34*
X157475Y43484D02*
D03*
Y40484D02*
D03*
X158475Y42984D02*
D03*
X157475Y42484D02*
D03*
Y41484D02*
D03*
X158475Y41984D02*
D03*
X157474Y31850D02*
D03*
Y34850D02*
D03*
X158474Y34350D02*
D03*
X157474Y32850D02*
D03*
X158474Y33350D02*
D03*
X157474Y33850D02*
D03*
D35*
X158475Y39984D02*
D03*
X158474Y31350D02*
D03*
D36*
X158475Y40984D02*
D03*
X158474Y32350D02*
D03*
X103206Y37413D02*
D03*
X102206D02*
D03*
X102049Y41350D02*
D03*
X103049D02*
D03*
X102994Y17728D02*
D03*
X103994D02*
D03*
X103837Y21665D02*
D03*
X102837D02*
D03*
X88404Y55129D02*
D03*
X87404D02*
D03*
X83861D02*
D03*
X84861D02*
D03*
X80948Y37413D02*
D03*
X81948D02*
D03*
X81578Y21665D02*
D03*
X82578D02*
D03*
X82736Y17728D02*
D03*
X81736D02*
D03*
X88980Y15759D02*
D03*
X89980D02*
D03*
X86436D02*
D03*
X85436D02*
D03*
X51634Y55129D02*
D03*
X50634D02*
D03*
X54177D02*
D03*
X55177D02*
D03*
X47721Y37413D02*
D03*
X48721D02*
D03*
X48564Y41350D02*
D03*
X47564D02*
D03*
X49508Y17728D02*
D03*
X48508D02*
D03*
X48351Y21665D02*
D03*
X49351D02*
D03*
X118875Y35444D02*
D03*
X117875D02*
D03*
X98823D02*
D03*
X99823D02*
D03*
X134804Y53161D02*
D03*
X135804D02*
D03*
X135961Y49224D02*
D03*
X134961D02*
D03*
X135118Y45287D02*
D03*
X136118D02*
D03*
X136276Y41350D02*
D03*
X135276D02*
D03*
X135433Y37413D02*
D03*
X136433D02*
D03*
X136591Y33476D02*
D03*
X135591D02*
D03*
X135749Y29539D02*
D03*
X136749D02*
D03*
X136906Y25602D02*
D03*
X135906D02*
D03*
X136064Y21665D02*
D03*
X137064D02*
D03*
X137221Y17728D02*
D03*
X136221D02*
D03*
X117088Y55129D02*
D03*
X118088D02*
D03*
X121632D02*
D03*
X120632D02*
D03*
X124175D02*
D03*
X125175D02*
D03*
X128719D02*
D03*
X127719D02*
D03*
X131261D02*
D03*
X132261D02*
D03*
X121419Y35444D02*
D03*
X122419D02*
D03*
X125963D02*
D03*
X124963D02*
D03*
X128506D02*
D03*
X129506D02*
D03*
X133049D02*
D03*
X132049D02*
D03*
X132836Y15759D02*
D03*
X133836D02*
D03*
X130293D02*
D03*
X129293D02*
D03*
X125750D02*
D03*
X126750D02*
D03*
X123207D02*
D03*
X122207D02*
D03*
X118663D02*
D03*
X119663D02*
D03*
X115963Y17728D02*
D03*
X114963D02*
D03*
X114805Y21665D02*
D03*
X115805D02*
D03*
X115648Y25602D02*
D03*
X114648D02*
D03*
X114491Y29539D02*
D03*
X115491D02*
D03*
X115333Y33476D02*
D03*
X114333D02*
D03*
X109136Y15759D02*
D03*
X110136D02*
D03*
X115175Y37413D02*
D03*
X114175D02*
D03*
X114018Y41350D02*
D03*
X115018D02*
D03*
X114860Y45287D02*
D03*
X113860D02*
D03*
X113703Y49224D02*
D03*
X114703D02*
D03*
X114545Y53161D02*
D03*
X113545D02*
D03*
X99609Y15759D02*
D03*
X100609D02*
D03*
X97066D02*
D03*
X96066D02*
D03*
X92523D02*
D03*
X93523D02*
D03*
X91947Y55129D02*
D03*
X90948D02*
D03*
X94491D02*
D03*
X95491D02*
D03*
X99034D02*
D03*
X98034D02*
D03*
X84648Y35444D02*
D03*
X85648D02*
D03*
X89192D02*
D03*
X88192D02*
D03*
X91735D02*
D03*
X92735D02*
D03*
X96278D02*
D03*
X95278D02*
D03*
X103364Y33476D02*
D03*
X102364D02*
D03*
X102522Y29539D02*
D03*
X103522D02*
D03*
X103679Y25602D02*
D03*
X102679D02*
D03*
X101577Y53161D02*
D03*
X102577D02*
D03*
X102734Y49224D02*
D03*
X101734D02*
D03*
X101891Y45287D02*
D03*
X102891D02*
D03*
X81318Y53161D02*
D03*
X80318D02*
D03*
X80476Y49224D02*
D03*
X81476D02*
D03*
X81633Y45287D02*
D03*
X80633D02*
D03*
X80791Y41350D02*
D03*
X81791D02*
D03*
X81106Y33476D02*
D03*
X82106D02*
D03*
X82263Y29539D02*
D03*
X81263D02*
D03*
X81420Y25602D02*
D03*
X82420D02*
D03*
X76909Y15759D02*
D03*
X75909D02*
D03*
X57720Y55129D02*
D03*
X58720D02*
D03*
X62264D02*
D03*
X61264D02*
D03*
X64807D02*
D03*
X65807D02*
D03*
X53209Y15759D02*
D03*
X52209D02*
D03*
X55752D02*
D03*
X56752D02*
D03*
X60295D02*
D03*
X59295D02*
D03*
X62839D02*
D03*
X63839D02*
D03*
X67382D02*
D03*
X66382D02*
D03*
X51421Y35444D02*
D03*
X52421D02*
D03*
X55965D02*
D03*
X54965D02*
D03*
X58508D02*
D03*
X59508D02*
D03*
X63051D02*
D03*
X62051D02*
D03*
X65594D02*
D03*
X66594D02*
D03*
X48091Y53161D02*
D03*
X47091D02*
D03*
X47249Y49224D02*
D03*
X48249D02*
D03*
X48405Y45287D02*
D03*
X47405D02*
D03*
X68350Y53161D02*
D03*
X69350D02*
D03*
X69507Y49224D02*
D03*
X68507D02*
D03*
X68664Y45287D02*
D03*
X69664D02*
D03*
X69822Y41350D02*
D03*
X68822D02*
D03*
X68979Y37413D02*
D03*
X69979D02*
D03*
X43682Y15759D02*
D03*
X42682D02*
D03*
X48193Y25602D02*
D03*
X49193D02*
D03*
X49036Y29539D02*
D03*
X48036D02*
D03*
X47879Y33476D02*
D03*
X48879D02*
D03*
X70137D02*
D03*
X69137D02*
D03*
X69295Y29539D02*
D03*
X70295D02*
D03*
X70451Y25602D02*
D03*
X69451D02*
D03*
X69610Y21665D02*
D03*
X70610D02*
D03*
X70767Y17728D02*
D03*
X69767D02*
D03*
X17407Y55129D02*
D03*
X18407D02*
D03*
X21950D02*
D03*
X20950D02*
D03*
X24493D02*
D03*
X25493D02*
D03*
X29037D02*
D03*
X28037D02*
D03*
X31580D02*
D03*
X32580D02*
D03*
X19982Y15759D02*
D03*
X18982D02*
D03*
X22525D02*
D03*
X23525D02*
D03*
X27068D02*
D03*
X26068D02*
D03*
X29611D02*
D03*
X30611D02*
D03*
X34155D02*
D03*
X33155D02*
D03*
X18194Y35444D02*
D03*
X19194D02*
D03*
X22737D02*
D03*
X21737D02*
D03*
X25281D02*
D03*
X26281D02*
D03*
X29824D02*
D03*
X28824D02*
D03*
X32367D02*
D03*
X33367D02*
D03*
X14864Y53161D02*
D03*
X13864D02*
D03*
X14022Y49224D02*
D03*
X15022D02*
D03*
X15178Y45287D02*
D03*
X14178D02*
D03*
X14337Y41350D02*
D03*
X15337D02*
D03*
X15494Y37413D02*
D03*
X14494D02*
D03*
X35123Y53161D02*
D03*
X36123D02*
D03*
X36280Y49224D02*
D03*
X35280D02*
D03*
X35437Y45287D02*
D03*
X36437D02*
D03*
X36595Y41350D02*
D03*
X35595D02*
D03*
X35752Y37413D02*
D03*
X36752D02*
D03*
X15651Y33476D02*
D03*
X14651D02*
D03*
X14809Y29539D02*
D03*
X15809D02*
D03*
X15966Y25602D02*
D03*
X14966D02*
D03*
X15124Y21665D02*
D03*
X16124D02*
D03*
X10455Y15759D02*
D03*
X9455D02*
D03*
X15281Y17728D02*
D03*
X16281D02*
D03*
X36910Y33476D02*
D03*
X35910D02*
D03*
X36067Y29539D02*
D03*
X37067D02*
D03*
X37224Y25602D02*
D03*
X36224D02*
D03*
X36382Y21665D02*
D03*
X37382D02*
D03*
X37540Y17728D02*
D03*
X36540D02*
D03*
D37*
X160975Y39484D02*
D03*
Y43984D02*
D03*
X160974Y30850D02*
D03*
Y35350D02*
D03*
D38*
X117921Y48239D02*
D03*
Y22649D02*
D03*
X62402Y48239D02*
D03*
X62402Y22649D02*
D03*
X39679Y48239D02*
D03*
Y22649D02*
D03*
X98937D02*
D03*
Y48239D02*
D03*
D39*
X155724Y13700D02*
D03*
Y12700D02*
D03*
X154725Y13700D02*
D03*
Y12700D02*
D03*
X153724Y13700D02*
D03*
D40*
Y12700D02*
D03*
D41*
X45196Y2420D02*
D03*
X46196D02*
D03*
X49196D02*
D03*
X48196D02*
D03*
X114650D02*
D03*
X115650D02*
D03*
X112650D02*
D03*
X111650D02*
D03*
X149217Y19399D02*
D03*
X26883Y4500D02*
D03*
X32983Y7500D02*
D03*
X31483Y2900D02*
D03*
X27183Y6100D02*
D03*
X66210Y7500D02*
D03*
X93337Y4500D02*
D03*
X93637Y6100D02*
D03*
X99437Y7500D02*
D03*
X97937Y2900D02*
D03*
X60410Y6100D02*
D03*
X64710Y2900D02*
D03*
X60110Y4500D02*
D03*
X39493Y55750D02*
D03*
Y56650D02*
D03*
X34893Y3700D02*
D03*
X72720Y55750D02*
D03*
Y56650D02*
D03*
X68120Y3700D02*
D03*
X101347D02*
D03*
X105947Y56650D02*
D03*
X105947Y55750D02*
D03*
X126864Y6100D02*
D03*
X126564Y4500D02*
D03*
X131164Y2900D02*
D03*
X132664Y7500D02*
D03*
X147624Y29900D02*
D03*
X147724Y50200D02*
D03*
X148724D02*
D03*
X147724Y49200D02*
D03*
X148724D02*
D03*
X151224Y33350D02*
D03*
X143774Y47250D02*
D03*
X142724D02*
D03*
X147974Y5300D02*
D03*
X142674Y29900D02*
D03*
X142724Y33850D02*
D03*
X146624Y32050D02*
D03*
X154724Y48700D02*
D03*
X155724D02*
D03*
Y49700D02*
D03*
X154724D02*
D03*
X140224D02*
D03*
X141224D02*
D03*
Y48700D02*
D03*
X140224D02*
D03*
X144882Y25581D02*
D03*
X149624Y24700D02*
D03*
X144324Y18900D02*
D03*
X155824Y19900D02*
D03*
X156824Y22900D02*
D03*
X152324Y15200D02*
D03*
X145224Y43200D02*
D03*
X146224D02*
D03*
Y42200D02*
D03*
X145224D02*
D03*
X148224D02*
D03*
X149224D02*
D03*
Y43200D02*
D03*
X148224D02*
D03*
X150624Y23200D02*
D03*
X145054Y21710D02*
D03*
X148724Y27300D02*
D03*
X146424Y29800D02*
D03*
X148324Y15000D02*
D03*
X139174Y55750D02*
D03*
Y56650D02*
D03*
X134574Y3700D02*
D03*
X152824Y6000D02*
D03*
X156599Y14476D02*
D03*
D42*
X162598Y1958D02*
D03*
X158118Y52272D02*
D03*
X4574Y59359D02*
D03*
X5512Y3140D02*
D03*
M02*
