%FSLAX24Y24*%
%MOIN*%
G70*
G01*
G75*
G04 Layer_Color=8388736*
%ADD10R,0.0354X0.0354*%
%ADD11O,0.0689X0.0217*%
%ADD12O,0.0217X0.0689*%
%ADD13R,0.0394X0.0394*%
%ADD14R,0.0630X0.0236*%
%ADD15R,0.0630X0.0236*%
%ADD16C,0.0394*%
%ADD17O,0.0236X0.0866*%
%ADD18R,0.1299X0.0787*%
%ADD19R,0.0866X0.0925*%
%ADD20R,0.0610X0.0925*%
%ADD21R,0.0335X0.0335*%
%ADD22O,0.0236X0.0866*%
%ADD23R,0.0787X0.2362*%
%ADD24R,0.0630X0.1181*%
%ADD25R,0.0335X0.0669*%
%ADD26R,0.0472X0.1378*%
%ADD27R,0.2185X0.2559*%
%ADD28R,0.0492X0.1201*%
%ADD29C,0.0250*%
%ADD30C,0.0500*%
%ADD31C,0.0150*%
%ADD32C,0.0100*%
%ADD33C,0.0300*%
%ADD34C,0.0591*%
%ADD35R,0.0591X0.0591*%
%ADD36C,0.0630*%
%ADD37C,0.1161*%
%ADD38P,0.2706X8X22.5*%
%ADD39C,0.0591*%
%ADD40R,0.0591X0.0591*%
%ADD41C,0.0500*%
%ADD42C,0.0394*%
%ADD43C,0.0098*%
%ADD44C,0.0236*%
%ADD45C,0.0079*%
%ADD46R,0.0434X0.0434*%
%ADD47O,0.0769X0.0297*%
%ADD48O,0.0297X0.0769*%
%ADD49R,0.0474X0.0474*%
%ADD50R,0.0710X0.0316*%
%ADD51R,0.0710X0.0316*%
%ADD52C,0.1181*%
%ADD53O,0.0316X0.0946*%
%ADD54R,0.1379X0.0867*%
%ADD55R,0.0946X0.1005*%
%ADD56R,0.0690X0.1005*%
%ADD57R,0.0415X0.0415*%
%ADD58O,0.0316X0.0946*%
%ADD59R,0.0867X0.2442*%
%ADD60R,0.0710X0.1261*%
%ADD61C,0.0984*%
%ADD62R,0.0415X0.0749*%
%ADD63R,0.0552X0.1458*%
%ADD64R,0.2265X0.2639*%
%ADD65R,0.0572X0.1281*%
%ADD66C,0.0671*%
%ADD67R,0.0671X0.0671*%
%ADD68C,0.0710*%
%ADD69C,0.1241*%
%ADD70P,0.2793X8X22.5*%
%ADD71C,0.0671*%
%ADD72R,0.0671X0.0671*%
%ADD73C,0.0580*%
D46*
X131764Y4885D02*
D03*
Y5515D02*
D03*
X65310Y4885D02*
D03*
Y5515D02*
D03*
X155824Y18615D02*
D03*
Y17985D02*
D03*
Y23485D02*
D03*
Y24115D02*
D03*
X148324Y13715D02*
D03*
Y13085D02*
D03*
X142724Y31885D02*
D03*
Y32515D02*
D03*
X148644Y23591D02*
D03*
Y24221D02*
D03*
X150724Y51015D02*
D03*
Y50385D02*
D03*
X142724Y51015D02*
D03*
Y50385D02*
D03*
X155824Y21585D02*
D03*
Y22215D02*
D03*
X148324Y15885D02*
D03*
Y16515D02*
D03*
X145094Y20371D02*
D03*
Y19741D02*
D03*
X98537Y5515D02*
D03*
Y4885D02*
D03*
X32083Y5515D02*
D03*
Y4885D02*
D03*
D47*
X150860Y18496D02*
D03*
Y18811D02*
D03*
Y19126D02*
D03*
Y19441D02*
D03*
Y19756D02*
D03*
Y20070D02*
D03*
Y20385D02*
D03*
Y20700D02*
D03*
Y21015D02*
D03*
Y21330D02*
D03*
Y21645D02*
D03*
X146411D02*
D03*
Y21330D02*
D03*
Y21015D02*
D03*
Y20700D02*
D03*
Y20385D02*
D03*
Y20070D02*
D03*
Y19756D02*
D03*
Y19441D02*
D03*
Y19126D02*
D03*
Y18811D02*
D03*
Y18496D02*
D03*
D48*
X150210Y22295D02*
D03*
X149895D02*
D03*
X149580D02*
D03*
X149265D02*
D03*
X148950D02*
D03*
X148636D02*
D03*
X148321D02*
D03*
X148006D02*
D03*
X147691D02*
D03*
X147376D02*
D03*
X147061D02*
D03*
Y17846D02*
D03*
X147376D02*
D03*
X147691D02*
D03*
X148006D02*
D03*
X148321D02*
D03*
X148636D02*
D03*
X148950D02*
D03*
X149265D02*
D03*
X149580D02*
D03*
X149895D02*
D03*
X150210D02*
D03*
D49*
X149224Y13735D02*
D03*
Y13065D02*
D03*
X142774Y46035D02*
D03*
Y45365D02*
D03*
X144674Y27765D02*
D03*
Y28435D02*
D03*
X143674D02*
D03*
Y27765D02*
D03*
X146624Y28435D02*
D03*
Y27765D02*
D03*
X142624Y23565D02*
D03*
Y24235D02*
D03*
D50*
X153042Y33350D02*
D03*
X153750Y33724D02*
D03*
D51*
X153750Y32976D02*
D03*
D52*
X162598Y1958D02*
D03*
X158118Y52272D02*
D03*
X4574Y59359D02*
D03*
X5512Y3140D02*
D03*
D53*
X97787Y4255D02*
D03*
X97287D02*
D03*
X96787D02*
D03*
X96287D02*
D03*
X95787D02*
D03*
X95287D02*
D03*
X94787D02*
D03*
X94287D02*
D03*
Y6145D02*
D03*
X94787D02*
D03*
X95287D02*
D03*
X95787D02*
D03*
X96287D02*
D03*
X96787D02*
D03*
X97287D02*
D03*
X97787D02*
D03*
X64560Y4255D02*
D03*
X64060D02*
D03*
X63560D02*
D03*
X63060D02*
D03*
X62560D02*
D03*
X62060D02*
D03*
X61560D02*
D03*
X61060D02*
D03*
Y6145D02*
D03*
X61560D02*
D03*
X62060D02*
D03*
X62560D02*
D03*
X63060D02*
D03*
X63560D02*
D03*
X64060D02*
D03*
X64560D02*
D03*
X31333Y4255D02*
D03*
X30833D02*
D03*
X30333D02*
D03*
X29833D02*
D03*
X29333D02*
D03*
X28833D02*
D03*
X28333D02*
D03*
X27833D02*
D03*
Y6145D02*
D03*
X28333D02*
D03*
X28833D02*
D03*
X29333D02*
D03*
X29833D02*
D03*
X30333D02*
D03*
X30833D02*
D03*
X31333D02*
D03*
X143874Y30155D02*
D03*
X144374D02*
D03*
X144874D02*
D03*
X145374D02*
D03*
X143874Y32045D02*
D03*
X144374D02*
D03*
X145374D02*
D03*
X131014Y6145D02*
D03*
X130514D02*
D03*
X130014D02*
D03*
X129514D02*
D03*
X129014D02*
D03*
X128514D02*
D03*
X128014D02*
D03*
X127514D02*
D03*
X131014Y4255D02*
D03*
X130514D02*
D03*
X130014D02*
D03*
X129514D02*
D03*
X129014D02*
D03*
X128514D02*
D03*
X128014D02*
D03*
X127514D02*
D03*
D54*
X84339Y8551D02*
D03*
X99037Y8580D02*
D03*
X82339Y8551D02*
D03*
X93037Y8580D02*
D03*
X86339Y8551D02*
D03*
X97037Y8580D02*
D03*
X95037Y8580D02*
D03*
X51111Y8551D02*
D03*
X65810Y8580D02*
D03*
X49111Y8551D02*
D03*
X59810Y8580D02*
D03*
X53111Y8551D02*
D03*
X63810Y8580D02*
D03*
X61810D02*
D03*
X17884Y8551D02*
D03*
X32583Y8580D02*
D03*
X15884Y8551D02*
D03*
X26583Y8580D02*
D03*
X19884Y8551D02*
D03*
X30583Y8580D02*
D03*
X28583Y8580D02*
D03*
X80339Y8551D02*
D03*
X47111D02*
D03*
X13884D02*
D03*
Y10992D02*
D03*
X19884D02*
D03*
X15884D02*
D03*
X17884D02*
D03*
X28583Y11020D02*
D03*
X30583D02*
D03*
X26583D02*
D03*
X32583D02*
D03*
X49111Y10992D02*
D03*
X51111D02*
D03*
X53111D02*
D03*
X47111D02*
D03*
X61810Y11020D02*
D03*
X63810D02*
D03*
X65810D02*
D03*
X59810D02*
D03*
X95037Y11020D02*
D03*
X99037Y11020D02*
D03*
X97037D02*
D03*
X93037D02*
D03*
X82339Y10992D02*
D03*
X86339D02*
D03*
X84339D02*
D03*
X80339Y10992D02*
D03*
X117566Y8580D02*
D03*
X115566D02*
D03*
Y11021D02*
D03*
X119566Y8580D02*
D03*
Y11021D02*
D03*
X113566Y8551D02*
D03*
Y10992D02*
D03*
X117566Y11021D02*
D03*
X132264Y8609D02*
D03*
Y11050D02*
D03*
X126264D02*
D03*
Y8609D02*
D03*
X128264Y11050D02*
D03*
Y8609D02*
D03*
X130264Y11050D02*
D03*
Y8609D02*
D03*
D55*
X145824Y44648D02*
D03*
Y46852D02*
D03*
X148324Y44648D02*
D03*
Y46852D02*
D03*
D56*
X150324Y44972D02*
D03*
Y46528D02*
D03*
D57*
X143774Y45385D02*
D03*
Y46015D02*
D03*
X142674Y27785D02*
D03*
Y28415D02*
D03*
X147625Y27785D02*
D03*
Y28415D02*
D03*
X143824Y24215D02*
D03*
Y23585D02*
D03*
D58*
X144874Y32045D02*
D03*
D59*
X154224Y24769D02*
D03*
Y20831D02*
D03*
D60*
X150724Y15207D02*
D03*
Y11593D02*
D03*
D61*
X151295Y17410D02*
D03*
X145984Y22730D02*
D03*
D62*
X152699Y46881D02*
D03*
X153750D02*
D03*
Y44519D02*
D03*
X152699D02*
D03*
D63*
X144724Y51800D02*
D03*
Y49600D02*
D03*
X152724Y51800D02*
D03*
Y49600D02*
D03*
D64*
X148224Y49755D02*
D03*
D65*
X147323Y52294D02*
D03*
X149126D02*
D03*
D66*
X157475Y43484D02*
D03*
Y40484D02*
D03*
X158475Y42984D02*
D03*
X157475Y42484D02*
D03*
Y41484D02*
D03*
X158475Y41984D02*
D03*
X157474Y31850D02*
D03*
Y34850D02*
D03*
X158474Y34350D02*
D03*
X157474Y32850D02*
D03*
X158474Y33350D02*
D03*
X157474Y33850D02*
D03*
D67*
X158475Y39984D02*
D03*
X158474Y31350D02*
D03*
D68*
X158475Y40984D02*
D03*
X158474Y32350D02*
D03*
X103206Y37413D02*
D03*
X102206D02*
D03*
X102049Y41350D02*
D03*
X103049D02*
D03*
X102994Y17728D02*
D03*
X103994D02*
D03*
X103837Y21665D02*
D03*
X102837D02*
D03*
X88404Y55129D02*
D03*
X87404D02*
D03*
X83861D02*
D03*
X84861D02*
D03*
X80948Y37413D02*
D03*
X81948D02*
D03*
X81578Y21665D02*
D03*
X82578D02*
D03*
X82736Y17728D02*
D03*
X81736D02*
D03*
X88980Y15759D02*
D03*
X89980D02*
D03*
X86436D02*
D03*
X85436D02*
D03*
X51634Y55129D02*
D03*
X50634D02*
D03*
X54177D02*
D03*
X55177D02*
D03*
X47721Y37413D02*
D03*
X48721D02*
D03*
X48564Y41350D02*
D03*
X47564D02*
D03*
X49508Y17728D02*
D03*
X48508D02*
D03*
X48351Y21665D02*
D03*
X49351D02*
D03*
X118875Y35444D02*
D03*
X117875D02*
D03*
X98823D02*
D03*
X99823D02*
D03*
X134804Y53161D02*
D03*
X135804D02*
D03*
X135961Y49224D02*
D03*
X134961D02*
D03*
X135118Y45287D02*
D03*
X136118D02*
D03*
X136276Y41350D02*
D03*
X135276D02*
D03*
X135433Y37413D02*
D03*
X136433D02*
D03*
X136591Y33476D02*
D03*
X135591D02*
D03*
X135749Y29539D02*
D03*
X136749D02*
D03*
X136906Y25602D02*
D03*
X135906D02*
D03*
X136064Y21665D02*
D03*
X137064D02*
D03*
X137221Y17728D02*
D03*
X136221D02*
D03*
X117088Y55129D02*
D03*
X118088D02*
D03*
X121632D02*
D03*
X120632D02*
D03*
X124175D02*
D03*
X125175D02*
D03*
X128719D02*
D03*
X127719D02*
D03*
X131261D02*
D03*
X132261D02*
D03*
X121419Y35444D02*
D03*
X122419D02*
D03*
X125963D02*
D03*
X124963D02*
D03*
X128506D02*
D03*
X129506D02*
D03*
X133049D02*
D03*
X132049D02*
D03*
X132836Y15759D02*
D03*
X133836D02*
D03*
X130293D02*
D03*
X129293D02*
D03*
X125750D02*
D03*
X126750D02*
D03*
X123207D02*
D03*
X122207D02*
D03*
X118663D02*
D03*
X119663D02*
D03*
X115963Y17728D02*
D03*
X114963D02*
D03*
X114805Y21665D02*
D03*
X115805D02*
D03*
X115648Y25602D02*
D03*
X114648D02*
D03*
X114491Y29539D02*
D03*
X115491D02*
D03*
X115333Y33476D02*
D03*
X114333D02*
D03*
X109136Y15759D02*
D03*
X110136D02*
D03*
X115175Y37413D02*
D03*
X114175D02*
D03*
X114018Y41350D02*
D03*
X115018D02*
D03*
X114860Y45287D02*
D03*
X113860D02*
D03*
X113703Y49224D02*
D03*
X114703D02*
D03*
X114545Y53161D02*
D03*
X113545D02*
D03*
X99609Y15759D02*
D03*
X100609D02*
D03*
X97066D02*
D03*
X96066D02*
D03*
X92523D02*
D03*
X93523D02*
D03*
X91947Y55129D02*
D03*
X90948D02*
D03*
X94491D02*
D03*
X95491D02*
D03*
X99034D02*
D03*
X98034D02*
D03*
X84648Y35444D02*
D03*
X85648D02*
D03*
X89192D02*
D03*
X88192D02*
D03*
X91735D02*
D03*
X92735D02*
D03*
X96278D02*
D03*
X95278D02*
D03*
X103364Y33476D02*
D03*
X102364D02*
D03*
X102522Y29539D02*
D03*
X103522D02*
D03*
X103679Y25602D02*
D03*
X102679D02*
D03*
X101577Y53161D02*
D03*
X102577D02*
D03*
X102734Y49224D02*
D03*
X101734D02*
D03*
X101891Y45287D02*
D03*
X102891D02*
D03*
X81318Y53161D02*
D03*
X80318D02*
D03*
X80476Y49224D02*
D03*
X81476D02*
D03*
X81633Y45287D02*
D03*
X80633D02*
D03*
X80791Y41350D02*
D03*
X81791D02*
D03*
X81106Y33476D02*
D03*
X82106D02*
D03*
X82263Y29539D02*
D03*
X81263D02*
D03*
X81420Y25602D02*
D03*
X82420D02*
D03*
X76909Y15759D02*
D03*
X75909D02*
D03*
X57720Y55129D02*
D03*
X58720D02*
D03*
X62264D02*
D03*
X61264D02*
D03*
X64807D02*
D03*
X65807D02*
D03*
X53209Y15759D02*
D03*
X52209D02*
D03*
X55752D02*
D03*
X56752D02*
D03*
X60295D02*
D03*
X59295D02*
D03*
X62839D02*
D03*
X63839D02*
D03*
X67382D02*
D03*
X66382D02*
D03*
X51421Y35444D02*
D03*
X52421D02*
D03*
X55965D02*
D03*
X54965D02*
D03*
X58508D02*
D03*
X59508D02*
D03*
X63051D02*
D03*
X62051D02*
D03*
X65594D02*
D03*
X66594D02*
D03*
X48091Y53161D02*
D03*
X47091D02*
D03*
X47249Y49224D02*
D03*
X48249D02*
D03*
X48405Y45287D02*
D03*
X47405D02*
D03*
X68350Y53161D02*
D03*
X69350D02*
D03*
X69507Y49224D02*
D03*
X68507D02*
D03*
X68664Y45287D02*
D03*
X69664D02*
D03*
X69822Y41350D02*
D03*
X68822D02*
D03*
X68979Y37413D02*
D03*
X69979D02*
D03*
X43682Y15759D02*
D03*
X42682D02*
D03*
X48193Y25602D02*
D03*
X49193D02*
D03*
X49036Y29539D02*
D03*
X48036D02*
D03*
X47879Y33476D02*
D03*
X48879D02*
D03*
X70137D02*
D03*
X69137D02*
D03*
X69295Y29539D02*
D03*
X70295D02*
D03*
X70451Y25602D02*
D03*
X69451D02*
D03*
X69610Y21665D02*
D03*
X70610D02*
D03*
X70767Y17728D02*
D03*
X69767D02*
D03*
X17407Y55129D02*
D03*
X18407D02*
D03*
X21950D02*
D03*
X20950D02*
D03*
X24493D02*
D03*
X25493D02*
D03*
X29037D02*
D03*
X28037D02*
D03*
X31580D02*
D03*
X32580D02*
D03*
X19982Y15759D02*
D03*
X18982D02*
D03*
X22525D02*
D03*
X23525D02*
D03*
X27068D02*
D03*
X26068D02*
D03*
X29611D02*
D03*
X30611D02*
D03*
X34155D02*
D03*
X33155D02*
D03*
X18194Y35444D02*
D03*
X19194D02*
D03*
X22737D02*
D03*
X21737D02*
D03*
X25281D02*
D03*
X26281D02*
D03*
X29824D02*
D03*
X28824D02*
D03*
X32367D02*
D03*
X33367D02*
D03*
X14864Y53161D02*
D03*
X13864D02*
D03*
X14022Y49224D02*
D03*
X15022D02*
D03*
X15178Y45287D02*
D03*
X14178D02*
D03*
X14337Y41350D02*
D03*
X15337D02*
D03*
X15494Y37413D02*
D03*
X14494D02*
D03*
X35123Y53161D02*
D03*
X36123D02*
D03*
X36280Y49224D02*
D03*
X35280D02*
D03*
X35437Y45287D02*
D03*
X36437D02*
D03*
X36595Y41350D02*
D03*
X35595D02*
D03*
X35752Y37413D02*
D03*
X36752D02*
D03*
X15651Y33476D02*
D03*
X14651D02*
D03*
X14809Y29539D02*
D03*
X15809D02*
D03*
X15966Y25602D02*
D03*
X14966D02*
D03*
X15124Y21665D02*
D03*
X16124D02*
D03*
X10455Y15759D02*
D03*
X9455D02*
D03*
X15281Y17728D02*
D03*
X16281D02*
D03*
X36910Y33476D02*
D03*
X35910D02*
D03*
X36067Y29539D02*
D03*
X37067D02*
D03*
X37224Y25602D02*
D03*
X36224D02*
D03*
X36382Y21665D02*
D03*
X37382D02*
D03*
X37540Y17728D02*
D03*
X36540D02*
D03*
D69*
X160975Y39484D02*
D03*
Y43984D02*
D03*
X160974Y30850D02*
D03*
Y35350D02*
D03*
D70*
X117921Y48239D02*
D03*
Y22649D02*
D03*
X62402Y48239D02*
D03*
X62402Y22649D02*
D03*
X39679Y48239D02*
D03*
Y22649D02*
D03*
X98937D02*
D03*
Y48239D02*
D03*
D71*
X155724Y13700D02*
D03*
Y12700D02*
D03*
X154725Y13700D02*
D03*
Y12700D02*
D03*
X153724Y13700D02*
D03*
D72*
Y12700D02*
D03*
D73*
X45196Y2420D02*
D03*
X46196D02*
D03*
X49196D02*
D03*
X48196D02*
D03*
X114650D02*
D03*
X115650D02*
D03*
X112650D02*
D03*
X111650D02*
D03*
X149217Y19399D02*
D03*
X26883Y4500D02*
D03*
X32983Y7500D02*
D03*
X31483Y2900D02*
D03*
X27183Y6100D02*
D03*
X66210Y7500D02*
D03*
X93337Y4500D02*
D03*
X93637Y6100D02*
D03*
X99437Y7500D02*
D03*
X97937Y2900D02*
D03*
X60410Y6100D02*
D03*
X64710Y2900D02*
D03*
X60110Y4500D02*
D03*
X39493Y55750D02*
D03*
Y56650D02*
D03*
X34893Y3700D02*
D03*
X72720Y55750D02*
D03*
Y56650D02*
D03*
X68120Y3700D02*
D03*
X101347D02*
D03*
X105947Y56650D02*
D03*
X105947Y55750D02*
D03*
X126864Y6100D02*
D03*
X126564Y4500D02*
D03*
X131164Y2900D02*
D03*
X132664Y7500D02*
D03*
X147624Y29900D02*
D03*
X147724Y50200D02*
D03*
X148724D02*
D03*
X147724Y49200D02*
D03*
X148724D02*
D03*
X151224Y33350D02*
D03*
X143774Y47250D02*
D03*
X142724D02*
D03*
X147974Y5300D02*
D03*
X142674Y29900D02*
D03*
X142724Y33850D02*
D03*
X146624Y32050D02*
D03*
X154724Y48700D02*
D03*
X155724D02*
D03*
Y49700D02*
D03*
X154724D02*
D03*
X140224D02*
D03*
X141224D02*
D03*
Y48700D02*
D03*
X140224D02*
D03*
X144882Y25581D02*
D03*
X149624Y24700D02*
D03*
X144324Y18900D02*
D03*
X155824Y19900D02*
D03*
X156824Y22900D02*
D03*
X152324Y15200D02*
D03*
X145224Y43200D02*
D03*
X146224D02*
D03*
Y42200D02*
D03*
X145224D02*
D03*
X148224D02*
D03*
X149224D02*
D03*
Y43200D02*
D03*
X148224D02*
D03*
X150624Y23200D02*
D03*
X145054Y21710D02*
D03*
X148724Y27300D02*
D03*
X146424Y29800D02*
D03*
X148324Y15000D02*
D03*
X139174Y55750D02*
D03*
Y56650D02*
D03*
X134574Y3700D02*
D03*
X152824Y6000D02*
D03*
X156599Y14476D02*
D03*
M02*
