M48
;Layer_Color=9474304
;FILE_FORMAT=2:5
INCH,LZ
;TYPE=PLATED
T1F00S00C0.02799
T2F00S00C0.02800
T3F00S00C0.03543
T4F00S00C0.12500
;TYPE=NON_PLATED
T5F00S00C0.12795
%
T01
X1492173Y0193994
X1059472Y0557498
T02
X0268832Y0045
X0314832Y0029
X0348933Y0037
X0601103Y0045
X0647103Y0029
X0681203Y0037
X0933374Y0045
X0979374Y0029
X1013474Y0037
X1265645Y0045
X1311645Y0029
X1345745Y0037
X1479745Y0053
X1528245Y006
X1523245Y0152
X1483245Y015
X1565985Y0144756
X1558245Y0199
X1443245Y0189
X1372212Y0177276
X1362212
X133836Y0157591
X132836
X1326645Y0075
X1268645Y0061
X12675Y0157591
X12575
X1232067
X1222067
X1196628
X1186628
X1292927
X1302927
X1159626Y0177276
X1149626
X1101359Y0157591
X1091358
X1039941Y0177276
X1029941
X1006089Y0157591
X0996089
X0970656
X0960656
X0935229
X0925229
X0899796
X0889796
X0864357
X0854357
X0936374Y0061
X0994374Y0075
X0827355Y0177276
X0817356
X0769088Y0157591
X0759088
X070767Y0177276
X069767
X0673818Y0157591
X0663819
X0638385
X0628385
X0602952
X0592952
X0567519
X0557519
X0604103Y0061
X0662103Y0075
X0532086Y0157591
X0522086
X0495085Y0177276
X0485085
X0436817Y0157591
X0426817
X0375399Y0177276
X0365399
X0341548Y0157591
X0331548
X0306115
X0296115
X0270682
X0260682
X0235248
X0271832Y0061
X0329833Y0075
X0225248Y0157591
X0199815
X0189815
X0162814Y0177276
X0152814
X0104546Y0157591
X0094546
X0151239Y0216646
X0161239
X0159658Y0256016
X0149658
X014809Y0295386
X0158089
X0156515Y0334756
X0146515
X0181941Y0354441
X0191941
X0217374
X0227374
X0252807
X0262807
X0288241
X0298241
X0323674
X0333674
X03591Y0334756
X03691
X0370675Y0295386
X0360675
X0362244Y0256016
X0372243
X0373825Y0216646
X0363825
X048351
X049351
X0491929Y0256016
X0481929
X048036Y0295386
X049036
X0488786Y0334756
X0478786
X0514212Y0354441
X0524212
X0549645
X0559645
X0585078
X0595078
X0620511
X0630511
X0655944
X0665944
X0691371Y0334756
X0692946Y0295386
X0694514Y0256016
X0704514
X0702946Y0295386
X0701371Y0334756
X0811056
X0821056
X0822631Y0295386
X0812631
X08142Y0256016
X08242
X0825781Y0216646
X0815781
X0706095
X0696095
X0846483Y0354441
X0856483
X0881916
X0891916
X0917349
X0927349
X0952782
X0962782
X0988228
X0998228
X1023642Y0334756
X1033642
X1035217Y0295386
X1025216
X1026785Y0256016
X1036785
X1038366Y0216646
X1028366
X1148051
X1158051
X1156477Y0256016
X1146477
X1144908Y0295386
X1154908
X1153327Y0334756
X1143327
X1178754Y0354441
X1188754
X1214187
X1224187
X1249626
X1259626
X1285059
X1295059
X1320486
X1330486
X1355912Y0334756
X1365913
X1367487Y0295386
X1357487
X1359056Y0256016
X1369056
X1370637Y0216646
X1360637
X1450545Y02171
X1448819Y0255805
X1464245Y0298
X1476245Y0299
X1466245Y03205
X1427245Y03385
X1426745Y0299
X1487245Y0273
X1496245Y0247
X1506245Y0232
X1568245Y0229
X1512245Y03335
X1492245Y0422
Y0432
X1482245
Y0422
X1487245Y0492
X1477245
Y0502
X1487245
X1547245Y0497
X1557245
Y0487
X1547245
X1437745Y04725
X1427245
X1412245Y0487
X1402245
Y0497
X1412245
X1359613Y0492236
X1349613
X1351182Y0452866
X1361182
X1362757Y0413496
X1352757
X1354331Y0374126
X1364332
X1452245Y0422
X1462245
Y0432
X1452245
X1150184Y0413496
X1140184
X1141752Y0374126
X1151752
X1148603Y0452866
X1138603
X1137034Y0492236
X1147034
X1027343
X1017342
X1018911Y0452866
X1028911
X1030492Y0413496
X1020492
X1022061Y0374126
X1032061
X0819481
X0809482
X0807907Y0413496
X0817907
X0816326Y0452866
X0806326
X0804757Y0492236
X0814757
X069664Y0452866
X0698221Y0413496
X069979Y0374126
X068979
X0688221Y0413496
X068664Y0452866
X0685072Y0492236
X0695072
X0482486
X0472486
X0474055Y0452866
X0484055
X0485636Y0413496
X0475636
X0477211Y0374126
X0487211
X0367519
X0357519
X035595Y0413496
X036595
X036437Y0452866
X0354369
X0352801Y0492236
X0362801
X0150215
X0140216
X0141784Y0452866
X0151784
X0153365Y0413496
X0143365
X014494Y0374126
X015494
X0148641Y0531606
X0138641
X0174067Y0551291
X0184067
X02095
X02195
X0244934
X0254934
X0280367
X0290367
X03158
X03258
X0351226Y0531606
X0361226
X0394933Y05575
Y05665
X0470912Y0531606
X0480911
X0506338Y0551291
X0516338
X0541771
X0551771
X0577204
X0587204
X0612637
X0622637
X064807
X0658071
X0683497Y0531606
X0693497
X0727203Y05575
Y05665
X0803182Y0531606
X0813182
X0838609Y0551291
X0848609
X0874042
X0884042
X0909475
X0919475
X0944908
X0954908
X0980341
X0990341
X1015768Y0531606
X1025768
X1059474Y05665
X1135453Y0531606
X1145453
X117088Y0551291
X118088
X1206319
X1216319
X1241746
X1251746
X1277185
X1287185
X1312612
X1322612
X1348038Y0531606
X1358039
X1391745Y05575
Y05665
T03
X1537245Y0127
Y0137
X1547245
Y0127
X1557245
Y0137
X1574745Y03185
Y03285
Y03385
Y03485
X1584745Y03435
Y03335
Y03235
Y03135
X1584749Y0399839
Y0409839
Y0419839
Y0429839
X1574749Y0434839
Y0424839
Y0414839
Y0404839
T04
X0396791Y0226487
X0624016Y0226488
X098937Y0226487
X1179213
Y0482392
X098937
X0624017Y0482392
X0396791Y0482392
T05
X1609745Y03085
Y03535
X1609749Y0394839
Y0439839
M30
