%FSLAX24Y24*%
%MOIN*%
G70*
G01*
G75*
G04 Layer_Color=8388736*
%ADD10R,0.1299X0.0787*%
%ADD11R,0.0866X0.0925*%
%ADD12R,0.0610X0.0925*%
%ADD13R,0.0335X0.0335*%
%ADD14R,0.0394X0.0394*%
%ADD15O,0.0236X0.0866*%
%ADD16O,0.0236X0.0866*%
%ADD17R,0.0787X0.2362*%
%ADD18R,0.0354X0.0354*%
%ADD19R,0.0630X0.1181*%
%ADD20C,0.0394*%
%ADD21R,0.0335X0.0669*%
%ADD22R,0.0472X0.1378*%
%ADD23R,0.2185X0.2559*%
%ADD24R,0.0492X0.1201*%
%ADD25O,0.0689X0.0217*%
%ADD26O,0.0217X0.0689*%
%ADD27R,0.0630X0.0236*%
%ADD28R,0.0630X0.0236*%
%ADD29C,0.0150*%
%ADD30C,0.0250*%
%ADD31C,0.0500*%
%ADD32C,0.0100*%
%ADD33C,0.0300*%
%ADD34C,0.2500*%
%ADD35C,0.0472*%
%ADD36R,0.0591X0.0591*%
%ADD37C,0.0591*%
%ADD38C,0.0472*%
%ADD39C,0.0591*%
%ADD40R,0.0591X0.0591*%
%ADD41C,0.0630*%
%ADD42C,0.1161*%
%ADD43C,0.0500*%
%ADD44C,0.0098*%
%ADD45C,0.0236*%
%ADD46C,0.0079*%
%ADD47R,0.1379X0.0867*%
%ADD48R,0.0946X0.1005*%
%ADD49R,0.0690X0.1005*%
%ADD50R,0.0415X0.0415*%
%ADD51R,0.0474X0.0474*%
%ADD52O,0.0316X0.0946*%
%ADD53O,0.0316X0.0946*%
%ADD54R,0.0867X0.2442*%
%ADD55R,0.0434X0.0434*%
%ADD56R,0.0710X0.1261*%
%ADD57C,0.0984*%
%ADD58R,0.0415X0.0749*%
%ADD59R,0.0552X0.1458*%
%ADD60R,0.2265X0.2639*%
%ADD61R,0.0572X0.1281*%
%ADD62C,0.1181*%
%ADD63O,0.0769X0.0297*%
%ADD64O,0.0297X0.0769*%
%ADD65R,0.0710X0.0316*%
%ADD66R,0.0710X0.0316*%
%ADD67C,0.2580*%
%ADD68C,0.0552*%
%ADD69R,0.0671X0.0671*%
%ADD70C,0.0671*%
%ADD71C,0.0552*%
%ADD72C,0.0671*%
%ADD73R,0.0671X0.0671*%
%ADD74C,0.0710*%
%ADD75C,0.1241*%
%ADD76C,0.0580*%
D47*
X73000Y52820D02*
D03*
Y50380D02*
D03*
X162040Y50409D02*
D03*
Y52850D02*
D03*
X164040Y50409D02*
D03*
Y52850D02*
D03*
X160040Y50409D02*
D03*
Y52850D02*
D03*
X172040Y50409D02*
D03*
Y52850D02*
D03*
X158040Y50380D02*
D03*
Y52820D02*
D03*
X131700Y52900D02*
D03*
Y50459D02*
D03*
X135700D02*
D03*
Y52900D02*
D03*
X139700Y52900D02*
D03*
Y50459D02*
D03*
X103340Y52820D02*
D03*
Y50380D02*
D03*
X105340Y52820D02*
D03*
Y50380D02*
D03*
X107340Y52820D02*
D03*
Y50380D02*
D03*
X111340Y52820D02*
D03*
Y50380D02*
D03*
X113340D02*
D03*
Y52820D02*
D03*
X115340D02*
D03*
Y50380D02*
D03*
X166040Y52850D02*
D03*
Y50409D02*
D03*
X168040Y52850D02*
D03*
Y50409D02*
D03*
X170040Y52850D02*
D03*
Y50409D02*
D03*
X87000Y52820D02*
D03*
Y50380D02*
D03*
X85000D02*
D03*
Y52820D02*
D03*
X83000D02*
D03*
Y50380D02*
D03*
X81000Y50380D02*
D03*
Y52820D02*
D03*
X79000Y50380D02*
D03*
Y52820D02*
D03*
X77000Y50380D02*
D03*
Y52820D02*
D03*
X75000Y50380D02*
D03*
Y52820D02*
D03*
X143700Y50459D02*
D03*
Y52900D02*
D03*
X141700Y50459D02*
D03*
Y52900D02*
D03*
X137700Y50459D02*
D03*
Y52900D02*
D03*
X133700Y50459D02*
D03*
Y52900D02*
D03*
X129700Y52900D02*
D03*
Y50459D02*
D03*
X101340Y52820D02*
D03*
Y50380D02*
D03*
X109340D02*
D03*
Y52820D02*
D03*
D48*
X185600Y86448D02*
D03*
Y88652D02*
D03*
X188100Y86448D02*
D03*
Y88652D02*
D03*
D49*
X190100Y86772D02*
D03*
Y88328D02*
D03*
D50*
X183550Y87185D02*
D03*
Y87815D02*
D03*
X182450Y69585D02*
D03*
Y70215D02*
D03*
X187400Y69585D02*
D03*
Y70215D02*
D03*
X183600Y66015D02*
D03*
Y65385D02*
D03*
D51*
X182550Y87835D02*
D03*
Y87165D02*
D03*
X184450Y69565D02*
D03*
Y70235D02*
D03*
X183450D02*
D03*
Y69565D02*
D03*
X186400Y70235D02*
D03*
Y69565D02*
D03*
X182400Y65365D02*
D03*
Y66035D02*
D03*
X189000Y55535D02*
D03*
Y54865D02*
D03*
D52*
X183650Y71955D02*
D03*
X184150D02*
D03*
X184650D02*
D03*
X185150D02*
D03*
X183650Y73845D02*
D03*
X184150D02*
D03*
X185150D02*
D03*
X170790Y47945D02*
D03*
X170290D02*
D03*
X169790D02*
D03*
X169290D02*
D03*
X168790D02*
D03*
X168290D02*
D03*
X167790D02*
D03*
X167290D02*
D03*
X170790Y46055D02*
D03*
X170290D02*
D03*
X169790D02*
D03*
X169290D02*
D03*
X168790D02*
D03*
X168290D02*
D03*
X167790D02*
D03*
X167290D02*
D03*
X140960Y46055D02*
D03*
X140460D02*
D03*
X139960D02*
D03*
Y47945D02*
D03*
X140460D02*
D03*
X140960D02*
D03*
X141460D02*
D03*
X142460D02*
D03*
X141960D02*
D03*
X139460D02*
D03*
X138960D02*
D03*
Y46055D02*
D03*
X139460D02*
D03*
X141460D02*
D03*
X141960D02*
D03*
X142460D02*
D03*
X112590Y46110D02*
D03*
X112090D02*
D03*
X111590D02*
D03*
Y48000D02*
D03*
X112090D02*
D03*
X112590D02*
D03*
X113090D02*
D03*
X114090D02*
D03*
X113590D02*
D03*
X111090D02*
D03*
X110590D02*
D03*
Y46110D02*
D03*
X111090D02*
D03*
X113090D02*
D03*
X113590D02*
D03*
X114090D02*
D03*
X82250Y46055D02*
D03*
X82750D02*
D03*
X83250D02*
D03*
X83750D02*
D03*
X84250D02*
D03*
X84750D02*
D03*
X85250D02*
D03*
X85750D02*
D03*
X82250Y47945D02*
D03*
X82750D02*
D03*
X83250D02*
D03*
X83750D02*
D03*
X84250D02*
D03*
X84750D02*
D03*
X85250D02*
D03*
X85750D02*
D03*
D53*
X184650Y73845D02*
D03*
D54*
X194000Y66568D02*
D03*
Y62631D02*
D03*
D55*
X195600Y60415D02*
D03*
Y59785D02*
D03*
Y65285D02*
D03*
Y65915D02*
D03*
X188100Y55515D02*
D03*
Y54885D02*
D03*
X182500Y73685D02*
D03*
Y74315D02*
D03*
X188419Y65391D02*
D03*
Y66021D02*
D03*
X190500Y92815D02*
D03*
Y92185D02*
D03*
X182500Y92815D02*
D03*
Y92185D02*
D03*
X195600Y63385D02*
D03*
Y64015D02*
D03*
X188100Y57685D02*
D03*
Y58315D02*
D03*
X184869Y62171D02*
D03*
Y61541D02*
D03*
X143200Y47315D02*
D03*
Y46685D02*
D03*
X114840D02*
D03*
Y47315D02*
D03*
X86500D02*
D03*
Y46685D02*
D03*
X171540D02*
D03*
Y47315D02*
D03*
D56*
X190500Y57007D02*
D03*
Y53393D02*
D03*
D57*
X191070Y59210D02*
D03*
X185760Y64530D02*
D03*
D58*
X192474Y88681D02*
D03*
X193526D02*
D03*
Y86319D02*
D03*
X192474D02*
D03*
D59*
X184500Y93600D02*
D03*
Y91400D02*
D03*
X192500Y93600D02*
D03*
Y91400D02*
D03*
D60*
X188000Y91555D02*
D03*
D61*
X187098Y94094D02*
D03*
X188902D02*
D03*
D62*
X66500Y43500D02*
D03*
Y99500D02*
D03*
X203000Y43500D02*
D03*
D63*
X190635Y60296D02*
D03*
Y60611D02*
D03*
Y60926D02*
D03*
Y61241D02*
D03*
Y61556D02*
D03*
Y61870D02*
D03*
Y62185D02*
D03*
Y62500D02*
D03*
Y62815D02*
D03*
Y63130D02*
D03*
Y63445D02*
D03*
X186187D02*
D03*
Y63130D02*
D03*
Y62815D02*
D03*
Y62500D02*
D03*
Y62185D02*
D03*
Y61870D02*
D03*
Y61556D02*
D03*
Y61241D02*
D03*
Y60926D02*
D03*
Y60611D02*
D03*
Y60296D02*
D03*
D64*
X189986Y64095D02*
D03*
X189671D02*
D03*
X189356D02*
D03*
X189041D02*
D03*
X188726D02*
D03*
X188411D02*
D03*
X188096D02*
D03*
X187781D02*
D03*
X187466D02*
D03*
X187151D02*
D03*
X186836D02*
D03*
Y59646D02*
D03*
X187151D02*
D03*
X187466D02*
D03*
X187781D02*
D03*
X188096D02*
D03*
X188411D02*
D03*
X188726D02*
D03*
X189041D02*
D03*
X189356D02*
D03*
X189671D02*
D03*
X189986D02*
D03*
D65*
X192817Y75150D02*
D03*
X193526Y75524D02*
D03*
D66*
X193526Y74776D02*
D03*
D67*
X165940Y91000D02*
D03*
Y64800D02*
D03*
X80900D02*
D03*
Y91000D02*
D03*
X137600Y64800D02*
D03*
Y91000D02*
D03*
X109240Y64800D02*
D03*
Y91000D02*
D03*
D68*
X130520Y96420D02*
D03*
Y97420D02*
D03*
X147360Y78700D02*
D03*
Y79700D02*
D03*
X129260Y78720D02*
D03*
Y79720D02*
D03*
X130040Y59020D02*
D03*
Y60020D02*
D03*
X148140Y59040D02*
D03*
Y60040D02*
D03*
X132080Y57060D02*
D03*
Y58060D02*
D03*
X102160Y96420D02*
D03*
Y97420D02*
D03*
X100900Y78720D02*
D03*
Y79720D02*
D03*
X101700Y59040D02*
D03*
Y60040D02*
D03*
X134040Y96420D02*
D03*
Y97420D02*
D03*
X147200Y82660D02*
D03*
Y83660D02*
D03*
X129880Y62960D02*
D03*
Y63960D02*
D03*
X148000Y62960D02*
D03*
Y63960D02*
D03*
X135620Y57060D02*
D03*
Y58060D02*
D03*
X105700Y96440D02*
D03*
Y97440D02*
D03*
X100760Y82640D02*
D03*
Y83640D02*
D03*
X101540Y62980D02*
D03*
Y63980D02*
D03*
X156990Y95450D02*
D03*
Y94450D02*
D03*
X157140Y91550D02*
D03*
Y90550D02*
D03*
X128620Y95460D02*
D03*
Y94460D02*
D03*
X129420Y75780D02*
D03*
Y74780D02*
D03*
X145480Y77740D02*
D03*
Y76740D02*
D03*
X100280Y95460D02*
D03*
Y94460D02*
D03*
X117120Y77740D02*
D03*
Y76740D02*
D03*
X158860Y96420D02*
D03*
Y97420D02*
D03*
X159640Y77740D02*
D03*
Y76740D02*
D03*
X173820Y77740D02*
D03*
Y76740D02*
D03*
X162400Y96430D02*
D03*
Y97430D02*
D03*
X163200Y77760D02*
D03*
Y76760D02*
D03*
X166720Y77740D02*
D03*
Y76740D02*
D03*
X170280Y77740D02*
D03*
Y76740D02*
D03*
X157290Y86600D02*
D03*
Y87600D02*
D03*
X157440Y82650D02*
D03*
Y83650D02*
D03*
X157590Y78700D02*
D03*
Y79700D02*
D03*
X157750Y75780D02*
D03*
Y74780D02*
D03*
X157920Y71840D02*
D03*
Y70840D02*
D03*
X158080Y67900D02*
D03*
Y66900D02*
D03*
X158240Y63970D02*
D03*
Y62970D02*
D03*
X160430Y58060D02*
D03*
Y57060D02*
D03*
X163980Y58070D02*
D03*
Y57070D02*
D03*
X167510Y58060D02*
D03*
Y57060D02*
D03*
X171060Y58070D02*
D03*
Y57070D02*
D03*
X174610Y58060D02*
D03*
Y57060D02*
D03*
X176500Y60020D02*
D03*
Y59020D02*
D03*
X176340Y63960D02*
D03*
Y62960D02*
D03*
X176180Y67900D02*
D03*
Y66900D02*
D03*
X176020Y71840D02*
D03*
Y70840D02*
D03*
X175860Y75780D02*
D03*
Y74780D02*
D03*
X175700Y79700D02*
D03*
Y78700D02*
D03*
X175560Y83660D02*
D03*
Y82660D02*
D03*
X175400Y87570D02*
D03*
Y86570D02*
D03*
X175240Y91530D02*
D03*
Y90530D02*
D03*
X175070Y95460D02*
D03*
Y94460D02*
D03*
X152560Y58060D02*
D03*
Y57060D02*
D03*
X146260Y58060D02*
D03*
Y57060D02*
D03*
X142700Y58040D02*
D03*
Y57040D02*
D03*
X139160Y58060D02*
D03*
Y57060D02*
D03*
X129720Y67900D02*
D03*
Y66900D02*
D03*
X129560Y71840D02*
D03*
Y70840D02*
D03*
X131300Y77740D02*
D03*
Y76740D02*
D03*
X134840Y77740D02*
D03*
Y76740D02*
D03*
X138400Y77740D02*
D03*
Y76740D02*
D03*
X141920Y77740D02*
D03*
Y76740D02*
D03*
X137600Y97420D02*
D03*
Y96420D02*
D03*
X141140Y97420D02*
D03*
Y96420D02*
D03*
X144680Y97420D02*
D03*
Y96420D02*
D03*
X128780Y91540D02*
D03*
Y90540D02*
D03*
X128940Y87580D02*
D03*
Y86580D02*
D03*
X129100Y83660D02*
D03*
Y82660D02*
D03*
X147060Y87580D02*
D03*
Y86580D02*
D03*
X146900Y91520D02*
D03*
Y90520D02*
D03*
X146720Y95460D02*
D03*
Y94460D02*
D03*
X147500Y75780D02*
D03*
Y74780D02*
D03*
X147680Y71840D02*
D03*
Y70840D02*
D03*
X147840Y67900D02*
D03*
Y66900D02*
D03*
X100440Y91520D02*
D03*
Y90520D02*
D03*
X100580Y87580D02*
D03*
Y86580D02*
D03*
X101060Y75780D02*
D03*
Y74780D02*
D03*
X101220Y71840D02*
D03*
Y70840D02*
D03*
X101380Y67900D02*
D03*
Y66900D02*
D03*
X109260Y97440D02*
D03*
Y96440D02*
D03*
X112800Y97440D02*
D03*
Y96440D02*
D03*
X116340Y97440D02*
D03*
Y96440D02*
D03*
X118380Y95460D02*
D03*
Y94460D02*
D03*
X118540Y91540D02*
D03*
Y90540D02*
D03*
X118700Y87600D02*
D03*
Y86600D02*
D03*
X118860Y83640D02*
D03*
Y82640D02*
D03*
X119020Y79720D02*
D03*
Y78720D02*
D03*
X113580Y77760D02*
D03*
Y76760D02*
D03*
X110040Y77740D02*
D03*
Y76740D02*
D03*
X106500Y77740D02*
D03*
Y76740D02*
D03*
X102960Y77740D02*
D03*
Y76740D02*
D03*
X119160Y75780D02*
D03*
Y74780D02*
D03*
X119340Y71840D02*
D03*
Y70840D02*
D03*
X119500Y67920D02*
D03*
Y66920D02*
D03*
X119640Y63960D02*
D03*
Y62960D02*
D03*
X119800Y60020D02*
D03*
Y59020D02*
D03*
X117920Y58060D02*
D03*
Y57060D02*
D03*
X114380Y58060D02*
D03*
Y57060D02*
D03*
X110820Y58060D02*
D03*
Y57060D02*
D03*
X107280Y58060D02*
D03*
Y57060D02*
D03*
X103740Y58060D02*
D03*
Y57060D02*
D03*
X95860Y58060D02*
D03*
Y57060D02*
D03*
X124220Y58060D02*
D03*
Y57060D02*
D03*
X73820Y97420D02*
D03*
Y96420D02*
D03*
X77360Y97440D02*
D03*
X80900Y97420D02*
D03*
Y96420D02*
D03*
X84460Y97420D02*
D03*
Y96420D02*
D03*
X88000Y97400D02*
D03*
Y96400D02*
D03*
X71920Y95460D02*
D03*
Y94460D02*
D03*
X72080Y91520D02*
D03*
Y90520D02*
D03*
X72240Y87580D02*
D03*
Y86580D02*
D03*
X72400Y83640D02*
D03*
Y82640D02*
D03*
X72560Y79700D02*
D03*
Y78700D02*
D03*
X72720Y75780D02*
D03*
Y74780D02*
D03*
X72880Y71840D02*
D03*
Y70840D02*
D03*
X73040Y67900D02*
D03*
Y66900D02*
D03*
X73200Y63960D02*
D03*
Y62960D02*
D03*
X73360Y60020D02*
D03*
Y59020D02*
D03*
X67520Y57060D02*
D03*
Y58060D02*
D03*
X90040Y95440D02*
D03*
Y94440D02*
D03*
X90200Y91500D02*
D03*
Y90500D02*
D03*
X90360Y87560D02*
D03*
Y86560D02*
D03*
X90520Y83620D02*
D03*
Y82620D02*
D03*
X90680Y79680D02*
D03*
Y78680D02*
D03*
X88780Y77740D02*
D03*
Y76740D02*
D03*
X85240Y77740D02*
D03*
Y76740D02*
D03*
X81700Y77740D02*
D03*
Y76740D02*
D03*
X78160Y77740D02*
D03*
Y76740D02*
D03*
X74600Y77740D02*
D03*
Y76740D02*
D03*
X75400Y58060D02*
D03*
X78940Y57060D02*
D03*
Y58060D02*
D03*
X82480Y57060D02*
D03*
Y58060D02*
D03*
X86020Y57080D02*
D03*
Y58080D02*
D03*
X89560Y57060D02*
D03*
Y58060D02*
D03*
X90820Y75780D02*
D03*
Y74780D02*
D03*
X90980Y71840D02*
D03*
Y70840D02*
D03*
X91140Y67900D02*
D03*
Y66900D02*
D03*
X91300Y63960D02*
D03*
Y62960D02*
D03*
X91460Y60020D02*
D03*
X165940Y96430D02*
D03*
Y97430D02*
D03*
X169490Y96430D02*
D03*
Y97430D02*
D03*
X173030Y96430D02*
D03*
Y97430D02*
D03*
X158390Y60040D02*
D03*
Y59040D02*
D03*
D69*
X193500Y54500D02*
D03*
D70*
Y55500D02*
D03*
X194500Y54500D02*
D03*
Y55500D02*
D03*
X195500Y54500D02*
D03*
Y55500D02*
D03*
D71*
X77360Y96440D02*
D03*
X75400Y57060D02*
D03*
X91460Y59020D02*
D03*
D72*
X197250Y85284D02*
D03*
Y82284D02*
D03*
X198250Y84784D02*
D03*
X197250Y84284D02*
D03*
Y83284D02*
D03*
X198250Y83784D02*
D03*
X197250Y73650D02*
D03*
Y76650D02*
D03*
X198250Y76150D02*
D03*
X197250Y74650D02*
D03*
X198250Y75150D02*
D03*
X197250Y75650D02*
D03*
D73*
X198250Y81784D02*
D03*
X198250Y73150D02*
D03*
D74*
X198250Y82784D02*
D03*
X198250Y74150D02*
D03*
D75*
X200750Y81284D02*
D03*
Y85784D02*
D03*
X200750Y72650D02*
D03*
Y77150D02*
D03*
D76*
X85900Y44700D02*
D03*
X81300Y46300D02*
D03*
X87400Y49300D02*
D03*
X166640Y47900D02*
D03*
X166340Y46300D02*
D03*
X170940Y44700D02*
D03*
X172440Y49300D02*
D03*
X187400Y71700D02*
D03*
X187500Y92000D02*
D03*
X188500D02*
D03*
X187500Y91000D02*
D03*
X188500D02*
D03*
X191000Y75150D02*
D03*
X183550Y89050D02*
D03*
X182500D02*
D03*
X187750Y47100D02*
D03*
X182450Y71700D02*
D03*
X182500Y75650D02*
D03*
X186400Y73850D02*
D03*
X194500Y90500D02*
D03*
X195500D02*
D03*
Y91500D02*
D03*
X194500D02*
D03*
X180000D02*
D03*
X181000D02*
D03*
Y90500D02*
D03*
X180000D02*
D03*
X183900Y68500D02*
D03*
X189400Y66500D02*
D03*
X184100Y60700D02*
D03*
X195600Y61700D02*
D03*
X196600Y64700D02*
D03*
X192100Y57000D02*
D03*
X185000Y85000D02*
D03*
X186000D02*
D03*
Y84000D02*
D03*
X185000D02*
D03*
X188000D02*
D03*
X189000D02*
D03*
Y85000D02*
D03*
X188000D02*
D03*
X190400Y65000D02*
D03*
X184830Y63510D02*
D03*
X188500Y69100D02*
D03*
X186200Y71600D02*
D03*
X188100Y56800D02*
D03*
X178950Y97550D02*
D03*
Y98450D02*
D03*
X150610D02*
D03*
Y97550D02*
D03*
X144100Y49300D02*
D03*
X142600Y44700D02*
D03*
X138000Y46300D02*
D03*
Y47900D02*
D03*
X122250Y98450D02*
D03*
Y97550D02*
D03*
X114240Y44700D02*
D03*
X109640Y46300D02*
D03*
X115740Y49300D02*
D03*
X109640Y47900D02*
D03*
X93910Y97510D02*
D03*
Y98410D02*
D03*
X174350Y45500D02*
D03*
X192600Y47800D02*
D03*
X146010Y45500D02*
D03*
X117650D02*
D03*
X196374Y56276D02*
D03*
X81300Y47900D02*
D03*
M02*
