%FSLAX24Y24*%
%MOIN*%
G70*
G01*
G75*
G04 Layer_Color=8421504*
%ADD10R,0.1299X0.0787*%
%ADD11R,0.0866X0.0925*%
%ADD12R,0.0610X0.0925*%
%ADD13R,0.0335X0.0335*%
%ADD14R,0.0394X0.0394*%
%ADD15O,0.0236X0.0866*%
%ADD16O,0.0236X0.0866*%
%ADD17R,0.0787X0.2362*%
%ADD18R,0.0354X0.0354*%
%ADD19R,0.0630X0.1181*%
%ADD20C,0.0394*%
%ADD21R,0.0335X0.0669*%
%ADD22R,0.0472X0.1378*%
%ADD23R,0.2185X0.2559*%
%ADD24R,0.0492X0.1201*%
%ADD25O,0.0689X0.0217*%
%ADD26O,0.0217X0.0689*%
%ADD27R,0.0630X0.0236*%
%ADD28R,0.0630X0.0236*%
%ADD29C,0.0150*%
%ADD30C,0.0250*%
%ADD31C,0.0500*%
%ADD32C,0.0100*%
%ADD33C,0.0300*%
%ADD34C,0.2500*%
%ADD35C,0.0472*%
%ADD36R,0.0591X0.0591*%
%ADD37C,0.0591*%
%ADD38C,0.0472*%
%ADD39C,0.0591*%
%ADD40R,0.0591X0.0591*%
%ADD41C,0.0630*%
%ADD42C,0.1161*%
%ADD43C,0.0500*%
%ADD44C,0.0098*%
%ADD45C,0.0236*%
%ADD46C,0.0079*%
D10*
X73000Y52820D02*
D03*
Y50380D02*
D03*
X162040Y50409D02*
D03*
Y52850D02*
D03*
X164040Y50409D02*
D03*
Y52850D02*
D03*
X160040Y50409D02*
D03*
Y52850D02*
D03*
X172040Y50409D02*
D03*
Y52850D02*
D03*
X158040Y50380D02*
D03*
Y52820D02*
D03*
X131700Y52900D02*
D03*
Y50459D02*
D03*
X135700D02*
D03*
Y52900D02*
D03*
X139700Y52900D02*
D03*
Y50459D02*
D03*
X103340Y52820D02*
D03*
Y50380D02*
D03*
X105340Y52820D02*
D03*
Y50380D02*
D03*
X107340Y52820D02*
D03*
Y50380D02*
D03*
X111340Y52820D02*
D03*
Y50380D02*
D03*
X113340D02*
D03*
Y52820D02*
D03*
X115340D02*
D03*
Y50380D02*
D03*
X166040Y52850D02*
D03*
Y50409D02*
D03*
X168040Y52850D02*
D03*
Y50409D02*
D03*
X170040Y52850D02*
D03*
Y50409D02*
D03*
X87000Y52820D02*
D03*
Y50380D02*
D03*
X85000D02*
D03*
Y52820D02*
D03*
X83000D02*
D03*
Y50380D02*
D03*
X81000Y50380D02*
D03*
Y52820D02*
D03*
X79000Y50380D02*
D03*
Y52820D02*
D03*
X77000Y50380D02*
D03*
Y52820D02*
D03*
X75000Y50380D02*
D03*
Y52820D02*
D03*
X143700Y50459D02*
D03*
Y52900D02*
D03*
X141700Y50459D02*
D03*
Y52900D02*
D03*
X137700Y50459D02*
D03*
Y52900D02*
D03*
X133700Y50459D02*
D03*
Y52900D02*
D03*
X129700Y52900D02*
D03*
Y50459D02*
D03*
X101340Y52820D02*
D03*
Y50380D02*
D03*
X109340D02*
D03*
Y52820D02*
D03*
D11*
X185600Y86448D02*
D03*
Y88652D02*
D03*
X188100Y86448D02*
D03*
Y88652D02*
D03*
D12*
X190100Y86772D02*
D03*
Y88328D02*
D03*
D13*
X183550Y87185D02*
D03*
Y87815D02*
D03*
X182450Y69585D02*
D03*
Y70215D02*
D03*
X187400Y69585D02*
D03*
Y70215D02*
D03*
X183600Y66015D02*
D03*
Y65385D02*
D03*
D14*
X182550Y87835D02*
D03*
Y87165D02*
D03*
X184450Y69565D02*
D03*
Y70235D02*
D03*
X183450D02*
D03*
Y69565D02*
D03*
X186400Y70235D02*
D03*
Y69565D02*
D03*
X182400Y65365D02*
D03*
Y66035D02*
D03*
X189000Y55535D02*
D03*
Y54865D02*
D03*
D15*
X183650Y71955D02*
D03*
X184150D02*
D03*
X184650D02*
D03*
X185150D02*
D03*
X183650Y73845D02*
D03*
X184150D02*
D03*
X185150D02*
D03*
X170790Y47945D02*
D03*
X170290D02*
D03*
X169790D02*
D03*
X169290D02*
D03*
X168790D02*
D03*
X168290D02*
D03*
X167790D02*
D03*
X167290D02*
D03*
X170790Y46055D02*
D03*
X170290D02*
D03*
X169790D02*
D03*
X169290D02*
D03*
X168790D02*
D03*
X168290D02*
D03*
X167790D02*
D03*
X167290D02*
D03*
X140960Y46055D02*
D03*
X140460D02*
D03*
X139960D02*
D03*
Y47945D02*
D03*
X140460D02*
D03*
X140960D02*
D03*
X141460D02*
D03*
X142460D02*
D03*
X141960D02*
D03*
X139460D02*
D03*
X138960D02*
D03*
Y46055D02*
D03*
X139460D02*
D03*
X141460D02*
D03*
X141960D02*
D03*
X142460D02*
D03*
X112590Y46110D02*
D03*
X112090D02*
D03*
X111590D02*
D03*
Y48000D02*
D03*
X112090D02*
D03*
X112590D02*
D03*
X113090D02*
D03*
X114090D02*
D03*
X113590D02*
D03*
X111090D02*
D03*
X110590D02*
D03*
Y46110D02*
D03*
X111090D02*
D03*
X113090D02*
D03*
X113590D02*
D03*
X114090D02*
D03*
X82250Y46055D02*
D03*
X82750D02*
D03*
X83250D02*
D03*
X83750D02*
D03*
X84250D02*
D03*
X84750D02*
D03*
X85250D02*
D03*
X85750D02*
D03*
X82250Y47945D02*
D03*
X82750D02*
D03*
X83250D02*
D03*
X83750D02*
D03*
X84250D02*
D03*
X84750D02*
D03*
X85250D02*
D03*
X85750D02*
D03*
D16*
X184650Y73845D02*
D03*
D17*
X194000Y66568D02*
D03*
Y62631D02*
D03*
D18*
X195600Y60415D02*
D03*
Y59785D02*
D03*
Y65285D02*
D03*
Y65915D02*
D03*
X188100Y55515D02*
D03*
Y54885D02*
D03*
X182500Y73685D02*
D03*
Y74315D02*
D03*
X188419Y65391D02*
D03*
Y66021D02*
D03*
X190500Y92815D02*
D03*
Y92185D02*
D03*
X182500Y92815D02*
D03*
Y92185D02*
D03*
X195600Y63385D02*
D03*
Y64015D02*
D03*
X188100Y57685D02*
D03*
Y58315D02*
D03*
X184869Y62171D02*
D03*
Y61541D02*
D03*
X143200Y47315D02*
D03*
Y46685D02*
D03*
X114840D02*
D03*
Y47315D02*
D03*
X86500D02*
D03*
Y46685D02*
D03*
X171540D02*
D03*
Y47315D02*
D03*
D19*
X190500Y57007D02*
D03*
Y53393D02*
D03*
D20*
X191070Y59210D02*
D03*
X185760Y64530D02*
D03*
X66500Y43500D02*
D03*
Y99500D02*
D03*
X203000Y43500D02*
D03*
D21*
X192474Y88681D02*
D03*
X193526D02*
D03*
Y86319D02*
D03*
X192474D02*
D03*
D22*
X184500Y93600D02*
D03*
Y91400D02*
D03*
X192500Y93600D02*
D03*
Y91400D02*
D03*
D23*
X188000Y91555D02*
D03*
D24*
X187098Y94094D02*
D03*
X188902D02*
D03*
D25*
X190635Y60296D02*
D03*
Y60611D02*
D03*
Y60926D02*
D03*
Y61241D02*
D03*
Y61556D02*
D03*
Y61870D02*
D03*
Y62185D02*
D03*
Y62500D02*
D03*
Y62815D02*
D03*
Y63130D02*
D03*
Y63445D02*
D03*
X186187D02*
D03*
Y63130D02*
D03*
Y62815D02*
D03*
Y62500D02*
D03*
Y62185D02*
D03*
Y61870D02*
D03*
Y61556D02*
D03*
Y61241D02*
D03*
Y60926D02*
D03*
Y60611D02*
D03*
Y60296D02*
D03*
D26*
X189986Y64095D02*
D03*
X189671D02*
D03*
X189356D02*
D03*
X189041D02*
D03*
X188726D02*
D03*
X188411D02*
D03*
X188096D02*
D03*
X187781D02*
D03*
X187466D02*
D03*
X187151D02*
D03*
X186836D02*
D03*
Y59646D02*
D03*
X187151D02*
D03*
X187466D02*
D03*
X187781D02*
D03*
X188096D02*
D03*
X188411D02*
D03*
X188726D02*
D03*
X189041D02*
D03*
X189356D02*
D03*
X189671D02*
D03*
X189986D02*
D03*
D27*
X192817Y75150D02*
D03*
X193526Y75524D02*
D03*
D28*
X193526Y74776D02*
D03*
M02*
