M48
;Layer_Color=9474304
;FILE_FORMAT=2:5
INCH,LZ
;TYPE=PLATED
T1F00S00C0.02756
T2F00S00C0.02800
T3F00S00C0.03543
T4F00S00C0.12500
;TYPE=NON_PLATED
T5F00S00C0.12795
%
T01
X17461Y05706
Y05806
X1765Y05902
Y06002
X17106Y05807
Y05707
X16751Y05706
Y05806
X16398Y05807
Y05707
X16043Y05706
Y05806
X15839Y05904
Y06004
X15256Y05806
Y05706
X14626
Y05806
X14814Y05904
Y06004
X1427Y05804
Y05704
X13916Y05706
Y05806
X13562
Y05706
X13208
Y05806
X13004Y05902
Y06002
X12422Y05806
Y05706
X11792
Y05806
X1198Y05902
Y06002
X11438Y05806
Y05706
X11082
Y05806
X10728
Y05706
X10374
Y05806
X1017Y05904
Y06004
X09586Y05806
Y05706
X08956
Y05806
X09146Y05902
Y06002
X08602Y05808
Y05708
X08248Y05706
Y05806
X07894
Y05706
X0754
Y05806
X07336Y05902
Y06002
X06752Y05806
Y05706
X0732Y06296
Y06396
X07304Y0669
Y0679
X07288Y07084
Y07184
X07272Y07478
Y07578
X0746Y07674
Y07774
X07816
Y07674
X0817
Y07774
X08524
Y07674
X08878
Y07774
X09082Y07578
Y07478
X09098Y07184
Y07084
X09114Y0679
Y0669
X0913Y06396
Y06296
X10154Y06298
Y06398
X10138Y0669
Y0679
X10122Y07084
Y07184
X10106Y07478
Y07578
X10296Y07674
Y07774
X1065
Y07674
X11004
Y07774
X11358Y07776
Y07676
X11712Y07674
Y07774
X11916Y07578
Y07478
X11934Y07184
Y07084
X1195Y06792
Y06692
X11964Y06396
Y06296
X12988
Y06396
X12972Y0669
Y0679
X12956Y07084
Y07184
X12942Y07478
Y07578
X1313Y07674
Y07774
X13484
Y07674
X1384
Y07774
X14192
Y07674
X14548
Y07774
X1475Y07578
Y07478
X14768Y07184
Y07084
X14784Y0679
Y0669
X148Y06396
Y06296
X15824Y06297
Y06397
X15808Y0669
Y0679
X15792Y07084
Y07184
X15775Y07478
Y07578
X15964Y07674
Y07774
X1632Y07776
Y07676
X16672Y07674
Y07774
X17028
Y07674
X17382
Y07774
X17586Y07578
Y07478
X17602Y07184
Y07084
X17618Y0679
Y0669
X17634Y06396
Y06296
X1757Y0787
Y0797
X17556Y08266
Y08366
X1754Y08657
Y08757
X17524Y09053
Y09153
X15714Y09155
Y09055
X15729Y0876
Y0866
X15744Y08365
Y08265
X15759Y0797
Y0787
X14736
Y0797
X1472Y08266
Y08366
X14706Y08658
Y08758
X1469Y09052
Y09152
X12878Y09154
Y09054
X12894Y08758
Y08658
X1291Y08366
Y08266
X12926Y07972
Y07872
X11902
Y07972
X11886Y08264
Y08364
X1187Y0866
Y0876
X11854Y09054
Y09154
X10044Y09152
Y09052
X10058Y08758
Y08658
X10076Y08364
Y08264
X1009Y07972
Y07872
X09068Y07868
Y07968
X09052Y08262
Y08362
X09036Y08656
Y08756
X0902Y0905
Y0915
X07208Y09152
Y09052
X07224Y08758
Y08658
X0724Y08364
Y08264
X07256Y0797
Y0787
X07192Y09446
Y09546
X07382Y09642
Y09742
X07736Y09744
Y09644
X0809Y09642
Y09742
X08446
Y09642
X088Y0964
Y0974
X09004Y09544
Y09444
X10028Y09446
Y09546
X10216Y09642
Y09742
X1057Y09744
Y09644
X10926
Y09744
X1128
Y09644
X11634
Y09744
X11838Y09546
Y09446
X12862
Y09546
X13052Y09642
Y09742
X13404
Y09642
X1376
Y09742
X14114
Y09642
X14468
Y09742
X14672Y09546
Y09446
X15699Y09445
Y09545
X15886Y09642
Y09742
X1624Y09743
Y09643
X16594
Y09743
X16949
Y09643
X17303
Y09743
X17507Y09546
Y09446
T02
X0813Y0463
X0859Y0447
X10964Y0463
X11424Y0447
X11765Y0455
X138Y0463
X1426Y0447
X14601Y0455
X16634Y0463
X17094Y0447
X17435Y0455
X18775Y0471
X1926Y0478
X1921Y057
X1881Y0568
X196374Y0562756
X1956Y0617
X1841Y0607
X17244Y0493
X16664Y0479
X1441Y0493
X138Y0479
X11574Y0493
X10964Y0479
X0874Y0493
X0813Y0479
X18483Y06351
X1839Y0685
X18245Y0717
X1862Y0716
X1874Y0717
X1864Y07385
X1825Y07565
X191Y07515
X1885Y0691
X1894Y0665
X1904Y065
X1966Y0647
X1955Y0905
X1945
Y0915
X1955
X1885Y092
X1875
Y091
X1885
X189Y085
Y084
X188
Y085
X186
X185
Y084
X186
X18355Y08905
X1825
X181Y0905
Y0915
X18
Y0905
X09391Y09751
Y09841
X12225Y09845
Y09755
X15061
Y09845
X17895
Y09755
T03
X1935Y0545
Y0555
X1945
Y0545
X1955
Y0555
X19725Y07365
Y07465
Y07565
Y07665
X19825Y07615
Y07515
Y07415
Y07315
X1982504Y0817839
Y0827839
Y0837839
Y0847839
X1972504Y0852839
Y0842839
Y0832839
Y0822839
T04
X0809Y0648
X10924
X1376
X16594
Y091
X1376
X10924
X0809
T05
X20075Y07265
Y07715
X2007504Y0812839
Y0857839
M30
