%FSLAX24Y24*%
%MOIN*%
G70*
G01*
G75*
G04 Layer_Physical_Order=2*
G04 Layer_Color=16711680*
%ADD10R,0.1299X0.0787*%
%ADD11R,0.0866X0.0925*%
%ADD12R,0.0610X0.0925*%
%ADD13R,0.0335X0.0335*%
%ADD14R,0.0394X0.0394*%
%ADD15O,0.0236X0.0866*%
%ADD16O,0.0236X0.0866*%
%ADD17R,0.0787X0.2362*%
%ADD18R,0.0354X0.0354*%
%ADD19R,0.0630X0.1181*%
%ADD20C,0.0394*%
%ADD21R,0.0335X0.0669*%
%ADD22R,0.0472X0.1378*%
%ADD23R,0.2185X0.2559*%
%ADD24R,0.0492X0.1201*%
%ADD25O,0.0689X0.0217*%
%ADD26O,0.0217X0.0689*%
%ADD27R,0.0630X0.0236*%
%ADD28R,0.0630X0.0236*%
%ADD29C,0.0150*%
%ADD30C,0.0250*%
%ADD31C,0.0500*%
%ADD32C,0.0100*%
%ADD33C,0.0300*%
%ADD34C,0.2500*%
%ADD35C,0.0472*%
%ADD36R,0.0591X0.0591*%
%ADD37C,0.0591*%
%ADD38C,0.0472*%
%ADD39C,0.0591*%
%ADD40R,0.0591X0.0591*%
%ADD41C,0.0630*%
%ADD42C,0.1161*%
%ADD43C,0.0500*%
G36*
X204645Y42055D02*
X65055D01*
Y101045D01*
X204645D01*
Y42055D01*
D02*
G37*
%LPC*%
G36*
X90980Y71280D02*
X90866Y71265D01*
X90760Y71221D01*
X90669Y71151D01*
X90599Y71060D01*
X90555Y70954D01*
X90540Y70840D01*
X90555Y70726D01*
X90599Y70620D01*
X90669Y70529D01*
X90760Y70459D01*
X90866Y70415D01*
X90980Y70400D01*
X91094Y70415D01*
X91200Y70459D01*
X91291Y70529D01*
X91361Y70620D01*
X91405Y70726D01*
X91420Y70840D01*
X91405Y70954D01*
X91361Y71060D01*
X91291Y71151D01*
X91200Y71221D01*
X91094Y71265D01*
X90980Y71280D01*
D02*
G37*
G36*
X72880D02*
X72766Y71265D01*
X72660Y71221D01*
X72569Y71151D01*
X72499Y71060D01*
X72455Y70954D01*
X72440Y70840D01*
X72455Y70726D01*
X72499Y70620D01*
X72569Y70529D01*
X72660Y70459D01*
X72766Y70415D01*
X72880Y70400D01*
X72994Y70415D01*
X73100Y70459D01*
X73191Y70529D01*
X73261Y70620D01*
X73305Y70726D01*
X73320Y70840D01*
X73305Y70954D01*
X73261Y71060D01*
X73191Y71151D01*
X73100Y71221D01*
X72994Y71265D01*
X72880Y71280D01*
D02*
G37*
G36*
X101220D02*
X101106Y71265D01*
X101000Y71221D01*
X100909Y71151D01*
X100839Y71060D01*
X100795Y70954D01*
X100780Y70840D01*
X100795Y70726D01*
X100839Y70620D01*
X100909Y70529D01*
X101000Y70459D01*
X101106Y70415D01*
X101220Y70400D01*
X101334Y70415D01*
X101440Y70459D01*
X101531Y70529D01*
X101601Y70620D01*
X101645Y70726D01*
X101660Y70840D01*
X101645Y70954D01*
X101601Y71060D01*
X101531Y71151D01*
X101440Y71221D01*
X101334Y71265D01*
X101220Y71280D01*
D02*
G37*
G36*
X129560D02*
X129446Y71265D01*
X129340Y71221D01*
X129249Y71151D01*
X129179Y71060D01*
X129135Y70954D01*
X129120Y70840D01*
X129135Y70726D01*
X129179Y70620D01*
X129249Y70529D01*
X129340Y70459D01*
X129446Y70415D01*
X129560Y70400D01*
X129674Y70415D01*
X129780Y70459D01*
X129871Y70529D01*
X129941Y70620D01*
X129985Y70726D01*
X130000Y70840D01*
X129985Y70954D01*
X129941Y71060D01*
X129871Y71151D01*
X129780Y71221D01*
X129674Y71265D01*
X129560Y71280D01*
D02*
G37*
G36*
X119340D02*
X119226Y71265D01*
X119120Y71221D01*
X119029Y71151D01*
X118959Y71060D01*
X118915Y70954D01*
X118900Y70840D01*
X118915Y70726D01*
X118959Y70620D01*
X119029Y70529D01*
X119120Y70459D01*
X119226Y70415D01*
X119340Y70400D01*
X119454Y70415D01*
X119560Y70459D01*
X119651Y70529D01*
X119721Y70620D01*
X119765Y70726D01*
X119780Y70840D01*
X119765Y70954D01*
X119721Y71060D01*
X119651Y71151D01*
X119560Y71221D01*
X119454Y71265D01*
X119340Y71280D01*
D02*
G37*
G36*
X147840Y68340D02*
X147726Y68325D01*
X147620Y68281D01*
X147529Y68211D01*
X147459Y68120D01*
X147415Y68014D01*
X147400Y67900D01*
X147415Y67786D01*
X147459Y67680D01*
X147529Y67589D01*
X147620Y67519D01*
X147726Y67475D01*
X147840Y67460D01*
X147954Y67475D01*
X148060Y67519D01*
X148151Y67589D01*
X148221Y67680D01*
X148265Y67786D01*
X148280Y67900D01*
X148265Y68014D01*
X148221Y68120D01*
X148151Y68211D01*
X148060Y68281D01*
X147954Y68325D01*
X147840Y68340D01*
D02*
G37*
G36*
X129720D02*
X129606Y68325D01*
X129500Y68281D01*
X129409Y68211D01*
X129339Y68120D01*
X129295Y68014D01*
X129280Y67900D01*
X129295Y67786D01*
X129339Y67680D01*
X129409Y67589D01*
X129500Y67519D01*
X129606Y67475D01*
X129720Y67460D01*
X129834Y67475D01*
X129940Y67519D01*
X130031Y67589D01*
X130101Y67680D01*
X130145Y67786D01*
X130160Y67900D01*
X130145Y68014D01*
X130101Y68120D01*
X130031Y68211D01*
X129940Y68281D01*
X129834Y68325D01*
X129720Y68340D01*
D02*
G37*
G36*
X158080D02*
X157966Y68325D01*
X157860Y68281D01*
X157769Y68211D01*
X157699Y68120D01*
X157655Y68014D01*
X157640Y67900D01*
X157655Y67786D01*
X157699Y67680D01*
X157769Y67589D01*
X157860Y67519D01*
X157966Y67475D01*
X158080Y67460D01*
X158194Y67475D01*
X158300Y67519D01*
X158391Y67589D01*
X158461Y67680D01*
X158505Y67786D01*
X158520Y67900D01*
X158505Y68014D01*
X158461Y68120D01*
X158391Y68211D01*
X158300Y68281D01*
X158194Y68325D01*
X158080Y68340D01*
D02*
G37*
G36*
X119500Y68360D02*
X119386Y68345D01*
X119280Y68301D01*
X119189Y68231D01*
X119119Y68140D01*
X119075Y68034D01*
X119060Y67920D01*
X119075Y67806D01*
X119119Y67700D01*
X119189Y67609D01*
X119280Y67539D01*
X119386Y67495D01*
X119500Y67480D01*
X119614Y67495D01*
X119720Y67539D01*
X119811Y67609D01*
X119881Y67700D01*
X119925Y67806D01*
X119940Y67920D01*
X119925Y68034D01*
X119881Y68140D01*
X119811Y68231D01*
X119720Y68301D01*
X119614Y68345D01*
X119500Y68360D01*
D02*
G37*
G36*
X176180Y68340D02*
X176066Y68325D01*
X175960Y68281D01*
X175869Y68211D01*
X175799Y68120D01*
X175755Y68014D01*
X175740Y67900D01*
X175755Y67786D01*
X175799Y67680D01*
X175869Y67589D01*
X175960Y67519D01*
X176066Y67475D01*
X176180Y67460D01*
X176294Y67475D01*
X176400Y67519D01*
X176491Y67589D01*
X176561Y67680D01*
X176605Y67786D01*
X176620Y67900D01*
X176605Y68014D01*
X176561Y68120D01*
X176491Y68211D01*
X176400Y68281D01*
X176294Y68325D01*
X176180Y68340D01*
D02*
G37*
G36*
X119340Y72280D02*
X119226Y72265D01*
X119120Y72221D01*
X119029Y72151D01*
X118959Y72060D01*
X118915Y71954D01*
X118900Y71840D01*
X118915Y71726D01*
X118959Y71620D01*
X119029Y71529D01*
X119120Y71459D01*
X119226Y71415D01*
X119340Y71400D01*
X119454Y71415D01*
X119560Y71459D01*
X119651Y71529D01*
X119721Y71620D01*
X119765Y71726D01*
X119780Y71840D01*
X119765Y71954D01*
X119721Y72060D01*
X119651Y72151D01*
X119560Y72221D01*
X119454Y72265D01*
X119340Y72280D01*
D02*
G37*
G36*
X101220D02*
X101106Y72265D01*
X101000Y72221D01*
X100909Y72151D01*
X100839Y72060D01*
X100795Y71954D01*
X100780Y71840D01*
X100795Y71726D01*
X100839Y71620D01*
X100909Y71529D01*
X101000Y71459D01*
X101106Y71415D01*
X101220Y71400D01*
X101334Y71415D01*
X101440Y71459D01*
X101531Y71529D01*
X101601Y71620D01*
X101645Y71726D01*
X101660Y71840D01*
X101645Y71954D01*
X101601Y72060D01*
X101531Y72151D01*
X101440Y72221D01*
X101334Y72265D01*
X101220Y72280D01*
D02*
G37*
G36*
X129560D02*
X129446Y72265D01*
X129340Y72221D01*
X129249Y72151D01*
X129179Y72060D01*
X129135Y71954D01*
X129120Y71840D01*
X129135Y71726D01*
X129179Y71620D01*
X129249Y71529D01*
X129340Y71459D01*
X129446Y71415D01*
X129560Y71400D01*
X129674Y71415D01*
X129780Y71459D01*
X129871Y71529D01*
X129941Y71620D01*
X129985Y71726D01*
X130000Y71840D01*
X129985Y71954D01*
X129941Y72060D01*
X129871Y72151D01*
X129780Y72221D01*
X129674Y72265D01*
X129560Y72280D01*
D02*
G37*
G36*
X157920D02*
X157806Y72265D01*
X157700Y72221D01*
X157609Y72151D01*
X157539Y72060D01*
X157495Y71954D01*
X157480Y71840D01*
X157495Y71726D01*
X157539Y71620D01*
X157609Y71529D01*
X157700Y71459D01*
X157806Y71415D01*
X157920Y71400D01*
X158034Y71415D01*
X158140Y71459D01*
X158231Y71529D01*
X158301Y71620D01*
X158345Y71726D01*
X158360Y71840D01*
X158345Y71954D01*
X158301Y72060D01*
X158231Y72151D01*
X158140Y72221D01*
X158034Y72265D01*
X157920Y72280D01*
D02*
G37*
G36*
X147680D02*
X147566Y72265D01*
X147460Y72221D01*
X147369Y72151D01*
X147299Y72060D01*
X147255Y71954D01*
X147240Y71840D01*
X147255Y71726D01*
X147299Y71620D01*
X147369Y71529D01*
X147460Y71459D01*
X147566Y71415D01*
X147680Y71400D01*
X147794Y71415D01*
X147900Y71459D01*
X147991Y71529D01*
X148061Y71620D01*
X148105Y71726D01*
X148120Y71840D01*
X148105Y71954D01*
X148061Y72060D01*
X147991Y72151D01*
X147900Y72221D01*
X147794Y72265D01*
X147680Y72280D01*
D02*
G37*
G36*
X157920Y71280D02*
X157806Y71265D01*
X157700Y71221D01*
X157609Y71151D01*
X157539Y71060D01*
X157495Y70954D01*
X157480Y70840D01*
X157495Y70726D01*
X157539Y70620D01*
X157609Y70529D01*
X157700Y70459D01*
X157806Y70415D01*
X157920Y70400D01*
X158034Y70415D01*
X158140Y70459D01*
X158231Y70529D01*
X158301Y70620D01*
X158345Y70726D01*
X158360Y70840D01*
X158345Y70954D01*
X158301Y71060D01*
X158231Y71151D01*
X158140Y71221D01*
X158034Y71265D01*
X157920Y71280D01*
D02*
G37*
G36*
X147680D02*
X147566Y71265D01*
X147460Y71221D01*
X147369Y71151D01*
X147299Y71060D01*
X147255Y70954D01*
X147240Y70840D01*
X147255Y70726D01*
X147299Y70620D01*
X147369Y70529D01*
X147460Y70459D01*
X147566Y70415D01*
X147680Y70400D01*
X147794Y70415D01*
X147900Y70459D01*
X147991Y70529D01*
X148061Y70620D01*
X148105Y70726D01*
X148120Y70840D01*
X148105Y70954D01*
X148061Y71060D01*
X147991Y71151D01*
X147900Y71221D01*
X147794Y71265D01*
X147680Y71280D01*
D02*
G37*
G36*
X176020D02*
X175906Y71265D01*
X175800Y71221D01*
X175709Y71151D01*
X175639Y71060D01*
X175595Y70954D01*
X175580Y70840D01*
X175595Y70726D01*
X175639Y70620D01*
X175709Y70529D01*
X175800Y70459D01*
X175906Y70415D01*
X176020Y70400D01*
X176134Y70415D01*
X176240Y70459D01*
X176331Y70529D01*
X176401Y70620D01*
X176445Y70726D01*
X176460Y70840D01*
X176445Y70954D01*
X176401Y71060D01*
X176331Y71151D01*
X176240Y71221D01*
X176134Y71265D01*
X176020Y71280D01*
D02*
G37*
G36*
X90980Y72280D02*
X90866Y72265D01*
X90760Y72221D01*
X90669Y72151D01*
X90599Y72060D01*
X90555Y71954D01*
X90540Y71840D01*
X90555Y71726D01*
X90599Y71620D01*
X90669Y71529D01*
X90760Y71459D01*
X90866Y71415D01*
X90980Y71400D01*
X91094Y71415D01*
X91200Y71459D01*
X91291Y71529D01*
X91361Y71620D01*
X91405Y71726D01*
X91420Y71840D01*
X91405Y71954D01*
X91361Y72060D01*
X91291Y72151D01*
X91200Y72221D01*
X91094Y72265D01*
X90980Y72280D01*
D02*
G37*
G36*
X72880D02*
X72766Y72265D01*
X72660Y72221D01*
X72569Y72151D01*
X72499Y72060D01*
X72455Y71954D01*
X72440Y71840D01*
X72455Y71726D01*
X72499Y71620D01*
X72569Y71529D01*
X72660Y71459D01*
X72766Y71415D01*
X72880Y71400D01*
X72994Y71415D01*
X73100Y71459D01*
X73191Y71529D01*
X73261Y71620D01*
X73305Y71726D01*
X73320Y71840D01*
X73305Y71954D01*
X73261Y72060D01*
X73191Y72151D01*
X73100Y72221D01*
X72994Y72265D01*
X72880Y72280D01*
D02*
G37*
G36*
X176340Y64400D02*
X176226Y64385D01*
X176120Y64341D01*
X176029Y64271D01*
X175959Y64180D01*
X175915Y64074D01*
X175900Y63960D01*
X175915Y63846D01*
X175959Y63740D01*
X176029Y63649D01*
X176120Y63579D01*
X176226Y63535D01*
X176340Y63520D01*
X176454Y63535D01*
X176560Y63579D01*
X176651Y63649D01*
X176721Y63740D01*
X176765Y63846D01*
X176780Y63960D01*
X176765Y64074D01*
X176721Y64180D01*
X176651Y64271D01*
X176560Y64341D01*
X176454Y64385D01*
X176340Y64400D01*
D02*
G37*
G36*
X148000D02*
X147886Y64385D01*
X147780Y64341D01*
X147689Y64271D01*
X147619Y64180D01*
X147575Y64074D01*
X147560Y63960D01*
X147575Y63846D01*
X147619Y63740D01*
X147689Y63649D01*
X147780Y63579D01*
X147886Y63535D01*
X148000Y63520D01*
X148114Y63535D01*
X148220Y63579D01*
X148311Y63649D01*
X148381Y63740D01*
X148425Y63846D01*
X148440Y63960D01*
X148425Y64074D01*
X148381Y64180D01*
X148311Y64271D01*
X148220Y64341D01*
X148114Y64385D01*
X148000Y64400D01*
D02*
G37*
G36*
X158240Y64410D02*
X158126Y64395D01*
X158020Y64351D01*
X157929Y64281D01*
X157859Y64190D01*
X157815Y64084D01*
X157800Y63970D01*
X157815Y63856D01*
X157859Y63750D01*
X157929Y63659D01*
X158020Y63589D01*
X158126Y63545D01*
X158240Y63530D01*
X158354Y63545D01*
X158460Y63589D01*
X158551Y63659D01*
X158621Y63750D01*
X158665Y63856D01*
X158680Y63970D01*
X158665Y64084D01*
X158621Y64190D01*
X158551Y64281D01*
X158460Y64351D01*
X158354Y64395D01*
X158240Y64410D01*
D02*
G37*
G36*
X73040Y67340D02*
X72926Y67325D01*
X72820Y67281D01*
X72729Y67211D01*
X72659Y67120D01*
X72615Y67014D01*
X72600Y66900D01*
X72615Y66786D01*
X72659Y66680D01*
X72729Y66589D01*
X72820Y66519D01*
X72926Y66475D01*
X73040Y66460D01*
X73154Y66475D01*
X73260Y66519D01*
X73351Y66589D01*
X73421Y66680D01*
X73465Y66786D01*
X73480Y66900D01*
X73465Y67014D01*
X73421Y67120D01*
X73351Y67211D01*
X73260Y67281D01*
X73154Y67325D01*
X73040Y67340D01*
D02*
G37*
G36*
X101540Y64420D02*
X101426Y64405D01*
X101320Y64361D01*
X101229Y64291D01*
X101159Y64200D01*
X101115Y64094D01*
X101100Y63980D01*
X101115Y63866D01*
X101159Y63760D01*
X101229Y63669D01*
X101320Y63599D01*
X101426Y63555D01*
X101540Y63540D01*
X101654Y63555D01*
X101760Y63599D01*
X101851Y63669D01*
X101921Y63760D01*
X101965Y63866D01*
X101980Y63980D01*
X101965Y64094D01*
X101921Y64200D01*
X101851Y64291D01*
X101760Y64361D01*
X101654Y64405D01*
X101540Y64420D01*
D02*
G37*
G36*
X73200Y64400D02*
X73086Y64385D01*
X72980Y64341D01*
X72889Y64271D01*
X72819Y64180D01*
X72775Y64074D01*
X72760Y63960D01*
X72775Y63846D01*
X72819Y63740D01*
X72889Y63649D01*
X72980Y63579D01*
X73086Y63535D01*
X73200Y63520D01*
X73314Y63535D01*
X73420Y63579D01*
X73511Y63649D01*
X73581Y63740D01*
X73625Y63846D01*
X73640Y63960D01*
X73625Y64074D01*
X73581Y64180D01*
X73511Y64271D01*
X73420Y64341D01*
X73314Y64385D01*
X73200Y64400D01*
D02*
G37*
G36*
X165940Y66254D02*
X165712Y66237D01*
X165491Y66183D01*
X165280Y66096D01*
X165085Y65977D01*
X164912Y65828D01*
X164763Y65655D01*
X164644Y65460D01*
X164557Y65249D01*
X164503Y65028D01*
X164486Y64800D01*
X164503Y64572D01*
X164557Y64351D01*
X164644Y64140D01*
X164763Y63945D01*
X164912Y63772D01*
X165085Y63623D01*
X165280Y63504D01*
X165491Y63417D01*
X165712Y63363D01*
X165940Y63346D01*
X166168Y63363D01*
X166389Y63417D01*
X166600Y63504D01*
X166795Y63623D01*
X166968Y63772D01*
X167117Y63945D01*
X167236Y64140D01*
X167323Y64351D01*
X167377Y64572D01*
X167394Y64800D01*
X167377Y65028D01*
X167323Y65249D01*
X167236Y65460D01*
X167117Y65655D01*
X166968Y65828D01*
X166795Y65977D01*
X166600Y66096D01*
X166389Y66183D01*
X166168Y66237D01*
X165940Y66254D01*
D02*
G37*
G36*
X91300Y64400D02*
X91186Y64385D01*
X91080Y64341D01*
X90989Y64271D01*
X90919Y64180D01*
X90875Y64074D01*
X90860Y63960D01*
X90875Y63846D01*
X90919Y63740D01*
X90989Y63649D01*
X91080Y63579D01*
X91186Y63535D01*
X91300Y63520D01*
X91414Y63535D01*
X91520Y63579D01*
X91611Y63649D01*
X91681Y63740D01*
X91725Y63846D01*
X91740Y63960D01*
X91725Y64074D01*
X91681Y64180D01*
X91611Y64271D01*
X91520Y64341D01*
X91414Y64385D01*
X91300Y64400D01*
D02*
G37*
G36*
X129880D02*
X129766Y64385D01*
X129660Y64341D01*
X129569Y64271D01*
X129499Y64180D01*
X129455Y64074D01*
X129440Y63960D01*
X129455Y63846D01*
X129499Y63740D01*
X129569Y63649D01*
X129660Y63579D01*
X129766Y63535D01*
X129880Y63520D01*
X129994Y63535D01*
X130100Y63579D01*
X130191Y63649D01*
X130261Y63740D01*
X130305Y63846D01*
X130320Y63960D01*
X130305Y64074D01*
X130261Y64180D01*
X130191Y64271D01*
X130100Y64341D01*
X129994Y64385D01*
X129880Y64400D01*
D02*
G37*
G36*
X119640D02*
X119526Y64385D01*
X119420Y64341D01*
X119329Y64271D01*
X119259Y64180D01*
X119215Y64074D01*
X119200Y63960D01*
X119215Y63846D01*
X119259Y63740D01*
X119329Y63649D01*
X119420Y63579D01*
X119526Y63535D01*
X119640Y63520D01*
X119754Y63535D01*
X119860Y63579D01*
X119951Y63649D01*
X120021Y63740D01*
X120065Y63846D01*
X120080Y63960D01*
X120065Y64074D01*
X120021Y64180D01*
X119951Y64271D01*
X119860Y64341D01*
X119754Y64385D01*
X119640Y64400D01*
D02*
G37*
G36*
X119500Y67360D02*
X119386Y67345D01*
X119280Y67301D01*
X119189Y67231D01*
X119119Y67140D01*
X119075Y67034D01*
X119060Y66920D01*
X119075Y66806D01*
X119119Y66700D01*
X119189Y66609D01*
X119280Y66539D01*
X119386Y66495D01*
X119500Y66480D01*
X119614Y66495D01*
X119720Y66539D01*
X119811Y66609D01*
X119881Y66700D01*
X119925Y66806D01*
X119940Y66920D01*
X119925Y67034D01*
X119881Y67140D01*
X119811Y67231D01*
X119720Y67301D01*
X119614Y67345D01*
X119500Y67360D01*
D02*
G37*
G36*
X176180Y67340D02*
X176066Y67325D01*
X175960Y67281D01*
X175869Y67211D01*
X175799Y67120D01*
X175755Y67014D01*
X175740Y66900D01*
X175755Y66786D01*
X175799Y66680D01*
X175869Y66589D01*
X175960Y66519D01*
X176066Y66475D01*
X176180Y66460D01*
X176294Y66475D01*
X176400Y66519D01*
X176491Y66589D01*
X176561Y66680D01*
X176605Y66786D01*
X176620Y66900D01*
X176605Y67014D01*
X176561Y67120D01*
X176491Y67211D01*
X176400Y67281D01*
X176294Y67325D01*
X176180Y67340D01*
D02*
G37*
G36*
X73040Y68340D02*
X72926Y68325D01*
X72820Y68281D01*
X72729Y68211D01*
X72659Y68120D01*
X72615Y68014D01*
X72600Y67900D01*
X72615Y67786D01*
X72659Y67680D01*
X72729Y67589D01*
X72820Y67519D01*
X72926Y67475D01*
X73040Y67460D01*
X73154Y67475D01*
X73260Y67519D01*
X73351Y67589D01*
X73421Y67680D01*
X73465Y67786D01*
X73480Y67900D01*
X73465Y68014D01*
X73421Y68120D01*
X73351Y68211D01*
X73260Y68281D01*
X73154Y68325D01*
X73040Y68340D01*
D02*
G37*
G36*
X101380D02*
X101266Y68325D01*
X101160Y68281D01*
X101069Y68211D01*
X100999Y68120D01*
X100955Y68014D01*
X100940Y67900D01*
X100955Y67786D01*
X100999Y67680D01*
X101069Y67589D01*
X101160Y67519D01*
X101266Y67475D01*
X101380Y67460D01*
X101494Y67475D01*
X101600Y67519D01*
X101691Y67589D01*
X101761Y67680D01*
X101805Y67786D01*
X101820Y67900D01*
X101805Y68014D01*
X101761Y68120D01*
X101691Y68211D01*
X101600Y68281D01*
X101494Y68325D01*
X101380Y68340D01*
D02*
G37*
G36*
X91140D02*
X91026Y68325D01*
X90920Y68281D01*
X90829Y68211D01*
X90759Y68120D01*
X90715Y68014D01*
X90700Y67900D01*
X90715Y67786D01*
X90759Y67680D01*
X90829Y67589D01*
X90920Y67519D01*
X91026Y67475D01*
X91140Y67460D01*
X91254Y67475D01*
X91360Y67519D01*
X91451Y67589D01*
X91521Y67680D01*
X91565Y67786D01*
X91580Y67900D01*
X91565Y68014D01*
X91521Y68120D01*
X91451Y68211D01*
X91360Y68281D01*
X91254Y68325D01*
X91140Y68340D01*
D02*
G37*
G36*
X101380Y67340D02*
X101266Y67325D01*
X101160Y67281D01*
X101069Y67211D01*
X100999Y67120D01*
X100955Y67014D01*
X100940Y66900D01*
X100955Y66786D01*
X100999Y66680D01*
X101069Y66589D01*
X101160Y66519D01*
X101266Y66475D01*
X101380Y66460D01*
X101494Y66475D01*
X101600Y66519D01*
X101691Y66589D01*
X101761Y66680D01*
X101805Y66786D01*
X101820Y66900D01*
X101805Y67014D01*
X101761Y67120D01*
X101691Y67211D01*
X101600Y67281D01*
X101494Y67325D01*
X101380Y67340D01*
D02*
G37*
G36*
X91140D02*
X91026Y67325D01*
X90920Y67281D01*
X90829Y67211D01*
X90759Y67120D01*
X90715Y67014D01*
X90700Y66900D01*
X90715Y66786D01*
X90759Y66680D01*
X90829Y66589D01*
X90920Y66519D01*
X91026Y66475D01*
X91140Y66460D01*
X91254Y66475D01*
X91360Y66519D01*
X91451Y66589D01*
X91521Y66680D01*
X91565Y66786D01*
X91580Y66900D01*
X91565Y67014D01*
X91521Y67120D01*
X91451Y67211D01*
X91360Y67281D01*
X91254Y67325D01*
X91140Y67340D01*
D02*
G37*
G36*
X129720D02*
X129606Y67325D01*
X129500Y67281D01*
X129409Y67211D01*
X129339Y67120D01*
X129295Y67014D01*
X129280Y66900D01*
X129295Y66786D01*
X129339Y66680D01*
X129409Y66589D01*
X129500Y66519D01*
X129606Y66475D01*
X129720Y66460D01*
X129834Y66475D01*
X129940Y66519D01*
X130031Y66589D01*
X130101Y66680D01*
X130145Y66786D01*
X130160Y66900D01*
X130145Y67014D01*
X130101Y67120D01*
X130031Y67211D01*
X129940Y67281D01*
X129834Y67325D01*
X129720Y67340D01*
D02*
G37*
G36*
X158080D02*
X157966Y67325D01*
X157860Y67281D01*
X157769Y67211D01*
X157699Y67120D01*
X157655Y67014D01*
X157640Y66900D01*
X157655Y66786D01*
X157699Y66680D01*
X157769Y66589D01*
X157860Y66519D01*
X157966Y66475D01*
X158080Y66460D01*
X158194Y66475D01*
X158300Y66519D01*
X158391Y66589D01*
X158461Y66680D01*
X158505Y66786D01*
X158520Y66900D01*
X158505Y67014D01*
X158461Y67120D01*
X158391Y67211D01*
X158300Y67281D01*
X158194Y67325D01*
X158080Y67340D01*
D02*
G37*
G36*
X147840D02*
X147726Y67325D01*
X147620Y67281D01*
X147529Y67211D01*
X147459Y67120D01*
X147415Y67014D01*
X147400Y66900D01*
X147415Y66786D01*
X147459Y66680D01*
X147529Y66589D01*
X147620Y66519D01*
X147726Y66475D01*
X147840Y66460D01*
X147954Y66475D01*
X148060Y66519D01*
X148151Y66589D01*
X148221Y66680D01*
X148265Y66786D01*
X148280Y66900D01*
X148265Y67014D01*
X148221Y67120D01*
X148151Y67211D01*
X148060Y67281D01*
X147954Y67325D01*
X147840Y67340D01*
D02*
G37*
G36*
X176020Y72280D02*
X175906Y72265D01*
X175800Y72221D01*
X175709Y72151D01*
X175639Y72060D01*
X175595Y71954D01*
X175580Y71840D01*
X175595Y71726D01*
X175639Y71620D01*
X175709Y71529D01*
X175800Y71459D01*
X175906Y71415D01*
X176020Y71400D01*
X176134Y71415D01*
X176240Y71459D01*
X176331Y71529D01*
X176401Y71620D01*
X176445Y71726D01*
X176460Y71840D01*
X176445Y71954D01*
X176401Y72060D01*
X176331Y72151D01*
X176240Y72221D01*
X176134Y72265D01*
X176020Y72280D01*
D02*
G37*
G36*
X81700Y77180D02*
X81586Y77165D01*
X81480Y77121D01*
X81389Y77051D01*
X81319Y76960D01*
X81275Y76854D01*
X81260Y76740D01*
X81275Y76626D01*
X81319Y76520D01*
X81389Y76429D01*
X81480Y76359D01*
X81586Y76315D01*
X81700Y76300D01*
X81814Y76315D01*
X81920Y76359D01*
X82011Y76429D01*
X82081Y76520D01*
X82125Y76626D01*
X82140Y76740D01*
X82125Y76854D01*
X82081Y76960D01*
X82011Y77051D01*
X81920Y77121D01*
X81814Y77165D01*
X81700Y77180D01*
D02*
G37*
G36*
X78160D02*
X78046Y77165D01*
X77940Y77121D01*
X77849Y77051D01*
X77779Y76960D01*
X77735Y76854D01*
X77720Y76740D01*
X77735Y76626D01*
X77779Y76520D01*
X77849Y76429D01*
X77940Y76359D01*
X78046Y76315D01*
X78160Y76300D01*
X78274Y76315D01*
X78380Y76359D01*
X78471Y76429D01*
X78541Y76520D01*
X78585Y76626D01*
X78600Y76740D01*
X78585Y76854D01*
X78541Y76960D01*
X78471Y77051D01*
X78380Y77121D01*
X78274Y77165D01*
X78160Y77180D01*
D02*
G37*
G36*
X85240D02*
X85126Y77165D01*
X85020Y77121D01*
X84929Y77051D01*
X84859Y76960D01*
X84815Y76854D01*
X84800Y76740D01*
X84815Y76626D01*
X84859Y76520D01*
X84929Y76429D01*
X85020Y76359D01*
X85126Y76315D01*
X85240Y76300D01*
X85354Y76315D01*
X85460Y76359D01*
X85551Y76429D01*
X85621Y76520D01*
X85665Y76626D01*
X85680Y76740D01*
X85665Y76854D01*
X85621Y76960D01*
X85551Y77051D01*
X85460Y77121D01*
X85354Y77165D01*
X85240Y77180D01*
D02*
G37*
G36*
X102960D02*
X102846Y77165D01*
X102740Y77121D01*
X102649Y77051D01*
X102579Y76960D01*
X102535Y76854D01*
X102520Y76740D01*
X102535Y76626D01*
X102579Y76520D01*
X102649Y76429D01*
X102740Y76359D01*
X102846Y76315D01*
X102960Y76300D01*
X103074Y76315D01*
X103180Y76359D01*
X103271Y76429D01*
X103341Y76520D01*
X103385Y76626D01*
X103400Y76740D01*
X103385Y76854D01*
X103341Y76960D01*
X103271Y77051D01*
X103180Y77121D01*
X103074Y77165D01*
X102960Y77180D01*
D02*
G37*
G36*
X88780D02*
X88666Y77165D01*
X88560Y77121D01*
X88469Y77051D01*
X88399Y76960D01*
X88355Y76854D01*
X88340Y76740D01*
X88355Y76626D01*
X88399Y76520D01*
X88469Y76429D01*
X88560Y76359D01*
X88666Y76315D01*
X88780Y76300D01*
X88894Y76315D01*
X89000Y76359D01*
X89091Y76429D01*
X89161Y76520D01*
X89205Y76626D01*
X89220Y76740D01*
X89205Y76854D01*
X89161Y76960D01*
X89091Y77051D01*
X89000Y77121D01*
X88894Y77165D01*
X88780Y77180D01*
D02*
G37*
G36*
X175860Y76220D02*
X175746Y76205D01*
X175640Y76161D01*
X175549Y76091D01*
X175479Y76000D01*
X175435Y75894D01*
X175420Y75780D01*
X175435Y75666D01*
X175479Y75560D01*
X175549Y75469D01*
X175640Y75399D01*
X175746Y75355D01*
X175860Y75340D01*
X175974Y75355D01*
X176080Y75399D01*
X176171Y75469D01*
X176241Y75560D01*
X176285Y75666D01*
X176300Y75780D01*
X176285Y75894D01*
X176241Y76000D01*
X176171Y76091D01*
X176080Y76161D01*
X175974Y76205D01*
X175860Y76220D01*
D02*
G37*
G36*
X157750D02*
X157636Y76205D01*
X157530Y76161D01*
X157439Y76091D01*
X157369Y76000D01*
X157325Y75894D01*
X157310Y75780D01*
X157325Y75666D01*
X157369Y75560D01*
X157439Y75469D01*
X157530Y75399D01*
X157636Y75355D01*
X157750Y75340D01*
X157864Y75355D01*
X157970Y75399D01*
X158061Y75469D01*
X158131Y75560D01*
X158175Y75666D01*
X158190Y75780D01*
X158175Y75894D01*
X158131Y76000D01*
X158061Y76091D01*
X157970Y76161D01*
X157864Y76205D01*
X157750Y76220D01*
D02*
G37*
G36*
X198250Y76650D02*
X198121Y76633D01*
X198000Y76583D01*
X197897Y76503D01*
X197817Y76400D01*
X197767Y76279D01*
X197750Y76150D01*
X197767Y76021D01*
X197817Y75900D01*
X197897Y75797D01*
X198000Y75717D01*
X198121Y75667D01*
X198250Y75650D01*
X198379Y75667D01*
X198500Y75717D01*
X198603Y75797D01*
X198683Y75900D01*
X198733Y76021D01*
X198750Y76150D01*
X198733Y76279D01*
X198683Y76400D01*
X198603Y76503D01*
X198500Y76583D01*
X198379Y76633D01*
X198250Y76650D01*
D02*
G37*
G36*
X74600Y77180D02*
X74486Y77165D01*
X74380Y77121D01*
X74289Y77051D01*
X74219Y76960D01*
X74175Y76854D01*
X74160Y76740D01*
X74175Y76626D01*
X74219Y76520D01*
X74289Y76429D01*
X74380Y76359D01*
X74486Y76315D01*
X74600Y76300D01*
X74714Y76315D01*
X74820Y76359D01*
X74911Y76429D01*
X74981Y76520D01*
X75025Y76626D01*
X75040Y76740D01*
X75025Y76854D01*
X74981Y76960D01*
X74911Y77051D01*
X74820Y77121D01*
X74714Y77165D01*
X74600Y77180D01*
D02*
G37*
G36*
X197250Y77150D02*
X197121Y77133D01*
X197000Y77083D01*
X196897Y77003D01*
X196817Y76900D01*
X196767Y76779D01*
X196750Y76650D01*
X196767Y76521D01*
X196817Y76400D01*
X196897Y76297D01*
X197000Y76217D01*
X197121Y76167D01*
X197250Y76150D01*
X197379Y76167D01*
X197500Y76217D01*
X197603Y76297D01*
X197683Y76400D01*
X197733Y76521D01*
X197750Y76650D01*
X197733Y76779D01*
X197683Y76900D01*
X197603Y77003D01*
X197500Y77083D01*
X197379Y77133D01*
X197250Y77150D01*
D02*
G37*
G36*
X141920Y77180D02*
X141806Y77165D01*
X141700Y77121D01*
X141609Y77051D01*
X141539Y76960D01*
X141495Y76854D01*
X141480Y76740D01*
X141495Y76626D01*
X141539Y76520D01*
X141609Y76429D01*
X141700Y76359D01*
X141806Y76315D01*
X141920Y76300D01*
X142034Y76315D01*
X142140Y76359D01*
X142231Y76429D01*
X142301Y76520D01*
X142345Y76626D01*
X142360Y76740D01*
X142345Y76854D01*
X142301Y76960D01*
X142231Y77051D01*
X142140Y77121D01*
X142034Y77165D01*
X141920Y77180D01*
D02*
G37*
G36*
X138400D02*
X138286Y77165D01*
X138180Y77121D01*
X138089Y77051D01*
X138019Y76960D01*
X137975Y76854D01*
X137960Y76740D01*
X137975Y76626D01*
X138019Y76520D01*
X138089Y76429D01*
X138180Y76359D01*
X138286Y76315D01*
X138400Y76300D01*
X138514Y76315D01*
X138620Y76359D01*
X138711Y76429D01*
X138781Y76520D01*
X138825Y76626D01*
X138840Y76740D01*
X138825Y76854D01*
X138781Y76960D01*
X138711Y77051D01*
X138620Y77121D01*
X138514Y77165D01*
X138400Y77180D01*
D02*
G37*
G36*
X145480D02*
X145366Y77165D01*
X145260Y77121D01*
X145169Y77051D01*
X145099Y76960D01*
X145055Y76854D01*
X145040Y76740D01*
X145055Y76626D01*
X145099Y76520D01*
X145169Y76429D01*
X145260Y76359D01*
X145366Y76315D01*
X145480Y76300D01*
X145594Y76315D01*
X145700Y76359D01*
X145791Y76429D01*
X145861Y76520D01*
X145905Y76626D01*
X145920Y76740D01*
X145905Y76854D01*
X145861Y76960D01*
X145791Y77051D01*
X145700Y77121D01*
X145594Y77165D01*
X145480Y77180D01*
D02*
G37*
G36*
X166720D02*
X166606Y77165D01*
X166500Y77121D01*
X166409Y77051D01*
X166339Y76960D01*
X166295Y76854D01*
X166280Y76740D01*
X166295Y76626D01*
X166339Y76520D01*
X166409Y76429D01*
X166500Y76359D01*
X166606Y76315D01*
X166720Y76300D01*
X166834Y76315D01*
X166940Y76359D01*
X167031Y76429D01*
X167101Y76520D01*
X167145Y76626D01*
X167160Y76740D01*
X167145Y76854D01*
X167101Y76960D01*
X167031Y77051D01*
X166940Y77121D01*
X166834Y77165D01*
X166720Y77180D01*
D02*
G37*
G36*
X159640D02*
X159526Y77165D01*
X159420Y77121D01*
X159329Y77051D01*
X159259Y76960D01*
X159215Y76854D01*
X159200Y76740D01*
X159215Y76626D01*
X159259Y76520D01*
X159329Y76429D01*
X159420Y76359D01*
X159526Y76315D01*
X159640Y76300D01*
X159754Y76315D01*
X159860Y76359D01*
X159951Y76429D01*
X160021Y76520D01*
X160065Y76626D01*
X160080Y76740D01*
X160065Y76854D01*
X160021Y76960D01*
X159951Y77051D01*
X159860Y77121D01*
X159754Y77165D01*
X159640Y77180D01*
D02*
G37*
G36*
X110040D02*
X109926Y77165D01*
X109820Y77121D01*
X109729Y77051D01*
X109659Y76960D01*
X109615Y76854D01*
X109600Y76740D01*
X109615Y76626D01*
X109659Y76520D01*
X109729Y76429D01*
X109820Y76359D01*
X109926Y76315D01*
X110040Y76300D01*
X110154Y76315D01*
X110260Y76359D01*
X110351Y76429D01*
X110421Y76520D01*
X110465Y76626D01*
X110480Y76740D01*
X110465Y76854D01*
X110421Y76960D01*
X110351Y77051D01*
X110260Y77121D01*
X110154Y77165D01*
X110040Y77180D01*
D02*
G37*
G36*
X106500D02*
X106386Y77165D01*
X106280Y77121D01*
X106189Y77051D01*
X106119Y76960D01*
X106075Y76854D01*
X106060Y76740D01*
X106075Y76626D01*
X106119Y76520D01*
X106189Y76429D01*
X106280Y76359D01*
X106386Y76315D01*
X106500Y76300D01*
X106614Y76315D01*
X106720Y76359D01*
X106811Y76429D01*
X106881Y76520D01*
X106925Y76626D01*
X106940Y76740D01*
X106925Y76854D01*
X106881Y76960D01*
X106811Y77051D01*
X106720Y77121D01*
X106614Y77165D01*
X106500Y77180D01*
D02*
G37*
G36*
X117120D02*
X117006Y77165D01*
X116900Y77121D01*
X116809Y77051D01*
X116739Y76960D01*
X116695Y76854D01*
X116680Y76740D01*
X116695Y76626D01*
X116739Y76520D01*
X116809Y76429D01*
X116900Y76359D01*
X117006Y76315D01*
X117120Y76300D01*
X117234Y76315D01*
X117340Y76359D01*
X117431Y76429D01*
X117501Y76520D01*
X117545Y76626D01*
X117560Y76740D01*
X117545Y76854D01*
X117501Y76960D01*
X117431Y77051D01*
X117340Y77121D01*
X117234Y77165D01*
X117120Y77180D01*
D02*
G37*
G36*
X134840D02*
X134726Y77165D01*
X134620Y77121D01*
X134529Y77051D01*
X134459Y76960D01*
X134415Y76854D01*
X134400Y76740D01*
X134415Y76626D01*
X134459Y76520D01*
X134529Y76429D01*
X134620Y76359D01*
X134726Y76315D01*
X134840Y76300D01*
X134954Y76315D01*
X135060Y76359D01*
X135151Y76429D01*
X135221Y76520D01*
X135265Y76626D01*
X135280Y76740D01*
X135265Y76854D01*
X135221Y76960D01*
X135151Y77051D01*
X135060Y77121D01*
X134954Y77165D01*
X134840Y77180D01*
D02*
G37*
G36*
X131300D02*
X131186Y77165D01*
X131080Y77121D01*
X130989Y77051D01*
X130919Y76960D01*
X130875Y76854D01*
X130860Y76740D01*
X130875Y76626D01*
X130919Y76520D01*
X130989Y76429D01*
X131080Y76359D01*
X131186Y76315D01*
X131300Y76300D01*
X131414Y76315D01*
X131520Y76359D01*
X131611Y76429D01*
X131681Y76520D01*
X131725Y76626D01*
X131740Y76740D01*
X131725Y76854D01*
X131681Y76960D01*
X131611Y77051D01*
X131520Y77121D01*
X131414Y77165D01*
X131300Y77180D01*
D02*
G37*
G36*
X90820Y75220D02*
X90706Y75205D01*
X90600Y75161D01*
X90509Y75091D01*
X90439Y75000D01*
X90395Y74894D01*
X90380Y74780D01*
X90395Y74666D01*
X90439Y74560D01*
X90509Y74469D01*
X90600Y74399D01*
X90706Y74355D01*
X90820Y74340D01*
X90934Y74355D01*
X91040Y74399D01*
X91131Y74469D01*
X91201Y74560D01*
X91245Y74666D01*
X91260Y74780D01*
X91245Y74894D01*
X91201Y75000D01*
X91131Y75091D01*
X91040Y75161D01*
X90934Y75205D01*
X90820Y75220D01*
D02*
G37*
G36*
X72720D02*
X72606Y75205D01*
X72500Y75161D01*
X72409Y75091D01*
X72339Y75000D01*
X72295Y74894D01*
X72280Y74780D01*
X72295Y74666D01*
X72339Y74560D01*
X72409Y74469D01*
X72500Y74399D01*
X72606Y74355D01*
X72720Y74340D01*
X72834Y74355D01*
X72940Y74399D01*
X73031Y74469D01*
X73101Y74560D01*
X73145Y74666D01*
X73160Y74780D01*
X73145Y74894D01*
X73101Y75000D01*
X73031Y75091D01*
X72940Y75161D01*
X72834Y75205D01*
X72720Y75220D01*
D02*
G37*
G36*
X101060D02*
X100946Y75205D01*
X100840Y75161D01*
X100749Y75091D01*
X100679Y75000D01*
X100635Y74894D01*
X100620Y74780D01*
X100635Y74666D01*
X100679Y74560D01*
X100749Y74469D01*
X100840Y74399D01*
X100946Y74355D01*
X101060Y74340D01*
X101174Y74355D01*
X101280Y74399D01*
X101371Y74469D01*
X101441Y74560D01*
X101485Y74666D01*
X101500Y74780D01*
X101485Y74894D01*
X101441Y75000D01*
X101371Y75091D01*
X101280Y75161D01*
X101174Y75205D01*
X101060Y75220D01*
D02*
G37*
G36*
X129420D02*
X129306Y75205D01*
X129200Y75161D01*
X129109Y75091D01*
X129039Y75000D01*
X128995Y74894D01*
X128980Y74780D01*
X128995Y74666D01*
X129039Y74560D01*
X129109Y74469D01*
X129200Y74399D01*
X129306Y74355D01*
X129420Y74340D01*
X129534Y74355D01*
X129640Y74399D01*
X129731Y74469D01*
X129801Y74560D01*
X129845Y74666D01*
X129860Y74780D01*
X129845Y74894D01*
X129801Y75000D01*
X129731Y75091D01*
X129640Y75161D01*
X129534Y75205D01*
X129420Y75220D01*
D02*
G37*
G36*
X119160D02*
X119046Y75205D01*
X118940Y75161D01*
X118849Y75091D01*
X118779Y75000D01*
X118735Y74894D01*
X118720Y74780D01*
X118735Y74666D01*
X118779Y74560D01*
X118849Y74469D01*
X118940Y74399D01*
X119046Y74355D01*
X119160Y74340D01*
X119274Y74355D01*
X119380Y74399D01*
X119471Y74469D01*
X119541Y74560D01*
X119585Y74666D01*
X119600Y74780D01*
X119585Y74894D01*
X119541Y75000D01*
X119471Y75091D01*
X119380Y75161D01*
X119274Y75205D01*
X119160Y75220D01*
D02*
G37*
G36*
X186900Y72627D02*
X183050D01*
X183044Y72627D01*
X183039Y72627D01*
X183009Y72622D01*
X182978Y72618D01*
X182973Y72616D01*
X182968Y72615D01*
X182940Y72602D01*
X182911Y72590D01*
X182907Y72587D01*
X182902Y72584D01*
X182878Y72565D01*
X182854Y72546D01*
X182850Y72542D01*
X182846Y72538D01*
X182487Y72149D01*
X182450Y72154D01*
X182333Y72138D01*
X182223Y72093D01*
X182129Y72021D01*
X182057Y71927D01*
X182012Y71817D01*
X181996Y71700D01*
X182012Y71583D01*
X182057Y71473D01*
X182129Y71379D01*
X182223Y71307D01*
X182333Y71262D01*
X182450Y71246D01*
X182567Y71262D01*
X182677Y71307D01*
X182771Y71379D01*
X182843Y71473D01*
X182888Y71583D01*
X182904Y71700D01*
X182894Y71772D01*
X183171Y72073D01*
X186785D01*
X186985Y71873D01*
X186962Y71817D01*
X186946Y71700D01*
X186962Y71583D01*
X187007Y71473D01*
X187079Y71379D01*
X187173Y71307D01*
X187283Y71262D01*
X187400Y71246D01*
X187517Y71262D01*
X187627Y71307D01*
X187721Y71379D01*
X187793Y71473D01*
X187838Y71583D01*
X187854Y71700D01*
X187838Y71817D01*
X187793Y71927D01*
X187721Y72021D01*
X187627Y72093D01*
X187517Y72138D01*
X187502Y72140D01*
X187096Y72546D01*
X187039Y72590D01*
X187011Y72602D01*
X186972Y72618D01*
X186900Y72627D01*
D02*
G37*
G36*
X200750Y73494D02*
X200585Y73478D01*
X200427Y73430D01*
X200281Y73352D01*
X200153Y73247D01*
X200048Y73119D01*
X199970Y72973D01*
X199922Y72815D01*
X199906Y72650D01*
X199922Y72485D01*
X199970Y72327D01*
X200048Y72181D01*
X200153Y72053D01*
X200281Y71948D01*
X200427Y71870D01*
X200585Y71822D01*
X200750Y71806D01*
X200915Y71822D01*
X201073Y71870D01*
X201219Y71948D01*
X201347Y72053D01*
X201452Y72181D01*
X201530Y72327D01*
X201578Y72485D01*
X201594Y72650D01*
X201578Y72815D01*
X201530Y72973D01*
X201452Y73119D01*
X201347Y73247D01*
X201219Y73352D01*
X201073Y73430D01*
X200915Y73478D01*
X200750Y73494D01*
D02*
G37*
G36*
X198250Y75650D02*
X198121Y75633D01*
X198000Y75583D01*
X197897Y75503D01*
X197817Y75400D01*
X197767Y75279D01*
X197750Y75150D01*
X197767Y75021D01*
X197817Y74900D01*
X197897Y74797D01*
X198000Y74717D01*
X198121Y74667D01*
X198178Y74660D01*
D01*
D01*
D01*
Y74660D01*
X198116Y74652D01*
X197990Y74600D01*
X197883Y74517D01*
X197800Y74410D01*
X197748Y74284D01*
X197731Y74150D01*
X197748Y74016D01*
X197800Y73890D01*
X197883Y73783D01*
X197990Y73700D01*
X198116Y73648D01*
X198139Y73645D01*
D01*
D01*
X197755D01*
Y72655D01*
X198745D01*
Y73645D01*
X198361D01*
D01*
X198384Y73648D01*
X198510Y73700D01*
X198617Y73783D01*
X198700Y73890D01*
X198752Y74016D01*
X198769Y74150D01*
X198752Y74284D01*
X198700Y74410D01*
X198617Y74517D01*
X198510Y74600D01*
X198384Y74652D01*
X198322Y74660D01*
D01*
X198379Y74667D01*
X198500Y74717D01*
X198603Y74797D01*
X198683Y74900D01*
X198733Y75021D01*
X198750Y75150D01*
X198733Y75279D01*
X198683Y75400D01*
X198603Y75503D01*
X198500Y75583D01*
X198379Y75633D01*
X198250Y75650D01*
D02*
G37*
G36*
X197250Y75150D02*
X197121Y75133D01*
X197000Y75083D01*
X196897Y75003D01*
X196817Y74900D01*
X196767Y74779D01*
X196750Y74650D01*
X196767Y74521D01*
X196817Y74400D01*
X196897Y74297D01*
X197000Y74217D01*
X197121Y74167D01*
X197250Y74150D01*
X197379Y74167D01*
X197500Y74217D01*
X197603Y74297D01*
X197683Y74400D01*
X197733Y74521D01*
X197750Y74650D01*
X197733Y74779D01*
X197683Y74900D01*
X197603Y75003D01*
X197500Y75083D01*
X197379Y75133D01*
X197250Y75150D01*
D02*
G37*
G36*
Y74150D02*
X197121Y74133D01*
X197000Y74083D01*
X196897Y74003D01*
X196817Y73900D01*
X196767Y73779D01*
X196750Y73650D01*
X196767Y73521D01*
X196817Y73400D01*
X196897Y73297D01*
X197000Y73217D01*
X197121Y73167D01*
X197250Y73150D01*
X197379Y73167D01*
X197500Y73217D01*
X197603Y73297D01*
X197683Y73400D01*
X197733Y73521D01*
X197750Y73650D01*
X197733Y73779D01*
X197683Y73900D01*
X197603Y74003D01*
X197500Y74083D01*
X197379Y74133D01*
X197250Y74150D01*
D02*
G37*
G36*
X101060Y76220D02*
X100946Y76205D01*
X100840Y76161D01*
X100749Y76091D01*
X100679Y76000D01*
X100635Y75894D01*
X100620Y75780D01*
X100635Y75666D01*
X100679Y75560D01*
X100749Y75469D01*
X100840Y75399D01*
X100946Y75355D01*
X101060Y75340D01*
X101174Y75355D01*
X101280Y75399D01*
X101371Y75469D01*
X101441Y75560D01*
X101485Y75666D01*
X101500Y75780D01*
X101485Y75894D01*
X101441Y76000D01*
X101371Y76091D01*
X101280Y76161D01*
X101174Y76205D01*
X101060Y76220D01*
D02*
G37*
G36*
X90820D02*
X90706Y76205D01*
X90600Y76161D01*
X90509Y76091D01*
X90439Y76000D01*
X90395Y75894D01*
X90380Y75780D01*
X90395Y75666D01*
X90439Y75560D01*
X90509Y75469D01*
X90600Y75399D01*
X90706Y75355D01*
X90820Y75340D01*
X90934Y75355D01*
X91040Y75399D01*
X91131Y75469D01*
X91201Y75560D01*
X91245Y75666D01*
X91260Y75780D01*
X91245Y75894D01*
X91201Y76000D01*
X91131Y76091D01*
X91040Y76161D01*
X90934Y76205D01*
X90820Y76220D01*
D02*
G37*
G36*
X119160D02*
X119046Y76205D01*
X118940Y76161D01*
X118849Y76091D01*
X118779Y76000D01*
X118735Y75894D01*
X118720Y75780D01*
X118735Y75666D01*
X118779Y75560D01*
X118849Y75469D01*
X118940Y75399D01*
X119046Y75355D01*
X119160Y75340D01*
X119274Y75355D01*
X119380Y75399D01*
X119471Y75469D01*
X119541Y75560D01*
X119585Y75666D01*
X119600Y75780D01*
X119585Y75894D01*
X119541Y76000D01*
X119471Y76091D01*
X119380Y76161D01*
X119274Y76205D01*
X119160Y76220D01*
D02*
G37*
G36*
X147500D02*
X147386Y76205D01*
X147280Y76161D01*
X147189Y76091D01*
X147119Y76000D01*
X147075Y75894D01*
X147060Y75780D01*
X147075Y75666D01*
X147119Y75560D01*
X147189Y75469D01*
X147280Y75399D01*
X147386Y75355D01*
X147500Y75340D01*
X147614Y75355D01*
X147720Y75399D01*
X147811Y75469D01*
X147881Y75560D01*
X147925Y75666D01*
X147940Y75780D01*
X147925Y75894D01*
X147881Y76000D01*
X147811Y76091D01*
X147720Y76161D01*
X147614Y76205D01*
X147500Y76220D01*
D02*
G37*
G36*
X129420D02*
X129306Y76205D01*
X129200Y76161D01*
X129109Y76091D01*
X129039Y76000D01*
X128995Y75894D01*
X128980Y75780D01*
X128995Y75666D01*
X129039Y75560D01*
X129109Y75469D01*
X129200Y75399D01*
X129306Y75355D01*
X129420Y75340D01*
X129534Y75355D01*
X129640Y75399D01*
X129731Y75469D01*
X129801Y75560D01*
X129845Y75666D01*
X129860Y75780D01*
X129845Y75894D01*
X129801Y76000D01*
X129731Y76091D01*
X129640Y76161D01*
X129534Y76205D01*
X129420Y76220D01*
D02*
G37*
G36*
X157750Y75220D02*
X157636Y75205D01*
X157530Y75161D01*
X157439Y75091D01*
X157369Y75000D01*
X157325Y74894D01*
X157310Y74780D01*
X157325Y74666D01*
X157369Y74560D01*
X157439Y74469D01*
X157530Y74399D01*
X157636Y74355D01*
X157750Y74340D01*
X157864Y74355D01*
X157970Y74399D01*
X158061Y74469D01*
X158131Y74560D01*
X158175Y74666D01*
X158190Y74780D01*
X158175Y74894D01*
X158131Y75000D01*
X158061Y75091D01*
X157970Y75161D01*
X157864Y75205D01*
X157750Y75220D01*
D02*
G37*
G36*
X147500D02*
X147386Y75205D01*
X147280Y75161D01*
X147189Y75091D01*
X147119Y75000D01*
X147075Y74894D01*
X147060Y74780D01*
X147075Y74666D01*
X147119Y74560D01*
X147189Y74469D01*
X147280Y74399D01*
X147386Y74355D01*
X147500Y74340D01*
X147614Y74355D01*
X147720Y74399D01*
X147811Y74469D01*
X147881Y74560D01*
X147925Y74666D01*
X147940Y74780D01*
X147925Y74894D01*
X147881Y75000D01*
X147811Y75091D01*
X147720Y75161D01*
X147614Y75205D01*
X147500Y75220D01*
D02*
G37*
G36*
X175860D02*
X175746Y75205D01*
X175640Y75161D01*
X175549Y75091D01*
X175479Y75000D01*
X175435Y74894D01*
X175420Y74780D01*
X175435Y74666D01*
X175479Y74560D01*
X175549Y74469D01*
X175640Y74399D01*
X175746Y74355D01*
X175860Y74340D01*
X175974Y74355D01*
X176080Y74399D01*
X176171Y74469D01*
X176241Y74560D01*
X176285Y74666D01*
X176300Y74780D01*
X176285Y74894D01*
X176241Y75000D01*
X176171Y75091D01*
X176080Y75161D01*
X175974Y75205D01*
X175860Y75220D01*
D02*
G37*
G36*
X72720Y76220D02*
X72606Y76205D01*
X72500Y76161D01*
X72409Y76091D01*
X72339Y76000D01*
X72295Y75894D01*
X72280Y75780D01*
X72295Y75666D01*
X72339Y75560D01*
X72409Y75469D01*
X72500Y75399D01*
X72606Y75355D01*
X72720Y75340D01*
X72834Y75355D01*
X72940Y75399D01*
X73031Y75469D01*
X73101Y75560D01*
X73145Y75666D01*
X73160Y75780D01*
X73145Y75894D01*
X73101Y76000D01*
X73031Y76091D01*
X72940Y76161D01*
X72834Y76205D01*
X72720Y76220D01*
D02*
G37*
G36*
X197250Y76150D02*
X197121Y76133D01*
X197000Y76083D01*
X196897Y76003D01*
X196817Y75900D01*
X196767Y75779D01*
X196750Y75650D01*
X196767Y75521D01*
X196817Y75400D01*
X196897Y75297D01*
X197000Y75217D01*
X197121Y75167D01*
X197250Y75150D01*
X197379Y75167D01*
X197500Y75217D01*
X197603Y75297D01*
X197683Y75400D01*
X197733Y75521D01*
X197750Y75650D01*
X197733Y75779D01*
X197683Y75900D01*
X197603Y76003D01*
X197500Y76083D01*
X197379Y76133D01*
X197250Y76150D01*
D02*
G37*
G36*
X137600Y66254D02*
X137372Y66237D01*
X137151Y66183D01*
X136940Y66096D01*
X136745Y65977D01*
X136572Y65828D01*
X136423Y65655D01*
X136304Y65460D01*
X136217Y65249D01*
X136163Y65028D01*
X136146Y64800D01*
X136163Y64572D01*
X136217Y64351D01*
X136304Y64140D01*
X136423Y63945D01*
X136572Y63772D01*
X136745Y63623D01*
X136940Y63504D01*
X137151Y63417D01*
X137372Y63363D01*
X137600Y63346D01*
X137828Y63363D01*
X138049Y63417D01*
X138260Y63504D01*
X138455Y63623D01*
X138628Y63772D01*
X138777Y63945D01*
X138896Y64140D01*
X138983Y64351D01*
X139037Y64572D01*
X139054Y64800D01*
X139037Y65028D01*
X138983Y65249D01*
X138896Y65460D01*
X138777Y65655D01*
X138628Y65828D01*
X138455Y65977D01*
X138260Y66096D01*
X138049Y66183D01*
X137828Y66237D01*
X137600Y66254D01*
D02*
G37*
G36*
X167510Y57500D02*
X167396Y57485D01*
X167290Y57441D01*
X167199Y57371D01*
X167129Y57280D01*
X167085Y57174D01*
X167070Y57060D01*
X167085Y56946D01*
X167129Y56840D01*
X167199Y56749D01*
X167290Y56679D01*
X167396Y56635D01*
X167510Y56620D01*
X167624Y56635D01*
X167730Y56679D01*
X167821Y56749D01*
X167891Y56840D01*
X167935Y56946D01*
X167950Y57060D01*
X167935Y57174D01*
X167891Y57280D01*
X167821Y57371D01*
X167730Y57441D01*
X167624Y57485D01*
X167510Y57500D01*
D02*
G37*
G36*
X160430D02*
X160316Y57485D01*
X160210Y57441D01*
X160119Y57371D01*
X160049Y57280D01*
X160005Y57174D01*
X159990Y57060D01*
X160005Y56946D01*
X160049Y56840D01*
X160119Y56749D01*
X160210Y56679D01*
X160316Y56635D01*
X160430Y56620D01*
X160544Y56635D01*
X160650Y56679D01*
X160741Y56749D01*
X160811Y56840D01*
X160855Y56946D01*
X160870Y57060D01*
X160855Y57174D01*
X160811Y57280D01*
X160741Y57371D01*
X160650Y57441D01*
X160544Y57485D01*
X160430Y57500D01*
D02*
G37*
G36*
X174610D02*
X174496Y57485D01*
X174390Y57441D01*
X174299Y57371D01*
X174229Y57280D01*
X174185Y57174D01*
X174170Y57060D01*
X174185Y56946D01*
X174229Y56840D01*
X174299Y56749D01*
X174390Y56679D01*
X174496Y56635D01*
X174610Y56620D01*
X174724Y56635D01*
X174830Y56679D01*
X174921Y56749D01*
X174991Y56840D01*
X175035Y56946D01*
X175050Y57060D01*
X175035Y57174D01*
X174991Y57280D01*
X174921Y57371D01*
X174830Y57441D01*
X174724Y57485D01*
X174610Y57500D01*
D02*
G37*
G36*
X171060Y57510D02*
X170946Y57495D01*
X170840Y57451D01*
X170749Y57381D01*
X170679Y57290D01*
X170635Y57184D01*
X170620Y57070D01*
X170635Y56956D01*
X170679Y56850D01*
X170749Y56759D01*
X170840Y56689D01*
X170946Y56645D01*
X171060Y56630D01*
X171174Y56645D01*
X171280Y56689D01*
X171371Y56759D01*
X171441Y56850D01*
X171485Y56956D01*
X171500Y57070D01*
X171485Y57184D01*
X171441Y57290D01*
X171371Y57381D01*
X171280Y57451D01*
X171174Y57495D01*
X171060Y57510D01*
D02*
G37*
G36*
X163980D02*
X163866Y57495D01*
X163760Y57451D01*
X163669Y57381D01*
X163599Y57290D01*
X163555Y57184D01*
X163540Y57070D01*
X163555Y56956D01*
X163599Y56850D01*
X163669Y56759D01*
X163760Y56689D01*
X163866Y56645D01*
X163980Y56630D01*
X164094Y56645D01*
X164200Y56689D01*
X164291Y56759D01*
X164361Y56850D01*
X164405Y56956D01*
X164420Y57070D01*
X164405Y57184D01*
X164361Y57290D01*
X164291Y57381D01*
X164200Y57451D01*
X164094Y57495D01*
X163980Y57510D01*
D02*
G37*
G36*
X135620Y57500D02*
X135506Y57485D01*
X135400Y57441D01*
X135309Y57371D01*
X135239Y57280D01*
X135195Y57174D01*
X135180Y57060D01*
X135195Y56946D01*
X135239Y56840D01*
X135309Y56749D01*
X135400Y56679D01*
X135506Y56635D01*
X135620Y56620D01*
X135734Y56635D01*
X135840Y56679D01*
X135931Y56749D01*
X136001Y56840D01*
X136045Y56946D01*
X136060Y57060D01*
X136045Y57174D01*
X136001Y57280D01*
X135931Y57371D01*
X135840Y57441D01*
X135734Y57485D01*
X135620Y57500D01*
D02*
G37*
G36*
X132080D02*
X131966Y57485D01*
X131860Y57441D01*
X131769Y57371D01*
X131699Y57280D01*
X131655Y57174D01*
X131640Y57060D01*
X131655Y56946D01*
X131699Y56840D01*
X131769Y56749D01*
X131860Y56679D01*
X131966Y56635D01*
X132080Y56620D01*
X132194Y56635D01*
X132300Y56679D01*
X132391Y56749D01*
X132461Y56840D01*
X132505Y56946D01*
X132520Y57060D01*
X132505Y57174D01*
X132461Y57280D01*
X132391Y57371D01*
X132300Y57441D01*
X132194Y57485D01*
X132080Y57500D01*
D02*
G37*
G36*
X139160D02*
X139046Y57485D01*
X138940Y57441D01*
X138849Y57371D01*
X138779Y57280D01*
X138735Y57174D01*
X138720Y57060D01*
X138735Y56946D01*
X138779Y56840D01*
X138849Y56749D01*
X138940Y56679D01*
X139046Y56635D01*
X139160Y56620D01*
X139274Y56635D01*
X139380Y56679D01*
X139471Y56749D01*
X139541Y56840D01*
X139585Y56946D01*
X139600Y57060D01*
X139585Y57174D01*
X139541Y57280D01*
X139471Y57371D01*
X139380Y57441D01*
X139274Y57485D01*
X139160Y57500D01*
D02*
G37*
G36*
X152560D02*
X152446Y57485D01*
X152340Y57441D01*
X152249Y57371D01*
X152179Y57280D01*
X152135Y57174D01*
X152120Y57060D01*
X152135Y56946D01*
X152179Y56840D01*
X152249Y56749D01*
X152340Y56679D01*
X152446Y56635D01*
X152560Y56620D01*
X152674Y56635D01*
X152780Y56679D01*
X152871Y56749D01*
X152941Y56840D01*
X152985Y56946D01*
X153000Y57060D01*
X152985Y57174D01*
X152941Y57280D01*
X152871Y57371D01*
X152780Y57441D01*
X152674Y57485D01*
X152560Y57500D01*
D02*
G37*
G36*
X146260D02*
X146146Y57485D01*
X146040Y57441D01*
X145949Y57371D01*
X145879Y57280D01*
X145835Y57174D01*
X145820Y57060D01*
X145835Y56946D01*
X145879Y56840D01*
X145949Y56749D01*
X146040Y56679D01*
X146146Y56635D01*
X146260Y56620D01*
X146374Y56635D01*
X146480Y56679D01*
X146571Y56749D01*
X146641Y56840D01*
X146685Y56946D01*
X146700Y57060D01*
X146685Y57174D01*
X146641Y57280D01*
X146571Y57371D01*
X146480Y57441D01*
X146374Y57485D01*
X146260Y57500D01*
D02*
G37*
G36*
X89560Y58500D02*
X89446Y58485D01*
X89340Y58441D01*
X89249Y58371D01*
X89179Y58280D01*
X89135Y58174D01*
X89120Y58060D01*
X89135Y57946D01*
X89179Y57840D01*
X89249Y57749D01*
X89340Y57679D01*
X89446Y57635D01*
X89560Y57620D01*
X89674Y57635D01*
X89780Y57679D01*
X89871Y57749D01*
X89941Y57840D01*
X89985Y57946D01*
X90000Y58060D01*
X89985Y58174D01*
X89941Y58280D01*
X89871Y58371D01*
X89780Y58441D01*
X89674Y58485D01*
X89560Y58500D01*
D02*
G37*
G36*
X82480D02*
X82366Y58485D01*
X82260Y58441D01*
X82169Y58371D01*
X82099Y58280D01*
X82055Y58174D01*
X82040Y58060D01*
X82055Y57946D01*
X82099Y57840D01*
X82169Y57749D01*
X82260Y57679D01*
X82366Y57635D01*
X82480Y57620D01*
X82594Y57635D01*
X82700Y57679D01*
X82791Y57749D01*
X82861Y57840D01*
X82905Y57946D01*
X82920Y58060D01*
X82905Y58174D01*
X82861Y58280D01*
X82791Y58371D01*
X82700Y58441D01*
X82594Y58485D01*
X82480Y58500D01*
D02*
G37*
G36*
X95860D02*
X95746Y58485D01*
X95640Y58441D01*
X95549Y58371D01*
X95479Y58280D01*
X95435Y58174D01*
X95420Y58060D01*
X95435Y57946D01*
X95479Y57840D01*
X95549Y57749D01*
X95640Y57679D01*
X95746Y57635D01*
X95860Y57620D01*
X95974Y57635D01*
X96080Y57679D01*
X96171Y57749D01*
X96241Y57840D01*
X96285Y57946D01*
X96300Y58060D01*
X96285Y58174D01*
X96241Y58280D01*
X96171Y58371D01*
X96080Y58441D01*
X95974Y58485D01*
X95860Y58500D01*
D02*
G37*
G36*
X107280D02*
X107166Y58485D01*
X107060Y58441D01*
X106969Y58371D01*
X106899Y58280D01*
X106855Y58174D01*
X106840Y58060D01*
X106855Y57946D01*
X106899Y57840D01*
X106969Y57749D01*
X107060Y57679D01*
X107166Y57635D01*
X107280Y57620D01*
X107394Y57635D01*
X107500Y57679D01*
X107591Y57749D01*
X107661Y57840D01*
X107705Y57946D01*
X107720Y58060D01*
X107705Y58174D01*
X107661Y58280D01*
X107591Y58371D01*
X107500Y58441D01*
X107394Y58485D01*
X107280Y58500D01*
D02*
G37*
G36*
X103740D02*
X103626Y58485D01*
X103520Y58441D01*
X103429Y58371D01*
X103359Y58280D01*
X103315Y58174D01*
X103300Y58060D01*
X103315Y57946D01*
X103359Y57840D01*
X103429Y57749D01*
X103520Y57679D01*
X103626Y57635D01*
X103740Y57620D01*
X103854Y57635D01*
X103960Y57679D01*
X104051Y57749D01*
X104121Y57840D01*
X104165Y57946D01*
X104180Y58060D01*
X104165Y58174D01*
X104121Y58280D01*
X104051Y58371D01*
X103960Y58441D01*
X103854Y58485D01*
X103740Y58500D01*
D02*
G37*
G36*
X142700Y58480D02*
X142586Y58465D01*
X142480Y58421D01*
X142389Y58351D01*
X142319Y58260D01*
X142275Y58154D01*
X142260Y58040D01*
X142275Y57926D01*
X142319Y57820D01*
X142389Y57729D01*
X142480Y57659D01*
X142586Y57615D01*
X142700Y57600D01*
X142814Y57615D01*
X142920Y57659D01*
X143011Y57729D01*
X143081Y57820D01*
X143125Y57926D01*
X143140Y58040D01*
X143125Y58154D01*
X143081Y58260D01*
X143011Y58351D01*
X142920Y58421D01*
X142814Y58465D01*
X142700Y58480D01*
D02*
G37*
G36*
X86020Y57520D02*
X85906Y57505D01*
X85800Y57461D01*
X85709Y57391D01*
X85639Y57300D01*
X85595Y57194D01*
X85580Y57080D01*
X85595Y56966D01*
X85639Y56860D01*
X85709Y56769D01*
X85800Y56699D01*
X85906Y56655D01*
X86020Y56640D01*
X86134Y56655D01*
X86240Y56699D01*
X86331Y56769D01*
X86401Y56860D01*
X86445Y56966D01*
X86460Y57080D01*
X86445Y57194D01*
X86401Y57300D01*
X86331Y57391D01*
X86240Y57461D01*
X86134Y57505D01*
X86020Y57520D01*
D02*
G37*
G36*
X67520Y58500D02*
X67406Y58485D01*
X67300Y58441D01*
X67209Y58371D01*
X67139Y58280D01*
X67095Y58174D01*
X67080Y58060D01*
X67095Y57946D01*
X67139Y57840D01*
X67209Y57749D01*
X67300Y57679D01*
X67406Y57635D01*
X67520Y57620D01*
X67634Y57635D01*
X67740Y57679D01*
X67831Y57749D01*
X67901Y57840D01*
X67945Y57946D01*
X67960Y58060D01*
X67945Y58174D01*
X67901Y58280D01*
X67831Y58371D01*
X67740Y58441D01*
X67634Y58485D01*
X67520Y58500D01*
D02*
G37*
G36*
X78940D02*
X78826Y58485D01*
X78720Y58441D01*
X78629Y58371D01*
X78559Y58280D01*
X78515Y58174D01*
X78500Y58060D01*
X78515Y57946D01*
X78559Y57840D01*
X78629Y57749D01*
X78720Y57679D01*
X78826Y57635D01*
X78940Y57620D01*
X79054Y57635D01*
X79160Y57679D01*
X79251Y57749D01*
X79321Y57840D01*
X79365Y57946D01*
X79380Y58060D01*
X79365Y58174D01*
X79321Y58280D01*
X79251Y58371D01*
X79160Y58441D01*
X79054Y58485D01*
X78940Y58500D01*
D02*
G37*
G36*
X75400D02*
X75286Y58485D01*
X75180Y58441D01*
X75089Y58371D01*
X75019Y58280D01*
X74975Y58174D01*
X74960Y58060D01*
X74975Y57946D01*
X75019Y57840D01*
X75089Y57749D01*
X75180Y57679D01*
X75286Y57635D01*
X75400Y57620D01*
X75514Y57635D01*
X75620Y57679D01*
X75711Y57749D01*
X75781Y57840D01*
X75825Y57946D01*
X75840Y58060D01*
X75825Y58174D01*
X75781Y58280D01*
X75711Y58371D01*
X75620Y58441D01*
X75514Y58485D01*
X75400Y58500D01*
D02*
G37*
G36*
X194500Y56000D02*
X194371Y55983D01*
X194250Y55933D01*
X194147Y55853D01*
X194067Y55750D01*
X194017Y55629D01*
X194000Y55500D01*
X194017Y55371D01*
X194067Y55250D01*
X194147Y55147D01*
X194250Y55067D01*
X194371Y55017D01*
X194500Y55000D01*
X194629Y55017D01*
X194750Y55067D01*
X194853Y55147D01*
X194933Y55250D01*
X194983Y55371D01*
X195000Y55500D01*
X194983Y55629D01*
X194933Y55750D01*
X194853Y55853D01*
X194750Y55933D01*
X194629Y55983D01*
X194500Y56000D01*
D02*
G37*
G36*
X193500D02*
X193371Y55983D01*
X193250Y55933D01*
X193147Y55853D01*
X193067Y55750D01*
X193017Y55629D01*
X193000Y55500D01*
X193017Y55371D01*
X193067Y55250D01*
X193147Y55147D01*
X193250Y55067D01*
X193371Y55017D01*
X193500Y55000D01*
X193629Y55017D01*
X193750Y55067D01*
X193853Y55147D01*
X193933Y55250D01*
X193983Y55371D01*
X194000Y55500D01*
X193983Y55629D01*
X193933Y55750D01*
X193853Y55853D01*
X193750Y55933D01*
X193629Y55983D01*
X193500Y56000D01*
D02*
G37*
G36*
X142700Y57480D02*
X142586Y57465D01*
X142480Y57421D01*
X142389Y57351D01*
X142319Y57260D01*
X142275Y57154D01*
X142260Y57040D01*
X142275Y56926D01*
X142319Y56820D01*
X142389Y56729D01*
X142480Y56659D01*
X142586Y56615D01*
X142700Y56600D01*
X142814Y56615D01*
X142920Y56659D01*
X143011Y56729D01*
X143081Y56820D01*
X143125Y56926D01*
X143140Y57040D01*
X143125Y57154D01*
X143081Y57260D01*
X143011Y57351D01*
X142920Y57421D01*
X142814Y57465D01*
X142700Y57480D01*
D02*
G37*
G36*
X75400Y57500D02*
X75286Y57485D01*
X75180Y57441D01*
X75089Y57371D01*
X75019Y57280D01*
X74975Y57174D01*
X74960Y57060D01*
X74975Y56946D01*
X75019Y56840D01*
X75089Y56749D01*
X75180Y56679D01*
X75286Y56635D01*
X75400Y56620D01*
X75514Y56635D01*
X75620Y56679D01*
X75711Y56749D01*
X75781Y56840D01*
X75825Y56946D01*
X75840Y57060D01*
X75825Y57174D01*
X75781Y57280D01*
X75711Y57371D01*
X75620Y57441D01*
X75514Y57485D01*
X75400Y57500D01*
D02*
G37*
G36*
X67520D02*
X67406Y57485D01*
X67300Y57441D01*
X67209Y57371D01*
X67139Y57280D01*
X67095Y57174D01*
X67080Y57060D01*
X67095Y56946D01*
X67139Y56840D01*
X67209Y56749D01*
X67300Y56679D01*
X67406Y56635D01*
X67520Y56620D01*
X67634Y56635D01*
X67740Y56679D01*
X67831Y56749D01*
X67901Y56840D01*
X67945Y56946D01*
X67960Y57060D01*
X67945Y57174D01*
X67901Y57280D01*
X67831Y57371D01*
X67740Y57441D01*
X67634Y57485D01*
X67520Y57500D01*
D02*
G37*
G36*
X203000Y43900D02*
X202896Y43887D01*
X202800Y43847D01*
X202717Y43783D01*
X202653Y43700D01*
X202613Y43604D01*
X202600Y43500D01*
X202613Y43396D01*
X202653Y43300D01*
X202717Y43217D01*
X202800Y43153D01*
X202896Y43113D01*
X203000Y43100D01*
X203104Y43113D01*
X203200Y43153D01*
X203283Y43217D01*
X203347Y43300D01*
X203387Y43396D01*
X203400Y43500D01*
X203387Y43604D01*
X203347Y43700D01*
X203283Y43783D01*
X203200Y43847D01*
X203104Y43887D01*
X203000Y43900D01*
D02*
G37*
G36*
X66500D02*
X66396Y43887D01*
X66300Y43847D01*
X66217Y43783D01*
X66153Y43700D01*
X66113Y43604D01*
X66100Y43500D01*
X66113Y43396D01*
X66153Y43300D01*
X66217Y43217D01*
X66300Y43153D01*
X66396Y43113D01*
X66500Y43100D01*
X66604Y43113D01*
X66700Y43153D01*
X66783Y43217D01*
X66847Y43300D01*
X66887Y43396D01*
X66900Y43500D01*
X66887Y43604D01*
X66847Y43700D01*
X66783Y43783D01*
X66700Y43847D01*
X66604Y43887D01*
X66500Y43900D01*
D02*
G37*
G36*
X81300Y48354D02*
X81183Y48338D01*
X81073Y48293D01*
X80979Y48221D01*
X80907Y48127D01*
X80862Y48017D01*
X80846Y47900D01*
X80862Y47783D01*
X80907Y47673D01*
X80979Y47579D01*
X81073Y47507D01*
X81183Y47462D01*
X81300Y47446D01*
X81417Y47462D01*
X81527Y47507D01*
X81621Y47579D01*
X81693Y47673D01*
X81738Y47783D01*
X81754Y47900D01*
X81738Y48017D01*
X81693Y48127D01*
X81621Y48221D01*
X81527Y48293D01*
X81417Y48338D01*
X81300Y48354D01*
D02*
G37*
G36*
X195500Y55000D02*
X195371Y54983D01*
X195250Y54933D01*
X195147Y54853D01*
X195067Y54750D01*
X195017Y54629D01*
X195000Y54500D01*
X195017Y54371D01*
X195067Y54250D01*
X195147Y54147D01*
X195250Y54067D01*
X195371Y54017D01*
X195500Y54000D01*
X195629Y54017D01*
X195750Y54067D01*
X195853Y54147D01*
X195933Y54250D01*
X195983Y54371D01*
X196000Y54500D01*
X195983Y54629D01*
X195933Y54750D01*
X195853Y54853D01*
X195750Y54933D01*
X195629Y54983D01*
X195500Y55000D01*
D02*
G37*
G36*
X194500D02*
X194371Y54983D01*
X194250Y54933D01*
X194147Y54853D01*
X194067Y54750D01*
X194017Y54629D01*
X194000Y54500D01*
X194017Y54371D01*
X194067Y54250D01*
X194147Y54147D01*
X194223Y54089D01*
Y48465D01*
X192304Y46547D01*
X192250Y46554D01*
X187709D01*
D01*
X187767Y46562D01*
X187832Y46588D01*
X187877Y46607D01*
X187971Y46679D01*
X187971Y46679D01*
X187971Y46679D01*
X188071Y46779D01*
X188071Y46779D01*
X188143Y46873D01*
X188188Y46983D01*
X188204Y47100D01*
X188188Y47217D01*
X188143Y47327D01*
X188071Y47421D01*
X188038Y47446D01*
X188038D01*
Y47446D01*
X191400D01*
X191517Y47462D01*
X191627Y47507D01*
X191721Y47579D01*
X191793Y47673D01*
X191838Y47783D01*
X191854Y47900D01*
X191847Y47954D01*
X193696Y49804D01*
X193740Y49861D01*
X193768Y49928D01*
X193768D01*
X193768D01*
X193768D01*
X193768Y49928D01*
X193777Y50000D01*
Y54005D01*
X193995D01*
Y54995D01*
X193005D01*
Y54005D01*
X193223D01*
Y50115D01*
X191454Y48347D01*
X191400Y48354D01*
X176440D01*
X176386Y48347D01*
X175236Y49496D01*
X175179Y49540D01*
X175151Y49552D01*
X175112Y49568D01*
X175040Y49577D01*
X172794D01*
X172761Y49621D01*
X172667Y49693D01*
X172557Y49738D01*
X172440Y49754D01*
X172323Y49738D01*
X172213Y49693D01*
X172119Y49621D01*
X172047Y49527D01*
X172002Y49417D01*
X171986Y49300D01*
X172002Y49183D01*
X172047Y49073D01*
X172119Y48979D01*
X172213Y48907D01*
X172323Y48862D01*
X172440Y48846D01*
X172557Y48862D01*
X172667Y48907D01*
X172761Y48979D01*
X172794Y49023D01*
X174925D01*
X175993Y47954D01*
X175986Y47900D01*
X176002Y47783D01*
X176047Y47673D01*
X176119Y47579D01*
X176213Y47507D01*
X176323Y47462D01*
X176381Y47454D01*
X176381D01*
X176381D01*
X176140D01*
X176023Y47438D01*
X175913Y47393D01*
X175819Y47321D01*
X175747Y47227D01*
X175702Y47117D01*
X175686Y47000D01*
X175693Y46946D01*
X175325Y46577D01*
X166694D01*
X166661Y46621D01*
X166567Y46693D01*
X166457Y46738D01*
X166340Y46754D01*
X166223Y46738D01*
X166113Y46693D01*
X166019Y46621D01*
X165986Y46577D01*
X165555D01*
X165187Y46946D01*
X165194Y47000D01*
X165178Y47117D01*
X165133Y47227D01*
X165061Y47321D01*
X164967Y47393D01*
X164857Y47438D01*
X164740Y47454D01*
X164259D01*
D01*
X164317Y47462D01*
X164427Y47507D01*
X164521Y47579D01*
X164554Y47623D01*
X166286D01*
X166319Y47579D01*
X166413Y47507D01*
X166523Y47462D01*
X166640Y47446D01*
X166757Y47462D01*
X166867Y47507D01*
X166961Y47579D01*
X167033Y47673D01*
X167078Y47783D01*
X167094Y47900D01*
X167078Y48017D01*
X167033Y48127D01*
X166961Y48221D01*
X166867Y48293D01*
X166757Y48338D01*
X166640Y48354D01*
X166523Y48338D01*
X166413Y48293D01*
X166319Y48221D01*
X166286Y48177D01*
X164554D01*
X164521Y48221D01*
X164427Y48293D01*
X164317Y48338D01*
X164200Y48354D01*
X148100D01*
X148046Y48347D01*
X146896Y49496D01*
X146839Y49540D01*
X146811Y49552D01*
X146772Y49568D01*
X146700Y49577D01*
X144454D01*
X144421Y49621D01*
X144327Y49693D01*
X144217Y49738D01*
X144100Y49754D01*
X143983Y49738D01*
X143873Y49693D01*
X143779Y49621D01*
X143707Y49527D01*
X143662Y49417D01*
X143646Y49300D01*
X143662Y49183D01*
X143707Y49073D01*
X143779Y48979D01*
X143873Y48907D01*
X143983Y48862D01*
X144100Y48846D01*
X144217Y48862D01*
X144327Y48907D01*
X144421Y48979D01*
X144454Y49023D01*
X146585D01*
X147653Y47954D01*
X147646Y47900D01*
X147662Y47783D01*
X147707Y47673D01*
X147779Y47579D01*
X147873Y47507D01*
X147983Y47462D01*
X148041Y47454D01*
X148041D01*
X148041D01*
X147800D01*
X147683Y47438D01*
X147573Y47393D01*
X147479Y47321D01*
X147407Y47227D01*
X147362Y47117D01*
X147346Y47000D01*
X147353Y46946D01*
X146985Y46577D01*
X138354D01*
X138321Y46621D01*
X138227Y46693D01*
X138117Y46738D01*
X138000Y46754D01*
X137883Y46738D01*
X137773Y46693D01*
X137679Y46621D01*
X137646Y46577D01*
X137215D01*
X136847Y46946D01*
X136854Y47000D01*
X136838Y47117D01*
X136793Y47227D01*
X136721Y47321D01*
X136627Y47393D01*
X136517Y47438D01*
X136400Y47454D01*
X135619D01*
D01*
X135677Y47462D01*
X135787Y47507D01*
X135881Y47579D01*
X135914Y47623D01*
X137646D01*
X137679Y47579D01*
X137773Y47507D01*
X137883Y47462D01*
X138000Y47446D01*
X138117Y47462D01*
X138227Y47507D01*
X138321Y47579D01*
X138393Y47673D01*
X138438Y47783D01*
X138454Y47900D01*
X138438Y48017D01*
X138393Y48127D01*
X138321Y48221D01*
X138227Y48293D01*
X138117Y48338D01*
X138000Y48354D01*
X137883Y48338D01*
X137773Y48293D01*
X137679Y48221D01*
X137646Y48177D01*
X135914D01*
X135881Y48221D01*
X135787Y48293D01*
X135677Y48338D01*
X135560Y48354D01*
X119460D01*
X119406Y48347D01*
X118256Y49496D01*
X118199Y49540D01*
X118171Y49552D01*
X118132Y49568D01*
X118060Y49577D01*
X116094D01*
X116061Y49621D01*
X115967Y49693D01*
X115857Y49738D01*
X115740Y49754D01*
X115623Y49738D01*
X115513Y49693D01*
X115419Y49621D01*
X115374Y49562D01*
X115321Y49540D01*
X115264Y49496D01*
X115220Y49439D01*
X115192Y49372D01*
X115183Y49300D01*
X115192Y49228D01*
X115220Y49161D01*
X115264Y49104D01*
X115321Y49060D01*
X115374Y49038D01*
X115419Y48979D01*
X115513Y48907D01*
X115623Y48862D01*
X115740Y48846D01*
X115857Y48862D01*
X115967Y48907D01*
X116061Y48979D01*
X116094Y49023D01*
X117945D01*
X119013Y47954D01*
X119006Y47900D01*
X119022Y47783D01*
X119067Y47673D01*
X119139Y47579D01*
X119233Y47507D01*
X119343Y47462D01*
X119431Y47450D01*
D01*
X119431D01*
X119431D01*
X119431D01*
X119343Y47438D01*
X119233Y47393D01*
X119139Y47321D01*
X119067Y47227D01*
X119022Y47117D01*
X119006Y47000D01*
X119013Y46946D01*
X118645Y46577D01*
X109994D01*
X109961Y46621D01*
X109867Y46693D01*
X109757Y46738D01*
X109640Y46754D01*
X109523Y46738D01*
X109413Y46693D01*
X109319Y46621D01*
X109286Y46577D01*
X108855D01*
X108487Y46946D01*
X108494Y47000D01*
X108478Y47117D01*
X108433Y47227D01*
X108361Y47321D01*
X108267Y47393D01*
X108157Y47438D01*
X108040Y47454D01*
X107259D01*
D01*
X107317Y47462D01*
X107427Y47507D01*
X107521Y47579D01*
X107554Y47623D01*
X109286D01*
X109319Y47579D01*
X109413Y47507D01*
X109523Y47462D01*
X109640Y47446D01*
X109757Y47462D01*
X109867Y47507D01*
X109961Y47579D01*
X110033Y47673D01*
X110078Y47783D01*
X110094Y47900D01*
X110078Y48017D01*
X110033Y48127D01*
X109961Y48221D01*
X109867Y48293D01*
X109757Y48338D01*
X109640Y48354D01*
X109523Y48338D01*
X109413Y48293D01*
X109319Y48221D01*
X109286Y48177D01*
X107554D01*
X107521Y48221D01*
X107427Y48293D01*
X107317Y48338D01*
X107200Y48354D01*
X91100D01*
X91046Y48347D01*
X89896Y49496D01*
X89839Y49540D01*
X89811Y49552D01*
X89772Y49568D01*
X89700Y49577D01*
X87754D01*
X87721Y49621D01*
X87627Y49693D01*
X87517Y49738D01*
X87400Y49754D01*
X87283Y49738D01*
X87173Y49693D01*
X87079Y49621D01*
X87007Y49527D01*
X86962Y49417D01*
X86946Y49300D01*
X86962Y49183D01*
X87007Y49073D01*
X87079Y48979D01*
X87173Y48907D01*
X87283Y48862D01*
X87400Y48846D01*
X87517Y48862D01*
X87627Y48907D01*
X87721Y48979D01*
X87754Y49023D01*
X89585D01*
X90653Y47954D01*
X90646Y47900D01*
X90662Y47783D01*
X90707Y47673D01*
X90779Y47579D01*
X90873Y47507D01*
X90983Y47462D01*
X91070Y47450D01*
D01*
X91070D01*
X91070D01*
X91070D01*
X90983Y47438D01*
X90873Y47393D01*
X90779Y47321D01*
X90707Y47227D01*
X90662Y47117D01*
X90646Y47000D01*
X90653Y46946D01*
X90285Y46577D01*
X81654D01*
X81621Y46621D01*
X81527Y46693D01*
X81417Y46738D01*
X81300Y46754D01*
X81183Y46738D01*
X81073Y46693D01*
X80979Y46621D01*
X80907Y46527D01*
X80862Y46417D01*
X80846Y46300D01*
X80862Y46183D01*
X80907Y46073D01*
X80979Y45979D01*
X81073Y45907D01*
X81183Y45862D01*
X81300Y45846D01*
X81417Y45862D01*
X81527Y45907D01*
X81621Y45979D01*
X81654Y46023D01*
X90400D01*
X90472Y46032D01*
X90511Y46048D01*
X90539Y46060D01*
X90596Y46104D01*
X91046Y46553D01*
X91100Y46546D01*
X91541D01*
D01*
D01*
X91483Y46538D01*
X91373Y46493D01*
X91279Y46421D01*
X91207Y46327D01*
X91162Y46217D01*
X91146Y46100D01*
X91153Y46046D01*
X90085Y44977D01*
X86254D01*
X86221Y45021D01*
X86127Y45093D01*
X86017Y45138D01*
X85900Y45154D01*
X85783Y45138D01*
X85673Y45093D01*
X85579Y45021D01*
X85507Y44927D01*
X85462Y44817D01*
X85446Y44700D01*
X85462Y44583D01*
X85507Y44473D01*
X85579Y44379D01*
X85673Y44307D01*
X85783Y44262D01*
X85900Y44246D01*
X86017Y44262D01*
X86127Y44307D01*
X86221Y44379D01*
X86254Y44423D01*
X90200D01*
X90272Y44432D01*
X90311Y44448D01*
X90339Y44460D01*
X90396Y44504D01*
X91546Y45653D01*
X91600Y45646D01*
X107040D01*
X107094Y45653D01*
X108244Y44504D01*
X108301Y44460D01*
X108368Y44432D01*
X108440Y44423D01*
X108450Y44424D01*
X108460Y44423D01*
X113886D01*
X113919Y44379D01*
X114013Y44307D01*
X114123Y44262D01*
X114240Y44246D01*
X114357Y44262D01*
X114467Y44307D01*
X114561Y44379D01*
X114594Y44423D01*
X118560D01*
X118632Y44432D01*
X118671Y44448D01*
X118699Y44460D01*
X118756Y44504D01*
X119906Y45653D01*
X119960Y45646D01*
X135400D01*
X135454Y45653D01*
X136604Y44504D01*
X136661Y44460D01*
X136728Y44432D01*
X136800Y44423D01*
X142246D01*
X142279Y44379D01*
X142373Y44307D01*
X142483Y44262D01*
X142600Y44246D01*
X142717Y44262D01*
X142827Y44307D01*
X142921Y44379D01*
X142954Y44423D01*
X146900D01*
X146972Y44432D01*
X147011Y44448D01*
X147039Y44460D01*
X147096Y44504D01*
X148246Y45653D01*
X148300Y45646D01*
X163740D01*
X163794Y45653D01*
X164944Y44504D01*
X165001Y44460D01*
X165068Y44432D01*
X165140Y44423D01*
X170586D01*
X170619Y44379D01*
X170713Y44307D01*
X170823Y44262D01*
X170940Y44246D01*
X171057Y44262D01*
X171167Y44307D01*
X171261Y44379D01*
X171294Y44423D01*
X175240D01*
X175312Y44432D01*
X175351Y44448D01*
X175379Y44460D01*
X175436Y44504D01*
X176586Y45653D01*
X176640Y45646D01*
X192250D01*
X192367Y45662D01*
X192477Y45707D01*
X192571Y45779D01*
X192643Y45873D01*
X192688Y45983D01*
X192704Y46100D01*
X192697Y46154D01*
X194696Y48154D01*
X194740Y48211D01*
X194768Y48278D01*
X194768D01*
X194768D01*
X194768D01*
X194768Y48278D01*
X194777Y48350D01*
Y54089D01*
X194853Y54147D01*
X194933Y54250D01*
X194983Y54371D01*
X195000Y54500D01*
X194983Y54629D01*
X194933Y54750D01*
X194853Y54853D01*
X194750Y54933D01*
X194629Y54983D01*
X194500Y55000D01*
D02*
G37*
G36*
X110820Y57500D02*
X110706Y57485D01*
X110600Y57441D01*
X110509Y57371D01*
X110439Y57280D01*
X110395Y57174D01*
X110380Y57060D01*
X110395Y56946D01*
X110439Y56840D01*
X110509Y56749D01*
X110600Y56679D01*
X110706Y56635D01*
X110820Y56620D01*
X110934Y56635D01*
X111040Y56679D01*
X111131Y56749D01*
X111201Y56840D01*
X111245Y56946D01*
X111260Y57060D01*
X111245Y57174D01*
X111201Y57280D01*
X111131Y57371D01*
X111040Y57441D01*
X110934Y57485D01*
X110820Y57500D01*
D02*
G37*
G36*
X107280D02*
X107166Y57485D01*
X107060Y57441D01*
X106969Y57371D01*
X106899Y57280D01*
X106855Y57174D01*
X106840Y57060D01*
X106855Y56946D01*
X106899Y56840D01*
X106969Y56749D01*
X107060Y56679D01*
X107166Y56635D01*
X107280Y56620D01*
X107394Y56635D01*
X107500Y56679D01*
X107591Y56749D01*
X107661Y56840D01*
X107705Y56946D01*
X107720Y57060D01*
X107705Y57174D01*
X107661Y57280D01*
X107591Y57371D01*
X107500Y57441D01*
X107394Y57485D01*
X107280Y57500D01*
D02*
G37*
G36*
X114380D02*
X114266Y57485D01*
X114160Y57441D01*
X114069Y57371D01*
X113999Y57280D01*
X113955Y57174D01*
X113940Y57060D01*
X113955Y56946D01*
X113999Y56840D01*
X114069Y56749D01*
X114160Y56679D01*
X114266Y56635D01*
X114380Y56620D01*
X114494Y56635D01*
X114600Y56679D01*
X114691Y56749D01*
X114761Y56840D01*
X114805Y56946D01*
X114820Y57060D01*
X114805Y57174D01*
X114761Y57280D01*
X114691Y57371D01*
X114600Y57441D01*
X114494Y57485D01*
X114380Y57500D01*
D02*
G37*
G36*
X124220D02*
X124106Y57485D01*
X124000Y57441D01*
X123909Y57371D01*
X123839Y57280D01*
X123795Y57174D01*
X123780Y57060D01*
X123795Y56946D01*
X123839Y56840D01*
X123909Y56749D01*
X124000Y56679D01*
X124106Y56635D01*
X124220Y56620D01*
X124334Y56635D01*
X124440Y56679D01*
X124531Y56749D01*
X124601Y56840D01*
X124645Y56946D01*
X124660Y57060D01*
X124645Y57174D01*
X124601Y57280D01*
X124531Y57371D01*
X124440Y57441D01*
X124334Y57485D01*
X124220Y57500D01*
D02*
G37*
G36*
X117920D02*
X117806Y57485D01*
X117700Y57441D01*
X117609Y57371D01*
X117539Y57280D01*
X117495Y57174D01*
X117480Y57060D01*
X117495Y56946D01*
X117539Y56840D01*
X117609Y56749D01*
X117700Y56679D01*
X117806Y56635D01*
X117920Y56620D01*
X118034Y56635D01*
X118140Y56679D01*
X118231Y56749D01*
X118301Y56840D01*
X118345Y56946D01*
X118360Y57060D01*
X118345Y57174D01*
X118301Y57280D01*
X118231Y57371D01*
X118140Y57441D01*
X118034Y57485D01*
X117920Y57500D01*
D02*
G37*
G36*
X82480D02*
X82366Y57485D01*
X82260Y57441D01*
X82169Y57371D01*
X82099Y57280D01*
X82055Y57174D01*
X82040Y57060D01*
X82055Y56946D01*
X82099Y56840D01*
X82169Y56749D01*
X82260Y56679D01*
X82366Y56635D01*
X82480Y56620D01*
X82594Y56635D01*
X82700Y56679D01*
X82791Y56749D01*
X82861Y56840D01*
X82905Y56946D01*
X82920Y57060D01*
X82905Y57174D01*
X82861Y57280D01*
X82791Y57371D01*
X82700Y57441D01*
X82594Y57485D01*
X82480Y57500D01*
D02*
G37*
G36*
X78940D02*
X78826Y57485D01*
X78720Y57441D01*
X78629Y57371D01*
X78559Y57280D01*
X78515Y57174D01*
X78500Y57060D01*
X78515Y56946D01*
X78559Y56840D01*
X78629Y56749D01*
X78720Y56679D01*
X78826Y56635D01*
X78940Y56620D01*
X79054Y56635D01*
X79160Y56679D01*
X79251Y56749D01*
X79321Y56840D01*
X79365Y56946D01*
X79380Y57060D01*
X79365Y57174D01*
X79321Y57280D01*
X79251Y57371D01*
X79160Y57441D01*
X79054Y57485D01*
X78940Y57500D01*
D02*
G37*
G36*
X89560D02*
X89446Y57485D01*
X89340Y57441D01*
X89249Y57371D01*
X89179Y57280D01*
X89135Y57174D01*
X89120Y57060D01*
X89135Y56946D01*
X89179Y56840D01*
X89249Y56749D01*
X89340Y56679D01*
X89446Y56635D01*
X89560Y56620D01*
X89674Y56635D01*
X89780Y56679D01*
X89871Y56749D01*
X89941Y56840D01*
X89985Y56946D01*
X90000Y57060D01*
X89985Y57174D01*
X89941Y57280D01*
X89871Y57371D01*
X89780Y57441D01*
X89674Y57485D01*
X89560Y57500D01*
D02*
G37*
G36*
X103740D02*
X103626Y57485D01*
X103520Y57441D01*
X103429Y57371D01*
X103359Y57280D01*
X103315Y57174D01*
X103300Y57060D01*
X103315Y56946D01*
X103359Y56840D01*
X103429Y56749D01*
X103520Y56679D01*
X103626Y56635D01*
X103740Y56620D01*
X103854Y56635D01*
X103960Y56679D01*
X104051Y56749D01*
X104121Y56840D01*
X104165Y56946D01*
X104180Y57060D01*
X104165Y57174D01*
X104121Y57280D01*
X104051Y57371D01*
X103960Y57441D01*
X103854Y57485D01*
X103740Y57500D01*
D02*
G37*
G36*
X95860D02*
X95746Y57485D01*
X95640Y57441D01*
X95549Y57371D01*
X95479Y57280D01*
X95435Y57174D01*
X95420Y57060D01*
X95435Y56946D01*
X95479Y56840D01*
X95549Y56749D01*
X95640Y56679D01*
X95746Y56635D01*
X95860Y56620D01*
X95974Y56635D01*
X96080Y56679D01*
X96171Y56749D01*
X96241Y56840D01*
X96285Y56946D01*
X96300Y57060D01*
X96285Y57174D01*
X96241Y57280D01*
X96171Y57371D01*
X96080Y57441D01*
X95974Y57485D01*
X95860Y57500D01*
D02*
G37*
G36*
X110820Y58500D02*
X110706Y58485D01*
X110600Y58441D01*
X110509Y58371D01*
X110439Y58280D01*
X110395Y58174D01*
X110380Y58060D01*
X110395Y57946D01*
X110439Y57840D01*
X110509Y57749D01*
X110600Y57679D01*
X110706Y57635D01*
X110820Y57620D01*
X110934Y57635D01*
X111040Y57679D01*
X111131Y57749D01*
X111201Y57840D01*
X111245Y57946D01*
X111260Y58060D01*
X111245Y58174D01*
X111201Y58280D01*
X111131Y58371D01*
X111040Y58441D01*
X110934Y58485D01*
X110820Y58500D01*
D02*
G37*
G36*
X176500Y60460D02*
X176386Y60445D01*
X176280Y60401D01*
X176189Y60331D01*
X176119Y60240D01*
X176075Y60134D01*
X176060Y60020D01*
X176075Y59906D01*
X176119Y59800D01*
X176189Y59709D01*
X176280Y59639D01*
X176386Y59595D01*
X176500Y59580D01*
X176614Y59595D01*
X176720Y59639D01*
X176811Y59709D01*
X176881Y59800D01*
X176925Y59906D01*
X176940Y60020D01*
X176925Y60134D01*
X176881Y60240D01*
X176811Y60331D01*
X176720Y60401D01*
X176614Y60445D01*
X176500Y60460D01*
D02*
G37*
G36*
X130040D02*
X129926Y60445D01*
X129820Y60401D01*
X129729Y60331D01*
X129659Y60240D01*
X129615Y60134D01*
X129600Y60020D01*
X129615Y59906D01*
X129659Y59800D01*
X129729Y59709D01*
X129820Y59639D01*
X129926Y59595D01*
X130040Y59580D01*
X130154Y59595D01*
X130260Y59639D01*
X130351Y59709D01*
X130421Y59800D01*
X130465Y59906D01*
X130480Y60020D01*
X130465Y60134D01*
X130421Y60240D01*
X130351Y60331D01*
X130260Y60401D01*
X130154Y60445D01*
X130040Y60460D01*
D02*
G37*
G36*
X101700Y60480D02*
X101586Y60465D01*
X101480Y60421D01*
X101389Y60351D01*
X101319Y60260D01*
X101275Y60154D01*
X101260Y60040D01*
X101275Y59926D01*
X101319Y59820D01*
X101389Y59729D01*
X101480Y59659D01*
X101586Y59615D01*
X101700Y59600D01*
X101814Y59615D01*
X101920Y59659D01*
X102011Y59729D01*
X102081Y59820D01*
X102125Y59926D01*
X102140Y60040D01*
X102125Y60154D01*
X102081Y60260D01*
X102011Y60351D01*
X101920Y60421D01*
X101814Y60465D01*
X101700Y60480D01*
D02*
G37*
G36*
X158390D02*
X158276Y60465D01*
X158170Y60421D01*
X158079Y60351D01*
X158009Y60260D01*
X157965Y60154D01*
X157950Y60040D01*
X157965Y59926D01*
X158009Y59820D01*
X158079Y59729D01*
X158170Y59659D01*
X158276Y59615D01*
X158390Y59600D01*
X158504Y59615D01*
X158610Y59659D01*
X158701Y59729D01*
X158771Y59820D01*
X158815Y59926D01*
X158830Y60040D01*
X158815Y60154D01*
X158771Y60260D01*
X158701Y60351D01*
X158610Y60421D01*
X158504Y60465D01*
X158390Y60480D01*
D02*
G37*
G36*
X148140D02*
X148026Y60465D01*
X147920Y60421D01*
X147829Y60351D01*
X147759Y60260D01*
X147715Y60154D01*
X147700Y60040D01*
X147715Y59926D01*
X147759Y59820D01*
X147829Y59729D01*
X147920Y59659D01*
X148026Y59615D01*
X148140Y59600D01*
X148254Y59615D01*
X148360Y59659D01*
X148451Y59729D01*
X148521Y59820D01*
X148565Y59926D01*
X148580Y60040D01*
X148565Y60154D01*
X148521Y60260D01*
X148451Y60351D01*
X148360Y60421D01*
X148254Y60465D01*
X148140Y60480D01*
D02*
G37*
G36*
X158390Y59480D02*
X158276Y59465D01*
X158170Y59421D01*
X158079Y59351D01*
X158009Y59260D01*
X157965Y59154D01*
X157950Y59040D01*
X157965Y58926D01*
X158009Y58820D01*
X158079Y58729D01*
X158170Y58659D01*
X158276Y58615D01*
X158390Y58600D01*
X158504Y58615D01*
X158610Y58659D01*
X158701Y58729D01*
X158771Y58820D01*
X158815Y58926D01*
X158830Y59040D01*
X158815Y59154D01*
X158771Y59260D01*
X158701Y59351D01*
X158610Y59421D01*
X158504Y59465D01*
X158390Y59480D01*
D02*
G37*
G36*
X148140D02*
X148026Y59465D01*
X147920Y59421D01*
X147829Y59351D01*
X147759Y59260D01*
X147715Y59154D01*
X147700Y59040D01*
X147715Y58926D01*
X147759Y58820D01*
X147829Y58729D01*
X147920Y58659D01*
X148026Y58615D01*
X148140Y58600D01*
X148254Y58615D01*
X148360Y58659D01*
X148451Y58729D01*
X148521Y58820D01*
X148565Y58926D01*
X148580Y59040D01*
X148565Y59154D01*
X148521Y59260D01*
X148451Y59351D01*
X148360Y59421D01*
X148254Y59465D01*
X148140Y59480D01*
D02*
G37*
G36*
X73360Y60460D02*
X73246Y60445D01*
X73140Y60401D01*
X73049Y60331D01*
X72979Y60240D01*
X72935Y60134D01*
X72920Y60020D01*
X72935Y59906D01*
X72979Y59800D01*
X73049Y59709D01*
X73140Y59639D01*
X73246Y59595D01*
X73360Y59580D01*
X73474Y59595D01*
X73580Y59639D01*
X73671Y59709D01*
X73741Y59800D01*
X73785Y59906D01*
X73800Y60020D01*
X73785Y60134D01*
X73741Y60240D01*
X73671Y60331D01*
X73580Y60401D01*
X73474Y60445D01*
X73360Y60460D01*
D02*
G37*
G36*
X119800D02*
X119686Y60445D01*
X119580Y60401D01*
X119489Y60331D01*
X119419Y60240D01*
X119375Y60134D01*
X119360Y60020D01*
X119375Y59906D01*
X119419Y59800D01*
X119489Y59709D01*
X119580Y59639D01*
X119686Y59595D01*
X119800Y59580D01*
X119914Y59595D01*
X120020Y59639D01*
X120111Y59709D01*
X120181Y59800D01*
X120225Y59906D01*
X120240Y60020D01*
X120225Y60134D01*
X120181Y60240D01*
X120111Y60331D01*
X120020Y60401D01*
X119914Y60445D01*
X119800Y60460D01*
D02*
G37*
G36*
X91460D02*
X91346Y60445D01*
X91240Y60401D01*
X91149Y60331D01*
X91079Y60240D01*
X91035Y60134D01*
X91020Y60020D01*
X91035Y59906D01*
X91079Y59800D01*
X91149Y59709D01*
X91240Y59639D01*
X91346Y59595D01*
X91460Y59580D01*
X91574Y59595D01*
X91680Y59639D01*
X91771Y59709D01*
X91841Y59800D01*
X91885Y59906D01*
X91900Y60020D01*
X91885Y60134D01*
X91841Y60240D01*
X91771Y60331D01*
X91680Y60401D01*
X91574Y60445D01*
X91460Y60460D01*
D02*
G37*
G36*
X158240Y63410D02*
X158126Y63395D01*
X158020Y63351D01*
X157929Y63281D01*
X157859Y63190D01*
X157815Y63084D01*
X157800Y62970D01*
X157815Y62856D01*
X157859Y62750D01*
X157929Y62659D01*
X158020Y62589D01*
X158126Y62545D01*
X158240Y62530D01*
X158354Y62545D01*
X158460Y62589D01*
X158551Y62659D01*
X158621Y62750D01*
X158665Y62856D01*
X158680Y62970D01*
X158665Y63084D01*
X158621Y63190D01*
X158551Y63281D01*
X158460Y63351D01*
X158354Y63395D01*
X158240Y63410D01*
D02*
G37*
G36*
X176340Y63400D02*
X176226Y63385D01*
X176120Y63341D01*
X176029Y63271D01*
X175959Y63180D01*
X175915Y63074D01*
X175900Y62960D01*
X175915Y62846D01*
X175959Y62740D01*
X176029Y62649D01*
X176120Y62579D01*
X176226Y62535D01*
X176340Y62520D01*
X176454Y62535D01*
X176560Y62579D01*
X176651Y62649D01*
X176721Y62740D01*
X176765Y62846D01*
X176780Y62960D01*
X176765Y63074D01*
X176721Y63180D01*
X176651Y63271D01*
X176560Y63341D01*
X176454Y63385D01*
X176340Y63400D01*
D02*
G37*
G36*
X101540Y63420D02*
X101426Y63405D01*
X101320Y63361D01*
X101229Y63291D01*
X101159Y63200D01*
X101115Y63094D01*
X101100Y62980D01*
X101115Y62866D01*
X101159Y62760D01*
X101229Y62669D01*
X101320Y62599D01*
X101426Y62555D01*
X101540Y62540D01*
X101654Y62555D01*
X101760Y62599D01*
X101851Y62669D01*
X101921Y62760D01*
X101965Y62866D01*
X101980Y62980D01*
X101965Y63094D01*
X101921Y63200D01*
X101851Y63291D01*
X101760Y63361D01*
X101654Y63405D01*
X101540Y63420D01*
D02*
G37*
G36*
X109240Y66254D02*
X109012Y66237D01*
X108791Y66183D01*
X108580Y66096D01*
X108385Y65977D01*
X108212Y65828D01*
X108063Y65655D01*
X107944Y65460D01*
X107857Y65249D01*
X107803Y65028D01*
X107786Y64800D01*
X107803Y64572D01*
X107857Y64351D01*
X107944Y64140D01*
X108063Y63945D01*
X108212Y63772D01*
X108385Y63623D01*
X108580Y63504D01*
X108791Y63417D01*
X109012Y63363D01*
X109240Y63346D01*
X109468Y63363D01*
X109689Y63417D01*
X109900Y63504D01*
X110095Y63623D01*
X110268Y63772D01*
X110417Y63945D01*
X110536Y64140D01*
X110623Y64351D01*
X110677Y64572D01*
X110694Y64800D01*
X110677Y65028D01*
X110623Y65249D01*
X110536Y65460D01*
X110417Y65655D01*
X110268Y65828D01*
X110095Y65977D01*
X109900Y66096D01*
X109689Y66183D01*
X109468Y66237D01*
X109240Y66254D01*
D02*
G37*
G36*
X80900D02*
X80672Y66237D01*
X80451Y66183D01*
X80240Y66096D01*
X80045Y65977D01*
X79872Y65828D01*
X79723Y65655D01*
X79604Y65460D01*
X79517Y65249D01*
X79463Y65028D01*
X79446Y64800D01*
X79463Y64572D01*
X79517Y64351D01*
X79604Y64140D01*
X79723Y63945D01*
X79872Y63772D01*
X80045Y63623D01*
X80240Y63504D01*
X80451Y63417D01*
X80672Y63363D01*
X80900Y63346D01*
X81128Y63363D01*
X81349Y63417D01*
X81560Y63504D01*
X81755Y63623D01*
X81928Y63772D01*
X82077Y63945D01*
X82196Y64140D01*
X82283Y64351D01*
X82337Y64572D01*
X82354Y64800D01*
X82337Y65028D01*
X82283Y65249D01*
X82196Y65460D01*
X82077Y65655D01*
X81928Y65828D01*
X81755Y65977D01*
X81560Y66096D01*
X81349Y66183D01*
X81128Y66237D01*
X80900Y66254D01*
D02*
G37*
G36*
X91300Y63400D02*
X91186Y63385D01*
X91080Y63341D01*
X90989Y63271D01*
X90919Y63180D01*
X90875Y63074D01*
X90860Y62960D01*
X90875Y62846D01*
X90919Y62740D01*
X90989Y62649D01*
X91080Y62579D01*
X91186Y62535D01*
X91300Y62520D01*
X91414Y62535D01*
X91520Y62579D01*
X91611Y62649D01*
X91681Y62740D01*
X91725Y62846D01*
X91740Y62960D01*
X91725Y63074D01*
X91681Y63180D01*
X91611Y63271D01*
X91520Y63341D01*
X91414Y63385D01*
X91300Y63400D01*
D02*
G37*
G36*
X73200D02*
X73086Y63385D01*
X72980Y63341D01*
X72889Y63271D01*
X72819Y63180D01*
X72775Y63074D01*
X72760Y62960D01*
X72775Y62846D01*
X72819Y62740D01*
X72889Y62649D01*
X72980Y62579D01*
X73086Y62535D01*
X73200Y62520D01*
X73314Y62535D01*
X73420Y62579D01*
X73511Y62649D01*
X73581Y62740D01*
X73625Y62846D01*
X73640Y62960D01*
X73625Y63074D01*
X73581Y63180D01*
X73511Y63271D01*
X73420Y63341D01*
X73314Y63385D01*
X73200Y63400D01*
D02*
G37*
G36*
X119640D02*
X119526Y63385D01*
X119420Y63341D01*
X119329Y63271D01*
X119259Y63180D01*
X119215Y63074D01*
X119200Y62960D01*
X119215Y62846D01*
X119259Y62740D01*
X119329Y62649D01*
X119420Y62579D01*
X119526Y62535D01*
X119640Y62520D01*
X119754Y62535D01*
X119860Y62579D01*
X119951Y62649D01*
X120021Y62740D01*
X120065Y62846D01*
X120080Y62960D01*
X120065Y63074D01*
X120021Y63180D01*
X119951Y63271D01*
X119860Y63341D01*
X119754Y63385D01*
X119640Y63400D01*
D02*
G37*
G36*
X148000D02*
X147886Y63385D01*
X147780Y63341D01*
X147689Y63271D01*
X147619Y63180D01*
X147575Y63074D01*
X147560Y62960D01*
X147575Y62846D01*
X147619Y62740D01*
X147689Y62649D01*
X147780Y62579D01*
X147886Y62535D01*
X148000Y62520D01*
X148114Y62535D01*
X148220Y62579D01*
X148311Y62649D01*
X148381Y62740D01*
X148425Y62846D01*
X148440Y62960D01*
X148425Y63074D01*
X148381Y63180D01*
X148311Y63271D01*
X148220Y63341D01*
X148114Y63385D01*
X148000Y63400D01*
D02*
G37*
G36*
X129880D02*
X129766Y63385D01*
X129660Y63341D01*
X129569Y63271D01*
X129499Y63180D01*
X129455Y63074D01*
X129440Y62960D01*
X129455Y62846D01*
X129499Y62740D01*
X129569Y62649D01*
X129660Y62579D01*
X129766Y62535D01*
X129880Y62520D01*
X129994Y62535D01*
X130100Y62579D01*
X130191Y62649D01*
X130261Y62740D01*
X130305Y62846D01*
X130320Y62960D01*
X130305Y63074D01*
X130261Y63180D01*
X130191Y63271D01*
X130100Y63341D01*
X129994Y63385D01*
X129880Y63400D01*
D02*
G37*
G36*
X146260Y58500D02*
X146146Y58485D01*
X146040Y58441D01*
X145949Y58371D01*
X145879Y58280D01*
X145835Y58174D01*
X145820Y58060D01*
X145835Y57946D01*
X145879Y57840D01*
X145949Y57749D01*
X146040Y57679D01*
X146146Y57635D01*
X146260Y57620D01*
X146374Y57635D01*
X146480Y57679D01*
X146571Y57749D01*
X146641Y57840D01*
X146685Y57946D01*
X146700Y58060D01*
X146685Y58174D01*
X146641Y58280D01*
X146571Y58371D01*
X146480Y58441D01*
X146374Y58485D01*
X146260Y58500D01*
D02*
G37*
G36*
X139160D02*
X139046Y58485D01*
X138940Y58441D01*
X138849Y58371D01*
X138779Y58280D01*
X138735Y58174D01*
X138720Y58060D01*
X138735Y57946D01*
X138779Y57840D01*
X138849Y57749D01*
X138940Y57679D01*
X139046Y57635D01*
X139160Y57620D01*
X139274Y57635D01*
X139380Y57679D01*
X139471Y57749D01*
X139541Y57840D01*
X139585Y57946D01*
X139600Y58060D01*
X139585Y58174D01*
X139541Y58280D01*
X139471Y58371D01*
X139380Y58441D01*
X139274Y58485D01*
X139160Y58500D01*
D02*
G37*
G36*
X152560D02*
X152446Y58485D01*
X152340Y58441D01*
X152249Y58371D01*
X152179Y58280D01*
X152135Y58174D01*
X152120Y58060D01*
X152135Y57946D01*
X152179Y57840D01*
X152249Y57749D01*
X152340Y57679D01*
X152446Y57635D01*
X152560Y57620D01*
X152674Y57635D01*
X152780Y57679D01*
X152871Y57749D01*
X152941Y57840D01*
X152985Y57946D01*
X153000Y58060D01*
X152985Y58174D01*
X152941Y58280D01*
X152871Y58371D01*
X152780Y58441D01*
X152674Y58485D01*
X152560Y58500D01*
D02*
G37*
G36*
X167510D02*
X167396Y58485D01*
X167290Y58441D01*
X167199Y58371D01*
X167129Y58280D01*
X167085Y58174D01*
X167070Y58060D01*
X167085Y57946D01*
X167129Y57840D01*
X167199Y57749D01*
X167290Y57679D01*
X167396Y57635D01*
X167510Y57620D01*
X167624Y57635D01*
X167730Y57679D01*
X167821Y57749D01*
X167891Y57840D01*
X167935Y57946D01*
X167950Y58060D01*
X167935Y58174D01*
X167891Y58280D01*
X167821Y58371D01*
X167730Y58441D01*
X167624Y58485D01*
X167510Y58500D01*
D02*
G37*
G36*
X160430D02*
X160316Y58485D01*
X160210Y58441D01*
X160119Y58371D01*
X160049Y58280D01*
X160005Y58174D01*
X159990Y58060D01*
X160005Y57946D01*
X160049Y57840D01*
X160119Y57749D01*
X160210Y57679D01*
X160316Y57635D01*
X160430Y57620D01*
X160544Y57635D01*
X160650Y57679D01*
X160741Y57749D01*
X160811Y57840D01*
X160855Y57946D01*
X160870Y58060D01*
X160855Y58174D01*
X160811Y58280D01*
X160741Y58371D01*
X160650Y58441D01*
X160544Y58485D01*
X160430Y58500D01*
D02*
G37*
G36*
X117920D02*
X117806Y58485D01*
X117700Y58441D01*
X117609Y58371D01*
X117539Y58280D01*
X117495Y58174D01*
X117480Y58060D01*
X117495Y57946D01*
X117539Y57840D01*
X117609Y57749D01*
X117700Y57679D01*
X117806Y57635D01*
X117920Y57620D01*
X118034Y57635D01*
X118140Y57679D01*
X118231Y57749D01*
X118301Y57840D01*
X118345Y57946D01*
X118360Y58060D01*
X118345Y58174D01*
X118301Y58280D01*
X118231Y58371D01*
X118140Y58441D01*
X118034Y58485D01*
X117920Y58500D01*
D02*
G37*
G36*
X114380D02*
X114266Y58485D01*
X114160Y58441D01*
X114069Y58371D01*
X113999Y58280D01*
X113955Y58174D01*
X113940Y58060D01*
X113955Y57946D01*
X113999Y57840D01*
X114069Y57749D01*
X114160Y57679D01*
X114266Y57635D01*
X114380Y57620D01*
X114494Y57635D01*
X114600Y57679D01*
X114691Y57749D01*
X114761Y57840D01*
X114805Y57946D01*
X114820Y58060D01*
X114805Y58174D01*
X114761Y58280D01*
X114691Y58371D01*
X114600Y58441D01*
X114494Y58485D01*
X114380Y58500D01*
D02*
G37*
G36*
X124220D02*
X124106Y58485D01*
X124000Y58441D01*
X123909Y58371D01*
X123839Y58280D01*
X123795Y58174D01*
X123780Y58060D01*
X123795Y57946D01*
X123839Y57840D01*
X123909Y57749D01*
X124000Y57679D01*
X124106Y57635D01*
X124220Y57620D01*
X124334Y57635D01*
X124440Y57679D01*
X124531Y57749D01*
X124601Y57840D01*
X124645Y57946D01*
X124660Y58060D01*
X124645Y58174D01*
X124601Y58280D01*
X124531Y58371D01*
X124440Y58441D01*
X124334Y58485D01*
X124220Y58500D01*
D02*
G37*
G36*
X135620D02*
X135506Y58485D01*
X135400Y58441D01*
X135309Y58371D01*
X135239Y58280D01*
X135195Y58174D01*
X135180Y58060D01*
X135195Y57946D01*
X135239Y57840D01*
X135309Y57749D01*
X135400Y57679D01*
X135506Y57635D01*
X135620Y57620D01*
X135734Y57635D01*
X135840Y57679D01*
X135931Y57749D01*
X136001Y57840D01*
X136045Y57946D01*
X136060Y58060D01*
X136045Y58174D01*
X136001Y58280D01*
X135931Y58371D01*
X135840Y58441D01*
X135734Y58485D01*
X135620Y58500D01*
D02*
G37*
G36*
X132080D02*
X131966Y58485D01*
X131860Y58441D01*
X131769Y58371D01*
X131699Y58280D01*
X131655Y58174D01*
X131640Y58060D01*
X131655Y57946D01*
X131699Y57840D01*
X131769Y57749D01*
X131860Y57679D01*
X131966Y57635D01*
X132080Y57620D01*
X132194Y57635D01*
X132300Y57679D01*
X132391Y57749D01*
X132461Y57840D01*
X132505Y57946D01*
X132520Y58060D01*
X132505Y58174D01*
X132461Y58280D01*
X132391Y58371D01*
X132300Y58441D01*
X132194Y58485D01*
X132080Y58500D01*
D02*
G37*
G36*
X119800Y59460D02*
X119686Y59445D01*
X119580Y59401D01*
X119489Y59331D01*
X119419Y59240D01*
X119375Y59134D01*
X119360Y59020D01*
X119375Y58906D01*
X119419Y58800D01*
X119489Y58709D01*
X119580Y58639D01*
X119686Y58595D01*
X119800Y58580D01*
X119914Y58595D01*
X120020Y58639D01*
X120111Y58709D01*
X120181Y58800D01*
X120225Y58906D01*
X120240Y59020D01*
X120225Y59134D01*
X120181Y59240D01*
X120111Y59331D01*
X120020Y59401D01*
X119914Y59445D01*
X119800Y59460D01*
D02*
G37*
G36*
X91460D02*
X91346Y59445D01*
X91240Y59401D01*
X91149Y59331D01*
X91079Y59240D01*
X91035Y59134D01*
X91020Y59020D01*
X91035Y58906D01*
X91079Y58800D01*
X91149Y58709D01*
X91240Y58639D01*
X91346Y58595D01*
X91460Y58580D01*
X91574Y58595D01*
X91680Y58639D01*
X91771Y58709D01*
X91841Y58800D01*
X91885Y58906D01*
X91900Y59020D01*
X91885Y59134D01*
X91841Y59240D01*
X91771Y59331D01*
X91680Y59401D01*
X91574Y59445D01*
X91460Y59460D01*
D02*
G37*
G36*
X130040D02*
X129926Y59445D01*
X129820Y59401D01*
X129729Y59331D01*
X129659Y59240D01*
X129615Y59134D01*
X129600Y59020D01*
X129615Y58906D01*
X129659Y58800D01*
X129729Y58709D01*
X129820Y58639D01*
X129926Y58595D01*
X130040Y58580D01*
X130154Y58595D01*
X130260Y58639D01*
X130351Y58709D01*
X130421Y58800D01*
X130465Y58906D01*
X130480Y59020D01*
X130465Y59134D01*
X130421Y59240D01*
X130351Y59331D01*
X130260Y59401D01*
X130154Y59445D01*
X130040Y59460D01*
D02*
G37*
G36*
X101700Y59480D02*
X101586Y59465D01*
X101480Y59421D01*
X101389Y59351D01*
X101319Y59260D01*
X101275Y59154D01*
X101260Y59040D01*
X101275Y58926D01*
X101319Y58820D01*
X101389Y58729D01*
X101480Y58659D01*
X101586Y58615D01*
X101700Y58600D01*
X101814Y58615D01*
X101920Y58659D01*
X102011Y58729D01*
X102081Y58820D01*
X102125Y58926D01*
X102140Y59040D01*
X102125Y59154D01*
X102081Y59260D01*
X102011Y59351D01*
X101920Y59421D01*
X101814Y59465D01*
X101700Y59480D01*
D02*
G37*
G36*
X176500Y59460D02*
X176386Y59445D01*
X176280Y59401D01*
X176189Y59331D01*
X176119Y59240D01*
X176075Y59134D01*
X176060Y59020D01*
X176075Y58906D01*
X176119Y58800D01*
X176189Y58709D01*
X176280Y58639D01*
X176386Y58595D01*
X176500Y58580D01*
X176614Y58595D01*
X176720Y58639D01*
X176811Y58709D01*
X176881Y58800D01*
X176925Y58906D01*
X176940Y59020D01*
X176925Y59134D01*
X176881Y59240D01*
X176811Y59331D01*
X176720Y59401D01*
X176614Y59445D01*
X176500Y59460D01*
D02*
G37*
G36*
X163980Y58510D02*
X163866Y58495D01*
X163760Y58451D01*
X163669Y58381D01*
X163599Y58290D01*
X163555Y58184D01*
X163540Y58070D01*
X163555Y57956D01*
X163599Y57850D01*
X163669Y57759D01*
X163760Y57689D01*
X163866Y57645D01*
X163980Y57630D01*
X164094Y57645D01*
X164200Y57689D01*
X164291Y57759D01*
X164361Y57850D01*
X164405Y57956D01*
X164420Y58070D01*
X164405Y58184D01*
X164361Y58290D01*
X164291Y58381D01*
X164200Y58451D01*
X164094Y58495D01*
X163980Y58510D01*
D02*
G37*
G36*
X174610Y58500D02*
X174496Y58485D01*
X174390Y58441D01*
X174299Y58371D01*
X174229Y58280D01*
X174185Y58174D01*
X174170Y58060D01*
X174185Y57946D01*
X174229Y57840D01*
X174299Y57749D01*
X174390Y57679D01*
X174496Y57635D01*
X174610Y57620D01*
X174724Y57635D01*
X174830Y57679D01*
X174921Y57749D01*
X174991Y57840D01*
X175035Y57946D01*
X175050Y58060D01*
X175035Y58174D01*
X174991Y58280D01*
X174921Y58371D01*
X174830Y58441D01*
X174724Y58485D01*
X174610Y58500D01*
D02*
G37*
G36*
X171060Y58510D02*
X170946Y58495D01*
X170840Y58451D01*
X170749Y58381D01*
X170679Y58290D01*
X170635Y58184D01*
X170620Y58070D01*
X170635Y57956D01*
X170679Y57850D01*
X170749Y57759D01*
X170840Y57689D01*
X170946Y57645D01*
X171060Y57630D01*
X171174Y57645D01*
X171280Y57689D01*
X171371Y57759D01*
X171441Y57850D01*
X171485Y57956D01*
X171500Y58070D01*
X171485Y58184D01*
X171441Y58290D01*
X171371Y58381D01*
X171280Y58451D01*
X171174Y58495D01*
X171060Y58510D01*
D02*
G37*
G36*
X73360Y59460D02*
X73246Y59445D01*
X73140Y59401D01*
X73049Y59331D01*
X72979Y59240D01*
X72935Y59134D01*
X72920Y59020D01*
X72935Y58906D01*
X72979Y58800D01*
X73049Y58709D01*
X73140Y58639D01*
X73246Y58595D01*
X73360Y58580D01*
X73474Y58595D01*
X73580Y58639D01*
X73671Y58709D01*
X73741Y58800D01*
X73785Y58906D01*
X73800Y59020D01*
X73785Y59134D01*
X73741Y59240D01*
X73671Y59331D01*
X73580Y59401D01*
X73474Y59445D01*
X73360Y59460D01*
D02*
G37*
G36*
X86020Y58520D02*
X85906Y58505D01*
X85800Y58461D01*
X85709Y58391D01*
X85639Y58300D01*
X85595Y58194D01*
X85580Y58080D01*
X85595Y57966D01*
X85639Y57860D01*
X85709Y57769D01*
X85800Y57699D01*
X85906Y57655D01*
X86020Y57640D01*
X86134Y57655D01*
X86240Y57699D01*
X86331Y57769D01*
X86401Y57860D01*
X86445Y57966D01*
X86460Y58080D01*
X86445Y58194D01*
X86401Y58300D01*
X86331Y58391D01*
X86240Y58461D01*
X86134Y58505D01*
X86020Y58520D01*
D02*
G37*
G36*
X118380Y94900D02*
X118266Y94885D01*
X118160Y94841D01*
X118069Y94771D01*
X117999Y94680D01*
X117955Y94574D01*
X117940Y94460D01*
X117955Y94346D01*
X117999Y94240D01*
X118069Y94149D01*
X118160Y94079D01*
X118266Y94035D01*
X118380Y94020D01*
X118494Y94035D01*
X118600Y94079D01*
X118691Y94149D01*
X118761Y94240D01*
X118805Y94346D01*
X118820Y94460D01*
X118805Y94574D01*
X118761Y94680D01*
X118691Y94771D01*
X118600Y94841D01*
X118494Y94885D01*
X118380Y94900D01*
D02*
G37*
G36*
X100280D02*
X100166Y94885D01*
X100060Y94841D01*
X99969Y94771D01*
X99899Y94680D01*
X99855Y94574D01*
X99840Y94460D01*
X99855Y94346D01*
X99899Y94240D01*
X99969Y94149D01*
X100060Y94079D01*
X100166Y94035D01*
X100280Y94020D01*
X100394Y94035D01*
X100500Y94079D01*
X100591Y94149D01*
X100661Y94240D01*
X100705Y94346D01*
X100720Y94460D01*
X100705Y94574D01*
X100661Y94680D01*
X100591Y94771D01*
X100500Y94841D01*
X100394Y94885D01*
X100280Y94900D01*
D02*
G37*
G36*
X128620D02*
X128506Y94885D01*
X128400Y94841D01*
X128309Y94771D01*
X128239Y94680D01*
X128195Y94574D01*
X128180Y94460D01*
X128195Y94346D01*
X128239Y94240D01*
X128309Y94149D01*
X128400Y94079D01*
X128506Y94035D01*
X128620Y94020D01*
X128734Y94035D01*
X128840Y94079D01*
X128931Y94149D01*
X129001Y94240D01*
X129045Y94346D01*
X129060Y94460D01*
X129045Y94574D01*
X129001Y94680D01*
X128931Y94771D01*
X128840Y94841D01*
X128734Y94885D01*
X128620Y94900D01*
D02*
G37*
G36*
X175070D02*
X174956Y94885D01*
X174850Y94841D01*
X174759Y94771D01*
X174689Y94680D01*
X174645Y94574D01*
X174630Y94460D01*
X174645Y94346D01*
X174689Y94240D01*
X174759Y94149D01*
X174850Y94079D01*
X174956Y94035D01*
X175070Y94020D01*
X175184Y94035D01*
X175290Y94079D01*
X175381Y94149D01*
X175451Y94240D01*
X175495Y94346D01*
X175510Y94460D01*
X175495Y94574D01*
X175451Y94680D01*
X175381Y94771D01*
X175290Y94841D01*
X175184Y94885D01*
X175070Y94900D01*
D02*
G37*
G36*
X146720D02*
X146606Y94885D01*
X146500Y94841D01*
X146409Y94771D01*
X146339Y94680D01*
X146295Y94574D01*
X146280Y94460D01*
X146295Y94346D01*
X146339Y94240D01*
X146409Y94149D01*
X146500Y94079D01*
X146606Y94035D01*
X146720Y94020D01*
X146834Y94035D01*
X146940Y94079D01*
X147031Y94149D01*
X147101Y94240D01*
X147145Y94346D01*
X147160Y94460D01*
X147145Y94574D01*
X147101Y94680D01*
X147031Y94771D01*
X146940Y94841D01*
X146834Y94885D01*
X146720Y94900D01*
D02*
G37*
G36*
X157140Y91990D02*
X157026Y91975D01*
X156920Y91931D01*
X156829Y91861D01*
X156759Y91770D01*
X156715Y91664D01*
X156700Y91550D01*
X156715Y91436D01*
X156759Y91330D01*
X156829Y91239D01*
X156920Y91169D01*
X157026Y91125D01*
X157140Y91110D01*
X157254Y91125D01*
X157360Y91169D01*
X157451Y91239D01*
X157521Y91330D01*
X157565Y91436D01*
X157580Y91550D01*
X157565Y91664D01*
X157521Y91770D01*
X157451Y91861D01*
X157360Y91931D01*
X157254Y91975D01*
X157140Y91990D01*
D02*
G37*
G36*
X128780Y91980D02*
X128666Y91965D01*
X128560Y91921D01*
X128469Y91851D01*
X128399Y91760D01*
X128355Y91654D01*
X128340Y91540D01*
X128355Y91426D01*
X128399Y91320D01*
X128469Y91229D01*
X128560Y91159D01*
X128666Y91115D01*
X128780Y91100D01*
X128894Y91115D01*
X129000Y91159D01*
X129091Y91229D01*
X129161Y91320D01*
X129205Y91426D01*
X129220Y91540D01*
X129205Y91654D01*
X129161Y91760D01*
X129091Y91851D01*
X129000Y91921D01*
X128894Y91965D01*
X128780Y91980D01*
D02*
G37*
G36*
X90040Y94880D02*
X89926Y94865D01*
X89820Y94821D01*
X89729Y94751D01*
X89659Y94660D01*
X89615Y94554D01*
X89600Y94440D01*
X89615Y94326D01*
X89659Y94220D01*
X89729Y94129D01*
X89820Y94059D01*
X89926Y94015D01*
X90040Y94000D01*
X90154Y94015D01*
X90260Y94059D01*
X90351Y94129D01*
X90421Y94220D01*
X90465Y94326D01*
X90480Y94440D01*
X90465Y94554D01*
X90421Y94660D01*
X90351Y94751D01*
X90260Y94821D01*
X90154Y94865D01*
X90040Y94880D01*
D02*
G37*
G36*
X71920Y94900D02*
X71806Y94885D01*
X71700Y94841D01*
X71609Y94771D01*
X71539Y94680D01*
X71495Y94574D01*
X71480Y94460D01*
X71495Y94346D01*
X71539Y94240D01*
X71609Y94149D01*
X71700Y94079D01*
X71806Y94035D01*
X71920Y94020D01*
X72034Y94035D01*
X72140Y94079D01*
X72231Y94149D01*
X72301Y94240D01*
X72345Y94346D01*
X72360Y94460D01*
X72345Y94574D01*
X72301Y94680D01*
X72231Y94771D01*
X72140Y94841D01*
X72034Y94885D01*
X71920Y94900D01*
D02*
G37*
G36*
X156990Y94890D02*
X156876Y94875D01*
X156770Y94831D01*
X156679Y94761D01*
X156609Y94670D01*
X156565Y94564D01*
X156550Y94450D01*
X156565Y94336D01*
X156609Y94230D01*
X156679Y94139D01*
X156770Y94069D01*
X156876Y94025D01*
X156990Y94010D01*
X157104Y94025D01*
X157210Y94069D01*
X157301Y94139D01*
X157371Y94230D01*
X157415Y94336D01*
X157430Y94450D01*
X157415Y94564D01*
X157371Y94670D01*
X157301Y94761D01*
X157210Y94831D01*
X157104Y94875D01*
X156990Y94890D01*
D02*
G37*
G36*
X146720Y95900D02*
X146606Y95885D01*
X146500Y95841D01*
X146409Y95771D01*
X146339Y95680D01*
X146295Y95574D01*
X146280Y95460D01*
X146295Y95346D01*
X146339Y95240D01*
X146409Y95149D01*
X146500Y95079D01*
X146606Y95035D01*
X146720Y95020D01*
X146834Y95035D01*
X146940Y95079D01*
X147031Y95149D01*
X147101Y95240D01*
X147145Y95346D01*
X147160Y95460D01*
X147145Y95574D01*
X147101Y95680D01*
X147031Y95771D01*
X146940Y95841D01*
X146834Y95885D01*
X146720Y95900D01*
D02*
G37*
G36*
X128620D02*
X128506Y95885D01*
X128400Y95841D01*
X128309Y95771D01*
X128239Y95680D01*
X128195Y95574D01*
X128180Y95460D01*
X128195Y95346D01*
X128239Y95240D01*
X128309Y95149D01*
X128400Y95079D01*
X128506Y95035D01*
X128620Y95020D01*
X128734Y95035D01*
X128840Y95079D01*
X128931Y95149D01*
X129001Y95240D01*
X129045Y95346D01*
X129060Y95460D01*
X129045Y95574D01*
X129001Y95680D01*
X128931Y95771D01*
X128840Y95841D01*
X128734Y95885D01*
X128620Y95900D01*
D02*
G37*
G36*
X175070D02*
X174956Y95885D01*
X174850Y95841D01*
X174759Y95771D01*
X174689Y95680D01*
X174645Y95574D01*
X174630Y95460D01*
X174645Y95346D01*
X174689Y95240D01*
X174759Y95149D01*
X174850Y95079D01*
X174956Y95035D01*
X175070Y95020D01*
X175184Y95035D01*
X175290Y95079D01*
X175381Y95149D01*
X175451Y95240D01*
X175495Y95346D01*
X175510Y95460D01*
X175495Y95574D01*
X175451Y95680D01*
X175381Y95771D01*
X175290Y95841D01*
X175184Y95885D01*
X175070Y95900D01*
D02*
G37*
G36*
X73820Y96860D02*
X73706Y96845D01*
X73600Y96801D01*
X73509Y96731D01*
X73439Y96640D01*
X73395Y96534D01*
X73380Y96420D01*
X73395Y96306D01*
X73439Y96200D01*
X73509Y96109D01*
X73600Y96039D01*
X73706Y95995D01*
X73820Y95980D01*
X73934Y95995D01*
X74040Y96039D01*
X74131Y96109D01*
X74201Y96200D01*
X74245Y96306D01*
X74260Y96420D01*
X74245Y96534D01*
X74201Y96640D01*
X74131Y96731D01*
X74040Y96801D01*
X73934Y96845D01*
X73820Y96860D01*
D02*
G37*
G36*
X88000Y96840D02*
X87886Y96825D01*
X87780Y96781D01*
X87689Y96711D01*
X87619Y96620D01*
X87575Y96514D01*
X87560Y96400D01*
X87575Y96286D01*
X87619Y96180D01*
X87689Y96089D01*
X87780Y96019D01*
X87886Y95975D01*
X88000Y95960D01*
X88114Y95975D01*
X88220Y96019D01*
X88311Y96089D01*
X88381Y96180D01*
X88425Y96286D01*
X88440Y96400D01*
X88425Y96514D01*
X88381Y96620D01*
X88311Y96711D01*
X88220Y96781D01*
X88114Y96825D01*
X88000Y96840D01*
D02*
G37*
G36*
X156990Y95890D02*
X156876Y95875D01*
X156770Y95831D01*
X156679Y95761D01*
X156609Y95670D01*
X156565Y95564D01*
X156550Y95450D01*
X156565Y95336D01*
X156609Y95230D01*
X156679Y95139D01*
X156770Y95069D01*
X156876Y95025D01*
X156990Y95010D01*
X157104Y95025D01*
X157210Y95069D01*
X157301Y95139D01*
X157371Y95230D01*
X157415Y95336D01*
X157430Y95450D01*
X157415Y95564D01*
X157371Y95670D01*
X157301Y95761D01*
X157210Y95831D01*
X157104Y95875D01*
X156990Y95890D01*
D02*
G37*
G36*
X90040Y95880D02*
X89926Y95865D01*
X89820Y95821D01*
X89729Y95751D01*
X89659Y95660D01*
X89615Y95554D01*
X89600Y95440D01*
X89615Y95326D01*
X89659Y95220D01*
X89729Y95129D01*
X89820Y95059D01*
X89926Y95015D01*
X90040Y95000D01*
X90154Y95015D01*
X90260Y95059D01*
X90351Y95129D01*
X90421Y95220D01*
X90465Y95326D01*
X90480Y95440D01*
X90465Y95554D01*
X90421Y95660D01*
X90351Y95751D01*
X90260Y95821D01*
X90154Y95865D01*
X90040Y95880D01*
D02*
G37*
G36*
X71920Y95900D02*
X71806Y95885D01*
X71700Y95841D01*
X71609Y95771D01*
X71539Y95680D01*
X71495Y95574D01*
X71480Y95460D01*
X71495Y95346D01*
X71539Y95240D01*
X71609Y95149D01*
X71700Y95079D01*
X71806Y95035D01*
X71920Y95020D01*
X72034Y95035D01*
X72140Y95079D01*
X72231Y95149D01*
X72301Y95240D01*
X72345Y95346D01*
X72360Y95460D01*
X72345Y95574D01*
X72301Y95680D01*
X72231Y95771D01*
X72140Y95841D01*
X72034Y95885D01*
X71920Y95900D01*
D02*
G37*
G36*
X118380D02*
X118266Y95885D01*
X118160Y95841D01*
X118069Y95771D01*
X117999Y95680D01*
X117955Y95574D01*
X117940Y95460D01*
X117955Y95346D01*
X117999Y95240D01*
X118069Y95149D01*
X118160Y95079D01*
X118266Y95035D01*
X118380Y95020D01*
X118494Y95035D01*
X118600Y95079D01*
X118691Y95149D01*
X118761Y95240D01*
X118805Y95346D01*
X118820Y95460D01*
X118805Y95574D01*
X118761Y95680D01*
X118691Y95771D01*
X118600Y95841D01*
X118494Y95885D01*
X118380Y95900D01*
D02*
G37*
G36*
X100280D02*
X100166Y95885D01*
X100060Y95841D01*
X99969Y95771D01*
X99899Y95680D01*
X99855Y95574D01*
X99840Y95460D01*
X99855Y95346D01*
X99899Y95240D01*
X99969Y95149D01*
X100060Y95079D01*
X100166Y95035D01*
X100280Y95020D01*
X100394Y95035D01*
X100500Y95079D01*
X100591Y95149D01*
X100661Y95240D01*
X100705Y95346D01*
X100720Y95460D01*
X100705Y95574D01*
X100661Y95680D01*
X100591Y95771D01*
X100500Y95841D01*
X100394Y95885D01*
X100280Y95900D01*
D02*
G37*
G36*
X90200Y90940D02*
X90086Y90925D01*
X89980Y90881D01*
X89889Y90811D01*
X89819Y90720D01*
X89775Y90614D01*
X89760Y90500D01*
X89775Y90386D01*
X89819Y90280D01*
X89889Y90189D01*
X89980Y90119D01*
X90086Y90075D01*
X90200Y90060D01*
X90314Y90075D01*
X90420Y90119D01*
X90511Y90189D01*
X90581Y90280D01*
X90625Y90386D01*
X90640Y90500D01*
X90625Y90614D01*
X90581Y90720D01*
X90511Y90811D01*
X90420Y90881D01*
X90314Y90925D01*
X90200Y90940D01*
D02*
G37*
G36*
X165940Y92454D02*
X165712Y92437D01*
X165491Y92383D01*
X165280Y92296D01*
X165085Y92177D01*
X164912Y92028D01*
X164763Y91855D01*
X164644Y91660D01*
X164557Y91449D01*
X164503Y91228D01*
X164486Y91000D01*
X164503Y90772D01*
X164557Y90551D01*
X164644Y90340D01*
X164763Y90145D01*
X164912Y89972D01*
X165085Y89823D01*
X165280Y89704D01*
X165491Y89617D01*
X165712Y89563D01*
X165940Y89546D01*
X166168Y89563D01*
X166389Y89617D01*
X166600Y89704D01*
X166795Y89823D01*
X166968Y89972D01*
X167117Y90145D01*
X167236Y90340D01*
X167323Y90551D01*
X167377Y90772D01*
X167394Y91000D01*
X167377Y91228D01*
X167323Y91449D01*
X167236Y91660D01*
X167117Y91855D01*
X166968Y92028D01*
X166795Y92177D01*
X166600Y92296D01*
X166389Y92383D01*
X166168Y92437D01*
X165940Y92454D01*
D02*
G37*
G36*
X72080Y90960D02*
X71966Y90945D01*
X71860Y90901D01*
X71769Y90831D01*
X71699Y90740D01*
X71655Y90634D01*
X71640Y90520D01*
X71655Y90406D01*
X71699Y90300D01*
X71769Y90209D01*
X71860Y90139D01*
X71966Y90095D01*
X72080Y90080D01*
X72194Y90095D01*
X72300Y90139D01*
X72391Y90209D01*
X72461Y90300D01*
X72505Y90406D01*
X72520Y90520D01*
X72505Y90634D01*
X72461Y90740D01*
X72391Y90831D01*
X72300Y90901D01*
X72194Y90945D01*
X72080Y90960D01*
D02*
G37*
G36*
X146900D02*
X146786Y90945D01*
X146680Y90901D01*
X146589Y90831D01*
X146519Y90740D01*
X146475Y90634D01*
X146460Y90520D01*
X146475Y90406D01*
X146519Y90300D01*
X146589Y90209D01*
X146680Y90139D01*
X146786Y90095D01*
X146900Y90080D01*
X147014Y90095D01*
X147120Y90139D01*
X147211Y90209D01*
X147281Y90300D01*
X147325Y90406D01*
X147340Y90520D01*
X147325Y90634D01*
X147281Y90740D01*
X147211Y90831D01*
X147120Y90901D01*
X147014Y90945D01*
X146900Y90960D01*
D02*
G37*
G36*
X100440D02*
X100326Y90945D01*
X100220Y90901D01*
X100129Y90831D01*
X100059Y90740D01*
X100015Y90634D01*
X100000Y90520D01*
X100015Y90406D01*
X100059Y90300D01*
X100129Y90209D01*
X100220Y90139D01*
X100326Y90095D01*
X100440Y90080D01*
X100554Y90095D01*
X100660Y90139D01*
X100751Y90209D01*
X100821Y90300D01*
X100865Y90406D01*
X100880Y90520D01*
X100865Y90634D01*
X100821Y90740D01*
X100751Y90831D01*
X100660Y90901D01*
X100554Y90945D01*
X100440Y90960D01*
D02*
G37*
G36*
X183550Y89504D02*
X183433Y89488D01*
X183323Y89443D01*
X183229Y89371D01*
X183157Y89277D01*
X183112Y89167D01*
X183096Y89050D01*
X183112Y88933D01*
X183157Y88823D01*
X183229Y88729D01*
X183323Y88657D01*
X183433Y88612D01*
X183550Y88596D01*
X183667Y88612D01*
X183777Y88657D01*
X183871Y88729D01*
X183943Y88823D01*
X183988Y88933D01*
X184004Y89050D01*
X183988Y89167D01*
X183943Y89277D01*
X183871Y89371D01*
X183777Y89443D01*
X183667Y89488D01*
X183550Y89504D01*
D02*
G37*
G36*
X157290Y88040D02*
X157176Y88025D01*
X157070Y87981D01*
X156979Y87911D01*
X156909Y87820D01*
X156865Y87714D01*
X156850Y87600D01*
X156865Y87486D01*
X156909Y87380D01*
X156979Y87289D01*
X157070Y87219D01*
X157176Y87175D01*
X157290Y87160D01*
X157404Y87175D01*
X157510Y87219D01*
X157601Y87289D01*
X157671Y87380D01*
X157715Y87486D01*
X157730Y87600D01*
X157715Y87714D01*
X157671Y87820D01*
X157601Y87911D01*
X157510Y87981D01*
X157404Y88025D01*
X157290Y88040D01*
D02*
G37*
G36*
X80900Y92454D02*
X80672Y92437D01*
X80451Y92383D01*
X80240Y92296D01*
X80045Y92177D01*
X79872Y92028D01*
X79723Y91855D01*
X79604Y91660D01*
X79517Y91449D01*
X79463Y91228D01*
X79446Y91000D01*
X79463Y90772D01*
X79517Y90551D01*
X79604Y90340D01*
X79723Y90145D01*
X79872Y89972D01*
X80045Y89823D01*
X80240Y89704D01*
X80451Y89617D01*
X80672Y89563D01*
X80900Y89546D01*
X81128Y89563D01*
X81349Y89617D01*
X81560Y89704D01*
X81755Y89823D01*
X81928Y89972D01*
X82077Y90145D01*
X82196Y90340D01*
X82283Y90551D01*
X82337Y90772D01*
X82354Y91000D01*
X82337Y91228D01*
X82283Y91449D01*
X82196Y91660D01*
X82077Y91855D01*
X81928Y92028D01*
X81755Y92177D01*
X81560Y92296D01*
X81349Y92383D01*
X81128Y92437D01*
X80900Y92454D01*
D02*
G37*
G36*
X137600D02*
X137372Y92437D01*
X137151Y92383D01*
X136940Y92296D01*
X136745Y92177D01*
X136572Y92028D01*
X136423Y91855D01*
X136304Y91660D01*
X136217Y91449D01*
X136163Y91228D01*
X136146Y91000D01*
X136163Y90772D01*
X136217Y90551D01*
X136304Y90340D01*
X136423Y90145D01*
X136572Y89972D01*
X136745Y89823D01*
X136940Y89704D01*
X137151Y89617D01*
X137372Y89563D01*
X137600Y89546D01*
X137828Y89563D01*
X138049Y89617D01*
X138260Y89704D01*
X138455Y89823D01*
X138628Y89972D01*
X138777Y90145D01*
X138896Y90340D01*
X138983Y90551D01*
X139037Y90772D01*
X139054Y91000D01*
X139037Y91228D01*
X138983Y91449D01*
X138896Y91660D01*
X138777Y91855D01*
X138628Y92028D01*
X138455Y92177D01*
X138260Y92296D01*
X138049Y92383D01*
X137828Y92437D01*
X137600Y92454D01*
D02*
G37*
G36*
X109240D02*
X109012Y92437D01*
X108791Y92383D01*
X108580Y92296D01*
X108385Y92177D01*
X108212Y92028D01*
X108063Y91855D01*
X107944Y91660D01*
X107857Y91449D01*
X107803Y91228D01*
X107786Y91000D01*
X107803Y90772D01*
X107857Y90551D01*
X107944Y90340D01*
X108063Y90145D01*
X108212Y89972D01*
X108385Y89823D01*
X108580Y89704D01*
X108791Y89617D01*
X109012Y89563D01*
X109240Y89546D01*
X109468Y89563D01*
X109689Y89617D01*
X109900Y89704D01*
X110095Y89823D01*
X110268Y89972D01*
X110417Y90145D01*
X110536Y90340D01*
X110623Y90551D01*
X110677Y90772D01*
X110694Y91000D01*
X110677Y91228D01*
X110623Y91449D01*
X110536Y91660D01*
X110417Y91855D01*
X110268Y92028D01*
X110095Y92177D01*
X109900Y92296D01*
X109689Y92383D01*
X109468Y92437D01*
X109240Y92454D01*
D02*
G37*
G36*
X100440Y91960D02*
X100326Y91945D01*
X100220Y91901D01*
X100129Y91831D01*
X100059Y91740D01*
X100015Y91634D01*
X100000Y91520D01*
X100015Y91406D01*
X100059Y91300D01*
X100129Y91209D01*
X100220Y91139D01*
X100326Y91095D01*
X100440Y91080D01*
X100554Y91095D01*
X100660Y91139D01*
X100751Y91209D01*
X100821Y91300D01*
X100865Y91406D01*
X100880Y91520D01*
X100865Y91634D01*
X100821Y91740D01*
X100751Y91831D01*
X100660Y91901D01*
X100554Y91945D01*
X100440Y91960D01*
D02*
G37*
G36*
X72080D02*
X71966Y91945D01*
X71860Y91901D01*
X71769Y91831D01*
X71699Y91740D01*
X71655Y91634D01*
X71640Y91520D01*
X71655Y91406D01*
X71699Y91300D01*
X71769Y91209D01*
X71860Y91139D01*
X71966Y91095D01*
X72080Y91080D01*
X72194Y91095D01*
X72300Y91139D01*
X72391Y91209D01*
X72461Y91300D01*
X72505Y91406D01*
X72520Y91520D01*
X72505Y91634D01*
X72461Y91740D01*
X72391Y91831D01*
X72300Y91901D01*
X72194Y91945D01*
X72080Y91960D01*
D02*
G37*
G36*
X146900D02*
X146786Y91945D01*
X146680Y91901D01*
X146589Y91831D01*
X146519Y91740D01*
X146475Y91634D01*
X146460Y91520D01*
X146475Y91406D01*
X146519Y91300D01*
X146589Y91209D01*
X146680Y91139D01*
X146786Y91095D01*
X146900Y91080D01*
X147014Y91095D01*
X147120Y91139D01*
X147211Y91209D01*
X147281Y91300D01*
X147325Y91406D01*
X147340Y91520D01*
X147325Y91634D01*
X147281Y91740D01*
X147211Y91831D01*
X147120Y91901D01*
X147014Y91945D01*
X146900Y91960D01*
D02*
G37*
G36*
X118540Y91980D02*
X118426Y91965D01*
X118320Y91921D01*
X118229Y91851D01*
X118159Y91760D01*
X118115Y91654D01*
X118100Y91540D01*
X118115Y91426D01*
X118159Y91320D01*
X118229Y91229D01*
X118320Y91159D01*
X118426Y91115D01*
X118540Y91100D01*
X118654Y91115D01*
X118760Y91159D01*
X118851Y91229D01*
X118921Y91320D01*
X118965Y91426D01*
X118980Y91540D01*
X118965Y91654D01*
X118921Y91760D01*
X118851Y91851D01*
X118760Y91921D01*
X118654Y91965D01*
X118540Y91980D01*
D02*
G37*
G36*
X175240Y91970D02*
X175126Y91955D01*
X175020Y91911D01*
X174929Y91841D01*
X174859Y91750D01*
X174815Y91644D01*
X174800Y91530D01*
X174815Y91416D01*
X174859Y91310D01*
X174929Y91219D01*
X175020Y91149D01*
X175126Y91105D01*
X175240Y91090D01*
X175354Y91105D01*
X175460Y91149D01*
X175551Y91219D01*
X175621Y91310D01*
X175665Y91416D01*
X175680Y91530D01*
X175665Y91644D01*
X175621Y91750D01*
X175551Y91841D01*
X175460Y91911D01*
X175354Y91955D01*
X175240Y91970D01*
D02*
G37*
G36*
X118540Y90980D02*
X118426Y90965D01*
X118320Y90921D01*
X118229Y90851D01*
X118159Y90760D01*
X118115Y90654D01*
X118100Y90540D01*
X118115Y90426D01*
X118159Y90320D01*
X118229Y90229D01*
X118320Y90159D01*
X118426Y90115D01*
X118540Y90100D01*
X118654Y90115D01*
X118760Y90159D01*
X118851Y90229D01*
X118921Y90320D01*
X118965Y90426D01*
X118980Y90540D01*
X118965Y90654D01*
X118921Y90760D01*
X118851Y90851D01*
X118760Y90921D01*
X118654Y90965D01*
X118540Y90980D01*
D02*
G37*
G36*
X175240Y90970D02*
X175126Y90955D01*
X175020Y90911D01*
X174929Y90841D01*
X174859Y90750D01*
X174815Y90644D01*
X174800Y90530D01*
X174815Y90416D01*
X174859Y90310D01*
X174929Y90219D01*
X175020Y90149D01*
X175126Y90105D01*
X175240Y90090D01*
X175354Y90105D01*
X175460Y90149D01*
X175551Y90219D01*
X175621Y90310D01*
X175665Y90416D01*
X175680Y90530D01*
X175665Y90644D01*
X175621Y90750D01*
X175551Y90841D01*
X175460Y90911D01*
X175354Y90955D01*
X175240Y90970D01*
D02*
G37*
G36*
X128780Y90980D02*
X128666Y90965D01*
X128560Y90921D01*
X128469Y90851D01*
X128399Y90760D01*
X128355Y90654D01*
X128340Y90540D01*
X128355Y90426D01*
X128399Y90320D01*
X128469Y90229D01*
X128560Y90159D01*
X128666Y90115D01*
X128780Y90100D01*
X128894Y90115D01*
X129000Y90159D01*
X129091Y90229D01*
X129161Y90320D01*
X129205Y90426D01*
X129220Y90540D01*
X129205Y90654D01*
X129161Y90760D01*
X129091Y90851D01*
X129000Y90921D01*
X128894Y90965D01*
X128780Y90980D01*
D02*
G37*
G36*
X90200Y91940D02*
X90086Y91925D01*
X89980Y91881D01*
X89889Y91811D01*
X89819Y91720D01*
X89775Y91614D01*
X89760Y91500D01*
X89775Y91386D01*
X89819Y91280D01*
X89889Y91189D01*
X89980Y91119D01*
X90086Y91075D01*
X90200Y91060D01*
X90314Y91075D01*
X90420Y91119D01*
X90511Y91189D01*
X90581Y91280D01*
X90625Y91386D01*
X90640Y91500D01*
X90625Y91614D01*
X90581Y91720D01*
X90511Y91811D01*
X90420Y91881D01*
X90314Y91925D01*
X90200Y91940D01*
D02*
G37*
G36*
X157140Y90990D02*
X157026Y90975D01*
X156920Y90931D01*
X156829Y90861D01*
X156759Y90770D01*
X156715Y90664D01*
X156700Y90550D01*
X156715Y90436D01*
X156759Y90330D01*
X156829Y90239D01*
X156920Y90169D01*
X157026Y90125D01*
X157140Y90110D01*
X157254Y90125D01*
X157360Y90169D01*
X157451Y90239D01*
X157521Y90330D01*
X157565Y90436D01*
X157580Y90550D01*
X157565Y90664D01*
X157521Y90770D01*
X157451Y90861D01*
X157360Y90931D01*
X157254Y90975D01*
X157140Y90990D01*
D02*
G37*
G36*
X141140Y97860D02*
X141026Y97845D01*
X140920Y97801D01*
X140829Y97731D01*
X140759Y97640D01*
X140715Y97534D01*
X140700Y97420D01*
X140715Y97306D01*
X140759Y97200D01*
X140829Y97109D01*
X140920Y97039D01*
X141026Y96995D01*
X141140Y96980D01*
X141254Y96995D01*
X141360Y97039D01*
X141451Y97109D01*
X141521Y97200D01*
X141565Y97306D01*
X141580Y97420D01*
X141565Y97534D01*
X141521Y97640D01*
X141451Y97731D01*
X141360Y97801D01*
X141254Y97845D01*
X141140Y97860D01*
D02*
G37*
G36*
X137600D02*
X137486Y97845D01*
X137380Y97801D01*
X137289Y97731D01*
X137219Y97640D01*
X137175Y97534D01*
X137160Y97420D01*
X137175Y97306D01*
X137219Y97200D01*
X137289Y97109D01*
X137380Y97039D01*
X137486Y96995D01*
X137600Y96980D01*
X137714Y96995D01*
X137820Y97039D01*
X137911Y97109D01*
X137981Y97200D01*
X138025Y97306D01*
X138040Y97420D01*
X138025Y97534D01*
X137981Y97640D01*
X137911Y97731D01*
X137820Y97801D01*
X137714Y97845D01*
X137600Y97860D01*
D02*
G37*
G36*
X144680D02*
X144566Y97845D01*
X144460Y97801D01*
X144369Y97731D01*
X144299Y97640D01*
X144255Y97534D01*
X144240Y97420D01*
X144255Y97306D01*
X144299Y97200D01*
X144369Y97109D01*
X144460Y97039D01*
X144566Y96995D01*
X144680Y96980D01*
X144794Y96995D01*
X144900Y97039D01*
X144991Y97109D01*
X145061Y97200D01*
X145105Y97306D01*
X145120Y97420D01*
X145105Y97534D01*
X145061Y97640D01*
X144991Y97731D01*
X144900Y97801D01*
X144794Y97845D01*
X144680Y97860D01*
D02*
G37*
G36*
X162400Y97870D02*
X162286Y97855D01*
X162180Y97811D01*
X162089Y97741D01*
X162019Y97650D01*
X161975Y97544D01*
X161960Y97430D01*
X161975Y97316D01*
X162019Y97210D01*
X162089Y97119D01*
X162180Y97049D01*
X162286Y97005D01*
X162400Y96990D01*
X162514Y97005D01*
X162620Y97049D01*
X162711Y97119D01*
X162781Y97210D01*
X162825Y97316D01*
X162840Y97430D01*
X162825Y97544D01*
X162781Y97650D01*
X162711Y97741D01*
X162620Y97811D01*
X162514Y97855D01*
X162400Y97870D01*
D02*
G37*
G36*
X158860Y97860D02*
X158746Y97845D01*
X158640Y97801D01*
X158549Y97731D01*
X158479Y97640D01*
X158435Y97534D01*
X158420Y97420D01*
X158435Y97306D01*
X158479Y97200D01*
X158549Y97109D01*
X158640Y97039D01*
X158746Y96995D01*
X158860Y96980D01*
X158974Y96995D01*
X159080Y97039D01*
X159171Y97109D01*
X159241Y97200D01*
X159285Y97306D01*
X159300Y97420D01*
X159285Y97534D01*
X159241Y97640D01*
X159171Y97731D01*
X159080Y97801D01*
X158974Y97845D01*
X158860Y97860D01*
D02*
G37*
G36*
X84460D02*
X84346Y97845D01*
X84240Y97801D01*
X84149Y97731D01*
X84079Y97640D01*
X84035Y97534D01*
X84020Y97420D01*
X84035Y97306D01*
X84079Y97200D01*
X84149Y97109D01*
X84240Y97039D01*
X84346Y96995D01*
X84460Y96980D01*
X84574Y96995D01*
X84680Y97039D01*
X84771Y97109D01*
X84841Y97200D01*
X84885Y97306D01*
X84900Y97420D01*
X84885Y97534D01*
X84841Y97640D01*
X84771Y97731D01*
X84680Y97801D01*
X84574Y97845D01*
X84460Y97860D01*
D02*
G37*
G36*
X80900D02*
X80786Y97845D01*
X80680Y97801D01*
X80589Y97731D01*
X80519Y97640D01*
X80475Y97534D01*
X80460Y97420D01*
X80475Y97306D01*
X80519Y97200D01*
X80589Y97109D01*
X80680Y97039D01*
X80786Y96995D01*
X80900Y96980D01*
X81014Y96995D01*
X81120Y97039D01*
X81211Y97109D01*
X81281Y97200D01*
X81325Y97306D01*
X81340Y97420D01*
X81325Y97534D01*
X81281Y97640D01*
X81211Y97731D01*
X81120Y97801D01*
X81014Y97845D01*
X80900Y97860D01*
D02*
G37*
G36*
X102160D02*
X102046Y97845D01*
X101940Y97801D01*
X101849Y97731D01*
X101779Y97640D01*
X101735Y97534D01*
X101720Y97420D01*
X101735Y97306D01*
X101779Y97200D01*
X101849Y97109D01*
X101940Y97039D01*
X102046Y96995D01*
X102160Y96980D01*
X102274Y96995D01*
X102380Y97039D01*
X102471Y97109D01*
X102541Y97200D01*
X102585Y97306D01*
X102600Y97420D01*
X102585Y97534D01*
X102541Y97640D01*
X102471Y97731D01*
X102380Y97801D01*
X102274Y97845D01*
X102160Y97860D01*
D02*
G37*
G36*
X134040D02*
X133926Y97845D01*
X133820Y97801D01*
X133729Y97731D01*
X133659Y97640D01*
X133615Y97534D01*
X133600Y97420D01*
X133615Y97306D01*
X133659Y97200D01*
X133729Y97109D01*
X133820Y97039D01*
X133926Y96995D01*
X134040Y96980D01*
X134154Y96995D01*
X134260Y97039D01*
X134351Y97109D01*
X134421Y97200D01*
X134465Y97306D01*
X134480Y97420D01*
X134465Y97534D01*
X134421Y97640D01*
X134351Y97731D01*
X134260Y97801D01*
X134154Y97845D01*
X134040Y97860D01*
D02*
G37*
G36*
X130520D02*
X130406Y97845D01*
X130300Y97801D01*
X130209Y97731D01*
X130139Y97640D01*
X130095Y97534D01*
X130080Y97420D01*
X130095Y97306D01*
X130139Y97200D01*
X130209Y97109D01*
X130300Y97039D01*
X130406Y96995D01*
X130520Y96980D01*
X130634Y96995D01*
X130740Y97039D01*
X130831Y97109D01*
X130901Y97200D01*
X130945Y97306D01*
X130960Y97420D01*
X130945Y97534D01*
X130901Y97640D01*
X130831Y97731D01*
X130740Y97801D01*
X130634Y97845D01*
X130520Y97860D01*
D02*
G37*
G36*
X112800Y97880D02*
X112686Y97865D01*
X112580Y97821D01*
X112489Y97751D01*
X112419Y97660D01*
X112375Y97554D01*
X112360Y97440D01*
X112375Y97326D01*
X112419Y97220D01*
X112489Y97129D01*
X112580Y97059D01*
X112686Y97015D01*
X112800Y97000D01*
X112914Y97015D01*
X113020Y97059D01*
X113111Y97129D01*
X113181Y97220D01*
X113225Y97326D01*
X113240Y97440D01*
X113225Y97554D01*
X113181Y97660D01*
X113111Y97751D01*
X113020Y97821D01*
X112914Y97865D01*
X112800Y97880D01*
D02*
G37*
G36*
X109260D02*
X109146Y97865D01*
X109040Y97821D01*
X108949Y97751D01*
X108879Y97660D01*
X108835Y97554D01*
X108820Y97440D01*
X108835Y97326D01*
X108879Y97220D01*
X108949Y97129D01*
X109040Y97059D01*
X109146Y97015D01*
X109260Y97000D01*
X109374Y97015D01*
X109480Y97059D01*
X109571Y97129D01*
X109641Y97220D01*
X109685Y97326D01*
X109700Y97440D01*
X109685Y97554D01*
X109641Y97660D01*
X109571Y97751D01*
X109480Y97821D01*
X109374Y97865D01*
X109260Y97880D01*
D02*
G37*
G36*
X116340D02*
X116226Y97865D01*
X116120Y97821D01*
X116029Y97751D01*
X115959Y97660D01*
X115915Y97554D01*
X115900Y97440D01*
X115915Y97326D01*
X115959Y97220D01*
X116029Y97129D01*
X116120Y97059D01*
X116226Y97015D01*
X116340Y97000D01*
X116454Y97015D01*
X116560Y97059D01*
X116651Y97129D01*
X116721Y97220D01*
X116765Y97326D01*
X116780Y97440D01*
X116765Y97554D01*
X116721Y97660D01*
X116651Y97751D01*
X116560Y97821D01*
X116454Y97865D01*
X116340Y97880D01*
D02*
G37*
G36*
X179650Y99204D02*
X178250D01*
X178250Y99204D01*
X151310D01*
X151310Y99204D01*
X149910D01*
X149910Y99204D01*
X122950D01*
X122950Y99204D01*
X121550D01*
X121550Y99204D01*
X93450D01*
X93333Y99188D01*
X93273Y99164D01*
X93210D01*
X93132Y99148D01*
X93066Y99104D01*
X93022Y99038D01*
X93006Y98960D01*
Y98826D01*
X92996Y98750D01*
X93006Y98674D01*
Y97260D01*
X93022Y97182D01*
X93066Y97116D01*
X93466Y96716D01*
X93532Y96672D01*
X93610Y96656D01*
X94210D01*
X94288Y96672D01*
X94354Y96716D01*
X94754Y97116D01*
X94798Y97182D01*
X94814Y97260D01*
Y97844D01*
X95275Y98296D01*
X120926D01*
X121346Y97876D01*
Y97300D01*
X121362Y97222D01*
X121406Y97156D01*
X121806Y96756D01*
X121872Y96712D01*
X121950Y96696D01*
X122550D01*
X122628Y96712D01*
X122694Y96756D01*
X123094Y97156D01*
X123138Y97222D01*
X123154Y97300D01*
Y97884D01*
X123574Y98296D01*
X149285D01*
X149706Y97876D01*
Y97300D01*
X149722Y97222D01*
X149766Y97156D01*
X150166Y96756D01*
X150232Y96712D01*
X150310Y96696D01*
X150910D01*
X150988Y96712D01*
X151054Y96756D01*
X151454Y97156D01*
X151498Y97222D01*
X151514Y97300D01*
Y97884D01*
X151934Y98296D01*
X177626D01*
X178046Y97876D01*
Y97300D01*
X178062Y97222D01*
X178106Y97156D01*
X178506Y96756D01*
X178572Y96712D01*
X178650Y96696D01*
X179250D01*
X179328Y96712D01*
X179394Y96756D01*
X179794Y97156D01*
X179838Y97222D01*
X179854Y97300D01*
Y99000D01*
X179838Y99078D01*
X179794Y99144D01*
X179728Y99188D01*
X179650Y99204D01*
D02*
G37*
G36*
X203000Y99900D02*
X202896Y99887D01*
X202800Y99847D01*
X202717Y99783D01*
X202653Y99700D01*
X202613Y99604D01*
X202600Y99500D01*
X202613Y99396D01*
X202653Y99300D01*
X202717Y99217D01*
X202800Y99153D01*
X202896Y99113D01*
X203000Y99100D01*
X203104Y99113D01*
X203200Y99153D01*
X203283Y99217D01*
X203347Y99300D01*
X203387Y99396D01*
X203400Y99500D01*
X203387Y99604D01*
X203347Y99700D01*
X203283Y99783D01*
X203200Y99847D01*
X203104Y99887D01*
X203000Y99900D01*
D02*
G37*
G36*
X169490Y97870D02*
X169376Y97855D01*
X169270Y97811D01*
X169179Y97741D01*
X169109Y97650D01*
X169065Y97544D01*
X169050Y97430D01*
X169065Y97316D01*
X169109Y97210D01*
X169179Y97119D01*
X169270Y97049D01*
X169376Y97005D01*
X169490Y96990D01*
X169604Y97005D01*
X169710Y97049D01*
X169801Y97119D01*
X169871Y97210D01*
X169915Y97316D01*
X169930Y97430D01*
X169915Y97544D01*
X169871Y97650D01*
X169801Y97741D01*
X169710Y97811D01*
X169604Y97855D01*
X169490Y97870D01*
D02*
G37*
G36*
X165940D02*
X165826Y97855D01*
X165720Y97811D01*
X165629Y97741D01*
X165559Y97650D01*
X165515Y97544D01*
X165500Y97430D01*
X165515Y97316D01*
X165559Y97210D01*
X165629Y97119D01*
X165720Y97049D01*
X165826Y97005D01*
X165940Y96990D01*
X166054Y97005D01*
X166160Y97049D01*
X166251Y97119D01*
X166321Y97210D01*
X166365Y97316D01*
X166380Y97430D01*
X166365Y97544D01*
X166321Y97650D01*
X166251Y97741D01*
X166160Y97811D01*
X166054Y97855D01*
X165940Y97870D01*
D02*
G37*
G36*
X173030D02*
X172916Y97855D01*
X172810Y97811D01*
X172719Y97741D01*
X172649Y97650D01*
X172605Y97544D01*
X172590Y97430D01*
X172605Y97316D01*
X172649Y97210D01*
X172719Y97119D01*
X172810Y97049D01*
X172916Y97005D01*
X173030Y96990D01*
X173144Y97005D01*
X173250Y97049D01*
X173341Y97119D01*
X173411Y97210D01*
X173455Y97316D01*
X173470Y97430D01*
X173455Y97544D01*
X173411Y97650D01*
X173341Y97741D01*
X173250Y97811D01*
X173144Y97855D01*
X173030Y97870D01*
D02*
G37*
G36*
X105700Y97880D02*
X105586Y97865D01*
X105480Y97821D01*
X105389Y97751D01*
X105319Y97660D01*
X105275Y97554D01*
X105260Y97440D01*
X105275Y97326D01*
X105319Y97220D01*
X105389Y97129D01*
X105480Y97059D01*
X105586Y97015D01*
X105700Y97000D01*
X105814Y97015D01*
X105920Y97059D01*
X106011Y97129D01*
X106081Y97220D01*
X106125Y97326D01*
X106140Y97440D01*
X106125Y97554D01*
X106081Y97660D01*
X106011Y97751D01*
X105920Y97821D01*
X105814Y97865D01*
X105700Y97880D01*
D02*
G37*
G36*
X77360D02*
X77246Y97865D01*
X77140Y97821D01*
X77049Y97751D01*
X76979Y97660D01*
X76935Y97554D01*
X76920Y97440D01*
X76935Y97326D01*
X76979Y97220D01*
X77049Y97129D01*
X77140Y97059D01*
X77246Y97015D01*
X77360Y97000D01*
X77474Y97015D01*
X77580Y97059D01*
X77671Y97129D01*
X77741Y97220D01*
X77785Y97326D01*
X77800Y97440D01*
X77785Y97554D01*
X77741Y97660D01*
X77671Y97751D01*
X77580Y97821D01*
X77474Y97865D01*
X77360Y97880D01*
D02*
G37*
G36*
X141140Y96860D02*
X141026Y96845D01*
X140920Y96801D01*
X140829Y96731D01*
X140759Y96640D01*
X140715Y96534D01*
X140700Y96420D01*
X140715Y96306D01*
X140759Y96200D01*
X140829Y96109D01*
X140920Y96039D01*
X141026Y95995D01*
X141140Y95980D01*
X141254Y95995D01*
X141360Y96039D01*
X141451Y96109D01*
X141521Y96200D01*
X141565Y96306D01*
X141580Y96420D01*
X141565Y96534D01*
X141521Y96640D01*
X141451Y96731D01*
X141360Y96801D01*
X141254Y96845D01*
X141140Y96860D01*
D02*
G37*
G36*
X137600D02*
X137486Y96845D01*
X137380Y96801D01*
X137289Y96731D01*
X137219Y96640D01*
X137175Y96534D01*
X137160Y96420D01*
X137175Y96306D01*
X137219Y96200D01*
X137289Y96109D01*
X137380Y96039D01*
X137486Y95995D01*
X137600Y95980D01*
X137714Y95995D01*
X137820Y96039D01*
X137911Y96109D01*
X137981Y96200D01*
X138025Y96306D01*
X138040Y96420D01*
X138025Y96534D01*
X137981Y96640D01*
X137911Y96731D01*
X137820Y96801D01*
X137714Y96845D01*
X137600Y96860D01*
D02*
G37*
G36*
X144680D02*
X144566Y96845D01*
X144460Y96801D01*
X144369Y96731D01*
X144299Y96640D01*
X144255Y96534D01*
X144240Y96420D01*
X144255Y96306D01*
X144299Y96200D01*
X144369Y96109D01*
X144460Y96039D01*
X144566Y95995D01*
X144680Y95980D01*
X144794Y95995D01*
X144900Y96039D01*
X144991Y96109D01*
X145061Y96200D01*
X145105Y96306D01*
X145120Y96420D01*
X145105Y96534D01*
X145061Y96640D01*
X144991Y96731D01*
X144900Y96801D01*
X144794Y96845D01*
X144680Y96860D01*
D02*
G37*
G36*
X162400Y96870D02*
X162286Y96855D01*
X162180Y96811D01*
X162089Y96741D01*
X162019Y96650D01*
X161975Y96544D01*
X161960Y96430D01*
X161975Y96316D01*
X162019Y96210D01*
X162089Y96119D01*
X162180Y96049D01*
X162286Y96005D01*
X162400Y95990D01*
X162514Y96005D01*
X162620Y96049D01*
X162711Y96119D01*
X162781Y96210D01*
X162825Y96316D01*
X162840Y96430D01*
X162825Y96544D01*
X162781Y96650D01*
X162711Y96741D01*
X162620Y96811D01*
X162514Y96855D01*
X162400Y96870D01*
D02*
G37*
G36*
X158860Y96860D02*
X158746Y96845D01*
X158640Y96801D01*
X158549Y96731D01*
X158479Y96640D01*
X158435Y96534D01*
X158420Y96420D01*
X158435Y96306D01*
X158479Y96200D01*
X158549Y96109D01*
X158640Y96039D01*
X158746Y95995D01*
X158860Y95980D01*
X158974Y95995D01*
X159080Y96039D01*
X159171Y96109D01*
X159241Y96200D01*
X159285Y96306D01*
X159300Y96420D01*
X159285Y96534D01*
X159241Y96640D01*
X159171Y96731D01*
X159080Y96801D01*
X158974Y96845D01*
X158860Y96860D01*
D02*
G37*
G36*
X84460D02*
X84346Y96845D01*
X84240Y96801D01*
X84149Y96731D01*
X84079Y96640D01*
X84035Y96534D01*
X84020Y96420D01*
X84035Y96306D01*
X84079Y96200D01*
X84149Y96109D01*
X84240Y96039D01*
X84346Y95995D01*
X84460Y95980D01*
X84574Y95995D01*
X84680Y96039D01*
X84771Y96109D01*
X84841Y96200D01*
X84885Y96306D01*
X84900Y96420D01*
X84885Y96534D01*
X84841Y96640D01*
X84771Y96731D01*
X84680Y96801D01*
X84574Y96845D01*
X84460Y96860D01*
D02*
G37*
G36*
X80900D02*
X80786Y96845D01*
X80680Y96801D01*
X80589Y96731D01*
X80519Y96640D01*
X80475Y96534D01*
X80460Y96420D01*
X80475Y96306D01*
X80519Y96200D01*
X80589Y96109D01*
X80680Y96039D01*
X80786Y95995D01*
X80900Y95980D01*
X81014Y95995D01*
X81120Y96039D01*
X81211Y96109D01*
X81281Y96200D01*
X81325Y96306D01*
X81340Y96420D01*
X81325Y96534D01*
X81281Y96640D01*
X81211Y96731D01*
X81120Y96801D01*
X81014Y96845D01*
X80900Y96860D01*
D02*
G37*
G36*
X102160D02*
X102046Y96845D01*
X101940Y96801D01*
X101849Y96731D01*
X101779Y96640D01*
X101735Y96534D01*
X101720Y96420D01*
X101735Y96306D01*
X101779Y96200D01*
X101849Y96109D01*
X101940Y96039D01*
X102046Y95995D01*
X102160Y95980D01*
X102274Y95995D01*
X102380Y96039D01*
X102471Y96109D01*
X102541Y96200D01*
X102585Y96306D01*
X102600Y96420D01*
X102585Y96534D01*
X102541Y96640D01*
X102471Y96731D01*
X102380Y96801D01*
X102274Y96845D01*
X102160Y96860D01*
D02*
G37*
G36*
X134040D02*
X133926Y96845D01*
X133820Y96801D01*
X133729Y96731D01*
X133659Y96640D01*
X133615Y96534D01*
X133600Y96420D01*
X133615Y96306D01*
X133659Y96200D01*
X133729Y96109D01*
X133820Y96039D01*
X133926Y95995D01*
X134040Y95980D01*
X134154Y95995D01*
X134260Y96039D01*
X134351Y96109D01*
X134421Y96200D01*
X134465Y96306D01*
X134480Y96420D01*
X134465Y96534D01*
X134421Y96640D01*
X134351Y96731D01*
X134260Y96801D01*
X134154Y96845D01*
X134040Y96860D01*
D02*
G37*
G36*
X130520D02*
X130406Y96845D01*
X130300Y96801D01*
X130209Y96731D01*
X130139Y96640D01*
X130095Y96534D01*
X130080Y96420D01*
X130095Y96306D01*
X130139Y96200D01*
X130209Y96109D01*
X130300Y96039D01*
X130406Y95995D01*
X130520Y95980D01*
X130634Y95995D01*
X130740Y96039D01*
X130831Y96109D01*
X130901Y96200D01*
X130945Y96306D01*
X130960Y96420D01*
X130945Y96534D01*
X130901Y96640D01*
X130831Y96731D01*
X130740Y96801D01*
X130634Y96845D01*
X130520Y96860D01*
D02*
G37*
G36*
X112800Y96880D02*
X112686Y96865D01*
X112580Y96821D01*
X112489Y96751D01*
X112419Y96660D01*
X112375Y96554D01*
X112360Y96440D01*
X112375Y96326D01*
X112419Y96220D01*
X112489Y96129D01*
X112580Y96059D01*
X112686Y96015D01*
X112800Y96000D01*
X112914Y96015D01*
X113020Y96059D01*
X113111Y96129D01*
X113181Y96220D01*
X113225Y96326D01*
X113240Y96440D01*
X113225Y96554D01*
X113181Y96660D01*
X113111Y96751D01*
X113020Y96821D01*
X112914Y96865D01*
X112800Y96880D01*
D02*
G37*
G36*
X109260D02*
X109146Y96865D01*
X109040Y96821D01*
X108949Y96751D01*
X108879Y96660D01*
X108835Y96554D01*
X108820Y96440D01*
X108835Y96326D01*
X108879Y96220D01*
X108949Y96129D01*
X109040Y96059D01*
X109146Y96015D01*
X109260Y96000D01*
X109374Y96015D01*
X109480Y96059D01*
X109571Y96129D01*
X109641Y96220D01*
X109685Y96326D01*
X109700Y96440D01*
X109685Y96554D01*
X109641Y96660D01*
X109571Y96751D01*
X109480Y96821D01*
X109374Y96865D01*
X109260Y96880D01*
D02*
G37*
G36*
X116340D02*
X116226Y96865D01*
X116120Y96821D01*
X116029Y96751D01*
X115959Y96660D01*
X115915Y96554D01*
X115900Y96440D01*
X115915Y96326D01*
X115959Y96220D01*
X116029Y96129D01*
X116120Y96059D01*
X116226Y96015D01*
X116340Y96000D01*
X116454Y96015D01*
X116560Y96059D01*
X116651Y96129D01*
X116721Y96220D01*
X116765Y96326D01*
X116780Y96440D01*
X116765Y96554D01*
X116721Y96660D01*
X116651Y96751D01*
X116560Y96821D01*
X116454Y96865D01*
X116340Y96880D01*
D02*
G37*
G36*
X73820Y97860D02*
X73706Y97845D01*
X73600Y97801D01*
X73509Y97731D01*
X73439Y97640D01*
X73395Y97534D01*
X73380Y97420D01*
X73395Y97306D01*
X73439Y97200D01*
X73509Y97109D01*
X73600Y97039D01*
X73706Y96995D01*
X73820Y96980D01*
X73934Y96995D01*
X74040Y97039D01*
X74131Y97109D01*
X74201Y97200D01*
X74245Y97306D01*
X74260Y97420D01*
X74245Y97534D01*
X74201Y97640D01*
X74131Y97731D01*
X74040Y97801D01*
X73934Y97845D01*
X73820Y97860D01*
D02*
G37*
G36*
X88000Y97840D02*
X87886Y97825D01*
X87780Y97781D01*
X87689Y97711D01*
X87619Y97620D01*
X87575Y97514D01*
X87560Y97400D01*
X87575Y97286D01*
X87619Y97180D01*
X87689Y97089D01*
X87780Y97019D01*
X87886Y96975D01*
X88000Y96960D01*
X88114Y96975D01*
X88220Y97019D01*
X88311Y97089D01*
X88381Y97180D01*
X88425Y97286D01*
X88440Y97400D01*
X88425Y97514D01*
X88381Y97620D01*
X88311Y97711D01*
X88220Y97781D01*
X88114Y97825D01*
X88000Y97840D01*
D02*
G37*
G36*
X169490Y96870D02*
X169376Y96855D01*
X169270Y96811D01*
X169179Y96741D01*
X169109Y96650D01*
X169065Y96544D01*
X169050Y96430D01*
X169065Y96316D01*
X169109Y96210D01*
X169179Y96119D01*
X169270Y96049D01*
X169376Y96005D01*
X169490Y95990D01*
X169604Y96005D01*
X169710Y96049D01*
X169801Y96119D01*
X169871Y96210D01*
X169915Y96316D01*
X169930Y96430D01*
X169915Y96544D01*
X169871Y96650D01*
X169801Y96741D01*
X169710Y96811D01*
X169604Y96855D01*
X169490Y96870D01*
D02*
G37*
G36*
X165940D02*
X165826Y96855D01*
X165720Y96811D01*
X165629Y96741D01*
X165559Y96650D01*
X165515Y96544D01*
X165500Y96430D01*
X165515Y96316D01*
X165559Y96210D01*
X165629Y96119D01*
X165720Y96049D01*
X165826Y96005D01*
X165940Y95990D01*
X166054Y96005D01*
X166160Y96049D01*
X166251Y96119D01*
X166321Y96210D01*
X166365Y96316D01*
X166380Y96430D01*
X166365Y96544D01*
X166321Y96650D01*
X166251Y96741D01*
X166160Y96811D01*
X166054Y96855D01*
X165940Y96870D01*
D02*
G37*
G36*
X173030D02*
X172916Y96855D01*
X172810Y96811D01*
X172719Y96741D01*
X172649Y96650D01*
X172605Y96544D01*
X172590Y96430D01*
X172605Y96316D01*
X172649Y96210D01*
X172719Y96119D01*
X172810Y96049D01*
X172916Y96005D01*
X173030Y95990D01*
X173144Y96005D01*
X173250Y96049D01*
X173341Y96119D01*
X173411Y96210D01*
X173455Y96316D01*
X173470Y96430D01*
X173455Y96544D01*
X173411Y96650D01*
X173341Y96741D01*
X173250Y96811D01*
X173144Y96855D01*
X173030Y96870D01*
D02*
G37*
G36*
X105700Y96880D02*
X105586Y96865D01*
X105480Y96821D01*
X105389Y96751D01*
X105319Y96660D01*
X105275Y96554D01*
X105260Y96440D01*
X105275Y96326D01*
X105319Y96220D01*
X105389Y96129D01*
X105480Y96059D01*
X105586Y96015D01*
X105700Y96000D01*
X105814Y96015D01*
X105920Y96059D01*
X106011Y96129D01*
X106081Y96220D01*
X106125Y96326D01*
X106140Y96440D01*
X106125Y96554D01*
X106081Y96660D01*
X106011Y96751D01*
X105920Y96821D01*
X105814Y96865D01*
X105700Y96880D01*
D02*
G37*
G36*
X77360D02*
X77246Y96865D01*
X77140Y96821D01*
X77049Y96751D01*
X76979Y96660D01*
X76935Y96554D01*
X76920Y96440D01*
X76935Y96326D01*
X76979Y96220D01*
X77049Y96129D01*
X77140Y96059D01*
X77246Y96015D01*
X77360Y96000D01*
X77474Y96015D01*
X77580Y96059D01*
X77671Y96129D01*
X77741Y96220D01*
X77785Y96326D01*
X77800Y96440D01*
X77785Y96554D01*
X77741Y96660D01*
X77671Y96751D01*
X77580Y96821D01*
X77474Y96865D01*
X77360Y96880D01*
D02*
G37*
G36*
X72560Y79140D02*
X72446Y79125D01*
X72340Y79081D01*
X72249Y79011D01*
X72179Y78920D01*
X72135Y78814D01*
X72120Y78700D01*
X72135Y78586D01*
X72179Y78480D01*
X72249Y78389D01*
X72340Y78319D01*
X72446Y78275D01*
X72560Y78260D01*
X72674Y78275D01*
X72780Y78319D01*
X72871Y78389D01*
X72941Y78480D01*
X72985Y78586D01*
X73000Y78700D01*
X72985Y78814D01*
X72941Y78920D01*
X72871Y79011D01*
X72780Y79081D01*
X72674Y79125D01*
X72560Y79140D01*
D02*
G37*
G36*
X90680Y79120D02*
X90566Y79105D01*
X90460Y79061D01*
X90369Y78991D01*
X90299Y78900D01*
X90255Y78794D01*
X90240Y78680D01*
X90255Y78566D01*
X90299Y78460D01*
X90369Y78369D01*
X90460Y78299D01*
X90566Y78255D01*
X90680Y78240D01*
X90794Y78255D01*
X90900Y78299D01*
X90991Y78369D01*
X91061Y78460D01*
X91105Y78566D01*
X91120Y78680D01*
X91105Y78794D01*
X91061Y78900D01*
X90991Y78991D01*
X90900Y79061D01*
X90794Y79105D01*
X90680Y79120D01*
D02*
G37*
G36*
X147360Y79140D02*
X147246Y79125D01*
X147140Y79081D01*
X147049Y79011D01*
X146979Y78920D01*
X146935Y78814D01*
X146920Y78700D01*
X146935Y78586D01*
X146979Y78480D01*
X147049Y78389D01*
X147140Y78319D01*
X147246Y78275D01*
X147360Y78260D01*
X147474Y78275D01*
X147580Y78319D01*
X147671Y78389D01*
X147741Y78480D01*
X147785Y78586D01*
X147800Y78700D01*
X147785Y78814D01*
X147741Y78920D01*
X147671Y79011D01*
X147580Y79081D01*
X147474Y79125D01*
X147360Y79140D01*
D02*
G37*
G36*
X175700D02*
X175586Y79125D01*
X175480Y79081D01*
X175389Y79011D01*
X175319Y78920D01*
X175275Y78814D01*
X175260Y78700D01*
X175275Y78586D01*
X175319Y78480D01*
X175389Y78389D01*
X175480Y78319D01*
X175586Y78275D01*
X175700Y78260D01*
X175814Y78275D01*
X175920Y78319D01*
X176011Y78389D01*
X176081Y78480D01*
X176125Y78586D01*
X176140Y78700D01*
X176125Y78814D01*
X176081Y78920D01*
X176011Y79011D01*
X175920Y79081D01*
X175814Y79125D01*
X175700Y79140D01*
D02*
G37*
G36*
X157590D02*
X157476Y79125D01*
X157370Y79081D01*
X157279Y79011D01*
X157209Y78920D01*
X157165Y78814D01*
X157150Y78700D01*
X157165Y78586D01*
X157209Y78480D01*
X157279Y78389D01*
X157370Y78319D01*
X157476Y78275D01*
X157590Y78260D01*
X157704Y78275D01*
X157810Y78319D01*
X157901Y78389D01*
X157971Y78480D01*
X158015Y78586D01*
X158030Y78700D01*
X158015Y78814D01*
X157971Y78920D01*
X157901Y79011D01*
X157810Y79081D01*
X157704Y79125D01*
X157590Y79140D01*
D02*
G37*
G36*
X170280Y78180D02*
X170166Y78165D01*
X170060Y78121D01*
X169969Y78051D01*
X169899Y77960D01*
X169855Y77854D01*
X169840Y77740D01*
X169855Y77626D01*
X169899Y77520D01*
X169969Y77429D01*
X170060Y77359D01*
X170166Y77315D01*
X170280Y77300D01*
X170394Y77315D01*
X170500Y77359D01*
X170591Y77429D01*
X170661Y77520D01*
X170705Y77626D01*
X170720Y77740D01*
X170705Y77854D01*
X170661Y77960D01*
X170591Y78051D01*
X170500Y78121D01*
X170394Y78165D01*
X170280Y78180D01*
D02*
G37*
G36*
X166720D02*
X166606Y78165D01*
X166500Y78121D01*
X166409Y78051D01*
X166339Y77960D01*
X166295Y77854D01*
X166280Y77740D01*
X166295Y77626D01*
X166339Y77520D01*
X166409Y77429D01*
X166500Y77359D01*
X166606Y77315D01*
X166720Y77300D01*
X166834Y77315D01*
X166940Y77359D01*
X167031Y77429D01*
X167101Y77520D01*
X167145Y77626D01*
X167160Y77740D01*
X167145Y77854D01*
X167101Y77960D01*
X167031Y78051D01*
X166940Y78121D01*
X166834Y78165D01*
X166720Y78180D01*
D02*
G37*
G36*
X173820D02*
X173706Y78165D01*
X173600Y78121D01*
X173509Y78051D01*
X173439Y77960D01*
X173395Y77854D01*
X173380Y77740D01*
X173395Y77626D01*
X173439Y77520D01*
X173509Y77429D01*
X173600Y77359D01*
X173706Y77315D01*
X173820Y77300D01*
X173934Y77315D01*
X174040Y77359D01*
X174131Y77429D01*
X174201Y77520D01*
X174245Y77626D01*
X174260Y77740D01*
X174245Y77854D01*
X174201Y77960D01*
X174131Y78051D01*
X174040Y78121D01*
X173934Y78165D01*
X173820Y78180D01*
D02*
G37*
G36*
X163200Y78200D02*
X163086Y78185D01*
X162980Y78141D01*
X162889Y78071D01*
X162819Y77980D01*
X162775Y77874D01*
X162760Y77760D01*
X162775Y77646D01*
X162819Y77540D01*
X162889Y77449D01*
X162980Y77379D01*
X163086Y77335D01*
X163200Y77320D01*
X163314Y77335D01*
X163420Y77379D01*
X163511Y77449D01*
X163581Y77540D01*
X163625Y77646D01*
X163640Y77760D01*
X163625Y77874D01*
X163581Y77980D01*
X163511Y78071D01*
X163420Y78141D01*
X163314Y78185D01*
X163200Y78200D01*
D02*
G37*
G36*
X113580D02*
X113466Y78185D01*
X113360Y78141D01*
X113269Y78071D01*
X113199Y77980D01*
X113155Y77874D01*
X113140Y77760D01*
X113155Y77646D01*
X113199Y77540D01*
X113269Y77449D01*
X113360Y77379D01*
X113466Y77335D01*
X113580Y77320D01*
X113694Y77335D01*
X113800Y77379D01*
X113891Y77449D01*
X113961Y77540D01*
X114005Y77646D01*
X114020Y77760D01*
X114005Y77874D01*
X113961Y77980D01*
X113891Y78071D01*
X113800Y78141D01*
X113694Y78185D01*
X113580Y78200D01*
D02*
G37*
G36*
X157590Y80140D02*
X157476Y80125D01*
X157370Y80081D01*
X157279Y80011D01*
X157209Y79920D01*
X157165Y79814D01*
X157150Y79700D01*
X157165Y79586D01*
X157209Y79480D01*
X157279Y79389D01*
X157370Y79319D01*
X157476Y79275D01*
X157590Y79260D01*
X157704Y79275D01*
X157810Y79319D01*
X157901Y79389D01*
X157971Y79480D01*
X158015Y79586D01*
X158030Y79700D01*
X158015Y79814D01*
X157971Y79920D01*
X157901Y80011D01*
X157810Y80081D01*
X157704Y80125D01*
X157590Y80140D01*
D02*
G37*
G36*
X147360D02*
X147246Y80125D01*
X147140Y80081D01*
X147049Y80011D01*
X146979Y79920D01*
X146935Y79814D01*
X146920Y79700D01*
X146935Y79586D01*
X146979Y79480D01*
X147049Y79389D01*
X147140Y79319D01*
X147246Y79275D01*
X147360Y79260D01*
X147474Y79275D01*
X147580Y79319D01*
X147671Y79389D01*
X147741Y79480D01*
X147785Y79586D01*
X147800Y79700D01*
X147785Y79814D01*
X147741Y79920D01*
X147671Y80011D01*
X147580Y80081D01*
X147474Y80125D01*
X147360Y80140D01*
D02*
G37*
G36*
X175700D02*
X175586Y80125D01*
X175480Y80081D01*
X175389Y80011D01*
X175319Y79920D01*
X175275Y79814D01*
X175260Y79700D01*
X175275Y79586D01*
X175319Y79480D01*
X175389Y79389D01*
X175480Y79319D01*
X175586Y79275D01*
X175700Y79260D01*
X175814Y79275D01*
X175920Y79319D01*
X176011Y79389D01*
X176081Y79480D01*
X176125Y79586D01*
X176140Y79700D01*
X176125Y79814D01*
X176081Y79920D01*
X176011Y80011D01*
X175920Y80081D01*
X175814Y80125D01*
X175700Y80140D01*
D02*
G37*
G36*
X119020Y80160D02*
X118906Y80145D01*
X118800Y80101D01*
X118709Y80031D01*
X118639Y79940D01*
X118595Y79834D01*
X118580Y79720D01*
X118595Y79606D01*
X118639Y79500D01*
X118709Y79409D01*
X118800Y79339D01*
X118906Y79295D01*
X119020Y79280D01*
X119134Y79295D01*
X119240Y79339D01*
X119331Y79409D01*
X119401Y79500D01*
X119445Y79606D01*
X119460Y79720D01*
X119445Y79834D01*
X119401Y79940D01*
X119331Y80031D01*
X119240Y80101D01*
X119134Y80145D01*
X119020Y80160D01*
D02*
G37*
G36*
X100900D02*
X100786Y80145D01*
X100680Y80101D01*
X100589Y80031D01*
X100519Y79940D01*
X100475Y79834D01*
X100460Y79720D01*
X100475Y79606D01*
X100519Y79500D01*
X100589Y79409D01*
X100680Y79339D01*
X100786Y79295D01*
X100900Y79280D01*
X101014Y79295D01*
X101120Y79339D01*
X101211Y79409D01*
X101281Y79500D01*
X101325Y79606D01*
X101340Y79720D01*
X101325Y79834D01*
X101281Y79940D01*
X101211Y80031D01*
X101120Y80101D01*
X101014Y80145D01*
X100900Y80160D01*
D02*
G37*
G36*
X119020Y79160D02*
X118906Y79145D01*
X118800Y79101D01*
X118709Y79031D01*
X118639Y78940D01*
X118595Y78834D01*
X118580Y78720D01*
X118595Y78606D01*
X118639Y78500D01*
X118709Y78409D01*
X118800Y78339D01*
X118906Y78295D01*
X119020Y78280D01*
X119134Y78295D01*
X119240Y78339D01*
X119331Y78409D01*
X119401Y78500D01*
X119445Y78606D01*
X119460Y78720D01*
X119445Y78834D01*
X119401Y78940D01*
X119331Y79031D01*
X119240Y79101D01*
X119134Y79145D01*
X119020Y79160D01*
D02*
G37*
G36*
X100900D02*
X100786Y79145D01*
X100680Y79101D01*
X100589Y79031D01*
X100519Y78940D01*
X100475Y78834D01*
X100460Y78720D01*
X100475Y78606D01*
X100519Y78500D01*
X100589Y78409D01*
X100680Y78339D01*
X100786Y78295D01*
X100900Y78280D01*
X101014Y78295D01*
X101120Y78339D01*
X101211Y78409D01*
X101281Y78500D01*
X101325Y78606D01*
X101340Y78720D01*
X101325Y78834D01*
X101281Y78940D01*
X101211Y79031D01*
X101120Y79101D01*
X101014Y79145D01*
X100900Y79160D01*
D02*
G37*
G36*
X129260D02*
X129146Y79145D01*
X129040Y79101D01*
X128949Y79031D01*
X128879Y78940D01*
X128835Y78834D01*
X128820Y78720D01*
X128835Y78606D01*
X128879Y78500D01*
X128949Y78409D01*
X129040Y78339D01*
X129146Y78295D01*
X129260Y78280D01*
X129374Y78295D01*
X129480Y78339D01*
X129571Y78409D01*
X129641Y78500D01*
X129685Y78606D01*
X129700Y78720D01*
X129685Y78834D01*
X129641Y78940D01*
X129571Y79031D01*
X129480Y79101D01*
X129374Y79145D01*
X129260Y79160D01*
D02*
G37*
G36*
X72560Y80140D02*
X72446Y80125D01*
X72340Y80081D01*
X72249Y80011D01*
X72179Y79920D01*
X72135Y79814D01*
X72120Y79700D01*
X72135Y79586D01*
X72179Y79480D01*
X72249Y79389D01*
X72340Y79319D01*
X72446Y79275D01*
X72560Y79260D01*
X72674Y79275D01*
X72780Y79319D01*
X72871Y79389D01*
X72941Y79480D01*
X72985Y79586D01*
X73000Y79700D01*
X72985Y79814D01*
X72941Y79920D01*
X72871Y80011D01*
X72780Y80081D01*
X72674Y80125D01*
X72560Y80140D01*
D02*
G37*
G36*
X90680Y80120D02*
X90566Y80105D01*
X90460Y80061D01*
X90369Y79991D01*
X90299Y79900D01*
X90255Y79794D01*
X90240Y79680D01*
X90255Y79566D01*
X90299Y79460D01*
X90369Y79369D01*
X90460Y79299D01*
X90566Y79255D01*
X90680Y79240D01*
X90794Y79255D01*
X90900Y79299D01*
X90991Y79369D01*
X91061Y79460D01*
X91105Y79566D01*
X91120Y79680D01*
X91105Y79794D01*
X91061Y79900D01*
X90991Y79991D01*
X90900Y80061D01*
X90794Y80105D01*
X90680Y80120D01*
D02*
G37*
G36*
X78160Y78180D02*
X78046Y78165D01*
X77940Y78121D01*
X77849Y78051D01*
X77779Y77960D01*
X77735Y77854D01*
X77720Y77740D01*
X77735Y77626D01*
X77779Y77520D01*
X77849Y77429D01*
X77940Y77359D01*
X78046Y77315D01*
X78160Y77300D01*
X78274Y77315D01*
X78380Y77359D01*
X78471Y77429D01*
X78541Y77520D01*
X78585Y77626D01*
X78600Y77740D01*
X78585Y77854D01*
X78541Y77960D01*
X78471Y78051D01*
X78380Y78121D01*
X78274Y78165D01*
X78160Y78180D01*
D02*
G37*
G36*
X74600D02*
X74486Y78165D01*
X74380Y78121D01*
X74289Y78051D01*
X74219Y77960D01*
X74175Y77854D01*
X74160Y77740D01*
X74175Y77626D01*
X74219Y77520D01*
X74289Y77429D01*
X74380Y77359D01*
X74486Y77315D01*
X74600Y77300D01*
X74714Y77315D01*
X74820Y77359D01*
X74911Y77429D01*
X74981Y77520D01*
X75025Y77626D01*
X75040Y77740D01*
X75025Y77854D01*
X74981Y77960D01*
X74911Y78051D01*
X74820Y78121D01*
X74714Y78165D01*
X74600Y78180D01*
D02*
G37*
G36*
X81700D02*
X81586Y78165D01*
X81480Y78121D01*
X81389Y78051D01*
X81319Y77960D01*
X81275Y77854D01*
X81260Y77740D01*
X81275Y77626D01*
X81319Y77520D01*
X81389Y77429D01*
X81480Y77359D01*
X81586Y77315D01*
X81700Y77300D01*
X81814Y77315D01*
X81920Y77359D01*
X82011Y77429D01*
X82081Y77520D01*
X82125Y77626D01*
X82140Y77740D01*
X82125Y77854D01*
X82081Y77960D01*
X82011Y78051D01*
X81920Y78121D01*
X81814Y78165D01*
X81700Y78180D01*
D02*
G37*
G36*
X88780D02*
X88666Y78165D01*
X88560Y78121D01*
X88469Y78051D01*
X88399Y77960D01*
X88355Y77854D01*
X88340Y77740D01*
X88355Y77626D01*
X88399Y77520D01*
X88469Y77429D01*
X88560Y77359D01*
X88666Y77315D01*
X88780Y77300D01*
X88894Y77315D01*
X89000Y77359D01*
X89091Y77429D01*
X89161Y77520D01*
X89205Y77626D01*
X89220Y77740D01*
X89205Y77854D01*
X89161Y77960D01*
X89091Y78051D01*
X89000Y78121D01*
X88894Y78165D01*
X88780Y78180D01*
D02*
G37*
G36*
X85240D02*
X85126Y78165D01*
X85020Y78121D01*
X84929Y78051D01*
X84859Y77960D01*
X84815Y77854D01*
X84800Y77740D01*
X84815Y77626D01*
X84859Y77520D01*
X84929Y77429D01*
X85020Y77359D01*
X85126Y77315D01*
X85240Y77300D01*
X85354Y77315D01*
X85460Y77359D01*
X85551Y77429D01*
X85621Y77520D01*
X85665Y77626D01*
X85680Y77740D01*
X85665Y77854D01*
X85621Y77960D01*
X85551Y78051D01*
X85460Y78121D01*
X85354Y78165D01*
X85240Y78180D01*
D02*
G37*
G36*
X173820Y77180D02*
X173706Y77165D01*
X173600Y77121D01*
X173509Y77051D01*
X173439Y76960D01*
X173395Y76854D01*
X173380Y76740D01*
X173395Y76626D01*
X173439Y76520D01*
X173509Y76429D01*
X173600Y76359D01*
X173706Y76315D01*
X173820Y76300D01*
X173934Y76315D01*
X174040Y76359D01*
X174131Y76429D01*
X174201Y76520D01*
X174245Y76626D01*
X174260Y76740D01*
X174245Y76854D01*
X174201Y76960D01*
X174131Y77051D01*
X174040Y77121D01*
X173934Y77165D01*
X173820Y77180D01*
D02*
G37*
G36*
X170280D02*
X170166Y77165D01*
X170060Y77121D01*
X169969Y77051D01*
X169899Y76960D01*
X169855Y76854D01*
X169840Y76740D01*
X169855Y76626D01*
X169899Y76520D01*
X169969Y76429D01*
X170060Y76359D01*
X170166Y76315D01*
X170280Y76300D01*
X170394Y76315D01*
X170500Y76359D01*
X170591Y76429D01*
X170661Y76520D01*
X170705Y76626D01*
X170720Y76740D01*
X170705Y76854D01*
X170661Y76960D01*
X170591Y77051D01*
X170500Y77121D01*
X170394Y77165D01*
X170280Y77180D01*
D02*
G37*
G36*
X200750Y77994D02*
X200585Y77978D01*
X200427Y77930D01*
X200281Y77852D01*
X200153Y77747D01*
X200048Y77619D01*
X199970Y77473D01*
X199922Y77315D01*
X199906Y77150D01*
X199922Y76985D01*
X199970Y76827D01*
X200048Y76681D01*
X200153Y76553D01*
X200281Y76448D01*
X200427Y76370D01*
X200585Y76322D01*
X200750Y76306D01*
X200915Y76322D01*
X201073Y76370D01*
X201219Y76448D01*
X201347Y76553D01*
X201452Y76681D01*
X201530Y76827D01*
X201578Y76985D01*
X201594Y77150D01*
X201578Y77315D01*
X201530Y77473D01*
X201452Y77619D01*
X201347Y77747D01*
X201219Y77852D01*
X201073Y77930D01*
X200915Y77978D01*
X200750Y77994D01*
D02*
G37*
G36*
X163200Y77200D02*
X163086Y77185D01*
X162980Y77141D01*
X162889Y77071D01*
X162819Y76980D01*
X162775Y76874D01*
X162760Y76760D01*
X162775Y76646D01*
X162819Y76540D01*
X162889Y76449D01*
X162980Y76379D01*
X163086Y76335D01*
X163200Y76320D01*
X163314Y76335D01*
X163420Y76379D01*
X163511Y76449D01*
X163581Y76540D01*
X163625Y76646D01*
X163640Y76760D01*
X163625Y76874D01*
X163581Y76980D01*
X163511Y77071D01*
X163420Y77141D01*
X163314Y77185D01*
X163200Y77200D01*
D02*
G37*
G36*
X113580D02*
X113466Y77185D01*
X113360Y77141D01*
X113269Y77071D01*
X113199Y76980D01*
X113155Y76874D01*
X113140Y76760D01*
X113155Y76646D01*
X113199Y76540D01*
X113269Y76449D01*
X113360Y76379D01*
X113466Y76335D01*
X113580Y76320D01*
X113694Y76335D01*
X113800Y76379D01*
X113891Y76449D01*
X113961Y76540D01*
X114005Y76646D01*
X114020Y76760D01*
X114005Y76874D01*
X113961Y76980D01*
X113891Y77071D01*
X113800Y77141D01*
X113694Y77185D01*
X113580Y77200D01*
D02*
G37*
G36*
X138400Y78180D02*
X138286Y78165D01*
X138180Y78121D01*
X138089Y78051D01*
X138019Y77960D01*
X137975Y77854D01*
X137960Y77740D01*
X137975Y77626D01*
X138019Y77520D01*
X138089Y77429D01*
X138180Y77359D01*
X138286Y77315D01*
X138400Y77300D01*
X138514Y77315D01*
X138620Y77359D01*
X138711Y77429D01*
X138781Y77520D01*
X138825Y77626D01*
X138840Y77740D01*
X138825Y77854D01*
X138781Y77960D01*
X138711Y78051D01*
X138620Y78121D01*
X138514Y78165D01*
X138400Y78180D01*
D02*
G37*
G36*
X134840D02*
X134726Y78165D01*
X134620Y78121D01*
X134529Y78051D01*
X134459Y77960D01*
X134415Y77854D01*
X134400Y77740D01*
X134415Y77626D01*
X134459Y77520D01*
X134529Y77429D01*
X134620Y77359D01*
X134726Y77315D01*
X134840Y77300D01*
X134954Y77315D01*
X135060Y77359D01*
X135151Y77429D01*
X135221Y77520D01*
X135265Y77626D01*
X135280Y77740D01*
X135265Y77854D01*
X135221Y77960D01*
X135151Y78051D01*
X135060Y78121D01*
X134954Y78165D01*
X134840Y78180D01*
D02*
G37*
G36*
X141920D02*
X141806Y78165D01*
X141700Y78121D01*
X141609Y78051D01*
X141539Y77960D01*
X141495Y77854D01*
X141480Y77740D01*
X141495Y77626D01*
X141539Y77520D01*
X141609Y77429D01*
X141700Y77359D01*
X141806Y77315D01*
X141920Y77300D01*
X142034Y77315D01*
X142140Y77359D01*
X142231Y77429D01*
X142301Y77520D01*
X142345Y77626D01*
X142360Y77740D01*
X142345Y77854D01*
X142301Y77960D01*
X142231Y78051D01*
X142140Y78121D01*
X142034Y78165D01*
X141920Y78180D01*
D02*
G37*
G36*
X159640D02*
X159526Y78165D01*
X159420Y78121D01*
X159329Y78051D01*
X159259Y77960D01*
X159215Y77854D01*
X159200Y77740D01*
X159215Y77626D01*
X159259Y77520D01*
X159329Y77429D01*
X159420Y77359D01*
X159526Y77315D01*
X159640Y77300D01*
X159754Y77315D01*
X159860Y77359D01*
X159951Y77429D01*
X160021Y77520D01*
X160065Y77626D01*
X160080Y77740D01*
X160065Y77854D01*
X160021Y77960D01*
X159951Y78051D01*
X159860Y78121D01*
X159754Y78165D01*
X159640Y78180D01*
D02*
G37*
G36*
X145480D02*
X145366Y78165D01*
X145260Y78121D01*
X145169Y78051D01*
X145099Y77960D01*
X145055Y77854D01*
X145040Y77740D01*
X145055Y77626D01*
X145099Y77520D01*
X145169Y77429D01*
X145260Y77359D01*
X145366Y77315D01*
X145480Y77300D01*
X145594Y77315D01*
X145700Y77359D01*
X145791Y77429D01*
X145861Y77520D01*
X145905Y77626D01*
X145920Y77740D01*
X145905Y77854D01*
X145861Y77960D01*
X145791Y78051D01*
X145700Y78121D01*
X145594Y78165D01*
X145480Y78180D01*
D02*
G37*
G36*
X106500D02*
X106386Y78165D01*
X106280Y78121D01*
X106189Y78051D01*
X106119Y77960D01*
X106075Y77854D01*
X106060Y77740D01*
X106075Y77626D01*
X106119Y77520D01*
X106189Y77429D01*
X106280Y77359D01*
X106386Y77315D01*
X106500Y77300D01*
X106614Y77315D01*
X106720Y77359D01*
X106811Y77429D01*
X106881Y77520D01*
X106925Y77626D01*
X106940Y77740D01*
X106925Y77854D01*
X106881Y77960D01*
X106811Y78051D01*
X106720Y78121D01*
X106614Y78165D01*
X106500Y78180D01*
D02*
G37*
G36*
X102960D02*
X102846Y78165D01*
X102740Y78121D01*
X102649Y78051D01*
X102579Y77960D01*
X102535Y77854D01*
X102520Y77740D01*
X102535Y77626D01*
X102579Y77520D01*
X102649Y77429D01*
X102740Y77359D01*
X102846Y77315D01*
X102960Y77300D01*
X103074Y77315D01*
X103180Y77359D01*
X103271Y77429D01*
X103341Y77520D01*
X103385Y77626D01*
X103400Y77740D01*
X103385Y77854D01*
X103341Y77960D01*
X103271Y78051D01*
X103180Y78121D01*
X103074Y78165D01*
X102960Y78180D01*
D02*
G37*
G36*
X110040D02*
X109926Y78165D01*
X109820Y78121D01*
X109729Y78051D01*
X109659Y77960D01*
X109615Y77854D01*
X109600Y77740D01*
X109615Y77626D01*
X109659Y77520D01*
X109729Y77429D01*
X109820Y77359D01*
X109926Y77315D01*
X110040Y77300D01*
X110154Y77315D01*
X110260Y77359D01*
X110351Y77429D01*
X110421Y77520D01*
X110465Y77626D01*
X110480Y77740D01*
X110465Y77854D01*
X110421Y77960D01*
X110351Y78051D01*
X110260Y78121D01*
X110154Y78165D01*
X110040Y78180D01*
D02*
G37*
G36*
X131300D02*
X131186Y78165D01*
X131080Y78121D01*
X130989Y78051D01*
X130919Y77960D01*
X130875Y77854D01*
X130860Y77740D01*
X130875Y77626D01*
X130919Y77520D01*
X130989Y77429D01*
X131080Y77359D01*
X131186Y77315D01*
X131300Y77300D01*
X131414Y77315D01*
X131520Y77359D01*
X131611Y77429D01*
X131681Y77520D01*
X131725Y77626D01*
X131740Y77740D01*
X131725Y77854D01*
X131681Y77960D01*
X131611Y78051D01*
X131520Y78121D01*
X131414Y78165D01*
X131300Y78180D01*
D02*
G37*
G36*
X117120D02*
X117006Y78165D01*
X116900Y78121D01*
X116809Y78051D01*
X116739Y77960D01*
X116695Y77854D01*
X116680Y77740D01*
X116695Y77626D01*
X116739Y77520D01*
X116809Y77429D01*
X116900Y77359D01*
X117006Y77315D01*
X117120Y77300D01*
X117234Y77315D01*
X117340Y77359D01*
X117431Y77429D01*
X117501Y77520D01*
X117545Y77626D01*
X117560Y77740D01*
X117545Y77854D01*
X117501Y77960D01*
X117431Y78051D01*
X117340Y78121D01*
X117234Y78165D01*
X117120Y78180D01*
D02*
G37*
G36*
X90360Y87000D02*
X90246Y86985D01*
X90140Y86941D01*
X90049Y86871D01*
X89979Y86780D01*
X89935Y86674D01*
X89920Y86560D01*
X89935Y86446D01*
X89979Y86340D01*
X90049Y86249D01*
X90140Y86179D01*
X90246Y86135D01*
X90360Y86120D01*
X90474Y86135D01*
X90580Y86179D01*
X90671Y86249D01*
X90741Y86340D01*
X90785Y86446D01*
X90800Y86560D01*
X90785Y86674D01*
X90741Y86780D01*
X90671Y86871D01*
X90580Y86941D01*
X90474Y86985D01*
X90360Y87000D01*
D02*
G37*
G36*
X200750Y86628D02*
X200586Y86611D01*
X200427Y86563D01*
X200282Y86485D01*
X200154Y86381D01*
X200049Y86253D01*
X199971Y86107D01*
X199923Y85948D01*
X199907Y85784D01*
X199923Y85619D01*
X199971Y85461D01*
X200049Y85315D01*
X200154Y85187D01*
X200282Y85082D01*
X200427Y85004D01*
X200586Y84956D01*
X200750Y84940D01*
X200915Y84956D01*
X201073Y85004D01*
X201219Y85082D01*
X201347Y85187D01*
X201452Y85315D01*
X201530Y85461D01*
X201578Y85619D01*
X201594Y85784D01*
X201578Y85948D01*
X201530Y86107D01*
X201452Y86253D01*
X201347Y86381D01*
X201219Y86485D01*
X201073Y86563D01*
X200915Y86611D01*
X200750Y86628D01*
D02*
G37*
G36*
X175400Y87010D02*
X175286Y86995D01*
X175180Y86951D01*
X175089Y86881D01*
X175019Y86790D01*
X174975Y86684D01*
X174960Y86570D01*
X174975Y86456D01*
X175019Y86350D01*
X175089Y86259D01*
X175180Y86189D01*
X175286Y86145D01*
X175400Y86130D01*
X175514Y86145D01*
X175620Y86189D01*
X175711Y86259D01*
X175781Y86350D01*
X175825Y86456D01*
X175840Y86570D01*
X175825Y86684D01*
X175781Y86790D01*
X175711Y86881D01*
X175620Y86951D01*
X175514Y86995D01*
X175400Y87010D01*
D02*
G37*
G36*
X100580Y87020D02*
X100466Y87005D01*
X100360Y86961D01*
X100269Y86891D01*
X100199Y86800D01*
X100155Y86694D01*
X100140Y86580D01*
X100155Y86466D01*
X100199Y86360D01*
X100269Y86269D01*
X100360Y86199D01*
X100466Y86155D01*
X100580Y86140D01*
X100694Y86155D01*
X100800Y86199D01*
X100891Y86269D01*
X100961Y86360D01*
X101005Y86466D01*
X101020Y86580D01*
X101005Y86694D01*
X100961Y86800D01*
X100891Y86891D01*
X100800Y86961D01*
X100694Y87005D01*
X100580Y87020D01*
D02*
G37*
G36*
X72240D02*
X72126Y87005D01*
X72020Y86961D01*
X71929Y86891D01*
X71859Y86800D01*
X71815Y86694D01*
X71800Y86580D01*
X71815Y86466D01*
X71859Y86360D01*
X71929Y86269D01*
X72020Y86199D01*
X72126Y86155D01*
X72240Y86140D01*
X72354Y86155D01*
X72460Y86199D01*
X72551Y86269D01*
X72621Y86360D01*
X72665Y86466D01*
X72680Y86580D01*
X72665Y86694D01*
X72621Y86800D01*
X72551Y86891D01*
X72460Y86961D01*
X72354Y87005D01*
X72240Y87020D01*
D02*
G37*
G36*
X197250Y85783D02*
X197121Y85766D01*
X197001Y85716D01*
X196897Y85637D01*
X196818Y85534D01*
X196768Y85413D01*
X196751Y85284D01*
X196768Y85155D01*
X196818Y85034D01*
X196897Y84931D01*
X197001Y84851D01*
X197121Y84801D01*
X197250Y84784D01*
X197380Y84801D01*
X197500Y84851D01*
X197604Y84931D01*
X197683Y85034D01*
X197733Y85155D01*
X197750Y85284D01*
X197733Y85413D01*
X197683Y85534D01*
X197604Y85637D01*
X197500Y85716D01*
X197380Y85766D01*
X197250Y85783D01*
D02*
G37*
G36*
X147200Y84100D02*
X147086Y84085D01*
X146980Y84041D01*
X146889Y83971D01*
X146819Y83880D01*
X146775Y83774D01*
X146760Y83660D01*
X146775Y83546D01*
X146819Y83440D01*
X146889Y83349D01*
X146980Y83279D01*
X147086Y83235D01*
X147200Y83220D01*
X147314Y83235D01*
X147420Y83279D01*
X147511Y83349D01*
X147581Y83440D01*
X147625Y83546D01*
X147640Y83660D01*
X147625Y83774D01*
X147581Y83880D01*
X147511Y83971D01*
X147420Y84041D01*
X147314Y84085D01*
X147200Y84100D01*
D02*
G37*
G36*
X129100D02*
X128986Y84085D01*
X128880Y84041D01*
X128789Y83971D01*
X128719Y83880D01*
X128675Y83774D01*
X128660Y83660D01*
X128675Y83546D01*
X128719Y83440D01*
X128789Y83349D01*
X128880Y83279D01*
X128986Y83235D01*
X129100Y83220D01*
X129214Y83235D01*
X129320Y83279D01*
X129411Y83349D01*
X129481Y83440D01*
X129525Y83546D01*
X129540Y83660D01*
X129525Y83774D01*
X129481Y83880D01*
X129411Y83971D01*
X129320Y84041D01*
X129214Y84085D01*
X129100Y84100D01*
D02*
G37*
G36*
X175560D02*
X175446Y84085D01*
X175340Y84041D01*
X175249Y83971D01*
X175179Y83880D01*
X175135Y83774D01*
X175120Y83660D01*
X175135Y83546D01*
X175179Y83440D01*
X175249Y83349D01*
X175340Y83279D01*
X175446Y83235D01*
X175560Y83220D01*
X175674Y83235D01*
X175780Y83279D01*
X175871Y83349D01*
X175941Y83440D01*
X175985Y83546D01*
X176000Y83660D01*
X175985Y83774D01*
X175941Y83880D01*
X175871Y83971D01*
X175780Y84041D01*
X175674Y84085D01*
X175560Y84100D01*
D02*
G37*
G36*
X198250Y85283D02*
X198121Y85266D01*
X198001Y85216D01*
X197897Y85137D01*
X197818Y85034D01*
X197768Y84913D01*
X197751Y84784D01*
X197768Y84655D01*
X197818Y84534D01*
X197897Y84431D01*
X198001Y84351D01*
X198121Y84301D01*
X198250Y84284D01*
X198380Y84301D01*
X198500Y84351D01*
X198604Y84431D01*
X198683Y84534D01*
X198733Y84655D01*
X198750Y84784D01*
X198733Y84913D01*
X198683Y85034D01*
X198604Y85137D01*
X198500Y85216D01*
X198380Y85266D01*
X198250Y85283D01*
D02*
G37*
G36*
X197250Y84783D02*
X197121Y84766D01*
X197001Y84716D01*
X196897Y84637D01*
X196818Y84534D01*
X196768Y84413D01*
X196751Y84284D01*
X196768Y84155D01*
X196818Y84034D01*
X196897Y83931D01*
X197001Y83851D01*
X197121Y83801D01*
X197250Y83784D01*
X197380Y83801D01*
X197500Y83851D01*
X197604Y83931D01*
X197683Y84034D01*
X197733Y84155D01*
X197750Y84284D01*
X197733Y84413D01*
X197683Y84534D01*
X197604Y84637D01*
X197500Y84716D01*
X197380Y84766D01*
X197250Y84783D01*
D02*
G37*
G36*
X100580Y88020D02*
X100466Y88005D01*
X100360Y87961D01*
X100269Y87891D01*
X100199Y87800D01*
X100155Y87694D01*
X100140Y87580D01*
X100155Y87466D01*
X100199Y87360D01*
X100269Y87269D01*
X100360Y87199D01*
X100466Y87155D01*
X100580Y87140D01*
X100694Y87155D01*
X100800Y87199D01*
X100891Y87269D01*
X100961Y87360D01*
X101005Y87466D01*
X101020Y87580D01*
X101005Y87694D01*
X100961Y87800D01*
X100891Y87891D01*
X100800Y87961D01*
X100694Y88005D01*
X100580Y88020D01*
D02*
G37*
G36*
X72240D02*
X72126Y88005D01*
X72020Y87961D01*
X71929Y87891D01*
X71859Y87800D01*
X71815Y87694D01*
X71800Y87580D01*
X71815Y87466D01*
X71859Y87360D01*
X71929Y87269D01*
X72020Y87199D01*
X72126Y87155D01*
X72240Y87140D01*
X72354Y87155D01*
X72460Y87199D01*
X72551Y87269D01*
X72621Y87360D01*
X72665Y87466D01*
X72680Y87580D01*
X72665Y87694D01*
X72621Y87800D01*
X72551Y87891D01*
X72460Y87961D01*
X72354Y88005D01*
X72240Y88020D01*
D02*
G37*
G36*
X128940D02*
X128826Y88005D01*
X128720Y87961D01*
X128629Y87891D01*
X128559Y87800D01*
X128515Y87694D01*
X128500Y87580D01*
X128515Y87466D01*
X128559Y87360D01*
X128629Y87269D01*
X128720Y87199D01*
X128826Y87155D01*
X128940Y87140D01*
X129054Y87155D01*
X129160Y87199D01*
X129251Y87269D01*
X129321Y87360D01*
X129365Y87466D01*
X129380Y87580D01*
X129365Y87694D01*
X129321Y87800D01*
X129251Y87891D01*
X129160Y87961D01*
X129054Y88005D01*
X128940Y88020D01*
D02*
G37*
G36*
X118700Y88040D02*
X118586Y88025D01*
X118480Y87981D01*
X118389Y87911D01*
X118319Y87820D01*
X118275Y87714D01*
X118260Y87600D01*
X118275Y87486D01*
X118319Y87380D01*
X118389Y87289D01*
X118480Y87219D01*
X118586Y87175D01*
X118700Y87160D01*
X118814Y87175D01*
X118920Y87219D01*
X119011Y87289D01*
X119081Y87380D01*
X119125Y87486D01*
X119140Y87600D01*
X119125Y87714D01*
X119081Y87820D01*
X119011Y87911D01*
X118920Y87981D01*
X118814Y88025D01*
X118700Y88040D01*
D02*
G37*
G36*
X147060Y88020D02*
X146946Y88005D01*
X146840Y87961D01*
X146749Y87891D01*
X146679Y87800D01*
X146635Y87694D01*
X146620Y87580D01*
X146635Y87466D01*
X146679Y87360D01*
X146749Y87269D01*
X146840Y87199D01*
X146946Y87155D01*
X147060Y87140D01*
X147174Y87155D01*
X147280Y87199D01*
X147371Y87269D01*
X147441Y87360D01*
X147485Y87466D01*
X147500Y87580D01*
X147485Y87694D01*
X147441Y87800D01*
X147371Y87891D01*
X147280Y87961D01*
X147174Y88005D01*
X147060Y88020D01*
D02*
G37*
G36*
X175400Y88010D02*
X175286Y87995D01*
X175180Y87951D01*
X175089Y87881D01*
X175019Y87790D01*
X174975Y87684D01*
X174960Y87570D01*
X174975Y87456D01*
X175019Y87350D01*
X175089Y87259D01*
X175180Y87189D01*
X175286Y87145D01*
X175400Y87130D01*
X175514Y87145D01*
X175620Y87189D01*
X175711Y87259D01*
X175781Y87350D01*
X175825Y87456D01*
X175840Y87570D01*
X175825Y87684D01*
X175781Y87790D01*
X175711Y87881D01*
X175620Y87951D01*
X175514Y87995D01*
X175400Y88010D01*
D02*
G37*
G36*
X147060Y87020D02*
X146946Y87005D01*
X146840Y86961D01*
X146749Y86891D01*
X146679Y86800D01*
X146635Y86694D01*
X146620Y86580D01*
X146635Y86466D01*
X146679Y86360D01*
X146749Y86269D01*
X146840Y86199D01*
X146946Y86155D01*
X147060Y86140D01*
X147174Y86155D01*
X147280Y86199D01*
X147371Y86269D01*
X147441Y86360D01*
X147485Y86466D01*
X147500Y86580D01*
X147485Y86694D01*
X147441Y86800D01*
X147371Y86891D01*
X147280Y86961D01*
X147174Y87005D01*
X147060Y87020D01*
D02*
G37*
G36*
X128940D02*
X128826Y87005D01*
X128720Y86961D01*
X128629Y86891D01*
X128559Y86800D01*
X128515Y86694D01*
X128500Y86580D01*
X128515Y86466D01*
X128559Y86360D01*
X128629Y86269D01*
X128720Y86199D01*
X128826Y86155D01*
X128940Y86140D01*
X129054Y86155D01*
X129160Y86199D01*
X129251Y86269D01*
X129321Y86360D01*
X129365Y86466D01*
X129380Y86580D01*
X129365Y86694D01*
X129321Y86800D01*
X129251Y86891D01*
X129160Y86961D01*
X129054Y87005D01*
X128940Y87020D01*
D02*
G37*
G36*
X118700Y87040D02*
X118586Y87025D01*
X118480Y86981D01*
X118389Y86911D01*
X118319Y86820D01*
X118275Y86714D01*
X118260Y86600D01*
X118275Y86486D01*
X118319Y86380D01*
X118389Y86289D01*
X118480Y86219D01*
X118586Y86175D01*
X118700Y86160D01*
X118814Y86175D01*
X118920Y86219D01*
X119011Y86289D01*
X119081Y86380D01*
X119125Y86486D01*
X119140Y86600D01*
X119125Y86714D01*
X119081Y86820D01*
X119011Y86911D01*
X118920Y86981D01*
X118814Y87025D01*
X118700Y87040D01*
D02*
G37*
G36*
X90360Y88000D02*
X90246Y87985D01*
X90140Y87941D01*
X90049Y87871D01*
X89979Y87780D01*
X89935Y87674D01*
X89920Y87560D01*
X89935Y87446D01*
X89979Y87340D01*
X90049Y87249D01*
X90140Y87179D01*
X90246Y87135D01*
X90360Y87120D01*
X90474Y87135D01*
X90580Y87179D01*
X90671Y87249D01*
X90741Y87340D01*
X90785Y87446D01*
X90800Y87560D01*
X90785Y87674D01*
X90741Y87780D01*
X90671Y87871D01*
X90580Y87941D01*
X90474Y87985D01*
X90360Y88000D01*
D02*
G37*
G36*
X157290Y87040D02*
X157176Y87025D01*
X157070Y86981D01*
X156979Y86911D01*
X156909Y86820D01*
X156865Y86714D01*
X156850Y86600D01*
X156865Y86486D01*
X156909Y86380D01*
X156979Y86289D01*
X157070Y86219D01*
X157176Y86175D01*
X157290Y86160D01*
X157404Y86175D01*
X157510Y86219D01*
X157601Y86289D01*
X157671Y86380D01*
X157715Y86486D01*
X157730Y86600D01*
X157715Y86714D01*
X157671Y86820D01*
X157601Y86911D01*
X157510Y86981D01*
X157404Y87025D01*
X157290Y87040D01*
D02*
G37*
G36*
X118860Y83080D02*
X118746Y83065D01*
X118640Y83021D01*
X118549Y82951D01*
X118479Y82860D01*
X118435Y82754D01*
X118420Y82640D01*
X118435Y82526D01*
X118479Y82420D01*
X118549Y82329D01*
X118640Y82259D01*
X118746Y82215D01*
X118860Y82200D01*
X118974Y82215D01*
X119080Y82259D01*
X119171Y82329D01*
X119241Y82420D01*
X119285Y82526D01*
X119300Y82640D01*
X119285Y82754D01*
X119241Y82860D01*
X119171Y82951D01*
X119080Y83021D01*
X118974Y83065D01*
X118860Y83080D01*
D02*
G37*
G36*
X100760D02*
X100646Y83065D01*
X100540Y83021D01*
X100449Y82951D01*
X100379Y82860D01*
X100335Y82754D01*
X100320Y82640D01*
X100335Y82526D01*
X100379Y82420D01*
X100449Y82329D01*
X100540Y82259D01*
X100646Y82215D01*
X100760Y82200D01*
X100874Y82215D01*
X100980Y82259D01*
X101071Y82329D01*
X101141Y82420D01*
X101185Y82526D01*
X101200Y82640D01*
X101185Y82754D01*
X101141Y82860D01*
X101071Y82951D01*
X100980Y83021D01*
X100874Y83065D01*
X100760Y83080D01*
D02*
G37*
G36*
X157440Y83090D02*
X157326Y83075D01*
X157220Y83031D01*
X157129Y82961D01*
X157059Y82870D01*
X157015Y82764D01*
X157000Y82650D01*
X157015Y82536D01*
X157059Y82430D01*
X157129Y82339D01*
X157220Y82269D01*
X157326Y82225D01*
X157440Y82210D01*
X157554Y82225D01*
X157660Y82269D01*
X157751Y82339D01*
X157821Y82430D01*
X157865Y82536D01*
X157880Y82650D01*
X157865Y82764D01*
X157821Y82870D01*
X157751Y82961D01*
X157660Y83031D01*
X157554Y83075D01*
X157440Y83090D01*
D02*
G37*
G36*
X147200Y83100D02*
X147086Y83085D01*
X146980Y83041D01*
X146889Y82971D01*
X146819Y82880D01*
X146775Y82774D01*
X146760Y82660D01*
X146775Y82546D01*
X146819Y82440D01*
X146889Y82349D01*
X146980Y82279D01*
X147086Y82235D01*
X147200Y82220D01*
X147314Y82235D01*
X147420Y82279D01*
X147511Y82349D01*
X147581Y82440D01*
X147625Y82546D01*
X147640Y82660D01*
X147625Y82774D01*
X147581Y82880D01*
X147511Y82971D01*
X147420Y83041D01*
X147314Y83085D01*
X147200Y83100D01*
D02*
G37*
G36*
X129100D02*
X128986Y83085D01*
X128880Y83041D01*
X128789Y82971D01*
X128719Y82880D01*
X128675Y82774D01*
X128660Y82660D01*
X128675Y82546D01*
X128719Y82440D01*
X128789Y82349D01*
X128880Y82279D01*
X128986Y82235D01*
X129100Y82220D01*
X129214Y82235D01*
X129320Y82279D01*
X129411Y82349D01*
X129481Y82440D01*
X129525Y82546D01*
X129540Y82660D01*
X129525Y82774D01*
X129481Y82880D01*
X129411Y82971D01*
X129320Y83041D01*
X129214Y83085D01*
X129100Y83100D01*
D02*
G37*
G36*
X72400Y83080D02*
X72286Y83065D01*
X72180Y83021D01*
X72089Y82951D01*
X72019Y82860D01*
X71975Y82754D01*
X71960Y82640D01*
X71975Y82526D01*
X72019Y82420D01*
X72089Y82329D01*
X72180Y82259D01*
X72286Y82215D01*
X72400Y82200D01*
X72514Y82215D01*
X72620Y82259D01*
X72711Y82329D01*
X72781Y82420D01*
X72825Y82526D01*
X72840Y82640D01*
X72825Y82754D01*
X72781Y82860D01*
X72711Y82951D01*
X72620Y83021D01*
X72514Y83065D01*
X72400Y83080D01*
D02*
G37*
G36*
X200750Y82128D02*
X200586Y82111D01*
X200427Y82063D01*
X200282Y81985D01*
X200154Y81881D01*
X200049Y81753D01*
X199971Y81607D01*
X199923Y81448D01*
X199907Y81284D01*
X199923Y81119D01*
X199971Y80961D01*
X200049Y80815D01*
X200154Y80687D01*
X200282Y80582D01*
X200427Y80504D01*
X200586Y80456D01*
X200750Y80440D01*
X200915Y80456D01*
X201073Y80504D01*
X201219Y80582D01*
X201347Y80687D01*
X201452Y80815D01*
X201530Y80961D01*
X201578Y81119D01*
X201594Y81284D01*
X201578Y81448D01*
X201530Y81607D01*
X201452Y81753D01*
X201347Y81881D01*
X201219Y81985D01*
X201073Y82063D01*
X200915Y82111D01*
X200750Y82128D01*
D02*
G37*
G36*
X129260Y80160D02*
X129146Y80145D01*
X129040Y80101D01*
X128949Y80031D01*
X128879Y79940D01*
X128835Y79834D01*
X128820Y79720D01*
X128835Y79606D01*
X128879Y79500D01*
X128949Y79409D01*
X129040Y79339D01*
X129146Y79295D01*
X129260Y79280D01*
X129374Y79295D01*
X129480Y79339D01*
X129571Y79409D01*
X129641Y79500D01*
X129685Y79606D01*
X129700Y79720D01*
X129685Y79834D01*
X129641Y79940D01*
X129571Y80031D01*
X129480Y80101D01*
X129374Y80145D01*
X129260Y80160D01*
D02*
G37*
G36*
X198250Y84283D02*
X198121Y84266D01*
X198001Y84216D01*
X197897Y84137D01*
X197818Y84034D01*
X197768Y83913D01*
X197751Y83784D01*
X197768Y83655D01*
X197818Y83534D01*
X197897Y83431D01*
X198001Y83351D01*
X198121Y83301D01*
X198178Y83294D01*
D01*
D01*
D01*
Y83294D01*
X198116Y83286D01*
X197991Y83234D01*
X197883Y83151D01*
X197801Y83044D01*
X197749Y82918D01*
X197731Y82784D01*
X197749Y82649D01*
X197801Y82524D01*
X197883Y82417D01*
X197991Y82334D01*
X198116Y82282D01*
X198139Y82279D01*
D01*
D01*
X197755D01*
Y81289D01*
X198746D01*
Y82279D01*
X198362D01*
D01*
X198385Y82282D01*
X198510Y82334D01*
X198618Y82417D01*
X198700Y82524D01*
X198752Y82649D01*
X198770Y82784D01*
X198752Y82918D01*
X198700Y83044D01*
X198618Y83151D01*
X198510Y83234D01*
X198385Y83286D01*
X198322Y83294D01*
D01*
X198380Y83301D01*
X198500Y83351D01*
X198604Y83431D01*
X198683Y83534D01*
X198733Y83655D01*
X198750Y83784D01*
X198733Y83913D01*
X198683Y84034D01*
X198604Y84137D01*
X198500Y84216D01*
X198380Y84266D01*
X198250Y84283D01*
D02*
G37*
G36*
X90520Y83060D02*
X90406Y83045D01*
X90300Y83001D01*
X90209Y82931D01*
X90139Y82840D01*
X90095Y82734D01*
X90080Y82620D01*
X90095Y82506D01*
X90139Y82400D01*
X90209Y82309D01*
X90300Y82239D01*
X90406Y82195D01*
X90520Y82180D01*
X90634Y82195D01*
X90740Y82239D01*
X90831Y82309D01*
X90901Y82400D01*
X90945Y82506D01*
X90960Y82620D01*
X90945Y82734D01*
X90901Y82840D01*
X90831Y82931D01*
X90740Y83001D01*
X90634Y83045D01*
X90520Y83060D01*
D02*
G37*
G36*
X197250Y82783D02*
X197121Y82766D01*
X197001Y82716D01*
X196897Y82637D01*
X196818Y82534D01*
X196768Y82413D01*
X196751Y82284D01*
X196768Y82155D01*
X196818Y82034D01*
X196897Y81931D01*
X197001Y81851D01*
X197121Y81801D01*
X197250Y81784D01*
X197380Y81801D01*
X197500Y81851D01*
X197604Y81931D01*
X197683Y82034D01*
X197733Y82155D01*
X197750Y82284D01*
X197733Y82413D01*
X197683Y82534D01*
X197604Y82637D01*
X197500Y82716D01*
X197380Y82766D01*
X197250Y82783D01*
D02*
G37*
G36*
X100760Y84080D02*
X100646Y84065D01*
X100540Y84021D01*
X100449Y83951D01*
X100379Y83860D01*
X100335Y83754D01*
X100320Y83640D01*
X100335Y83526D01*
X100379Y83420D01*
X100449Y83329D01*
X100540Y83259D01*
X100646Y83215D01*
X100760Y83200D01*
X100874Y83215D01*
X100980Y83259D01*
X101071Y83329D01*
X101141Y83420D01*
X101185Y83526D01*
X101200Y83640D01*
X101185Y83754D01*
X101141Y83860D01*
X101071Y83951D01*
X100980Y84021D01*
X100874Y84065D01*
X100760Y84080D01*
D02*
G37*
G36*
X118860D02*
X118746Y84065D01*
X118640Y84021D01*
X118549Y83951D01*
X118479Y83860D01*
X118435Y83754D01*
X118420Y83640D01*
X118435Y83526D01*
X118479Y83420D01*
X118549Y83329D01*
X118640Y83259D01*
X118746Y83215D01*
X118860Y83200D01*
X118974Y83215D01*
X119080Y83259D01*
X119171Y83329D01*
X119241Y83420D01*
X119285Y83526D01*
X119300Y83640D01*
X119285Y83754D01*
X119241Y83860D01*
X119171Y83951D01*
X119080Y84021D01*
X118974Y84065D01*
X118860Y84080D01*
D02*
G37*
G36*
X157440Y84090D02*
X157326Y84075D01*
X157220Y84031D01*
X157129Y83961D01*
X157059Y83870D01*
X157015Y83764D01*
X157000Y83650D01*
X157015Y83536D01*
X157059Y83430D01*
X157129Y83339D01*
X157220Y83269D01*
X157326Y83225D01*
X157440Y83210D01*
X157554Y83225D01*
X157660Y83269D01*
X157751Y83339D01*
X157821Y83430D01*
X157865Y83536D01*
X157880Y83650D01*
X157865Y83764D01*
X157821Y83870D01*
X157751Y83961D01*
X157660Y84031D01*
X157554Y84075D01*
X157440Y84090D01*
D02*
G37*
G36*
X72400Y84080D02*
X72286Y84065D01*
X72180Y84021D01*
X72089Y83951D01*
X72019Y83860D01*
X71975Y83754D01*
X71960Y83640D01*
X71975Y83526D01*
X72019Y83420D01*
X72089Y83329D01*
X72180Y83259D01*
X72286Y83215D01*
X72400Y83200D01*
X72514Y83215D01*
X72620Y83259D01*
X72711Y83329D01*
X72781Y83420D01*
X72825Y83526D01*
X72840Y83640D01*
X72825Y83754D01*
X72781Y83860D01*
X72711Y83951D01*
X72620Y84021D01*
X72514Y84065D01*
X72400Y84080D01*
D02*
G37*
G36*
X175560Y83100D02*
X175446Y83085D01*
X175340Y83041D01*
X175249Y82971D01*
X175179Y82880D01*
X175135Y82774D01*
X175120Y82660D01*
X175135Y82546D01*
X175179Y82440D01*
X175249Y82349D01*
X175340Y82279D01*
X175446Y82235D01*
X175560Y82220D01*
X175674Y82235D01*
X175780Y82279D01*
X175871Y82349D01*
X175941Y82440D01*
X175985Y82546D01*
X176000Y82660D01*
X175985Y82774D01*
X175941Y82880D01*
X175871Y82971D01*
X175780Y83041D01*
X175674Y83085D01*
X175560Y83100D01*
D02*
G37*
G36*
X197250Y83783D02*
X197121Y83766D01*
X197001Y83716D01*
X196897Y83637D01*
X196818Y83534D01*
X196768Y83413D01*
X196751Y83284D01*
X196768Y83155D01*
X196818Y83034D01*
X196897Y82931D01*
X197001Y82851D01*
X197121Y82801D01*
X197250Y82784D01*
X197380Y82801D01*
X197500Y82851D01*
X197604Y82931D01*
X197683Y83034D01*
X197733Y83155D01*
X197750Y83284D01*
X197733Y83413D01*
X197683Y83534D01*
X197604Y83637D01*
X197500Y83716D01*
X197380Y83766D01*
X197250Y83783D01*
D02*
G37*
G36*
X90520Y84060D02*
X90406Y84045D01*
X90300Y84001D01*
X90209Y83931D01*
X90139Y83840D01*
X90095Y83734D01*
X90080Y83620D01*
X90095Y83506D01*
X90139Y83400D01*
X90209Y83309D01*
X90300Y83239D01*
X90406Y83195D01*
X90520Y83180D01*
X90634Y83195D01*
X90740Y83239D01*
X90831Y83309D01*
X90901Y83400D01*
X90945Y83506D01*
X90960Y83620D01*
X90945Y83734D01*
X90901Y83840D01*
X90831Y83931D01*
X90740Y84001D01*
X90634Y84045D01*
X90520Y84060D01*
D02*
G37*
%LPD*%
G36*
X122950Y98970D02*
X123639D01*
X123734Y98739D01*
X122950Y97970D01*
Y97300D01*
X122550Y96900D01*
X121950D01*
X121550Y97300D01*
Y97960D01*
X120771Y98739D01*
X120867Y98970D01*
X121550D01*
Y99000D01*
X122950D01*
Y98970D01*
D02*
G37*
G36*
X151310D02*
X151999D01*
X152094Y98739D01*
X151310Y97970D01*
Y97300D01*
X150910Y96900D01*
X150310D01*
X149910Y97300D01*
Y97960D01*
X149131Y98739D01*
X149227Y98970D01*
X149910D01*
Y99000D01*
X151310D01*
Y98970D01*
D02*
G37*
G36*
X179650Y97300D02*
X179250Y96900D01*
X178650D01*
X178250Y97300D01*
Y97960D01*
X177471Y98739D01*
X177567Y98970D01*
X178250D01*
Y99000D01*
X179650D01*
Y97300D01*
D02*
G37*
G36*
X108544Y46104D02*
X108601Y46060D01*
X108668Y46032D01*
X108740Y46023D01*
X108750Y46024D01*
X108760Y46023D01*
X109286D01*
X109319Y45979D01*
X109413Y45907D01*
X109523Y45862D01*
X109640Y45846D01*
X109757Y45862D01*
X109867Y45907D01*
X109961Y45979D01*
X109994Y46023D01*
X118760D01*
X118832Y46032D01*
X118871Y46048D01*
X118899Y46060D01*
X118956Y46104D01*
X119406Y46553D01*
X119460Y46546D01*
X119901D01*
D01*
D01*
X119843Y46538D01*
X119733Y46493D01*
X119639Y46421D01*
X119567Y46327D01*
X119522Y46217D01*
X119506Y46100D01*
X119513Y46046D01*
X118445Y44977D01*
X114594D01*
X114561Y45021D01*
X114467Y45093D01*
X114357Y45138D01*
X114240Y45154D01*
X114123Y45138D01*
X114013Y45093D01*
X113919Y45021D01*
X113886Y44977D01*
X108555D01*
X107487Y46046D01*
X107494Y46100D01*
X107478Y46217D01*
X107433Y46327D01*
X107361Y46421D01*
X107267Y46493D01*
X107157Y46538D01*
X107099Y46546D01*
X107099D01*
X108040D01*
X108094Y46553D01*
X108544Y46104D01*
D02*
G37*
G36*
X94610Y98930D02*
X95299D01*
X95394Y98699D01*
X94610Y97930D01*
Y97260D01*
X94210Y96860D01*
X93610D01*
X93210Y97260D01*
Y98960D01*
X94610D01*
Y98930D01*
D02*
G37*
G36*
X165244Y46104D02*
X165301Y46060D01*
X165368Y46032D01*
X165440Y46023D01*
X165986D01*
X166019Y45979D01*
X166113Y45907D01*
X166223Y45862D01*
X166340Y45846D01*
X166457Y45862D01*
X166567Y45907D01*
X166661Y45979D01*
X166694Y46023D01*
X175440D01*
X175512Y46032D01*
X175551Y46048D01*
X175579Y46060D01*
X175636Y46104D01*
X176086Y46553D01*
X176140Y46546D01*
X176581D01*
D01*
D01*
X176523Y46538D01*
X176413Y46493D01*
X176319Y46421D01*
X176247Y46327D01*
X176202Y46217D01*
X176186Y46100D01*
X176193Y46046D01*
X175125Y44977D01*
X171294D01*
X171261Y45021D01*
X171167Y45093D01*
X171057Y45138D01*
X170940Y45154D01*
X170823Y45138D01*
X170713Y45093D01*
X170619Y45021D01*
X170586Y44977D01*
X165255D01*
X164187Y46046D01*
X164194Y46100D01*
X164178Y46217D01*
X164133Y46327D01*
X164061Y46421D01*
X163967Y46493D01*
X163857Y46538D01*
X163799Y46546D01*
X163799D01*
X164740D01*
X164794Y46553D01*
X165244Y46104D01*
D02*
G37*
G36*
X136904D02*
X136961Y46060D01*
X137028Y46032D01*
X137028Y46032D01*
X137028D01*
D01*
X137028Y46032D01*
D01*
D01*
Y46032D01*
X137100Y46023D01*
X137646D01*
X137679Y45979D01*
X137773Y45907D01*
X137883Y45862D01*
X138000Y45846D01*
X138117Y45862D01*
X138227Y45907D01*
X138321Y45979D01*
X138354Y46023D01*
X147100D01*
X147172Y46032D01*
X147211Y46048D01*
X147239Y46060D01*
X147296Y46104D01*
X147746Y46553D01*
X147800Y46546D01*
X148241D01*
D01*
D01*
X148183Y46538D01*
X148073Y46493D01*
X147979Y46421D01*
X147907Y46327D01*
X147862Y46217D01*
X147846Y46100D01*
X147853Y46046D01*
X146785Y44977D01*
X142954D01*
X142921Y45021D01*
X142827Y45093D01*
X142717Y45138D01*
X142600Y45154D01*
X142483Y45138D01*
X142373Y45093D01*
X142279Y45021D01*
X142246Y44977D01*
X136915D01*
X135847Y46046D01*
X135854Y46100D01*
X135838Y46217D01*
X135793Y46327D01*
X135721Y46421D01*
X135627Y46493D01*
X135517Y46538D01*
X135459Y46546D01*
X135459D01*
X136400D01*
X136454Y46553D01*
X136904Y46104D01*
D02*
G37*
D20*
X203000Y99500D02*
D03*
Y43500D02*
D03*
X66500D02*
D03*
D29*
X164300Y47900D02*
X166640D01*
X165440Y46300D02*
X175440D01*
X176140Y47000D01*
X164740D02*
X165440Y46300D01*
X175240Y44700D02*
X176640Y46100D01*
X163740D02*
X165140Y44700D01*
X172440Y49300D02*
X175040D01*
X176440Y47900D01*
X187400Y71700D02*
Y71850D01*
X186900Y72350D02*
X187400Y71850D01*
X183050Y72350D02*
X186900D01*
X182450Y71700D02*
X183050Y72350D01*
X146700Y49300D02*
X148100Y47900D01*
X144100Y49300D02*
X146700D01*
X146900Y44700D02*
X148300Y46100D01*
X147100Y46300D02*
X147800Y47000D01*
X137100Y46300D02*
X147100D01*
X115460Y49300D02*
X118060D01*
X119460Y47900D01*
X135660D02*
X138000D01*
X108760Y46300D02*
X118760D01*
X119460Y47000D01*
X118560Y44700D02*
X119960Y46100D01*
X135400D02*
X136800Y44700D01*
X136400Y47000D02*
X137100Y46300D01*
X90400D02*
X91100Y47000D01*
X85900Y44700D02*
X90200D01*
X91600Y46100D01*
X107040D02*
X108440Y44700D01*
X108040Y47000D02*
X108740Y46300D01*
X81300D02*
X90400D01*
X107300Y47900D02*
X109640D01*
X89700Y49300D02*
X91100Y47900D01*
X87400Y49300D02*
X89700D01*
X193500Y50000D02*
Y54500D01*
X191400Y47900D02*
X193500Y50000D01*
X194500Y48350D02*
Y54500D01*
X108460Y44700D02*
X118560D01*
X136800D02*
X146900D01*
X165140D02*
X175240D01*
X192250Y46100D02*
X194500Y48350D01*
D31*
X176140Y47000D02*
X187650D01*
X176640Y46100D02*
X192250D01*
X176440Y47900D02*
X191400D01*
X187650Y47000D02*
X187750Y47100D01*
X93450Y98750D02*
X178950D01*
X148100Y47900D02*
X164200D01*
X148300Y46100D02*
X163740D01*
X147800Y47000D02*
X164740D01*
X119460Y47900D02*
X135560D01*
X119460Y47000D02*
X136400D01*
X119960Y46100D02*
X135400D01*
X91100Y47000D02*
X108040D01*
X91600Y46100D02*
X107040D01*
X91100Y47900D02*
X107200D01*
D34*
X165940Y91000D02*
D03*
Y64800D02*
D03*
X80900D02*
D03*
Y91000D02*
D03*
X137600Y64800D02*
D03*
Y91000D02*
D03*
X109240Y64800D02*
D03*
Y91000D02*
D03*
D35*
X130520Y96420D02*
D03*
Y97420D02*
D03*
X147360Y78700D02*
D03*
Y79700D02*
D03*
X129260Y78720D02*
D03*
Y79720D02*
D03*
X130040Y59020D02*
D03*
Y60020D02*
D03*
X148140Y59040D02*
D03*
Y60040D02*
D03*
X132080Y57060D02*
D03*
Y58060D02*
D03*
X102160Y96420D02*
D03*
Y97420D02*
D03*
X100900Y78720D02*
D03*
Y79720D02*
D03*
X101700Y59040D02*
D03*
Y60040D02*
D03*
X134040Y96420D02*
D03*
Y97420D02*
D03*
X147200Y82660D02*
D03*
Y83660D02*
D03*
X129880Y62960D02*
D03*
Y63960D02*
D03*
X148000Y62960D02*
D03*
Y63960D02*
D03*
X135620Y57060D02*
D03*
Y58060D02*
D03*
X105700Y96440D02*
D03*
Y97440D02*
D03*
X100760Y82640D02*
D03*
Y83640D02*
D03*
X101540Y62980D02*
D03*
Y63980D02*
D03*
X156990Y95450D02*
D03*
Y94450D02*
D03*
X157140Y91550D02*
D03*
Y90550D02*
D03*
X128620Y95460D02*
D03*
Y94460D02*
D03*
X129420Y75780D02*
D03*
Y74780D02*
D03*
X145480Y77740D02*
D03*
Y76740D02*
D03*
X100280Y95460D02*
D03*
Y94460D02*
D03*
X117120Y77740D02*
D03*
Y76740D02*
D03*
X158860Y96420D02*
D03*
Y97420D02*
D03*
X159640Y77740D02*
D03*
Y76740D02*
D03*
X173820Y77740D02*
D03*
Y76740D02*
D03*
X162400Y96430D02*
D03*
Y97430D02*
D03*
X163200Y77760D02*
D03*
Y76760D02*
D03*
X166720Y77740D02*
D03*
Y76740D02*
D03*
X170280Y77740D02*
D03*
Y76740D02*
D03*
X157290Y86600D02*
D03*
Y87600D02*
D03*
X157440Y82650D02*
D03*
Y83650D02*
D03*
X157590Y78700D02*
D03*
Y79700D02*
D03*
X157750Y75780D02*
D03*
Y74780D02*
D03*
X157920Y71840D02*
D03*
Y70840D02*
D03*
X158080Y67900D02*
D03*
Y66900D02*
D03*
X158240Y63970D02*
D03*
Y62970D02*
D03*
X160430Y58060D02*
D03*
Y57060D02*
D03*
X163980Y58070D02*
D03*
Y57070D02*
D03*
X167510Y58060D02*
D03*
Y57060D02*
D03*
X171060Y58070D02*
D03*
Y57070D02*
D03*
X174610Y58060D02*
D03*
Y57060D02*
D03*
X176500Y60020D02*
D03*
Y59020D02*
D03*
X176340Y63960D02*
D03*
Y62960D02*
D03*
X176180Y67900D02*
D03*
Y66900D02*
D03*
X176020Y71840D02*
D03*
Y70840D02*
D03*
X175860Y75780D02*
D03*
Y74780D02*
D03*
X175700Y79700D02*
D03*
Y78700D02*
D03*
X175560Y83660D02*
D03*
Y82660D02*
D03*
X175400Y87570D02*
D03*
Y86570D02*
D03*
X175240Y91530D02*
D03*
Y90530D02*
D03*
X175070Y95460D02*
D03*
Y94460D02*
D03*
X152560Y58060D02*
D03*
Y57060D02*
D03*
X146260Y58060D02*
D03*
Y57060D02*
D03*
X142700Y58040D02*
D03*
Y57040D02*
D03*
X139160Y58060D02*
D03*
Y57060D02*
D03*
X129720Y67900D02*
D03*
Y66900D02*
D03*
X129560Y71840D02*
D03*
Y70840D02*
D03*
X131300Y77740D02*
D03*
Y76740D02*
D03*
X134840Y77740D02*
D03*
Y76740D02*
D03*
X138400Y77740D02*
D03*
Y76740D02*
D03*
X141920Y77740D02*
D03*
Y76740D02*
D03*
X137600Y97420D02*
D03*
Y96420D02*
D03*
X141140Y97420D02*
D03*
Y96420D02*
D03*
X144680Y97420D02*
D03*
Y96420D02*
D03*
X128780Y91540D02*
D03*
Y90540D02*
D03*
X128940Y87580D02*
D03*
Y86580D02*
D03*
X129100Y83660D02*
D03*
Y82660D02*
D03*
X147060Y87580D02*
D03*
Y86580D02*
D03*
X146900Y91520D02*
D03*
Y90520D02*
D03*
X146720Y95460D02*
D03*
Y94460D02*
D03*
X147500Y75780D02*
D03*
Y74780D02*
D03*
X147680Y71840D02*
D03*
Y70840D02*
D03*
X147840Y67900D02*
D03*
Y66900D02*
D03*
X100440Y91520D02*
D03*
Y90520D02*
D03*
X100580Y87580D02*
D03*
Y86580D02*
D03*
X101060Y75780D02*
D03*
Y74780D02*
D03*
X101220Y71840D02*
D03*
Y70840D02*
D03*
X101380Y67900D02*
D03*
Y66900D02*
D03*
X109260Y97440D02*
D03*
Y96440D02*
D03*
X112800Y97440D02*
D03*
Y96440D02*
D03*
X116340Y97440D02*
D03*
Y96440D02*
D03*
X118380Y95460D02*
D03*
Y94460D02*
D03*
X118540Y91540D02*
D03*
Y90540D02*
D03*
X118700Y87600D02*
D03*
Y86600D02*
D03*
X118860Y83640D02*
D03*
Y82640D02*
D03*
X119020Y79720D02*
D03*
Y78720D02*
D03*
X113580Y77760D02*
D03*
Y76760D02*
D03*
X110040Y77740D02*
D03*
Y76740D02*
D03*
X106500Y77740D02*
D03*
Y76740D02*
D03*
X102960Y77740D02*
D03*
Y76740D02*
D03*
X119160Y75780D02*
D03*
Y74780D02*
D03*
X119340Y71840D02*
D03*
Y70840D02*
D03*
X119500Y67920D02*
D03*
Y66920D02*
D03*
X119640Y63960D02*
D03*
Y62960D02*
D03*
X119800Y60020D02*
D03*
Y59020D02*
D03*
X117920Y58060D02*
D03*
Y57060D02*
D03*
X114380Y58060D02*
D03*
Y57060D02*
D03*
X110820Y58060D02*
D03*
Y57060D02*
D03*
X107280Y58060D02*
D03*
Y57060D02*
D03*
X103740Y58060D02*
D03*
Y57060D02*
D03*
X95860Y58060D02*
D03*
Y57060D02*
D03*
X124220Y58060D02*
D03*
Y57060D02*
D03*
X73820Y97420D02*
D03*
Y96420D02*
D03*
X77360Y97440D02*
D03*
X80900Y97420D02*
D03*
Y96420D02*
D03*
X84460Y97420D02*
D03*
Y96420D02*
D03*
X88000Y97400D02*
D03*
Y96400D02*
D03*
X71920Y95460D02*
D03*
Y94460D02*
D03*
X72080Y91520D02*
D03*
Y90520D02*
D03*
X72240Y87580D02*
D03*
Y86580D02*
D03*
X72400Y83640D02*
D03*
Y82640D02*
D03*
X72560Y79700D02*
D03*
Y78700D02*
D03*
X72720Y75780D02*
D03*
Y74780D02*
D03*
X72880Y71840D02*
D03*
Y70840D02*
D03*
X73040Y67900D02*
D03*
Y66900D02*
D03*
X73200Y63960D02*
D03*
Y62960D02*
D03*
X73360Y60020D02*
D03*
Y59020D02*
D03*
X67520Y57060D02*
D03*
Y58060D02*
D03*
X90040Y95440D02*
D03*
Y94440D02*
D03*
X90200Y91500D02*
D03*
Y90500D02*
D03*
X90360Y87560D02*
D03*
Y86560D02*
D03*
X90520Y83620D02*
D03*
Y82620D02*
D03*
X90680Y79680D02*
D03*
Y78680D02*
D03*
X88780Y77740D02*
D03*
Y76740D02*
D03*
X85240Y77740D02*
D03*
Y76740D02*
D03*
X81700Y77740D02*
D03*
Y76740D02*
D03*
X78160Y77740D02*
D03*
Y76740D02*
D03*
X74600Y77740D02*
D03*
Y76740D02*
D03*
X75400Y58060D02*
D03*
X78940Y57060D02*
D03*
Y58060D02*
D03*
X82480Y57060D02*
D03*
Y58060D02*
D03*
X86020Y57080D02*
D03*
Y58080D02*
D03*
X89560Y57060D02*
D03*
Y58060D02*
D03*
X90820Y75780D02*
D03*
Y74780D02*
D03*
X90980Y71840D02*
D03*
Y70840D02*
D03*
X91140Y67900D02*
D03*
Y66900D02*
D03*
X91300Y63960D02*
D03*
Y62960D02*
D03*
X91460Y60020D02*
D03*
X165940Y96430D02*
D03*
Y97430D02*
D03*
X169490Y96430D02*
D03*
Y97430D02*
D03*
X173030Y96430D02*
D03*
Y97430D02*
D03*
X158390Y60040D02*
D03*
Y59040D02*
D03*
D36*
X193500Y54500D02*
D03*
D37*
Y55500D02*
D03*
X194500Y54500D02*
D03*
Y55500D02*
D03*
X195500Y54500D02*
D03*
Y55500D02*
D03*
D38*
X77360Y96440D02*
D03*
X75400Y57060D02*
D03*
X91460Y59020D02*
D03*
D39*
X197250Y85284D02*
D03*
Y82284D02*
D03*
X198250Y84784D02*
D03*
X197250Y84284D02*
D03*
Y83284D02*
D03*
X198250Y83784D02*
D03*
X197250Y73650D02*
D03*
Y76650D02*
D03*
X198250Y76150D02*
D03*
X197250Y74650D02*
D03*
X198250Y75150D02*
D03*
X197250Y75650D02*
D03*
D40*
X198250Y81784D02*
D03*
X198250Y73150D02*
D03*
D41*
X198250Y82784D02*
D03*
X198250Y74150D02*
D03*
D42*
X200750Y81284D02*
D03*
Y85784D02*
D03*
X200750Y72650D02*
D03*
Y77150D02*
D03*
D43*
X85900Y44700D02*
D03*
X81300Y46300D02*
D03*
X87400Y49300D02*
D03*
X166640Y47900D02*
D03*
X166340Y46300D02*
D03*
X170940Y44700D02*
D03*
X172440Y49300D02*
D03*
X187400Y71700D02*
D03*
X187500Y92000D02*
D03*
X188500D02*
D03*
X187500Y91000D02*
D03*
X188500D02*
D03*
X191000Y75150D02*
D03*
X183550Y89050D02*
D03*
X182500D02*
D03*
X187750Y47100D02*
D03*
X182450Y71700D02*
D03*
X182500Y75650D02*
D03*
X186400Y73850D02*
D03*
X194500Y90500D02*
D03*
X195500D02*
D03*
Y91500D02*
D03*
X194500D02*
D03*
X180000D02*
D03*
X181000D02*
D03*
Y90500D02*
D03*
X180000D02*
D03*
X183900Y68500D02*
D03*
X189400Y66500D02*
D03*
X184100Y60700D02*
D03*
X195600Y61700D02*
D03*
X196600Y64700D02*
D03*
X192100Y57000D02*
D03*
X185000Y85000D02*
D03*
X186000D02*
D03*
Y84000D02*
D03*
X185000D02*
D03*
X188000D02*
D03*
X189000D02*
D03*
Y85000D02*
D03*
X188000D02*
D03*
X190400Y65000D02*
D03*
X184830Y63510D02*
D03*
X188500Y69100D02*
D03*
X186200Y71600D02*
D03*
X188100Y56800D02*
D03*
X178950Y97550D02*
D03*
Y98450D02*
D03*
X150610D02*
D03*
Y97550D02*
D03*
X144100Y49300D02*
D03*
X142600Y44700D02*
D03*
X138000Y46300D02*
D03*
Y47900D02*
D03*
X122250Y98450D02*
D03*
Y97550D02*
D03*
X114240Y44700D02*
D03*
X109640Y46300D02*
D03*
X115740Y49300D02*
D03*
X109640Y47900D02*
D03*
X93910Y97510D02*
D03*
Y98410D02*
D03*
X174350Y45500D02*
D03*
X192600Y47800D02*
D03*
X146010Y45500D02*
D03*
X117650D02*
D03*
X196374Y56276D02*
D03*
X81300Y47900D02*
D03*
M02*
