%FSLAX24Y24*%
%MOIN*%
G70*
G01*
G75*
G04 Layer_Physical_Order=1*
G04 Layer_Color=255*
%ADD10R,0.1299X0.0787*%
%ADD11R,0.0866X0.0925*%
%ADD12R,0.0610X0.0925*%
%ADD13R,0.0335X0.0335*%
%ADD14R,0.0394X0.0394*%
%ADD15O,0.0236X0.0866*%
%ADD16O,0.0236X0.0866*%
%ADD17R,0.0787X0.2362*%
%ADD18R,0.0354X0.0354*%
%ADD19R,0.0630X0.1181*%
%ADD20C,0.0394*%
%ADD21R,0.0335X0.0669*%
%ADD22R,0.0472X0.1378*%
%ADD23R,0.2185X0.2559*%
%ADD24R,0.0492X0.1201*%
%ADD25O,0.0689X0.0217*%
%ADD26O,0.0217X0.0689*%
%ADD27R,0.0630X0.0236*%
%ADD28R,0.0630X0.0236*%
%ADD29C,0.0150*%
%ADD30C,0.0250*%
%ADD31C,0.0500*%
%ADD32C,0.0100*%
%ADD33C,0.0300*%
%ADD34C,0.2500*%
%ADD35C,0.0472*%
%ADD36R,0.0591X0.0591*%
%ADD37C,0.0591*%
%ADD38C,0.0472*%
%ADD39C,0.0591*%
%ADD40R,0.0591X0.0591*%
%ADD41C,0.0630*%
%ADD42C,0.1161*%
%ADD43C,0.0500*%
G36*
X192982Y75676D02*
X192983Y75665D01*
X193011Y75598D01*
Y75206D01*
X193379D01*
X193435Y75183D01*
X193526Y75171D01*
X196224D01*
X196315Y75183D01*
X196401Y75218D01*
X196474Y75274D01*
X196496Y75297D01*
X196897D01*
X196897Y75297D01*
X197000Y75217D01*
X197121Y75167D01*
X197250Y75150D01*
X197379Y75167D01*
X197500Y75217D01*
X197603Y75297D01*
X197661Y75373D01*
X197806D01*
D01*
D01*
X197806Y75373D01*
X197767Y75279D01*
X197750Y75150D01*
X197767Y75021D01*
X197806Y74927D01*
X197806Y74927D01*
X197661D01*
X197603Y75003D01*
X197500Y75083D01*
X197379Y75133D01*
X197250Y75150D01*
X197121Y75133D01*
X197000Y75083D01*
X196897Y75003D01*
X196897Y75003D01*
X196497D01*
X196474Y75026D01*
X196401Y75082D01*
X196316Y75117D01*
X196224Y75129D01*
X193526D01*
X193435Y75117D01*
X193379Y75094D01*
X193011D01*
Y74653D01*
X192485Y74127D01*
X188637D01*
X187718Y75046D01*
X187660Y75090D01*
X187633Y75102D01*
X187593Y75118D01*
X187522Y75127D01*
X185120D01*
D01*
X185215Y75223D01*
X187500D01*
X187572Y75232D01*
X187611Y75248D01*
X187639Y75260D01*
X187696Y75304D01*
X188665Y76273D01*
X192385D01*
X192982Y75676D01*
D02*
G37*
G36*
X196426Y75524D02*
X194041D01*
Y75474D01*
X193526D01*
Y75524D01*
X193476D01*
Y75842D01*
X193208D01*
X192476Y76574D01*
Y76574D01*
X195376D01*
X196426Y75524D01*
D02*
G37*
G36*
X90329Y77169D02*
X89731Y76571D01*
X89500Y76667D01*
Y77400D01*
X90233D01*
X90329Y77169D01*
D02*
G37*
G36*
X179750Y74750D02*
Y74730D01*
X178961Y73941D01*
X178730Y74037D01*
Y75459D01*
X178961Y75554D01*
X179750Y74750D01*
D02*
G37*
G36*
X184926Y71140D02*
X184954Y71104D01*
X185304Y70754D01*
X185361Y70710D01*
X185428Y70682D01*
X185500Y70673D01*
X185935D01*
X186003Y70605D01*
Y70512D01*
X185835D01*
X185763Y70503D01*
X185696Y70475D01*
X185639Y70431D01*
X185454Y70246D01*
X185410Y70189D01*
X185398Y70161D01*
X185382Y70122D01*
X185373Y70050D01*
Y68900D01*
X185382Y68828D01*
X185398Y68789D01*
X185410Y68761D01*
X185454Y68704D01*
X186354Y67804D01*
X186411Y67760D01*
X186439Y67748D01*
X186478Y67732D01*
X186514Y67727D01*
D01*
D01*
X186415D01*
X185227Y68915D01*
Y70050D01*
X185218Y70122D01*
X185190Y70189D01*
X185146Y70246D01*
X184961Y70431D01*
X184904Y70475D01*
X184876Y70486D01*
X184847Y70499D01*
Y70631D01*
X184727D01*
Y70835D01*
X184846Y70954D01*
X184890Y71011D01*
X184918Y71078D01*
X184926Y71140D01*
X184926Y71140D01*
Y71140D01*
D01*
D02*
G37*
G36*
X187846Y71762D02*
X188710Y70898D01*
Y70262D01*
X188720Y70191D01*
X188736Y70152D01*
X188747Y70124D01*
X188791Y70066D01*
X190116Y68741D01*
X190174Y68697D01*
X190241Y68670D01*
X190312Y68660D01*
X190948D01*
X191823Y67785D01*
Y67620D01*
X191823D01*
X191246Y68196D01*
X191189Y68240D01*
X191161Y68252D01*
X191122Y68268D01*
X191050Y68277D01*
X186665D01*
X185927Y69015D01*
Y69935D01*
X185950Y69957D01*
X186003D01*
Y69838D01*
Y69169D01*
X186797D01*
Y69288D01*
X187033D01*
Y69218D01*
X187767D01*
Y69848D01*
Y70582D01*
X187677D01*
Y71346D01*
X187721Y71379D01*
X187793Y71473D01*
X187838Y71583D01*
X187854Y71700D01*
X187846Y71762D01*
X187846D01*
D01*
D01*
D02*
G37*
G36*
X194041Y74776D02*
X196326D01*
Y74776D01*
X195400Y73850D01*
X192600D01*
X193208Y74458D01*
X193476D01*
Y74776D01*
X193526D01*
Y74826D01*
X194041D01*
Y74776D01*
D02*
G37*
G36*
X117909Y78471D02*
X117813Y78240D01*
X117080D01*
Y78973D01*
X117311Y79069D01*
X117909Y78471D01*
D02*
G37*
G36*
X146269D02*
X146173Y78240D01*
X145440D01*
Y78973D01*
X145671Y79069D01*
X146269Y78471D01*
D02*
G37*
G36*
X173820Y79653D02*
Y78990D01*
X174011Y79069D01*
X174609Y78471D01*
X174513Y78240D01*
X173780D01*
Y78920D01*
X173087D01*
X172991Y79151D01*
X173589Y79749D01*
X173820Y79653D01*
D02*
G37*
G36*
X88780D02*
Y78990D01*
X88971Y79069D01*
X89569Y78471D01*
X89473Y78240D01*
X88740D01*
Y78920D01*
X88047D01*
X87951Y79151D01*
X88549Y79749D01*
X88780Y79653D01*
D02*
G37*
G36*
X118669Y77169D02*
X118071Y76571D01*
X117840Y76667D01*
Y77400D01*
X118573D01*
X118669Y77169D01*
D02*
G37*
G36*
X147029D02*
X146431Y76571D01*
X146200Y76667D01*
Y77400D01*
X146933D01*
X147029Y77169D01*
D02*
G37*
G36*
X175369D02*
X174771Y76571D01*
X174540Y76667D01*
Y77400D01*
X175273D01*
X175369Y77169D01*
D02*
G37*
G36*
X186404Y72054D02*
X186461Y72010D01*
X186528Y71982D01*
X186600Y71973D01*
X187042D01*
D01*
D01*
X187042Y71973D01*
X187007Y71927D01*
X186962Y71817D01*
X186946Y71700D01*
X186962Y71583D01*
X187007Y71473D01*
X187079Y71379D01*
X187123Y71346D01*
Y70582D01*
X187033D01*
Y69848D01*
Y69843D01*
X186797D01*
Y69962D01*
Y70631D01*
X186673D01*
X186668Y70672D01*
X186640Y70739D01*
X186596Y70796D01*
X186246Y71146D01*
X186189Y71190D01*
X186161Y71202D01*
X186122Y71218D01*
X186050Y71227D01*
X185615D01*
X185427Y71415D01*
Y71479D01*
X185428Y71480D01*
X185460Y71557D01*
X185471Y71640D01*
Y72270D01*
X185460Y72353D01*
X185428Y72431D01*
X185377Y72497D01*
X185310Y72548D01*
X185233Y72580D01*
X185150Y72591D01*
X185067Y72580D01*
X184990Y72548D01*
X184923Y72497D01*
X184900Y72467D01*
X184900Y72467D01*
Y72467D01*
Y72467D01*
X184900Y72467D01*
X184877Y72497D01*
X184810Y72548D01*
X184733Y72580D01*
X184650Y72591D01*
X184567Y72580D01*
X184490Y72548D01*
X184423Y72497D01*
X184400Y72467D01*
X184400Y72467D01*
Y72467D01*
Y72467D01*
X184400Y72467D01*
X184377Y72497D01*
X184310Y72548D01*
X184233Y72580D01*
X184150Y72591D01*
X184067Y72580D01*
X183990Y72548D01*
X183927Y72500D01*
X183927Y72500D01*
D01*
D01*
Y72635D01*
X183965Y72673D01*
X185785D01*
X186404Y72054D01*
D02*
G37*
G36*
X172425Y48848D02*
D01*
X172425D01*
D01*
D01*
X172308Y48732D01*
X172256Y48664D01*
X172240Y48624D01*
X172223Y48585D01*
X172218Y48542D01*
X172212Y48500D01*
Y47736D01*
X172119Y47643D01*
X171917D01*
Y47692D01*
X171817D01*
Y48400D01*
X171808Y48472D01*
X171780Y48539D01*
X171736Y48596D01*
X171710Y48623D01*
X171710D01*
X171710D01*
Y48623D01*
X172040D01*
X172112Y48632D01*
X172151Y48648D01*
X172179Y48660D01*
X172236Y48704D01*
X172386Y48853D01*
X172425Y48848D01*
D02*
G37*
G36*
X193067Y55250D02*
X193147Y55147D01*
X193250Y55067D01*
X193371Y55017D01*
X193500Y55000D01*
X193625Y55017D01*
D01*
Y55017D01*
X193603Y54995D01*
X193005D01*
Y54027D01*
X192750D01*
X192678Y54018D01*
X192611Y53990D01*
X192554Y53946D01*
X191854Y53246D01*
X191810Y53189D01*
X191798Y53161D01*
X191782Y53122D01*
X191773Y53050D01*
Y52715D01*
X191535Y52477D01*
X191015D01*
X190890Y52602D01*
D01*
X190890D01*
X190890Y52602D01*
X191015D01*
Y54183D01*
X190777D01*
Y54450D01*
X190768Y54522D01*
X190743Y54581D01*
X190743D01*
X190743D01*
D01*
D01*
X190743D01*
Y54581D01*
X190810Y54573D01*
X191690D01*
X191762Y54582D01*
X191801Y54598D01*
X191829Y54610D01*
X191887Y54654D01*
X192490Y55257D01*
X193064D01*
X193067Y55250D01*
D02*
G37*
G36*
X195277Y57330D02*
X195674Y56934D01*
X195731Y56890D01*
X195798Y56862D01*
X195870Y56853D01*
X196725D01*
X196923Y56655D01*
Y56065D01*
X196485Y55627D01*
X196350D01*
X196278Y55618D01*
X196211Y55590D01*
X196154Y55546D01*
X195595Y54987D01*
X195500Y55000D01*
X195371Y54983D01*
X195270Y54941D01*
Y54941D01*
X195277Y55000D01*
Y57330D01*
X195277D01*
D01*
D01*
D02*
G37*
G36*
X144085Y48848D02*
D01*
X144085D01*
D01*
D01*
X143968Y48732D01*
X143916Y48664D01*
X143900Y48624D01*
X143883Y48585D01*
X143878Y48542D01*
X143872Y48500D01*
Y47736D01*
X143779Y47643D01*
X143577D01*
Y47692D01*
X143477D01*
Y48400D01*
X143468Y48472D01*
X143440Y48539D01*
X143396Y48596D01*
X143370Y48623D01*
X143370D01*
X143370D01*
Y48623D01*
X143700D01*
X143772Y48632D01*
X143811Y48648D01*
X143839Y48660D01*
X143896Y48704D01*
X144046Y48853D01*
X144085Y48848D01*
D02*
G37*
G36*
X109523Y47462D02*
X109640Y47446D01*
X109694Y47453D01*
X110313Y46835D01*
Y46586D01*
X110312Y46586D01*
X110280Y46508D01*
X110269Y46425D01*
Y45795D01*
X110280Y45712D01*
X110312Y45635D01*
X110363Y45568D01*
X110430Y45517D01*
X110507Y45485D01*
X110568Y45477D01*
D01*
D01*
X110155D01*
X109917Y45715D01*
Y45946D01*
X109961Y45979D01*
X110033Y46073D01*
X110078Y46183D01*
X110094Y46300D01*
X110078Y46417D01*
X110033Y46527D01*
X109961Y46621D01*
X109867Y46693D01*
X109757Y46738D01*
X109640Y46754D01*
X109523Y46738D01*
X109417Y46695D01*
Y46695D01*
Y47505D01*
X109417D01*
D01*
D01*
D01*
D01*
D01*
X109523Y47462D01*
D02*
G37*
G36*
X87385Y48848D02*
D01*
X87385D01*
D01*
D01*
X87268Y48732D01*
X87216Y48664D01*
X87200Y48624D01*
X87183Y48585D01*
X87178Y48542D01*
X87172Y48500D01*
Y47736D01*
X87079Y47643D01*
X86877D01*
Y47692D01*
X86777D01*
Y48400D01*
X86768Y48472D01*
X86740Y48539D01*
X86696Y48596D01*
X86670Y48623D01*
X86670D01*
X86670D01*
Y48623D01*
X87000D01*
X87072Y48632D01*
X87111Y48648D01*
X87139Y48660D01*
X87196Y48704D01*
X87346Y48853D01*
X87385Y48848D01*
D02*
G37*
G36*
X115725D02*
D01*
X115725D01*
D01*
D01*
X115608Y48732D01*
X115556Y48664D01*
X115540Y48624D01*
X115523Y48585D01*
X115518Y48542D01*
X115512Y48500D01*
Y47736D01*
X115419Y47643D01*
X115217D01*
Y47692D01*
X115117D01*
Y48400D01*
X115108Y48472D01*
X115080Y48539D01*
X115036Y48596D01*
X115010Y48623D01*
X115010D01*
X115010D01*
Y48623D01*
X115340D01*
X115412Y48632D01*
X115451Y48648D01*
X115479Y48660D01*
X115536Y48704D01*
X115686Y48853D01*
X115725Y48848D01*
D02*
G37*
G36*
X181719Y73489D02*
X181776Y73445D01*
X181843Y73417D01*
X181915Y73408D01*
X182123D01*
Y73308D01*
X182223D01*
Y72093D01*
X182129Y72021D01*
X182057Y71927D01*
X182012Y71817D01*
X181996Y71700D01*
X182012Y71583D01*
X182057Y71473D01*
X182129Y71379D01*
X182173Y71346D01*
Y70582D01*
X182083D01*
Y69848D01*
Y69218D01*
X182817D01*
Y69288D01*
X183053D01*
Y69169D01*
X183847D01*
Y69838D01*
Y70631D01*
X183727D01*
Y70885D01*
X183846Y71004D01*
X183890Y71061D01*
X183918Y71128D01*
X183927Y71200D01*
Y71410D01*
X183927D01*
D01*
D01*
D01*
X183990Y71362D01*
X184067Y71330D01*
X184150Y71319D01*
X184233Y71330D01*
X184310Y71362D01*
X184373Y71410D01*
D01*
Y71265D01*
X184254Y71146D01*
X184210Y71089D01*
X184198Y71061D01*
X184182Y71022D01*
X184173Y70950D01*
Y70631D01*
X184053D01*
Y69838D01*
X184673D01*
Y68800D01*
X184682Y68728D01*
X184698Y68689D01*
X184710Y68661D01*
X184754Y68604D01*
X186104Y67254D01*
X186161Y67210D01*
X186189Y67198D01*
X186228Y67182D01*
X186300Y67173D01*
X190685D01*
X190973Y66885D01*
Y66115D01*
X190885Y66027D01*
X190000D01*
X189928Y66018D01*
X189861Y65990D01*
X189804Y65946D01*
X189154Y65296D01*
X189110Y65239D01*
X189082Y65172D01*
X189073Y65100D01*
Y64638D01*
X189073Y64638D01*
X189041Y64642D01*
X188960Y64631D01*
X188885Y64600D01*
X188883Y64599D01*
X188881Y64600D01*
X188806Y64631D01*
X188726Y64642D01*
X188688Y64637D01*
Y64637D01*
Y65014D01*
X188796D01*
Y65768D01*
X188042D01*
Y65677D01*
X187955D01*
X187421Y66211D01*
X187364Y66255D01*
X187336Y66267D01*
X187297Y66283D01*
X187225Y66292D01*
X183967D01*
Y66382D01*
X183260D01*
X182546Y67096D01*
X182489Y67140D01*
X182461Y67152D01*
X182422Y67168D01*
X182350Y67177D01*
X179734D01*
X179404Y67514D01*
Y74096D01*
X179781Y74473D01*
X180735D01*
X181719Y73489D01*
D02*
G37*
G36*
X179720Y66900D02*
Y66880D01*
X178931Y66091D01*
X178700Y66187D01*
Y67609D01*
X178931Y67704D01*
X179720Y66900D01*
D02*
G37*
G36*
X183329Y73530D02*
X183340Y73447D01*
X183372Y73369D01*
X183423Y73303D01*
X183490Y73252D01*
X183567Y73220D01*
X183650Y73209D01*
X183733Y73220D01*
X183810Y73252D01*
X183877Y73303D01*
X183900Y73333D01*
D01*
X183923Y73303D01*
X183990Y73252D01*
X184049Y73227D01*
X184049Y73227D01*
X184049D01*
X183850D01*
X183778Y73218D01*
X183711Y73190D01*
X183654Y73146D01*
X183454Y72946D01*
X183410Y72889D01*
X183398Y72861D01*
X183382Y72822D01*
X183373Y72750D01*
Y72431D01*
X183372Y72431D01*
X183340Y72353D01*
X183329Y72270D01*
Y71640D01*
X183340Y71557D01*
X183372Y71480D01*
X183373Y71479D01*
Y71315D01*
X183254Y71196D01*
X183210Y71139D01*
X183198Y71111D01*
X183182Y71072D01*
X183173Y71000D01*
Y70631D01*
X183053D01*
Y69962D01*
Y69843D01*
X182817D01*
Y69848D01*
Y70582D01*
X182727D01*
Y71346D01*
X182771Y71379D01*
X182843Y71473D01*
X182888Y71583D01*
X182904Y71700D01*
X182888Y71817D01*
X182843Y71927D01*
X182777Y72013D01*
Y73308D01*
X182877D01*
Y73408D01*
X182990D01*
X183062Y73417D01*
X183101Y73433D01*
X183129Y73445D01*
X183186Y73489D01*
X183265Y73568D01*
X183329D01*
Y73530D01*
D02*
G37*
G36*
X179720Y64750D02*
Y64730D01*
X178931Y63941D01*
X178700Y64037D01*
Y65459D01*
X178931Y65554D01*
X179720Y64750D01*
D02*
G37*
G36*
X191423Y65780D02*
Y63615D01*
X191215Y63408D01*
X191178D01*
X191178Y63408D01*
X191183Y63445D01*
X191172Y63526D01*
X191141Y63601D01*
X191092Y63665D01*
X191027Y63715D01*
X190952Y63746D01*
X190872Y63756D01*
X190399D01*
X190319Y63746D01*
X190263Y63723D01*
D01*
X190286Y63778D01*
X190297Y63859D01*
Y64331D01*
X190286Y64412D01*
X190255Y64487D01*
X190206Y64551D01*
X190141Y64600D01*
X190066Y64631D01*
X189986Y64642D01*
X189905Y64631D01*
X189830Y64600D01*
X189828Y64599D01*
X189826Y64600D01*
X189751Y64631D01*
X189671Y64642D01*
X189627Y64636D01*
Y64636D01*
Y64985D01*
X190115Y65473D01*
X191000D01*
X191072Y65482D01*
X191111Y65498D01*
X191139Y65510D01*
X191196Y65554D01*
X191423Y65780D01*
D01*
D02*
G37*
G36*
X187644Y65204D02*
X187701Y65160D01*
X187768Y65132D01*
X187840Y65123D01*
X188042D01*
Y65014D01*
X188134D01*
Y64467D01*
X188111Y64412D01*
X188100Y64331D01*
Y63859D01*
X188111Y63778D01*
X188128Y63736D01*
Y63144D01*
X188138Y63073D01*
X188154Y63034D01*
X188165Y63006D01*
X188209Y62948D01*
X189804Y61354D01*
X189861Y61310D01*
X189928Y61282D01*
X190000Y61273D01*
X190093D01*
X190093D01*
X190088Y61241D01*
X190099Y61160D01*
X190130Y61085D01*
X190131Y61083D01*
X190130Y61081D01*
X190099Y61006D01*
X190088Y60926D01*
X190099Y60845D01*
X190130Y60770D01*
X190131Y60768D01*
X190130Y60766D01*
X190099Y60691D01*
X190088Y60611D01*
X190099Y60530D01*
X190130Y60455D01*
X190131Y60453D01*
X190130Y60451D01*
X190099Y60376D01*
X190088Y60296D01*
X190099Y60215D01*
X190122Y60160D01*
X190122Y60160D01*
X190066Y60183D01*
X189986Y60193D01*
X189905Y60183D01*
X189830Y60152D01*
X189828Y60150D01*
X189826Y60152D01*
X189751Y60183D01*
X189671Y60193D01*
X189590Y60183D01*
X189515Y60152D01*
X189513Y60150D01*
X189511Y60152D01*
X189436Y60183D01*
X189356Y60193D01*
X189275Y60183D01*
X189200Y60152D01*
X189198Y60150D01*
X189196Y60152D01*
X189121Y60183D01*
X189041Y60193D01*
X188960Y60183D01*
X188885Y60152D01*
X188883Y60150D01*
X188881Y60152D01*
X188806Y60183D01*
X188726Y60193D01*
X188645Y60183D01*
X188571Y60152D01*
X188506Y60102D01*
X188457Y60038D01*
X188426Y59963D01*
X188415Y59882D01*
Y59410D01*
X188426Y59329D01*
X188457Y59254D01*
X188506Y59190D01*
X188571Y59141D01*
X188645Y59110D01*
X188726Y59099D01*
X188806Y59110D01*
X188881Y59141D01*
X188883Y59142D01*
X188885Y59141D01*
X188960Y59110D01*
X189041Y59099D01*
X189121Y59110D01*
X189196Y59141D01*
X189198Y59142D01*
X189200Y59141D01*
X189275Y59110D01*
X189356Y59099D01*
X189436Y59110D01*
X189511Y59141D01*
X189513Y59142D01*
X189515Y59141D01*
X189590Y59110D01*
X189671Y59099D01*
X189751Y59110D01*
X189826Y59141D01*
X189828Y59142D01*
X189830Y59141D01*
X189905Y59110D01*
X189986Y59099D01*
X190066Y59110D01*
X190141Y59141D01*
X190206Y59190D01*
X190255Y59254D01*
X190286Y59329D01*
X190297Y59410D01*
Y59882D01*
X190286Y59963D01*
X190263Y60018D01*
Y60018D01*
Y60018D01*
D01*
D01*
X190263D01*
D01*
X190319Y59995D01*
X190399Y59985D01*
X190872D01*
X190952Y59995D01*
X191008Y60018D01*
X191039D01*
X193723Y57335D01*
Y55944D01*
X193723Y55944D01*
X193629Y55983D01*
X193500Y56000D01*
X193371Y55983D01*
X193250Y55933D01*
X193147Y55853D01*
X193115Y55812D01*
X192375D01*
X192303Y55803D01*
X192236Y55775D01*
X192179Y55731D01*
X191575Y55127D01*
X190925D01*
X190321Y55731D01*
X190264Y55775D01*
X190197Y55803D01*
X190125Y55812D01*
X189397D01*
Y55931D01*
X189277D01*
Y57950D01*
X189268Y58022D01*
X189240Y58089D01*
X189196Y58146D01*
X188831Y58511D01*
X188774Y58555D01*
X188746Y58567D01*
X188707Y58583D01*
X188635Y58592D01*
X188477D01*
Y58692D01*
X188373D01*
Y59274D01*
X188396Y59329D01*
X188407Y59410D01*
Y59882D01*
X188396Y59963D01*
X188377Y60009D01*
Y61100D01*
X188368Y61172D01*
X188340Y61239D01*
X188296Y61296D01*
X187211Y62382D01*
X187153Y62426D01*
X187086Y62453D01*
X187015Y62463D01*
X186729D01*
X186729Y62463D01*
X186734Y62500D01*
X186723Y62581D01*
X186692Y62656D01*
X186691Y62658D01*
X186692Y62660D01*
X186723Y62735D01*
X186734Y62815D01*
X186723Y62896D01*
X186692Y62971D01*
X186691Y62973D01*
X186692Y62975D01*
X186723Y63050D01*
X186734Y63130D01*
X186723Y63211D01*
X186692Y63286D01*
X186691Y63288D01*
X186692Y63290D01*
X186723Y63365D01*
X186734Y63445D01*
X186723Y63526D01*
X186700Y63581D01*
X186700D01*
D01*
D01*
D01*
D01*
Y63581D01*
X186756Y63558D01*
X186836Y63548D01*
X186917Y63558D01*
X186992Y63589D01*
X186994Y63591D01*
X186996Y63589D01*
X187071Y63558D01*
X187151Y63548D01*
X187232Y63558D01*
X187307Y63589D01*
X187309Y63591D01*
X187311Y63589D01*
X187386Y63558D01*
X187466Y63548D01*
X187547Y63558D01*
X187622Y63589D01*
X187624Y63591D01*
X187626Y63589D01*
X187701Y63558D01*
X187781Y63548D01*
X187862Y63558D01*
X187937Y63589D01*
X188001Y63639D01*
X188050Y63703D01*
X188081Y63778D01*
X188092Y63859D01*
Y64331D01*
X188081Y64412D01*
X188050Y64487D01*
X188001Y64551D01*
X187937Y64600D01*
X187862Y64631D01*
X187781Y64642D01*
X187701Y64631D01*
X187626Y64600D01*
X187624Y64599D01*
X187622Y64600D01*
X187547Y64631D01*
X187466Y64642D01*
X187386Y64631D01*
X187311Y64600D01*
X187309Y64599D01*
X187307Y64600D01*
X187232Y64631D01*
X187151Y64642D01*
X187114Y64637D01*
Y64637D01*
Y64844D01*
X187104Y64916D01*
X187076Y64982D01*
X187032Y65040D01*
X186546Y65526D01*
X186489Y65570D01*
X186461Y65582D01*
X186422Y65598D01*
X186350Y65607D01*
X184910D01*
X184838Y65598D01*
X184771Y65570D01*
X184714Y65526D01*
X184115Y64927D01*
X182815D01*
X182774Y64969D01*
D01*
X182774D01*
X182774Y64969D01*
X182797D01*
Y65461D01*
X182797D01*
X182797D01*
X182797D01*
X183069Y65189D01*
X183126Y65145D01*
X183154Y65133D01*
X183193Y65117D01*
X183233Y65112D01*
Y65018D01*
X183967D01*
Y65648D01*
Y65738D01*
X187110D01*
X187644Y65204D01*
D02*
G37*
G36*
X182426Y66431D02*
Y66431D01*
X182003D01*
Y65638D01*
Y64969D01*
X182123D01*
Y64950D01*
X182132Y64878D01*
X182148Y64839D01*
X182160Y64811D01*
X182204Y64754D01*
X182504Y64454D01*
X182561Y64410D01*
X182628Y64382D01*
X182700Y64373D01*
X184230D01*
X184302Y64382D01*
X184341Y64398D01*
X184369Y64410D01*
X184426Y64454D01*
X185025Y65053D01*
X186235D01*
X186559Y64729D01*
Y64467D01*
X186536Y64412D01*
X186525Y64331D01*
Y63859D01*
X186536Y63778D01*
X186559Y63723D01*
D01*
X186503Y63746D01*
X186423Y63756D01*
X185950D01*
X185870Y63746D01*
X185795Y63715D01*
X185731Y63665D01*
X185681Y63601D01*
X185650Y63526D01*
X185639Y63445D01*
X185650Y63365D01*
X185681Y63290D01*
X185683Y63288D01*
X185681Y63286D01*
X185650Y63211D01*
X185639Y63130D01*
X185650Y63050D01*
X185681Y62975D01*
X185683Y62973D01*
X185681Y62971D01*
X185650Y62896D01*
X185639Y62815D01*
X185650Y62735D01*
X185681Y62660D01*
X185683Y62658D01*
X185681Y62656D01*
X185650Y62581D01*
X185639Y62500D01*
X185644Y62463D01*
Y62463D01*
X185246D01*
Y62548D01*
X184492D01*
Y62449D01*
X183994D01*
X181496Y64946D01*
X181439Y64990D01*
X181411Y65002D01*
X181372Y65018D01*
X181300Y65027D01*
X179734D01*
X179404Y65364D01*
Y66276D01*
X179751Y66623D01*
X182235D01*
X182426Y66431D01*
D02*
G37*
G36*
X90844Y99289D02*
X90040Y98500D01*
X90020D01*
X89231Y99289D01*
X89327Y99520D01*
X90749D01*
X90844Y99289D01*
D02*
G37*
G36*
X119184D02*
X118380Y98500D01*
X118360D01*
X117571Y99289D01*
X117667Y99520D01*
X119089D01*
X119184Y99289D01*
D02*
G37*
G36*
X147544D02*
X146740Y98500D01*
X146720D01*
X145931Y99289D01*
X146027Y99520D01*
X147449D01*
X147544Y99289D01*
D02*
G37*
G36*
X125449Y99289D02*
X124620Y98460D01*
X123791Y99289D01*
X123887Y99520D01*
X125353D01*
X125449Y99289D01*
D02*
G37*
G36*
X151310Y97300D02*
X150910Y96900D01*
X150310D01*
X149910Y97300D01*
Y98846D01*
X151310D01*
Y97300D01*
D02*
G37*
G36*
X179650D02*
X179250Y96900D01*
X178650D01*
X178250Y97300D01*
Y98846D01*
X179650D01*
Y97300D01*
D02*
G37*
G36*
X97089Y99289D02*
X96260Y98460D01*
X95431Y99289D01*
X95527Y99520D01*
X96993D01*
X97089Y99289D01*
D02*
G37*
G36*
X175884Y99289D02*
X175080Y98500D01*
X175060D01*
X174271Y99289D01*
X174367Y99520D01*
X175789D01*
X175884Y99289D01*
D02*
G37*
G36*
X129434Y99289D02*
X128744Y98587D01*
X128494Y98586D01*
X127791Y99289D01*
X127887Y99520D01*
X129337D01*
X129434Y99289D01*
D02*
G37*
G36*
X157774D02*
X157084Y98587D01*
X156834Y98586D01*
X156131Y99289D01*
X156227Y99520D01*
X157677D01*
X157774Y99289D01*
D02*
G37*
G36*
X67287Y98711D02*
X65712D01*
Y100285D01*
X67287D01*
Y98711D01*
D02*
G37*
G36*
X101074Y99289D02*
X100384Y98587D01*
X100134Y98586D01*
X99431Y99289D01*
X99527Y99520D01*
X100977D01*
X101074Y99289D01*
D02*
G37*
G36*
X189684Y99289D02*
X188880Y98500D01*
X188860D01*
X188071Y99289D01*
X188167Y99520D01*
X189589D01*
X189684Y99289D01*
D02*
G37*
G36*
X153789Y99289D02*
X153085Y98585D01*
X152835D01*
X152131Y99289D01*
X152227Y99520D01*
X153693D01*
X153789Y99289D01*
D02*
G37*
G36*
X72734Y99289D02*
X72044Y98587D01*
X71794Y98586D01*
X71091Y99289D01*
X71187Y99520D01*
X72637D01*
X72734Y99289D01*
D02*
G37*
G36*
X122950Y97300D02*
X122550Y96900D01*
X121950D01*
X121550Y97300D01*
Y98846D01*
X122950D01*
Y97300D01*
D02*
G37*
G36*
X192046Y97662D02*
Y93877D01*
X192046Y93877D01*
X191850Y93877D01*
X191778Y93868D01*
X191711Y93840D01*
X191654Y93796D01*
X190950Y93092D01*
X190877Y93092D01*
Y93192D01*
X190123D01*
Y92438D01*
X190877D01*
Y92538D01*
X190877D01*
D01*
D01*
D01*
D01*
Y92538D01*
X191065Y92538D01*
X191137Y92547D01*
X191204Y92575D01*
X191261Y92619D01*
X191965Y93323D01*
X192064Y93323D01*
Y92711D01*
X192936D01*
Y93072D01*
X192936Y93072D01*
D01*
D01*
D01*
X192996Y93012D01*
Y90788D01*
X192153Y89945D01*
X192081Y89851D01*
X192036Y89742D01*
X192021Y89624D01*
Y88681D01*
X192036Y88564D01*
X192061Y88503D01*
X191697Y88139D01*
X190605D01*
Y88990D01*
X190554D01*
Y89300D01*
X190538Y89417D01*
X190493Y89527D01*
X190421Y89621D01*
X190421Y89621D01*
X190021Y90021D01*
X189927Y90093D01*
X189882Y90112D01*
X189817Y90138D01*
X189700Y90154D01*
X188450D01*
X188333Y90138D01*
X188223Y90093D01*
X188129Y90021D01*
X188129Y90021D01*
X187779Y89671D01*
X187707Y89577D01*
X187688Y89532D01*
X187662Y89467D01*
X187646Y89350D01*
Y89315D01*
X187467D01*
Y88054D01*
X186238D01*
X186233Y88059D01*
Y89315D01*
X186004D01*
Y92350D01*
X186004Y92350D01*
X185988Y92467D01*
X185943Y92577D01*
X185871Y92671D01*
X185671Y92871D01*
X185577Y92943D01*
X185532Y92962D01*
X185467Y92988D01*
X185350Y93004D01*
X185088D01*
X184954Y93138D01*
Y93146D01*
X185011D01*
X185129Y93162D01*
X185193Y93188D01*
X185238Y93207D01*
X185332Y93279D01*
X185332Y93279D01*
X185332Y93279D01*
X185694Y93641D01*
X186652D01*
Y93294D01*
X187544D01*
Y94035D01*
X187552Y94094D01*
X187546Y94141D01*
X187554Y94200D01*
Y96400D01*
X187538Y96517D01*
X187493Y96627D01*
X187421Y96721D01*
X186021Y98121D01*
X185927Y98193D01*
X185882Y98212D01*
X185817Y98238D01*
X185700Y98254D01*
X179854D01*
Y98846D01*
X188225D01*
X188446Y98625D01*
X188448Y94094D01*
X188456Y94035D01*
Y93294D01*
X189348D01*
Y94035D01*
X189355Y94095D01*
X189354Y98679D01*
X189524Y98846D01*
X190862D01*
X192046Y97662D01*
D02*
G37*
G36*
X204645Y42055D02*
X65055D01*
Y52000D01*
X88172D01*
Y49636D01*
X87852Y49315D01*
Y49315D01*
D01*
D01*
D01*
X87838Y49417D01*
X87793Y49527D01*
X87721Y49621D01*
X87627Y49693D01*
X87517Y49738D01*
X87400Y49754D01*
X87283Y49738D01*
X87268Y49733D01*
D01*
X87274Y49772D01*
X87276Y49786D01*
X87850D01*
Y50973D01*
X86150D01*
Y49786D01*
X86594D01*
D01*
Y49786D01*
X86385Y49577D01*
X85300D01*
X85244Y49570D01*
Y49570D01*
X85252Y49589D01*
X85268Y49628D01*
X85277Y49700D01*
Y49786D01*
X85850D01*
Y50973D01*
X84150D01*
Y49786D01*
X84694D01*
D01*
Y49786D01*
X84054Y49146D01*
X84010Y49089D01*
X83998Y49061D01*
X83982Y49022D01*
X83973Y48950D01*
Y48912D01*
D01*
D01*
X83973D01*
X83946Y48946D01*
X83277Y49615D01*
Y49786D01*
X83850D01*
Y50973D01*
X82150D01*
Y49786D01*
X82723D01*
Y49547D01*
X82723Y49547D01*
X82711Y49552D01*
X82672Y49568D01*
X82600Y49577D01*
X81615D01*
X81406Y49786D01*
D01*
D01*
Y49786D01*
X81850D01*
Y50973D01*
X80150D01*
Y49786D01*
X80724D01*
X80732Y49728D01*
X80748Y49689D01*
X80760Y49661D01*
X80804Y49604D01*
X81304Y49104D01*
X81361Y49060D01*
X81428Y49032D01*
X81500Y49023D01*
X82485D01*
X82973Y48535D01*
Y48490D01*
X82973Y48490D01*
X82910Y48538D01*
X82833Y48570D01*
X82750Y48581D01*
X82667Y48570D01*
X82590Y48538D01*
X82523Y48487D01*
X82472Y48420D01*
X82440Y48343D01*
X82429Y48260D01*
Y47630D01*
X82440Y47547D01*
X82472Y47469D01*
X82473Y47469D01*
Y47250D01*
X82482Y47178D01*
X82498Y47139D01*
X82510Y47111D01*
X82554Y47054D01*
X82804Y46804D01*
X82861Y46760D01*
X82928Y46732D01*
X82928Y46732D01*
X82928D01*
D01*
X82928Y46732D01*
D01*
D01*
Y46732D01*
X83000Y46723D01*
X85400D01*
X85472Y46732D01*
X85511Y46748D01*
X85539Y46760D01*
X85596Y46804D01*
X85946Y47154D01*
X85990Y47211D01*
X86018Y47278D01*
X86027Y47350D01*
Y47469D01*
X86028Y47469D01*
X86060Y47547D01*
X86071Y47630D01*
Y48260D01*
X86063Y48323D01*
D01*
D01*
D01*
D01*
X86063D01*
X86063Y48323D01*
X86185D01*
X86223Y48285D01*
Y47692D01*
X86123D01*
Y46938D01*
X86877D01*
Y46987D01*
X87215D01*
X87257Y46993D01*
X87300Y46998D01*
X87339Y47015D01*
X87379Y47031D01*
X87447Y47083D01*
X87732Y47368D01*
X87754Y47398D01*
X87784Y47436D01*
X87817Y47515D01*
X87828Y47600D01*
Y48364D01*
X88732Y49268D01*
X88761Y49307D01*
X88784Y49336D01*
X88793Y49359D01*
X88817Y49415D01*
X88828Y49500D01*
Y52000D01*
X116512D01*
Y49636D01*
X116192Y49315D01*
Y49315D01*
D01*
D01*
D01*
X116178Y49417D01*
X116133Y49527D01*
X116061Y49621D01*
X115967Y49693D01*
X115857Y49738D01*
X115740Y49754D01*
X115623Y49738D01*
X115609Y49733D01*
D01*
X115616Y49786D01*
X116190D01*
Y50973D01*
X114490D01*
Y49786D01*
X114934D01*
D01*
Y49786D01*
X114725Y49577D01*
X113640D01*
X113584Y49570D01*
Y49570D01*
X113592Y49589D01*
X113608Y49628D01*
X113617Y49700D01*
Y49786D01*
X114190D01*
Y50973D01*
X112490D01*
Y49786D01*
X113034D01*
D01*
Y49786D01*
X112394Y49146D01*
X112350Y49089D01*
X112338Y49061D01*
X112322Y49022D01*
X112313Y48950D01*
Y48912D01*
D01*
D01*
X112313D01*
X112286Y48946D01*
X111617Y49615D01*
Y49786D01*
X112190D01*
Y50973D01*
X110490D01*
Y49786D01*
X111063D01*
Y49547D01*
X111063Y49547D01*
X111051Y49552D01*
X111012Y49568D01*
X110940Y49577D01*
X109955D01*
X109746Y49786D01*
D01*
D01*
Y49786D01*
X110190D01*
Y50973D01*
X108490D01*
Y49786D01*
X109064D01*
X109072Y49728D01*
X109088Y49689D01*
X109100Y49661D01*
X109144Y49604D01*
X109644Y49104D01*
X109701Y49060D01*
X109768Y49032D01*
X109840Y49023D01*
X110825D01*
X111270Y48578D01*
D01*
X111250Y48593D01*
X111173Y48625D01*
X111090Y48636D01*
X111007Y48625D01*
X110930Y48593D01*
X110863Y48542D01*
X110812Y48475D01*
X110780Y48398D01*
X110769Y48315D01*
Y47685D01*
X110780Y47602D01*
X110812Y47525D01*
X110813Y47524D01*
Y47250D01*
X110822Y47178D01*
X110838Y47139D01*
X110850Y47111D01*
X110894Y47054D01*
X111144Y46804D01*
X111201Y46760D01*
X111268Y46732D01*
X111268Y46732D01*
X111268D01*
D01*
X111268Y46732D01*
D01*
D01*
Y46732D01*
X111340Y46723D01*
X111477D01*
D01*
D01*
X111430Y46703D01*
X111363Y46652D01*
X111340Y46622D01*
X111340D01*
D01*
D01*
X111340D01*
X111317Y46652D01*
X111250Y46703D01*
X111173Y46735D01*
X111090Y46746D01*
X111007Y46735D01*
X110930Y46703D01*
X110867Y46655D01*
X110867Y46655D01*
D01*
D01*
Y46950D01*
X110858Y47022D01*
X110830Y47089D01*
X110786Y47146D01*
X110087Y47846D01*
X110094Y47900D01*
X110078Y48017D01*
X110033Y48127D01*
X109961Y48221D01*
X109867Y48293D01*
X109757Y48338D01*
X109640Y48354D01*
X109523Y48338D01*
X109417Y48295D01*
Y48295D01*
Y48500D01*
X109408Y48572D01*
X109392Y48611D01*
X109380Y48639D01*
X109336Y48696D01*
X108736Y49296D01*
X108679Y49340D01*
X108651Y49352D01*
X108612Y49368D01*
X108540Y49377D01*
X107755D01*
X107617Y49515D01*
Y49786D01*
X108190D01*
Y50973D01*
X106490D01*
Y49786D01*
X107063D01*
Y49400D01*
X107072Y49328D01*
X107088Y49289D01*
X107100Y49261D01*
X107144Y49204D01*
X107370Y48977D01*
Y48977D01*
X105986D01*
X105617Y49346D01*
Y49786D01*
X106190D01*
Y50973D01*
X104490D01*
Y49786D01*
X105063D01*
Y49231D01*
X105072Y49159D01*
X105088Y49120D01*
X105100Y49093D01*
X105144Y49035D01*
X105602Y48577D01*
Y48577D01*
X104655D01*
X103617Y49615D01*
Y49786D01*
X104190D01*
Y50973D01*
X102490D01*
Y49786D01*
X103063D01*
Y49500D01*
X103072Y49428D01*
X103088Y49389D01*
X103100Y49361D01*
X103144Y49304D01*
X104270Y48177D01*
X104270Y48177D01*
X103055D01*
X101617Y49615D01*
Y49786D01*
X102190D01*
Y50973D01*
X100490D01*
Y49786D01*
X101063D01*
Y49500D01*
X101072Y49428D01*
X101088Y49389D01*
X101100Y49361D01*
X101144Y49304D01*
X102744Y47704D01*
X102801Y47660D01*
X102868Y47632D01*
X102940Y47623D01*
X107225D01*
X107463Y47385D01*
Y45000D01*
X107472Y44928D01*
X107488Y44889D01*
X107500Y44861D01*
X107544Y44804D01*
X108944Y43404D01*
X109001Y43360D01*
X109068Y43332D01*
X109140Y43323D01*
X112040D01*
X112112Y43332D01*
X112151Y43348D01*
X112179Y43360D01*
X112236Y43404D01*
X113286Y44454D01*
X113330Y44511D01*
X113342Y44539D01*
X113358Y44578D01*
X113367Y44650D01*
Y45188D01*
X113367D01*
Y45188D01*
X113394Y45154D01*
X113793Y44754D01*
X113786Y44700D01*
X113802Y44583D01*
X113847Y44473D01*
X113919Y44379D01*
X114013Y44307D01*
X114123Y44262D01*
X114240Y44246D01*
X114357Y44262D01*
X114467Y44307D01*
X114561Y44379D01*
X114633Y44473D01*
X114678Y44583D01*
X114694Y44700D01*
X114678Y44817D01*
X114633Y44927D01*
X114561Y45021D01*
X114467Y45093D01*
X114357Y45138D01*
X114240Y45154D01*
X114186Y45147D01*
X113867Y45465D01*
Y45634D01*
X113868Y45635D01*
X113900Y45712D01*
X113911Y45795D01*
Y46425D01*
X113900Y46508D01*
X113868Y46586D01*
X113817Y46652D01*
X113750Y46703D01*
X113694Y46727D01*
D01*
X113744D01*
X113816Y46736D01*
X113883Y46764D01*
X113940Y46808D01*
X114286Y47154D01*
X114330Y47211D01*
X114342Y47239D01*
X114358Y47278D01*
X114367Y47350D01*
Y47524D01*
X114368Y47525D01*
X114400Y47602D01*
X114411Y47685D01*
Y48315D01*
X114410Y48323D01*
D01*
D01*
D01*
D01*
X114410D01*
Y48323D01*
X114525D01*
X114563Y48285D01*
Y47692D01*
X114463D01*
Y46938D01*
X115217D01*
Y46987D01*
X115555D01*
X115597Y46993D01*
X115640Y46998D01*
X115679Y47015D01*
X115719Y47031D01*
X115787Y47083D01*
X116072Y47368D01*
X116094Y47398D01*
X116124Y47436D01*
X116157Y47515D01*
X116168Y47600D01*
Y48364D01*
X117072Y49268D01*
X117101Y49307D01*
X117124Y49336D01*
X117133Y49359D01*
X117157Y49415D01*
X117168Y49500D01*
Y52000D01*
X144872D01*
Y49636D01*
X144552Y49315D01*
Y49315D01*
D01*
D01*
D01*
X144538Y49417D01*
X144493Y49527D01*
X144421Y49621D01*
X144327Y49693D01*
X144217Y49738D01*
X144100Y49754D01*
X143983Y49738D01*
X143968Y49733D01*
D01*
X143977Y49800D01*
Y49865D01*
X144550D01*
Y51053D01*
X142850D01*
Y49865D01*
X143373D01*
D01*
Y49865D01*
X143085Y49577D01*
X142000D01*
X141944Y49570D01*
Y49570D01*
X141952Y49589D01*
X141968Y49628D01*
X141977Y49700D01*
Y49865D01*
X142550D01*
Y51053D01*
X140850D01*
Y49865D01*
X141423D01*
Y49815D01*
X140754Y49146D01*
X140710Y49089D01*
X140698Y49061D01*
X140682Y49022D01*
X140673Y48950D01*
Y48912D01*
D01*
D01*
X140673D01*
X140646Y48946D01*
X139977Y49615D01*
Y49865D01*
X140550D01*
Y51053D01*
X138850D01*
Y49865D01*
X139423D01*
Y49547D01*
X139423Y49547D01*
X139411Y49552D01*
X139372Y49568D01*
X139300Y49577D01*
X138315D01*
X138027Y49865D01*
D01*
D01*
Y49865D01*
X138550D01*
Y51053D01*
X136850D01*
Y49865D01*
X137423D01*
Y49800D01*
X137432Y49728D01*
X137448Y49689D01*
X137460Y49661D01*
X137504Y49604D01*
X138004Y49104D01*
X138061Y49060D01*
X138128Y49032D01*
X138200Y49023D01*
X139185D01*
X139673Y48535D01*
Y48498D01*
X139673Y48498D01*
X139620Y48538D01*
X139543Y48570D01*
X139460Y48581D01*
X139377Y48570D01*
X139300Y48538D01*
X139233Y48487D01*
X139182Y48420D01*
X139150Y48343D01*
X139139Y48260D01*
Y47630D01*
X139150Y47547D01*
X139173Y47492D01*
Y47250D01*
X139182Y47178D01*
X139198Y47139D01*
X139210Y47111D01*
X139254Y47054D01*
X139504Y46804D01*
X139561Y46760D01*
X139628Y46732D01*
X139700Y46723D01*
X142100D01*
X142172Y46732D01*
X142211Y46748D01*
X142239Y46760D01*
X142296Y46804D01*
X142646Y47154D01*
X142690Y47211D01*
X142718Y47278D01*
X142727Y47350D01*
Y47456D01*
X142738Y47469D01*
X142770Y47547D01*
X142781Y47630D01*
Y48260D01*
X142773Y48323D01*
X142773D01*
X142773D01*
X142773D01*
Y48323D01*
Y48323D01*
Y48323D01*
X142885D01*
X142923Y48285D01*
Y47692D01*
X142823D01*
Y46938D01*
X143577D01*
Y46987D01*
X143915D01*
X143957Y46993D01*
X144000Y46998D01*
X144039Y47015D01*
X144079Y47031D01*
X144147Y47083D01*
X144432Y47368D01*
X144454Y47398D01*
X144484Y47436D01*
X144517Y47515D01*
X144528Y47600D01*
Y48364D01*
X145432Y49268D01*
X145461Y49307D01*
X145484Y49336D01*
X145493Y49359D01*
X145517Y49415D01*
X145528Y49500D01*
Y52000D01*
X173212D01*
Y49636D01*
X172892Y49315D01*
Y49315D01*
D01*
D01*
D01*
X172878Y49417D01*
X172833Y49527D01*
X172761Y49621D01*
X172667Y49693D01*
X172557Y49738D01*
X172440Y49754D01*
X172323Y49738D01*
X172309Y49733D01*
D01*
X172311Y49754D01*
X172317Y49800D01*
X172317D01*
X172317D01*
X172317D01*
X172317Y49800D01*
Y49815D01*
X172890D01*
Y51003D01*
X171190D01*
Y49815D01*
X171663D01*
D01*
Y49815D01*
X171425Y49577D01*
X170340D01*
X170284Y49570D01*
Y49570D01*
X170292Y49589D01*
X170308Y49628D01*
X170317Y49700D01*
Y49815D01*
X170890D01*
Y51003D01*
X169190D01*
Y49815D01*
X169763D01*
Y49815D01*
X169094Y49146D01*
X169050Y49089D01*
X169038Y49061D01*
X169022Y49022D01*
X169013Y48950D01*
Y48912D01*
D01*
D01*
X169013D01*
X168986Y48946D01*
X168317Y49615D01*
Y49815D01*
X168890D01*
Y51003D01*
X167190D01*
Y49815D01*
X167763D01*
Y49547D01*
X167763Y49547D01*
X167751Y49552D01*
X167712Y49568D01*
X167640Y49577D01*
X166655D01*
X166417Y49815D01*
D01*
D01*
Y49815D01*
X166890D01*
Y51003D01*
X165190D01*
Y49815D01*
X165763D01*
Y49800D01*
X165772Y49728D01*
X165788Y49689D01*
X165800Y49661D01*
X165844Y49604D01*
X166344Y49104D01*
X166401Y49060D01*
X166468Y49032D01*
X166540Y49023D01*
X167525D01*
X168013Y48535D01*
Y48490D01*
X168013Y48490D01*
X167950Y48538D01*
X167873Y48570D01*
X167790Y48581D01*
X167707Y48570D01*
X167630Y48538D01*
X167563Y48487D01*
X167512Y48420D01*
X167480Y48343D01*
X167469Y48260D01*
Y47630D01*
X167480Y47547D01*
X167512Y47469D01*
X167513Y47469D01*
Y47250D01*
X167522Y47178D01*
X167538Y47139D01*
X167550Y47111D01*
X167594Y47054D01*
X167844Y46804D01*
X167901Y46760D01*
X167968Y46732D01*
X167968Y46732D01*
X167968D01*
D01*
X167968Y46732D01*
D01*
D01*
Y46732D01*
X168040Y46723D01*
X170440D01*
X170512Y46732D01*
X170551Y46748D01*
X170579Y46760D01*
X170636Y46804D01*
X170986Y47154D01*
X171030Y47211D01*
X171058Y47278D01*
X171067Y47350D01*
Y47469D01*
X171068Y47469D01*
X171100Y47547D01*
X171111Y47630D01*
Y48260D01*
X171103Y48323D01*
D01*
D01*
D01*
D01*
X171103D01*
X171103Y48323D01*
X171225D01*
X171263Y48285D01*
Y47692D01*
X171163D01*
Y46938D01*
X171917D01*
Y46987D01*
X172255D01*
X172297Y46993D01*
X172340Y46998D01*
X172379Y47015D01*
X172419Y47031D01*
X172487Y47083D01*
X172772Y47368D01*
X172794Y47398D01*
X172824Y47436D01*
X172857Y47515D01*
X172868Y47600D01*
Y48364D01*
X173772Y49268D01*
X173801Y49307D01*
X173824Y49336D01*
X173833Y49359D01*
X173857Y49415D01*
X173868Y49500D01*
Y52000D01*
X175600D01*
X178700Y55100D01*
Y56518D01*
X179271Y57089D01*
X179271Y57089D01*
X179343Y57183D01*
X179388Y57293D01*
X179404Y57410D01*
Y64125D01*
X179751Y64473D01*
X181185D01*
X183683Y61975D01*
X183740Y61931D01*
X183807Y61903D01*
X183879Y61894D01*
X184492D01*
Y61794D01*
X185246D01*
Y61908D01*
X185814D01*
X185870Y61885D01*
X185950Y61875D01*
X186423D01*
X186503Y61885D01*
X186559Y61908D01*
X186900D01*
X187823Y60985D01*
Y60188D01*
X187823D01*
X187781Y60193D01*
X187701Y60183D01*
X187626Y60152D01*
X187624Y60150D01*
X187622Y60152D01*
X187547Y60183D01*
X187466Y60193D01*
X187386Y60183D01*
X187311Y60152D01*
X187309Y60150D01*
X187307Y60152D01*
X187232Y60183D01*
X187151Y60193D01*
X187071Y60183D01*
X186996Y60152D01*
X186994Y60150D01*
X186992Y60152D01*
X186917Y60183D01*
X186836Y60193D01*
X186756Y60183D01*
X186700Y60160D01*
D01*
X186723Y60215D01*
X186734Y60296D01*
X186723Y60376D01*
X186692Y60451D01*
X186691Y60453D01*
X186692Y60455D01*
X186723Y60530D01*
X186734Y60611D01*
X186723Y60691D01*
X186692Y60766D01*
X186691Y60768D01*
X186692Y60770D01*
X186723Y60845D01*
X186734Y60926D01*
X186723Y61006D01*
X186692Y61081D01*
X186691Y61083D01*
X186692Y61085D01*
X186723Y61160D01*
X186734Y61241D01*
X186723Y61321D01*
X186692Y61396D01*
X186691Y61398D01*
X186692Y61400D01*
X186723Y61475D01*
X186734Y61556D01*
X186723Y61636D01*
X186692Y61711D01*
X186643Y61775D01*
X186578Y61825D01*
X186503Y61856D01*
X186423Y61866D01*
X185950D01*
X185870Y61856D01*
X185795Y61825D01*
X185731Y61775D01*
X185681Y61711D01*
X185650Y61636D01*
X185639Y61556D01*
X185650Y61475D01*
X185681Y61400D01*
X185683Y61398D01*
X185681Y61396D01*
X185650Y61321D01*
X185639Y61241D01*
X185650Y61160D01*
X185681Y61085D01*
X185683Y61083D01*
X185681Y61081D01*
X185650Y61006D01*
X185639Y60926D01*
X185650Y60845D01*
X185681Y60770D01*
X185683Y60768D01*
X185681Y60766D01*
X185650Y60691D01*
X185639Y60611D01*
X185650Y60530D01*
X185681Y60455D01*
X185683Y60453D01*
X185681Y60451D01*
X185650Y60376D01*
X185639Y60296D01*
X185650Y60215D01*
X185681Y60140D01*
X185731Y60076D01*
X185795Y60026D01*
X185870Y59995D01*
X185950Y59985D01*
X186423D01*
X186503Y59995D01*
X186559Y60018D01*
D01*
X186536Y59963D01*
X186525Y59882D01*
Y59410D01*
X186536Y59329D01*
X186567Y59254D01*
X186616Y59190D01*
X186681Y59141D01*
X186756Y59110D01*
X186836Y59099D01*
X186917Y59110D01*
X186992Y59141D01*
X186994Y59142D01*
X186996Y59141D01*
X187071Y59110D01*
X187151Y59099D01*
X187232Y59110D01*
X187307Y59141D01*
X187309Y59142D01*
X187311Y59141D01*
X187386Y59110D01*
X187466Y59099D01*
X187500Y59103D01*
X187500Y59103D01*
Y59092D01*
X186654Y58246D01*
X186610Y58189D01*
X186598Y58161D01*
X186582Y58122D01*
X186573Y58050D01*
Y54250D01*
X186582Y54178D01*
X186598Y54139D01*
X186610Y54111D01*
X186654Y54054D01*
X188573Y52135D01*
Y48315D01*
X187804Y47547D01*
X187750Y47554D01*
X187633Y47538D01*
X187523Y47493D01*
X187429Y47421D01*
X187357Y47327D01*
X187312Y47217D01*
X187296Y47100D01*
X187312Y46983D01*
X187357Y46873D01*
X187429Y46779D01*
X187523Y46707D01*
X187633Y46662D01*
X187750Y46646D01*
X187867Y46662D01*
X187977Y46707D01*
X188071Y46779D01*
X188143Y46873D01*
X188188Y46983D01*
X188204Y47100D01*
X188197Y47154D01*
X189046Y48004D01*
X189090Y48061D01*
X189118Y48128D01*
X189127Y48200D01*
Y52250D01*
X189118Y52322D01*
X189090Y52389D01*
X189046Y52446D01*
X187127Y54365D01*
Y57935D01*
X187723Y58531D01*
D01*
Y57938D01*
X188477D01*
Y58038D01*
X188520D01*
X188723Y57835D01*
Y55931D01*
X188603D01*
Y55162D01*
X188477D01*
Y55262D01*
X187723D01*
Y54508D01*
X188477D01*
Y54608D01*
X188603D01*
Y54468D01*
X189397D01*
Y54608D01*
X189950D01*
X190223Y54335D01*
Y54183D01*
X189985D01*
Y52602D01*
X190223D01*
Y52600D01*
X190232Y52528D01*
X190248Y52489D01*
X190260Y52461D01*
X190304Y52404D01*
X190704Y52004D01*
X190761Y51960D01*
X190828Y51932D01*
X190900Y51923D01*
X191650D01*
X191722Y51932D01*
X191761Y51948D01*
X191789Y51960D01*
X191846Y52004D01*
X192246Y52404D01*
X192290Y52461D01*
X192318Y52528D01*
X192327Y52600D01*
Y52935D01*
X192865Y53473D01*
X194750D01*
X194822Y53482D01*
X194861Y53498D01*
X194889Y53510D01*
X194946Y53554D01*
X195405Y54013D01*
X195500Y54000D01*
X195629Y54017D01*
X195750Y54067D01*
X195853Y54147D01*
X195933Y54250D01*
X195983Y54371D01*
X196000Y54500D01*
X195987Y54595D01*
X196465Y55073D01*
X196600D01*
X196672Y55082D01*
X196711Y55098D01*
X196739Y55110D01*
X196796Y55154D01*
X197396Y55754D01*
X197440Y55811D01*
X197452Y55839D01*
X197468Y55878D01*
X197477Y55950D01*
Y56770D01*
X197468Y56842D01*
X197440Y56909D01*
X197396Y56966D01*
X197036Y57326D01*
X196979Y57370D01*
X196951Y57382D01*
X196912Y57398D01*
X196840Y57407D01*
X195985D01*
X193885Y59508D01*
D01*
X193885D01*
X193885Y59508D01*
X195223D01*
Y59408D01*
X195977D01*
Y60162D01*
X195223D01*
Y60062D01*
X193980D01*
X192291Y61752D01*
X192233Y61796D01*
X192166Y61823D01*
X192094Y61833D01*
X191008D01*
X190952Y61856D01*
X190872Y61866D01*
X190399D01*
X190319Y61856D01*
X190250Y61827D01*
X190115D01*
X188683Y63259D01*
Y63553D01*
X188683Y63553D01*
Y63553D01*
D01*
D01*
D01*
D01*
X188726Y63548D01*
X188806Y63558D01*
X188881Y63589D01*
X188883Y63591D01*
X188885Y63589D01*
X188960Y63558D01*
X189041Y63548D01*
X189121Y63558D01*
X189196Y63589D01*
X189198Y63591D01*
X189200Y63589D01*
X189275Y63558D01*
X189356Y63548D01*
X189436Y63558D01*
X189511Y63589D01*
X189513Y63591D01*
X189515Y63589D01*
X189590Y63558D01*
X189671Y63548D01*
X189751Y63558D01*
X189826Y63589D01*
X189828Y63591D01*
X189830Y63589D01*
X189905Y63558D01*
X189986Y63548D01*
X190066Y63558D01*
X190122Y63581D01*
D01*
X190099Y63526D01*
X190088Y63445D01*
X190099Y63365D01*
X190130Y63290D01*
X190131Y63288D01*
X190130Y63286D01*
X190099Y63211D01*
X190088Y63130D01*
X190099Y63050D01*
X190130Y62975D01*
X190131Y62973D01*
X190130Y62971D01*
X190099Y62896D01*
X190088Y62815D01*
X190099Y62735D01*
X190130Y62660D01*
X190131Y62658D01*
X190130Y62656D01*
X190099Y62581D01*
X190088Y62500D01*
X190099Y62420D01*
X190130Y62345D01*
X190131Y62343D01*
X190130Y62341D01*
X190099Y62266D01*
X190088Y62185D01*
X190099Y62105D01*
X190130Y62030D01*
X190179Y61966D01*
X190244Y61916D01*
X190319Y61885D01*
X190399Y61875D01*
X190872D01*
X190952Y61885D01*
X191008Y61908D01*
X192635Y61908D01*
X192707Y61918D01*
X192746Y61934D01*
X192774Y61945D01*
X192832Y61989D01*
X193215Y62373D01*
X193406D01*
X193406D01*
Y61250D01*
X194594D01*
Y62373D01*
X195300D01*
X195372Y62382D01*
X195411Y62398D01*
X195439Y62410D01*
X195496Y62454D01*
X195796Y62754D01*
X195840Y62811D01*
X195852Y62839D01*
X195868Y62878D01*
X195877Y62950D01*
Y63008D01*
X195977D01*
Y63762D01*
X195223D01*
Y63008D01*
X195266D01*
D01*
Y63008D01*
X195185Y62927D01*
X194594D01*
Y64013D01*
X193406D01*
Y62927D01*
X193100D01*
X193028Y62918D01*
X192989Y62902D01*
X192961Y62890D01*
X192904Y62846D01*
X192521Y62463D01*
X192205D01*
D01*
X192846Y63104D01*
X192890Y63161D01*
X192918Y63228D01*
X192927Y63300D01*
Y65835D01*
X193383Y66291D01*
X193406D01*
Y65187D01*
X194594D01*
Y66291D01*
X195167D01*
X195223Y66235D01*
Y65538D01*
X195977D01*
Y66292D01*
X195872D01*
X195868Y66322D01*
X195840Y66389D01*
X195796Y66446D01*
X195478Y66765D01*
X195420Y66809D01*
X195392Y66820D01*
X195353Y66836D01*
X195282Y66846D01*
X194594D01*
Y67950D01*
X193406D01*
Y66846D01*
X193269D01*
X193197Y66836D01*
X193130Y66809D01*
X193072Y66765D01*
X192454Y66146D01*
X192410Y66089D01*
X192398Y66061D01*
X192382Y66022D01*
X192377Y65986D01*
D01*
D01*
Y67900D01*
X192368Y67972D01*
X192340Y68039D01*
X192296Y68096D01*
X191259Y69134D01*
X191201Y69178D01*
X191173Y69189D01*
X191134Y69205D01*
X191063Y69215D01*
X190427D01*
X189265Y70377D01*
Y71013D01*
X189255Y71084D01*
X189228Y71151D01*
X189184Y71209D01*
X187946Y72446D01*
X187889Y72490D01*
X187861Y72502D01*
X187822Y72518D01*
X187750Y72527D01*
X186715D01*
X186096Y73146D01*
X186039Y73190D01*
X186011Y73202D01*
X185972Y73218D01*
X185900Y73227D01*
X184751D01*
D01*
X184810Y73252D01*
X184877Y73303D01*
X184928Y73369D01*
X184960Y73447D01*
X184971Y73530D01*
Y74160D01*
X184960Y74243D01*
X184938Y74296D01*
X185215Y74573D01*
X187407D01*
X188326Y73654D01*
X188383Y73610D01*
X188450Y73582D01*
X188522Y73573D01*
X192600D01*
X192672Y73582D01*
X192711Y73598D01*
X192739Y73610D01*
X192786Y73646D01*
X195400D01*
X195478Y73662D01*
X195544Y73706D01*
X196180Y74342D01*
X196259Y74309D01*
X196350Y74297D01*
X196897D01*
X196897Y74297D01*
X197000Y74217D01*
X197121Y74167D01*
X197250Y74150D01*
X197379Y74167D01*
X197500Y74217D01*
X197603Y74297D01*
X197661Y74373D01*
X197785D01*
D01*
D01*
X197785Y74373D01*
X197748Y74284D01*
X197731Y74150D01*
X197748Y74016D01*
X197800Y73890D01*
X197883Y73783D01*
X197990Y73700D01*
X198116Y73648D01*
X198139Y73645D01*
D01*
D01*
X197897D01*
X197711Y73831D01*
X197683Y73900D01*
X197603Y74003D01*
X197500Y74083D01*
X197379Y74133D01*
X197250Y74150D01*
X197121Y74133D01*
X197000Y74083D01*
X196897Y74003D01*
X196817Y73900D01*
X196767Y73779D01*
X196750Y73650D01*
X196767Y73521D01*
X196817Y73400D01*
X196897Y73297D01*
X197000Y73217D01*
X197069Y73189D01*
X197429Y72829D01*
X197523Y72757D01*
X197633Y72712D01*
X197750Y72696D01*
X197750Y72696D01*
X197755D01*
Y72655D01*
X198745D01*
Y72696D01*
X199200D01*
X199317Y72712D01*
X199382Y72738D01*
X199427Y72757D01*
X199521Y72829D01*
X201238Y74546D01*
X201750D01*
X201867Y74562D01*
X201932Y74588D01*
X201977Y74607D01*
X202071Y74679D01*
X202921Y75529D01*
X202921Y75529D01*
X202976Y75601D01*
X202993Y75623D01*
X203038Y75733D01*
X203054Y75850D01*
X203054Y75850D01*
Y78650D01*
X203038Y78767D01*
X202993Y78877D01*
X202921Y78971D01*
X201671Y80221D01*
X201577Y80293D01*
X201532Y80312D01*
X201467Y80338D01*
X201350Y80354D01*
X198538D01*
X197704Y81188D01*
Y81330D01*
X197755D01*
Y81289D01*
X198746D01*
Y81332D01*
X198851Y81345D01*
X198915Y81372D01*
X198961Y81391D01*
X199055Y81463D01*
X199971Y82379D01*
X199971Y82379D01*
X200026Y82451D01*
X200043Y82473D01*
X200088Y82583D01*
X200104Y82700D01*
X200104Y82700D01*
Y85248D01*
X200104Y85248D01*
Y85248D01*
D01*
X200154Y85187D01*
X200282Y85082D01*
X200427Y85004D01*
X200586Y84956D01*
X200750Y84940D01*
X200915Y84956D01*
X201073Y85004D01*
X201219Y85082D01*
X201347Y85187D01*
X201452Y85315D01*
X201530Y85461D01*
X201578Y85619D01*
X201594Y85784D01*
X201578Y85948D01*
X201530Y86107D01*
X201452Y86253D01*
X201347Y86381D01*
X201219Y86485D01*
X201073Y86563D01*
X200915Y86611D01*
X200750Y86628D01*
X200586Y86611D01*
X200427Y86563D01*
X200282Y86485D01*
X200154Y86381D01*
X200104Y86320D01*
X200104Y86320D01*
D01*
Y87000D01*
X200088Y87117D01*
X200043Y87227D01*
X199971Y87321D01*
X198471Y88821D01*
X198377Y88893D01*
X198332Y88912D01*
X198267Y88938D01*
X198150Y88954D01*
X195350D01*
X195233Y88938D01*
X195123Y88893D01*
X195029Y88821D01*
X195029Y88821D01*
X194462Y88254D01*
X193450D01*
X193333Y88238D01*
X193223Y88193D01*
X193129Y88121D01*
X192153Y87145D01*
X192081Y87051D01*
X192036Y86942D01*
X192021Y86824D01*
Y86319D01*
X192036Y86201D01*
X192081Y86092D01*
X192107Y86058D01*
Y85784D01*
X192842D01*
Y86058D01*
X192867Y86092D01*
X192913Y86201D01*
X192928Y86319D01*
Y86636D01*
X193638Y87346D01*
X194650D01*
X194767Y87362D01*
X194832Y87388D01*
X194877Y87407D01*
X194971Y87479D01*
X195538Y88046D01*
X197962D01*
X199196Y86812D01*
Y82888D01*
X198587Y82279D01*
X198362D01*
D01*
X198385Y82282D01*
X198510Y82334D01*
X198618Y82417D01*
X198700Y82524D01*
X198752Y82649D01*
X198770Y82784D01*
X198752Y82918D01*
X198700Y83044D01*
X198618Y83151D01*
X198510Y83234D01*
X198385Y83286D01*
X198322Y83294D01*
D01*
X198380Y83301D01*
X198500Y83351D01*
X198604Y83431D01*
X198683Y83534D01*
X198733Y83655D01*
X198750Y83784D01*
X198733Y83913D01*
X198683Y84034D01*
X198604Y84137D01*
X198500Y84216D01*
X198380Y84266D01*
X198250Y84283D01*
X198121Y84266D01*
X198001Y84216D01*
X197897Y84137D01*
X197818Y84034D01*
X197768Y83913D01*
X197751Y83784D01*
X197768Y83655D01*
X197818Y83534D01*
X197897Y83431D01*
X198001Y83351D01*
X198121Y83301D01*
X198178Y83294D01*
D01*
D01*
D01*
Y83294D01*
X198116Y83286D01*
X197991Y83234D01*
X197883Y83151D01*
X197801Y83044D01*
X197749Y82918D01*
X197731Y82784D01*
X197749Y82649D01*
X197801Y82524D01*
X197883Y82417D01*
X197991Y82334D01*
X198116Y82282D01*
X198139Y82279D01*
D01*
D01*
X197763D01*
X197749Y82293D01*
X197733Y82413D01*
X197683Y82534D01*
X197604Y82637D01*
X197500Y82716D01*
X197380Y82766D01*
X197250Y82783D01*
X197121Y82766D01*
X197001Y82716D01*
X196897Y82637D01*
X196818Y82534D01*
X196768Y82413D01*
X196751Y82284D01*
X196768Y82155D01*
X196796Y82085D01*
Y81000D01*
X196812Y80882D01*
X196839Y80818D01*
X196857Y80773D01*
X196929Y80679D01*
X198029Y79579D01*
X198029Y79579D01*
X198101Y79524D01*
X198123Y79507D01*
X198233Y79462D01*
X198350Y79446D01*
X198350Y79446D01*
X201162D01*
X202146Y78462D01*
Y76038D01*
X201562Y75454D01*
X201050D01*
X200933Y75438D01*
X200823Y75393D01*
X200729Y75321D01*
X199012Y73604D01*
X198745D01*
Y73645D01*
X198361D01*
D01*
X198384Y73648D01*
X198510Y73700D01*
X198617Y73783D01*
X198700Y73890D01*
X198752Y74016D01*
X198769Y74150D01*
X198752Y74284D01*
X198715Y74373D01*
D01*
D01*
D01*
Y74373D01*
X198800D01*
X198872Y74382D01*
X198911Y74398D01*
X198939Y74410D01*
X198996Y74454D01*
X200215Y75673D01*
X201300D01*
X201372Y75682D01*
X201411Y75698D01*
X201439Y75710D01*
X201496Y75754D01*
X202046Y76304D01*
X202090Y76361D01*
X202118Y76428D01*
X202127Y76500D01*
Y78200D01*
X202118Y78272D01*
X202102Y78311D01*
X202090Y78339D01*
X202046Y78396D01*
X201296Y79146D01*
X201239Y79190D01*
X201211Y79202D01*
X201172Y79218D01*
X201100Y79227D01*
X197815D01*
X196677Y80365D01*
Y82885D01*
X196799Y83006D01*
X196839D01*
X196897Y82931D01*
X197001Y82851D01*
X197121Y82801D01*
X197250Y82784D01*
X197380Y82801D01*
X197500Y82851D01*
X197604Y82931D01*
X197683Y83034D01*
X197733Y83155D01*
X197750Y83284D01*
X197733Y83413D01*
X197683Y83534D01*
X197604Y83637D01*
X197500Y83716D01*
X197380Y83766D01*
X197250Y83783D01*
X197121Y83766D01*
X197001Y83716D01*
X196897Y83637D01*
X196839Y83561D01*
X196684D01*
X196612Y83552D01*
X196545Y83524D01*
X196488Y83480D01*
X196204Y83196D01*
X196160Y83139D01*
X196148Y83111D01*
X196132Y83072D01*
X196123Y83000D01*
Y80250D01*
X196132Y80178D01*
X196148Y80139D01*
X196160Y80111D01*
X196204Y80054D01*
X197504Y78754D01*
X197561Y78710D01*
X197628Y78682D01*
X197700Y78673D01*
X200985D01*
X201573Y78085D01*
Y77331D01*
Y77331D01*
Y77331D01*
X201530Y77473D01*
X201452Y77619D01*
X201347Y77747D01*
X201219Y77852D01*
X201073Y77930D01*
X200915Y77978D01*
X200750Y77994D01*
X200585Y77978D01*
X200427Y77930D01*
X200281Y77852D01*
X200153Y77747D01*
X200048Y77619D01*
X199970Y77473D01*
X199922Y77315D01*
X199906Y77150D01*
X199922Y76985D01*
X199970Y76827D01*
X200048Y76681D01*
X200153Y76553D01*
X200281Y76448D01*
X200427Y76370D01*
X200585Y76322D01*
X200750Y76306D01*
X200915Y76322D01*
X201073Y76370D01*
X201219Y76448D01*
X201347Y76553D01*
X201452Y76681D01*
X201530Y76827D01*
X201573Y76969D01*
D01*
Y76615D01*
X201185Y76227D01*
X200100D01*
X200028Y76218D01*
X199961Y76190D01*
X199904Y76146D01*
X198700Y74942D01*
D01*
X198733Y75021D01*
X198750Y75150D01*
X198733Y75279D01*
X198694Y75373D01*
X198694D01*
X198694D01*
X198694D01*
Y75373D01*
X198750D01*
X198822Y75382D01*
X198861Y75398D01*
X198889Y75410D01*
X198946Y75454D01*
X199546Y76054D01*
X199590Y76111D01*
X199602Y76139D01*
X199618Y76178D01*
X199627Y76250D01*
Y77600D01*
X199618Y77672D01*
X199590Y77739D01*
X199546Y77796D01*
X198896Y78446D01*
X198839Y78490D01*
X198811Y78502D01*
X198772Y78518D01*
X198700Y78527D01*
X197315D01*
X196077Y79765D01*
Y83485D01*
X196599Y84006D01*
X196839D01*
X196897Y83931D01*
X197001Y83851D01*
X197121Y83801D01*
X197250Y83784D01*
X197380Y83801D01*
X197500Y83851D01*
X197604Y83931D01*
X197683Y84034D01*
X197733Y84155D01*
X197750Y84284D01*
X197733Y84413D01*
X197683Y84534D01*
X197604Y84637D01*
X197500Y84716D01*
X197380Y84766D01*
X197250Y84783D01*
X197121Y84766D01*
X197001Y84716D01*
X196897Y84637D01*
X196839Y84561D01*
X196484D01*
X196412Y84552D01*
X196373Y84536D01*
X196345Y84524D01*
X196288Y84480D01*
X195604Y83796D01*
X195560Y83739D01*
X195548Y83711D01*
X195532Y83672D01*
X195523Y83600D01*
Y79650D01*
X195532Y79578D01*
X195548Y79539D01*
X195560Y79511D01*
X195604Y79454D01*
X197004Y78054D01*
X197061Y78010D01*
X197128Y77982D01*
X197200Y77973D01*
X198585D01*
X199073Y77485D01*
Y76365D01*
X198733Y76025D01*
X198733D01*
D01*
X198750Y76150D01*
X198733Y76279D01*
X198683Y76400D01*
X198603Y76503D01*
X198500Y76583D01*
X198431Y76611D01*
X198071Y76971D01*
X197977Y77043D01*
X197932Y77062D01*
X197867Y77088D01*
X197750Y77104D01*
X197448D01*
X197431Y77111D01*
X195504Y79038D01*
Y84062D01*
X196272Y84830D01*
X197052D01*
X197121Y84801D01*
X197250Y84784D01*
X197380Y84801D01*
X197449Y84830D01*
X197562D01*
X197789Y84603D01*
X197818Y84534D01*
X197897Y84431D01*
X198001Y84351D01*
X198121Y84301D01*
X198250Y84284D01*
X198380Y84301D01*
X198500Y84351D01*
X198604Y84431D01*
X198683Y84534D01*
X198712Y84603D01*
X198921Y84813D01*
X198993Y84907D01*
X199038Y85016D01*
X199054Y85133D01*
Y86200D01*
X199038Y86317D01*
X198993Y86427D01*
X198921Y86521D01*
X198921Y86521D01*
X198221Y87221D01*
X198127Y87293D01*
X198082Y87312D01*
X198017Y87338D01*
X197900Y87354D01*
X196600D01*
X196600Y87354D01*
X196483Y87338D01*
X196373Y87293D01*
X196279Y87221D01*
X194812Y85754D01*
X194138D01*
X193979Y85912D01*
Y86319D01*
X193964Y86436D01*
X193919Y86546D01*
X193893Y86579D01*
Y86854D01*
X193158D01*
Y86579D01*
X193133Y86546D01*
X193087Y86436D01*
X193072Y86319D01*
Y85724D01*
X193087Y85607D01*
X193133Y85497D01*
X193205Y85403D01*
X193629Y84979D01*
X193723Y84907D01*
X193833Y84862D01*
X193950Y84846D01*
X193950Y84846D01*
X195000D01*
X195005Y84847D01*
D01*
X195005D01*
X194729Y84571D01*
X194657Y84477D01*
X194638Y84432D01*
X194612Y84367D01*
X194596Y84250D01*
Y78850D01*
X194612Y78733D01*
X194638Y78669D01*
X194657Y78623D01*
X194729Y78529D01*
X196788Y76470D01*
X196817Y76400D01*
X196897Y76297D01*
X197000Y76217D01*
X197121Y76167D01*
X197250Y76150D01*
X197379Y76167D01*
X197448Y76196D01*
X197562D01*
X197789Y75969D01*
X197806Y75927D01*
X197806Y75927D01*
X197661D01*
X197603Y76003D01*
X197500Y76083D01*
X197379Y76133D01*
X197250Y76150D01*
X197121Y76133D01*
X197000Y76083D01*
X196897Y76003D01*
X196897Y76003D01*
X196350D01*
X196259Y75991D01*
X196251Y75988D01*
X195520Y76718D01*
X195454Y76762D01*
X195376Y76778D01*
X192655D01*
X192639Y76790D01*
X192611Y76802D01*
X192572Y76818D01*
X192500Y76827D01*
X188550D01*
X188478Y76818D01*
X188439Y76802D01*
X188411Y76790D01*
X188354Y76746D01*
X187385Y75777D01*
X185100D01*
X185028Y75768D01*
X184961Y75740D01*
X184904Y75696D01*
X183954Y74746D01*
X183910Y74689D01*
X183882Y74622D01*
X183873Y74550D01*
Y74390D01*
X183873Y74390D01*
X183810Y74438D01*
X183733Y74470D01*
X183650Y74481D01*
X183567Y74470D01*
X183490Y74438D01*
X183423Y74387D01*
X183372Y74320D01*
X183340Y74243D01*
X183329Y74160D01*
Y74122D01*
X183150D01*
X183078Y74113D01*
X183011Y74085D01*
X182954Y74041D01*
X182877Y73964D01*
X182877Y73964D01*
D01*
Y74062D01*
X182123D01*
Y73962D01*
X182030D01*
X181046Y74946D01*
X180989Y74990D01*
X180961Y75002D01*
X180922Y75018D01*
X180850Y75027D01*
X179764D01*
X179404Y75394D01*
Y96762D01*
X179988Y97346D01*
X185512D01*
X186646Y96212D01*
Y94548D01*
X185506D01*
X185388Y94533D01*
X185279Y94488D01*
X185185Y94415D01*
X184936Y94167D01*
X184936D01*
D01*
Y94489D01*
X184064D01*
Y93827D01*
X183950D01*
X183878Y93818D01*
X183811Y93790D01*
X183754Y93746D01*
X183100Y93092D01*
X182877D01*
Y93192D01*
X182123D01*
Y92438D01*
X182877D01*
Y92538D01*
X183215D01*
X183287Y92547D01*
X183326Y92563D01*
X183354Y92575D01*
X183411Y92619D01*
X184046Y93254D01*
D01*
Y92950D01*
X184062Y92833D01*
X184064Y92827D01*
Y92711D01*
X184116D01*
X184179Y92629D01*
X184579Y92229D01*
X184579Y92229D01*
X184673Y92157D01*
X184783Y92112D01*
X184900Y92096D01*
X185096D01*
Y89315D01*
X184967D01*
Y88977D01*
X184000D01*
X183994Y88977D01*
X183994Y88977D01*
X184004Y89050D01*
X183988Y89167D01*
X183943Y89277D01*
X183871Y89371D01*
X183777Y89443D01*
X183667Y89488D01*
X183550Y89504D01*
X183433Y89488D01*
X183323Y89443D01*
X183229Y89371D01*
X183157Y89277D01*
X183112Y89167D01*
X183096Y89050D01*
X183112Y88933D01*
X183157Y88823D01*
X183229Y88729D01*
X183273Y88696D01*
Y88250D01*
X183273Y88250D01*
Y88182D01*
X183183D01*
Y87552D01*
Y87462D01*
X182947D01*
Y87562D01*
X182153D01*
Y86769D01*
X182947D01*
Y86908D01*
X183183D01*
Y86818D01*
X183917D01*
Y87448D01*
Y88182D01*
X183875D01*
D01*
X184115Y88423D01*
X184967D01*
Y87990D01*
X185154D01*
X185162Y87933D01*
X185188Y87868D01*
X185207Y87823D01*
X185279Y87729D01*
X185729Y87279D01*
X185823Y87207D01*
X185933Y87162D01*
X186050Y87146D01*
X189062D01*
X189595Y86613D01*
Y86110D01*
X190605D01*
Y87231D01*
X191885D01*
X192003Y87247D01*
X192112Y87292D01*
X192206Y87364D01*
X192795Y87953D01*
X192867Y88047D01*
X192913Y88157D01*
X192928Y88274D01*
X192913Y88392D01*
X192877Y88478D01*
X192913Y88564D01*
X192928Y88681D01*
Y89436D01*
X193771Y90279D01*
X193843Y90373D01*
X193888Y90483D01*
X193904Y90600D01*
Y93200D01*
X193888Y93317D01*
X193843Y93427D01*
X193771Y93521D01*
X193771Y93521D01*
X193371Y93921D01*
X193277Y93993D01*
X193232Y94012D01*
X193167Y94038D01*
X193050Y94054D01*
X192954D01*
Y97850D01*
X192954Y97850D01*
X192938Y97967D01*
X192893Y98077D01*
X192821Y98171D01*
X191371Y99621D01*
X191277Y99693D01*
X191232Y99712D01*
X191167Y99738D01*
X191050Y99754D01*
X178700D01*
Y101045D01*
X204645D01*
Y42055D01*
D02*
G37*
G36*
X90260Y98113D02*
Y96647D01*
X90029Y96551D01*
X89400Y97180D01*
X89011Y96791D01*
X88780Y96887D01*
Y97620D01*
X89440D01*
X90029Y98209D01*
X90260Y98113D01*
D02*
G37*
G36*
X189646Y89112D02*
Y88990D01*
X189595D01*
Y87897D01*
Y87897D01*
X189571Y87921D01*
X189477Y87993D01*
X189432Y88012D01*
X189367Y88038D01*
X189250Y88054D01*
X188733D01*
Y89246D01*
X189512D01*
X189646Y89112D01*
D02*
G37*
G36*
X117120Y79653D02*
Y79211D01*
X117002Y79162D01*
X116936Y79118D01*
X116892Y79051D01*
X116876Y78973D01*
Y78920D01*
X116387D01*
X116291Y79151D01*
X116889Y79749D01*
X117120Y79653D01*
D02*
G37*
G36*
X145480D02*
Y79211D01*
X145362Y79162D01*
X145296Y79118D01*
X145252Y79051D01*
X145236Y78973D01*
Y78920D01*
X144747D01*
X144651Y79151D01*
X145249Y79749D01*
X145480Y79653D01*
D02*
G37*
G36*
X198146Y86012D02*
Y85530D01*
X198146D01*
X198071Y85605D01*
X197977Y85677D01*
X197932Y85696D01*
X197868Y85722D01*
X197750Y85738D01*
X197449D01*
X197380Y85766D01*
X197250Y85783D01*
X197121Y85766D01*
X197052Y85738D01*
X196084D01*
X196079Y85737D01*
D01*
X196788Y86446D01*
X197712D01*
X198146Y86012D01*
D02*
G37*
G36*
X146960Y98113D02*
Y96647D01*
X146729Y96551D01*
X146100Y97180D01*
X145711Y96791D01*
X145480Y96887D01*
Y97620D01*
X146140D01*
X146729Y98209D01*
X146960Y98113D01*
D02*
G37*
G36*
X175300D02*
Y96647D01*
X175069Y96551D01*
X174440Y97180D01*
X174051Y96791D01*
X173820Y96887D01*
Y97620D01*
X174480D01*
X175069Y98209D01*
X175300Y98113D01*
D02*
G37*
G36*
X94610Y97260D02*
X94210Y96860D01*
X93610D01*
X93210Y97260D01*
Y98846D01*
X94610D01*
Y97260D01*
D02*
G37*
G36*
X118600Y98113D02*
Y96647D01*
X118369Y96551D01*
X117740Y97180D01*
X117351Y96791D01*
X117120Y96887D01*
Y97620D01*
X117780D01*
X118369Y98209D01*
X118600Y98113D01*
D02*
G37*
%LPC*%
G36*
X200750Y73494D02*
X200585Y73478D01*
X200427Y73430D01*
X200281Y73352D01*
X200153Y73247D01*
X200048Y73119D01*
X199970Y72973D01*
X199922Y72815D01*
X199906Y72650D01*
X199922Y72485D01*
X199970Y72327D01*
X200048Y72181D01*
X200153Y72053D01*
X200281Y71948D01*
X200427Y71870D01*
X200585Y71822D01*
X200750Y71806D01*
X200915Y71822D01*
X201073Y71870D01*
X201219Y71948D01*
X201347Y72053D01*
X201452Y72181D01*
X201530Y72327D01*
X201578Y72485D01*
X201594Y72650D01*
X201578Y72815D01*
X201530Y72973D01*
X201452Y73119D01*
X201347Y73247D01*
X201219Y73352D01*
X201073Y73430D01*
X200915Y73478D01*
X200750Y73494D01*
D02*
G37*
G36*
X194041Y75842D02*
X193576D01*
Y75574D01*
X194041D01*
Y75842D01*
D02*
G37*
G36*
X162890Y51003D02*
X161190D01*
Y49815D01*
X161763D01*
Y49231D01*
X161772Y49159D01*
X161788Y49120D01*
X161800Y49093D01*
X161844Y49035D01*
X162302Y48577D01*
Y48577D01*
X161355D01*
X160317Y49615D01*
Y49815D01*
X160890D01*
Y51003D01*
X159190D01*
Y49815D01*
X159763D01*
Y49500D01*
X159772Y49428D01*
X159788Y49389D01*
X159800Y49361D01*
X159844Y49304D01*
X160970Y48177D01*
X160970Y48177D01*
X159755D01*
X158317Y49615D01*
Y49786D01*
X158890D01*
Y50973D01*
X157190D01*
Y49786D01*
X157763D01*
Y49500D01*
X157772Y49428D01*
X157788Y49389D01*
X157800Y49361D01*
X157844Y49304D01*
X159444Y47704D01*
X159501Y47660D01*
X159568Y47632D01*
X159640Y47623D01*
X163925D01*
X164163Y47385D01*
Y45000D01*
X164172Y44928D01*
X164188Y44889D01*
X164200Y44861D01*
X164244Y44804D01*
X165644Y43404D01*
X165701Y43360D01*
X165768Y43332D01*
X165840Y43323D01*
X168740D01*
X168812Y43332D01*
X168851Y43348D01*
X168879Y43360D01*
X168936Y43404D01*
X169986Y44454D01*
X170030Y44511D01*
X170042Y44539D01*
X170058Y44578D01*
X170067Y44650D01*
Y45188D01*
X170067D01*
Y45188D01*
X170094Y45154D01*
X170493Y44754D01*
X170486Y44700D01*
X170502Y44583D01*
X170547Y44473D01*
X170619Y44379D01*
X170713Y44307D01*
X170823Y44262D01*
X170940Y44246D01*
X171057Y44262D01*
X171167Y44307D01*
X171261Y44379D01*
X171333Y44473D01*
X171378Y44583D01*
X171394Y44700D01*
X171378Y44817D01*
X171333Y44927D01*
X171261Y45021D01*
X171167Y45093D01*
X171057Y45138D01*
X170940Y45154D01*
X170886Y45147D01*
X170567Y45465D01*
Y45579D01*
X170568Y45580D01*
X170600Y45657D01*
X170611Y45740D01*
Y46370D01*
X170600Y46453D01*
X170568Y46531D01*
X170517Y46597D01*
X170450Y46648D01*
X170373Y46680D01*
X170290Y46691D01*
X170207Y46680D01*
X170130Y46648D01*
X170063Y46597D01*
X170040Y46567D01*
X170040D01*
D01*
D01*
X170040D01*
X170017Y46597D01*
X169950Y46648D01*
X169873Y46680D01*
X169790Y46691D01*
X169707Y46680D01*
X169630Y46648D01*
X169563Y46597D01*
X169540Y46567D01*
X169540D01*
D01*
D01*
X169540D01*
X169517Y46597D01*
X169450Y46648D01*
X169373Y46680D01*
X169290Y46691D01*
X169207Y46680D01*
X169130Y46648D01*
X169063Y46597D01*
X169040Y46567D01*
X169040D01*
D01*
D01*
X169040D01*
X169017Y46597D01*
X168950Y46648D01*
X168873Y46680D01*
X168790Y46691D01*
X168707Y46680D01*
X168630Y46648D01*
X168563Y46597D01*
X168540Y46567D01*
X168540D01*
D01*
D01*
X168540D01*
X168517Y46597D01*
X168450Y46648D01*
X168373Y46680D01*
X168290Y46691D01*
X168207Y46680D01*
X168130Y46648D01*
X168063Y46597D01*
X168040Y46567D01*
X168040D01*
D01*
D01*
X168040D01*
X168017Y46597D01*
X167950Y46648D01*
X167873Y46680D01*
X167790Y46691D01*
X167707Y46680D01*
X167630Y46648D01*
X167567Y46600D01*
X167567Y46600D01*
D01*
D01*
Y46950D01*
X167566Y46961D01*
X167567Y46971D01*
X167561Y46996D01*
X167558Y47022D01*
X167554Y47032D01*
X167552Y47042D01*
X167540Y47065D01*
X167530Y47089D01*
X167524Y47097D01*
X167519Y47107D01*
X167070Y47763D01*
X167078Y47783D01*
X167094Y47900D01*
X167078Y48017D01*
X167033Y48127D01*
X166961Y48221D01*
X166867Y48293D01*
X166757Y48338D01*
X166640Y48354D01*
X166523Y48338D01*
X166413Y48293D01*
X166319Y48221D01*
X166247Y48127D01*
X166202Y48017D01*
X166186Y47900D01*
X166202Y47783D01*
X166247Y47673D01*
X166319Y47579D01*
X166413Y47507D01*
X166523Y47462D01*
X166612Y47450D01*
X167013Y46864D01*
Y46531D01*
X167012Y46531D01*
X166980Y46453D01*
X166969Y46370D01*
Y45740D01*
X166980Y45657D01*
X167012Y45580D01*
X167063Y45513D01*
X167110Y45477D01*
X167110Y45477D01*
X167110D01*
D01*
X166855D01*
X166617Y45715D01*
Y45946D01*
X166661Y45979D01*
X166733Y46073D01*
X166778Y46183D01*
X166794Y46300D01*
X166778Y46417D01*
X166733Y46527D01*
X166661Y46621D01*
X166567Y46693D01*
X166457Y46738D01*
X166340Y46754D01*
X166223Y46738D01*
X166117Y46695D01*
Y46695D01*
Y48500D01*
X166108Y48572D01*
X166092Y48611D01*
X166080Y48639D01*
X166036Y48696D01*
X165436Y49296D01*
X165379Y49340D01*
X165351Y49352D01*
X165312Y49368D01*
X165240Y49377D01*
X164455D01*
X164317Y49515D01*
Y49815D01*
X164890D01*
Y51003D01*
X163190D01*
Y49815D01*
X163763D01*
Y49400D01*
X163772Y49328D01*
X163788Y49289D01*
X163800Y49261D01*
X163844Y49204D01*
X164070Y48977D01*
Y48977D01*
X162686D01*
X162317Y49346D01*
Y49815D01*
X162890D01*
Y51003D01*
D02*
G37*
G36*
X66500Y43900D02*
X66396Y43887D01*
X66300Y43847D01*
X66217Y43783D01*
X66153Y43700D01*
X66113Y43604D01*
X66100Y43500D01*
X66113Y43396D01*
X66153Y43300D01*
X66217Y43217D01*
X66300Y43153D01*
X66396Y43113D01*
X66500Y43100D01*
X66604Y43113D01*
X66700Y43153D01*
X66783Y43217D01*
X66847Y43300D01*
X66887Y43396D01*
X66900Y43500D01*
X66887Y43604D01*
X66847Y43700D01*
X66783Y43783D01*
X66700Y43847D01*
X66604Y43887D01*
X66500Y43900D01*
D02*
G37*
G36*
X203000D02*
X202896Y43887D01*
X202800Y43847D01*
X202717Y43783D01*
X202653Y43700D01*
X202613Y43604D01*
X202600Y43500D01*
X202613Y43396D01*
X202653Y43300D01*
X202717Y43217D01*
X202800Y43153D01*
X202896Y43113D01*
X203000Y43100D01*
X203104Y43113D01*
X203200Y43153D01*
X203283Y43217D01*
X203347Y43300D01*
X203387Y43396D01*
X203400Y43500D01*
X203387Y43604D01*
X203347Y43700D01*
X203283Y43783D01*
X203200Y43847D01*
X203104Y43887D01*
X203000Y43900D01*
D02*
G37*
G36*
X66500Y99900D02*
X66396Y99887D01*
X66300Y99847D01*
X66217Y99783D01*
X66153Y99700D01*
X66113Y99604D01*
X66100Y99500D01*
X66113Y99396D01*
X66153Y99300D01*
X66217Y99217D01*
X66300Y99153D01*
X66396Y99113D01*
X66500Y99100D01*
X66604Y99113D01*
X66700Y99153D01*
X66783Y99217D01*
X66847Y99300D01*
X66887Y99396D01*
X66900Y99500D01*
X66887Y99604D01*
X66847Y99700D01*
X66783Y99783D01*
X66700Y99847D01*
X66604Y99887D01*
X66500Y99900D01*
D02*
G37*
G36*
X191070Y59610D02*
X190966Y59596D01*
X190870Y59556D01*
X190787Y59493D01*
X190723Y59410D01*
X190683Y59313D01*
X190670Y59210D01*
X190683Y59106D01*
X190723Y59010D01*
X190787Y58927D01*
X190870Y58863D01*
X190966Y58823D01*
X191070Y58810D01*
X191174Y58823D01*
X191270Y58863D01*
X191353Y58927D01*
X191417Y59010D01*
X191457Y59106D01*
X191470Y59210D01*
X191457Y59313D01*
X191417Y59410D01*
X191353Y59493D01*
X191270Y59556D01*
X191174Y59596D01*
X191070Y59610D01*
D02*
G37*
G36*
X194041Y74726D02*
X193576D01*
Y74458D01*
X194041D01*
Y74726D01*
D02*
G37*
G36*
X185760Y64930D02*
X185656Y64917D01*
X185560Y64877D01*
X185477Y64813D01*
X185413Y64730D01*
X185373Y64634D01*
X185360Y64530D01*
X185373Y64426D01*
X185413Y64330D01*
X185477Y64247D01*
X185560Y64183D01*
X185656Y64143D01*
X185760Y64130D01*
X185863Y64143D01*
X185960Y64183D01*
X186043Y64247D01*
X186106Y64330D01*
X186146Y64426D01*
X186160Y64530D01*
X186146Y64634D01*
X186106Y64730D01*
X186043Y64813D01*
X185960Y64877D01*
X185863Y64917D01*
X185760Y64930D01*
D02*
G37*
G36*
X200750Y82128D02*
X200586Y82111D01*
X200427Y82063D01*
X200282Y81985D01*
X200154Y81881D01*
X200049Y81753D01*
X199971Y81607D01*
X199923Y81448D01*
X199907Y81284D01*
X199923Y81119D01*
X199971Y80961D01*
X200049Y80815D01*
X200154Y80687D01*
X200282Y80582D01*
X200427Y80504D01*
X200586Y80456D01*
X200750Y80440D01*
X200915Y80456D01*
X201073Y80504D01*
X201219Y80582D01*
X201347Y80687D01*
X201452Y80815D01*
X201530Y80961D01*
X201578Y81119D01*
X201594Y81284D01*
X201578Y81448D01*
X201530Y81607D01*
X201452Y81753D01*
X201347Y81881D01*
X201219Y81985D01*
X201073Y82063D01*
X200915Y82111D01*
X200750Y82128D01*
D02*
G37*
G36*
X79850Y50973D02*
X78150D01*
Y49786D01*
X78723D01*
Y49400D01*
X78732Y49328D01*
X78748Y49289D01*
X78760Y49261D01*
X78804Y49204D01*
X79030Y48977D01*
Y48977D01*
X77646D01*
X77277Y49346D01*
Y49786D01*
X77850D01*
Y50973D01*
X76150D01*
Y49786D01*
X76723D01*
Y49231D01*
X76732Y49159D01*
X76748Y49120D01*
X76760Y49093D01*
X76804Y49035D01*
X77262Y48577D01*
Y48577D01*
X76315D01*
X75277Y49615D01*
Y49786D01*
X75850D01*
Y50973D01*
X74150D01*
Y49786D01*
X74723D01*
Y49500D01*
X74732Y49428D01*
X74748Y49389D01*
X74760Y49361D01*
X74804Y49304D01*
X75930Y48177D01*
X75930Y48177D01*
X74715D01*
X73277Y49615D01*
Y49786D01*
X73850D01*
Y50973D01*
X72150D01*
Y49786D01*
X72723D01*
Y49500D01*
X72732Y49428D01*
X72748Y49389D01*
X72760Y49361D01*
X72804Y49304D01*
X74404Y47704D01*
X74461Y47660D01*
X74528Y47632D01*
X74600Y47623D01*
X78885D01*
X79123Y47385D01*
Y45000D01*
X79132Y44928D01*
X79148Y44889D01*
X79160Y44861D01*
X79204Y44804D01*
X80604Y43404D01*
X80661Y43360D01*
X80728Y43332D01*
X80800Y43323D01*
X83700D01*
X83772Y43332D01*
X83811Y43348D01*
X83839Y43360D01*
X83896Y43404D01*
X84946Y44454D01*
X84990Y44511D01*
X85002Y44539D01*
X85018Y44578D01*
X85027Y44650D01*
Y45188D01*
X85027D01*
Y45188D01*
X85054Y45154D01*
X85453Y44754D01*
X85446Y44700D01*
X85462Y44583D01*
X85507Y44473D01*
X85579Y44379D01*
X85673Y44307D01*
X85783Y44262D01*
X85900Y44246D01*
X86017Y44262D01*
X86127Y44307D01*
X86221Y44379D01*
X86293Y44473D01*
X86338Y44583D01*
X86354Y44700D01*
X86338Y44817D01*
X86293Y44927D01*
X86221Y45021D01*
X86127Y45093D01*
X86017Y45138D01*
X85900Y45154D01*
X85846Y45147D01*
X85527Y45465D01*
Y45579D01*
X85528Y45580D01*
X85560Y45657D01*
X85571Y45740D01*
Y46370D01*
X85560Y46453D01*
X85528Y46531D01*
X85477Y46597D01*
X85410Y46648D01*
X85333Y46680D01*
X85250Y46691D01*
X85167Y46680D01*
X85090Y46648D01*
X85023Y46597D01*
X85000Y46567D01*
X85000D01*
D01*
D01*
X85000D01*
X84977Y46597D01*
X84910Y46648D01*
X84833Y46680D01*
X84750Y46691D01*
X84667Y46680D01*
X84590Y46648D01*
X84523Y46597D01*
X84500Y46567D01*
X84500D01*
D01*
D01*
X84500D01*
X84477Y46597D01*
X84410Y46648D01*
X84333Y46680D01*
X84250Y46691D01*
X84167Y46680D01*
X84090Y46648D01*
X84023Y46597D01*
X84000Y46567D01*
X84000D01*
D01*
D01*
X84000D01*
X83977Y46597D01*
X83910Y46648D01*
X83833Y46680D01*
X83750Y46691D01*
X83667Y46680D01*
X83590Y46648D01*
X83523Y46597D01*
X83500Y46567D01*
X83500D01*
D01*
D01*
X83500D01*
X83477Y46597D01*
X83410Y46648D01*
X83333Y46680D01*
X83250Y46691D01*
X83167Y46680D01*
X83090Y46648D01*
X83023Y46597D01*
X83000Y46567D01*
X83000D01*
D01*
D01*
X83000D01*
X82977Y46597D01*
X82910Y46648D01*
X82833Y46680D01*
X82750Y46691D01*
X82667Y46680D01*
X82590Y46648D01*
X82527Y46600D01*
X82527Y46600D01*
D01*
D01*
Y46950D01*
X82518Y47022D01*
X82490Y47089D01*
X82446Y47146D01*
X81747Y47846D01*
X81754Y47900D01*
X81738Y48017D01*
X81693Y48127D01*
X81621Y48221D01*
X81527Y48293D01*
X81417Y48338D01*
X81300Y48354D01*
X81183Y48338D01*
X81077Y48295D01*
Y48295D01*
Y48500D01*
X81068Y48572D01*
X81052Y48611D01*
X81040Y48639D01*
X80996Y48696D01*
X80396Y49296D01*
X80339Y49340D01*
X80311Y49352D01*
X80272Y49368D01*
X80200Y49377D01*
X79415D01*
X79277Y49515D01*
Y49786D01*
X79850D01*
Y50973D01*
D02*
G37*
G36*
X136550Y51053D02*
X134850D01*
Y49865D01*
X135423D01*
Y49400D01*
X135432Y49328D01*
X135448Y49289D01*
X135460Y49261D01*
X135504Y49204D01*
X135730Y48977D01*
Y48977D01*
X134346D01*
X133977Y49346D01*
Y49865D01*
X134550D01*
Y51053D01*
X132850D01*
Y49865D01*
X133423D01*
Y49231D01*
X133432Y49159D01*
X133448Y49120D01*
X133460Y49093D01*
X133504Y49035D01*
X133962Y48577D01*
Y48577D01*
X133015D01*
X131977Y49615D01*
Y49865D01*
X132550D01*
Y51053D01*
X130850D01*
Y49865D01*
X131423D01*
Y49500D01*
X131432Y49428D01*
X131448Y49389D01*
X131460Y49361D01*
X131504Y49304D01*
X132630Y48177D01*
X132630Y48177D01*
X131415D01*
X129977Y49615D01*
Y49865D01*
X130550D01*
Y51053D01*
X128850D01*
Y49865D01*
X129423D01*
Y49500D01*
X129432Y49428D01*
X129448Y49389D01*
X129460Y49361D01*
X129504Y49304D01*
X131104Y47704D01*
X131161Y47660D01*
X131228Y47632D01*
X131300Y47623D01*
X135585D01*
X135823Y47385D01*
Y45000D01*
X135832Y44928D01*
X135848Y44889D01*
X135860Y44861D01*
X135904Y44804D01*
X137304Y43404D01*
X137361Y43360D01*
X137428Y43332D01*
X137500Y43323D01*
X140400D01*
X140472Y43332D01*
X140511Y43348D01*
X140539Y43360D01*
X140596Y43404D01*
X141646Y44454D01*
X141690Y44511D01*
X141702Y44539D01*
X141718Y44578D01*
X141727Y44650D01*
Y45188D01*
X141727D01*
Y45188D01*
X141754Y45154D01*
X142153Y44754D01*
X142146Y44700D01*
X142162Y44583D01*
X142207Y44473D01*
X142279Y44379D01*
X142373Y44307D01*
X142483Y44262D01*
X142600Y44246D01*
X142717Y44262D01*
X142827Y44307D01*
X142921Y44379D01*
X142993Y44473D01*
X143038Y44583D01*
X143054Y44700D01*
X143038Y44817D01*
X142993Y44927D01*
X142921Y45021D01*
X142827Y45093D01*
X142717Y45138D01*
X142600Y45154D01*
X142546Y45147D01*
X142227Y45465D01*
Y45566D01*
X142238Y45580D01*
X142270Y45657D01*
X142281Y45740D01*
Y46370D01*
X142270Y46453D01*
X142238Y46531D01*
X142187Y46597D01*
X142120Y46648D01*
X142043Y46680D01*
X141960Y46691D01*
X141877Y46680D01*
X141800Y46648D01*
X141733Y46597D01*
X141710Y46567D01*
X141710D01*
D01*
D01*
X141710D01*
X141687Y46597D01*
X141620Y46648D01*
X141543Y46680D01*
X141460Y46691D01*
X141377Y46680D01*
X141300Y46648D01*
X141233Y46597D01*
X141210Y46567D01*
X141210D01*
D01*
D01*
X141210D01*
X141187Y46597D01*
X141120Y46648D01*
X141043Y46680D01*
X140960Y46691D01*
X140877Y46680D01*
X140800Y46648D01*
X140733Y46597D01*
X140710Y46567D01*
X140710D01*
D01*
D01*
X140710D01*
X140687Y46597D01*
X140620Y46648D01*
X140543Y46680D01*
X140460Y46691D01*
X140377Y46680D01*
X140300Y46648D01*
X140233Y46597D01*
X140210Y46567D01*
X140210D01*
D01*
D01*
X140210D01*
X140187Y46597D01*
X140120Y46648D01*
X140043Y46680D01*
X139960Y46691D01*
X139877Y46680D01*
X139800Y46648D01*
X139733Y46597D01*
X139710Y46567D01*
X139710D01*
D01*
D01*
X139710D01*
X139687Y46597D01*
X139620Y46648D01*
X139543Y46680D01*
X139460Y46691D01*
X139377Y46680D01*
X139300Y46648D01*
X139233Y46597D01*
X139227Y46589D01*
X139227D01*
D01*
Y46950D01*
X139218Y47022D01*
X139190Y47089D01*
X139146Y47146D01*
X138447Y47846D01*
X138454Y47900D01*
X138438Y48017D01*
X138393Y48127D01*
X138321Y48221D01*
X138227Y48293D01*
X138117Y48338D01*
X138000Y48354D01*
X137883Y48338D01*
X137777Y48295D01*
Y48295D01*
Y48500D01*
X137768Y48572D01*
X137752Y48611D01*
X137740Y48639D01*
X137696Y48696D01*
X137096Y49296D01*
X137039Y49340D01*
X137011Y49352D01*
X136972Y49368D01*
X136900Y49377D01*
X136115D01*
X135977Y49515D01*
Y49865D01*
X136550D01*
Y51053D01*
D02*
G37*
%LPD*%
G36*
X137883Y47462D02*
X138000Y47446D01*
X138054Y47453D01*
X138673Y46835D01*
Y46508D01*
X138650Y46453D01*
X138639Y46370D01*
Y45740D01*
X138650Y45657D01*
X138682Y45580D01*
X138733Y45513D01*
X138780Y45477D01*
Y45477D01*
X138780D01*
D01*
X138515D01*
X138277Y45715D01*
Y45946D01*
X138321Y45979D01*
X138393Y46073D01*
X138438Y46183D01*
X138454Y46300D01*
X138438Y46417D01*
X138393Y46527D01*
X138321Y46621D01*
X138227Y46693D01*
X138117Y46738D01*
X138000Y46754D01*
X137883Y46738D01*
X137777Y46695D01*
Y46695D01*
Y47505D01*
X137777D01*
D01*
D01*
D01*
D01*
D01*
X137883Y47462D01*
D02*
G37*
G36*
X81183D02*
X81300Y47446D01*
X81354Y47453D01*
X81973Y46835D01*
Y46531D01*
X81972Y46531D01*
X81940Y46453D01*
X81929Y46370D01*
Y45740D01*
X81940Y45657D01*
X81972Y45580D01*
X82023Y45513D01*
X82070Y45477D01*
X82070Y45477D01*
X82070D01*
D01*
X81815D01*
X81577Y45715D01*
Y45946D01*
X81621Y45979D01*
X81693Y46073D01*
X81738Y46183D01*
X81754Y46300D01*
X81738Y46417D01*
X81693Y46527D01*
X81621Y46621D01*
X81527Y46693D01*
X81417Y46738D01*
X81300Y46754D01*
X81183Y46738D01*
X81077Y46695D01*
Y46695D01*
Y47505D01*
X81077D01*
D01*
D01*
D01*
D01*
D01*
X81183Y47462D01*
D02*
G37*
D10*
X73000Y52820D02*
D03*
Y50380D02*
D03*
X162040Y50409D02*
D03*
Y52850D02*
D03*
X164040Y50409D02*
D03*
Y52850D02*
D03*
X160040Y50409D02*
D03*
Y52850D02*
D03*
X172040Y50409D02*
D03*
Y52850D02*
D03*
X158040Y50380D02*
D03*
Y52820D02*
D03*
X131700Y52900D02*
D03*
Y50459D02*
D03*
X135700D02*
D03*
Y52900D02*
D03*
X139700Y52900D02*
D03*
Y50459D02*
D03*
X103340Y52820D02*
D03*
Y50380D02*
D03*
X105340Y52820D02*
D03*
Y50380D02*
D03*
X107340Y52820D02*
D03*
Y50380D02*
D03*
X111340Y52820D02*
D03*
Y50380D02*
D03*
X113340D02*
D03*
Y52820D02*
D03*
X115340D02*
D03*
Y50380D02*
D03*
X166040Y52850D02*
D03*
Y50409D02*
D03*
X168040Y52850D02*
D03*
Y50409D02*
D03*
X170040Y52850D02*
D03*
Y50409D02*
D03*
X87000Y52820D02*
D03*
Y50380D02*
D03*
X85000D02*
D03*
Y52820D02*
D03*
X83000D02*
D03*
Y50380D02*
D03*
X81000Y50380D02*
D03*
Y52820D02*
D03*
X79000Y50380D02*
D03*
Y52820D02*
D03*
X77000Y50380D02*
D03*
Y52820D02*
D03*
X75000Y50380D02*
D03*
Y52820D02*
D03*
X143700Y50459D02*
D03*
Y52900D02*
D03*
X141700Y50459D02*
D03*
Y52900D02*
D03*
X137700Y50459D02*
D03*
Y52900D02*
D03*
X133700Y50459D02*
D03*
Y52900D02*
D03*
X129700Y52900D02*
D03*
Y50459D02*
D03*
X101340Y52820D02*
D03*
Y50380D02*
D03*
X109340D02*
D03*
Y52820D02*
D03*
D11*
X185600Y86448D02*
D03*
Y88652D02*
D03*
X188100Y86448D02*
D03*
Y88652D02*
D03*
D12*
X190100Y86772D02*
D03*
Y88328D02*
D03*
D13*
X183550Y87185D02*
D03*
Y87815D02*
D03*
X182450Y69585D02*
D03*
Y70215D02*
D03*
X187400Y69585D02*
D03*
Y70215D02*
D03*
X183600Y66015D02*
D03*
Y65385D02*
D03*
D14*
X182550Y87835D02*
D03*
Y87165D02*
D03*
X184450Y69565D02*
D03*
Y70235D02*
D03*
X183450D02*
D03*
Y69565D02*
D03*
X186400Y70235D02*
D03*
Y69565D02*
D03*
X182400Y65365D02*
D03*
Y66035D02*
D03*
X189000Y55535D02*
D03*
Y54865D02*
D03*
D15*
X183650Y71955D02*
D03*
X184150D02*
D03*
X184650D02*
D03*
X185150D02*
D03*
X183650Y73845D02*
D03*
X184150D02*
D03*
X185150D02*
D03*
X170790Y47945D02*
D03*
X170290D02*
D03*
X169790D02*
D03*
X169290D02*
D03*
X168790D02*
D03*
X168290D02*
D03*
X167790D02*
D03*
X167290D02*
D03*
X170790Y46055D02*
D03*
X170290D02*
D03*
X169790D02*
D03*
X169290D02*
D03*
X168790D02*
D03*
X168290D02*
D03*
X167790D02*
D03*
X167290D02*
D03*
X140960Y46055D02*
D03*
X140460D02*
D03*
X139960D02*
D03*
Y47945D02*
D03*
X140460D02*
D03*
X140960D02*
D03*
X141460D02*
D03*
X142460D02*
D03*
X141960D02*
D03*
X139460D02*
D03*
X138960D02*
D03*
Y46055D02*
D03*
X139460D02*
D03*
X141460D02*
D03*
X141960D02*
D03*
X142460D02*
D03*
X112590Y46110D02*
D03*
X112090D02*
D03*
X111590D02*
D03*
Y48000D02*
D03*
X112090D02*
D03*
X112590D02*
D03*
X113090D02*
D03*
X114090D02*
D03*
X113590D02*
D03*
X111090D02*
D03*
X110590D02*
D03*
Y46110D02*
D03*
X111090D02*
D03*
X113090D02*
D03*
X113590D02*
D03*
X114090D02*
D03*
X82250Y46055D02*
D03*
X82750D02*
D03*
X83250D02*
D03*
X83750D02*
D03*
X84250D02*
D03*
X84750D02*
D03*
X85250D02*
D03*
X85750D02*
D03*
X82250Y47945D02*
D03*
X82750D02*
D03*
X83250D02*
D03*
X83750D02*
D03*
X84250D02*
D03*
X84750D02*
D03*
X85250D02*
D03*
X85750D02*
D03*
D16*
X184650Y73845D02*
D03*
D17*
X194000Y66568D02*
D03*
Y62631D02*
D03*
D18*
X195600Y60415D02*
D03*
Y59785D02*
D03*
Y65285D02*
D03*
Y65915D02*
D03*
X188100Y55515D02*
D03*
Y54885D02*
D03*
X182500Y73685D02*
D03*
Y74315D02*
D03*
X188419Y65391D02*
D03*
Y66021D02*
D03*
X190500Y92815D02*
D03*
Y92185D02*
D03*
X182500Y92815D02*
D03*
Y92185D02*
D03*
X195600Y63385D02*
D03*
Y64015D02*
D03*
X188100Y57685D02*
D03*
Y58315D02*
D03*
X184869Y62171D02*
D03*
Y61541D02*
D03*
X143200Y47315D02*
D03*
Y46685D02*
D03*
X114840D02*
D03*
Y47315D02*
D03*
X86500D02*
D03*
Y46685D02*
D03*
X171540D02*
D03*
Y47315D02*
D03*
D19*
X190500Y57007D02*
D03*
Y53393D02*
D03*
D20*
X191070Y59210D02*
D03*
X185760Y64530D02*
D03*
X66500Y43500D02*
D03*
Y99500D02*
D03*
X203000Y43500D02*
D03*
D21*
X192474Y88681D02*
D03*
X193526D02*
D03*
Y86319D02*
D03*
X192474D02*
D03*
D22*
X184500Y93600D02*
D03*
Y91400D02*
D03*
X192500Y93600D02*
D03*
Y91400D02*
D03*
D23*
X188000Y91555D02*
D03*
D24*
X187098Y94094D02*
D03*
X188902D02*
D03*
D25*
X190635Y60296D02*
D03*
Y60611D02*
D03*
Y60926D02*
D03*
Y61241D02*
D03*
Y61556D02*
D03*
Y61870D02*
D03*
Y62185D02*
D03*
Y62500D02*
D03*
Y62815D02*
D03*
Y63130D02*
D03*
Y63445D02*
D03*
X186187D02*
D03*
Y63130D02*
D03*
Y62815D02*
D03*
Y62500D02*
D03*
Y62185D02*
D03*
Y61870D02*
D03*
Y61556D02*
D03*
Y61241D02*
D03*
Y60926D02*
D03*
Y60611D02*
D03*
Y60296D02*
D03*
D26*
X189986Y64095D02*
D03*
X189671D02*
D03*
X189356D02*
D03*
X189041D02*
D03*
X188726D02*
D03*
X188411D02*
D03*
X188096D02*
D03*
X187781D02*
D03*
X187466D02*
D03*
X187151D02*
D03*
X186836D02*
D03*
Y59646D02*
D03*
X187151D02*
D03*
X187466D02*
D03*
X187781D02*
D03*
X188096D02*
D03*
X188411D02*
D03*
X188726D02*
D03*
X189041D02*
D03*
X189356D02*
D03*
X189671D02*
D03*
X189986D02*
D03*
D27*
X192817Y75150D02*
D03*
X193526Y75524D02*
D03*
D28*
X193526Y74776D02*
D03*
D29*
X194516Y55476D02*
Y57434D01*
X190635Y60611D02*
X191339D01*
X194516Y57434D01*
X113579Y47004D02*
X113744D01*
X113575Y47000D02*
X113579Y47004D01*
X82600Y45200D02*
X82750Y45350D01*
Y46055D01*
X81700Y45200D02*
X82600D01*
X81300Y45600D02*
X81700Y45200D01*
X85250Y45350D02*
X85900Y44700D01*
X85250Y45350D02*
Y46055D01*
X81300Y45600D02*
Y46300D01*
X87000Y48900D02*
X87400Y49300D01*
X85466Y48900D02*
X87000D01*
X85250Y48684D02*
X85466Y48900D01*
X85250Y47945D02*
Y48684D01*
X85750Y47350D02*
Y48450D01*
X83000Y47000D02*
X85400D01*
X85750Y47350D01*
X86500Y47315D02*
Y48400D01*
X86300Y48600D02*
X86500Y48400D01*
X85900Y48600D02*
X86300D01*
X85750Y48450D02*
X85900Y48600D01*
X82750Y47250D02*
Y47945D01*
Y47250D02*
X83000Y47000D01*
X73000Y49500D02*
Y50380D01*
Y49500D02*
X74600Y47900D01*
X79000D01*
X79400Y47500D01*
Y45000D02*
Y47500D01*
Y45000D02*
X80800Y43600D01*
X83700D01*
X84750Y44650D01*
X79900Y45100D02*
X81000Y44000D01*
X79900Y45100D02*
Y47800D01*
X79400Y48300D02*
X79900Y47800D01*
X76200Y48300D02*
X79400D01*
X75000Y49500D02*
X76200Y48300D01*
X75000Y49500D02*
Y50380D01*
X80400Y45231D02*
X81231Y44400D01*
X80400Y45231D02*
Y48100D01*
X77000Y49231D02*
X77531Y48700D01*
X79800D01*
X79000Y49400D02*
X79300Y49100D01*
X80200D01*
X80800Y45400D02*
Y48500D01*
X80200Y49100D02*
X80800Y48500D01*
X81000Y44000D02*
X83500D01*
X84250Y44750D01*
X77000Y49231D02*
Y50380D01*
X79800Y48700D02*
X80400Y48100D01*
X81231Y44400D02*
X83300D01*
X83750Y44850D01*
X79000Y49400D02*
Y50380D01*
X80800Y45400D02*
X81400Y44800D01*
X83000D01*
X83250Y45050D01*
X84750Y44650D02*
Y46055D01*
X84250Y44750D02*
Y46055D01*
X83750Y44850D02*
Y46055D01*
X83250Y45050D02*
Y46055D01*
X83000Y49500D02*
Y50380D01*
Y49500D02*
X83750Y48750D01*
X85000Y49700D02*
Y50380D01*
X84250Y48950D02*
X85000Y49700D01*
X83750Y47945D02*
Y48750D01*
X84250Y47945D02*
Y48950D01*
X81000Y49800D02*
Y50380D01*
Y49800D02*
X81500Y49300D01*
X82600D01*
X83250Y48650D01*
Y47945D02*
Y48650D01*
X87000Y49800D02*
Y50380D01*
X86500Y49300D02*
X87000Y49800D01*
X85300Y49300D02*
X86500D01*
X84750Y48750D02*
X85300Y49300D01*
X84750Y47945D02*
Y48750D01*
X187522Y74850D02*
X188522Y73850D01*
X185100Y74850D02*
X187522D01*
X190635Y62185D02*
X192635Y62185D01*
X190635Y62500D02*
X191850D01*
X167290Y46055D02*
Y46950D01*
X166640Y47900D02*
X167290Y46950D01*
X167790Y45350D02*
Y46055D01*
X167640Y45200D02*
X167790Y45350D01*
X166740Y45200D02*
X167640D01*
X166340Y45600D02*
X166740Y45200D01*
X166340Y45600D02*
Y46300D01*
X168290Y45050D02*
Y46055D01*
X168040Y44800D02*
X168290Y45050D01*
X166440Y44800D02*
X168040D01*
X165840Y45400D02*
X166440Y44800D01*
X165840Y45400D02*
Y48500D01*
X165240Y49100D02*
X165840Y48500D01*
X164340Y49100D02*
X165240D01*
X164040Y49400D02*
X164340Y49100D01*
X164040Y49400D02*
Y50380D01*
X168790Y44850D02*
Y46055D01*
X168340Y44400D02*
X168790Y44850D01*
X166271Y44400D02*
X168340D01*
X165440Y45231D02*
X166271Y44400D01*
X165440Y45231D02*
Y48100D01*
X164840Y48700D02*
X165440Y48100D01*
X162571Y48700D02*
X164840D01*
X162040Y49231D02*
X162571Y48700D01*
X162040Y49231D02*
Y50380D01*
X169290Y44750D02*
Y46055D01*
X168540Y44000D02*
X169290Y44750D01*
X166040Y44000D02*
X168540D01*
X164940Y45100D02*
X166040Y44000D01*
X164940Y45100D02*
Y47800D01*
X164440Y48300D02*
X164940Y47800D01*
X161240Y48300D02*
X164440D01*
X160040Y49500D02*
X161240Y48300D01*
X160040Y49500D02*
Y50380D01*
X169790Y44650D02*
Y46055D01*
X168740Y43600D02*
X169790Y44650D01*
X165840Y43600D02*
X168740D01*
X164440Y45000D02*
X165840Y43600D01*
X164440Y45000D02*
Y47500D01*
X164040Y47900D02*
X164440Y47500D01*
X159640Y47900D02*
X164040D01*
X158040Y49500D02*
X159640Y47900D01*
X158040Y49500D02*
Y50380D01*
X170290Y45350D02*
Y46055D01*
Y45350D02*
X170940Y44700D01*
X167790Y47250D02*
Y47945D01*
Y47250D02*
X168040Y47000D01*
X170440D01*
X170790Y47350D01*
Y48450D01*
X170940Y48600D01*
X171340D01*
X171540Y48400D01*
Y47315D02*
Y48400D01*
X168290Y47945D02*
Y48650D01*
X167640Y49300D02*
X168290Y48650D01*
X166540Y49300D02*
X167640D01*
X166040Y49800D02*
X166540Y49300D01*
X166040Y49800D02*
Y50380D01*
X168790Y47945D02*
Y48750D01*
X168040Y49500D02*
X168790Y48750D01*
X168040Y49500D02*
Y50380D01*
X169290Y47945D02*
Y48950D01*
X170040Y49700D01*
Y50380D01*
X169790Y47945D02*
Y48750D01*
X170340Y49300D01*
X171540D01*
X172040Y49800D01*
Y50380D01*
X170290Y47945D02*
Y48684D01*
X170506Y48900D01*
X172040D01*
X172440Y49300D01*
X191154Y60296D02*
X194000Y57450D01*
X190635Y60926D02*
X191574D01*
X195000Y57500D01*
X188096Y58315D02*
Y59646D01*
X184650Y74400D02*
X185100Y74850D01*
X184650Y73845D02*
Y74400D01*
X184150Y74550D02*
X185100Y75500D01*
X187500D01*
X188550Y76550D01*
X184150Y73845D02*
Y74550D01*
X183450Y71000D02*
X183650Y71200D01*
X183450Y70235D02*
Y71000D01*
X185150Y71300D02*
X185500Y70950D01*
X185150Y71300D02*
Y71955D01*
X184450Y70235D02*
Y70950D01*
X184650Y71150D01*
Y71955D01*
X184150D02*
X184650D01*
X184950Y68800D02*
Y70050D01*
X184765Y70235D02*
X184950Y70050D01*
X184450Y70235D02*
X184765D01*
X186050Y70950D02*
X186400Y70600D01*
X185500Y70950D02*
X186050D01*
X186400Y70235D02*
Y70600D01*
X185835Y70235D02*
X186400D01*
X185650Y70050D02*
X185835Y70235D01*
X185650Y68900D02*
Y70050D01*
X186400Y69565D02*
X187380D01*
X182470Y69565D02*
X183450D01*
X190000Y61550D02*
X190700D01*
X188406Y63144D02*
X190000Y61550D01*
X188406Y63144D02*
Y64150D01*
X187015Y62185D02*
X188100Y61100D01*
X190635Y63130D02*
X191330D01*
X190635Y62815D02*
X191615D01*
X191330Y63130D02*
X191700Y63500D01*
X191615Y62815D02*
X192100Y63300D01*
X191700Y63500D02*
Y67350D01*
X191050Y68000D02*
X191700Y67350D01*
X186550Y68000D02*
X191050D01*
X185650Y68900D02*
X186550Y68000D01*
X183650Y72750D02*
X183850Y72950D01*
X185900D01*
X186600Y72250D02*
X187750D01*
X188988Y70262D02*
X190312Y68938D01*
X183650Y71200D02*
Y72750D01*
X192100Y63300D02*
Y67900D01*
X184950Y68800D02*
X186300Y67450D01*
X190800D01*
X197250Y75650D02*
X198750D01*
X197229Y74650D02*
X198800D01*
X198750Y75650D02*
X199350Y76250D01*
Y77600D01*
X195800Y79650D02*
Y83600D01*
X196484Y84284D01*
X198800Y74650D02*
X200100Y75950D01*
X197700Y78950D02*
X201100D01*
X196400Y80250D02*
X197700Y78950D01*
X196400Y80250D02*
Y83000D01*
X196484Y84284D02*
X197128D01*
X196400Y83000D02*
X196684Y83284D01*
X197128D01*
X200100Y75950D02*
X201300D01*
X201100Y78950D02*
X201850Y78200D01*
Y76500D02*
Y78200D01*
X201300Y75950D02*
X201850Y76500D01*
X185900Y72950D02*
X186600Y72250D01*
X187400Y70215D02*
Y71700D01*
X182570Y87185D02*
X183550D01*
X182500Y92815D02*
X183215D01*
X183950Y93550D01*
X184500D01*
X190500Y92815D02*
X191065Y92815D01*
X191850Y93600D01*
X192500Y93600D01*
X193526Y75524D02*
Y75524D01*
X192600Y73850D02*
X193526Y74776D01*
X192500Y76550D02*
X193300Y75750D01*
X188550Y76550D02*
X192500D01*
X188522Y73850D02*
X192600D01*
X190635Y61241D02*
X191759D01*
X188988Y70262D02*
Y71013D01*
X187750Y72250D02*
X188988Y71013D01*
X190312Y68938D02*
X191063D01*
X192100Y67900D01*
X189350Y65100D02*
X190000Y65750D01*
X191000D01*
X191250Y66000D01*
Y67000D01*
X189350Y64095D02*
Y65100D01*
X190800Y67450D02*
X191250Y67000D01*
X192094Y61556D02*
X193865Y59785D01*
X190130Y61870D02*
X192330D01*
X190635Y61556D02*
X192094D01*
X188092Y63092D02*
Y64708D01*
X187950Y64850D02*
X188092Y64708D01*
X167290Y47945D02*
Y48760D01*
X167250Y48800D02*
X167290Y48760D01*
X191850Y62500D02*
X192650Y63300D01*
Y65950D01*
X193269Y66568D01*
X193865Y59785D02*
X195600D01*
X192635Y62185D02*
X193100Y62650D01*
X195282Y66568D02*
X195600Y66250D01*
X193269Y66568D02*
X195282D01*
X195600Y65915D02*
Y66250D01*
X193100Y62650D02*
X194000Y62650D01*
X195600Y62950D02*
Y63285D01*
X195300Y62650D02*
X195600Y62950D01*
X194000Y62650D02*
X195300D01*
X183550Y88250D02*
X184000Y88700D01*
X185600D01*
X183550Y87815D02*
Y89050D01*
X191759Y61241D02*
X195870Y57130D01*
X190635Y60296D02*
X191154D01*
X194000Y55000D02*
Y57450D01*
X195000Y55000D02*
Y57500D01*
X183550Y87750D02*
Y88250D01*
X192750Y53750D02*
X194750D01*
X192050Y53050D02*
X192750Y53750D01*
X190900Y52200D02*
X191650D01*
X190500Y52600D02*
X190900Y52200D01*
X190065Y54885D02*
X190500Y54450D01*
Y53393D02*
Y54450D01*
X190500Y52600D02*
Y53450D01*
X190810Y54850D02*
X191690D01*
X188100Y58315D02*
X188635D01*
X189000Y57950D01*
Y55535D02*
Y57950D01*
X188100Y54885D02*
X190065D01*
X187777Y58977D02*
Y59642D01*
X186850Y58050D02*
X187777Y58977D01*
X186850Y54250D02*
Y58050D01*
X192050Y52600D02*
Y53050D01*
X191650Y52200D02*
X192050Y52600D01*
X186850Y54250D02*
X188850Y52250D01*
Y48200D02*
Y52250D01*
X187750Y47100D02*
X188850Y48200D01*
X187225Y66015D02*
X187840Y65400D01*
X188411Y64095D02*
Y65400D01*
X187840D02*
X188411D01*
X183265Y65385D02*
X183600D01*
X182400Y66035D02*
X182615D01*
X183265Y65385D01*
X182400Y64950D02*
Y65365D01*
Y64950D02*
X182700Y64650D01*
X184230D01*
X184910Y65330D01*
X186350D01*
X186836Y64844D01*
Y64095D02*
Y64844D01*
X182350Y66900D02*
X183235Y66015D01*
X182450Y70215D02*
Y71700D01*
X183879Y62171D02*
X184869D01*
X181300Y64750D02*
X183879Y62171D01*
X179000Y64750D02*
X181300D01*
X188100Y59646D02*
Y61100D01*
X184869Y62185D02*
X187015D01*
X182990Y73685D02*
X183150Y73845D01*
X183650D01*
X180850Y74750D02*
X181915Y73685D01*
X182500Y71750D02*
Y73685D01*
Y74315D02*
Y75650D01*
X185150Y73845D02*
X186400D01*
X192330Y61870D02*
X192700Y61500D01*
X188411Y58789D02*
Y61100D01*
Y58789D02*
X188500Y58700D01*
X185300Y61870D02*
X186830D01*
X187000Y61700D01*
X189850Y62150D02*
X190130Y61870D01*
X178950Y74750D02*
X180850D01*
X178950Y66900D02*
X182350D01*
X183235Y66015D02*
X187225D01*
X181915Y73685D02*
X182990D01*
X143700Y48900D02*
X144100Y49300D01*
X142166Y48900D02*
X143700D01*
X141950Y48684D02*
X142166Y48900D01*
X141950Y47945D02*
Y48684D01*
Y45350D02*
X142600Y44700D01*
X141950Y45350D02*
Y46055D01*
X138000Y45600D02*
Y46300D01*
Y45600D02*
X138400Y45200D01*
X139300D01*
X139450Y45350D01*
Y46055D01*
X113590Y45350D02*
X114240Y44700D01*
X113590Y45350D02*
Y46055D01*
X109640Y45600D02*
Y46300D01*
Y45600D02*
X110040Y45200D01*
X110940D01*
X111090Y45350D01*
Y46055D01*
X139700Y49500D02*
Y50380D01*
Y49500D02*
X140450Y48750D01*
Y47945D02*
Y48750D01*
X135700Y49400D02*
Y50380D01*
Y49400D02*
X136000Y49100D01*
X136900D01*
X137500Y48500D01*
Y45400D02*
Y48500D01*
Y45400D02*
X138100Y44800D01*
X139700D01*
X139950Y45050D01*
Y46055D01*
X131700Y49500D02*
Y50380D01*
Y49500D02*
X132900Y48300D01*
X136100D01*
X136600Y47800D01*
Y45100D02*
Y47800D01*
Y45100D02*
X137700Y44000D01*
X140200D01*
X140950Y44750D01*
Y46055D01*
X143200Y47315D02*
Y48400D01*
X143000Y48600D02*
X143200Y48400D01*
X142600Y48600D02*
X143000D01*
X142450Y48450D02*
X142600Y48600D01*
X142450Y47350D02*
Y48450D01*
X142100Y47000D02*
X142450Y47350D01*
X139700Y47000D02*
X142100D01*
X139450Y47250D02*
X139700Y47000D01*
X139450Y47250D02*
Y47945D01*
X138950Y46055D02*
Y46950D01*
X138000Y47900D02*
X138950Y46950D01*
X115340Y48900D02*
X115740Y49300D01*
X113806Y48900D02*
X115340D01*
X113590Y48684D02*
X113806Y48900D01*
X113590Y47945D02*
Y48684D01*
X138950Y47945D02*
Y48760D01*
X138910Y48800D02*
X138950Y48760D01*
X103340Y49500D02*
Y50380D01*
Y49500D02*
X104540Y48300D01*
X107740D01*
X108240Y47800D01*
Y45100D02*
Y47800D01*
Y45100D02*
X109340Y44000D01*
X111840D01*
X112590Y44750D01*
Y46055D01*
X105340Y49231D02*
Y50380D01*
Y49231D02*
X105871Y48700D01*
X108140D01*
X108740Y48100D01*
Y45231D02*
Y48100D01*
Y45231D02*
X109571Y44400D01*
X111640D01*
X112090Y44850D01*
Y46055D01*
X107340Y49400D02*
Y50380D01*
Y49400D02*
X107640Y49100D01*
X108540D01*
X109140Y48500D01*
Y45400D02*
Y48500D01*
Y45400D02*
X109740Y44800D01*
X111340D01*
X111590Y45050D01*
Y46055D01*
X110590Y46055D02*
Y46950D01*
X109640Y47900D02*
X110590Y46950D01*
Y47945D02*
Y48760D01*
X110550Y48800D02*
X110590Y48760D01*
X111090Y47250D02*
Y47945D01*
Y47250D02*
X111340Y47000D01*
X113575D01*
X113744Y47004D02*
X114090Y47350D01*
Y48450D01*
X114240Y48600D01*
X114640D01*
X114840Y48400D01*
Y47315D02*
Y48400D01*
X113090Y47945D02*
Y48750D01*
X113640Y49300D01*
X114840D01*
X115340Y49800D01*
Y50380D01*
X112590Y47945D02*
Y48950D01*
X113340Y49700D01*
Y50380D01*
X112090Y47945D02*
Y48750D01*
X111340Y49500D02*
X112090Y48750D01*
X111340Y49500D02*
Y50380D01*
X129700Y49500D02*
Y50380D01*
Y49500D02*
X131300Y47900D01*
X135700D01*
X136100Y47500D01*
Y45000D02*
Y47500D01*
Y45000D02*
X137500Y43600D01*
X140400D01*
X141450Y44650D01*
Y46055D01*
X137700Y49800D02*
Y50380D01*
Y49800D02*
X138200Y49300D01*
X139300D01*
X139950Y48650D01*
Y47945D02*
Y48650D01*
X141700Y49700D02*
Y50380D01*
X140950Y48950D02*
X141700Y49700D01*
X140950Y47945D02*
Y48950D01*
X133700Y49231D02*
Y50380D01*
Y49231D02*
X134231Y48700D01*
X136500D01*
X137100Y48100D01*
Y45231D02*
Y48100D01*
Y45231D02*
X137931Y44400D01*
X140000D01*
X140450Y44850D01*
Y46055D01*
X143700Y49800D02*
Y50380D01*
X143200Y49300D02*
X143700Y49800D01*
X142000Y49300D02*
X143200D01*
X141450Y48750D02*
X142000Y49300D01*
X141450Y47945D02*
Y48750D01*
X198700Y78250D02*
X199350Y77600D01*
X197200Y78250D02*
X198700D01*
X195800Y79650D02*
X197200Y78250D01*
X109340Y49800D02*
Y50380D01*
Y49800D02*
X109840Y49300D01*
X110940D01*
X111590Y48650D01*
Y47945D02*
Y48650D01*
X101340Y49500D02*
Y50380D01*
Y49500D02*
X102940Y47900D01*
X107340D01*
X107740Y47500D01*
Y45000D02*
Y47500D01*
Y45000D02*
X109140Y43600D01*
X112040D01*
X113090Y44650D01*
Y46055D01*
X194500Y54500D02*
X195000Y55000D01*
X193500Y54500D02*
X194000Y55000D01*
X190125Y55535D02*
X190810Y54850D01*
X189000Y55535D02*
X190125D01*
X191690Y54850D02*
X192375Y55535D01*
X193500D01*
X194750Y53750D02*
X196350Y55350D01*
X195870Y57130D02*
X196840D01*
X197200Y56770D01*
X196350Y55350D02*
X196600D01*
X197200Y55950D02*
Y56770D01*
X196600Y55350D02*
X197200Y55950D01*
X82250Y46055D02*
Y46950D01*
X81300Y47900D02*
X82250Y46950D01*
D30*
X158860Y97420D02*
X160120D01*
X161100Y96440D01*
X162400D01*
Y97440D02*
X163660D01*
X164640Y96460D01*
X165940D01*
Y97420D02*
X167200D01*
X168180Y96440D01*
X169480D01*
X169500Y97420D02*
X170760D01*
X171740Y96440D01*
X156960Y93060D02*
Y94460D01*
Y93060D02*
X157120Y92900D01*
Y91520D02*
Y92900D01*
X157280Y87580D02*
Y88960D01*
X157120Y89120D02*
X157280Y88960D01*
X157120Y89120D02*
Y90520D01*
X157440Y83640D02*
Y85020D01*
X157280Y85180D02*
X157440Y85020D01*
X157280Y85180D02*
Y86580D01*
X157600Y79700D02*
Y81080D01*
X157440Y81240D02*
X157600Y81080D01*
X157440Y81240D02*
Y82640D01*
X158240Y61560D02*
Y62960D01*
Y61560D02*
X158400Y61400D01*
Y60020D02*
Y61400D01*
X158080Y65500D02*
Y66900D01*
Y65500D02*
X158240Y65340D01*
Y63960D02*
Y65340D01*
X157920Y69440D02*
Y70840D01*
Y69440D02*
X158080Y69280D01*
Y67900D02*
Y69280D01*
X157920Y71840D02*
Y73220D01*
X157760Y73380D02*
X157920Y73220D01*
X157760Y73380D02*
Y74780D01*
X175560Y81220D02*
Y82620D01*
Y81220D02*
X175720Y81060D01*
Y79680D02*
Y81060D01*
X175400Y85160D02*
Y86560D01*
Y85160D02*
X175560Y85000D01*
Y83620D02*
Y85000D01*
X175240Y89100D02*
Y90500D01*
Y89100D02*
X175400Y88940D01*
Y87560D02*
Y88940D01*
X175240Y91500D02*
Y92880D01*
X175080Y93040D02*
X175240Y92880D01*
X175080Y93040D02*
Y94440D01*
X158860Y78920D02*
Y96420D01*
X157940Y78000D02*
X158860Y78920D01*
X157140Y78000D02*
X157940D01*
X156240Y77100D02*
X157140Y78000D01*
X171740Y96440D02*
X173040D01*
X157760Y75780D02*
Y77020D01*
X159740Y79000D01*
X175860Y75780D02*
Y76980D01*
X175540Y77300D02*
X175860Y76980D01*
X174600Y77300D02*
X175540D01*
X156540Y78700D02*
X157600D01*
X155440Y77600D02*
X156540Y78700D01*
X175700Y78140D02*
Y78700D01*
Y78140D02*
X177940Y75900D01*
Y57740D02*
Y75900D01*
X158400Y56640D02*
Y59020D01*
X156240Y57920D02*
Y77100D01*
X155440Y57620D02*
Y77600D01*
X175860Y73380D02*
Y74780D01*
Y73380D02*
X176020Y73220D01*
Y71840D02*
Y73220D01*
X176180Y67900D02*
Y69280D01*
X176020Y69440D02*
X176180Y69280D01*
X176020Y69440D02*
Y70840D01*
X176340Y63960D02*
Y65340D01*
X176180Y65500D02*
X176340Y65340D01*
X176180Y65500D02*
Y66900D01*
X176500Y60020D02*
Y61400D01*
X176340Y61560D02*
X176500Y61400D01*
X176340Y61560D02*
Y62960D01*
X172520Y76760D02*
X173820D01*
X171540Y77740D02*
X172520Y76760D01*
X170280Y77740D02*
X171540D01*
X168960Y76760D02*
X170260D01*
X167980Y77740D02*
X168960Y76760D01*
X166720Y77740D02*
X167980D01*
X165420Y76780D02*
X166720D01*
X164440Y77760D02*
X165420Y76780D01*
X163180Y77760D02*
X164440D01*
X161880Y76760D02*
X163180D01*
X160900Y77740D02*
X161880Y76760D01*
X159640Y77740D02*
X160900D01*
X173320Y57080D02*
X174620D01*
X172340Y58060D02*
X173320Y57080D01*
X171080Y58060D02*
X172340D01*
X169760Y57080D02*
X171060D01*
X168780Y58060D02*
X169760Y57080D01*
X167520Y58060D02*
X168780D01*
X166220Y57100D02*
X167520D01*
X165240Y58080D02*
X166220Y57100D01*
X163980Y58080D02*
X165240D01*
X162680Y57080D02*
X163980D01*
X161700Y58060D02*
X162680Y57080D01*
X160440Y58060D02*
X161700D01*
X159640Y59100D02*
Y76740D01*
X159240Y58700D02*
X159640Y59100D01*
X159240Y56650D02*
Y58700D01*
X160440Y56200D02*
Y57060D01*
X176500Y57360D02*
Y59020D01*
X152560Y55980D02*
Y57060D01*
X175240Y56100D02*
X176500Y57360D01*
X171040Y56100D02*
X175240D01*
X170040Y55100D02*
X171040Y56100D01*
X170040Y52820D02*
Y55100D01*
X175700Y55500D02*
X177940Y57740D01*
X172940Y55500D02*
X175700D01*
X172040Y54600D02*
X172940Y55500D01*
X172040Y52820D02*
Y54600D01*
X160440Y56200D02*
X160740Y55900D01*
X166940D01*
X168040Y54800D01*
Y52820D02*
Y54800D01*
X159240Y56650D02*
X160490Y55400D01*
X165140D01*
X166040Y54500D01*
Y52820D02*
Y54500D01*
X158400Y56640D02*
X160240Y54800D01*
X163540D01*
X164040Y54300D01*
Y52820D02*
Y54300D01*
X156240Y57920D02*
X159860Y54300D01*
X161440D01*
X162040Y53700D01*
Y52820D02*
Y53700D01*
X155440Y57620D02*
X159260Y53800D01*
X160040Y52820D02*
Y53600D01*
X159260Y53800D02*
X159840D01*
X160040Y53600D01*
X152560Y55980D02*
X154440Y54100D01*
X157530D01*
X158040Y53590D01*
Y52820D02*
Y53590D01*
X152560Y58060D02*
Y59640D01*
X156960Y95460D02*
Y96480D01*
X173040Y97400D02*
X173840D01*
X174600Y58060D02*
Y59860D01*
X173820Y77740D02*
Y79540D01*
Y78280D02*
X174620D01*
X88780D02*
X89580D01*
X88780Y77740D02*
Y79540D01*
X89560Y58060D02*
Y59860D01*
X71920Y99020D02*
X72200Y99300D01*
X88000Y97400D02*
X88800D01*
X90040Y95440D02*
Y96700D01*
X71920Y95460D02*
Y96480D01*
X67520Y58060D02*
Y59640D01*
X89500Y54500D02*
X91000D01*
X88500Y53500D02*
X89500Y54500D01*
X88500Y49500D02*
Y53500D01*
X87500Y48500D02*
X88500Y49500D01*
X87500Y47600D02*
Y48500D01*
X87215Y47315D02*
X87500Y47600D01*
X86500Y47315D02*
X87215D01*
X73000Y52820D02*
Y53590D01*
X72490Y54100D02*
X73000Y53590D01*
X69400Y54100D02*
X72490D01*
X67520Y55980D02*
X69400Y54100D01*
X74800Y53800D02*
X75000Y53600D01*
X74220Y53800D02*
X74800D01*
X75000Y52820D02*
Y53600D01*
X70400Y57620D02*
X74220Y53800D01*
X77000Y52820D02*
Y53700D01*
X76400Y54300D02*
X77000Y53700D01*
X74820Y54300D02*
X76400D01*
X71200Y57920D02*
X74820Y54300D01*
X79000Y52820D02*
Y54300D01*
X78500Y54800D02*
X79000Y54300D01*
X75200Y54800D02*
X78500D01*
X73360Y56640D02*
X75200Y54800D01*
X81000Y52820D02*
Y54500D01*
X80100Y55400D02*
X81000Y54500D01*
X75450Y55400D02*
X80100D01*
X74200Y56650D02*
X75450Y55400D01*
X83000Y52820D02*
Y54800D01*
X81900Y55900D02*
X83000Y54800D01*
X75700Y55900D02*
X81900D01*
X75400Y56200D02*
X75700Y55900D01*
X87000Y52820D02*
Y54600D01*
X87900Y55500D01*
X90400D01*
X92900Y58000D01*
X85000Y52820D02*
Y55100D01*
X86000Y56100D01*
X90200D01*
X91460Y57360D01*
X67520Y55980D02*
Y57060D01*
X91460Y57360D02*
Y59020D01*
X75400Y56200D02*
Y57060D01*
X74200Y56650D02*
Y58700D01*
X74600Y59100D01*
Y76740D01*
X75400Y58060D02*
X76660D01*
X77640Y57080D01*
X78940D01*
Y58080D02*
X80200D01*
X81180Y57100D01*
X82480D01*
Y58060D02*
X83740D01*
X84720Y57080D01*
X86020D01*
X86040Y58060D02*
X87300D01*
X88280Y57080D01*
X89580D01*
X74600Y77740D02*
X75860D01*
X76840Y76760D01*
X78140D01*
Y77760D02*
X79400D01*
X80380Y76780D01*
X81680D01*
Y77740D02*
X82940D01*
X83920Y76760D01*
X85220D01*
X85240Y77740D02*
X86500D01*
X87480Y76760D01*
X88780D01*
X91300Y61560D02*
Y62960D01*
Y61560D02*
X91460Y61400D01*
Y60020D02*
Y61400D01*
X91140Y65500D02*
Y66900D01*
Y65500D02*
X91300Y65340D01*
Y63960D02*
Y65340D01*
X90980Y69440D02*
Y70840D01*
Y69440D02*
X91140Y69280D01*
Y67900D02*
Y69280D01*
X90980Y71840D02*
Y73220D01*
X90820Y73380D02*
X90980Y73220D01*
X90820Y73380D02*
Y74780D01*
X70400Y57620D02*
Y77600D01*
X71200Y57920D02*
Y77100D01*
X73360Y56640D02*
Y59020D01*
X92900Y58000D02*
Y75900D01*
X90660Y78140D02*
X92900Y75900D01*
X90660Y78140D02*
Y78700D01*
X70400Y77600D02*
X71500Y78700D01*
X72560D01*
X89560Y77300D02*
X90500D01*
X90820Y76980D01*
Y75780D02*
Y76980D01*
X72720Y77020D02*
X74700Y79000D01*
X72720Y75780D02*
Y77020D01*
X86700Y96440D02*
X88000D01*
X71200Y77100D02*
X72100Y78000D01*
X72900D01*
X73820Y78920D01*
Y96420D01*
X90040Y93040D02*
Y94440D01*
Y93040D02*
X90200Y92880D01*
Y91500D02*
Y92880D01*
X90360Y87560D02*
Y88940D01*
X90200Y89100D02*
X90360Y88940D01*
X90200Y89100D02*
Y90500D01*
X90520Y83620D02*
Y85000D01*
X90360Y85160D02*
X90520Y85000D01*
X90360Y85160D02*
Y86560D01*
X90680Y79680D02*
Y81060D01*
X90520Y81220D02*
X90680Y81060D01*
X90520Y81220D02*
Y82620D01*
X72720Y73380D02*
Y74780D01*
Y73380D02*
X72880Y73220D01*
Y71840D02*
Y73220D01*
X73040Y67900D02*
Y69280D01*
X72880Y69440D02*
X73040Y69280D01*
X72880Y69440D02*
Y70840D01*
X73200Y63960D02*
Y65340D01*
X73040Y65500D02*
X73200Y65340D01*
X73040Y65500D02*
Y66900D01*
X73360Y60020D02*
Y61400D01*
X73200Y61560D02*
X73360Y61400D01*
X73200Y61560D02*
Y62960D01*
X72400Y81240D02*
Y82640D01*
Y81240D02*
X72560Y81080D01*
Y79700D02*
Y81080D01*
X72240Y85180D02*
Y86580D01*
Y85180D02*
X72400Y85020D01*
Y83640D02*
Y85020D01*
X72080Y89120D02*
Y90520D01*
Y89120D02*
X72240Y88960D01*
Y87580D02*
Y88960D01*
X72080Y91520D02*
Y92900D01*
X71920Y93060D02*
X72080Y92900D01*
X71920Y93060D02*
Y94460D01*
X85720Y97420D02*
X86700Y96440D01*
X84460Y97420D02*
X85720D01*
X83140Y96440D02*
X84440D01*
X82160Y97420D02*
X83140Y96440D01*
X80900Y97420D02*
X82160D01*
X79600Y96460D02*
X80900D01*
X78620Y97440D02*
X79600Y96460D01*
X77360Y97440D02*
X78620D01*
X76060Y96440D02*
X77360D01*
X75080Y97420D02*
X76060Y96440D01*
X73820Y97420D02*
X75080D01*
X158860Y97410D02*
Y97420D01*
X171540Y47315D02*
X172255D01*
X172540Y47600D01*
Y48500D01*
X173540Y49500D01*
Y53500D01*
X174540Y54500D01*
X176040D01*
X156960Y99020D02*
X157240Y99300D01*
X175080Y95440D02*
Y96700D01*
X193300Y75750D02*
X194050D01*
X193350Y74550D02*
X194300D01*
X146740Y95440D02*
Y96700D01*
X128620Y99020D02*
X128900Y99300D01*
X130520Y97410D02*
Y97420D01*
X145480Y78280D02*
X146280D01*
X145480Y77740D02*
Y79540D01*
X146260Y58060D02*
Y59860D01*
X144700Y97400D02*
X145500D01*
X128620Y95460D02*
Y96480D01*
X124220Y58060D02*
Y59640D01*
X129700Y52820D02*
Y53590D01*
X129190Y54100D02*
X129700Y53590D01*
X126100Y54100D02*
X129190D01*
X124220Y55980D02*
X126100Y54100D01*
X131500Y53800D02*
X131700Y53600D01*
X130920Y53800D02*
X131500D01*
X131700Y52820D02*
Y53600D01*
X127100Y57620D02*
X130920Y53800D01*
X133700Y52820D02*
Y53700D01*
X133100Y54300D02*
X133700Y53700D01*
X131520Y54300D02*
X133100D01*
X127900Y57920D02*
X131520Y54300D01*
X135700Y52820D02*
Y54300D01*
X135200Y54800D02*
X135700Y54300D01*
X131900Y54800D02*
X135200D01*
X130060Y56640D02*
X131900Y54800D01*
X137700Y52820D02*
Y54500D01*
X136800Y55400D02*
X137700Y54500D01*
X132150Y55400D02*
X136800D01*
X130900Y56650D02*
X132150Y55400D01*
X139700Y52820D02*
Y54800D01*
X138600Y55900D02*
X139700Y54800D01*
X132400Y55900D02*
X138600D01*
X132100Y56200D02*
X132400Y55900D01*
X143700Y52820D02*
Y54600D01*
X144600Y55500D01*
X147360D01*
X149600Y57740D01*
X141700Y52820D02*
Y55100D01*
X142700Y56100D01*
X146900D01*
X148160Y57360D01*
X124220Y55980D02*
Y57060D01*
X148160Y57360D02*
Y59020D01*
X132100Y56200D02*
Y57060D01*
X130900Y56650D02*
Y58700D01*
X131300Y59100D01*
Y76740D01*
X132100Y58060D02*
X133360D01*
X134340Y57080D01*
X135640D01*
Y58080D02*
X136900D01*
X137880Y57100D01*
X139180D01*
Y58060D02*
X140440D01*
X141420Y57080D01*
X142720D01*
X142740Y58060D02*
X144000D01*
X144980Y57080D01*
X146280D01*
X131300Y77740D02*
X132560D01*
X133540Y76760D01*
X134840D01*
Y77760D02*
X136100D01*
X137080Y76780D01*
X138380D01*
Y77740D02*
X139640D01*
X140620Y76760D01*
X141920D01*
X141940Y77740D02*
X143200D01*
X144180Y76760D01*
X145480D01*
X148000Y61560D02*
Y62960D01*
Y61560D02*
X148160Y61400D01*
Y60020D02*
Y61400D01*
X147840Y65500D02*
Y66900D01*
Y65500D02*
X148000Y65340D01*
Y63960D02*
Y65340D01*
X147680Y69440D02*
Y70840D01*
Y69440D02*
X147840Y69280D01*
Y67900D02*
Y69280D01*
X147680Y71840D02*
Y73220D01*
X147520Y73380D02*
X147680Y73220D01*
X147520Y73380D02*
Y74780D01*
X127100Y57620D02*
Y77600D01*
X127900Y57920D02*
Y77100D01*
X130060Y56640D02*
Y59020D01*
X149600Y57740D02*
Y75900D01*
X147360Y78140D02*
X149600Y75900D01*
X147360Y78140D02*
Y78700D01*
X127100Y77600D02*
X128200Y78700D01*
X129260D01*
X146260Y77300D02*
X147200D01*
X147520Y76980D01*
Y75780D02*
Y76980D01*
X129420Y77020D02*
X131400Y79000D01*
X129420Y75780D02*
Y77020D01*
X143400Y96440D02*
X144700D01*
X127900Y77100D02*
X128800Y78000D01*
X129600D01*
X130520Y78920D01*
Y96420D01*
X146740Y93040D02*
Y94440D01*
Y93040D02*
X146900Y92880D01*
Y91500D02*
Y92880D01*
X147060Y87560D02*
Y88940D01*
X146900Y89100D02*
X147060Y88940D01*
X146900Y89100D02*
Y90500D01*
X147220Y83620D02*
Y85000D01*
X147060Y85160D02*
X147220Y85000D01*
X147060Y85160D02*
Y86560D01*
X147380Y79680D02*
Y81060D01*
X147220Y81220D02*
X147380Y81060D01*
X147220Y81220D02*
Y82620D01*
X129420Y73380D02*
Y74780D01*
Y73380D02*
X129580Y73220D01*
Y71840D02*
Y73220D01*
X129740Y67900D02*
Y69280D01*
X129580Y69440D02*
X129740Y69280D01*
X129580Y69440D02*
Y70840D01*
X129900Y63960D02*
Y65340D01*
X129740Y65500D02*
X129900Y65340D01*
X129740Y65500D02*
Y66900D01*
X130060Y60020D02*
Y61400D01*
X129900Y61560D02*
X130060Y61400D01*
X129900Y61560D02*
Y62960D01*
X129100Y81240D02*
Y82640D01*
Y81240D02*
X129260Y81080D01*
Y79700D02*
Y81080D01*
X128940Y85180D02*
Y86580D01*
Y85180D02*
X129100Y85020D01*
Y83640D02*
Y85020D01*
X128780Y89120D02*
Y90520D01*
Y89120D02*
X128940Y88960D01*
Y87580D02*
Y88960D01*
X128780Y91520D02*
Y92900D01*
X128620Y93060D02*
X128780Y92900D01*
X128620Y93060D02*
Y94460D01*
X142420Y97420D02*
X143400Y96440D01*
X141160Y97420D02*
X142420D01*
X139840Y96440D02*
X141140D01*
X138860Y97420D02*
X139840Y96440D01*
X137600Y97420D02*
X138860D01*
X136300Y96460D02*
X137600D01*
X135320Y97440D02*
X136300Y96460D01*
X134060Y97440D02*
X135320D01*
X132760Y96440D02*
X134060D01*
X131780Y97420D02*
X132760Y96440D01*
X130520Y97420D02*
X131780D01*
X118380Y95440D02*
Y96700D01*
X100260Y99020D02*
X100540Y99300D01*
X102160Y97410D02*
Y97420D01*
X117120Y78280D02*
X117920D01*
X117120Y77740D02*
Y79540D01*
X117900Y58060D02*
Y59860D01*
X116340Y97400D02*
X117140D01*
X100260Y95460D02*
Y96480D01*
X95860Y58060D02*
Y59640D01*
X101340Y52820D02*
Y53590D01*
X100830Y54100D02*
X101340Y53590D01*
X97740Y54100D02*
X100830D01*
X95860Y55980D02*
X97740Y54100D01*
X103140Y53800D02*
X103340Y53600D01*
X102560Y53800D02*
X103140D01*
X103340Y52820D02*
Y53600D01*
X98740Y57620D02*
X102560Y53800D01*
X105340Y52820D02*
Y53700D01*
X104740Y54300D02*
X105340Y53700D01*
X103160Y54300D02*
X104740D01*
X99540Y57920D02*
X103160Y54300D01*
X107340Y52820D02*
Y54300D01*
X106840Y54800D02*
X107340Y54300D01*
X103540Y54800D02*
X106840D01*
X101700Y56640D02*
X103540Y54800D01*
X109340Y52820D02*
Y54500D01*
X108440Y55400D02*
X109340Y54500D01*
X103790Y55400D02*
X108440D01*
X102540Y56650D02*
X103790Y55400D01*
X111340Y52820D02*
Y54800D01*
X110240Y55900D02*
X111340Y54800D01*
X104040Y55900D02*
X110240D01*
X103740Y56200D02*
X104040Y55900D01*
X115340Y52820D02*
Y54600D01*
X116240Y55500D01*
X119000D01*
X121240Y57740D01*
X113340Y52820D02*
Y55100D01*
X114340Y56100D01*
X118540D01*
X119800Y57360D01*
X95860Y55980D02*
Y57060D01*
X119800Y57360D02*
Y59020D01*
X103740Y56200D02*
Y57060D01*
X102540Y56650D02*
Y58700D01*
X102940Y59100D01*
Y76740D01*
X103740Y58060D02*
X105000D01*
X105980Y57080D01*
X107280D01*
Y58080D02*
X108540D01*
X109520Y57100D01*
X110820D01*
Y58060D02*
X112080D01*
X113060Y57080D01*
X114360D01*
X114380Y58060D02*
X115640D01*
X116620Y57080D01*
X117920D01*
X102940Y77740D02*
X104200D01*
X105180Y76760D01*
X106480D01*
Y77760D02*
X107740D01*
X108720Y76780D01*
X110020D01*
Y77740D02*
X111280D01*
X112260Y76760D01*
X113560D01*
X113580Y77740D02*
X114840D01*
X115820Y76760D01*
X117120D01*
X119640Y61560D02*
Y62960D01*
Y61560D02*
X119800Y61400D01*
Y60020D02*
Y61400D01*
X119480Y65500D02*
Y66900D01*
Y65500D02*
X119640Y65340D01*
Y63960D02*
Y65340D01*
X119320Y69440D02*
Y70840D01*
Y69440D02*
X119480Y69280D01*
Y67900D02*
Y69280D01*
X119320Y71840D02*
Y73220D01*
X119160Y73380D02*
X119320Y73220D01*
X119160Y73380D02*
Y74780D01*
X98740Y57620D02*
Y77600D01*
X99540Y57920D02*
Y77100D01*
X101700Y56640D02*
Y59020D01*
X121240Y57740D02*
Y75900D01*
X119000Y78140D02*
X121240Y75900D01*
X119000Y78140D02*
Y78700D01*
X98740Y77600D02*
X99840Y78700D01*
X100900D01*
X117900Y77300D02*
X118840D01*
X119160Y76980D01*
Y75780D02*
Y76980D01*
X101060Y77020D02*
X103040Y79000D01*
X101060Y75780D02*
Y77020D01*
X115040Y96440D02*
X116340D01*
X99540Y77100D02*
X100440Y78000D01*
X101240D01*
X102160Y78920D01*
Y96420D01*
X118380Y93040D02*
Y94440D01*
Y93040D02*
X118540Y92880D01*
Y91500D02*
Y92880D01*
X118700Y87560D02*
Y88940D01*
X118540Y89100D02*
X118700Y88940D01*
X118540Y89100D02*
Y90500D01*
X118860Y83620D02*
Y85000D01*
X118700Y85160D02*
X118860Y85000D01*
X118700Y85160D02*
Y86560D01*
X119020Y79680D02*
Y81060D01*
X118860Y81220D02*
X119020Y81060D01*
X118860Y81220D02*
Y82620D01*
X101060Y73380D02*
Y74780D01*
Y73380D02*
X101220Y73220D01*
Y71840D02*
Y73220D01*
X101380Y67900D02*
Y69280D01*
X101220Y69440D02*
X101380Y69280D01*
X101220Y69440D02*
Y70840D01*
X101540Y63960D02*
Y65340D01*
X101380Y65500D02*
X101540Y65340D01*
X101380Y65500D02*
Y66900D01*
X101700Y60020D02*
Y61400D01*
X101540Y61560D02*
X101700Y61400D01*
X101540Y61560D02*
Y62960D01*
X100740Y81240D02*
Y82640D01*
Y81240D02*
X100900Y81080D01*
Y79700D02*
Y81080D01*
X100580Y85180D02*
Y86580D01*
Y85180D02*
X100740Y85020D01*
Y83640D02*
Y85020D01*
X100420Y89120D02*
Y90520D01*
Y89120D02*
X100580Y88960D01*
Y87580D02*
Y88960D01*
X100420Y91520D02*
Y92900D01*
X100260Y93060D02*
X100420Y92900D01*
X100260Y93060D02*
Y94460D01*
X114060Y97420D02*
X115040Y96440D01*
X112800Y97420D02*
X114060D01*
X111480Y96440D02*
X112780D01*
X110500Y97420D02*
X111480Y96440D01*
X109240Y97420D02*
X110500D01*
X107940Y96460D02*
X109240D01*
X106960Y97440D02*
X107940Y96460D01*
X105700Y97440D02*
X106960D01*
X104400Y96440D02*
X105700D01*
X103420Y97420D02*
X104400Y96440D01*
X102160Y97420D02*
X103420D01*
X143200Y47315D02*
X143915D01*
X144200Y47600D01*
Y48500D01*
X145200Y49500D01*
Y53500D01*
X146200Y54500D01*
X147700D01*
X114840Y47315D02*
X115555D01*
X115840Y47600D01*
Y48500D01*
X116840Y49500D01*
Y53500D01*
X117840Y54500D01*
X119340D01*
D31*
X174600Y59560D02*
Y78240D01*
X152640Y64000D02*
Y66720D01*
Y64000D02*
X153360Y63280D01*
X152560Y59640D02*
X153360Y60440D01*
Y63280D01*
X152720Y72140D02*
Y74860D01*
Y72140D02*
X153440Y71420D01*
X152640Y66720D02*
X153440Y67520D01*
Y71420D01*
X152800Y80280D02*
Y83000D01*
Y80280D02*
X153520Y79560D01*
X152720Y74860D02*
X153520Y75660D01*
Y79560D01*
X152880Y88420D02*
Y91140D01*
Y88420D02*
X153600Y87700D01*
X152800Y83000D02*
X153600Y83800D01*
Y87700D01*
X153680Y91940D02*
Y95840D01*
X152880Y91140D02*
X153680Y91940D01*
X152960Y96560D02*
X153680Y95840D01*
X152960Y96560D02*
Y99280D01*
X156960Y96460D02*
Y99020D01*
X173820Y97400D02*
X175060D01*
X159740Y79000D02*
X173820D01*
Y79040D02*
Y97400D01*
X90040Y96700D02*
Y99300D01*
X88780Y79040D02*
Y97400D01*
X74700Y79000D02*
X88780D01*
Y97400D02*
X90020D01*
X71920Y96460D02*
Y99020D01*
X67920Y96560D02*
Y98420D01*
Y96560D02*
X68640Y95840D01*
X67840Y91140D02*
X68640Y91940D01*
Y95840D01*
X68560Y83800D02*
Y87700D01*
X67760Y83000D02*
X68560Y83800D01*
X67840Y88420D02*
X68560Y87700D01*
X67840Y88420D02*
Y91140D01*
X68480Y75660D02*
Y79560D01*
X67680Y74860D02*
X68480Y75660D01*
X67760Y80280D02*
X68480Y79560D01*
X67760Y80280D02*
Y83000D01*
X68400Y67520D02*
Y71420D01*
X67600Y66720D02*
X68400Y67520D01*
X67680Y72140D02*
X68400Y71420D01*
X67680Y72140D02*
Y74860D01*
X68320Y60440D02*
Y63280D01*
X67520Y59640D02*
X68320Y60440D01*
X67600Y64000D02*
X68320Y63280D01*
X67600Y64000D02*
Y66720D01*
X93900Y57400D02*
Y97250D01*
X91000Y54500D02*
X93900Y57400D01*
X89560Y59560D02*
Y78240D01*
X176040Y54500D02*
X178950Y57410D01*
X195050Y78850D02*
Y84250D01*
X196084Y85284D01*
X198600Y85133D02*
Y86200D01*
X197900Y86900D02*
X198600Y86200D01*
X196600Y86900D02*
X197900D01*
X195000Y85300D02*
X196600Y86900D01*
X193950Y85300D02*
X195000D01*
X193526Y85724D02*
X193950Y85300D01*
X188100Y88652D02*
Y89350D01*
X188450Y89700D01*
X189700D01*
X190100Y89300D01*
Y87950D02*
X190365Y87685D01*
X191885D01*
X192474Y88274D01*
X190100Y87950D02*
Y89300D01*
X185506Y94094D02*
X187098D01*
X185011Y93600D02*
X185506Y94094D01*
X184500Y93600D02*
X185011D01*
X184500Y92950D02*
Y93600D01*
Y92950D02*
X184900Y92550D01*
X185350D01*
X185550Y92350D01*
X185600Y88050D02*
Y88600D01*
Y88050D02*
X186050Y87600D01*
X189250D02*
X190050Y86800D01*
X185550Y88650D02*
Y92350D01*
X186050Y87600D02*
X189250D01*
X192474Y88681D02*
Y89624D01*
X193450Y90600D01*
Y93200D01*
X193050Y93600D02*
X193450Y93200D01*
X175080Y96700D02*
Y99300D01*
X192500Y93600D02*
X193050D01*
X192500Y93650D02*
Y97850D01*
X188900Y99100D02*
X188902Y94094D01*
X187100Y94200D02*
Y96400D01*
X185700Y97800D02*
X187100Y96400D01*
X179800Y97800D02*
X185700D01*
X178950Y57410D02*
Y96950D01*
X179800Y97800D01*
X146740Y96700D02*
Y99300D01*
X145480Y79040D02*
Y97400D01*
X131400Y79000D02*
X145480D01*
Y97400D02*
X146720D01*
X128620Y96460D02*
Y99020D01*
X124620Y96560D02*
Y99280D01*
Y96560D02*
X125340Y95840D01*
X124540Y91140D02*
X125340Y91940D01*
Y95840D01*
X125260Y83800D02*
Y87700D01*
X124460Y83000D02*
X125260Y83800D01*
X124540Y88420D02*
X125260Y87700D01*
X124540Y88420D02*
Y91140D01*
X125180Y75660D02*
Y79560D01*
X124380Y74860D02*
X125180Y75660D01*
X124460Y80280D02*
X125180Y79560D01*
X124460Y80280D02*
Y83000D01*
X125100Y67520D02*
Y71420D01*
X124300Y66720D02*
X125100Y67520D01*
X124380Y72140D02*
X125100Y71420D01*
X124380Y72140D02*
Y74860D01*
X125020Y60440D02*
Y63280D01*
X124220Y59640D02*
X125020Y60440D01*
X124300Y64000D02*
X125020Y63280D01*
X124300Y64000D02*
Y66720D01*
X146260Y59560D02*
Y78240D01*
X118380Y96700D02*
Y99300D01*
X117120Y79040D02*
Y97400D01*
X103040Y79000D02*
X117120D01*
Y97400D02*
X118360D01*
X100260Y96460D02*
Y99020D01*
X96260Y96560D02*
Y99280D01*
Y96560D02*
X96980Y95840D01*
X96180Y91140D02*
X96980Y91940D01*
Y95840D01*
X96900Y83800D02*
Y87700D01*
X96100Y83000D02*
X96900Y83800D01*
X96180Y88420D02*
X96900Y87700D01*
X96180Y88420D02*
Y91140D01*
X96820Y75660D02*
Y79560D01*
X96020Y74860D02*
X96820Y75660D01*
X96100Y80280D02*
X96820Y79560D01*
X96100Y80280D02*
Y83000D01*
X96740Y67520D02*
Y71420D01*
X95940Y66720D02*
X96740Y67520D01*
X96020Y72140D02*
X96740Y71420D01*
X96020Y72140D02*
Y74860D01*
X96660Y60440D02*
Y63280D01*
X95860Y59640D02*
X96660Y60440D01*
X95940Y64000D02*
X96660Y63280D01*
X95940Y64000D02*
Y66720D01*
X117900Y59560D02*
Y78240D01*
X68800Y99300D02*
X191050D01*
X192500Y97850D01*
X147700Y54500D02*
X150610Y57410D01*
Y96950D01*
X119340Y54500D02*
X122250Y57410D01*
Y96950D01*
X67920Y98420D02*
X68800Y99300D01*
X193526Y85724D02*
Y86319D01*
X192474Y86824D02*
X193450Y87800D01*
X192474Y86319D02*
Y86824D01*
X199200Y73150D02*
X201050Y75000D01*
X198350Y79900D02*
X201350D01*
X197250Y81000D02*
X198350Y79900D01*
X201050Y75000D02*
X201750D01*
X201350Y79900D02*
X202600Y78650D01*
Y75850D02*
Y78650D01*
X201750Y75000D02*
X202600Y75850D01*
X198734Y81784D02*
X199650Y82700D01*
Y87000D01*
X198150Y88500D02*
X199650Y87000D01*
X195350Y88500D02*
X198150D01*
X194650Y87800D02*
X195350Y88500D01*
X193450Y87800D02*
X194650D01*
X197250Y73650D02*
X197750Y73150D01*
X197250Y76650D02*
X197750D01*
X198225Y76175D01*
X197250Y85284D02*
X197284Y85250D01*
X197750Y85284D02*
X198250Y84784D01*
X195050Y78850D02*
X197250Y76650D01*
X196084Y85284D02*
X197750D01*
X198250Y84784D02*
X198600Y85133D01*
X197250Y82150D02*
X197616Y81784D01*
X197750Y73150D02*
X199200D01*
X197250Y81000D02*
Y82284D01*
X197616Y81784D02*
X198734D01*
D32*
X192150Y75150D02*
X192817D01*
X192000Y75000D02*
X192150Y75150D01*
D33*
X196350Y74650D02*
X197229D01*
X193526Y75524D02*
X196224D01*
X196350Y75650D01*
X197250D01*
X196224Y74776D02*
X196350Y74650D01*
X193526Y74776D02*
X196224D01*
D34*
X165940Y91000D02*
D03*
Y64800D02*
D03*
X80900D02*
D03*
Y91000D02*
D03*
X137600Y64800D02*
D03*
Y91000D02*
D03*
X109240Y64800D02*
D03*
Y91000D02*
D03*
D35*
X130520Y96420D02*
D03*
Y97420D02*
D03*
X147360Y78700D02*
D03*
Y79700D02*
D03*
X129260Y78720D02*
D03*
Y79720D02*
D03*
X130040Y59020D02*
D03*
Y60020D02*
D03*
X148140Y59040D02*
D03*
Y60040D02*
D03*
X132080Y57060D02*
D03*
Y58060D02*
D03*
X102160Y96420D02*
D03*
Y97420D02*
D03*
X100900Y78720D02*
D03*
Y79720D02*
D03*
X101700Y59040D02*
D03*
Y60040D02*
D03*
X134040Y96420D02*
D03*
Y97420D02*
D03*
X147200Y82660D02*
D03*
Y83660D02*
D03*
X129880Y62960D02*
D03*
Y63960D02*
D03*
X148000Y62960D02*
D03*
Y63960D02*
D03*
X135620Y57060D02*
D03*
Y58060D02*
D03*
X105700Y96440D02*
D03*
Y97440D02*
D03*
X100760Y82640D02*
D03*
Y83640D02*
D03*
X101540Y62980D02*
D03*
Y63980D02*
D03*
X156990Y95450D02*
D03*
Y94450D02*
D03*
X157140Y91550D02*
D03*
Y90550D02*
D03*
X128620Y95460D02*
D03*
Y94460D02*
D03*
X129420Y75780D02*
D03*
Y74780D02*
D03*
X145480Y77740D02*
D03*
Y76740D02*
D03*
X100280Y95460D02*
D03*
Y94460D02*
D03*
X117120Y77740D02*
D03*
Y76740D02*
D03*
X158860Y96420D02*
D03*
Y97420D02*
D03*
X159640Y77740D02*
D03*
Y76740D02*
D03*
X173820Y77740D02*
D03*
Y76740D02*
D03*
X162400Y96430D02*
D03*
Y97430D02*
D03*
X163200Y77760D02*
D03*
Y76760D02*
D03*
X166720Y77740D02*
D03*
Y76740D02*
D03*
X170280Y77740D02*
D03*
Y76740D02*
D03*
X157290Y86600D02*
D03*
Y87600D02*
D03*
X157440Y82650D02*
D03*
Y83650D02*
D03*
X157590Y78700D02*
D03*
Y79700D02*
D03*
X157750Y75780D02*
D03*
Y74780D02*
D03*
X157920Y71840D02*
D03*
Y70840D02*
D03*
X158080Y67900D02*
D03*
Y66900D02*
D03*
X158240Y63970D02*
D03*
Y62970D02*
D03*
X160430Y58060D02*
D03*
Y57060D02*
D03*
X163980Y58070D02*
D03*
Y57070D02*
D03*
X167510Y58060D02*
D03*
Y57060D02*
D03*
X171060Y58070D02*
D03*
Y57070D02*
D03*
X174610Y58060D02*
D03*
Y57060D02*
D03*
X176500Y60020D02*
D03*
Y59020D02*
D03*
X176340Y63960D02*
D03*
Y62960D02*
D03*
X176180Y67900D02*
D03*
Y66900D02*
D03*
X176020Y71840D02*
D03*
Y70840D02*
D03*
X175860Y75780D02*
D03*
Y74780D02*
D03*
X175700Y79700D02*
D03*
Y78700D02*
D03*
X175560Y83660D02*
D03*
Y82660D02*
D03*
X175400Y87570D02*
D03*
Y86570D02*
D03*
X175240Y91530D02*
D03*
Y90530D02*
D03*
X175070Y95460D02*
D03*
Y94460D02*
D03*
X152560Y58060D02*
D03*
Y57060D02*
D03*
X146260Y58060D02*
D03*
Y57060D02*
D03*
X142700Y58040D02*
D03*
Y57040D02*
D03*
X139160Y58060D02*
D03*
Y57060D02*
D03*
X129720Y67900D02*
D03*
Y66900D02*
D03*
X129560Y71840D02*
D03*
Y70840D02*
D03*
X131300Y77740D02*
D03*
Y76740D02*
D03*
X134840Y77740D02*
D03*
Y76740D02*
D03*
X138400Y77740D02*
D03*
Y76740D02*
D03*
X141920Y77740D02*
D03*
Y76740D02*
D03*
X137600Y97420D02*
D03*
Y96420D02*
D03*
X141140Y97420D02*
D03*
Y96420D02*
D03*
X144680Y97420D02*
D03*
Y96420D02*
D03*
X128780Y91540D02*
D03*
Y90540D02*
D03*
X128940Y87580D02*
D03*
Y86580D02*
D03*
X129100Y83660D02*
D03*
Y82660D02*
D03*
X147060Y87580D02*
D03*
Y86580D02*
D03*
X146900Y91520D02*
D03*
Y90520D02*
D03*
X146720Y95460D02*
D03*
Y94460D02*
D03*
X147500Y75780D02*
D03*
Y74780D02*
D03*
X147680Y71840D02*
D03*
Y70840D02*
D03*
X147840Y67900D02*
D03*
Y66900D02*
D03*
X100440Y91520D02*
D03*
Y90520D02*
D03*
X100580Y87580D02*
D03*
Y86580D02*
D03*
X101060Y75780D02*
D03*
Y74780D02*
D03*
X101220Y71840D02*
D03*
Y70840D02*
D03*
X101380Y67900D02*
D03*
Y66900D02*
D03*
X109260Y97440D02*
D03*
Y96440D02*
D03*
X112800Y97440D02*
D03*
Y96440D02*
D03*
X116340Y97440D02*
D03*
Y96440D02*
D03*
X118380Y95460D02*
D03*
Y94460D02*
D03*
X118540Y91540D02*
D03*
Y90540D02*
D03*
X118700Y87600D02*
D03*
Y86600D02*
D03*
X118860Y83640D02*
D03*
Y82640D02*
D03*
X119020Y79720D02*
D03*
Y78720D02*
D03*
X113580Y77760D02*
D03*
Y76760D02*
D03*
X110040Y77740D02*
D03*
Y76740D02*
D03*
X106500Y77740D02*
D03*
Y76740D02*
D03*
X102960Y77740D02*
D03*
Y76740D02*
D03*
X119160Y75780D02*
D03*
Y74780D02*
D03*
X119340Y71840D02*
D03*
Y70840D02*
D03*
X119500Y67920D02*
D03*
Y66920D02*
D03*
X119640Y63960D02*
D03*
Y62960D02*
D03*
X119800Y60020D02*
D03*
Y59020D02*
D03*
X117920Y58060D02*
D03*
Y57060D02*
D03*
X114380Y58060D02*
D03*
Y57060D02*
D03*
X110820Y58060D02*
D03*
Y57060D02*
D03*
X107280Y58060D02*
D03*
Y57060D02*
D03*
X103740Y58060D02*
D03*
Y57060D02*
D03*
X95860Y58060D02*
D03*
Y57060D02*
D03*
X124220Y58060D02*
D03*
Y57060D02*
D03*
X73820Y97420D02*
D03*
Y96420D02*
D03*
X77360Y97440D02*
D03*
X80900Y97420D02*
D03*
Y96420D02*
D03*
X84460Y97420D02*
D03*
Y96420D02*
D03*
X88000Y97400D02*
D03*
Y96400D02*
D03*
X71920Y95460D02*
D03*
Y94460D02*
D03*
X72080Y91520D02*
D03*
Y90520D02*
D03*
X72240Y87580D02*
D03*
Y86580D02*
D03*
X72400Y83640D02*
D03*
Y82640D02*
D03*
X72560Y79700D02*
D03*
Y78700D02*
D03*
X72720Y75780D02*
D03*
Y74780D02*
D03*
X72880Y71840D02*
D03*
Y70840D02*
D03*
X73040Y67900D02*
D03*
Y66900D02*
D03*
X73200Y63960D02*
D03*
Y62960D02*
D03*
X73360Y60020D02*
D03*
Y59020D02*
D03*
X67520Y57060D02*
D03*
Y58060D02*
D03*
X90040Y95440D02*
D03*
Y94440D02*
D03*
X90200Y91500D02*
D03*
Y90500D02*
D03*
X90360Y87560D02*
D03*
Y86560D02*
D03*
X90520Y83620D02*
D03*
Y82620D02*
D03*
X90680Y79680D02*
D03*
Y78680D02*
D03*
X88780Y77740D02*
D03*
Y76740D02*
D03*
X85240Y77740D02*
D03*
Y76740D02*
D03*
X81700Y77740D02*
D03*
Y76740D02*
D03*
X78160Y77740D02*
D03*
Y76740D02*
D03*
X74600Y77740D02*
D03*
Y76740D02*
D03*
X75400Y58060D02*
D03*
X78940Y57060D02*
D03*
Y58060D02*
D03*
X82480Y57060D02*
D03*
Y58060D02*
D03*
X86020Y57080D02*
D03*
Y58080D02*
D03*
X89560Y57060D02*
D03*
Y58060D02*
D03*
X90820Y75780D02*
D03*
Y74780D02*
D03*
X90980Y71840D02*
D03*
Y70840D02*
D03*
X91140Y67900D02*
D03*
Y66900D02*
D03*
X91300Y63960D02*
D03*
Y62960D02*
D03*
X91460Y60020D02*
D03*
X165940Y96430D02*
D03*
Y97430D02*
D03*
X169490Y96430D02*
D03*
Y97430D02*
D03*
X173030Y96430D02*
D03*
Y97430D02*
D03*
X158390Y60040D02*
D03*
Y59040D02*
D03*
D36*
X193500Y54500D02*
D03*
D37*
Y55500D02*
D03*
X194500Y54500D02*
D03*
Y55500D02*
D03*
X195500Y54500D02*
D03*
Y55500D02*
D03*
D38*
X77360Y96440D02*
D03*
X75400Y57060D02*
D03*
X91460Y59020D02*
D03*
D39*
X197250Y85284D02*
D03*
Y82284D02*
D03*
X198250Y84784D02*
D03*
X197250Y84284D02*
D03*
Y83284D02*
D03*
X198250Y83784D02*
D03*
X197250Y73650D02*
D03*
Y76650D02*
D03*
X198250Y76150D02*
D03*
X197250Y74650D02*
D03*
X198250Y75150D02*
D03*
X197250Y75650D02*
D03*
D40*
X198250Y81784D02*
D03*
X198250Y73150D02*
D03*
D41*
X198250Y82784D02*
D03*
X198250Y74150D02*
D03*
D42*
X200750Y81284D02*
D03*
Y85784D02*
D03*
X200750Y72650D02*
D03*
Y77150D02*
D03*
D43*
X85900Y44700D02*
D03*
X81300Y46300D02*
D03*
X87400Y49300D02*
D03*
X166640Y47900D02*
D03*
X166340Y46300D02*
D03*
X170940Y44700D02*
D03*
X172440Y49300D02*
D03*
X187400Y71700D02*
D03*
X187500Y92000D02*
D03*
X188500D02*
D03*
X187500Y91000D02*
D03*
X188500D02*
D03*
X191000Y75150D02*
D03*
X183550Y89050D02*
D03*
X182500D02*
D03*
X187750Y47100D02*
D03*
X182450Y71700D02*
D03*
X182500Y75650D02*
D03*
X186400Y73850D02*
D03*
X194500Y90500D02*
D03*
X195500D02*
D03*
Y91500D02*
D03*
X194500D02*
D03*
X180000D02*
D03*
X181000D02*
D03*
Y90500D02*
D03*
X180000D02*
D03*
X183900Y68500D02*
D03*
X189400Y66500D02*
D03*
X184100Y60700D02*
D03*
X195600Y61700D02*
D03*
X196600Y64700D02*
D03*
X192100Y57000D02*
D03*
X185000Y85000D02*
D03*
X186000D02*
D03*
Y84000D02*
D03*
X185000D02*
D03*
X188000D02*
D03*
X189000D02*
D03*
Y85000D02*
D03*
X188000D02*
D03*
X190400Y65000D02*
D03*
X184830Y63510D02*
D03*
X188500Y69100D02*
D03*
X186200Y71600D02*
D03*
X188100Y56800D02*
D03*
X178950Y97550D02*
D03*
Y98450D02*
D03*
X150610D02*
D03*
Y97550D02*
D03*
X144100Y49300D02*
D03*
X142600Y44700D02*
D03*
X138000Y46300D02*
D03*
Y47900D02*
D03*
X122250Y98450D02*
D03*
Y97550D02*
D03*
X114240Y44700D02*
D03*
X109640Y46300D02*
D03*
X115740Y49300D02*
D03*
X109640Y47900D02*
D03*
X93910Y97510D02*
D03*
Y98410D02*
D03*
X174350Y45500D02*
D03*
X192600Y47800D02*
D03*
X146010Y45500D02*
D03*
X117650D02*
D03*
X196374Y56276D02*
D03*
X81300Y47900D02*
D03*
M02*
