%FSLAX24Y24*%
%MOIN*%
G70*
G01*
G75*
G04 Layer_Color=8421504*
%ADD10R,0.1299X0.0787*%
%ADD11O,0.0217X0.0689*%
%ADD12O,0.0689X0.0217*%
%ADD13R,0.0354X0.0354*%
%ADD14C,0.0394*%
%ADD15R,0.2264X0.2559*%
%ADD16R,0.0492X0.1201*%
%ADD17O,0.0236X0.0866*%
%ADD18R,0.0335X0.0335*%
%ADD19R,0.0394X0.0394*%
%ADD20R,0.0630X0.1181*%
%ADD21R,0.0787X0.2362*%
%ADD22R,0.0630X0.0236*%
%ADD23R,0.0472X0.1378*%
%ADD24R,0.0866X0.0925*%
%ADD25R,0.0610X0.0925*%
%ADD26R,0.0335X0.0669*%
%ADD27R,0.2185X0.2559*%
%ADD28R,0.0236X0.0866*%
%ADD29C,0.0150*%
%ADD30C,0.0500*%
%ADD31C,0.0200*%
%ADD32C,0.0300*%
%ADD33C,0.0250*%
%ADD34C,0.0100*%
%ADD35C,0.0630*%
%ADD36C,0.0591*%
%ADD37C,0.0591*%
%ADD38R,0.0591X0.0591*%
%ADD39P,0.2706X8X22.5*%
%ADD40C,0.1161*%
%ADD41R,0.0591X0.0591*%
%ADD42C,0.0500*%
%ADD43C,0.0394*%
%ADD44C,0.0098*%
%ADD45C,0.0236*%
%ADD46C,0.0079*%
D10*
X149606Y17214D02*
D03*
Y19655D02*
D03*
X127608Y66170D02*
D03*
Y63730D02*
D03*
X114616Y66170D02*
D03*
Y63730D02*
D03*
X101624Y66170D02*
D03*
Y63730D02*
D03*
X88631Y66170D02*
D03*
Y63730D02*
D03*
X75639Y66170D02*
D03*
Y63730D02*
D03*
X62647Y66170D02*
D03*
Y63730D02*
D03*
X130108Y63730D02*
D03*
X117116D02*
D03*
X104124D02*
D03*
X91131D02*
D03*
X78139D02*
D03*
X65147Y63730D02*
D03*
Y66170D02*
D03*
X78139Y66170D02*
D03*
X91131D02*
D03*
X104124D02*
D03*
X117116D02*
D03*
X130108D02*
D03*
X93307Y17214D02*
D03*
X97638D02*
D03*
X101968D02*
D03*
X106299D02*
D03*
X110630D02*
D03*
X114961D02*
D03*
Y19655D02*
D03*
X110630D02*
D03*
X106299D02*
D03*
X101968D02*
D03*
X97638D02*
D03*
X93307D02*
D03*
X50000Y17214D02*
D03*
X54331D02*
D03*
X58661D02*
D03*
X62992D02*
D03*
X67323D02*
D03*
X71654D02*
D03*
X75984D02*
D03*
X80315D02*
D03*
X84646D02*
D03*
X88976D02*
D03*
Y19655D02*
D03*
X84646D02*
D03*
X80315D02*
D03*
X75984D02*
D03*
X71654D02*
D03*
X67323D02*
D03*
X62992D02*
D03*
X58661D02*
D03*
X54331D02*
D03*
X50000D02*
D03*
X140600Y66170D02*
D03*
Y63730D02*
D03*
X143100Y63730D02*
D03*
Y66170D02*
D03*
X119291Y19655D02*
D03*
X123622D02*
D03*
X132283Y17214D02*
D03*
Y19655D02*
D03*
X119291Y17214D02*
D03*
X123622D02*
D03*
X127931Y17269D02*
D03*
Y19710D02*
D03*
X136614Y17214D02*
D03*
Y19655D02*
D03*
X140945Y17214D02*
D03*
Y19655D02*
D03*
X145174Y17213D02*
D03*
Y19654D02*
D03*
D11*
X162518Y28867D02*
D03*
X162203D02*
D03*
X161888D02*
D03*
X160943Y33315D02*
D03*
X162203D02*
D03*
X162518D02*
D03*
X163463D02*
D03*
X163778D02*
D03*
X164093D02*
D03*
X163148D02*
D03*
X162833D02*
D03*
X161888D02*
D03*
X161573D02*
D03*
X161258D02*
D03*
X160943Y28867D02*
D03*
X161258D02*
D03*
X161573D02*
D03*
X162833D02*
D03*
X163148D02*
D03*
X163463D02*
D03*
X163778D02*
D03*
X164093D02*
D03*
D12*
X160294Y29516D02*
D03*
Y29831D02*
D03*
Y30146D02*
D03*
Y30461D02*
D03*
Y31091D02*
D03*
Y31406D02*
D03*
X164743Y32666D02*
D03*
Y32351D02*
D03*
Y32036D02*
D03*
Y31721D02*
D03*
Y31406D02*
D03*
Y31091D02*
D03*
Y30776D02*
D03*
Y30461D02*
D03*
Y30146D02*
D03*
Y29831D02*
D03*
Y29516D02*
D03*
X160294Y32666D02*
D03*
Y32351D02*
D03*
Y32036D02*
D03*
Y31721D02*
D03*
Y30776D02*
D03*
D13*
X156607Y61406D02*
D03*
Y62035D02*
D03*
X164607Y61406D02*
D03*
Y62035D02*
D03*
X162207Y26906D02*
D03*
Y27535D02*
D03*
X76505Y12745D02*
D03*
Y13375D02*
D03*
X111150Y12745D02*
D03*
Y13375D02*
D03*
X145796Y12745D02*
D03*
Y13375D02*
D03*
X162207Y24106D02*
D03*
Y24735D02*
D03*
X169707Y35135D02*
D03*
Y34506D02*
D03*
Y29006D02*
D03*
Y29635D02*
D03*
X162518Y34620D02*
D03*
Y35250D02*
D03*
X169707Y32506D02*
D03*
Y33135D02*
D03*
X158976Y31392D02*
D03*
X161450Y48435D02*
D03*
Y49065D02*
D03*
X158976Y32022D02*
D03*
X156600Y42906D02*
D03*
Y43535D02*
D03*
D14*
X172400Y72400D02*
D03*
X171100Y13600D02*
D03*
X51600Y10200D02*
D03*
X159867Y33750D02*
D03*
X165177Y28430D02*
D03*
D15*
X124608Y64005D02*
D03*
X111616D02*
D03*
X98624D02*
D03*
X85631D02*
D03*
X72639Y64005D02*
D03*
X59647D02*
D03*
X137600Y64005D02*
D03*
D16*
X125513Y66544D02*
D03*
X112521D02*
D03*
X99529D02*
D03*
X86537D02*
D03*
X73545Y66544D02*
D03*
X60553D02*
D03*
X58742D02*
D03*
X71734D02*
D03*
X84726Y66544D02*
D03*
X97718D02*
D03*
X110710D02*
D03*
X123702D02*
D03*
X138506D02*
D03*
X136694D02*
D03*
X161206Y63315D02*
D03*
X163009D02*
D03*
D17*
X110400Y12115D02*
D03*
X109900D02*
D03*
X108400D02*
D03*
X107900D02*
D03*
X107400D02*
D03*
X106900D02*
D03*
Y14005D02*
D03*
X107900D02*
D03*
X108400D02*
D03*
X108900D02*
D03*
X109400D02*
D03*
X109900D02*
D03*
X109400Y12115D02*
D03*
X108900D02*
D03*
X110400Y14005D02*
D03*
X107400D02*
D03*
X75755Y12115D02*
D03*
X75255D02*
D03*
X74755D02*
D03*
X74255D02*
D03*
X73755D02*
D03*
X73255D02*
D03*
X72755D02*
D03*
X72255D02*
D03*
Y14005D02*
D03*
X72755D02*
D03*
X73255D02*
D03*
X73755D02*
D03*
X74255D02*
D03*
X74755D02*
D03*
X75255D02*
D03*
X75755D02*
D03*
X145046Y12115D02*
D03*
X144046D02*
D03*
X143546D02*
D03*
X143046D02*
D03*
X142546D02*
D03*
X141546D02*
D03*
Y14005D02*
D03*
X142046D02*
D03*
X142546D02*
D03*
X143046D02*
D03*
X143546D02*
D03*
X144046D02*
D03*
X145046D02*
D03*
X144546D02*
D03*
X142046Y12115D02*
D03*
X144546D02*
D03*
X157757Y43065D02*
D03*
X159257Y41176D02*
D03*
X158757D02*
D03*
X158257D02*
D03*
X157757D02*
D03*
X159257Y43065D02*
D03*
X158757D02*
D03*
X158257D02*
D03*
D18*
X157707Y34606D02*
D03*
Y35235D02*
D03*
X156557Y39435D02*
D03*
X161507Y39435D02*
D03*
X156557Y38806D02*
D03*
X161507Y38806D02*
D03*
X157657Y57035D02*
D03*
Y56406D02*
D03*
D19*
X163107Y24086D02*
D03*
Y24755D02*
D03*
X156507Y34586D02*
D03*
Y35255D02*
D03*
X157557Y39455D02*
D03*
X160507Y39455D02*
D03*
X157557Y38786D02*
D03*
X160507Y38786D02*
D03*
X158557Y39455D02*
D03*
Y38786D02*
D03*
X156677Y56406D02*
D03*
Y57075D02*
D03*
D20*
X164607Y22670D02*
D03*
Y26285D02*
D03*
D21*
X168107Y31870D02*
D03*
Y35807D02*
D03*
D22*
X167633Y43996D02*
D03*
Y44744D02*
D03*
X166924Y44370D02*
D03*
D23*
X158607Y62820D02*
D03*
X166607Y62820D02*
D03*
Y60620D02*
D03*
X158607Y60620D02*
D03*
D24*
X159707Y57920D02*
D03*
X162207Y57873D02*
D03*
Y55668D02*
D03*
X159707Y55716D02*
D03*
D25*
X164157Y56020D02*
D03*
Y57576D02*
D03*
D26*
X166581Y55539D02*
D03*
X167633D02*
D03*
Y57902D02*
D03*
X166581D02*
D03*
D27*
X162107Y60776D02*
D03*
D28*
X157100Y47726D02*
D03*
X157600D02*
D03*
X158100D02*
D03*
X158600D02*
D03*
X159100D02*
D03*
X159600D02*
D03*
X160100D02*
D03*
X160600D02*
D03*
X157100Y49774D02*
D03*
X157600D02*
D03*
X158100D02*
D03*
X158600D02*
D03*
X159100D02*
D03*
X159600D02*
D03*
X160100D02*
D03*
X160600D02*
D03*
M02*
