%FSLAX24Y24*%
%MOIN*%
G70*
G01*
G75*
G04 Layer_Physical_Order=1*
G04 Layer_Color=255*
%ADD10R,0.1299X0.0787*%
%ADD11O,0.0217X0.0689*%
%ADD12O,0.0689X0.0217*%
%ADD13R,0.0354X0.0354*%
%ADD14C,0.0394*%
%ADD15R,0.2264X0.2559*%
%ADD16R,0.0492X0.1201*%
%ADD17O,0.0236X0.0866*%
%ADD18R,0.0335X0.0335*%
%ADD19R,0.0394X0.0394*%
%ADD20R,0.0630X0.1181*%
%ADD21R,0.0787X0.2362*%
%ADD22R,0.0630X0.0236*%
%ADD23R,0.0472X0.1378*%
%ADD24R,0.0866X0.0925*%
%ADD25R,0.0610X0.0925*%
%ADD26R,0.0335X0.0669*%
%ADD27R,0.2185X0.2559*%
%ADD28R,0.0236X0.0866*%
%ADD29C,0.0150*%
%ADD30C,0.0500*%
%ADD31C,0.0200*%
%ADD32C,0.0300*%
%ADD33C,0.0250*%
%ADD34C,0.0100*%
%ADD35C,0.0630*%
%ADD36C,0.0591*%
%ADD37C,0.0591*%
%ADD38R,0.0591X0.0591*%
%ADD39P,0.2706X8X22.5*%
%ADD40C,0.1161*%
%ADD41R,0.0591X0.0591*%
%ADD42C,0.0500*%
G36*
X145422Y35139D02*
Y33716D01*
X145190Y33621D01*
X144402Y34425D01*
Y34445D01*
X145191Y35234D01*
X145422Y35139D01*
D02*
G37*
G36*
X149854Y35139D02*
Y33717D01*
X149622Y33622D01*
X148834Y34426D01*
Y34446D01*
X149623Y35235D01*
X149854Y35139D01*
D02*
G37*
G36*
X50248Y35139D02*
Y33717D01*
X50016Y33622D01*
X49228Y34426D01*
Y34446D01*
X50017Y35235D01*
X50248Y35139D01*
D02*
G37*
G36*
X163999Y32730D02*
X164093Y32718D01*
X164153Y32726D01*
X164153D01*
X164145Y32666D01*
X164157Y32572D01*
X164184Y32508D01*
X164157Y32444D01*
X164145Y32351D01*
X164157Y32257D01*
X164184Y32193D01*
X164157Y32129D01*
X164145Y32036D01*
X164157Y31942D01*
X164184Y31878D01*
X164157Y31814D01*
X164145Y31721D01*
X164157Y31627D01*
X164184Y31563D01*
X164157Y31499D01*
X164145Y31406D01*
X164157Y31312D01*
X164193Y31225D01*
X164251Y31150D01*
X164319Y31098D01*
X164319Y31098D01*
X164319D01*
D01*
X164243D01*
X162840Y32501D01*
Y32719D01*
X162927Y32730D01*
X162991Y32757D01*
X163055Y32730D01*
X163148Y32718D01*
X163242Y32730D01*
X163306Y32757D01*
X163369Y32730D01*
X163463Y32718D01*
X163557Y32730D01*
X163620Y32757D01*
X163684Y32730D01*
X163778Y32718D01*
X163871Y32730D01*
X163935Y32757D01*
X163999Y32730D01*
D02*
G37*
G36*
X156412Y35702D02*
Y35702D01*
X156060D01*
Y34808D01*
Y34139D01*
X156183D01*
X156185Y34128D01*
X156190Y34086D01*
X156207Y34046D01*
X156223Y34007D01*
X156275Y33939D01*
X156575Y33639D01*
X156605Y33616D01*
X156643Y33587D01*
X156722Y33554D01*
X156807Y33543D01*
X158337D01*
X158380Y33548D01*
X158422Y33554D01*
X158461Y33570D01*
X158501Y33587D01*
X158569Y33639D01*
X159153Y34223D01*
X160321D01*
X160615Y33928D01*
Y33696D01*
X160594Y33645D01*
X160582Y33552D01*
Y33079D01*
X160590Y33019D01*
X160590Y33019D01*
X160530Y33027D01*
X160057D01*
X159964Y33015D01*
X159877Y32979D01*
X159802Y32921D01*
X159745Y32846D01*
X159708Y32759D01*
X159696Y32666D01*
X159708Y32572D01*
X159735Y32508D01*
X159708Y32444D01*
X159696Y32351D01*
X159708Y32257D01*
X159735Y32193D01*
X159708Y32129D01*
X159696Y32036D01*
X159708Y31942D01*
X159735Y31878D01*
X159708Y31814D01*
X159698Y31734D01*
X159404D01*
Y31819D01*
X158549D01*
Y31720D01*
X158122D01*
X155639Y34202D01*
X155571Y34254D01*
X155531Y34271D01*
X155492Y34287D01*
X155450Y34293D01*
X155407Y34298D01*
X153863D01*
X153561Y34605D01*
Y35474D01*
X153880Y35793D01*
X156321D01*
X156412Y35702D01*
D02*
G37*
G36*
X153827Y33970D02*
Y33950D01*
X153038Y33161D01*
X152807Y33257D01*
Y34680D01*
X153039Y34774D01*
X153827Y33970D01*
D02*
G37*
G36*
X54578Y35139D02*
Y33717D01*
X54347Y33622D01*
X53558Y34426D01*
Y34446D01*
X54347Y35235D01*
X54578Y35139D01*
D02*
G37*
G36*
X71901D02*
Y33717D01*
X71670Y33622D01*
X70881Y34426D01*
Y34446D01*
X71670Y35235D01*
X71901Y35139D01*
D02*
G37*
G36*
X76232D02*
Y33717D01*
X76000Y33622D01*
X75212Y34426D01*
Y34446D01*
X76001Y35235D01*
X76232Y35139D01*
D02*
G37*
G36*
X80563D02*
Y33717D01*
X80331Y33622D01*
X79543Y34426D01*
Y34446D01*
X80332Y35235D01*
X80563Y35139D01*
D02*
G37*
G36*
X58909D02*
Y33717D01*
X58678Y33622D01*
X57889Y34426D01*
Y34446D01*
X58678Y35235D01*
X58909Y35139D01*
D02*
G37*
G36*
X63240D02*
Y33717D01*
X63008Y33622D01*
X62220Y34426D01*
Y34446D01*
X63009Y35235D01*
X63240Y35139D01*
D02*
G37*
G36*
X67570D02*
Y33717D01*
X67339Y33622D01*
X66550Y34426D01*
Y34446D01*
X67339Y35235D01*
X67570Y35139D01*
D02*
G37*
G36*
X123870Y29234D02*
Y27811D01*
X123638Y27717D01*
X122850Y28521D01*
Y28541D01*
X123639Y29330D01*
X123870Y29234D01*
D02*
G37*
G36*
X128200D02*
Y27811D01*
X127969Y27717D01*
X127180Y28521D01*
Y28541D01*
X127969Y29330D01*
X128200Y29234D01*
D02*
G37*
G36*
X132531D02*
Y27811D01*
X132300Y27717D01*
X131511Y28521D01*
Y28541D01*
X132300Y29330D01*
X132531Y29234D01*
D02*
G37*
G36*
X110878D02*
Y27811D01*
X110646Y27717D01*
X109858Y28521D01*
Y28541D01*
X110647Y29330D01*
X110878Y29234D01*
D02*
G37*
G36*
X115208D02*
Y27811D01*
X114977Y27717D01*
X114188Y28521D01*
Y28541D01*
X114977Y29330D01*
X115208Y29234D01*
D02*
G37*
G36*
X119539D02*
Y27811D01*
X119307Y27717D01*
X118519Y28521D01*
Y28541D01*
X119308Y29330D01*
X119539Y29234D01*
D02*
G37*
G36*
X136862D02*
Y27811D01*
X136630Y27717D01*
X135842Y28521D01*
Y28541D01*
X136631Y29330D01*
X136862Y29234D01*
D02*
G37*
G36*
X161879Y30185D02*
Y29463D01*
X161795Y29452D01*
X161731Y29425D01*
X161667Y29452D01*
X161573Y29464D01*
X161480Y29452D01*
X161416Y29425D01*
X161352Y29452D01*
X161258Y29464D01*
X161165Y29452D01*
X161101Y29425D01*
X161037Y29452D01*
X160943Y29464D01*
X160883Y29456D01*
Y29456D01*
X160891Y29516D01*
X160879Y29610D01*
X160852Y29674D01*
X160879Y29738D01*
X160891Y29831D01*
X160879Y29925D01*
X160852Y29989D01*
X160879Y30053D01*
X160891Y30146D01*
X160879Y30240D01*
X160852Y30304D01*
X160879Y30368D01*
X160891Y30461D01*
X160879Y30555D01*
X160852Y30619D01*
X160879Y30682D01*
X160891Y30776D01*
X160879Y30870D01*
X160843Y30957D01*
X160785Y31032D01*
X160725Y31078D01*
X160725D01*
Y31078D01*
X160986D01*
X161879Y30185D01*
D02*
G37*
G36*
X165479Y34879D02*
Y32856D01*
X165334Y32711D01*
X165334Y32711D01*
Y32711D01*
Y32711D01*
D01*
X165328Y32759D01*
X165292Y32846D01*
X165234Y32921D01*
X165159Y32979D01*
X165072Y33015D01*
X164979Y33027D01*
X164506D01*
X164446Y33019D01*
Y33019D01*
X164454Y33079D01*
Y33552D01*
X164442Y33645D01*
X164406Y33732D01*
X164348Y33807D01*
X164274Y33865D01*
X164186Y33901D01*
X164093Y33913D01*
X163999Y33901D01*
X163935Y33874D01*
X163871Y33901D01*
X163785Y33912D01*
Y34185D01*
X164243Y34643D01*
X165107D01*
X165150Y34648D01*
X165192Y34654D01*
X165231Y34670D01*
X165271Y34687D01*
X165339Y34739D01*
X165479Y34879D01*
D01*
D02*
G37*
G36*
X162185Y32877D02*
Y32365D01*
X162190Y32323D01*
X162196Y32280D01*
X162212Y32241D01*
X162229Y32201D01*
X162281Y32133D01*
X163875Y30539D01*
X163943Y30487D01*
X163983Y30470D01*
X164022Y30454D01*
X164065Y30448D01*
X164107Y30443D01*
X164147D01*
X164157Y30368D01*
X164184Y30304D01*
X164157Y30240D01*
X164145Y30146D01*
X164157Y30053D01*
X164184Y29989D01*
X164157Y29925D01*
X164145Y29831D01*
X164157Y29738D01*
X164184Y29674D01*
X164157Y29610D01*
X164145Y29516D01*
X164153Y29456D01*
X164153Y29456D01*
X164093Y29464D01*
X163999Y29452D01*
X163935Y29425D01*
X163871Y29452D01*
X163778Y29464D01*
X163684Y29452D01*
X163620Y29425D01*
X163557Y29452D01*
X163463Y29464D01*
X163369Y29452D01*
X163306Y29425D01*
X163242Y29452D01*
X163148Y29464D01*
X163055Y29452D01*
X162991Y29425D01*
X162927Y29452D01*
X162833Y29464D01*
X162740Y29452D01*
X162652Y29416D01*
X162578Y29358D01*
X162535Y29303D01*
X162535D01*
D01*
Y30320D01*
X162535D01*
D01*
D01*
X162535Y30320D01*
X162535D01*
X162535Y30320D01*
D01*
X162524Y30405D01*
X162501Y30461D01*
X162491Y30484D01*
X162468Y30514D01*
X162439Y30552D01*
X161353Y31638D01*
X161286Y31690D01*
X161246Y31706D01*
X161206Y31723D01*
X161164Y31728D01*
X161122Y31734D01*
X160890D01*
X160879Y31814D01*
X160852Y31878D01*
X160879Y31942D01*
X160891Y32036D01*
X160879Y32129D01*
X160852Y32193D01*
X160879Y32257D01*
X160891Y32351D01*
X160879Y32444D01*
X160852Y32508D01*
X160879Y32572D01*
X160891Y32666D01*
X160883Y32726D01*
X160883D01*
D01*
D01*
D01*
D01*
Y32726D01*
X160943Y32718D01*
X161037Y32730D01*
X161101Y32757D01*
X161165Y32730D01*
X161258Y32718D01*
X161352Y32730D01*
X161416Y32757D01*
X161480Y32730D01*
X161573Y32718D01*
X161667Y32730D01*
X161731Y32757D01*
X161795Y32730D01*
X161888Y32718D01*
X161982Y32730D01*
X162069Y32766D01*
X162144Y32824D01*
X162185Y32877D01*
D01*
D02*
G37*
G36*
X141192Y29234D02*
Y27811D01*
X140961Y27717D01*
X140172Y28521D01*
Y28541D01*
X140962Y29330D01*
X141192Y29234D01*
D02*
G37*
G36*
X167779Y26535D02*
Y25274D01*
X167779Y25274D01*
X167749Y25286D01*
X167607Y25305D01*
X167465Y25286D01*
X167332Y25231D01*
X167218Y25144D01*
X167171Y25083D01*
X166482D01*
X166440Y25077D01*
X166397Y25072D01*
X166358Y25055D01*
X166318Y25039D01*
X166250Y24987D01*
X165662Y24398D01*
X165052D01*
X164464Y24987D01*
X164396Y25039D01*
X164356Y25055D01*
X164317Y25072D01*
X164275Y25077D01*
X164232Y25083D01*
X163554D01*
Y25202D01*
X163435D01*
Y27170D01*
X163424Y27255D01*
X163391Y27334D01*
X163361Y27373D01*
X163339Y27402D01*
X162974Y27767D01*
X162906Y27819D01*
X162866Y27836D01*
X162827Y27852D01*
X162785Y27858D01*
X162742Y27863D01*
X162634D01*
Y27963D01*
X162531D01*
Y28436D01*
X162531Y28436D01*
Y28436D01*
X162578Y28375D01*
X162652Y28317D01*
X162740Y28281D01*
X162833Y28269D01*
X162927Y28281D01*
X162991Y28308D01*
X163055Y28281D01*
X163148Y28269D01*
X163242Y28281D01*
X163306Y28308D01*
X163369Y28281D01*
X163463Y28269D01*
X163557Y28281D01*
X163620Y28308D01*
X163684Y28281D01*
X163778Y28269D01*
X163871Y28281D01*
X163935Y28308D01*
X163999Y28281D01*
X164093Y28269D01*
X164186Y28281D01*
X164274Y28317D01*
X164348Y28375D01*
X164406Y28450D01*
X164442Y28537D01*
X164454Y28630D01*
Y29103D01*
X164446Y29163D01*
X164446D01*
D01*
D01*
D01*
D01*
Y29163D01*
X164506Y29155D01*
X164979D01*
X165072Y29167D01*
X165124Y29188D01*
X165126D01*
X167779Y26535D01*
D02*
G37*
G36*
X74159Y31000D02*
X74340D01*
X74590Y30750D01*
Y30250D01*
X74340Y30000D01*
X72840D01*
X72590Y30250D01*
Y30750D01*
X72840Y31000D01*
X73029D01*
X73589Y31550D01*
X73609D01*
X74159Y31000D01*
D02*
G37*
G36*
X153827Y36120D02*
Y36100D01*
X153038Y35311D01*
X152807Y35407D01*
Y36830D01*
X153039Y36925D01*
X153827Y36120D01*
D02*
G37*
G36*
X87151Y36905D02*
X87333D01*
X87583Y36655D01*
Y36155D01*
X87333Y35905D01*
X85833D01*
X85583Y36155D01*
Y36655D01*
X85833Y36905D01*
X86021D01*
X86581Y37455D01*
X86601D01*
X87151Y36905D01*
D02*
G37*
G36*
X157388Y42733D02*
X157398Y42654D01*
X157436Y42565D01*
X157495Y42488D01*
X157571Y42429D01*
X157661Y42392D01*
X157709Y42386D01*
D01*
X157709D01*
D01*
Y42386D01*
X157525Y42202D01*
X157473Y42134D01*
X157457Y42095D01*
X157440Y42055D01*
X157435Y42013D01*
X157429Y41970D01*
Y41661D01*
X157398Y41587D01*
X157386Y41491D01*
Y40861D01*
X157398Y40765D01*
X157429Y40690D01*
Y40556D01*
X157325Y40452D01*
X157273Y40384D01*
X157257Y40345D01*
X157240Y40305D01*
X157235Y40263D01*
X157229Y40220D01*
Y39902D01*
X157110D01*
Y39233D01*
Y39114D01*
X156974D01*
Y39223D01*
Y39853D01*
X156885D01*
Y40542D01*
X156914Y40564D01*
X156994Y40668D01*
X157044Y40790D01*
X157061Y40920D01*
X157044Y41051D01*
X156994Y41173D01*
X156935Y41249D01*
Y42478D01*
X157027D01*
Y42578D01*
X157097D01*
X157140Y42583D01*
X157182Y42589D01*
X157222Y42605D01*
X157261Y42622D01*
X157329Y42674D01*
X157388Y42733D01*
D01*
D02*
G37*
G36*
X141192Y35139D02*
Y33717D01*
X140961Y33622D01*
X140172Y34426D01*
Y34446D01*
X140962Y35235D01*
X141192Y35139D01*
D02*
G37*
G36*
X161715Y34389D02*
X161783Y34337D01*
X161862Y34304D01*
X161947Y34293D01*
X162091D01*
Y34193D01*
X162190D01*
Y33746D01*
Y33746D01*
Y33746D01*
X162190D01*
X162144Y33807D01*
X162069Y33865D01*
X161982Y33901D01*
X161888Y33913D01*
X161795Y33901D01*
X161731Y33874D01*
X161667Y33901D01*
X161573Y33913D01*
X161480Y33901D01*
X161416Y33874D01*
X161352Y33901D01*
X161271Y33911D01*
Y34064D01*
X161266Y34107D01*
X161260Y34149D01*
X161244Y34189D01*
X161227Y34228D01*
X161198Y34267D01*
X161175Y34296D01*
X160689Y34782D01*
X160621Y34834D01*
X160581Y34851D01*
X160542Y34867D01*
X160500Y34873D01*
X160457Y34878D01*
X159017D01*
X158932Y34867D01*
X158853Y34834D01*
X158815Y34805D01*
X158785Y34782D01*
X158201Y34198D01*
X158124D01*
Y34818D01*
Y34908D01*
X161196D01*
X161715Y34389D01*
D02*
G37*
G36*
X155790Y42674D02*
X155820Y42651D01*
X155858Y42622D01*
X155914Y42598D01*
X155937Y42589D01*
X155947Y42588D01*
X156022Y42578D01*
X156173D01*
Y42478D01*
X156279D01*
Y41338D01*
X156200Y41277D01*
X156120Y41173D01*
X156070Y41051D01*
X156053Y40920D01*
X156070Y40790D01*
X156120Y40668D01*
X156200Y40564D01*
X156229Y40542D01*
Y39853D01*
X156140D01*
Y39018D01*
Y38388D01*
X156974D01*
Y38458D01*
X157110D01*
Y38339D01*
X158004D01*
Y39008D01*
Y39902D01*
X157885D01*
Y40085D01*
X157989Y40189D01*
X158018Y40227D01*
X158041Y40257D01*
X158051Y40280D01*
X158074Y40336D01*
X158085Y40420D01*
Y40534D01*
X158085D01*
D01*
D01*
Y40534D01*
X158161Y40502D01*
X158257Y40489D01*
X158353Y40502D01*
X158429Y40534D01*
D01*
Y40506D01*
X158325Y40402D01*
X158273Y40334D01*
X158257Y40295D01*
X158240Y40255D01*
X158235Y40213D01*
X158229Y40170D01*
Y39902D01*
X158110D01*
Y39008D01*
X158822D01*
Y37928D01*
X158828Y37885D01*
X158833Y37843D01*
X158850Y37803D01*
X158866Y37764D01*
X158918Y37696D01*
X160175Y36439D01*
X160205Y36416D01*
X160243Y36387D01*
X160299Y36363D01*
X160322Y36354D01*
X160332Y36353D01*
X160407Y36343D01*
X164771D01*
X165029Y36085D01*
Y35356D01*
X164971Y35298D01*
X164107D01*
X164022Y35287D01*
X163943Y35254D01*
X163875Y35202D01*
X163225Y34552D01*
X163173Y34484D01*
X163157Y34445D01*
X163140Y34405D01*
X163135Y34363D01*
X163129Y34320D01*
Y33910D01*
X163055Y33901D01*
X162991Y33874D01*
X162927Y33901D01*
X162846Y33911D01*
Y34193D01*
X162945D01*
Y35048D01*
X162091D01*
Y34948D01*
X162083D01*
X161564Y35467D01*
X161496Y35519D01*
X161457Y35536D01*
X161417Y35552D01*
X161375Y35558D01*
X161332Y35563D01*
X158124D01*
Y35653D01*
X157388D01*
X156689Y36352D01*
X156621Y36404D01*
X156581Y36421D01*
X156542Y36437D01*
X156500Y36443D01*
X156457Y36448D01*
X153863D01*
X153561Y36755D01*
Y43294D01*
X153910Y43643D01*
X154821D01*
X155790Y42674D01*
D02*
G37*
G36*
X160386Y41328D02*
X160454Y41276D01*
X160533Y41243D01*
X160618Y41232D01*
X161116D01*
D01*
D01*
X161116Y41232D01*
X161070Y41173D01*
X161020Y41051D01*
X161003Y40920D01*
X161020Y40790D01*
X161070Y40668D01*
X161150Y40564D01*
X161179Y40542D01*
Y39853D01*
X161090D01*
Y39223D01*
Y39114D01*
X160954D01*
Y39233D01*
Y39902D01*
X160824D01*
X160824Y39905D01*
X160814Y39928D01*
X160791Y39984D01*
X160762Y40023D01*
X160739Y40052D01*
X160389Y40402D01*
X160321Y40454D01*
X160281Y40471D01*
X160242Y40487D01*
X160200Y40493D01*
X160157Y40498D01*
X159743D01*
X159585Y40656D01*
Y40690D01*
X159616Y40765D01*
X159628Y40861D01*
Y41491D01*
X159616Y41587D01*
X159579Y41676D01*
X159520Y41753D01*
X159443Y41812D01*
X159369Y41843D01*
D01*
X159871D01*
X160386Y41328D01*
D02*
G37*
G36*
X50248Y41045D02*
Y39622D01*
X50016Y39528D01*
X49228Y40332D01*
Y40352D01*
X50017Y41141D01*
X50248Y41045D01*
D02*
G37*
G36*
X54578D02*
Y39622D01*
X54347Y39528D01*
X53558Y40332D01*
Y40352D01*
X54347Y41141D01*
X54578Y41045D01*
D02*
G37*
G36*
X58909D02*
Y39622D01*
X58678Y39528D01*
X57889Y40332D01*
Y40352D01*
X58678Y41141D01*
X58909Y41045D01*
D02*
G37*
G36*
X159060Y40254D02*
X159375Y39939D01*
X159443Y39887D01*
X159522Y39854D01*
X159607Y39843D01*
X160021D01*
X160060Y39804D01*
Y39783D01*
X159942D01*
X159857Y39772D01*
X159778Y39739D01*
X159739Y39710D01*
X159710Y39687D01*
X159525Y39502D01*
X159473Y39434D01*
X159457Y39395D01*
X159440Y39355D01*
X159437Y39333D01*
D01*
D01*
X159437D01*
D01*
X159434Y39341D01*
X159404Y39380D01*
X159382Y39409D01*
X159104Y39687D01*
X159036Y39739D01*
X159004Y39752D01*
Y39902D01*
X158885D01*
Y40035D01*
X158989Y40139D01*
X159018Y40177D01*
X159041Y40207D01*
X159051Y40230D01*
X159060Y40254D01*
X159060D01*
D02*
G37*
G36*
X145422Y41044D02*
Y39621D01*
X145190Y39527D01*
X144402Y40331D01*
Y40351D01*
X145191Y41140D01*
X145422Y41044D01*
D02*
G37*
G36*
X149854Y41045D02*
Y39622D01*
X149622Y39528D01*
X148834Y40332D01*
Y40352D01*
X149623Y41141D01*
X149854Y41045D01*
D02*
G37*
G36*
X97885Y35139D02*
Y33717D01*
X97654Y33622D01*
X96865Y34426D01*
Y34446D01*
X97654Y35235D01*
X97885Y35139D01*
D02*
G37*
G36*
X102216D02*
Y33717D01*
X101985Y33622D01*
X101196Y34426D01*
Y34446D01*
X101985Y35235D01*
X102216Y35139D01*
D02*
G37*
G36*
X106547D02*
Y33717D01*
X106315Y33622D01*
X105527Y34426D01*
Y34446D01*
X106316Y35235D01*
X106547Y35139D01*
D02*
G37*
G36*
X84893D02*
Y33717D01*
X84662Y33622D01*
X83873Y34426D01*
Y34446D01*
X84662Y35235D01*
X84893Y35139D01*
D02*
G37*
G36*
X89224D02*
Y33717D01*
X88993Y33622D01*
X88204Y34426D01*
Y34446D01*
X88993Y35235D01*
X89224Y35139D01*
D02*
G37*
G36*
X93555D02*
Y33717D01*
X93323Y33622D01*
X92535Y34426D01*
Y34446D01*
X93324Y35235D01*
X93555Y35139D01*
D02*
G37*
G36*
X110878D02*
Y33717D01*
X110646Y33622D01*
X109858Y34426D01*
Y34446D01*
X110647Y35235D01*
X110878Y35139D01*
D02*
G37*
G36*
X128200D02*
Y33717D01*
X127969Y33622D01*
X127180Y34426D01*
Y34446D01*
X127969Y35235D01*
X128200Y35139D01*
D02*
G37*
G36*
X132531D02*
Y33717D01*
X132300Y33622D01*
X131511Y34426D01*
Y34446D01*
X132300Y35235D01*
X132531Y35139D01*
D02*
G37*
G36*
X136862D02*
Y33717D01*
X136630Y33622D01*
X135842Y34426D01*
Y34446D01*
X136631Y35235D01*
X136862Y35139D01*
D02*
G37*
G36*
X115208D02*
Y33717D01*
X114977Y33622D01*
X114188Y34426D01*
Y34446D01*
X114977Y35235D01*
X115208Y35139D01*
D02*
G37*
G36*
X119539D02*
Y33717D01*
X119307Y33622D01*
X118519Y34426D01*
Y34446D01*
X119308Y35235D01*
X119539Y35139D01*
D02*
G37*
G36*
X123870D02*
Y33717D01*
X123638Y33622D01*
X122850Y34426D01*
Y34446D01*
X123639Y35235D01*
X123870Y35139D01*
D02*
G37*
G36*
X71901Y23328D02*
Y21906D01*
X71670Y21811D01*
X70881Y22615D01*
Y22635D01*
X71670Y23424D01*
X71901Y23328D01*
D02*
G37*
G36*
X76232D02*
Y21906D01*
X76000Y21811D01*
X75212Y22615D01*
Y22635D01*
X76001Y23424D01*
X76232Y23328D01*
D02*
G37*
G36*
X80563D02*
Y21906D01*
X80331Y21811D01*
X79543Y22615D01*
Y22635D01*
X80332Y23424D01*
X80563Y23328D01*
D02*
G37*
G36*
X58909D02*
Y21906D01*
X58678Y21811D01*
X57889Y22615D01*
Y22635D01*
X58678Y23424D01*
X58909Y23328D01*
D02*
G37*
G36*
X63240D02*
Y21906D01*
X63008Y21811D01*
X62220Y22615D01*
Y22635D01*
X63009Y23424D01*
X63240Y23328D01*
D02*
G37*
G36*
X67570D02*
Y21906D01*
X67339Y21811D01*
X66550Y22615D01*
Y22635D01*
X67339Y23424D01*
X67570Y23328D01*
D02*
G37*
G36*
X84893D02*
Y21906D01*
X84662Y21811D01*
X83873Y22615D01*
Y22635D01*
X84662Y23424D01*
X84893Y23328D01*
D02*
G37*
G36*
X102216D02*
Y21906D01*
X101985Y21811D01*
X101196Y22615D01*
Y22635D01*
X101985Y23424D01*
X102216Y23328D01*
D02*
G37*
G36*
X106547D02*
Y21906D01*
X106315Y21811D01*
X105527Y22615D01*
Y22635D01*
X106316Y23424D01*
X106547Y23328D01*
D02*
G37*
G36*
X110878D02*
Y21906D01*
X110646Y21811D01*
X109858Y22615D01*
Y22635D01*
X110647Y23424D01*
X110878Y23328D01*
D02*
G37*
G36*
X89224D02*
Y21906D01*
X88993Y21811D01*
X88204Y22615D01*
Y22635D01*
X88993Y23424D01*
X89224Y23328D01*
D02*
G37*
G36*
X93555D02*
Y21906D01*
X93323Y21811D01*
X92535Y22615D01*
Y22635D01*
X93324Y23424D01*
X93555Y23328D01*
D02*
G37*
G36*
X97885D02*
Y21906D01*
X97654Y21811D01*
X96865Y22615D01*
Y22635D01*
X97654Y23424D01*
X97885Y23328D01*
D02*
G37*
G36*
X139655Y15136D02*
X139728Y15080D01*
X139813Y15045D01*
X139905Y15033D01*
X139996Y15045D01*
X140028Y15058D01*
X141734D01*
X142110Y14683D01*
D01*
X142046Y14691D01*
X141950Y14678D01*
X141860Y14641D01*
X141784Y14582D01*
X141725Y14505D01*
X141687Y14416D01*
X141675Y14320D01*
Y13690D01*
X141687Y13594D01*
X141718Y13519D01*
Y13310D01*
X141724Y13267D01*
X141729Y13225D01*
X141746Y13185D01*
X141762Y13146D01*
X141814Y13078D01*
X142098Y12794D01*
D01*
X142046Y12801D01*
X141950Y12789D01*
X141874Y12757D01*
X141874Y12757D01*
D01*
D01*
Y12826D01*
X141870Y12856D01*
X141868Y12887D01*
X141864Y12899D01*
X141863Y12911D01*
X141851Y12939D01*
X141841Y12968D01*
X141835Y12979D01*
X141830Y12990D01*
X141811Y13014D01*
X141794Y13040D01*
X141201Y13728D01*
X141209Y13786D01*
X141192Y13916D01*
X141141Y14038D01*
X141061Y14142D01*
X140957Y14223D01*
X140835Y14273D01*
X140705Y14290D01*
X140574Y14273D01*
X140453Y14223D01*
X140348Y14142D01*
X140268Y14038D01*
X140218Y13916D01*
X140208Y13846D01*
Y13846D01*
X140208Y13846D01*
X138599Y15455D01*
X138585Y15487D01*
X138529Y15560D01*
X138456Y15617D01*
X138417Y15633D01*
X138417D01*
X139158D01*
X139655Y15136D01*
D02*
G37*
G36*
X70364Y15136D02*
X70437Y15080D01*
X70522Y15045D01*
X70613Y15033D01*
X70705Y15045D01*
X70737Y15058D01*
X72443D01*
X72818Y14683D01*
D01*
X72755Y14691D01*
X72659Y14678D01*
X72569Y14641D01*
X72492Y14582D01*
X72433Y14505D01*
X72396Y14416D01*
X72383Y14320D01*
Y13690D01*
X72396Y13594D01*
X72427Y13519D01*
Y13310D01*
X72433Y13267D01*
X72438Y13225D01*
X72454Y13185D01*
X72471Y13146D01*
X72523Y13078D01*
X72807Y12794D01*
D01*
X72755Y12801D01*
X72659Y12789D01*
X72583Y12757D01*
X72583Y12757D01*
D01*
D01*
Y12826D01*
X72579Y12856D01*
X72577Y12887D01*
X72573Y12899D01*
X72571Y12911D01*
X72560Y12939D01*
X72550Y12968D01*
X72543Y12979D01*
X72539Y12990D01*
X72520Y13014D01*
X72503Y13040D01*
X71910Y13728D01*
X71918Y13786D01*
X71901Y13916D01*
X71850Y14038D01*
X71770Y14142D01*
X71666Y14223D01*
X71544Y14273D01*
X71413Y14290D01*
X71283Y14273D01*
X71161Y14223D01*
X71057Y14142D01*
X70977Y14038D01*
X70926Y13916D01*
X70917Y13846D01*
Y13846D01*
X70917Y13846D01*
X69307Y15456D01*
X69294Y15487D01*
X69238Y15560D01*
X69165Y15617D01*
X69126Y15633D01*
X69126D01*
X69867D01*
X70364Y15136D01*
D02*
G37*
G36*
X105009D02*
X105083Y15080D01*
X105168Y15045D01*
X105259Y15033D01*
X105350Y15045D01*
X105382Y15058D01*
X107089D01*
X107464Y14683D01*
D01*
X107400Y14691D01*
X107304Y14678D01*
X107215Y14641D01*
X107138Y14582D01*
X107079Y14505D01*
X107042Y14416D01*
X107029Y14320D01*
Y13690D01*
X107042Y13594D01*
X107073Y13519D01*
Y13310D01*
X107078Y13267D01*
X107084Y13225D01*
X107100Y13185D01*
X107117Y13146D01*
X107169Y13078D01*
X107169Y13078D01*
X107169Y13078D01*
X107452Y12794D01*
D01*
X107400Y12801D01*
X107304Y12789D01*
X107228Y12757D01*
X107228Y12757D01*
D01*
D01*
Y12826D01*
X107224Y12856D01*
X107222Y12887D01*
X107219Y12899D01*
X107217Y12911D01*
X107205Y12939D01*
X107196Y12968D01*
X107189Y12979D01*
X107184Y12990D01*
X107166Y13014D01*
X107149Y13040D01*
X106556Y13728D01*
X106563Y13786D01*
X106546Y13916D01*
X106496Y14038D01*
X106416Y14142D01*
X106311Y14223D01*
X106190Y14273D01*
X106059Y14290D01*
X105929Y14273D01*
X105807Y14223D01*
X105702Y14142D01*
X105622Y14038D01*
X105572Y13916D01*
X105563Y13846D01*
Y13846D01*
X105563Y13846D01*
X103953Y15456D01*
X103940Y15487D01*
X103884Y15560D01*
X103811Y15617D01*
X103771Y15633D01*
X103771D01*
X104513D01*
X105009Y15136D01*
D02*
G37*
G36*
X146637Y14589D02*
X146529Y14481D01*
X146469Y14402D01*
X146431Y14311D01*
X146418Y14213D01*
Y13817D01*
X146354Y13753D01*
X146223D01*
Y13802D01*
X146124D01*
Y13894D01*
X146118Y13937D01*
X146113Y13979D01*
X146096Y14019D01*
X146080Y14058D01*
X146028Y14126D01*
X145918Y14237D01*
X145850Y14289D01*
X145810Y14305D01*
X145771Y14321D01*
X145728Y14327D01*
X145686Y14333D01*
X145416D01*
X145405Y14416D01*
X145368Y14505D01*
X145327Y14558D01*
D01*
D01*
D01*
X145327Y14558D01*
X146505D01*
X146547Y14564D01*
X146590Y14569D01*
X146629Y14586D01*
X146637Y14589D01*
D01*
D02*
G37*
G36*
X77346Y14589D02*
X77237Y14481D01*
X77177Y14402D01*
X77139Y14311D01*
X77126Y14213D01*
Y13817D01*
X77063Y13753D01*
X76932D01*
Y13802D01*
X76833D01*
Y13894D01*
X76827Y13937D01*
X76821Y13979D01*
X76805Y14019D01*
X76789Y14058D01*
X76737Y14126D01*
X76626Y14237D01*
X76558Y14289D01*
X76519Y14305D01*
X76479Y14321D01*
X76437Y14327D01*
X76394Y14333D01*
X76124D01*
X76113Y14416D01*
X76076Y14505D01*
X76036Y14558D01*
D01*
D01*
D01*
X76036Y14558D01*
X77213D01*
X77256Y14564D01*
X77298Y14569D01*
X77338Y14586D01*
X77346Y14589D01*
D01*
D02*
G37*
G36*
X111991D02*
X111883Y14481D01*
X111823Y14402D01*
X111785Y14311D01*
X111772Y14213D01*
Y13817D01*
X111709Y13753D01*
X111578D01*
Y13802D01*
X111478D01*
Y13894D01*
X111473Y13937D01*
X111467Y13979D01*
X111451Y14019D01*
X111434Y14058D01*
X111382Y14126D01*
X111272Y14237D01*
X111204Y14289D01*
X111165Y14305D01*
X111125Y14321D01*
X111083Y14327D01*
X111040Y14333D01*
X110770D01*
X110759Y14416D01*
X110722Y14505D01*
X110681Y14558D01*
D01*
D01*
D01*
X110681Y14558D01*
X111859D01*
X111901Y14564D01*
X111944Y14569D01*
X111983Y14586D01*
X111991Y14589D01*
D01*
D02*
G37*
G36*
X152540Y21550D02*
Y21050D01*
X152290Y20800D01*
X152054D01*
X151554Y20310D01*
X151534D01*
X151044Y20800D01*
X150790D01*
X150540Y21050D01*
Y21550D01*
X150790Y21800D01*
X152290D01*
X152540Y21550D01*
D02*
G37*
G36*
X149854Y23328D02*
Y21906D01*
X149622Y21811D01*
X148834Y22615D01*
Y22635D01*
X149623Y23424D01*
X149854Y23328D01*
D02*
G37*
G36*
X50248Y23328D02*
Y21906D01*
X50016Y21811D01*
X49228Y22615D01*
Y22635D01*
X50017Y23424D01*
X50248Y23328D01*
D02*
G37*
G36*
X54578D02*
Y21906D01*
X54347Y21811D01*
X53558Y22615D01*
Y22635D01*
X54347Y23424D01*
X54578Y23328D01*
D02*
G37*
G36*
X83249Y21550D02*
Y21050D01*
X82999Y20800D01*
X82762D01*
X82263Y20310D01*
X82243D01*
X81753Y20800D01*
X81499D01*
X81249Y21050D01*
Y21550D01*
X81499Y21800D01*
X82999D01*
X83249Y21550D01*
D02*
G37*
G36*
X117894D02*
Y21050D01*
X117644Y20800D01*
X117408D01*
X116908Y20310D01*
X116888D01*
X116398Y20800D01*
X116144D01*
X115894Y21050D01*
Y21550D01*
X116144Y21800D01*
X117644D01*
X117894Y21550D01*
D02*
G37*
G36*
X145422Y23328D02*
Y21905D01*
X145190Y21810D01*
X144402Y22614D01*
Y22634D01*
X145191Y23423D01*
X145422Y23328D01*
D02*
G37*
G36*
X67570Y29234D02*
Y27811D01*
X67339Y27717D01*
X66550Y28521D01*
Y28541D01*
X67339Y29330D01*
X67570Y29234D01*
D02*
G37*
G36*
X71901D02*
Y27811D01*
X71670Y27717D01*
X70881Y28521D01*
Y28541D01*
X71670Y29330D01*
X71901Y29234D01*
D02*
G37*
G36*
X76232D02*
Y27811D01*
X76000Y27717D01*
X75212Y28521D01*
Y28541D01*
X76001Y29330D01*
X76232Y29234D01*
D02*
G37*
G36*
X54578D02*
Y27811D01*
X54347Y27717D01*
X53558Y28521D01*
Y28541D01*
X54347Y29330D01*
X54578Y29234D01*
D02*
G37*
G36*
X58909D02*
Y27811D01*
X58678Y27717D01*
X57889Y28521D01*
Y28541D01*
X58678Y29330D01*
X58909Y29234D01*
D02*
G37*
G36*
X63240D02*
Y27811D01*
X63008Y27717D01*
X62220Y28521D01*
Y28541D01*
X63009Y29330D01*
X63240Y29234D01*
D02*
G37*
G36*
X80563D02*
Y27811D01*
X80331Y27717D01*
X79543Y28521D01*
Y28541D01*
X80332Y29330D01*
X80563Y29234D01*
D02*
G37*
G36*
X97885D02*
Y27811D01*
X97654Y27717D01*
X96865Y28521D01*
Y28541D01*
X97654Y29330D01*
X97885Y29234D01*
D02*
G37*
G36*
X102216D02*
Y27811D01*
X101985Y27717D01*
X101196Y28521D01*
Y28541D01*
X101985Y29330D01*
X102216Y29234D01*
D02*
G37*
G36*
X106547D02*
Y27811D01*
X106315Y27717D01*
X105527Y28521D01*
Y28541D01*
X106316Y29330D01*
X106547Y29234D01*
D02*
G37*
G36*
X84893D02*
Y27811D01*
X84662Y27717D01*
X83873Y28521D01*
Y28541D01*
X84662Y29330D01*
X84893Y29234D01*
D02*
G37*
G36*
X89224D02*
Y27811D01*
X88993Y27717D01*
X88204Y28521D01*
Y28541D01*
X88993Y29330D01*
X89224Y29234D01*
D02*
G37*
G36*
X93555D02*
Y27811D01*
X93323Y27717D01*
X92535Y28521D01*
Y28541D01*
X93324Y29330D01*
X93555Y29234D01*
D02*
G37*
G36*
X128200Y23328D02*
Y21906D01*
X127969Y21811D01*
X127180Y22615D01*
Y22635D01*
X127969Y23424D01*
X128200Y23328D01*
D02*
G37*
G36*
X132531D02*
Y21906D01*
X132300Y21811D01*
X131511Y22615D01*
Y22635D01*
X132300Y23424D01*
X132531Y23328D01*
D02*
G37*
G36*
X136862D02*
Y21906D01*
X136630Y21811D01*
X135842Y22615D01*
Y22635D01*
X136631Y23424D01*
X136862Y23328D01*
D02*
G37*
G36*
X115208D02*
Y21906D01*
X114977Y21811D01*
X114188Y22615D01*
Y22635D01*
X114977Y23424D01*
X115208Y23328D01*
D02*
G37*
G36*
X119539D02*
Y21906D01*
X119307Y21811D01*
X118519Y22615D01*
Y22635D01*
X119308Y23424D01*
X119539Y23328D01*
D02*
G37*
G36*
X123870D02*
Y21906D01*
X123638Y21811D01*
X122850Y22615D01*
Y22635D01*
X123639Y23424D01*
X123870Y23328D01*
D02*
G37*
G36*
X141192D02*
Y21906D01*
X140961Y21811D01*
X140172Y22615D01*
Y22635D01*
X140962Y23424D01*
X141192Y23328D01*
D02*
G37*
G36*
X145422Y29233D02*
Y27810D01*
X145190Y27716D01*
X144402Y28520D01*
Y28540D01*
X145191Y29329D01*
X145422Y29233D01*
D02*
G37*
G36*
X149854Y29234D02*
Y27811D01*
X149622Y27717D01*
X148834Y28521D01*
Y28541D01*
X149623Y29330D01*
X149854Y29234D01*
D02*
G37*
G36*
X50248Y29234D02*
Y27811D01*
X50016Y27717D01*
X49228Y28521D01*
Y28541D01*
X50017Y29330D01*
X50248Y29234D01*
D02*
G37*
G36*
X167218Y24366D02*
X167304Y24300D01*
X167304Y24300D01*
X167304D01*
D01*
X167062D01*
Y23298D01*
X166857D01*
X166782Y23288D01*
X166772Y23287D01*
X166749Y23278D01*
X166693Y23254D01*
X166655Y23225D01*
X166625Y23202D01*
X165925Y22502D01*
X165873Y22434D01*
X165857Y22395D01*
X165840Y22355D01*
X165835Y22313D01*
X165829Y22270D01*
Y21956D01*
X165621Y21748D01*
X165143D01*
X165061Y21830D01*
D01*
X165061D01*
X165061Y21830D01*
X165172D01*
Y23511D01*
X164935D01*
Y23670D01*
X164925Y23743D01*
X164925D01*
D01*
D01*
Y23743D01*
Y23743D01*
Y23743D01*
X165797D01*
X165840Y23748D01*
X165882Y23754D01*
X165922Y23770D01*
X165961Y23787D01*
X166029Y23839D01*
X166618Y24427D01*
X167171D01*
X167218Y24366D01*
D02*
G37*
G36*
X61167Y25094D02*
X61348D01*
X61598Y24844D01*
Y24344D01*
X61348Y24094D01*
X59848D01*
X59598Y24344D01*
Y24844D01*
X59848Y25094D01*
X60036D01*
X60597Y25644D01*
X60617D01*
X61167Y25094D01*
D02*
G37*
G36*
X169435Y26429D02*
X169745Y26119D01*
X169775Y26096D01*
X169813Y26067D01*
X169892Y26034D01*
X169977Y26023D01*
X170811D01*
X170979Y25855D01*
Y25306D01*
X170571Y24898D01*
X170457D01*
X170372Y24887D01*
X170316Y24864D01*
X170293Y24854D01*
X170264Y24832D01*
X170225Y24802D01*
X169714Y24291D01*
X169607Y24305D01*
X169465Y24286D01*
X169435Y24274D01*
Y24274D01*
Y26429D01*
X169435D01*
D01*
D01*
D02*
G37*
G36*
X84893Y52856D02*
Y51433D01*
X84662Y51339D01*
X83873Y52143D01*
Y52163D01*
X84662Y52952D01*
X84893Y52856D01*
D02*
G37*
G36*
X89224D02*
Y51433D01*
X88993Y51339D01*
X88204Y52143D01*
Y52163D01*
X88993Y52952D01*
X89224Y52856D01*
D02*
G37*
G36*
X93555D02*
Y51433D01*
X93323Y51339D01*
X92535Y52143D01*
Y52163D01*
X93324Y52952D01*
X93555Y52856D01*
D02*
G37*
G36*
X71901D02*
Y51433D01*
X71670Y51339D01*
X70881Y52143D01*
Y52163D01*
X71670Y52952D01*
X71901Y52856D01*
D02*
G37*
G36*
X76232D02*
Y51433D01*
X76000Y51339D01*
X75212Y52143D01*
Y52163D01*
X76001Y52952D01*
X76232Y52856D01*
D02*
G37*
G36*
X80563D02*
Y51433D01*
X80331Y51339D01*
X79543Y52143D01*
Y52163D01*
X80332Y52952D01*
X80563Y52856D01*
D02*
G37*
G36*
X97885D02*
Y51433D01*
X97654Y51339D01*
X96865Y52143D01*
Y52163D01*
X97654Y52952D01*
X97885Y52856D01*
D02*
G37*
G36*
X115208D02*
Y51433D01*
X114977Y51339D01*
X114188Y52143D01*
Y52163D01*
X114977Y52952D01*
X115208Y52856D01*
D02*
G37*
G36*
X119539D02*
Y51433D01*
X119307Y51339D01*
X118519Y52143D01*
Y52163D01*
X119308Y52952D01*
X119539Y52856D01*
D02*
G37*
G36*
X123870D02*
Y51433D01*
X123638Y51339D01*
X122850Y52143D01*
Y52163D01*
X123639Y52952D01*
X123870Y52856D01*
D02*
G37*
G36*
X102216D02*
Y51433D01*
X101985Y51339D01*
X101196Y52143D01*
Y52163D01*
X101985Y52952D01*
X102216Y52856D01*
D02*
G37*
G36*
X106547D02*
Y51433D01*
X106315Y51339D01*
X105527Y52143D01*
Y52163D01*
X106316Y52952D01*
X106547Y52856D01*
D02*
G37*
G36*
X110878D02*
Y51433D01*
X110646Y51339D01*
X109858Y52143D01*
Y52163D01*
X110647Y52952D01*
X110878Y52856D01*
D02*
G37*
G36*
X153870Y48750D02*
Y48730D01*
X153081Y47941D01*
X152850Y48037D01*
Y49459D01*
X153081Y49554D01*
X153870Y48750D01*
D02*
G37*
G36*
X169675Y48639D02*
X171075Y47239D01*
X171143Y47187D01*
X171183Y47170D01*
X171222Y47154D01*
X171265Y47148D01*
X171307Y47143D01*
X172671D01*
X173129Y46685D01*
Y45606D01*
X172905Y45382D01*
X172888Y45513D01*
X172833Y45645D01*
X172746Y45759D01*
X172632Y45847D01*
X172567Y45874D01*
X172214Y46227D01*
X172109Y46307D01*
X171988Y46358D01*
X171857Y46375D01*
X171566D01*
X169661Y48280D01*
Y48657D01*
X169661Y48657D01*
Y48657D01*
X169675Y48639D01*
D02*
G37*
G36*
X170275Y49239D02*
X171575Y47939D01*
X171614Y47909D01*
X171643Y47887D01*
X171666Y47877D01*
X171722Y47854D01*
X171807Y47843D01*
X175071D01*
X175629Y47285D01*
Y46813D01*
Y46813D01*
Y46813D01*
X175629D01*
X175600Y46867D01*
X175489Y47003D01*
X175354Y47114D01*
X175199Y47196D01*
X175032Y47247D01*
X174857Y47265D01*
X174683Y47247D01*
X174515Y47196D01*
X174360Y47114D01*
X174225Y47003D01*
X174114Y46867D01*
X174031Y46713D01*
X173980Y46545D01*
X173963Y46370D01*
X173980Y46196D01*
X174031Y46028D01*
X174114Y45874D01*
X174225Y45738D01*
X174360Y45627D01*
X174515Y45544D01*
X174667Y45498D01*
D01*
D01*
X174207D01*
X174122Y45487D01*
X174066Y45464D01*
X174043Y45454D01*
X174014Y45432D01*
X173975Y45402D01*
X172902Y44329D01*
D01*
D01*
X172907Y44370D01*
X172888Y44513D01*
X172875Y44545D01*
Y44545D01*
Y44545D01*
D01*
D01*
D01*
Y44545D01*
X172900Y44548D01*
X172942Y44554D01*
X172981Y44570D01*
X173021Y44587D01*
X173089Y44639D01*
X173089Y44639D01*
X173089Y44639D01*
X173689Y45239D01*
X173711Y45268D01*
X173741Y45307D01*
X173757Y45346D01*
X173774Y45386D01*
X173779Y45428D01*
X173785Y45470D01*
Y46820D01*
X173774Y46905D01*
X173741Y46984D01*
X173689Y47052D01*
X173039Y47702D01*
X172971Y47754D01*
X172931Y47771D01*
X172892Y47787D01*
X172850Y47793D01*
X172807Y47798D01*
X171443D01*
X170235Y49006D01*
Y49291D01*
X170235Y49291D01*
Y49291D01*
X170275Y49239D01*
D02*
G37*
G36*
X141192Y46951D02*
Y45528D01*
X140961Y45433D01*
X140172Y46237D01*
Y46257D01*
X140962Y47046D01*
X141192Y46951D01*
D02*
G37*
G36*
X170835Y51341D02*
X170853Y51297D01*
Y50220D01*
X170870Y50090D01*
X170921Y49968D01*
X171001Y49863D01*
X172100Y48764D01*
X172205Y48684D01*
X172327Y48633D01*
X172457Y48616D01*
X172457Y48616D01*
X175248D01*
X176203Y47662D01*
Y47634D01*
D01*
D01*
X176203D01*
X176189Y47652D01*
X175439Y48402D01*
X175371Y48454D01*
X175331Y48471D01*
X175292Y48487D01*
X175250Y48493D01*
X175207Y48498D01*
X171943D01*
X170835Y49606D01*
Y51341D01*
D01*
D02*
G37*
G36*
X113136Y48716D02*
X113317D01*
X113567Y48466D01*
Y47966D01*
X113317Y47716D01*
X111817D01*
X111567Y47966D01*
Y48466D01*
X111817Y48716D01*
X112005D01*
X112566Y49266D01*
X112586D01*
X113136Y48716D01*
D02*
G37*
G36*
X145422Y52855D02*
Y51432D01*
X145190Y51338D01*
X144402Y52142D01*
Y52162D01*
X145191Y52951D01*
X145422Y52855D01*
D02*
G37*
G36*
X58909Y52856D02*
Y51433D01*
X58678Y51339D01*
X57889Y52143D01*
Y52163D01*
X58678Y52952D01*
X58909Y52856D01*
D02*
G37*
G36*
X63240D02*
Y51433D01*
X63008Y51339D01*
X62220Y52143D01*
Y52163D01*
X63009Y52952D01*
X63240Y52856D01*
D02*
G37*
G36*
X67570D02*
Y51433D01*
X67339Y51339D01*
X66550Y52143D01*
Y52163D01*
X67339Y52952D01*
X67570Y52856D01*
D02*
G37*
G36*
X149854Y52856D02*
Y51433D01*
X149622Y51339D01*
X148834Y52143D01*
Y52163D01*
X149623Y52952D01*
X149854Y52856D01*
D02*
G37*
G36*
X50248Y52856D02*
Y51433D01*
X50016Y51339D01*
X49228Y52143D01*
Y52163D01*
X50017Y52952D01*
X50248Y52856D01*
D02*
G37*
G36*
X54578D02*
Y51433D01*
X54347Y51339D01*
X53558Y52143D01*
Y52163D01*
X54347Y52952D01*
X54578Y52856D01*
D02*
G37*
G36*
X111522Y68860D02*
X110718Y68071D01*
X110698D01*
X109909Y68860D01*
X110005Y69091D01*
X111428D01*
X111522Y68860D01*
D02*
G37*
G36*
X124515D02*
X123711Y68071D01*
X123691D01*
X122902Y68860D01*
X122997Y69091D01*
X124420D01*
X124515Y68860D01*
D02*
G37*
G36*
X137507D02*
X136703Y68071D01*
X136683D01*
X135894Y68860D01*
X135989Y69091D01*
X137412D01*
X137507Y68860D01*
D02*
G37*
G36*
X72546D02*
X71742Y68071D01*
X71722D01*
X70933Y68860D01*
X71029Y69091D01*
X72452D01*
X72546Y68860D01*
D02*
G37*
G36*
X85538D02*
X84734Y68071D01*
X84714D01*
X83925Y68860D01*
X84021Y69091D01*
X85444D01*
X85538Y68860D01*
D02*
G37*
G36*
X98530D02*
X97726Y68071D01*
X97706D01*
X96917Y68860D01*
X97013Y69091D01*
X98436D01*
X98530Y68860D01*
D02*
G37*
G36*
X65964Y68870D02*
X65160Y68081D01*
X65140D01*
X64351Y68870D01*
X64447Y69101D01*
X65869D01*
X65964Y68870D01*
D02*
G37*
G36*
X117932D02*
X117128Y68081D01*
X117108D01*
X116319Y68870D01*
X116415Y69101D01*
X117838D01*
X117932Y68870D01*
D02*
G37*
G36*
X130925D02*
X130121Y68081D01*
X130101D01*
X129312Y68870D01*
X129407Y69101D01*
X130830D01*
X130925Y68870D01*
D02*
G37*
G36*
X143917D02*
X143113Y68081D01*
X143093D01*
X142304Y68870D01*
X142399Y69101D01*
X143822D01*
X143917Y68870D01*
D02*
G37*
G36*
X78956D02*
X78152Y68081D01*
X78132D01*
X77343Y68870D01*
X77439Y69101D01*
X78862D01*
X78956Y68870D01*
D02*
G37*
G36*
X91948D02*
X91144Y68081D01*
X91124D01*
X90335Y68870D01*
X90431Y69101D01*
X91854D01*
X91948Y68870D01*
D02*
G37*
G36*
X104940D02*
X104136Y68081D01*
X104116D01*
X103327Y68870D01*
X103423Y69101D01*
X104846D01*
X104940Y68870D01*
D02*
G37*
G36*
X141192Y52856D02*
Y51433D01*
X140961Y51339D01*
X140172Y52143D01*
Y52163D01*
X140962Y52952D01*
X141192Y52856D01*
D02*
G37*
G36*
X173156Y54130D02*
Y52032D01*
X172857Y51733D01*
Y51733D01*
X172908Y51857D01*
X172927Y52004D01*
X172908Y52152D01*
X172851Y52289D01*
X172760Y52407D01*
X172642Y52498D01*
X172601Y52515D01*
Y52515D01*
X172632Y52528D01*
X172746Y52615D01*
X172834Y52729D01*
X172889Y52862D01*
X172907Y53004D01*
X172889Y53147D01*
X172834Y53279D01*
X172746Y53393D01*
X172632Y53481D01*
X172575Y53504D01*
D01*
X172632Y53528D01*
X172746Y53615D01*
X172834Y53729D01*
X172861Y53794D01*
X173064Y53997D01*
X173144Y54102D01*
X173156Y54130D01*
D01*
D02*
G37*
G36*
X126128Y54622D02*
X126309D01*
X126559Y54372D01*
Y53872D01*
X126309Y53622D01*
X124809D01*
X124559Y53872D01*
Y54372D01*
X124809Y54622D01*
X124997D01*
X125558Y55172D01*
X125578D01*
X126128Y54622D01*
D02*
G37*
G36*
X128200Y52856D02*
Y51433D01*
X127969Y51339D01*
X127180Y52143D01*
Y52163D01*
X127969Y52952D01*
X128200Y52856D01*
D02*
G37*
G36*
X132531D02*
Y51433D01*
X132300Y51339D01*
X131511Y52143D01*
Y52163D01*
X132300Y52952D01*
X132531Y52856D01*
D02*
G37*
G36*
X136862D02*
Y51433D01*
X136630Y51339D01*
X135842Y52143D01*
Y52163D01*
X136631Y52952D01*
X136862Y52856D01*
D02*
G37*
G36*
X172203Y55212D02*
Y54870D01*
X172203D01*
X172110Y54941D01*
X171988Y54991D01*
X171857Y55009D01*
X171565D01*
X171500Y55036D01*
X171357Y55054D01*
X171215Y55036D01*
X171150Y55009D01*
X170308D01*
D01*
X170916Y55616D01*
X171798D01*
X172203Y55212D01*
D02*
G37*
G36*
X166103Y67034D02*
Y63148D01*
X166103Y63148D01*
X165957Y63148D01*
X165915Y63143D01*
X165872Y63137D01*
X165793Y63104D01*
X165725Y63052D01*
X165036Y62363D01*
X165034D01*
Y62463D01*
X164180D01*
Y61608D01*
X165034D01*
Y61708D01*
X165034D01*
X165034D01*
X165034D01*
D01*
D01*
Y61708D01*
X165172Y61708D01*
X165217Y61714D01*
X165257Y61719D01*
X165303Y61738D01*
X165336Y61752D01*
X165365Y61774D01*
X165404Y61804D01*
X166093Y62493D01*
X166121D01*
Y61881D01*
X167053D01*
Y60029D01*
X166225Y59201D01*
X166145Y59097D01*
X166094Y58975D01*
X166077Y58845D01*
Y57704D01*
X165783Y57410D01*
X164712D01*
Y58288D01*
X164711D01*
Y58520D01*
X164694Y58651D01*
X164679Y58687D01*
X164644Y58773D01*
X164564Y58877D01*
X164164Y59277D01*
X164059Y59357D01*
X163938Y59408D01*
X163807Y59425D01*
X162557D01*
X162427Y59408D01*
X162391Y59393D01*
X162305Y59357D01*
X162200Y59277D01*
X161850Y58927D01*
X161770Y58823D01*
X161720Y58701D01*
X161705Y58585D01*
X161524D01*
Y57325D01*
X160390D01*
Y58633D01*
X160161D01*
Y61570D01*
X160144Y61701D01*
X160094Y61823D01*
X160014Y61927D01*
X159814Y62127D01*
X159709Y62207D01*
X159588Y62258D01*
X159457Y62275D01*
X159216D01*
X159168Y62323D01*
D01*
D01*
Y62323D01*
X159249Y62333D01*
X159370Y62384D01*
X159475Y62464D01*
X159822Y62811D01*
X160709D01*
Y62465D01*
X161702D01*
Y63252D01*
X161710Y63315D01*
X161704Y63362D01*
X161711Y63420D01*
Y65620D01*
X161694Y65751D01*
X161644Y65873D01*
X161564Y65977D01*
X160164Y67377D01*
X160059Y67457D01*
X159938Y67508D01*
X159807Y67525D01*
X153907D01*
X153907Y67525D01*
X153777Y67508D01*
X153655Y67457D01*
X153550Y67377D01*
X153100Y66927D01*
X153100D01*
D01*
Y68496D01*
X162028D01*
X162503Y68020D01*
X162504Y63315D01*
X162513Y63252D01*
Y62465D01*
X163505D01*
Y63252D01*
X163513Y63315D01*
X163511Y68052D01*
X163964Y68496D01*
X164641D01*
X166103Y67034D01*
D02*
G37*
G36*
X178607Y7603D02*
X125459D01*
D01*
X125949Y8093D01*
Y9593D01*
X125199Y10343D01*
X123699D01*
X122949Y9593D01*
Y8093D01*
X123439Y7603D01*
Y7603D01*
X65617D01*
D01*
X66107Y8093D01*
Y9593D01*
X65357Y10343D01*
X63857D01*
X63107Y9593D01*
Y8093D01*
X63597Y7603D01*
Y7603D01*
X43703D01*
Y18500D01*
X81865D01*
Y17091D01*
X80608Y15834D01*
X80142D01*
D01*
X80565Y16257D01*
X80621Y16330D01*
X80656Y16415D01*
X80668Y16506D01*
Y16570D01*
X81215D01*
Y17858D01*
X79415D01*
Y16570D01*
X79880D01*
D01*
Y16570D01*
X79623Y16314D01*
X77213D01*
X77171Y16308D01*
X77129Y16302D01*
X77089Y16286D01*
X77049Y16270D01*
X77011Y16240D01*
X76982Y16218D01*
X76478Y15714D01*
X75696D01*
D01*
X76132Y16150D01*
X76188Y16223D01*
X76224Y16309D01*
X76236Y16400D01*
Y16570D01*
X76884D01*
Y17858D01*
X75085D01*
Y16570D01*
X75530D01*
Y16546D01*
X75197Y16214D01*
X75013D01*
X74929Y16202D01*
X74873Y16179D01*
X74849Y16170D01*
X74820Y16147D01*
X74782Y16118D01*
X74023Y15359D01*
X74011Y15344D01*
X74011Y15344D01*
Y15344D01*
Y15344D01*
X74011D01*
X74009Y15347D01*
X73987Y15376D01*
X73237Y16126D01*
X73169Y16178D01*
X73129Y16195D01*
X73090Y16211D01*
X73047Y16217D01*
X73005Y16222D01*
X72435D01*
X72087Y16570D01*
Y16570D01*
Y16570D01*
Y16570D01*
X72553D01*
Y17858D01*
X70754D01*
Y16570D01*
X71301D01*
Y16505D01*
X71313Y16413D01*
X71348Y16328D01*
X71404Y16255D01*
X71945Y15714D01*
Y15714D01*
X70785D01*
X70263Y16235D01*
X70190Y16292D01*
X70105Y16327D01*
X70013Y16339D01*
X67993D01*
X67762Y16570D01*
Y16570D01*
Y16570D01*
Y16570D01*
X68222D01*
Y17858D01*
X66423D01*
Y16570D01*
X66970D01*
Y16510D01*
X66982Y16419D01*
X67017Y16334D01*
X67073Y16261D01*
X67537Y15797D01*
X67583Y15736D01*
X67657Y15680D01*
X67696Y15664D01*
Y15664D01*
D01*
D01*
X66843D01*
X66257Y16250D01*
X66184Y16306D01*
X66099Y16341D01*
X66008Y16353D01*
X63649D01*
X63431Y16570D01*
D01*
D01*
Y16570D01*
X63892D01*
Y17858D01*
X62093D01*
Y16570D01*
X62639D01*
Y16510D01*
X62651Y16419D01*
X62686Y16334D01*
X62742Y16261D01*
X63253Y15750D01*
X63326Y15694D01*
X63411Y15659D01*
X63502Y15647D01*
X63502D01*
X63502D01*
X65862D01*
X66370Y15139D01*
X66370Y15139D01*
X62977D01*
X62211Y15905D01*
X62138Y15961D01*
X62053Y15996D01*
X61961Y16008D01*
X59697D01*
X59134Y16570D01*
D01*
D01*
Y16570D01*
X59561D01*
Y17858D01*
X57762D01*
Y16570D01*
X58287D01*
Y16565D01*
X58299Y16474D01*
X58334Y16389D01*
X58391Y16316D01*
X59301Y15406D01*
X59374Y15349D01*
X59459Y15314D01*
X59550Y15302D01*
X61815D01*
X62581Y14536D01*
X62611Y14513D01*
X62611Y14513D01*
X62611D01*
D01*
X59144D01*
X58107Y15550D01*
X58034Y15606D01*
X57949Y15641D01*
X57857Y15653D01*
X55687D01*
X54770Y16570D01*
D01*
D01*
Y16570D01*
X55230D01*
Y17858D01*
X53431D01*
Y16570D01*
X53978D01*
Y16510D01*
X53990Y16419D01*
X54025Y16334D01*
X54081Y16261D01*
X55291Y15050D01*
X55364Y14994D01*
X55450Y14959D01*
X55541Y14947D01*
X57711D01*
X58687Y13971D01*
X58712Y13939D01*
X58712Y13939D01*
X55371D01*
X54060Y15250D01*
X53987Y15306D01*
X53902Y15341D01*
X53810Y15353D01*
X51656D01*
X50439Y16570D01*
D01*
D01*
Y16570D01*
X50900D01*
Y17858D01*
X49100D01*
Y16570D01*
X49647D01*
Y16510D01*
X49659Y16419D01*
X49694Y16334D01*
X49750Y16261D01*
X51261Y14750D01*
X51334Y14694D01*
X51419Y14659D01*
X51510Y14647D01*
X53664D01*
X54914Y13397D01*
X54961Y13336D01*
X55034Y13280D01*
X55119Y13245D01*
X55210Y13233D01*
X68515D01*
X68986Y12763D01*
Y10786D01*
X68991Y10743D01*
X68997Y10701D01*
X69013Y10661D01*
X69029Y10622D01*
X69082Y10554D01*
X70682Y8954D01*
X70720Y8925D01*
X70749Y8902D01*
X70773Y8892D01*
X70829Y8869D01*
X70913Y8858D01*
X73313D01*
X73356Y8864D01*
X73398Y8869D01*
X73438Y8886D01*
X73477Y8902D01*
X73545Y8954D01*
X74987Y10395D01*
X75009Y10425D01*
X75039Y10463D01*
X75055Y10503D01*
X75071Y10542D01*
X75077Y10585D01*
X75083Y10627D01*
Y11118D01*
X75083D01*
D01*
D01*
X75405Y10796D01*
X75400Y10760D01*
X75418Y10629D01*
X75468Y10508D01*
X75548Y10403D01*
X75653Y10323D01*
X75774Y10273D01*
X75905Y10256D01*
X76035Y10273D01*
X76157Y10323D01*
X76261Y10403D01*
X76341Y10508D01*
X76392Y10629D01*
X76409Y10760D01*
X76392Y10890D01*
X76341Y11012D01*
X76261Y11116D01*
X76157Y11197D01*
X76035Y11247D01*
X75905Y11264D01*
X75869Y11259D01*
X75583Y11546D01*
Y11629D01*
X75613Y11704D01*
X75626Y11800D01*
Y12430D01*
X75613Y12526D01*
X75576Y12616D01*
X75517Y12692D01*
X75500Y12706D01*
X75500Y12706D01*
X75563Y12754D01*
X75563Y12754D01*
X75563Y12754D01*
X75987Y13178D01*
X76009Y13208D01*
X76039Y13246D01*
X76055Y13285D01*
X76071Y13325D01*
X76077Y13367D01*
X76078Y13372D01*
D01*
Y12948D01*
X76932D01*
Y12997D01*
X77220D01*
X77318Y13009D01*
X77409Y13047D01*
X77487Y13107D01*
X77772Y13392D01*
X77832Y13471D01*
X77870Y13562D01*
X77883Y13660D01*
Y14056D01*
X78904Y15078D01*
X80779D01*
X80877Y15090D01*
X80968Y15128D01*
X81046Y15188D01*
X81093Y15249D01*
X82510Y16667D01*
X82570Y16745D01*
X82597Y16809D01*
X82608Y16836D01*
X82621Y16934D01*
Y18500D01*
X116510D01*
Y17091D01*
X115253Y15834D01*
X114788D01*
D01*
X115210Y16257D01*
X115266Y16330D01*
X115302Y16415D01*
X115314Y16506D01*
Y16570D01*
X115860D01*
Y17858D01*
X114061D01*
Y16570D01*
X114526D01*
D01*
Y16570D01*
X114269Y16314D01*
X111859D01*
X111817Y16308D01*
X111774Y16302D01*
X111735Y16286D01*
X111695Y16270D01*
X111657Y16240D01*
X111627Y16218D01*
X111123Y15714D01*
X110341D01*
D01*
X110778Y16150D01*
X110834Y16223D01*
X110869Y16309D01*
X110881Y16400D01*
Y16570D01*
X111530D01*
Y17858D01*
X109730D01*
Y16570D01*
X110175D01*
Y16546D01*
X109843Y16214D01*
X109659D01*
X109574Y16202D01*
X109518Y16179D01*
X109495Y16170D01*
X109466Y16147D01*
X109427Y16118D01*
X108669Y15359D01*
X108657Y15344D01*
X108657Y15344D01*
Y15344D01*
Y15344D01*
X108657D01*
X108655Y15347D01*
X108632Y15376D01*
X107882Y16126D01*
X107814Y16178D01*
X107775Y16195D01*
X107735Y16211D01*
X107693Y16217D01*
X107650Y16222D01*
X107081D01*
X106733Y16570D01*
Y16570D01*
Y16570D01*
Y16570D01*
X107199D01*
Y17858D01*
X105400D01*
Y16570D01*
X105946D01*
Y16505D01*
X105958Y16413D01*
X105993Y16328D01*
X106050Y16255D01*
X106591Y15714D01*
X106591Y15714D01*
X105430D01*
X104909Y16235D01*
X104836Y16292D01*
X104750Y16327D01*
X104659Y16339D01*
X102639D01*
X102408Y16570D01*
Y16570D01*
Y16570D01*
Y16570D01*
X102868D01*
Y17858D01*
X101069D01*
Y16570D01*
X101615D01*
Y16510D01*
X101628Y16419D01*
X101663Y16334D01*
X101719Y16261D01*
X102182Y15797D01*
X102229Y15736D01*
X102302Y15680D01*
X102341Y15664D01*
Y15664D01*
D01*
D01*
X101489D01*
X100903Y16250D01*
X100830Y16306D01*
X100745Y16341D01*
X100654Y16353D01*
X98294D01*
X98077Y16570D01*
Y16570D01*
Y16570D01*
Y16570D01*
X98537D01*
Y17858D01*
X96738D01*
Y16570D01*
X97285D01*
Y16510D01*
X97297Y16419D01*
X97332Y16334D01*
X97388Y16261D01*
X97898Y15750D01*
X97972Y15694D01*
X98057Y15659D01*
X98148Y15647D01*
X98148D01*
X98148D01*
X100507D01*
X101015Y15139D01*
Y15139D01*
X97623D01*
X96857Y15905D01*
X96784Y15961D01*
X96698Y15996D01*
X96607Y16008D01*
X94342D01*
X93780Y16570D01*
Y16570D01*
Y16570D01*
Y16570D01*
X94207D01*
Y17858D01*
X92407D01*
Y16570D01*
X92933D01*
Y16565D01*
X92945Y16474D01*
X92980Y16389D01*
X93036Y16316D01*
X93946Y15406D01*
X94020Y15349D01*
X94105Y15314D01*
X94196Y15302D01*
X96461D01*
X97227Y14536D01*
X97257Y14513D01*
X97257Y14513D01*
X97257D01*
D01*
X93790D01*
X92753Y15550D01*
X92680Y15606D01*
X92595Y15641D01*
X92503Y15653D01*
X90333D01*
X89415Y16570D01*
Y16570D01*
Y16570D01*
Y16570D01*
X89876D01*
Y17858D01*
X88077D01*
Y16570D01*
X88623D01*
Y16510D01*
X88635Y16419D01*
X88671Y16334D01*
X88727Y16261D01*
X89937Y15050D01*
X90010Y14994D01*
X90095Y14959D01*
X90187Y14947D01*
X92357D01*
X93333Y13971D01*
X93358Y13939D01*
X93358Y13939D01*
X90016D01*
X88706Y15250D01*
X88632Y15306D01*
X88547Y15341D01*
X88456Y15353D01*
X86302D01*
X85085Y16570D01*
Y16570D01*
Y16570D01*
Y16570D01*
X85545D01*
Y17858D01*
X83746D01*
Y16570D01*
X84293D01*
Y16510D01*
X84305Y16419D01*
X84340Y16334D01*
X84396Y16261D01*
X85906Y14750D01*
X85979Y14694D01*
X86065Y14659D01*
X86156Y14647D01*
X88310D01*
X89559Y13397D01*
X89606Y13336D01*
X89679Y13280D01*
X89765Y13245D01*
X89856Y13233D01*
X103161D01*
X103631Y12763D01*
Y10786D01*
X103637Y10743D01*
X103642Y10701D01*
X103659Y10661D01*
X103675Y10622D01*
X103727Y10554D01*
X105327Y8954D01*
X105366Y8925D01*
X105395Y8902D01*
X105418Y8892D01*
X105474Y8869D01*
X105559Y8858D01*
X107959D01*
X108001Y8864D01*
X108044Y8869D01*
X108083Y8886D01*
X108123Y8902D01*
X108191Y8954D01*
X109632Y10395D01*
X109655Y10425D01*
X109684Y10463D01*
X109701Y10503D01*
X109717Y10542D01*
X109723Y10585D01*
X109728Y10627D01*
Y11118D01*
X109728D01*
X109728D01*
X109728D01*
X110051Y10796D01*
X110046Y10760D01*
X110063Y10629D01*
X110114Y10508D01*
X110194Y10403D01*
X110298Y10323D01*
X110420Y10273D01*
X110550Y10256D01*
X110681Y10273D01*
X110803Y10323D01*
X110907Y10403D01*
X110987Y10508D01*
X111038Y10629D01*
X111055Y10760D01*
X111038Y10890D01*
X110987Y11012D01*
X110907Y11116D01*
X110803Y11197D01*
X110681Y11247D01*
X110550Y11264D01*
X110514Y11259D01*
X110228Y11546D01*
Y11629D01*
X110259Y11704D01*
X110272Y11800D01*
Y12430D01*
X110259Y12526D01*
X110222Y12616D01*
X110163Y12692D01*
X110145Y12706D01*
X110208Y12754D01*
X110208Y12754D01*
X110208Y12754D01*
X110632Y13178D01*
X110655Y13208D01*
X110684Y13246D01*
X110701Y13285D01*
X110717Y13325D01*
X110723Y13367D01*
X110723Y13372D01*
D01*
Y12948D01*
X111578D01*
Y12997D01*
X111865D01*
X111963Y13009D01*
X112054Y13047D01*
X112133Y13107D01*
X112418Y13392D01*
X112478Y13471D01*
X112516Y13562D01*
X112529Y13660D01*
Y14056D01*
X113550Y15078D01*
X115424D01*
X115522Y15090D01*
X115613Y15128D01*
X115692Y15188D01*
X115739Y15249D01*
X117156Y16667D01*
X117156Y16667D01*
X117216Y16745D01*
X117254Y16836D01*
X117267Y16934D01*
Y18500D01*
X149100D01*
X149611Y19011D01*
X150506D01*
Y19906D01*
X151042Y20442D01*
X151156Y20328D01*
Y17091D01*
X149899Y15834D01*
X149433D01*
D01*
X149856Y16257D01*
X149912Y16330D01*
X149947Y16415D01*
X149959Y16506D01*
Y16570D01*
X150506D01*
Y17858D01*
X148707D01*
Y16570D01*
X149171D01*
D01*
Y16570D01*
X148914Y16314D01*
X146505D01*
X146462Y16308D01*
X146420Y16302D01*
X146380Y16286D01*
X146341Y16270D01*
X146302Y16240D01*
X146273Y16218D01*
X145769Y15714D01*
X144987D01*
D01*
X145424Y16150D01*
X145480Y16223D01*
X145515Y16309D01*
X145527Y16400D01*
Y16570D01*
X146074D01*
Y17857D01*
X144274D01*
Y16570D01*
X144821D01*
Y16546D01*
X144488Y16214D01*
X144305D01*
X144220Y16202D01*
X144164Y16179D01*
X144141Y16170D01*
X144111Y16147D01*
X144073Y16118D01*
X143314Y15359D01*
X143303Y15344D01*
X143303Y15344D01*
Y15344D01*
Y15344D01*
X143303D01*
X143300Y15347D01*
X143278Y15376D01*
X142528Y16126D01*
X142460Y16178D01*
X142420Y16195D01*
X142381Y16211D01*
X142338Y16217D01*
X142296Y16222D01*
X141727D01*
X141378Y16570D01*
D01*
D01*
Y16570D01*
X141844D01*
Y17858D01*
X140045D01*
Y16570D01*
X140592D01*
Y16505D01*
X140604Y16413D01*
X140639Y16328D01*
X140695Y16255D01*
X141237Y15714D01*
D01*
X140076D01*
X139554Y16235D01*
X139481Y16292D01*
X139396Y16327D01*
X139305Y16339D01*
X137285D01*
X137053Y16570D01*
D01*
D01*
Y16570D01*
X137514D01*
Y17858D01*
X135715D01*
Y16570D01*
X136261D01*
Y16510D01*
X136273Y16419D01*
X136308Y16334D01*
X136365Y16261D01*
X136828Y15797D01*
X136875Y15736D01*
X136948Y15680D01*
X136987Y15664D01*
Y15664D01*
D01*
D01*
X136135D01*
X135549Y16250D01*
X135476Y16306D01*
X135391Y16341D01*
X135299Y16353D01*
X132940D01*
X132722Y16570D01*
Y16570D01*
Y16570D01*
Y16570D01*
X133183D01*
Y17858D01*
X131384D01*
Y16570D01*
X131930D01*
Y16510D01*
X131942Y16419D01*
X131978Y16334D01*
X132034Y16261D01*
X132544Y15750D01*
X132617Y15694D01*
X132702Y15659D01*
X132794Y15647D01*
X132794D01*
X132794D01*
X135153D01*
X135661Y15139D01*
X135661D01*
X132268D01*
X131502Y15905D01*
X131429Y15961D01*
X131344Y15996D01*
X131253Y16008D01*
X128988D01*
X128371Y16626D01*
Y16626D01*
Y16626D01*
Y16626D01*
X128831D01*
Y17913D01*
X127032D01*
Y16626D01*
X127578D01*
Y16565D01*
X127590Y16474D01*
X127626Y16389D01*
X127682Y16316D01*
X128592Y15406D01*
X128665Y15349D01*
X128750Y15314D01*
X128842Y15302D01*
X131107D01*
X131872Y14536D01*
X131903Y14513D01*
X131903Y14513D01*
X131903D01*
D01*
X128435D01*
X127398Y15550D01*
X127325Y15606D01*
X127240Y15641D01*
X127149Y15653D01*
X124979D01*
X124061Y16570D01*
Y16570D01*
Y16570D01*
Y16570D01*
X124522D01*
Y17858D01*
X122722D01*
Y16570D01*
X123269D01*
Y16510D01*
X123281Y16419D01*
X123316Y16334D01*
X123372Y16261D01*
X124583Y15050D01*
X124656Y14994D01*
X124741Y14959D01*
X124832Y14947D01*
X127003D01*
X127978Y13971D01*
X128003Y13939D01*
X128003Y13939D01*
X124662D01*
X123351Y15250D01*
X123278Y15306D01*
X123193Y15341D01*
X123102Y15353D01*
X120948D01*
X119730Y16570D01*
Y16570D01*
Y16570D01*
Y16570D01*
X120191D01*
Y17858D01*
X118392D01*
Y16570D01*
X118938D01*
Y16510D01*
X118950Y16419D01*
X118986Y16334D01*
X119042Y16261D01*
X120552Y14750D01*
X120625Y14694D01*
X120710Y14659D01*
X120802Y14647D01*
X122955D01*
X124205Y13397D01*
X124252Y13336D01*
X124325Y13280D01*
X124410Y13245D01*
X124502Y13233D01*
X137807D01*
X138277Y12763D01*
Y10786D01*
X138283Y10743D01*
X138288Y10701D01*
X138304Y10661D01*
X138321Y10622D01*
X138373Y10554D01*
X139973Y8954D01*
X140011Y8925D01*
X140041Y8902D01*
X140064Y8892D01*
X140120Y8869D01*
X140205Y8858D01*
X142605D01*
X142647Y8864D01*
X142690Y8869D01*
X142729Y8886D01*
X142769Y8902D01*
X142837Y8954D01*
X144278Y10395D01*
X144300Y10425D01*
X144330Y10463D01*
X144346Y10503D01*
X144363Y10542D01*
X144368Y10585D01*
X144374Y10627D01*
Y11118D01*
X144374D01*
D01*
D01*
X144696Y10796D01*
X144692Y10760D01*
X144709Y10629D01*
X144759Y10508D01*
X144839Y10403D01*
X144944Y10323D01*
X145066Y10273D01*
X145196Y10256D01*
X145327Y10273D01*
X145448Y10323D01*
X145553Y10403D01*
X145633Y10508D01*
X145683Y10629D01*
X145700Y10760D01*
X145683Y10890D01*
X145633Y11012D01*
X145553Y11116D01*
X145448Y11197D01*
X145327Y11247D01*
X145196Y11264D01*
X145160Y11259D01*
X144874Y11546D01*
Y11629D01*
X144905Y11704D01*
X144917Y11800D01*
Y12430D01*
X144905Y12526D01*
X144868Y12616D01*
X144809Y12692D01*
X144791Y12706D01*
X144791Y12706D01*
X144854Y12754D01*
X144854Y12754D01*
X144854Y12754D01*
X145278Y13178D01*
X145300Y13208D01*
X145330Y13246D01*
X145346Y13285D01*
X145363Y13325D01*
X145368Y13367D01*
X145369Y13372D01*
D01*
Y12948D01*
X146223D01*
Y12997D01*
X146511D01*
X146609Y13009D01*
X146700Y13047D01*
X146778Y13107D01*
X147064Y13392D01*
X147124Y13471D01*
X147161Y13562D01*
X147174Y13660D01*
Y14056D01*
X148195Y15078D01*
X150070D01*
X150168Y15090D01*
X150259Y15128D01*
X150337Y15188D01*
X150384Y15249D01*
X151802Y16667D01*
X151862Y16745D01*
X151888Y16809D01*
X151899Y16836D01*
X151912Y16934D01*
Y20304D01*
X152158Y20545D01*
X152290D01*
X152388Y20564D01*
X152470Y20620D01*
X152720Y20870D01*
X152775Y20952D01*
X152795Y21050D01*
Y21342D01*
X153414Y21960D01*
X153494Y22065D01*
X153544Y22187D01*
X153561Y22317D01*
Y33324D01*
X153880Y33643D01*
X155271D01*
X157754Y31160D01*
X157784Y31137D01*
X157822Y31108D01*
X157878Y31085D01*
X157901Y31075D01*
X157911Y31074D01*
X157986Y31064D01*
X158549D01*
Y30965D01*
X159404D01*
Y31078D01*
X159863D01*
D01*
X159863Y31078D01*
X159802Y31032D01*
X159745Y30957D01*
X159708Y30870D01*
X159698Y30789D01*
X158061D01*
X157976Y30778D01*
X157897Y30745D01*
X157859Y30715D01*
X157829Y30693D01*
X157136Y30000D01*
X157100Y30004D01*
X156969Y29987D01*
X156848Y29937D01*
X156743Y29857D01*
X156663Y29752D01*
X156613Y29631D01*
X156596Y29500D01*
X156613Y29369D01*
X156663Y29248D01*
X156743Y29143D01*
X156848Y29063D01*
X156969Y29013D01*
X157100Y28996D01*
X157137Y29001D01*
D01*
Y29001D01*
X156964Y28828D01*
X156479D01*
X156457Y28857D01*
X156352Y28937D01*
X156231Y28987D01*
X156100Y29004D01*
X155969Y28987D01*
X155848Y28937D01*
X155743Y28857D01*
X155663Y28752D01*
X155613Y28631D01*
X155596Y28500D01*
X155613Y28369D01*
X155663Y28248D01*
X155743Y28143D01*
X155848Y28063D01*
X155969Y28013D01*
X156100Y27996D01*
X156231Y28013D01*
X156352Y28063D01*
X156457Y28143D01*
X156479Y28172D01*
X157059D01*
D01*
D01*
Y28172D01*
X156714Y27828D01*
X155479D01*
X155457Y27857D01*
X155352Y27937D01*
X155231Y27987D01*
X155100Y28004D01*
X154969Y27987D01*
X154848Y27937D01*
X154743Y27857D01*
X154663Y27752D01*
X154613Y27631D01*
X154596Y27500D01*
X154613Y27369D01*
X154663Y27248D01*
X154743Y27143D01*
X154848Y27063D01*
X154969Y27013D01*
X155100Y26996D01*
X155231Y27013D01*
X155352Y27063D01*
X155457Y27143D01*
X155479Y27172D01*
X156809D01*
D01*
Y27172D01*
X156464Y26828D01*
X154479D01*
X154457Y26857D01*
X154352Y26937D01*
X154231Y26987D01*
X154100Y27004D01*
X153969Y26987D01*
X153848Y26937D01*
X153743Y26857D01*
X153663Y26752D01*
X153613Y26631D01*
X153596Y26500D01*
X153613Y26369D01*
X153663Y26248D01*
X153743Y26143D01*
X153848Y26063D01*
X153969Y26013D01*
X154100Y25996D01*
X154231Y26013D01*
X154352Y26063D01*
X154457Y26143D01*
X154479Y26172D01*
X156600D01*
X156642Y26178D01*
X156685Y26183D01*
X156724Y26200D01*
X156764Y26216D01*
X156832Y26268D01*
X159752Y29188D01*
X159913D01*
X159964Y29167D01*
X160057Y29155D01*
X160530D01*
X160590Y29163D01*
X160590D01*
X160582Y29103D01*
Y28630D01*
X160594Y28537D01*
X160630Y28450D01*
X160688Y28375D01*
X160763Y28317D01*
X160850Y28281D01*
X160943Y28269D01*
X161037Y28281D01*
X161101Y28308D01*
X161165Y28281D01*
X161258Y28269D01*
X161352Y28281D01*
X161416Y28308D01*
X161480Y28281D01*
X161501Y28278D01*
X161501D01*
X161501D01*
D01*
X161501D01*
X160725Y27502D01*
X160673Y27434D01*
X160657Y27395D01*
X160640Y27355D01*
X160635Y27313D01*
X160629Y27270D01*
Y23470D01*
X160635Y23428D01*
X160640Y23386D01*
X160657Y23346D01*
X160673Y23307D01*
X160725Y23239D01*
X162972Y20992D01*
Y13886D01*
X162486Y13400D01*
X162450Y13404D01*
X162319Y13387D01*
X162198Y13337D01*
X162093Y13257D01*
X162013Y13152D01*
X161963Y13031D01*
X161946Y12900D01*
X161963Y12769D01*
X162013Y12648D01*
X162093Y12543D01*
X162198Y12463D01*
X162319Y12413D01*
X162450Y12396D01*
X162581Y12413D01*
X162702Y12463D01*
X162807Y12543D01*
X162887Y12648D01*
X162937Y12769D01*
X162954Y12900D01*
X162950Y12936D01*
X163532Y13518D01*
X163561Y13557D01*
X163584Y13586D01*
X163593Y13609D01*
X163617Y13665D01*
X163628Y13750D01*
Y21128D01*
X163617Y21212D01*
X163584Y21291D01*
X163554Y21330D01*
X163532Y21359D01*
X161285Y23606D01*
Y27135D01*
X161780Y27630D01*
D01*
Y27108D01*
X162634D01*
Y27180D01*
X162634D01*
X162634D01*
X162634D01*
X162779Y27035D01*
Y25202D01*
X162660D01*
Y24533D01*
Y24433D01*
X162634D01*
Y24533D01*
X161780D01*
Y23678D01*
X162634D01*
Y23778D01*
X162660D01*
Y23639D01*
X163554D01*
Y23778D01*
X164036D01*
X164279Y23535D01*
Y23511D01*
X164042D01*
Y21830D01*
X164279D01*
Y21820D01*
X164285Y21778D01*
X164290Y21736D01*
X164307Y21696D01*
X164323Y21657D01*
X164375Y21589D01*
X164775Y21189D01*
X164805Y21166D01*
X164843Y21137D01*
X164899Y21113D01*
X164922Y21104D01*
X164932Y21103D01*
X165007Y21093D01*
X165757D01*
X165800Y21098D01*
X165842Y21104D01*
X165881Y21120D01*
X165921Y21137D01*
X165989Y21189D01*
X166389Y21589D01*
X166411Y21618D01*
X166441Y21657D01*
X166464Y21712D01*
X166474Y21736D01*
X166475Y21746D01*
X166485Y21820D01*
Y22135D01*
X166993Y22643D01*
X168857D01*
X168900Y22648D01*
X168942Y22654D01*
X168981Y22670D01*
X169021Y22687D01*
X169089Y22739D01*
X169561Y23211D01*
X169607Y23205D01*
X169749Y23224D01*
X169882Y23279D01*
X169996Y23366D01*
X170083Y23480D01*
X170138Y23613D01*
X170157Y23755D01*
X170151Y23801D01*
X170593Y24243D01*
X170707D01*
X170750Y24248D01*
X170792Y24254D01*
X170831Y24270D01*
X170871Y24287D01*
X170939Y24339D01*
X171539Y24939D01*
X171562Y24968D01*
X171591Y25007D01*
X171607Y25046D01*
X171624Y25086D01*
X171629Y25128D01*
X171635Y25170D01*
Y25990D01*
X171629Y26033D01*
X171624Y26075D01*
X171607Y26115D01*
X171591Y26154D01*
X171565Y26188D01*
X171539Y26222D01*
X171179Y26582D01*
X171111Y26634D01*
X171071Y26651D01*
X171032Y26667D01*
X170990Y26673D01*
X170947Y26678D01*
X170113D01*
X168113Y28678D01*
D01*
X168113D01*
X168113Y28678D01*
X169280D01*
Y28578D01*
X170134D01*
Y29433D01*
X169280D01*
Y29333D01*
X168108D01*
X166433Y31008D01*
X166365Y31060D01*
X166326Y31076D01*
X166321Y31078D01*
X166321Y31078D01*
X166743D01*
X166785Y31084D01*
X166827Y31089D01*
X166867Y31106D01*
X166906Y31122D01*
X166974Y31174D01*
X166974Y31174D01*
X166974Y31174D01*
X167343Y31543D01*
X167463D01*
X167463D01*
Y30439D01*
X168751D01*
Y31543D01*
X169407D01*
X169450Y31548D01*
X169492Y31554D01*
X169531Y31570D01*
X169571Y31587D01*
X169639Y31639D01*
X169939Y31939D01*
X169991Y32007D01*
X170007Y32046D01*
X170021Y32078D01*
X170134D01*
Y32933D01*
X169280D01*
Y32207D01*
X169271Y32198D01*
X168751D01*
Y33302D01*
X167463D01*
Y32198D01*
X167207D01*
X167122Y32187D01*
X167043Y32154D01*
X167005Y32125D01*
X166975Y32102D01*
X166607Y31734D01*
X166434D01*
D01*
X166989Y32289D01*
X167012Y32318D01*
X167041Y32357D01*
X167057Y32396D01*
X167074Y32436D01*
X167079Y32478D01*
X167085Y32520D01*
Y35035D01*
X167463Y35413D01*
D01*
Y34376D01*
X168751D01*
Y35461D01*
X169253D01*
X169280Y35434D01*
Y34708D01*
X170134D01*
Y35563D01*
X170021D01*
X170007Y35595D01*
X169991Y35634D01*
X169939Y35702D01*
X169620Y36021D01*
X169552Y36073D01*
X169513Y36089D01*
X169473Y36106D01*
X169431Y36111D01*
X169389Y36117D01*
X168751D01*
Y37239D01*
X167463D01*
Y36117D01*
X167376D01*
X167333Y36111D01*
X167291Y36106D01*
X167251Y36089D01*
X167212Y36073D01*
X167144Y36021D01*
X166535Y35412D01*
X166535D01*
D01*
Y37120D01*
X166524Y37205D01*
X166501Y37261D01*
X166491Y37284D01*
X166468Y37314D01*
X166439Y37352D01*
X165401Y38390D01*
X165333Y38442D01*
X165294Y38458D01*
X165254Y38475D01*
X165212Y38480D01*
X165170Y38486D01*
X164555D01*
X163422Y39619D01*
Y40233D01*
X163417Y40275D01*
X163411Y40318D01*
X163395Y40357D01*
X163378Y40397D01*
X163326Y40465D01*
X161999Y41792D01*
X161931Y41844D01*
X161892Y41860D01*
X161852Y41877D01*
X161810Y41882D01*
X161768Y41888D01*
X160753D01*
X160239Y42402D01*
X160171Y42454D01*
X160131Y42471D01*
X160092Y42487D01*
X160050Y42493D01*
X160007Y42498D01*
X159028D01*
X159028D01*
X159079Y42565D01*
X159116Y42654D01*
X159128Y42750D01*
Y43380D01*
X159116Y43476D01*
X159104Y43504D01*
X159343Y43743D01*
X161493D01*
X162397Y42839D01*
X162435Y42809D01*
X162465Y42787D01*
X162488Y42777D01*
X162544Y42754D01*
X162629Y42743D01*
X166707D01*
X166750Y42748D01*
X166792Y42754D01*
X166831Y42770D01*
X166871Y42787D01*
X166909Y42816D01*
X169507D01*
X169605Y42835D01*
X169687Y42890D01*
X170300Y43503D01*
X170353Y43481D01*
X170457Y43467D01*
X170457Y43467D01*
X170987D01*
X171082Y43394D01*
X171139Y43370D01*
Y43370D01*
D01*
D01*
D01*
X171082Y43347D01*
X170968Y43259D01*
X170881Y43145D01*
X170826Y43013D01*
X170807Y42870D01*
X170826Y42728D01*
X170881Y42595D01*
X170968Y42482D01*
X171082Y42394D01*
X171147Y42367D01*
X171500Y42014D01*
X171605Y41934D01*
X171727Y41883D01*
X171812Y41872D01*
Y41825D01*
X172902D01*
Y41866D01*
X173307D01*
X173438Y41883D01*
X173559Y41934D01*
X173664Y42014D01*
X175366Y43716D01*
X175857D01*
X175988Y43733D01*
X176109Y43784D01*
X176214Y43864D01*
X177064Y44714D01*
X177144Y44818D01*
X177194Y44940D01*
X177211Y45070D01*
X177211Y45070D01*
Y47870D01*
X177194Y48001D01*
X177144Y48123D01*
X177064Y48227D01*
X175814Y49477D01*
X175709Y49557D01*
X175588Y49608D01*
X175457Y49625D01*
X175005D01*
D01*
X175032Y49627D01*
X175200Y49678D01*
X175354Y49761D01*
X175490Y49872D01*
X175601Y50008D01*
X175683Y50162D01*
X175734Y50330D01*
X175752Y50504D01*
X175734Y50679D01*
X175683Y50846D01*
X175601Y51001D01*
X175490Y51137D01*
X175354Y51248D01*
X175200Y51330D01*
X175032Y51381D01*
X174857Y51398D01*
X174683Y51381D01*
X174515Y51330D01*
X174361Y51248D01*
X174225Y51137D01*
X174114Y51001D01*
X174031Y50846D01*
X173981Y50679D01*
X173963Y50504D01*
X173981Y50330D01*
X174031Y50162D01*
X174114Y50008D01*
X174225Y49872D01*
X174361Y49761D01*
X174515Y49678D01*
X174683Y49627D01*
X174710Y49625D01*
D01*
D01*
X172666D01*
X171862Y50429D01*
Y50459D01*
X172903D01*
Y50508D01*
X172971Y50517D01*
X173093Y50568D01*
X173198Y50648D01*
X174017Y51467D01*
X174097Y51571D01*
X174147Y51693D01*
X174164Y51823D01*
Y54446D01*
X174164D01*
X174164D01*
X174164D01*
X174225Y54372D01*
X174361Y54261D01*
X174515Y54178D01*
X174683Y54127D01*
X174857Y54110D01*
X175032Y54127D01*
X175200Y54178D01*
X175354Y54261D01*
X175490Y54372D01*
X175601Y54508D01*
X175683Y54662D01*
X175734Y54830D01*
X175752Y55004D01*
X175734Y55179D01*
X175683Y55346D01*
X175601Y55501D01*
X175490Y55637D01*
X175354Y55748D01*
X175200Y55830D01*
X175032Y55881D01*
X174857Y55898D01*
X174683Y55881D01*
X174515Y55830D01*
X174361Y55748D01*
X174225Y55637D01*
X174164Y55562D01*
X174164Y55562D01*
Y55562D01*
Y56318D01*
X174164Y56318D01*
X174147Y56448D01*
X174097Y56570D01*
X174017Y56674D01*
X172614Y58077D01*
X172509Y58157D01*
X172388Y58208D01*
X172257Y58225D01*
X169457D01*
X169327Y58208D01*
X169291Y58193D01*
X169205Y58157D01*
X169100Y58077D01*
X168548Y57525D01*
X167557D01*
X167427Y57508D01*
X167305Y57457D01*
X167200Y57377D01*
X166225Y56401D01*
X166145Y56297D01*
X166094Y56175D01*
X166077Y56045D01*
Y55539D01*
X166094Y55409D01*
X166145Y55287D01*
X166164Y55262D01*
Y54955D01*
X166999D01*
Y55262D01*
X167018Y55287D01*
X167069Y55409D01*
X167086Y55539D01*
Y55836D01*
X167215Y55966D01*
D01*
Y55817D01*
X167196Y55792D01*
X167146Y55670D01*
X167128Y55539D01*
Y54945D01*
X167146Y54814D01*
X167196Y54693D01*
X167276Y54588D01*
X167700Y54164D01*
X167805Y54084D01*
X167927Y54033D01*
X168057Y54016D01*
X168990D01*
D01*
Y54016D01*
X168800Y53827D01*
X168720Y53723D01*
X168670Y53601D01*
X168653Y53470D01*
Y48071D01*
X168670Y47940D01*
X168720Y47819D01*
X168800Y47714D01*
X170854Y45661D01*
X170881Y45595D01*
X170968Y45482D01*
X171082Y45394D01*
X171139Y45370D01*
Y45370D01*
D01*
D01*
D01*
X171082Y45347D01*
X170987Y45274D01*
X170457D01*
X170457Y45274D01*
X170375Y45263D01*
X169663Y45975D01*
X169581Y46030D01*
X169483Y46049D01*
X166777D01*
X166771Y46054D01*
X166731Y46071D01*
X166692Y46087D01*
X166650Y46093D01*
X166607Y46098D01*
X162657D01*
X162615Y46093D01*
X162572Y46087D01*
X162533Y46071D01*
X162493Y46054D01*
X162455Y46025D01*
X162425Y46002D01*
X161471Y45048D01*
X159207D01*
X159165Y45043D01*
X159122Y45037D01*
X159083Y45021D01*
X159043Y45004D01*
X159009Y44978D01*
X158975Y44952D01*
X158025Y44002D01*
X157973Y43934D01*
X157957Y43895D01*
X157940Y43855D01*
X157935Y43813D01*
X157929Y43770D01*
Y43707D01*
X157929Y43707D01*
X157853Y43739D01*
X157757Y43752D01*
X157661Y43739D01*
X157571Y43702D01*
X157495Y43643D01*
X157436Y43566D01*
X157398Y43476D01*
X157387Y43393D01*
X157257D01*
X157172Y43382D01*
X157093Y43349D01*
X157055Y43320D01*
X157027Y43299D01*
X157027Y43299D01*
D01*
D01*
Y43333D01*
X156173D01*
Y43233D01*
X156158D01*
X155189Y44202D01*
X155121Y44254D01*
X155081Y44271D01*
X155042Y44287D01*
X155000Y44293D01*
X154957Y44298D01*
X153893D01*
X153561Y44636D01*
Y48061D01*
X153923Y48422D01*
X160114D01*
X160127Y48409D01*
Y48409D01*
X156732D01*
Y47043D01*
X158272D01*
Y46689D01*
X158136Y46552D01*
X158100Y46557D01*
X157969Y46540D01*
X157848Y46490D01*
X157743Y46409D01*
X157663Y46305D01*
X157613Y46183D01*
X157596Y46053D01*
X157613Y45922D01*
X157663Y45801D01*
X157743Y45696D01*
X157848Y45616D01*
X157969Y45566D01*
X158100Y45548D01*
X158231Y45566D01*
X158352Y45616D01*
X158457Y45696D01*
X158537Y45801D01*
X158587Y45922D01*
X158600Y46020D01*
D01*
X158613Y45922D01*
X158663Y45801D01*
X158743Y45696D01*
X158848Y45616D01*
X158969Y45566D01*
X159100Y45548D01*
X159231Y45566D01*
X159352Y45616D01*
X159457Y45696D01*
X159537Y45801D01*
X159587Y45922D01*
X159600Y46020D01*
D01*
X159613Y45922D01*
X159663Y45801D01*
X159743Y45696D01*
X159848Y45616D01*
X159969Y45566D01*
X160100Y45548D01*
X160231Y45566D01*
X160352Y45616D01*
X160457Y45696D01*
X160537Y45801D01*
X160587Y45922D01*
X160600Y46020D01*
D01*
X160613Y45922D01*
X160663Y45801D01*
X160743Y45696D01*
X160848Y45616D01*
X160969Y45566D01*
X161100Y45548D01*
X161231Y45566D01*
X161352Y45616D01*
X161457Y45696D01*
X161537Y45801D01*
X161587Y45922D01*
X161604Y46053D01*
X161587Y46183D01*
X161537Y46305D01*
X161457Y46409D01*
X161352Y46490D01*
X161231Y46540D01*
X161100Y46557D01*
X161064Y46552D01*
X160573Y47043D01*
Y47043D01*
Y47043D01*
Y47043D01*
X160968D01*
Y47399D01*
X161226D01*
X161269Y47404D01*
X161311Y47410D01*
X161351Y47426D01*
X161390Y47442D01*
X161458Y47495D01*
X161682Y47718D01*
X161704Y47748D01*
X161734Y47786D01*
X161757Y47842D01*
X161767Y47865D01*
X161768Y47875D01*
X161778Y47950D01*
Y48008D01*
X161877D01*
Y48862D01*
X161023D01*
Y48054D01*
X160968D01*
Y48409D01*
X160927D01*
X160917Y48485D01*
X160884Y48564D01*
X160832Y48632D01*
X160482Y48982D01*
X160414Y49034D01*
X160374Y49050D01*
X160335Y49067D01*
X160292Y49072D01*
X160250Y49078D01*
X153906D01*
X153561Y49429D01*
Y65962D01*
X154116Y66516D01*
X159598D01*
X160703Y65412D01*
Y63819D01*
X159613D01*
X159482Y63802D01*
X159360Y63752D01*
X159256Y63672D01*
X159093Y63509D01*
X159093D01*
D01*
Y63759D01*
X158121D01*
Y63098D01*
X158057D01*
X157972Y63087D01*
X157916Y63064D01*
X157893Y63054D01*
X157864Y63032D01*
X157825Y63002D01*
X157186Y62363D01*
X157034D01*
Y62463D01*
X156180D01*
Y61608D01*
X157034D01*
Y61708D01*
X157322D01*
X157364Y61713D01*
X157407Y61719D01*
X157446Y61735D01*
X157486Y61752D01*
X157554Y61804D01*
X158103Y62353D01*
D01*
Y62170D01*
X158120Y62040D01*
X158121Y62038D01*
Y61881D01*
X158199D01*
X158250Y61814D01*
X158650Y61414D01*
X158755Y61334D01*
X158841Y61298D01*
X158877Y61283D01*
X159007Y61266D01*
X159153D01*
Y58633D01*
X159024D01*
Y58248D01*
X158158D01*
Y58248D01*
X158161Y58270D01*
X158144Y58401D01*
X158094Y58523D01*
X158014Y58627D01*
X157909Y58707D01*
X157788Y58758D01*
X157657Y58775D01*
X157527Y58758D01*
X157405Y58707D01*
X157300Y58627D01*
X157220Y58523D01*
X157170Y58401D01*
X157153Y58270D01*
X157170Y58140D01*
X157220Y58018D01*
X157300Y57914D01*
X157329Y57892D01*
Y57471D01*
X157329Y57470D01*
Y57453D01*
X157240D01*
Y56823D01*
Y56733D01*
X157124D01*
Y56852D01*
X156230D01*
Y55959D01*
X157124D01*
Y56078D01*
X157240D01*
Y55988D01*
X158074D01*
Y56618D01*
Y57424D01*
X158243Y57593D01*
X159024D01*
Y57208D01*
X159211D01*
X159220Y57140D01*
X159270Y57018D01*
X159350Y56914D01*
X159800Y56464D01*
X159905Y56384D01*
X160027Y56333D01*
X160157Y56316D01*
X163148D01*
X163602Y55862D01*
Y55308D01*
X164712D01*
Y56401D01*
X165992D01*
X166123Y56418D01*
X166244Y56469D01*
X166349Y56549D01*
X166938Y57138D01*
X167018Y57243D01*
X167069Y57364D01*
X167086Y57495D01*
Y58636D01*
X167914Y59464D01*
X167994Y59568D01*
X168044Y59690D01*
X168061Y59820D01*
Y62420D01*
X168044Y62551D01*
X168029Y62587D01*
X167994Y62673D01*
X167914Y62777D01*
X167514Y63177D01*
X167409Y63257D01*
X167288Y63308D01*
X167157Y63325D01*
X167111D01*
Y67243D01*
X167094Y67373D01*
X167044Y67495D01*
X166964Y67600D01*
X165207Y69357D01*
X165102Y69437D01*
X164981Y69487D01*
X164850Y69504D01*
X153100D01*
Y78097D01*
X178607D01*
Y7603D01*
D02*
G37*
G36*
X163802Y68694D02*
X162998Y67906D01*
X162978D01*
X162189Y68695D01*
X162285Y68926D01*
X163707D01*
X163802Y68694D01*
D02*
G37*
G36*
X173156Y56109D02*
Y55644D01*
X173144Y55673D01*
X173064Y55777D01*
X172364Y56477D01*
X172259Y56557D01*
X172138Y56608D01*
X172007Y56625D01*
X170707D01*
X170577Y56608D01*
X170455Y56557D01*
X170350Y56477D01*
X168898Y55025D01*
X168266D01*
X168137Y55154D01*
Y55539D01*
X168120Y55670D01*
X168069Y55792D01*
X168050Y55817D01*
Y56124D01*
X167374D01*
D01*
X167766Y56516D01*
X168757D01*
X168888Y56533D01*
X169009Y56584D01*
X169114Y56664D01*
X169666Y57216D01*
X172048D01*
X173156Y56109D01*
D02*
G37*
G36*
X163703Y58312D02*
Y58288D01*
X163602D01*
Y57260D01*
X163602D01*
X163488Y57308D01*
X163357Y57325D01*
X162890D01*
Y58416D01*
X163598D01*
X163703Y58312D01*
D02*
G37*
G36*
X139120Y60527D02*
X139301D01*
X139551Y60277D01*
Y59777D01*
X139301Y59527D01*
X137801D01*
X137551Y59777D01*
Y60277D01*
X137801Y60527D01*
X137989D01*
X138550Y61077D01*
X138570D01*
X139120Y60527D01*
D02*
G37*
G36*
X132531Y41045D02*
Y39622D01*
X132300Y39528D01*
X131511Y40332D01*
Y40352D01*
X132300Y41141D01*
X132531Y41045D01*
D02*
G37*
G36*
X136862D02*
Y39622D01*
X136630Y39528D01*
X135842Y40332D01*
Y40352D01*
X136631Y41141D01*
X136862Y41045D01*
D02*
G37*
G36*
X141192D02*
Y39622D01*
X140961Y39528D01*
X140172Y40332D01*
Y40352D01*
X140962Y41141D01*
X141192Y41045D01*
D02*
G37*
G36*
X119539D02*
Y39622D01*
X119307Y39528D01*
X118519Y40332D01*
Y40352D01*
X119308Y41141D01*
X119539Y41045D01*
D02*
G37*
G36*
X123870D02*
Y39622D01*
X123638Y39528D01*
X122850Y40332D01*
Y40352D01*
X123639Y41141D01*
X123870Y41045D01*
D02*
G37*
G36*
X128200D02*
Y39622D01*
X127969Y39528D01*
X127180Y40332D01*
Y40352D01*
X127969Y41141D01*
X128200Y41045D01*
D02*
G37*
G36*
X153857Y43970D02*
Y43950D01*
X153068Y43161D01*
X152837Y43257D01*
Y44680D01*
X153069Y44774D01*
X153857Y43970D01*
D02*
G37*
G36*
X167042Y44872D02*
X167068Y44809D01*
Y44376D01*
X167476D01*
X167491Y44370D01*
D01*
X167491D01*
X167491D01*
X167491Y44370D01*
X167476Y44365D01*
X167068D01*
Y43895D01*
X166571Y43398D01*
X162765D01*
X161861Y44302D01*
X161793Y44354D01*
X161753Y44371D01*
X161714Y44387D01*
X161671Y44393D01*
X161639Y44397D01*
Y44397D01*
X161650Y44398D01*
X161692Y44404D01*
X161731Y44420D01*
X161771Y44437D01*
X161839Y44489D01*
X162793Y45443D01*
X166471D01*
X167042Y44872D01*
D02*
G37*
G36*
X176203Y45507D02*
Y45279D01*
X175648Y44725D01*
X175157D01*
X175027Y44708D01*
X174905Y44657D01*
X174800Y44577D01*
X173098Y42875D01*
X172902D01*
Y42916D01*
X172693D01*
X172693D01*
X172760Y42968D01*
X172851Y43086D01*
X172908Y43223D01*
X172927Y43370D01*
X172908Y43518D01*
X172897Y43543D01*
D01*
D01*
D01*
Y43543D01*
Y43543D01*
Y43543D01*
X172907D01*
X172950Y43548D01*
X172992Y43554D01*
X173031Y43570D01*
X173071Y43587D01*
X173139Y43639D01*
X174343Y44843D01*
X175407D01*
X175450Y44848D01*
X175492Y44854D01*
X175531Y44870D01*
X175571Y44887D01*
X175639Y44939D01*
X176189Y45489D01*
X176203Y45507D01*
D01*
D02*
G37*
G36*
X162003Y40860D02*
X162767Y40097D01*
Y39483D01*
X162772Y39441D01*
X162778Y39398D01*
X162794Y39359D01*
X162811Y39319D01*
X162863Y39251D01*
X164188Y37926D01*
X164256Y37874D01*
X164295Y37858D01*
X164335Y37841D01*
X164377Y37836D01*
X164420Y37830D01*
X165034D01*
X165879Y36985D01*
Y36962D01*
X165879Y36962D01*
X165389Y37452D01*
X165321Y37504D01*
X165281Y37521D01*
X165242Y37537D01*
X165200Y37543D01*
X165157Y37548D01*
X160793D01*
X160085Y38256D01*
Y38339D01*
X160954D01*
Y38458D01*
X161090D01*
Y38388D01*
X161924D01*
Y39018D01*
Y39853D01*
X161835D01*
Y40542D01*
X161864Y40564D01*
X161944Y40668D01*
X161994Y40790D01*
X162003Y40860D01*
X162003D01*
X162003D01*
X162003D01*
D02*
G37*
G36*
X100144Y42811D02*
X100325D01*
X100575Y42561D01*
Y42061D01*
X100325Y41811D01*
X98825D01*
X98575Y42061D01*
Y42561D01*
X98825Y42811D01*
X99013D01*
X99574Y43361D01*
X99594D01*
X100144Y42811D01*
D02*
G37*
G36*
X170433Y43996D02*
X169507Y43070D01*
X166707D01*
X167633Y43996D01*
X170433D01*
Y43996D01*
D02*
G37*
G36*
X115208Y41045D02*
Y39622D01*
X114977Y39528D01*
X114188Y40332D01*
Y40352D01*
X114977Y41141D01*
X115208Y41045D01*
D02*
G37*
G36*
X76232D02*
Y39622D01*
X76000Y39528D01*
X75212Y40332D01*
Y40352D01*
X76001Y41141D01*
X76232Y41045D01*
D02*
G37*
G36*
X80563D02*
Y39622D01*
X80331Y39528D01*
X79543Y40332D01*
Y40352D01*
X80332Y41141D01*
X80563Y41045D01*
D02*
G37*
G36*
X84893D02*
Y39622D01*
X84662Y39528D01*
X83873Y40332D01*
Y40352D01*
X84662Y41141D01*
X84893Y41045D01*
D02*
G37*
G36*
X63240D02*
Y39622D01*
X63008Y39528D01*
X62220Y40332D01*
Y40352D01*
X63009Y41141D01*
X63240Y41045D01*
D02*
G37*
G36*
X67570D02*
Y39622D01*
X67339Y39528D01*
X66550Y40332D01*
Y40352D01*
X67339Y41141D01*
X67570Y41045D01*
D02*
G37*
G36*
X71901D02*
Y39622D01*
X71670Y39528D01*
X70881Y40332D01*
Y40352D01*
X71670Y41141D01*
X71901Y41045D01*
D02*
G37*
G36*
X102216D02*
Y39622D01*
X101985Y39528D01*
X101196Y40332D01*
Y40352D01*
X101985Y41141D01*
X102216Y41045D01*
D02*
G37*
G36*
X106547D02*
Y39622D01*
X106315Y39528D01*
X105527Y40332D01*
Y40352D01*
X106316Y41141D01*
X106547Y41045D01*
D02*
G37*
G36*
X110878D02*
Y39622D01*
X110646Y39528D01*
X109858Y40332D01*
Y40352D01*
X110647Y41141D01*
X110878Y41045D01*
D02*
G37*
G36*
X89224D02*
Y39622D01*
X88993Y39528D01*
X88204Y40332D01*
Y40352D01*
X88993Y41141D01*
X89224Y41045D01*
D02*
G37*
G36*
X93555D02*
Y39622D01*
X93323Y39528D01*
X92535Y40332D01*
Y40352D01*
X93324Y41141D01*
X93555Y41045D01*
D02*
G37*
G36*
X97885D02*
Y39622D01*
X97654Y39528D01*
X96865Y40332D01*
Y40352D01*
X97654Y41141D01*
X97885Y41045D01*
D02*
G37*
G36*
X170533Y44744D02*
X167633D01*
X166583Y45794D01*
Y45794D01*
X169483D01*
X170533Y44744D01*
D02*
G37*
G36*
X97885Y46951D02*
Y45528D01*
X97654Y45433D01*
X96865Y46237D01*
Y46257D01*
X97654Y47046D01*
X97885Y46951D01*
D02*
G37*
G36*
X102216D02*
Y45528D01*
X101985Y45433D01*
X101196Y46237D01*
Y46257D01*
X101985Y47046D01*
X102216Y46951D01*
D02*
G37*
G36*
X106547D02*
Y45528D01*
X106315Y45433D01*
X105527Y46237D01*
Y46257D01*
X106316Y47046D01*
X106547Y46951D01*
D02*
G37*
G36*
X84893D02*
Y45528D01*
X84662Y45433D01*
X83873Y46237D01*
Y46257D01*
X84662Y47046D01*
X84893Y46951D01*
D02*
G37*
G36*
X89224D02*
Y45528D01*
X88993Y45433D01*
X88204Y46237D01*
Y46257D01*
X88993Y47046D01*
X89224Y46951D01*
D02*
G37*
G36*
X93555D02*
Y45528D01*
X93323Y45433D01*
X92535Y46237D01*
Y46257D01*
X93324Y47046D01*
X93555Y46951D01*
D02*
G37*
G36*
X110878D02*
Y45528D01*
X110646Y45433D01*
X109858Y46237D01*
Y46257D01*
X110647Y47046D01*
X110878Y46951D01*
D02*
G37*
G36*
X128200D02*
Y45528D01*
X127969Y45433D01*
X127180Y46237D01*
Y46257D01*
X127969Y47046D01*
X128200Y46951D01*
D02*
G37*
G36*
X132531D02*
Y45528D01*
X132300Y45433D01*
X131511Y46237D01*
Y46257D01*
X132300Y47046D01*
X132531Y46951D01*
D02*
G37*
G36*
X136862D02*
Y45528D01*
X136630Y45433D01*
X135842Y46237D01*
Y46257D01*
X136631Y47046D01*
X136862Y46951D01*
D02*
G37*
G36*
X115208D02*
Y45528D01*
X114977Y45433D01*
X114188Y46237D01*
Y46257D01*
X114977Y47046D01*
X115208Y46951D01*
D02*
G37*
G36*
X119539D02*
Y45528D01*
X119307Y45433D01*
X118519Y46237D01*
Y46257D01*
X119308Y47046D01*
X119539Y46951D01*
D02*
G37*
G36*
X123870D02*
Y45528D01*
X123638Y45433D01*
X122850Y46237D01*
Y46257D01*
X123639Y47046D01*
X123870Y46951D01*
D02*
G37*
G36*
X50248D02*
Y45528D01*
X50016Y45433D01*
X49228Y46237D01*
Y46257D01*
X50017Y47046D01*
X50248Y46951D01*
D02*
G37*
G36*
X63240D02*
Y45528D01*
X63008Y45433D01*
X62220Y46237D01*
Y46257D01*
X63009Y47046D01*
X63240Y46951D01*
D02*
G37*
G36*
X54578D02*
Y45528D01*
X54347Y45433D01*
X53558Y46237D01*
Y46257D01*
X54347Y47046D01*
X54578Y46951D01*
D02*
G37*
G36*
X58909D02*
Y45528D01*
X58678Y45433D01*
X57889Y46237D01*
Y46257D01*
X58678Y47046D01*
X58909Y46951D01*
D02*
G37*
G36*
X145422Y46950D02*
Y45527D01*
X145190Y45432D01*
X144402Y46236D01*
Y46256D01*
X145191Y47045D01*
X145422Y46950D01*
D02*
G37*
G36*
X149854Y46951D02*
Y45528D01*
X149622Y45433D01*
X148834Y46237D01*
Y46257D01*
X149623Y47046D01*
X149854Y46951D01*
D02*
G37*
G36*
X80563Y46951D02*
Y45528D01*
X80331Y45433D01*
X79543Y46237D01*
Y46257D01*
X80332Y47046D01*
X80563Y46951D01*
D02*
G37*
G36*
X76232D02*
Y45528D01*
X76000Y45433D01*
X75212Y46237D01*
Y46257D01*
X76001Y47046D01*
X76232Y46951D01*
D02*
G37*
G36*
X67570D02*
Y45528D01*
X67339Y45433D01*
X66550Y46237D01*
Y46257D01*
X67339Y47046D01*
X67570Y46951D01*
D02*
G37*
G36*
X71901D02*
Y45528D01*
X71670Y45433D01*
X70881Y46237D01*
Y46257D01*
X71670Y47046D01*
X71901Y46951D01*
D02*
G37*
%LPC*%
G36*
X51600Y10651D02*
X51483Y10635D01*
X51375Y10590D01*
X51281Y10519D01*
X51210Y10425D01*
X51165Y10317D01*
X51149Y10200D01*
X51165Y10083D01*
X51210Y9975D01*
X51281Y9881D01*
X51375Y9810D01*
X51483Y9765D01*
X51600Y9749D01*
X51717Y9765D01*
X51825Y9810D01*
X51919Y9881D01*
X51990Y9975D01*
X52035Y10083D01*
X52051Y10200D01*
X52035Y10317D01*
X51990Y10425D01*
X51919Y10519D01*
X51825Y10590D01*
X51717Y10635D01*
X51600Y10651D01*
D02*
G37*
G36*
X171100Y14051D02*
X170983Y14035D01*
X170875Y13990D01*
X170781Y13919D01*
X170710Y13825D01*
X170665Y13717D01*
X170649Y13600D01*
X170665Y13483D01*
X170710Y13375D01*
X170781Y13281D01*
X170875Y13210D01*
X170983Y13165D01*
X171100Y13149D01*
X171217Y13165D01*
X171325Y13210D01*
X171419Y13281D01*
X171490Y13375D01*
X171535Y13483D01*
X171551Y13600D01*
X171535Y13717D01*
X171490Y13825D01*
X171419Y13919D01*
X171325Y13990D01*
X171217Y14035D01*
X171100Y14051D01*
D02*
G37*
G36*
X172400Y72851D02*
X172283Y72835D01*
X172175Y72790D01*
X172081Y72719D01*
X172010Y72625D01*
X171965Y72517D01*
X171949Y72400D01*
X171965Y72283D01*
X172010Y72175D01*
X172081Y72081D01*
X172175Y72010D01*
X172283Y71965D01*
X172400Y71949D01*
X172517Y71965D01*
X172625Y72010D01*
X172719Y72081D01*
X172790Y72175D01*
X172835Y72283D01*
X172851Y72400D01*
X172835Y72517D01*
X172790Y72625D01*
X172719Y72719D01*
X172625Y72790D01*
X172517Y72835D01*
X172400Y72851D01*
D02*
G37*
G36*
X174857Y42765D02*
X174683Y42747D01*
X174515Y42696D01*
X174360Y42614D01*
X174225Y42503D01*
X174114Y42367D01*
X174031Y42213D01*
X173980Y42045D01*
X173963Y41870D01*
X173980Y41696D01*
X174031Y41528D01*
X174114Y41374D01*
X174225Y41238D01*
X174360Y41127D01*
X174515Y41044D01*
X174683Y40994D01*
X174857Y40976D01*
X175032Y40994D01*
X175199Y41044D01*
X175354Y41127D01*
X175489Y41238D01*
X175600Y41374D01*
X175683Y41528D01*
X175734Y41696D01*
X175751Y41870D01*
X175734Y42045D01*
X175683Y42213D01*
X175600Y42367D01*
X175489Y42503D01*
X175354Y42614D01*
X175199Y42696D01*
X175032Y42747D01*
X174857Y42765D01*
D02*
G37*
G36*
X159867Y34201D02*
X159750Y34186D01*
X159642Y34141D01*
X159548Y34069D01*
X159477Y33976D01*
X159432Y33867D01*
X159416Y33750D01*
X159432Y33634D01*
X159477Y33525D01*
X159548Y33432D01*
X159642Y33360D01*
X159750Y33315D01*
X159867Y33300D01*
X159984Y33315D01*
X160092Y33360D01*
X160186Y33432D01*
X160257Y33525D01*
X160302Y33634D01*
X160318Y33750D01*
X160302Y33867D01*
X160257Y33976D01*
X160186Y34069D01*
X160092Y34141D01*
X159984Y34186D01*
X159867Y34201D01*
D02*
G37*
G36*
X162100Y52604D02*
X161969Y52587D01*
X161848Y52537D01*
X161743Y52457D01*
X161663Y52352D01*
X161613Y52231D01*
X161600Y52133D01*
D01*
D01*
D01*
D01*
X161587Y52231D01*
X161537Y52352D01*
X161457Y52457D01*
X161352Y52537D01*
X161231Y52587D01*
X161100Y52604D01*
X160969Y52587D01*
X160848Y52537D01*
X160743Y52457D01*
X160663Y52352D01*
X160613Y52231D01*
X160600Y52133D01*
D01*
D01*
D01*
D01*
X160587Y52231D01*
X160537Y52352D01*
X160457Y52457D01*
X160352Y52537D01*
X160231Y52587D01*
X160100Y52604D01*
X159969Y52587D01*
X159848Y52537D01*
X159743Y52457D01*
X159663Y52352D01*
X159613Y52231D01*
X159600Y52133D01*
D01*
D01*
D01*
D01*
X159587Y52231D01*
X159537Y52352D01*
X159457Y52457D01*
X159352Y52537D01*
X159231Y52587D01*
X159100Y52604D01*
X158969Y52587D01*
X158848Y52537D01*
X158743Y52457D01*
X158663Y52352D01*
X158613Y52231D01*
X158600Y52133D01*
D01*
D01*
D01*
D01*
X158587Y52231D01*
X158537Y52352D01*
X158457Y52457D01*
X158352Y52537D01*
X158231Y52587D01*
X158100Y52604D01*
X157969Y52587D01*
X157848Y52537D01*
X157743Y52457D01*
X157663Y52352D01*
X157613Y52231D01*
X157600Y52133D01*
D01*
D01*
D01*
D01*
X157587Y52231D01*
X157537Y52352D01*
X157457Y52457D01*
X157352Y52537D01*
X157231Y52587D01*
X157100Y52604D01*
X156969Y52587D01*
X156848Y52537D01*
X156743Y52457D01*
X156663Y52352D01*
X156613Y52231D01*
X156600Y52133D01*
D01*
D01*
D01*
D01*
X156587Y52231D01*
X156537Y52352D01*
X156457Y52457D01*
X156352Y52537D01*
X156231Y52587D01*
X156100Y52604D01*
X155969Y52587D01*
X155848Y52537D01*
X155743Y52457D01*
X155663Y52352D01*
X155613Y52231D01*
X155596Y52100D01*
X155613Y51969D01*
X155663Y51848D01*
X155743Y51743D01*
X155848Y51663D01*
X155969Y51613D01*
X156100Y51596D01*
X156136Y51600D01*
X157272Y50464D01*
Y50457D01*
X157232D01*
Y49091D01*
X160968D01*
Y50457D01*
X160928D01*
Y50464D01*
X162064Y51600D01*
X162100Y51596D01*
X162231Y51613D01*
X162352Y51663D01*
X162457Y51743D01*
X162537Y51848D01*
X162587Y51969D01*
X162604Y52100D01*
X162587Y52231D01*
X162537Y52352D01*
X162457Y52457D01*
X162352Y52537D01*
X162231Y52587D01*
X162100Y52604D01*
D02*
G37*
G36*
X165177Y28881D02*
X165061Y28866D01*
X164952Y28821D01*
X164858Y28749D01*
X164787Y28656D01*
X164742Y28547D01*
X164726Y28430D01*
X164742Y28314D01*
X164787Y28205D01*
X164858Y28112D01*
X164952Y28040D01*
X165061Y27995D01*
X165177Y27980D01*
X165294Y27995D01*
X165403Y28040D01*
X165496Y28112D01*
X165567Y28205D01*
X165613Y28314D01*
X165628Y28430D01*
X165613Y28547D01*
X165567Y28656D01*
X165496Y28749D01*
X165403Y28821D01*
X165294Y28866D01*
X165177Y28881D01*
D02*
G37*
%LPD*%
D10*
X149606Y17214D02*
D03*
Y19655D02*
D03*
X127608Y66170D02*
D03*
Y63730D02*
D03*
X114616Y66170D02*
D03*
Y63730D02*
D03*
X101624Y66170D02*
D03*
Y63730D02*
D03*
X88631Y66170D02*
D03*
Y63730D02*
D03*
X75639Y66170D02*
D03*
Y63730D02*
D03*
X62647Y66170D02*
D03*
Y63730D02*
D03*
X130108Y63730D02*
D03*
X117116D02*
D03*
X104124D02*
D03*
X91131D02*
D03*
X78139D02*
D03*
X65147Y63730D02*
D03*
Y66170D02*
D03*
X78139Y66170D02*
D03*
X91131D02*
D03*
X104124D02*
D03*
X117116D02*
D03*
X130108D02*
D03*
X93307Y17214D02*
D03*
X97638D02*
D03*
X101968D02*
D03*
X106299D02*
D03*
X110630D02*
D03*
X114961D02*
D03*
Y19655D02*
D03*
X110630D02*
D03*
X106299D02*
D03*
X101968D02*
D03*
X97638D02*
D03*
X93307D02*
D03*
X50000Y17214D02*
D03*
X54331D02*
D03*
X58661D02*
D03*
X62992D02*
D03*
X67323D02*
D03*
X71654D02*
D03*
X75984D02*
D03*
X80315D02*
D03*
X84646D02*
D03*
X88976D02*
D03*
Y19655D02*
D03*
X84646D02*
D03*
X80315D02*
D03*
X75984D02*
D03*
X71654D02*
D03*
X67323D02*
D03*
X62992D02*
D03*
X58661D02*
D03*
X54331D02*
D03*
X50000D02*
D03*
X140600Y66170D02*
D03*
Y63730D02*
D03*
X143100Y63730D02*
D03*
Y66170D02*
D03*
X119291Y19655D02*
D03*
X123622D02*
D03*
X132283Y17214D02*
D03*
Y19655D02*
D03*
X119291Y17214D02*
D03*
X123622D02*
D03*
X127931Y17269D02*
D03*
Y19710D02*
D03*
X136614Y17214D02*
D03*
Y19655D02*
D03*
X140945Y17214D02*
D03*
Y19655D02*
D03*
X145174Y17213D02*
D03*
Y19654D02*
D03*
D11*
X162518Y28867D02*
D03*
X162203D02*
D03*
X161888D02*
D03*
X160943Y33315D02*
D03*
X162203D02*
D03*
X162518D02*
D03*
X163463D02*
D03*
X163778D02*
D03*
X164093D02*
D03*
X163148D02*
D03*
X162833D02*
D03*
X161888D02*
D03*
X161573D02*
D03*
X161258D02*
D03*
X160943Y28867D02*
D03*
X161258D02*
D03*
X161573D02*
D03*
X162833D02*
D03*
X163148D02*
D03*
X163463D02*
D03*
X163778D02*
D03*
X164093D02*
D03*
D12*
X160294Y29516D02*
D03*
Y29831D02*
D03*
Y30146D02*
D03*
Y30461D02*
D03*
Y31091D02*
D03*
Y31406D02*
D03*
X164743Y32666D02*
D03*
Y32351D02*
D03*
Y32036D02*
D03*
Y31721D02*
D03*
Y31406D02*
D03*
Y31091D02*
D03*
Y30776D02*
D03*
Y30461D02*
D03*
Y30146D02*
D03*
Y29831D02*
D03*
Y29516D02*
D03*
X160294Y32666D02*
D03*
Y32351D02*
D03*
Y32036D02*
D03*
Y31721D02*
D03*
Y30776D02*
D03*
D13*
X156607Y61406D02*
D03*
Y62035D02*
D03*
X164607Y61406D02*
D03*
Y62035D02*
D03*
X162207Y26906D02*
D03*
Y27535D02*
D03*
X76505Y12745D02*
D03*
Y13375D02*
D03*
X111150Y12745D02*
D03*
Y13375D02*
D03*
X145796Y12745D02*
D03*
Y13375D02*
D03*
X162207Y24106D02*
D03*
Y24735D02*
D03*
X169707Y35135D02*
D03*
Y34506D02*
D03*
Y29006D02*
D03*
Y29635D02*
D03*
X162518Y34620D02*
D03*
Y35250D02*
D03*
X169707Y32506D02*
D03*
Y33135D02*
D03*
X158976Y31392D02*
D03*
X161450Y48435D02*
D03*
Y49065D02*
D03*
X158976Y32022D02*
D03*
X156600Y42906D02*
D03*
Y43535D02*
D03*
D14*
X172400Y72400D02*
D03*
X171100Y13600D02*
D03*
X51600Y10200D02*
D03*
X159867Y33750D02*
D03*
X165177Y28430D02*
D03*
D15*
X124608Y64005D02*
D03*
X111616D02*
D03*
X98624D02*
D03*
X85631D02*
D03*
X72639Y64005D02*
D03*
X59647D02*
D03*
X137600Y64005D02*
D03*
D16*
X125513Y66544D02*
D03*
X112521D02*
D03*
X99529D02*
D03*
X86537D02*
D03*
X73545Y66544D02*
D03*
X60553D02*
D03*
X58742D02*
D03*
X71734D02*
D03*
X84726Y66544D02*
D03*
X97718D02*
D03*
X110710D02*
D03*
X123702D02*
D03*
X138506D02*
D03*
X136694D02*
D03*
X161206Y63315D02*
D03*
X163009D02*
D03*
D17*
X110400Y12115D02*
D03*
X109900D02*
D03*
X108400D02*
D03*
X107900D02*
D03*
X107400D02*
D03*
X106900D02*
D03*
Y14005D02*
D03*
X107900D02*
D03*
X108400D02*
D03*
X108900D02*
D03*
X109400D02*
D03*
X109900D02*
D03*
X109400Y12115D02*
D03*
X108900D02*
D03*
X110400Y14005D02*
D03*
X107400D02*
D03*
X75755Y12115D02*
D03*
X75255D02*
D03*
X74755D02*
D03*
X74255D02*
D03*
X73755D02*
D03*
X73255D02*
D03*
X72755D02*
D03*
X72255D02*
D03*
Y14005D02*
D03*
X72755D02*
D03*
X73255D02*
D03*
X73755D02*
D03*
X74255D02*
D03*
X74755D02*
D03*
X75255D02*
D03*
X75755D02*
D03*
X145046Y12115D02*
D03*
X144046D02*
D03*
X143546D02*
D03*
X143046D02*
D03*
X142546D02*
D03*
X141546D02*
D03*
Y14005D02*
D03*
X142046D02*
D03*
X142546D02*
D03*
X143046D02*
D03*
X143546D02*
D03*
X144046D02*
D03*
X145046D02*
D03*
X144546D02*
D03*
X142046Y12115D02*
D03*
X144546D02*
D03*
X157757Y43065D02*
D03*
X159257Y41176D02*
D03*
X158757D02*
D03*
X158257D02*
D03*
X157757D02*
D03*
X159257Y43065D02*
D03*
X158757D02*
D03*
X158257D02*
D03*
D18*
X157707Y34606D02*
D03*
Y35235D02*
D03*
X156557Y39435D02*
D03*
X161507Y39435D02*
D03*
X156557Y38806D02*
D03*
X161507Y38806D02*
D03*
X157657Y57035D02*
D03*
Y56406D02*
D03*
D19*
X163107Y24086D02*
D03*
Y24755D02*
D03*
X156507Y34586D02*
D03*
Y35255D02*
D03*
X157557Y39455D02*
D03*
X160507Y39455D02*
D03*
X157557Y38786D02*
D03*
X160507Y38786D02*
D03*
X158557Y39455D02*
D03*
Y38786D02*
D03*
X156677Y56406D02*
D03*
Y57075D02*
D03*
D20*
X164607Y22670D02*
D03*
Y26285D02*
D03*
D21*
X168107Y31870D02*
D03*
Y35807D02*
D03*
D22*
X167633Y43996D02*
D03*
Y44744D02*
D03*
X166924Y44370D02*
D03*
D23*
X158607Y62820D02*
D03*
X166607Y62820D02*
D03*
Y60620D02*
D03*
X158607Y60620D02*
D03*
D24*
X159707Y57920D02*
D03*
X162207Y57873D02*
D03*
Y55668D02*
D03*
X159707Y55716D02*
D03*
D25*
X164157Y56020D02*
D03*
Y57576D02*
D03*
D26*
X166581Y55539D02*
D03*
X167633D02*
D03*
Y57902D02*
D03*
X166581D02*
D03*
D27*
X162107Y60776D02*
D03*
D28*
X157100Y47726D02*
D03*
X157600D02*
D03*
X158100D02*
D03*
X158600D02*
D03*
X159100D02*
D03*
X159600D02*
D03*
X160100D02*
D03*
X160600D02*
D03*
X157100Y49774D02*
D03*
X157600D02*
D03*
X158100D02*
D03*
X158600D02*
D03*
X159100D02*
D03*
X159600D02*
D03*
X160100D02*
D03*
X160600D02*
D03*
D29*
X160007Y42170D02*
X160618Y41560D01*
X161768D01*
X157957Y42170D02*
X160007D01*
X158061Y30915D02*
X159454D01*
X159630Y31091D01*
X162518Y28013D02*
X162684D01*
X162199Y31992D02*
X162518Y31673D01*
X103634Y15311D02*
X105434Y13511D01*
Y11411D02*
Y13511D01*
Y11411D02*
X106159Y10686D01*
X107359D01*
X107900Y11227D01*
Y12115D01*
X109900Y11410D02*
X110550Y10760D01*
X109900Y11410D02*
Y12115D01*
X106900Y15895D02*
X107650D01*
X108400Y15144D01*
Y14005D02*
Y15144D01*
X106059Y11486D02*
Y12486D01*
Y11486D02*
X106359Y11186D01*
X107159D01*
X107400Y11427D01*
Y12115D01*
X105259Y15386D02*
X107224D01*
X107900Y14710D01*
Y14005D02*
Y14710D01*
X111859Y14886D02*
X112259Y15286D01*
X110159Y14886D02*
X111859D01*
X109900Y14627D02*
X110159Y14886D01*
X109900Y14005D02*
Y14627D01*
X106046Y13816D02*
X106067Y13793D01*
X106900Y12826D01*
Y12115D02*
Y12826D01*
X109659Y15886D02*
X110028D01*
X108900Y15127D02*
X109659Y15886D01*
X108900Y14005D02*
Y15127D01*
X111859Y15986D02*
X114454D01*
X111259Y15386D02*
X111859Y15986D01*
X109976Y15386D02*
X111259D01*
X109400Y14810D02*
X109976Y15386D01*
X109400Y14005D02*
Y14810D01*
X108400Y11027D02*
Y12115D01*
X107559Y10186D02*
X108400Y11027D01*
X105959Y10186D02*
X107559D01*
X104959Y11186D02*
X105959Y10186D01*
X104959Y11186D02*
Y13297D01*
X103471Y14786D02*
X104959Y13297D01*
X71401Y13816D02*
X71421Y13793D01*
X72255Y12826D01*
Y12115D02*
Y12826D01*
X71413Y11486D02*
Y12486D01*
Y11486D02*
X71713Y11186D01*
X72513D01*
X72755Y11427D01*
Y12115D01*
X75255Y11410D02*
X75905Y10760D01*
X75255Y11410D02*
Y12115D01*
X77213Y14886D02*
X77613Y15286D01*
X75513Y14886D02*
X77213D01*
X75255Y14627D02*
X75513Y14886D01*
X75255Y14005D02*
Y14627D01*
X72755Y13310D02*
Y14005D01*
Y13310D02*
X73079Y12986D01*
X75331D01*
X75755Y13410D01*
Y14005D01*
X76394D01*
X76505Y13894D01*
Y13375D02*
Y13894D01*
X108900Y10827D02*
Y12115D01*
X107759Y9686D02*
X108900Y10827D01*
X105759Y9686D02*
X107759D01*
X104459Y10986D02*
X105759Y9686D01*
X104459Y10986D02*
Y13097D01*
X103397Y14160D02*
X104459Y13097D01*
X109400Y10627D02*
Y12115D01*
X107959Y9186D02*
X109400Y10627D01*
X105559Y9186D02*
X107959D01*
X103959Y10786D02*
X105559Y9186D01*
X103959Y10786D02*
Y12898D01*
X103272Y13586D02*
X103959Y12898D01*
X74755Y14005D02*
Y14810D01*
X75331Y15386D01*
X76613D01*
X77213Y15986D01*
X79809D01*
X74255Y14005D02*
Y15127D01*
X75013Y15886D01*
X75382D01*
X73755Y14005D02*
Y15144D01*
X73005Y15895D02*
X73755Y15144D01*
X72254Y15895D02*
X73005D01*
X73255Y14005D02*
Y14710D01*
X72579Y15386D02*
X73255Y14710D01*
X70613Y15386D02*
X72579D01*
X73255Y11227D02*
Y12115D01*
X72713Y10686D02*
X73255Y11227D01*
X71513Y10686D02*
X72713D01*
X70788Y11411D02*
X71513Y10686D01*
X70788Y11411D02*
Y13511D01*
X68988Y15311D02*
X70788Y13511D01*
X73755Y11027D02*
Y12115D01*
X72913Y10186D02*
X73755Y11027D01*
X71313Y10186D02*
X72913D01*
X70313Y11186D02*
X71313Y10186D01*
X70313Y11186D02*
Y13297D01*
X68825Y14786D02*
X70313Y13297D01*
X74255Y10827D02*
Y12115D01*
X73113Y9686D02*
X74255Y10827D01*
X71113Y9686D02*
X73113D01*
X69813Y10986D02*
X71113Y9686D01*
X69813Y10986D02*
Y13097D01*
X68751Y14160D02*
X69813Y13097D01*
X74755Y10627D02*
Y12115D01*
X73313Y9186D02*
X74755Y10627D01*
X70913Y9186D02*
X73313D01*
X69313Y10786D02*
X70913Y9186D01*
X69313Y10786D02*
Y12898D01*
X68626Y13586D02*
X69313Y12898D01*
X107400Y13310D02*
Y14005D01*
Y13310D02*
X107724Y12986D01*
X109976D01*
X110400Y13410D01*
Y14005D01*
X111040D01*
X111150Y13894D01*
Y13375D02*
Y13894D01*
X146505Y15986D02*
X149100D01*
X145905Y15386D02*
X146505Y15986D01*
X144622Y15386D02*
X145905D01*
X144046Y14810D02*
X144622Y15386D01*
X144046Y14005D02*
Y14810D01*
X138280Y15311D02*
X140080Y13511D01*
Y11411D02*
Y13511D01*
Y11411D02*
X140805Y10686D01*
X142005D01*
X142546Y11227D01*
Y12115D01*
X141545Y15894D02*
X142296D01*
X143046Y15144D01*
Y14005D02*
Y15144D01*
X137917Y13586D02*
X138605Y12898D01*
Y10786D02*
Y12898D01*
Y10786D02*
X140205Y9186D01*
X142605D01*
X144046Y10627D01*
Y12115D01*
X144305Y15886D02*
X144673D01*
X143546Y15127D02*
X144305Y15886D01*
X143546Y14005D02*
Y15127D01*
X138042Y14160D02*
X139105Y13097D01*
Y10986D02*
Y13097D01*
Y10986D02*
X140405Y9686D01*
X142405D01*
X143546Y10827D01*
Y12115D01*
X139905Y15386D02*
X141870D01*
X142546Y14710D01*
Y14005D02*
Y14710D01*
X138116Y14786D02*
X139605Y13297D01*
Y11186D02*
Y13297D01*
Y11186D02*
X140605Y10186D01*
X142205D01*
X143046Y11027D01*
Y12115D01*
X140692Y13816D02*
X140713Y13793D01*
X141546Y12826D01*
Y12115D02*
Y12826D01*
X142046Y13310D02*
Y14005D01*
Y13310D02*
X142370Y12986D01*
X144622D01*
X145046Y13410D01*
Y14005D01*
X145686D01*
X145796Y13894D01*
Y13375D02*
Y13894D01*
X142046Y11427D02*
Y12115D01*
X141805Y11186D02*
X142046Y11427D01*
X141005Y11186D02*
X141805D01*
X140705Y11486D02*
X141005Y11186D01*
X144546Y14005D02*
Y14627D01*
X144805Y14886D01*
X146505D01*
X144546Y11410D02*
Y12115D01*
Y11410D02*
X145196Y10760D01*
X140705Y11486D02*
Y12486D01*
X146505Y14886D02*
X146905Y15286D01*
X164743Y32351D02*
X165437D01*
X165807Y32720D01*
Y36570D01*
X165157Y37220D02*
X165807Y36570D01*
X160657Y37220D02*
X165157D01*
X159757Y38120D02*
X160657Y37220D01*
X159757Y38120D02*
Y39270D01*
X159942Y39455D01*
X160507D01*
Y39820D01*
X160157Y40170D02*
X160507Y39820D01*
X159607Y40170D02*
X160157D01*
X159257Y40520D02*
X159607Y40170D01*
X159257Y40520D02*
Y41176D01*
X164743Y32036D02*
X165722D01*
X166207Y32520D01*
Y37120D01*
X165170Y38158D02*
X166207Y37120D01*
X164420Y38158D02*
X165170D01*
X163095Y39483D02*
X164420Y38158D01*
X163095Y39483D02*
Y40233D01*
X161768Y41560D02*
X163095Y40233D01*
X157757Y41970D02*
X157957Y42170D01*
X157757Y40420D02*
Y41970D01*
X157557Y40220D02*
X157757Y40420D01*
X157557Y39455D02*
Y40220D01*
X164743Y31721D02*
X165957D01*
X166757Y32520D01*
Y35170D01*
X167376Y35789D01*
X169389D01*
X169707Y35470D01*
Y35135D02*
Y35470D01*
X164743Y31406D02*
X166743Y31406D01*
X167207Y31870D01*
X168107Y31870D01*
X169407D01*
X169707Y32170D01*
Y32506D01*
X164237Y31091D02*
X166437D01*
X162890Y32438D02*
X164237Y31091D01*
X166437D02*
X166807Y30720D01*
X164107Y30770D02*
X164807D01*
X164743Y30776D02*
X166202D01*
X162513Y32365D02*
X164107Y30770D01*
X166202Y30776D02*
X167972Y29006D01*
X162513Y32365D02*
Y33370D01*
X167972Y29006D02*
X169707D01*
X162518Y33315D02*
Y34620D01*
X161947D02*
X162518D01*
X161332Y35235D02*
X161947Y34620D01*
X156457Y36120D02*
X157342Y35235D01*
X153107Y33970D02*
X155407D01*
X157986Y31392D01*
X154957Y43970D02*
X156022Y42906D01*
X157986Y31392D02*
X158976D01*
Y31406D02*
X161122D01*
X156607Y40970D02*
Y42906D01*
X157097D02*
X157257Y43065D01*
X161122Y31406D02*
X162207Y30320D01*
X156557Y39435D02*
Y40920D01*
X157257Y43065D02*
X157757D01*
X162207Y28867D02*
Y30320D01*
X162203Y27535D02*
Y28867D01*
X162207Y27535D02*
X162742D01*
X158057Y62770D02*
X158607D01*
X162742Y27535D02*
X163107Y27170D01*
X157322Y62035D02*
X158057Y62770D01*
X163107Y24755D02*
Y27170D01*
X161507Y39435D02*
Y40920D01*
X156607Y62035D02*
X157322D01*
X163107Y24755D02*
X164232D01*
X164917Y24070D01*
X158107Y57920D02*
X159707D01*
X164917Y24070D02*
X165797D01*
X157657Y57470D02*
X158107Y57920D01*
X165797Y24070D02*
X166482Y24755D01*
X157657Y56970D02*
Y57470D01*
X157657Y57035D02*
Y58270D01*
X166482Y24755D02*
X167607D01*
X164743Y30461D02*
X165867D01*
X169977Y26350D01*
X170947D01*
X171307Y25990D01*
Y25170D02*
Y25990D01*
X170707Y24570D02*
X171307Y25170D01*
X170457Y24570D02*
X170707D01*
X168857Y22970D02*
X170457Y24570D01*
X166857Y22970D02*
X168857D01*
X166157Y22270D02*
X166857Y22970D01*
X166157Y21820D02*
Y22270D01*
X165757Y21420D02*
X166157Y21820D01*
X165007Y21420D02*
X165757D01*
X164607Y21820D02*
X165007Y21420D01*
X164607Y21820D02*
Y22670D01*
X164607Y22613D02*
Y23670D01*
X164172Y24106D02*
X164607Y23670D01*
X162207Y24106D02*
X164172D01*
X164743Y30146D02*
X165681D01*
X169107Y26720D01*
Y24220D02*
Y26720D01*
X168607Y23720D02*
X169107Y24220D01*
X164743Y29831D02*
X165446D01*
X168623Y26655D01*
Y24697D02*
Y26655D01*
X164743Y29516D02*
X165261D01*
X168107Y26670D01*
Y24220D02*
Y26670D01*
X167607Y23720D02*
X168107Y24220D01*
X156722Y35255D02*
X157372Y34606D01*
X156507Y35255D02*
X156722D01*
X157372Y34606D02*
X157707D01*
X156507Y34170D02*
Y34586D01*
Y34170D02*
X156807Y33870D01*
X158337D01*
X159017Y34550D01*
X160457D01*
X160943Y34064D01*
Y33315D02*
Y34064D01*
X162518Y28013D02*
Y31673D01*
X161884Y28198D02*
Y28863D01*
X160957Y27270D02*
X161884Y28198D01*
X160957Y23470D02*
Y27270D01*
Y23470D02*
X163300Y21128D01*
X159630Y31091D02*
X160937D01*
X161107Y30920D01*
X162199Y31992D02*
Y33928D01*
X162057Y34070D02*
X162199Y33928D01*
X163457Y33315D02*
Y34320D01*
X164107Y34970D01*
X165107D01*
X165357Y35220D01*
Y36220D01*
X164907Y36670D02*
X165357Y36220D01*
X160407Y36670D02*
X164907D01*
X159150Y37928D02*
X160407Y36670D01*
X159150Y37928D02*
Y39178D01*
X158872Y39455D02*
X159150Y39178D01*
X158557Y39455D02*
X158872D01*
X158557Y39455D02*
Y40170D01*
X158757Y40370D01*
Y41176D01*
X158257D02*
X158757D01*
X156577Y38786D02*
X157557D01*
X160507Y38786D02*
X161487D01*
X158257Y43065D02*
Y43770D01*
X159207Y44720D01*
X161607D01*
X162657Y45770D01*
X166607D01*
X167407Y44970D01*
X167633Y44744D02*
Y44744D01*
X171357Y44870D02*
X172857D01*
X173457Y45470D01*
Y46820D01*
X172807Y47470D02*
X173457Y46820D01*
X171307Y47470D02*
X172807D01*
X169907Y48870D02*
X171307Y47470D01*
X169907Y48870D02*
Y52820D01*
X170591Y53504D01*
X171235D01*
X158757Y43065D02*
Y43620D01*
X159207Y44070D01*
X161629D01*
X162629Y43070D01*
X166707D01*
X167633Y43996D01*
X171336Y43870D02*
X172907D01*
X174207Y45170D01*
X175407D01*
X175957Y45720D01*
Y47420D01*
X175207Y48170D02*
X175957Y47420D01*
X171807Y48170D02*
X175207D01*
X170507Y49470D02*
X171807Y48170D01*
X170507Y49470D02*
Y52220D01*
X170791Y52504D01*
X171235D01*
X159257Y43065D02*
X160507D01*
X165957Y62820D02*
X166607Y62820D01*
X165172Y62035D02*
X165957Y62820D01*
X164607Y62035D02*
X165172Y62035D01*
X156677Y56406D02*
X157657D01*
X158061Y30461D02*
X160294D01*
X159616Y29516D02*
X160294D01*
X156600Y26500D02*
X159616Y29516D01*
X157100Y29500D02*
X158061Y30461D01*
X159181Y29831D02*
X160294D01*
X158746Y30146D02*
X160294D01*
X157100Y28500D02*
X158746Y30146D01*
X156100Y28500D02*
X157100D01*
X155100Y27500D02*
X156850D01*
X154100Y26500D02*
X156600D01*
X156850Y27500D02*
X159181Y29831D01*
X160100Y49774D02*
Y51100D01*
X159600Y49774D02*
Y51600D01*
X158100Y49774D02*
Y51100D01*
X157600Y49774D02*
Y50600D01*
X160600D02*
X162100Y52100D01*
X160100Y51100D02*
X161100Y52100D01*
X159600Y51600D02*
X160100Y52100D01*
X160600Y49774D02*
Y50600D01*
X156100Y52100D02*
X157600Y50600D01*
X157100Y52100D02*
X158100Y51100D01*
X159100Y49774D02*
Y52100D01*
X158600Y49774D02*
Y51600D01*
X158100Y52100D02*
X158600Y51600D01*
X160100Y47053D02*
Y47726D01*
X158600Y46553D02*
Y47726D01*
X160100Y47053D02*
X161100Y46053D01*
X158100D02*
X158600Y46553D01*
X159100Y46053D02*
Y47726D01*
X159600Y46553D02*
Y47726D01*
Y46553D02*
X160100Y46053D01*
X162450Y12900D02*
X163300Y13750D01*
Y21128D01*
X160600Y47726D02*
X161226D01*
X161450Y47950D01*
Y48435D01*
X160600Y47726D02*
Y48400D01*
X160250Y48750D02*
X160600Y48400D01*
X153107Y48750D02*
X160250D01*
X153057Y36120D02*
X156457D01*
X153057Y43970D02*
X154957D01*
X156022Y42906D02*
X157097D01*
X157342Y35235D02*
X161332D01*
D30*
X58742Y68372D02*
X59370Y69000D01*
X59647Y26567D02*
X60597Y25617D01*
Y24591D02*
Y25617D01*
X72639Y32472D02*
X73589Y31522D01*
Y30496D02*
Y31522D01*
X85632Y38378D02*
X86581Y37428D01*
Y36402D02*
Y37428D01*
X98624Y44283D02*
X99574Y43333D01*
Y42307D02*
Y43333D01*
X111616Y50189D02*
X112566Y49239D01*
Y48213D02*
Y49239D01*
X124608Y56094D02*
X125558Y55144D01*
Y54118D02*
Y55144D01*
X124608Y56094D02*
Y63005D01*
X72639Y32472D02*
Y63005D01*
X111616Y50189D02*
Y63005D01*
X85632Y38378D02*
Y63005D01*
X98624Y44283D02*
Y63005D01*
X59647Y26567D02*
Y63005D01*
X58742Y66544D02*
Y68372D01*
X65147Y66170D02*
Y68850D01*
X71734Y66544D02*
Y68850D01*
X78139Y66170D02*
Y68850D01*
X84726Y66544D02*
Y68850D01*
X91131Y66170D02*
Y68850D01*
X97718Y66544D02*
Y68850D01*
X104124Y66170D02*
Y68850D01*
X110710Y66544D02*
Y68850D01*
X117116Y66170D02*
Y68850D01*
X123702Y66544D02*
Y68850D01*
X130108Y66170D02*
Y68850D01*
X50000Y19655D02*
Y57449D01*
X49394Y58055D02*
X50000Y57449D01*
X54331Y19655D02*
Y57449D01*
X53724Y58055D02*
X54331Y57449D01*
X58661Y19655D02*
Y57449D01*
X58055Y58055D02*
X58661Y57449D01*
X62992Y19655D02*
Y57449D01*
X62386Y58055D02*
X62992Y57449D01*
X67323Y19655D02*
Y57449D01*
X66717Y58055D02*
X67323Y57449D01*
X71654Y19655D02*
Y57449D01*
X71047Y58055D02*
X71654Y57449D01*
X75984Y19655D02*
Y57449D01*
X75378Y58055D02*
X75984Y57449D01*
X80315Y19655D02*
Y57449D01*
X79709Y58055D02*
X80315Y57449D01*
X84646Y19655D02*
Y57449D01*
X84039Y58055D02*
X84646Y57449D01*
X88976Y19655D02*
Y57449D01*
X88370Y58055D02*
X88976Y57449D01*
X93307Y19655D02*
Y57449D01*
X92701Y58055D02*
X93307Y57449D01*
X97638Y19655D02*
Y57449D01*
X97031Y58055D02*
X97638Y57449D01*
X101968Y19655D02*
Y57449D01*
X101362Y58055D02*
X101968Y57449D01*
X106299Y19655D02*
Y57449D01*
X105693Y58055D02*
X106299Y57449D01*
X110630Y19655D02*
Y57449D01*
X110024Y58055D02*
X110630Y57449D01*
X114961Y19655D02*
Y57449D01*
X114354Y58055D02*
X114961Y57449D01*
X138550Y60024D02*
Y61050D01*
X137600Y62000D02*
X138550Y61050D01*
X137600Y62000D02*
Y63005D01*
X143100Y66170D02*
Y68850D01*
X136694Y66544D02*
Y68850D01*
X140339Y58055D02*
X140945Y57449D01*
X140945Y19655D02*
Y57449D01*
X136008Y58055D02*
X136614Y57449D01*
Y19655D02*
Y57449D01*
X131677Y58055D02*
X132283Y57449D01*
X127346Y58055D02*
X127953Y57449D01*
Y19655D02*
Y57449D01*
X123016Y58055D02*
X123622Y57449D01*
Y19655D02*
Y57449D01*
X118685Y58055D02*
X119291Y57449D01*
Y19655D02*
Y57449D01*
X132283Y19655D02*
Y57449D01*
X144646Y58054D02*
X145174Y57526D01*
Y19654D02*
Y57526D01*
X149600Y19606D02*
Y57400D01*
X166581Y57495D02*
Y58845D01*
X153907Y67020D02*
X159807D01*
X161207Y65620D01*
Y63420D02*
Y65620D01*
X159613Y63315D02*
X161206D01*
X159118Y62820D02*
X159613Y63315D01*
X158607Y62820D02*
X159118D01*
X158607Y62170D02*
Y62820D01*
Y62170D02*
X159007Y61770D01*
X159457D01*
X159657Y61570D01*
Y57870D02*
Y61570D01*
X159707Y57270D02*
Y57820D01*
Y57270D02*
X160157Y56820D01*
X163357D01*
X164157Y56020D01*
X172357Y54004D02*
X172707Y54354D01*
X171857Y54504D02*
X172357Y54004D01*
X172707Y54354D02*
Y55420D01*
X171357Y54504D02*
X171391Y54470D01*
X170191Y54504D02*
X171857D01*
X172007Y56120D02*
X172707Y55420D01*
X169157Y53470D02*
X170191Y54504D01*
X170707Y56120D02*
X172007D01*
X169157Y48071D02*
Y53470D01*
X169107Y54520D02*
X170707Y56120D01*
X169157Y48071D02*
X171357Y45870D01*
X168057Y54520D02*
X169107D01*
X171357Y45870D02*
X171857D01*
X172332Y45395D01*
X167633Y54945D02*
X168057Y54520D01*
X167633Y54945D02*
Y55539D01*
X171723Y51004D02*
X172841D01*
X173660Y51823D01*
X171357Y50220D02*
Y51504D01*
Y51370D02*
X171723Y51004D01*
X173660Y51823D02*
Y56318D01*
X171357Y50220D02*
X172457Y49120D01*
X172257Y57720D02*
X173660Y56318D01*
X172457Y49120D02*
X175457D01*
X169457Y57720D02*
X172257D01*
X175457Y49120D02*
X176707Y47870D01*
X168757Y57020D02*
X169457Y57720D01*
X176707Y45070D02*
Y47870D01*
X167557Y57020D02*
X168757D01*
X175857Y44220D02*
X176707Y45070D01*
X166581Y56045D02*
X167557Y57020D01*
X175157Y44220D02*
X175857D01*
X166581Y55539D02*
Y56045D01*
X173307Y42370D02*
X175157Y44220D01*
X171857Y42370D02*
X173307D01*
X171357Y42870D02*
X171857Y42370D01*
X164207Y57170D02*
Y58520D01*
X164472Y56906D02*
X165992D01*
X164207Y57170D02*
X164472Y56906D01*
X163807Y58920D02*
X164207Y58520D01*
X165992Y56906D02*
X166581Y57495D01*
X162557Y58920D02*
X163807D01*
X162207Y57873D02*
Y58570D01*
X162557Y58920D01*
X166581Y58845D02*
X167557Y59820D01*
Y62420D01*
X167157Y62820D02*
X167557Y62420D01*
X166607Y62820D02*
X167157D01*
X166607Y62870D02*
Y67243D01*
X164850Y69000D02*
X166607Y67243D01*
X163007Y68320D02*
X163009Y63315D01*
X59370Y69000D02*
X164850D01*
X153057Y66170D02*
X153907Y67020D01*
X152040Y21300D02*
X153057Y22317D01*
Y66170D01*
X149000Y58055D02*
X149606Y57449D01*
D31*
X80570Y62600D02*
X81570D01*
X79441Y63730D02*
X80570Y62600D01*
X78139Y63730D02*
X79441D01*
X93563Y62600D02*
X94563D01*
X92433Y63730D02*
X93563Y62600D01*
X91131Y63730D02*
X92433D01*
X119547Y62600D02*
X120547D01*
X118417Y63730D02*
X119547Y62600D01*
X117116Y63730D02*
X118417D01*
X132539Y62600D02*
X133539D01*
X131409Y63730D02*
X132539Y62600D01*
X130108Y63730D02*
X131409D01*
X106555Y62600D02*
X107555D01*
X105425Y63730D02*
X106555Y62600D01*
X104124Y63730D02*
X105425D01*
X67578Y62600D02*
X68578D01*
X66449Y63730D02*
X67578Y62600D01*
X65147Y63730D02*
X66449D01*
X97638Y16510D02*
Y17214D01*
Y16510D02*
X98148Y16000D01*
X98148D02*
X100654D01*
X101343Y15311D01*
X103634D01*
X106299Y16505D02*
Y17214D01*
Y16505D02*
X106900Y15904D01*
X101968Y16510D02*
Y17214D01*
Y16510D02*
X102479Y16000D01*
Y15986D02*
X104659D01*
X105259Y15386D01*
X110528Y16400D02*
Y17213D01*
X110028Y15899D02*
X110528Y16400D01*
X114961Y16506D02*
Y17214D01*
X114454Y16000D02*
X114961Y16506D01*
X97476Y14786D02*
X103471D01*
X96607Y15655D02*
X97476Y14786D01*
X94196Y15655D02*
X96607D01*
X93286Y16565D02*
X94196Y15655D01*
X93286Y16565D02*
Y17269D01*
X93629Y14160D02*
X103397D01*
X92503Y15300D02*
X93629Y14174D01*
X90187Y15300D02*
X92503D01*
X88976Y16510D02*
X90187Y15300D01*
X88976Y16510D02*
Y17214D01*
X89856Y13586D02*
X103272D01*
X88456Y15000D02*
X89856Y13600D01*
X86156Y15000D02*
X88456D01*
X84646Y16510D02*
X86156Y15000D01*
X84646Y16510D02*
Y17214D01*
X79809Y16000D02*
X80315Y16506D01*
Y17214D01*
X75382Y15899D02*
X75883Y16400D01*
Y17213D01*
X71654Y16505D02*
X72254Y15904D01*
X71654Y16505D02*
Y17214D01*
X70013Y15986D02*
X70613Y15386D01*
X67833Y15986D02*
X70013D01*
X67323Y16510D02*
X67833Y16000D01*
X67323Y16510D02*
Y17214D01*
X66697Y15311D02*
X68988D01*
X66008Y16000D02*
X66697Y15311D01*
X63502Y16000D02*
X66008D01*
X62992Y16510D02*
X63502Y16000D01*
X62992Y16510D02*
Y17214D01*
X62831Y14786D02*
X68825D01*
X61961Y15655D02*
X62831Y14786D01*
X59550Y15655D02*
X61961D01*
X58640Y16565D02*
X59550Y15655D01*
X58640Y16565D02*
Y17269D01*
X58983Y14160D02*
X68751D01*
X57857Y15300D02*
X58983Y14174D01*
X55541Y15300D02*
X57857D01*
X54331Y16510D02*
X55541Y15300D01*
X54331Y16510D02*
Y17214D01*
X55210Y13586D02*
X68626D01*
X53810Y15000D02*
X55210Y13600D01*
X51510Y15000D02*
X53810D01*
X50000Y16510D02*
X51510Y15000D01*
X50000Y16510D02*
Y17214D01*
X48614Y22622D02*
X50000D01*
X48614Y28528D02*
X50000D01*
X48614Y34433D02*
X50000D01*
X48614Y40339D02*
X50000D01*
X48614Y46244D02*
X50000D01*
X48614Y52150D02*
X50000D01*
X48614Y58055D02*
X49394D01*
X52944Y22622D02*
X54331D01*
X52944Y28528D02*
X54331D01*
X52944Y34433D02*
X54331D01*
X52944Y40339D02*
X54331D01*
X52944Y46244D02*
X54331D01*
X52944Y52150D02*
X54331D01*
X52944Y58055D02*
X53724D01*
X57275Y22622D02*
X58661D01*
X57275Y28528D02*
X58661D01*
X57275Y34433D02*
X58661D01*
X57275Y40339D02*
X58661D01*
X57275Y46244D02*
X58661D01*
X57275Y52150D02*
X58661D01*
X57275Y58055D02*
X58055D01*
X61606Y22622D02*
X62992D01*
X61606Y28528D02*
X62992D01*
X61606Y34433D02*
X62992D01*
X61606Y40339D02*
X62992D01*
X61606Y46244D02*
X62992D01*
X61606Y52150D02*
X62992D01*
X61606Y58055D02*
X62386D01*
X65937Y22622D02*
X67323D01*
X65937Y28528D02*
X67323D01*
X65937Y34433D02*
X67323D01*
X65937Y40339D02*
X67323D01*
X65937Y46244D02*
X67323D01*
X65937Y52150D02*
X67323D01*
X65937Y58055D02*
X66717D01*
X70267Y22622D02*
X71654D01*
X70267Y28528D02*
X71654D01*
X70267Y34433D02*
X71654D01*
X70267Y40339D02*
X71654D01*
X70267Y46244D02*
X71654D01*
X70267Y52150D02*
X71654D01*
X70267Y58055D02*
X71047D01*
X74598Y22622D02*
X75984D01*
X74598Y28528D02*
X75984D01*
X74598Y34433D02*
X75984D01*
X74598Y40339D02*
X75984D01*
X74598Y46244D02*
X75984D01*
X74598Y52150D02*
X75984D01*
X74598Y58055D02*
X75378D01*
X78929Y22622D02*
X80315D01*
X78929Y28528D02*
X80315D01*
X78929Y34433D02*
X80315D01*
X78929Y40339D02*
X80315D01*
X78929Y46244D02*
X80315D01*
X78929Y52150D02*
X80315D01*
X78929Y58055D02*
X79709D01*
X83259Y22622D02*
X84646D01*
X83259Y28528D02*
X84646D01*
X83259Y34433D02*
X84646D01*
X83259Y40339D02*
X84646D01*
X83259Y46244D02*
X84646D01*
X83259Y52150D02*
X84646D01*
X83259Y58055D02*
X84039D01*
X87590Y22622D02*
X88976D01*
X87590Y28528D02*
X88976D01*
X87590Y34433D02*
X88976D01*
X87590Y40339D02*
X88976D01*
X87590Y46244D02*
X88976D01*
X87590Y52150D02*
X88976D01*
X87590Y58055D02*
X88370D01*
X91921Y22622D02*
X93307D01*
X91921Y28528D02*
X93307D01*
X91921Y34433D02*
X93307D01*
X91921Y40339D02*
X93307D01*
X91921Y46244D02*
X93307D01*
X91921Y52150D02*
X93307D01*
X91921Y58055D02*
X92701D01*
X96251Y22622D02*
X97638D01*
X96251Y28528D02*
X97638D01*
X96251Y34433D02*
X97638D01*
X96251Y40339D02*
X97638D01*
X96251Y46244D02*
X97638D01*
X96251Y52150D02*
X97638D01*
X96251Y58055D02*
X97031D01*
X100582Y22622D02*
X101968D01*
X100582Y28528D02*
X101968D01*
X100582Y34433D02*
X101968D01*
X100582Y40339D02*
X101968D01*
X100582Y46244D02*
X101968D01*
X100582Y52150D02*
X101968D01*
X100582Y58055D02*
X101362D01*
X104913Y22622D02*
X106299D01*
X104913Y28528D02*
X106299D01*
X104913Y34433D02*
X106299D01*
X104913Y40339D02*
X106299D01*
X104913Y46244D02*
X106299D01*
X104913Y52150D02*
X106299D01*
X104913Y58055D02*
X105693D01*
X109244Y22622D02*
X110630D01*
X109244Y28528D02*
X110630D01*
X109244Y34433D02*
X110630D01*
X109244Y40339D02*
X110630D01*
X109244Y46244D02*
X110630D01*
X109244Y52150D02*
X110630D01*
X109244Y58055D02*
X110024D01*
X113574Y22622D02*
X114961D01*
X113574Y28528D02*
X114961D01*
X113574Y34433D02*
X114961D01*
X113574Y40339D02*
X114961D01*
X113574Y46244D02*
X114961D01*
X113574Y52150D02*
X114961D01*
X113574Y58055D02*
X114354D01*
X145531Y62600D02*
X146531D01*
X144401Y63730D02*
X145531Y62600D01*
X143100Y63730D02*
X144401D01*
X132283Y16510D02*
Y17214D01*
Y16510D02*
X132794Y16000D01*
X132794D02*
X135299D01*
X135988Y15311D01*
X139305Y15986D02*
X139905Y15386D01*
X119291Y16510D02*
X120802Y15000D01*
X119291Y16510D02*
Y17214D01*
X120802Y15000D02*
X123102D01*
X124502Y13600D01*
X123622Y16510D02*
X124832Y15300D01*
X123622Y16510D02*
Y17214D01*
X124832Y15300D02*
X127149D01*
X128275Y14174D01*
X127931Y16565D02*
X128842Y15655D01*
X127931Y16565D02*
Y17269D01*
X128842Y15655D02*
X131253D01*
X132122Y14786D01*
X149606Y16506D02*
Y17214D01*
X149100Y16000D02*
X149606Y16506D01*
X136614Y16510D02*
Y17214D01*
Y16510D02*
X137124Y16000D01*
X140945Y16505D02*
Y17214D01*
Y16505D02*
X141545Y15904D01*
X144673Y15899D02*
X145174Y16400D01*
Y17213D01*
X124502Y13586D02*
X137917D01*
X128275Y14160D02*
X138042D01*
X135988Y15311D02*
X138280D01*
X132122Y14786D02*
X138116D01*
X137124Y15986D02*
X139305D01*
X139559Y58055D02*
X140339D01*
X139559Y52150D02*
X140945D01*
X139559Y46244D02*
X140945D01*
X139559Y40339D02*
X140945D01*
X139559Y34433D02*
X140945D01*
X139559Y28528D02*
X140945D01*
X139559Y22622D02*
X140945D01*
X135228Y58055D02*
X136008D01*
X135228Y52150D02*
X136614D01*
X135228Y46244D02*
X136614D01*
X135228Y40339D02*
X136614D01*
X135228Y34433D02*
X136614D01*
X135228Y28528D02*
X136614D01*
X135228Y22622D02*
X136614D01*
X130897Y58055D02*
X131677D01*
X130897Y52150D02*
X132283D01*
X130897Y46244D02*
X132283D01*
X130897Y40339D02*
X132283D01*
X130897Y34433D02*
X132283D01*
X130897Y28528D02*
X132283D01*
X130897Y22622D02*
X132283D01*
X126566Y58055D02*
X127346D01*
X126566Y52150D02*
X127953D01*
X126566Y46244D02*
X127953D01*
X126566Y40339D02*
X127953D01*
X126566Y34433D02*
X127953D01*
X126566Y28528D02*
X127953D01*
X126566Y22622D02*
X127953D01*
X122236Y58055D02*
X123016D01*
X122236Y52150D02*
X123622D01*
X122236Y46244D02*
X123622D01*
X122236Y40339D02*
X123622D01*
X122236Y34433D02*
X123622D01*
X122236Y28528D02*
X123622D01*
X122236Y22622D02*
X123622D01*
X117905Y58055D02*
X118685D01*
X117905Y52150D02*
X119291D01*
X117905Y46244D02*
X119291D01*
X117905Y40339D02*
X119291D01*
X117905Y34433D02*
X119291D01*
X117905Y28528D02*
X119291D01*
X117905Y22622D02*
X119291D01*
X143889Y28528D02*
X145174Y28527D01*
X143889Y40338D02*
X145174D01*
X143889Y46244D02*
X145174Y46243D01*
X143889Y52149D02*
X145174D01*
X143889Y58054D02*
X144646D01*
X143889Y34433D02*
X145174Y34432D01*
X143889Y22622D02*
X145174Y22621D01*
X148220Y22622D02*
X149606D01*
X148220Y34433D02*
X149606D01*
X148220Y58055D02*
X149000D01*
X148220Y52150D02*
X149606D01*
X148220Y46244D02*
X149606D01*
X148220Y40339D02*
X149606D01*
X148220Y28528D02*
X149606D01*
D32*
X75639Y63730D02*
X78139D01*
X88631D02*
X91131D01*
X88631Y66170D02*
Y67450D01*
X88132Y67950D02*
X88631Y67450D01*
X87031Y67950D02*
X88132D01*
X86537Y67456D02*
X87031Y67950D01*
X86537Y66544D02*
Y67456D01*
X75639Y66170D02*
Y67450D01*
X75139Y67950D02*
X75639Y67450D01*
X74039Y67950D02*
X75139D01*
X73545Y67456D02*
X74039Y67950D01*
X73545Y66544D02*
Y67456D01*
X125513Y66544D02*
Y67456D01*
X126008Y67950D01*
X127108D01*
X127608Y67450D01*
Y66170D02*
Y67450D01*
X112521Y66544D02*
Y67456D01*
X113016Y67950D01*
X114116D01*
X114616Y67450D01*
Y66170D02*
Y67450D01*
X99529Y66544D02*
Y67456D01*
X100024Y67950D01*
X101124D01*
X101624Y67450D01*
Y66170D02*
Y67450D01*
X114616Y63730D02*
X117116D01*
X127608D02*
X130108D01*
X101624D02*
X104124D01*
X62647Y66170D02*
Y67450D01*
X62147Y67950D02*
X62647Y67450D01*
X61047Y67950D02*
X62147D01*
X60553Y67456D02*
X61047Y67950D01*
X60553Y66544D02*
Y67456D01*
X62647Y63730D02*
X65147D01*
X140600Y66170D02*
Y67450D01*
X140100Y67950D02*
X140600Y67450D01*
X139000Y67950D02*
X140100D01*
X138506Y67456D02*
X139000Y67950D01*
X138506Y66544D02*
Y67456D01*
X140600Y63730D02*
X143100D01*
X167633Y44744D02*
X170331D01*
X170457Y44870D01*
X171357D01*
X167633Y43996D02*
X170331D01*
X170457Y43870D01*
X171336D01*
D33*
X82243Y16934D02*
Y21330D01*
X80779Y15470D02*
X82243Y16934D01*
X78747Y15456D02*
X80779D01*
X77505Y14213D02*
X78747Y15456D01*
X77505Y13660D02*
Y14213D01*
X77220Y13375D02*
X77505Y13660D01*
X76505Y13375D02*
X77220D01*
X115424Y15470D02*
X116888Y16934D01*
X113393Y15456D02*
X115424D01*
X112150Y14213D02*
X113393Y15456D01*
X112150Y13660D02*
Y14213D01*
X111865Y13375D02*
X112150Y13660D01*
X111150Y13375D02*
X111865D01*
X116888Y16934D02*
Y21330D01*
X150070Y15470D02*
X151534Y16934D01*
X148039Y15456D02*
X150070D01*
X146796Y14213D02*
X148039Y15456D01*
X146796Y13660D02*
Y14213D01*
X146511Y13375D02*
X146796Y13660D01*
X145796Y13375D02*
X146511D01*
X167407Y44970D02*
X168157D01*
X167457Y43770D02*
X168407D01*
X151534Y16934D02*
Y21330D01*
D34*
X166257Y44370D02*
X166924D01*
X166107Y44220D02*
X166257Y44370D01*
D35*
X61606Y22622D02*
D03*
X60606D02*
D03*
X74598Y28528D02*
D03*
X73598D02*
D03*
X87590Y34433D02*
D03*
X86590D02*
D03*
X100582Y40339D02*
D03*
X99582D02*
D03*
X112574Y46244D02*
D03*
X113574D02*
D03*
X126566Y52150D02*
D03*
X125566D02*
D03*
X143889Y58055D02*
D03*
X142889D02*
D03*
X142889Y52150D02*
D03*
X143889D02*
D03*
X143889Y46244D02*
D03*
X142889D02*
D03*
Y40339D02*
D03*
X143889D02*
D03*
Y34433D02*
D03*
X142889D02*
D03*
Y28528D02*
D03*
X143889D02*
D03*
Y22622D02*
D03*
X142889D02*
D03*
X138559Y58055D02*
D03*
X139559D02*
D03*
X148220Y28528D02*
D03*
X147220D02*
D03*
Y34433D02*
D03*
X148220D02*
D03*
Y40339D02*
D03*
X147220D02*
D03*
X147220Y46244D02*
D03*
X148220D02*
D03*
X148220Y52150D02*
D03*
X147220D02*
D03*
Y58055D02*
D03*
X148220D02*
D03*
X122236Y52150D02*
D03*
X121236D02*
D03*
X112574Y28528D02*
D03*
X113574D02*
D03*
X139559Y22622D02*
D03*
X138559D02*
D03*
Y34433D02*
D03*
X139559D02*
D03*
Y40339D02*
D03*
X138559D02*
D03*
Y46244D02*
D03*
X139559D02*
D03*
Y52150D02*
D03*
X138559D02*
D03*
X134228Y22622D02*
D03*
X135228D02*
D03*
Y28528D02*
D03*
X134228D02*
D03*
Y34433D02*
D03*
X135228D02*
D03*
Y40339D02*
D03*
X134228D02*
D03*
Y46244D02*
D03*
X135228D02*
D03*
X135228Y52150D02*
D03*
X134228D02*
D03*
X134228Y58055D02*
D03*
X135228D02*
D03*
X130897Y22622D02*
D03*
X129897D02*
D03*
Y28528D02*
D03*
X130897D02*
D03*
Y34433D02*
D03*
X129897D02*
D03*
Y46244D02*
D03*
X130897D02*
D03*
Y52150D02*
D03*
X129897D02*
D03*
Y58055D02*
D03*
X130897D02*
D03*
X126566Y22622D02*
D03*
X125566D02*
D03*
Y28528D02*
D03*
X126566D02*
D03*
Y34433D02*
D03*
X125566D02*
D03*
Y40339D02*
D03*
X126566D02*
D03*
Y46244D02*
D03*
X125566D02*
D03*
X122236Y22622D02*
D03*
X121236D02*
D03*
Y28528D02*
D03*
X122236D02*
D03*
Y34433D02*
D03*
X121236D02*
D03*
Y40339D02*
D03*
X122236D02*
D03*
Y46244D02*
D03*
X121236D02*
D03*
Y58055D02*
D03*
X122236D02*
D03*
X117905Y22622D02*
D03*
X116905D02*
D03*
Y28528D02*
D03*
X117905D02*
D03*
Y34433D02*
D03*
X116905D02*
D03*
Y40339D02*
D03*
X117905D02*
D03*
Y46244D02*
D03*
X116905D02*
D03*
Y52150D02*
D03*
X117905D02*
D03*
Y58055D02*
D03*
X116905D02*
D03*
X112574Y22622D02*
D03*
X113574D02*
D03*
Y34433D02*
D03*
X112574D02*
D03*
Y40339D02*
D03*
X113574D02*
D03*
X112574Y52150D02*
D03*
X113574D02*
D03*
Y58055D02*
D03*
X112574D02*
D03*
X108244Y22622D02*
D03*
X109244D02*
D03*
Y28528D02*
D03*
X108244D02*
D03*
Y34433D02*
D03*
X109244D02*
D03*
Y40339D02*
D03*
X108244D02*
D03*
Y46244D02*
D03*
X109244D02*
D03*
Y58055D02*
D03*
X108244D02*
D03*
X103913Y22622D02*
D03*
X104913D02*
D03*
Y28528D02*
D03*
X103913D02*
D03*
Y34433D02*
D03*
X104913D02*
D03*
Y40339D02*
D03*
X103913D02*
D03*
Y46244D02*
D03*
X104913D02*
D03*
Y52150D02*
D03*
X103913D02*
D03*
Y58055D02*
D03*
X104913D02*
D03*
X100582Y22622D02*
D03*
X99582D02*
D03*
Y28528D02*
D03*
X100582D02*
D03*
Y34433D02*
D03*
X99582D02*
D03*
X100582Y46244D02*
D03*
X99582D02*
D03*
Y52150D02*
D03*
X100582D02*
D03*
Y58055D02*
D03*
X99582D02*
D03*
X95251Y22622D02*
D03*
X96251D02*
D03*
Y28528D02*
D03*
X95251D02*
D03*
Y34433D02*
D03*
X96251D02*
D03*
Y40339D02*
D03*
X95251D02*
D03*
Y46244D02*
D03*
X96251D02*
D03*
Y52150D02*
D03*
X95251D02*
D03*
Y58055D02*
D03*
X96251D02*
D03*
X91921Y22622D02*
D03*
X90921D02*
D03*
Y28528D02*
D03*
X91921D02*
D03*
Y34433D02*
D03*
X90921D02*
D03*
Y40339D02*
D03*
X91921D02*
D03*
Y46244D02*
D03*
X90921D02*
D03*
Y52150D02*
D03*
X91921D02*
D03*
Y58055D02*
D03*
X90921D02*
D03*
X86590Y22622D02*
D03*
X87590D02*
D03*
Y28528D02*
D03*
X86590D02*
D03*
X87590Y40339D02*
D03*
X86590D02*
D03*
Y46244D02*
D03*
X87590D02*
D03*
Y52150D02*
D03*
X86590D02*
D03*
Y58055D02*
D03*
X87590D02*
D03*
X83259Y22622D02*
D03*
X82259D02*
D03*
Y28528D02*
D03*
X83259D02*
D03*
Y34433D02*
D03*
X82259D02*
D03*
Y40339D02*
D03*
X83259D02*
D03*
Y46244D02*
D03*
X82259D02*
D03*
Y52150D02*
D03*
X83259D02*
D03*
Y58055D02*
D03*
X82259D02*
D03*
X77929Y22622D02*
D03*
X78929D02*
D03*
Y28528D02*
D03*
X77929D02*
D03*
Y34433D02*
D03*
X78929D02*
D03*
Y40339D02*
D03*
X77929D02*
D03*
Y46244D02*
D03*
X78929D02*
D03*
Y52150D02*
D03*
X77929D02*
D03*
Y58055D02*
D03*
X78929D02*
D03*
X74598Y22622D02*
D03*
X73598D02*
D03*
X74598Y34433D02*
D03*
X73598D02*
D03*
Y40339D02*
D03*
X74598D02*
D03*
Y46244D02*
D03*
X73598D02*
D03*
Y52150D02*
D03*
X74598D02*
D03*
Y58055D02*
D03*
X73598D02*
D03*
X69267Y22622D02*
D03*
X70267D02*
D03*
Y28528D02*
D03*
X69267D02*
D03*
Y34433D02*
D03*
X70267D02*
D03*
Y40339D02*
D03*
X69267D02*
D03*
Y46244D02*
D03*
X70267D02*
D03*
Y52150D02*
D03*
X69267D02*
D03*
Y58055D02*
D03*
X70267D02*
D03*
X65937Y22622D02*
D03*
X64937D02*
D03*
Y28528D02*
D03*
X65937D02*
D03*
Y34433D02*
D03*
X64937D02*
D03*
Y40339D02*
D03*
X65937D02*
D03*
Y46244D02*
D03*
X64937D02*
D03*
Y52150D02*
D03*
X65937D02*
D03*
Y58055D02*
D03*
X64937D02*
D03*
X61606Y28528D02*
D03*
X60606D02*
D03*
Y34433D02*
D03*
X61606D02*
D03*
Y40339D02*
D03*
X60606D02*
D03*
Y46244D02*
D03*
X61606D02*
D03*
Y52150D02*
D03*
X60606D02*
D03*
Y58055D02*
D03*
X61606D02*
D03*
X57275Y22622D02*
D03*
X56275D02*
D03*
Y28528D02*
D03*
X57275D02*
D03*
Y34433D02*
D03*
X56275D02*
D03*
Y40339D02*
D03*
X57275D02*
D03*
Y46244D02*
D03*
X56275D02*
D03*
Y52150D02*
D03*
X57275D02*
D03*
Y58055D02*
D03*
X56275D02*
D03*
X51944Y22622D02*
D03*
X52944D02*
D03*
Y28528D02*
D03*
X51944D02*
D03*
Y34433D02*
D03*
X52944D02*
D03*
Y40339D02*
D03*
X51944D02*
D03*
Y46244D02*
D03*
X52944D02*
D03*
Y52150D02*
D03*
X51944D02*
D03*
Y58055D02*
D03*
X52944D02*
D03*
X48614Y22622D02*
D03*
X47614D02*
D03*
Y28528D02*
D03*
X48614D02*
D03*
Y34433D02*
D03*
X47614D02*
D03*
Y40339D02*
D03*
X48614D02*
D03*
Y46244D02*
D03*
X47614D02*
D03*
Y52150D02*
D03*
X48614D02*
D03*
Y58055D02*
D03*
X47614D02*
D03*
X108244Y52150D02*
D03*
X109244D02*
D03*
X139559Y28528D02*
D03*
X138559D02*
D03*
X147220Y22622D02*
D03*
X148220D02*
D03*
X130897Y40339D02*
D03*
X129897D02*
D03*
X125566Y58055D02*
D03*
X126566D02*
D03*
X172357Y43370D02*
D03*
X172357Y52004D02*
D03*
D36*
X169607Y24755D02*
D03*
X168607Y23755D02*
D03*
X171357Y44870D02*
D03*
Y43870D02*
D03*
X172357Y44370D02*
D03*
X171357Y53504D02*
D03*
Y52504D02*
D03*
Y51504D02*
D03*
X172357Y54004D02*
D03*
X171357Y54504D02*
D03*
X171357Y42870D02*
D03*
X172357Y45370D02*
D03*
X171357Y45870D02*
D03*
D37*
X169607Y23755D02*
D03*
X168607Y24755D02*
D03*
X167607D02*
D03*
X172357Y53004D02*
D03*
D38*
X167607Y23755D02*
D03*
D39*
X64607Y8843D02*
D03*
X124449D02*
D03*
Y76953D02*
D03*
X64607D02*
D03*
D40*
X174857Y41870D02*
D03*
Y46370D02*
D03*
X174857Y50504D02*
D03*
Y55004D02*
D03*
D41*
X172357Y51004D02*
D03*
X172357Y42370D02*
D03*
D42*
X166080Y23370D02*
D03*
X45510Y15400D02*
D03*
X46510D02*
D03*
Y16400D02*
D03*
X45510D02*
D03*
X153360Y16290D02*
D03*
X154360D02*
D03*
Y17290D02*
D03*
X153360D02*
D03*
X71689Y14640D02*
D03*
X106334D02*
D03*
X140980Y14640D02*
D03*
X163100Y30420D02*
D03*
X60098Y24594D02*
D03*
X61098D02*
D03*
X73090Y30500D02*
D03*
X74090D02*
D03*
X86083Y36405D02*
D03*
X87083D02*
D03*
X99075Y42311D02*
D03*
X100075D02*
D03*
X112067Y48216D02*
D03*
X113067D02*
D03*
X125059Y54122D02*
D03*
X126059D02*
D03*
X81570Y62600D02*
D03*
X94563D02*
D03*
X120547D02*
D03*
X133539D02*
D03*
X107555D02*
D03*
X68578D02*
D03*
X110550Y10760D02*
D03*
X106059Y12486D02*
D03*
X112259Y15286D02*
D03*
X106059Y13786D02*
D03*
X71413D02*
D03*
Y12486D02*
D03*
X75905Y10760D02*
D03*
X77613Y15286D02*
D03*
X82749Y21300D02*
D03*
X81749D02*
D03*
X70813Y14586D02*
D03*
X117394Y21300D02*
D03*
X116394D02*
D03*
X105459Y14586D02*
D03*
X146531Y62600D02*
D03*
X139051Y60027D02*
D03*
X138051D02*
D03*
X140705Y13786D02*
D03*
X146905Y15286D02*
D03*
X145196Y10760D02*
D03*
X140705Y12486D02*
D03*
X140105Y14586D02*
D03*
X170481Y25496D02*
D03*
X165150Y15490D02*
D03*
X162207Y26020D02*
D03*
X160307Y40820D02*
D03*
X162607Y38320D02*
D03*
X158050Y32700D02*
D03*
X164507Y34220D02*
D03*
X166100Y54200D02*
D03*
X163107Y54220D02*
D03*
Y53220D02*
D03*
X166100Y53200D02*
D03*
X165100Y54200D02*
D03*
X164100D02*
D03*
Y53200D02*
D03*
X165100D02*
D03*
X166207Y26220D02*
D03*
X170707Y33920D02*
D03*
X169707Y30920D02*
D03*
X157080Y31280D02*
D03*
X163507Y35720D02*
D03*
X158750Y36570D02*
D03*
X168607Y60720D02*
D03*
X169607D02*
D03*
Y59720D02*
D03*
X168607D02*
D03*
X156607Y58270D02*
D03*
X165107Y44370D02*
D03*
X156557Y40920D02*
D03*
X161507D02*
D03*
X157657Y58270D02*
D03*
X160507Y43070D02*
D03*
X161607Y60220D02*
D03*
Y61220D02*
D03*
X162607Y60220D02*
D03*
Y61220D02*
D03*
X156100Y28500D02*
D03*
X155100Y27500D02*
D03*
X154100Y26500D02*
D03*
X157100Y29500D02*
D03*
X162100Y52100D02*
D03*
X161100D02*
D03*
X160100D02*
D03*
X159100D02*
D03*
X158100D02*
D03*
X157100D02*
D03*
X156100D02*
D03*
X161100Y46053D02*
D03*
X160100D02*
D03*
X159100D02*
D03*
X158100D02*
D03*
X151040Y21300D02*
D03*
X152040D02*
D03*
X154550Y64450D02*
D03*
X155550D02*
D03*
Y65450D02*
D03*
X154550D02*
D03*
X162450Y12900D02*
D03*
M02*
