M48
;Layer_Color=9474304
;FILE_FORMAT=2:5
INCH,LZ
;TYPE=PLATED
T1F00S00C0.02799
T2F00S00C0.02800
T3F00S00C0.03543
T4F00S00C0.12500
;TYPE=NON_PLATED
T5F00S00C0.12795
%
T01
X0759047Y0107598
T02
X04551Y0154
X04651
X0708134Y0145858
X0716887Y01464
X0714134Y0137858
Y0124858
X0776134Y0152858
X1054591Y0145858
X1063343Y01464
X1060591Y0137858
Y0124858
X1105504Y0107599
X1122591Y0152858
X1401047Y0145858
X14098Y01464
X1407047Y0137858
Y0124858
X1451961Y0107598
X1469047Y0152858
X16245Y0129
X16515Y01549
X16608Y02337
X1662071Y0262205
X1622071Y0260205
X1631Y03042
X1571Y0295
X1697071Y0309205
X1704811Y0254961
X1561Y0285
X1551Y0275
X1541Y0265
X15204Y0213
X15104
X14822Y0226221
X14722
X1438893
X1428893
Y0285276
X1438893
X14722
X14822
X15336Y01729
Y01629
X15436
Y01729
X1395586Y0226221
X1385586
X1352279
X1342279
X1308972
X1298972
X1265664
X1255665
Y0285276
X1265664
X1298972
X1308972
X1342279
X1352279
X1385586
X1395586
X1222357
X1212358
X117905
X116905
X1135743
X1125743
Y0226221
X1135743
X116905
X117905
X1173943Y0213
X1163943
X1212358Y0226221
X1222357
X1092436
X1082436
X1049129
X1039129
X1005822
X0995822
X0962515
X0952515
Y0285276
X0962515
X0995822
X1005822
X1039129
X1049129
X1082436
X1092436
X0919208
X0909208
X0875901
X0865901
X0832594
X0822594
X0789287
Y0226221
X0822594
X0832594
X0827487Y0213
X0817487
X0865901Y0226221
X0875901
X0909208
X0919208
X0779287
X0745979
X073598
X0702672
X0692672
X0659365
X0649365
Y0285276
X0659365
X0692672
X0702672
X073598
X0745979
X0740904Y0304997
X0730904
X0779287Y0285276
X0616058
X0606058
X0572751
X0562751
X0529444
X0519444
X0486137
X0476137
Y0226221
X0486137
X0519444
X0529444
X0562751
X0572751
X0606058
X0616058
X0610983Y0245942
X0600983
X04651Y0164
X04551
X0476137Y0344331
X0486137
X0519444
X0529444
X0562751
X0572751
X0606058
X0616058
Y0403386
X0606058
X0572751
X0562751
X0529444
X0519444
X0486137
X0476137
Y0462441
X0486137
X0519444
X0529444
X0562751
X0572751
X0606058
X0616058
X0649365
X0659365
X0692672
X0702672
X073598
X0745979
X0779287
Y0403386
X0745979
X073598
X0702672
X0692672
X0659365
X0649365
Y0344331
X0659365
X0692672
X0702672
X073598
X0745979
X0779287
X0789287
X0822594
X0832594
X0865901
X0875901
X0870825Y0364052
X0860825
X0865901Y0403386
X0875901
X0909208
X0919208
Y0344331
X0909208
Y0462441
X0919208
X0875901
X0865901
X0832594
X0822594
X0789287
Y0403386
X0822594
X0832594
X0952515
X0962515
X0995822
X1005822
X1000747Y0423107
X0990746
X0995822Y0462441
X1005822
X1039129
X1049129
X1082436
X1092436
Y0403386
X1082436
X1049129
X1039129
Y0344331
X1049129
X1082436
X1092436
X1005822
X0995822
X0962515
X0952515
Y0462441
X0962515
X1125743
X1135743
X116905
X117905
X1212358
X1222357
Y0403386
X1212358
X117905
X116905
X1135743
X1125743
Y0344331
X1135743
X116905
X117905
X1212358
X1222357
X1255665
X1265664
X1298972
X1308972
X1342279
X1352279
X1385586
X1395586
Y0403386
X1385586
X1352279
X1342279
X1308972
X1298972
X1265664
X1255665
Y0462441
X1265664
X1298972
X1308972
X1342279
X1352279
X1385586
X1395586
X1428893
X1438893
X14722Y0462441
X14822
X14822Y0403386
X14722
X1438893
X1428893
Y0344331
X1438893
X14722
X14822
X15805Y0327
X15708Y03128
X15875Y03657
X1635071Y0357205
X1645071Y0342205
X1626071Y0383205
X1615071Y0409205
X1603071Y0408205
X1605071Y0430705
X1601Y0460528
X1611
X1591
X1581
X1565571Y0409205
X1651071Y0443705
X1707071Y0339205
X1661Y0532
Y0542
X1651
X1641
Y0532
X1651
X1631071Y0532205
Y0542205
X1621Y0521
X1611
X1601
X1591
X1581
X1571
X1566071Y0582705
X1576571
X1616071Y0602205
Y0612205
X1626071
Y0602205
X1686071Y0607205
X1696071
Y0597205
X1686071
X1561Y0521
X1482201Y0521496
X1472201
X1438893Y0521496
X1428893
X1428893Y0580551
X1438893
X1472201Y0580551
X1482201
X1395586Y0580551
X1385586
X139051Y0600273
X138051
X1352279Y0580551
X1342279
X1308972
X1298972
X1265664
X1255665
X1260589Y0541218
X1250589
X1255665Y0521496
X1265664
X1298972
X1308972
X134228Y0521496
X1352279
X1385586Y0521496
X1395586
X1222357
X1212358
X117905
X116905
X1135743
X1125743
X1130668Y0482162
X1120668
X1125743Y0580551
X1135743
X116905
X117905
X1212358
X1222357
X1092436
X1082436
X1049129
X1039129
X1005822
X0995822
X0962515
X0952515
Y0521496
X0962515
X0995822
X1005822
X1039129
X1049129
X1082436
X1092436
X0919208
X0909208
X0875901
X0865901
X0832594
X0822594
X0789287
Y0580551
X0822594
X0832594
X0865901
X0875901
X0909208
X0919208
X0779287
X0745979
X073598
X0702672
X0692672
X0659365
X0649365
Y0521496
X0659365
X0692672
X0702672
X073598
X0745979
X0779287
X0616058
X0606058
X0572751
X0562751
X0529444
X0519444
X0486137
X0476137
Y0580551
X0486137
X0519444
X0529444
X0562751
X0572751
X0606058
X0616058
X0685783Y0626
X0815705
X0945625
X1075546
X1205468
X1335389
X146531
X15455Y06445
X15555
Y06545
X15455
T03
X1676071Y0237551
Y0247551
X1686071
X1696071Y0247551
X1696071Y0237551
X1686071Y0237551
X1713571Y0428705
Y0438705
Y0448705
Y0458705
X1723571Y0453705
Y0443705
X1723571Y0433705
X1723571Y0423705
X1723575Y0510043
Y0520043
X1723575Y0530043
X1723575Y0540043
X1713575Y0535043
Y0525043
Y0515043
Y0545043
T04
X0646067Y0088425
X1244492
X0646067Y0769528
X1244492
T05
X1748571Y0418705
Y0463705
X1748575Y0505043
Y0550043
M30
