%FSLAX25Y25*%
%MOIN*%
G70*
G01*
G75*
G04 Layer_Color=16711935*
%ADD10O,0.02165X0.06890*%
%ADD11O,0.06890X0.02165*%
%ADD12R,0.12992X0.07874*%
%ADD13O,0.02362X0.08661*%
%ADD14R,0.03543X0.03543*%
%ADD15C,0.03937*%
%ADD16R,0.03347X0.03347*%
%ADD17R,0.03937X0.03937*%
%ADD18R,0.06299X0.11811*%
%ADD19R,0.07874X0.23622*%
%ADD20R,0.06299X0.02362*%
%ADD21R,0.04921X0.12008*%
%ADD22R,0.04724X0.13780*%
%ADD23R,0.08661X0.09252*%
%ADD24R,0.06102X0.09252*%
%ADD25R,0.03347X0.06693*%
%ADD26R,0.21850X0.25590*%
%ADD27R,0.22638X0.25590*%
%ADD28R,0.02362X0.08661*%
%ADD29C,0.05000*%
%ADD30C,0.02000*%
%ADD31C,0.01500*%
%ADD32C,0.02500*%
%ADD33C,0.03000*%
%ADD34C,0.01000*%
%ADD35C,0.04724*%
%ADD36C,0.04724*%
%ADD37R,0.05906X0.05906*%
%ADD38C,0.05906*%
%ADD39C,0.05906*%
%ADD40C,0.06299*%
%ADD41C,0.11614*%
%ADD42R,0.05906X0.05906*%
%ADD43C,0.05000*%
%ADD44C,0.02362*%
%ADD45C,0.00984*%
%ADD46C,0.00787*%
%ADD47O,0.02965X0.07690*%
%ADD48O,0.07690X0.02965*%
%ADD49R,0.13792X0.08674*%
%ADD50O,0.03162X0.09461*%
%ADD51R,0.04343X0.04343*%
%ADD52C,0.09843*%
%ADD53R,0.04147X0.04147*%
%ADD54R,0.04737X0.04737*%
%ADD55R,0.07099X0.12611*%
%ADD56R,0.08674X0.24422*%
%ADD57R,0.07099X0.03162*%
%ADD58R,0.05721X0.12808*%
%ADD59R,0.05524X0.14579*%
%ADD60R,0.09461X0.10052*%
%ADD61R,0.06902X0.10052*%
%ADD62R,0.04147X0.07493*%
%ADD63R,0.22650X0.26391*%
%ADD64R,0.23438X0.26391*%
%ADD65R,0.03162X0.09461*%
%ADD66C,0.05524*%
%ADD67C,0.05524*%
%ADD68R,0.06706X0.06706*%
%ADD69C,0.06706*%
%ADD70C,0.06706*%
%ADD71C,0.07099*%
%ADD72C,0.12414*%
%ADD73R,0.06706X0.06706*%
%ADD74C,0.05800*%
D66*
X472441Y531496D02*
D03*
Y521496D02*
D03*
X590551Y236221D02*
D03*
Y226220D02*
D03*
X649606Y236221D02*
D03*
Y226220D02*
D03*
X708661Y236221D02*
D03*
Y226220D02*
D03*
X767717Y236221D02*
D03*
Y226220D02*
D03*
X826772Y236221D02*
D03*
Y226220D02*
D03*
X885827Y236221D02*
D03*
Y226220D02*
D03*
X944882Y236221D02*
D03*
Y226220D02*
D03*
X1003937Y236221D02*
D03*
Y226220D02*
D03*
X1062992Y236221D02*
D03*
Y226220D02*
D03*
X1122047Y236221D02*
D03*
Y226220D02*
D03*
X1181102Y236221D02*
D03*
Y226220D02*
D03*
X1240158Y236221D02*
D03*
Y226220D02*
D03*
X1299213Y236221D02*
D03*
Y226220D02*
D03*
X1358268Y236221D02*
D03*
Y226220D02*
D03*
X1417323Y236221D02*
D03*
Y226220D02*
D03*
X1476378Y236221D02*
D03*
Y226220D02*
D03*
X118110Y236221D02*
D03*
Y226220D02*
D03*
X177165Y236221D02*
D03*
Y226220D02*
D03*
X236221Y236221D02*
D03*
Y226220D02*
D03*
X295276Y236221D02*
D03*
Y226220D02*
D03*
X354331Y236221D02*
D03*
Y226220D02*
D03*
X413386Y236221D02*
D03*
Y226220D02*
D03*
X472441Y236221D02*
D03*
Y226220D02*
D03*
X531496Y236221D02*
D03*
Y226220D02*
D03*
X590551Y580551D02*
D03*
Y521496D02*
D03*
Y462441D02*
D03*
Y403386D02*
D03*
Y344331D02*
D03*
Y285276D02*
D03*
X649606Y580551D02*
D03*
Y521496D02*
D03*
Y462441D02*
D03*
Y403386D02*
D03*
Y344331D02*
D03*
Y285276D02*
D03*
X708661Y580551D02*
D03*
Y521496D02*
D03*
Y462441D02*
D03*
Y403386D02*
D03*
Y344331D02*
D03*
Y285276D02*
D03*
X767717Y580551D02*
D03*
Y521496D02*
D03*
Y462441D02*
D03*
Y403386D02*
D03*
Y344331D02*
D03*
Y285276D02*
D03*
X826772Y580551D02*
D03*
Y521496D02*
D03*
Y462441D02*
D03*
Y403386D02*
D03*
Y344331D02*
D03*
Y285276D02*
D03*
X885827Y580551D02*
D03*
Y521496D02*
D03*
Y462441D02*
D03*
Y403386D02*
D03*
Y344331D02*
D03*
Y285276D02*
D03*
X944882Y580551D02*
D03*
Y521496D02*
D03*
Y462441D02*
D03*
Y403386D02*
D03*
Y344331D02*
D03*
Y285276D02*
D03*
X1003937Y580551D02*
D03*
Y521496D02*
D03*
Y462441D02*
D03*
Y403386D02*
D03*
Y344331D02*
D03*
X118110Y580551D02*
D03*
Y521496D02*
D03*
Y462441D02*
D03*
Y403386D02*
D03*
Y344331D02*
D03*
Y285276D02*
D03*
X177165Y580551D02*
D03*
Y521496D02*
D03*
Y462441D02*
D03*
Y403386D02*
D03*
Y344331D02*
D03*
Y285276D02*
D03*
X236221Y580551D02*
D03*
Y521496D02*
D03*
Y462441D02*
D03*
Y403386D02*
D03*
Y344331D02*
D03*
Y285276D02*
D03*
X295276Y580551D02*
D03*
Y521496D02*
D03*
Y462441D02*
D03*
Y403386D02*
D03*
Y344331D02*
D03*
Y285276D02*
D03*
X354331Y580551D02*
D03*
Y521496D02*
D03*
Y462441D02*
D03*
Y403386D02*
D03*
Y344331D02*
D03*
Y285276D02*
D03*
X413386Y580551D02*
D03*
Y521496D02*
D03*
Y462441D02*
D03*
Y403386D02*
D03*
Y344331D02*
D03*
Y285276D02*
D03*
X472441Y580551D02*
D03*
Y462441D02*
D03*
Y403386D02*
D03*
Y344331D02*
D03*
Y285276D02*
D03*
X531496Y580551D02*
D03*
Y521496D02*
D03*
Y462441D02*
D03*
Y403386D02*
D03*
Y344331D02*
D03*
Y285276D02*
D03*
X1062992Y580551D02*
D03*
Y521496D02*
D03*
Y462441D02*
D03*
Y403386D02*
D03*
Y344331D02*
D03*
Y285276D02*
D03*
X1122047Y580551D02*
D03*
Y462441D02*
D03*
Y403386D02*
D03*
Y344331D02*
D03*
Y285276D02*
D03*
X1181102Y580551D02*
D03*
Y521496D02*
D03*
Y462441D02*
D03*
Y403386D02*
D03*
Y344331D02*
D03*
Y285276D02*
D03*
X1240158Y580551D02*
D03*
Y521496D02*
D03*
Y462441D02*
D03*
Y403386D02*
D03*
Y344331D02*
D03*
Y285276D02*
D03*
X1299213Y580551D02*
D03*
Y521496D02*
D03*
Y462441D02*
D03*
Y403386D02*
D03*
Y344331D02*
D03*
Y285276D02*
D03*
X1358268Y580551D02*
D03*
Y521496D02*
D03*
Y462441D02*
D03*
Y403386D02*
D03*
Y344331D02*
D03*
Y285276D02*
D03*
X1417323Y580551D02*
D03*
Y521496D02*
D03*
Y462441D02*
D03*
Y403386D02*
D03*
X1417323Y344331D02*
D03*
X1417323Y285276D02*
D03*
X1476378Y580551D02*
D03*
Y521496D02*
D03*
Y462441D02*
D03*
Y403386D02*
D03*
Y344331D02*
D03*
Y285276D02*
D03*
X118110Y590551D02*
D03*
X177165D02*
D03*
X236221D02*
D03*
X295276D02*
D03*
X354331D02*
D03*
X413386D02*
D03*
X472441D02*
D03*
X531496D02*
D03*
X590551D02*
D03*
X649606D02*
D03*
X708661D02*
D03*
X767717D02*
D03*
X826772D02*
D03*
X885827D02*
D03*
X944882D02*
D03*
X1003937D02*
D03*
X1062992D02*
D03*
X1122047D02*
D03*
X1181102D02*
D03*
X1240158D02*
D03*
X1299213D02*
D03*
X1358268D02*
D03*
X1417323D02*
D03*
X1476378D02*
D03*
X177165Y531496D02*
D03*
X236221D02*
D03*
X295276D02*
D03*
X354331D02*
D03*
X413386D02*
D03*
X531496D02*
D03*
X590551D02*
D03*
X649606D02*
D03*
X708661D02*
D03*
X767717D02*
D03*
X826772D02*
D03*
X885827D02*
D03*
X944882D02*
D03*
X1003937D02*
D03*
X1062992D02*
D03*
X1181102D02*
D03*
X1240158D02*
D03*
X1299213D02*
D03*
X1358268D02*
D03*
X1417323D02*
D03*
X1476378D02*
D03*
X118110Y472441D02*
D03*
X177165D02*
D03*
X236221D02*
D03*
X295276D02*
D03*
X354331D02*
D03*
X413386D02*
D03*
X472441D02*
D03*
X531496D02*
D03*
X590551D02*
D03*
X649606D02*
D03*
X708661D02*
D03*
X767717D02*
D03*
X826772D02*
D03*
X885827D02*
D03*
X944882D02*
D03*
X1003937D02*
D03*
X1062992D02*
D03*
X1122047D02*
D03*
X1181102D02*
D03*
X1240158D02*
D03*
X1299213D02*
D03*
X1358268D02*
D03*
X1417323D02*
D03*
X1476378D02*
D03*
X118110Y413386D02*
D03*
X177165D02*
D03*
X236221D02*
D03*
X295276D02*
D03*
X354331D02*
D03*
X413386D02*
D03*
X472441D02*
D03*
X531496D02*
D03*
X590551D02*
D03*
X649606D02*
D03*
X708661D02*
D03*
X767717D02*
D03*
X826772D02*
D03*
X885827D02*
D03*
X944882D02*
D03*
X1003937D02*
D03*
X1062992D02*
D03*
X1122047D02*
D03*
X1181102D02*
D03*
X1240158D02*
D03*
X1299213D02*
D03*
X1358268D02*
D03*
X1417323D02*
D03*
X1476378D02*
D03*
X118110Y354331D02*
D03*
X177165D02*
D03*
X236221D02*
D03*
X295276D02*
D03*
X354331D02*
D03*
X413386D02*
D03*
X472441D02*
D03*
X531496D02*
D03*
X590551D02*
D03*
X649606D02*
D03*
X708661D02*
D03*
X767717D02*
D03*
X826772D02*
D03*
X885827D02*
D03*
X944882D02*
D03*
X1003937D02*
D03*
X1062992D02*
D03*
X1122047D02*
D03*
X1181102D02*
D03*
X1240158D02*
D03*
X1299213D02*
D03*
X1358268D02*
D03*
X1417323D02*
D03*
X1476378D02*
D03*
X118110Y295276D02*
D03*
X177165D02*
D03*
X236221D02*
D03*
X295276D02*
D03*
X354331D02*
D03*
X413386D02*
D03*
X472441D02*
D03*
X531496D02*
D03*
X590551D02*
D03*
X649606D02*
D03*
X708661D02*
D03*
X767717D02*
D03*
X826772D02*
D03*
X885827D02*
D03*
X944882D02*
D03*
X1062992D02*
D03*
X1122047D02*
D03*
X1181102D02*
D03*
X1240158D02*
D03*
X1299213D02*
D03*
X1358268D02*
D03*
X1417323D02*
D03*
X1476378D02*
D03*
X1003937D02*
D03*
Y285276D02*
D03*
X1122047Y531496D02*
D03*
Y521496D02*
D03*
D67*
X118110Y531496D02*
D03*
D68*
X1676071Y237551D02*
D03*
D69*
Y247551D02*
D03*
X1686071Y237551D02*
D03*
Y247551D02*
D03*
X1696071Y237551D02*
D03*
Y247551D02*
D03*
D70*
X1713571Y448705D02*
D03*
Y438705D02*
D03*
X1723571Y443705D02*
D03*
X1713575Y535043D02*
D03*
Y525043D02*
D03*
X1723575Y530043D02*
D03*
X1713575Y515043D02*
D03*
X1723575Y540043D02*
D03*
X1713575Y545043D02*
D03*
X1713571Y428705D02*
D03*
X1723571Y453705D02*
D03*
X1713571Y458705D02*
D03*
D71*
X1723571Y433705D02*
D03*
X1723575Y520043D02*
D03*
D72*
X1748571Y418705D02*
D03*
Y463705D02*
D03*
X1748575Y505043D02*
D03*
Y550043D02*
D03*
D73*
X1723575Y510043D02*
D03*
X1723571Y423705D02*
D03*
D74*
X1446000Y153000D02*
D03*
X1384000Y138000D02*
D03*
X1428913Y107740D02*
D03*
X1384000Y125000D02*
D03*
X1378000Y146000D02*
D03*
X1704811Y254961D02*
D03*
X1667071Y170205D02*
D03*
X1622071Y260205D02*
D03*
X1603071Y408205D02*
D03*
X1626071Y383205D02*
D03*
X1580500Y327000D02*
D03*
X1645071Y342205D02*
D03*
X1661000Y542000D02*
D03*
X1631071Y542205D02*
D03*
Y532205D02*
D03*
X1661000Y532000D02*
D03*
X1651000Y542000D02*
D03*
X1641000D02*
D03*
Y532000D02*
D03*
X1651000D02*
D03*
X1662071Y262205D02*
D03*
X1707071Y339205D02*
D03*
X1697071Y309205D02*
D03*
X1570800Y312800D02*
D03*
X1635071Y357205D02*
D03*
X1580071Y377205D02*
D03*
X1686071Y607205D02*
D03*
X1696071D02*
D03*
Y597205D02*
D03*
X1686071D02*
D03*
X1566071Y582705D02*
D03*
X1651071Y443705D02*
D03*
X1565571Y409205D02*
D03*
X1615071D02*
D03*
X1576571Y582705D02*
D03*
X1605071Y430705D02*
D03*
X905559Y146000D02*
D03*
X433118D02*
D03*
X1616071Y602205D02*
D03*
Y612205D02*
D03*
X1626071Y602205D02*
D03*
Y612205D02*
D03*
X439118Y125000D02*
D03*
X911559D02*
D03*
X956472Y107740D02*
D03*
X484031D02*
D03*
X1165700Y610100D02*
D03*
X1155700D02*
D03*
X1037590Y551045D02*
D03*
X1047590D02*
D03*
X919479Y491990D02*
D03*
X929480D02*
D03*
X801369Y432935D02*
D03*
X811369D02*
D03*
X683259Y373880D02*
D03*
X693259D02*
D03*
X565149Y314824D02*
D03*
X575149D02*
D03*
X447039Y255769D02*
D03*
X457039D02*
D03*
X1561000Y285000D02*
D03*
X1551000Y275000D02*
D03*
X1541000Y265000D02*
D03*
X1571000Y295000D02*
D03*
X1621000Y521000D02*
D03*
X1611000D02*
D03*
X1601000D02*
D03*
X1591000D02*
D03*
X1581000D02*
D03*
X1571000D02*
D03*
X1561000D02*
D03*
X1611000Y460528D02*
D03*
X1601000D02*
D03*
X1591000D02*
D03*
X1581000D02*
D03*
X1250000Y625000D02*
D03*
X1131890Y625000D02*
D03*
X1013780Y625000D02*
D03*
X895669D02*
D03*
X777559Y625000D02*
D03*
X659449D02*
D03*
X541339Y625000D02*
D03*
X911559Y138000D02*
D03*
X973559Y153000D02*
D03*
X501118D02*
D03*
X439118Y138000D02*
D03*
X1510400Y213000D02*
D03*
X1520400D02*
D03*
X1047959D02*
D03*
X1037959D02*
D03*
X575518D02*
D03*
X565518D02*
D03*
X1545500Y644500D02*
D03*
X1555500D02*
D03*
Y654500D02*
D03*
X1545500D02*
D03*
X1624500Y129000D02*
D03*
X708500Y389000D02*
D03*
X767555D02*
D03*
X826610D02*
D03*
X885665D02*
D03*
X944720D02*
D03*
X1062831D02*
D03*
X1003776D02*
D03*
X1121886D02*
D03*
X1239996D02*
D03*
X1299051D02*
D03*
X1358106Y389000D02*
D03*
X1417161D02*
D03*
X1476217Y389000D02*
D03*
X1180941Y389000D02*
D03*
X649445Y389000D02*
D03*
X590390Y389000D02*
D03*
X531335D02*
D03*
X472280D02*
D03*
X413224Y389000D02*
D03*
X354169Y389000D02*
D03*
X295114D02*
D03*
X236059D02*
D03*
X177004D02*
D03*
X117949D02*
D03*
M02*
