%FSLAX25Y25*%
%MOIN*%
G70*
G01*
G75*
G04 Layer_Color=2752767*
%ADD10O,0.02165X0.06890*%
%ADD11O,0.06890X0.02165*%
%ADD12R,0.12992X0.07874*%
%ADD13O,0.02362X0.08661*%
%ADD14R,0.03543X0.03543*%
%ADD15C,0.03937*%
%ADD16R,0.03347X0.03347*%
%ADD17R,0.03937X0.03937*%
%ADD18R,0.06299X0.11811*%
%ADD19R,0.07874X0.23622*%
%ADD20R,0.06299X0.02362*%
%ADD21R,0.04921X0.12008*%
%ADD22R,0.04724X0.13780*%
%ADD23R,0.08661X0.09252*%
%ADD24R,0.06102X0.09252*%
%ADD25R,0.03347X0.06693*%
%ADD26R,0.21850X0.25590*%
%ADD27R,0.22638X0.25590*%
%ADD28R,0.02362X0.08661*%
%ADD29C,0.05000*%
%ADD30C,0.02000*%
%ADD31C,0.01500*%
%ADD32C,0.02500*%
%ADD33C,0.03000*%
%ADD34C,0.01000*%
%ADD35C,0.04724*%
%ADD36C,0.04724*%
%ADD37R,0.05906X0.05906*%
%ADD38C,0.05906*%
%ADD39C,0.05906*%
%ADD40C,0.06299*%
%ADD41C,0.11614*%
%ADD42R,0.05906X0.05906*%
%ADD43C,0.05000*%
%ADD44C,0.02362*%
%ADD45C,0.00984*%
%ADD46C,0.00787*%
%ADD47O,0.02965X0.07690*%
%ADD48O,0.07690X0.02965*%
%ADD49R,0.13792X0.08674*%
%ADD50O,0.03162X0.09461*%
%ADD51R,0.04343X0.04343*%
%ADD52C,0.09843*%
%ADD53R,0.04147X0.04147*%
%ADD54R,0.04737X0.04737*%
%ADD55R,0.07099X0.12611*%
%ADD56R,0.08674X0.24422*%
%ADD57R,0.07099X0.03162*%
%ADD58R,0.05721X0.12808*%
%ADD59R,0.05524X0.14579*%
%ADD60R,0.09461X0.10052*%
%ADD61R,0.06902X0.10052*%
%ADD62R,0.04147X0.07493*%
%ADD63R,0.22650X0.26391*%
%ADD64R,0.23438X0.26391*%
%ADD65R,0.03162X0.09461*%
%ADD66C,0.05524*%
%ADD67C,0.05524*%
%ADD68R,0.06706X0.06706*%
%ADD69C,0.06706*%
%ADD70C,0.06706*%
%ADD71C,0.07099*%
%ADD72C,0.12414*%
%ADD73R,0.06706X0.06706*%
%ADD74C,0.05800*%
%ADD75C,0.00667*%
D46*
X470441Y529496D02*
Y533496D01*
X474441D01*
Y529496D01*
X470441D01*
Y519496D02*
Y523496D01*
X474441D01*
Y519496D01*
X470441D01*
X588551Y234221D02*
Y238221D01*
X592551D01*
Y234221D01*
X588551D01*
Y224220D02*
Y228221D01*
X592551D01*
Y224220D01*
X588551D01*
X647606Y234221D02*
Y238221D01*
X651606D01*
Y234221D01*
X647606D01*
Y224220D02*
Y228221D01*
X651606D01*
Y224220D01*
X647606D01*
X706661Y234221D02*
Y238221D01*
X710661D01*
Y234221D01*
X706661D01*
Y224220D02*
Y228221D01*
X710661D01*
Y224220D01*
X706661D01*
X765717Y234221D02*
Y238221D01*
X769717D01*
Y234221D01*
X765717D01*
Y224220D02*
Y228221D01*
X769717D01*
Y224220D01*
X765717D01*
X824772Y234221D02*
Y238221D01*
X828772D01*
Y234221D01*
X824772D01*
Y224220D02*
Y228221D01*
X828772D01*
Y224220D01*
X824772D01*
X883827Y234221D02*
Y238221D01*
X887827D01*
Y234221D01*
X883827D01*
Y224220D02*
Y228221D01*
X887827D01*
Y224220D01*
X883827D01*
X942882Y234221D02*
Y238221D01*
X946882D01*
Y234221D01*
X942882D01*
Y224220D02*
Y228221D01*
X946882D01*
Y224220D01*
X942882D01*
X1001937Y234221D02*
Y238221D01*
X1005937D01*
Y234221D01*
X1001937D01*
Y224220D02*
Y228221D01*
X1005937D01*
Y224220D01*
X1001937D01*
X1060992Y234221D02*
Y238221D01*
X1064992D01*
Y234221D01*
X1060992D01*
Y224220D02*
Y228221D01*
X1064992D01*
Y224220D01*
X1060992D01*
X1120047Y234221D02*
Y238221D01*
X1124047D01*
Y234221D01*
X1120047D01*
Y224220D02*
Y228221D01*
X1124047D01*
Y224220D01*
X1120047D01*
X1179102Y234221D02*
Y238221D01*
X1183102D01*
Y234221D01*
X1179102D01*
Y224220D02*
Y228221D01*
X1183102D01*
Y224220D01*
X1179102D01*
X1238157Y234221D02*
Y238221D01*
X1242157D01*
Y234221D01*
X1238157D01*
Y224220D02*
Y228221D01*
X1242157D01*
Y224220D01*
X1238157D01*
X1297213Y234221D02*
Y238221D01*
X1301213D01*
Y234221D01*
X1297213D01*
Y224220D02*
Y228221D01*
X1301213D01*
Y224220D01*
X1297213D01*
X1356268Y234221D02*
Y238221D01*
X1360268D01*
Y234221D01*
X1356268D01*
Y224220D02*
Y228221D01*
X1360268D01*
Y224220D01*
X1356268D01*
X1415323Y234221D02*
Y238221D01*
X1419323D01*
Y234221D01*
X1415323D01*
Y224220D02*
Y228221D01*
X1419323D01*
Y224220D01*
X1415323D01*
X1474378Y234221D02*
Y238221D01*
X1478378D01*
Y234221D01*
X1474378D01*
Y224220D02*
Y228221D01*
X1478378D01*
Y224220D01*
X1474378D01*
X116110Y234221D02*
Y238221D01*
X120110D01*
Y234221D01*
X116110D01*
Y224220D02*
Y228221D01*
X120110D01*
Y224220D01*
X116110D01*
X175165Y234221D02*
Y238221D01*
X179165D01*
Y234221D01*
X175165D01*
Y224220D02*
Y228221D01*
X179165D01*
Y224220D01*
X175165D01*
X234221Y234221D02*
Y238221D01*
X238221D01*
Y234221D01*
X234221D01*
Y224220D02*
Y228221D01*
X238221D01*
Y224220D01*
X234221D01*
X293276Y234221D02*
Y238221D01*
X297276D01*
Y234221D01*
X293276D01*
Y224220D02*
Y228221D01*
X297276D01*
Y224220D01*
X293276D01*
X352331Y234221D02*
Y238221D01*
X356331D01*
Y234221D01*
X352331D01*
Y224220D02*
Y228221D01*
X356331D01*
Y224220D01*
X352331D01*
X411386Y234221D02*
Y238221D01*
X415386D01*
Y234221D01*
X411386D01*
Y224220D02*
Y228221D01*
X415386D01*
Y224220D01*
X411386D01*
X470441Y234221D02*
Y238221D01*
X474441D01*
Y234221D01*
X470441D01*
Y224220D02*
Y228221D01*
X474441D01*
Y224220D01*
X470441D01*
X529496Y234221D02*
Y238221D01*
X533496D01*
Y234221D01*
X529496D01*
Y224220D02*
Y228221D01*
X533496D01*
Y224220D01*
X529496D01*
X588551Y578551D02*
Y582551D01*
X592551D01*
Y578551D01*
X588551D01*
Y519496D02*
Y523496D01*
X592551D01*
Y519496D01*
X588551D01*
Y460441D02*
Y464441D01*
X592551D01*
Y460441D01*
X588551D01*
Y401386D02*
Y405386D01*
X592551D01*
Y401386D01*
X588551D01*
Y342331D02*
Y346331D01*
X592551D01*
Y342331D01*
X588551D01*
Y283276D02*
Y287276D01*
X592551D01*
Y283276D01*
X588551D01*
X647606Y578551D02*
Y582551D01*
X651606D01*
Y578551D01*
X647606D01*
Y519496D02*
Y523496D01*
X651606D01*
Y519496D01*
X647606D01*
Y460441D02*
Y464441D01*
X651606D01*
Y460441D01*
X647606D01*
Y401386D02*
Y405386D01*
X651606D01*
Y401386D01*
X647606D01*
Y342331D02*
Y346331D01*
X651606D01*
Y342331D01*
X647606D01*
Y283276D02*
Y287276D01*
X651606D01*
Y283276D01*
X647606D01*
X706661Y578551D02*
Y582551D01*
X710661D01*
Y578551D01*
X706661D01*
Y519496D02*
Y523496D01*
X710661D01*
Y519496D01*
X706661D01*
Y460441D02*
Y464441D01*
X710661D01*
Y460441D01*
X706661D01*
Y401386D02*
Y405386D01*
X710661D01*
Y401386D01*
X706661D01*
Y342331D02*
Y346331D01*
X710661D01*
Y342331D01*
X706661D01*
Y283276D02*
Y287276D01*
X710661D01*
Y283276D01*
X706661D01*
X765717Y578551D02*
Y582551D01*
X769717D01*
Y578551D01*
X765717D01*
Y519496D02*
Y523496D01*
X769717D01*
Y519496D01*
X765717D01*
Y460441D02*
Y464441D01*
X769717D01*
Y460441D01*
X765717D01*
Y401386D02*
Y405386D01*
X769717D01*
Y401386D01*
X765717D01*
Y342331D02*
Y346331D01*
X769717D01*
Y342331D01*
X765717D01*
Y283276D02*
Y287276D01*
X769717D01*
Y283276D01*
X765717D01*
X824772Y578551D02*
Y582551D01*
X828772D01*
Y578551D01*
X824772D01*
Y519496D02*
Y523496D01*
X828772D01*
Y519496D01*
X824772D01*
Y460441D02*
Y464441D01*
X828772D01*
Y460441D01*
X824772D01*
Y401386D02*
Y405386D01*
X828772D01*
Y401386D01*
X824772D01*
Y342331D02*
Y346331D01*
X828772D01*
Y342331D01*
X824772D01*
Y283276D02*
Y287276D01*
X828772D01*
Y283276D01*
X824772D01*
X883827Y578551D02*
Y582551D01*
X887827D01*
Y578551D01*
X883827D01*
Y519496D02*
Y523496D01*
X887827D01*
Y519496D01*
X883827D01*
Y460441D02*
Y464441D01*
X887827D01*
Y460441D01*
X883827D01*
Y401386D02*
Y405386D01*
X887827D01*
Y401386D01*
X883827D01*
Y342331D02*
Y346331D01*
X887827D01*
Y342331D01*
X883827D01*
Y283276D02*
Y287276D01*
X887827D01*
Y283276D01*
X883827D01*
X942882Y578551D02*
Y582551D01*
X946882D01*
Y578551D01*
X942882D01*
Y519496D02*
Y523496D01*
X946882D01*
Y519496D01*
X942882D01*
Y460441D02*
Y464441D01*
X946882D01*
Y460441D01*
X942882D01*
Y401386D02*
Y405386D01*
X946882D01*
Y401386D01*
X942882D01*
Y342331D02*
Y346331D01*
X946882D01*
Y342331D01*
X942882D01*
Y283276D02*
Y287276D01*
X946882D01*
Y283276D01*
X942882D01*
X1001937Y578551D02*
Y582551D01*
X1005937D01*
Y578551D01*
X1001937D01*
Y519496D02*
Y523496D01*
X1005937D01*
Y519496D01*
X1001937D01*
Y460441D02*
Y464441D01*
X1005937D01*
Y460441D01*
X1001937D01*
Y401386D02*
Y405386D01*
X1005937D01*
Y401386D01*
X1001937D01*
Y342331D02*
Y346331D01*
X1005937D01*
Y342331D01*
X1001937D01*
X116110Y578551D02*
Y582551D01*
X120110D01*
Y578551D01*
X116110D01*
Y519496D02*
Y523496D01*
X120110D01*
Y519496D01*
X116110D01*
Y460441D02*
Y464441D01*
X120110D01*
Y460441D01*
X116110D01*
Y401386D02*
Y405386D01*
X120110D01*
Y401386D01*
X116110D01*
Y342331D02*
Y346331D01*
X120110D01*
Y342331D01*
X116110D01*
Y283276D02*
Y287276D01*
X120110D01*
Y283276D01*
X116110D01*
X175165Y578551D02*
Y582551D01*
X179165D01*
Y578551D01*
X175165D01*
Y519496D02*
Y523496D01*
X179165D01*
Y519496D01*
X175165D01*
Y460441D02*
Y464441D01*
X179165D01*
Y460441D01*
X175165D01*
Y401386D02*
Y405386D01*
X179165D01*
Y401386D01*
X175165D01*
Y342331D02*
Y346331D01*
X179165D01*
Y342331D01*
X175165D01*
Y283276D02*
Y287276D01*
X179165D01*
Y283276D01*
X175165D01*
X234221Y578551D02*
Y582551D01*
X238221D01*
Y578551D01*
X234221D01*
Y519496D02*
Y523496D01*
X238221D01*
Y519496D01*
X234221D01*
Y460441D02*
Y464441D01*
X238221D01*
Y460441D01*
X234221D01*
Y401386D02*
Y405386D01*
X238221D01*
Y401386D01*
X234221D01*
Y342331D02*
Y346331D01*
X238221D01*
Y342331D01*
X234221D01*
Y283276D02*
Y287276D01*
X238221D01*
Y283276D01*
X234221D01*
X293276Y578551D02*
Y582551D01*
X297276D01*
Y578551D01*
X293276D01*
Y519496D02*
Y523496D01*
X297276D01*
Y519496D01*
X293276D01*
Y460441D02*
Y464441D01*
X297276D01*
Y460441D01*
X293276D01*
Y401386D02*
Y405386D01*
X297276D01*
Y401386D01*
X293276D01*
Y342331D02*
Y346331D01*
X297276D01*
Y342331D01*
X293276D01*
Y283276D02*
Y287276D01*
X297276D01*
Y283276D01*
X293276D01*
X352331Y578551D02*
Y582551D01*
X356331D01*
Y578551D01*
X352331D01*
Y519496D02*
Y523496D01*
X356331D01*
Y519496D01*
X352331D01*
Y460441D02*
Y464441D01*
X356331D01*
Y460441D01*
X352331D01*
Y401386D02*
Y405386D01*
X356331D01*
Y401386D01*
X352331D01*
Y342331D02*
Y346331D01*
X356331D01*
Y342331D01*
X352331D01*
Y283276D02*
Y287276D01*
X356331D01*
Y283276D01*
X352331D01*
X411386Y578551D02*
Y582551D01*
X415386D01*
Y578551D01*
X411386D01*
Y519496D02*
Y523496D01*
X415386D01*
Y519496D01*
X411386D01*
Y460441D02*
Y464441D01*
X415386D01*
Y460441D01*
X411386D01*
Y401386D02*
Y405386D01*
X415386D01*
Y401386D01*
X411386D01*
Y342331D02*
Y346331D01*
X415386D01*
Y342331D01*
X411386D01*
Y283276D02*
Y287276D01*
X415386D01*
Y283276D01*
X411386D01*
X470441Y578551D02*
Y582551D01*
X474441D01*
Y578551D01*
X470441D01*
Y460441D02*
Y464441D01*
X474441D01*
Y460441D01*
X470441D01*
Y401386D02*
Y405386D01*
X474441D01*
Y401386D01*
X470441D01*
Y342331D02*
Y346331D01*
X474441D01*
Y342331D01*
X470441D01*
Y283276D02*
Y287276D01*
X474441D01*
Y283276D01*
X470441D01*
X529496Y578551D02*
Y582551D01*
X533496D01*
Y578551D01*
X529496D01*
Y519496D02*
Y523496D01*
X533496D01*
Y519496D01*
X529496D01*
Y460441D02*
Y464441D01*
X533496D01*
Y460441D01*
X529496D01*
Y401386D02*
Y405386D01*
X533496D01*
Y401386D01*
X529496D01*
Y342331D02*
Y346331D01*
X533496D01*
Y342331D01*
X529496D01*
Y283276D02*
Y287276D01*
X533496D01*
Y283276D01*
X529496D01*
X1060992Y578551D02*
Y582551D01*
X1064992D01*
Y578551D01*
X1060992D01*
Y519496D02*
Y523496D01*
X1064992D01*
Y519496D01*
X1060992D01*
Y460441D02*
Y464441D01*
X1064992D01*
Y460441D01*
X1060992D01*
Y401386D02*
Y405386D01*
X1064992D01*
Y401386D01*
X1060992D01*
Y342331D02*
Y346331D01*
X1064992D01*
Y342331D01*
X1060992D01*
Y283276D02*
Y287276D01*
X1064992D01*
Y283276D01*
X1060992D01*
X1120047Y578551D02*
Y582551D01*
X1124047D01*
Y578551D01*
X1120047D01*
Y460441D02*
Y464441D01*
X1124047D01*
Y460441D01*
X1120047D01*
Y401386D02*
Y405386D01*
X1124047D01*
Y401386D01*
X1120047D01*
Y342331D02*
Y346331D01*
X1124047D01*
Y342331D01*
X1120047D01*
Y283276D02*
Y287276D01*
X1124047D01*
Y283276D01*
X1120047D01*
X1179102Y578551D02*
Y582551D01*
X1183102D01*
Y578551D01*
X1179102D01*
Y519496D02*
Y523496D01*
X1183102D01*
Y519496D01*
X1179102D01*
Y460441D02*
Y464441D01*
X1183102D01*
Y460441D01*
X1179102D01*
Y401386D02*
Y405386D01*
X1183102D01*
Y401386D01*
X1179102D01*
Y342331D02*
Y346331D01*
X1183102D01*
Y342331D01*
X1179102D01*
Y283276D02*
Y287276D01*
X1183102D01*
Y283276D01*
X1179102D01*
X1238157Y578551D02*
Y582551D01*
X1242157D01*
Y578551D01*
X1238157D01*
Y519496D02*
Y523496D01*
X1242157D01*
Y519496D01*
X1238157D01*
Y460441D02*
Y464441D01*
X1242157D01*
Y460441D01*
X1238157D01*
Y401386D02*
Y405386D01*
X1242157D01*
Y401386D01*
X1238157D01*
Y342331D02*
Y346331D01*
X1242157D01*
Y342331D01*
X1238157D01*
Y283276D02*
Y287276D01*
X1242157D01*
Y283276D01*
X1238157D01*
X1297213Y578551D02*
Y582551D01*
X1301213D01*
Y578551D01*
X1297213D01*
Y519496D02*
Y523496D01*
X1301213D01*
Y519496D01*
X1297213D01*
Y460441D02*
Y464441D01*
X1301213D01*
Y460441D01*
X1297213D01*
Y401386D02*
Y405386D01*
X1301213D01*
Y401386D01*
X1297213D01*
Y342331D02*
Y346331D01*
X1301213D01*
Y342331D01*
X1297213D01*
Y283276D02*
Y287276D01*
X1301213D01*
Y283276D01*
X1297213D01*
X1356268Y578551D02*
Y582551D01*
X1360268D01*
Y578551D01*
X1356268D01*
Y519496D02*
Y523496D01*
X1360268D01*
Y519496D01*
X1356268D01*
Y460441D02*
Y464441D01*
X1360268D01*
Y460441D01*
X1356268D01*
Y401386D02*
Y405386D01*
X1360268D01*
Y401386D01*
X1356268D01*
Y342331D02*
Y346331D01*
X1360268D01*
Y342331D01*
X1356268D01*
Y283276D02*
Y287276D01*
X1360268D01*
Y283276D01*
X1356268D01*
X1415323Y578551D02*
Y582551D01*
X1419323D01*
Y578551D01*
X1415323D01*
Y519496D02*
Y523496D01*
X1419323D01*
Y519496D01*
X1415323D01*
Y460441D02*
Y464441D01*
X1419323D01*
Y460441D01*
X1415323D01*
Y401386D02*
Y405386D01*
X1419323D01*
Y401386D01*
X1415323D01*
X1415323Y342331D02*
Y346331D01*
X1419323D01*
Y342331D01*
X1415323D01*
X1415323Y283276D02*
Y287276D01*
X1419323D01*
Y283276D01*
X1415323D01*
X1474378Y578551D02*
Y582551D01*
X1478378D01*
Y578551D01*
X1474378D01*
Y519496D02*
Y523496D01*
X1478378D01*
Y519496D01*
X1474378D01*
Y460441D02*
Y464441D01*
X1478378D01*
Y460441D01*
X1474378D01*
Y401386D02*
Y405386D01*
X1478378D01*
Y401386D01*
X1474378D01*
Y342331D02*
Y346331D01*
X1478378D01*
Y342331D01*
X1474378D01*
Y283276D02*
Y287276D01*
X1478378D01*
Y283276D01*
X1474378D01*
X116110Y588551D02*
Y592551D01*
X120110D01*
Y588551D01*
X116110D01*
X175165D02*
Y592551D01*
X179165D01*
Y588551D01*
X175165D01*
X234221D02*
Y592551D01*
X238221D01*
Y588551D01*
X234221D01*
X293276D02*
Y592551D01*
X297276D01*
Y588551D01*
X293276D01*
X352331D02*
Y592551D01*
X356331D01*
Y588551D01*
X352331D01*
X411386D02*
Y592551D01*
X415386D01*
Y588551D01*
X411386D01*
X470441D02*
Y592551D01*
X474441D01*
Y588551D01*
X470441D01*
X529496D02*
Y592551D01*
X533496D01*
Y588551D01*
X529496D01*
X588551D02*
Y592551D01*
X592551D01*
Y588551D01*
X588551D01*
X647606D02*
Y592551D01*
X651606D01*
Y588551D01*
X647606D01*
X706661D02*
Y592551D01*
X710661D01*
Y588551D01*
X706661D01*
X765717D02*
Y592551D01*
X769717D01*
Y588551D01*
X765717D01*
X824772D02*
Y592551D01*
X828772D01*
Y588551D01*
X824772D01*
X883827D02*
Y592551D01*
X887827D01*
Y588551D01*
X883827D01*
X942882D02*
Y592551D01*
X946882D01*
Y588551D01*
X942882D01*
X1001937D02*
Y592551D01*
X1005937D01*
Y588551D01*
X1001937D01*
X1060992D02*
Y592551D01*
X1064992D01*
Y588551D01*
X1060992D01*
X1120047D02*
Y592551D01*
X1124047D01*
Y588551D01*
X1120047D01*
X1179102D02*
Y592551D01*
X1183102D01*
Y588551D01*
X1179102D01*
X1238157D02*
Y592551D01*
X1242157D01*
Y588551D01*
X1238157D01*
X1297213D02*
Y592551D01*
X1301213D01*
Y588551D01*
X1297213D01*
X1356268D02*
Y592551D01*
X1360268D01*
Y588551D01*
X1356268D01*
X1415323D02*
Y592551D01*
X1419323D01*
Y588551D01*
X1415323D01*
X1474378D02*
Y592551D01*
X1478378D01*
Y588551D01*
X1474378D01*
X116110Y529496D02*
Y533496D01*
X120110D01*
Y529496D01*
X116110D01*
X175165Y529496D02*
Y533496D01*
X179165D01*
Y529496D01*
X175165D01*
X234221D02*
Y533496D01*
X238221D01*
Y529496D01*
X234221D01*
X293276D02*
Y533496D01*
X297276D01*
Y529496D01*
X293276D01*
X352331D02*
Y533496D01*
X356331D01*
Y529496D01*
X352331D01*
X411386D02*
Y533496D01*
X415386D01*
Y529496D01*
X411386D01*
X529496D02*
Y533496D01*
X533496D01*
Y529496D01*
X529496D01*
X588551D02*
Y533496D01*
X592551D01*
Y529496D01*
X588551D01*
X647606D02*
Y533496D01*
X651606D01*
Y529496D01*
X647606D01*
X706661D02*
Y533496D01*
X710661D01*
Y529496D01*
X706661D01*
X765717D02*
Y533496D01*
X769717D01*
Y529496D01*
X765717D01*
X824772D02*
Y533496D01*
X828772D01*
Y529496D01*
X824772D01*
X883827D02*
Y533496D01*
X887827D01*
Y529496D01*
X883827D01*
X942882D02*
Y533496D01*
X946882D01*
Y529496D01*
X942882D01*
X1001937D02*
Y533496D01*
X1005937D01*
Y529496D01*
X1001937D01*
X1060992D02*
Y533496D01*
X1064992D01*
Y529496D01*
X1060992D01*
X1179102D02*
Y533496D01*
X1183102D01*
Y529496D01*
X1179102D01*
X1238157D02*
Y533496D01*
X1242157D01*
Y529496D01*
X1238157D01*
X1297213D02*
Y533496D01*
X1301213D01*
Y529496D01*
X1297213D01*
X1356268D02*
Y533496D01*
X1360268D01*
Y529496D01*
X1356268D01*
X1415323D02*
Y533496D01*
X1419323D01*
Y529496D01*
X1415323D01*
X1474378D02*
Y533496D01*
X1478378D01*
Y529496D01*
X1474378D01*
X116110Y470441D02*
Y474441D01*
X120110D01*
Y470441D01*
X116110D01*
X175165D02*
Y474441D01*
X179165D01*
Y470441D01*
X175165D01*
X234221D02*
Y474441D01*
X238221D01*
Y470441D01*
X234221D01*
X293276D02*
Y474441D01*
X297276D01*
Y470441D01*
X293276D01*
X352331D02*
Y474441D01*
X356331D01*
Y470441D01*
X352331D01*
X411386D02*
Y474441D01*
X415386D01*
Y470441D01*
X411386D01*
X470441D02*
Y474441D01*
X474441D01*
Y470441D01*
X470441D01*
X529496D02*
Y474441D01*
X533496D01*
Y470441D01*
X529496D01*
X588551D02*
Y474441D01*
X592551D01*
Y470441D01*
X588551D01*
X647606D02*
Y474441D01*
X651606D01*
Y470441D01*
X647606D01*
X706661D02*
Y474441D01*
X710661D01*
Y470441D01*
X706661D01*
X765717D02*
Y474441D01*
X769717D01*
Y470441D01*
X765717D01*
X824772D02*
Y474441D01*
X828772D01*
Y470441D01*
X824772D01*
X883827D02*
Y474441D01*
X887827D01*
Y470441D01*
X883827D01*
X942882D02*
Y474441D01*
X946882D01*
Y470441D01*
X942882D01*
X1001937D02*
Y474441D01*
X1005937D01*
Y470441D01*
X1001937D01*
X1060992D02*
Y474441D01*
X1064992D01*
Y470441D01*
X1060992D01*
X1120047D02*
Y474441D01*
X1124047D01*
Y470441D01*
X1120047D01*
X1179102D02*
Y474441D01*
X1183102D01*
Y470441D01*
X1179102D01*
X1238157D02*
Y474441D01*
X1242157D01*
Y470441D01*
X1238157D01*
X1297213D02*
Y474441D01*
X1301213D01*
Y470441D01*
X1297213D01*
X1356268D02*
Y474441D01*
X1360268D01*
Y470441D01*
X1356268D01*
X1415323D02*
Y474441D01*
X1419323D01*
Y470441D01*
X1415323D01*
X1474378D02*
Y474441D01*
X1478378D01*
Y470441D01*
X1474378D01*
X116110Y411386D02*
Y415386D01*
X120110D01*
Y411386D01*
X116110D01*
X175165D02*
Y415386D01*
X179165D01*
Y411386D01*
X175165D01*
X234221D02*
Y415386D01*
X238221D01*
Y411386D01*
X234221D01*
X293276D02*
Y415386D01*
X297276D01*
Y411386D01*
X293276D01*
X352331D02*
Y415386D01*
X356331D01*
Y411386D01*
X352331D01*
X411386D02*
Y415386D01*
X415386D01*
Y411386D01*
X411386D01*
X470441D02*
Y415386D01*
X474441D01*
Y411386D01*
X470441D01*
X529496D02*
Y415386D01*
X533496D01*
Y411386D01*
X529496D01*
X588551D02*
Y415386D01*
X592551D01*
Y411386D01*
X588551D01*
X647606D02*
Y415386D01*
X651606D01*
Y411386D01*
X647606D01*
X706661D02*
Y415386D01*
X710661D01*
Y411386D01*
X706661D01*
X765717D02*
Y415386D01*
X769717D01*
Y411386D01*
X765717D01*
X824772D02*
Y415386D01*
X828772D01*
Y411386D01*
X824772D01*
X883827D02*
Y415386D01*
X887827D01*
Y411386D01*
X883827D01*
X942882D02*
Y415386D01*
X946882D01*
Y411386D01*
X942882D01*
X1001937D02*
Y415386D01*
X1005937D01*
Y411386D01*
X1001937D01*
X1060992D02*
Y415386D01*
X1064992D01*
Y411386D01*
X1060992D01*
X1120047D02*
Y415386D01*
X1124047D01*
Y411386D01*
X1120047D01*
X1179102D02*
Y415386D01*
X1183102D01*
Y411386D01*
X1179102D01*
X1238157D02*
Y415386D01*
X1242157D01*
Y411386D01*
X1238157D01*
X1297213D02*
Y415386D01*
X1301213D01*
Y411386D01*
X1297213D01*
X1356268D02*
Y415386D01*
X1360268D01*
Y411386D01*
X1356268D01*
X1415323D02*
Y415386D01*
X1419323D01*
Y411386D01*
X1415323D01*
X1474378D02*
Y415386D01*
X1478378D01*
Y411386D01*
X1474378D01*
X116110Y352331D02*
Y356331D01*
X120110D01*
Y352331D01*
X116110D01*
X175165D02*
Y356331D01*
X179165D01*
Y352331D01*
X175165D01*
X234221D02*
Y356331D01*
X238221D01*
Y352331D01*
X234221D01*
X293276D02*
Y356331D01*
X297276D01*
Y352331D01*
X293276D01*
X352331D02*
Y356331D01*
X356331D01*
Y352331D01*
X352331D01*
X411386D02*
Y356331D01*
X415386D01*
Y352331D01*
X411386D01*
X470441D02*
Y356331D01*
X474441D01*
Y352331D01*
X470441D01*
X529496D02*
Y356331D01*
X533496D01*
Y352331D01*
X529496D01*
X588551D02*
Y356331D01*
X592551D01*
Y352331D01*
X588551D01*
X647606D02*
Y356331D01*
X651606D01*
Y352331D01*
X647606D01*
X706661D02*
Y356331D01*
X710661D01*
Y352331D01*
X706661D01*
X765717D02*
Y356331D01*
X769717D01*
Y352331D01*
X765717D01*
X824772D02*
Y356331D01*
X828772D01*
Y352331D01*
X824772D01*
X883827D02*
Y356331D01*
X887827D01*
Y352331D01*
X883827D01*
X942882D02*
Y356331D01*
X946882D01*
Y352331D01*
X942882D01*
X1001937D02*
Y356331D01*
X1005937D01*
Y352331D01*
X1001937D01*
X1060992D02*
Y356331D01*
X1064992D01*
Y352331D01*
X1060992D01*
X1120047D02*
Y356331D01*
X1124047D01*
Y352331D01*
X1120047D01*
X1179102D02*
Y356331D01*
X1183102D01*
Y352331D01*
X1179102D01*
X1238157D02*
Y356331D01*
X1242157D01*
Y352331D01*
X1238157D01*
X1297213D02*
Y356331D01*
X1301213D01*
Y352331D01*
X1297213D01*
X1356268D02*
Y356331D01*
X1360268D01*
Y352331D01*
X1356268D01*
X1415323D02*
Y356331D01*
X1419323D01*
Y352331D01*
X1415323D01*
X1474378D02*
Y356331D01*
X1478378D01*
Y352331D01*
X1474378D01*
X116110Y293276D02*
Y297276D01*
X120110D01*
Y293276D01*
X116110D01*
X175165D02*
Y297276D01*
X179165D01*
Y293276D01*
X175165D01*
X234221D02*
Y297276D01*
X238221D01*
Y293276D01*
X234221D01*
X293276D02*
Y297276D01*
X297276D01*
Y293276D01*
X293276D01*
X352331D02*
Y297276D01*
X356331D01*
Y293276D01*
X352331D01*
X411386D02*
Y297276D01*
X415386D01*
Y293276D01*
X411386D01*
X470441D02*
Y297276D01*
X474441D01*
Y293276D01*
X470441D01*
X529496D02*
Y297276D01*
X533496D01*
Y293276D01*
X529496D01*
X588551D02*
Y297276D01*
X592551D01*
Y293276D01*
X588551D01*
X647606D02*
Y297276D01*
X651606D01*
Y293276D01*
X647606D01*
X706661D02*
Y297276D01*
X710661D01*
Y293276D01*
X706661D01*
X765717D02*
Y297276D01*
X769717D01*
Y293276D01*
X765717D01*
X824772D02*
Y297276D01*
X828772D01*
Y293276D01*
X824772D01*
X883827D02*
Y297276D01*
X887827D01*
Y293276D01*
X883827D01*
X942882D02*
Y297276D01*
X946882D01*
Y293276D01*
X942882D01*
X1060992D02*
Y297276D01*
X1064992D01*
Y293276D01*
X1060992D01*
X1120047D02*
Y297276D01*
X1124047D01*
Y293276D01*
X1120047D01*
X1179102D02*
Y297276D01*
X1183102D01*
Y293276D01*
X1179102D01*
X1238157D02*
Y297276D01*
X1242157D01*
Y293276D01*
X1238157D01*
X1297213D02*
Y297276D01*
X1301213D01*
Y293276D01*
X1297213D01*
X1356268D02*
Y297276D01*
X1360268D01*
Y293276D01*
X1356268D01*
X1415323D02*
Y297276D01*
X1419323D01*
Y293276D01*
X1415323D01*
X1474378D02*
Y297276D01*
X1478378D01*
Y293276D01*
X1474378D01*
X1001937D02*
Y297276D01*
X1005937D01*
Y293276D01*
X1001937D01*
Y283276D02*
Y287276D01*
X1005937D01*
Y283276D01*
X1001937D01*
X1120047Y529496D02*
Y533496D01*
X1124047D01*
Y529496D01*
X1120047D01*
Y519496D02*
Y523496D01*
X1124047D01*
Y519496D01*
X1120047D01*
D75*
X1678071Y237551D02*
G03*
X1678071Y237551I-2000J0D01*
G01*
Y247551D02*
G03*
X1678071Y247551I-2000J0D01*
G01*
X1688071Y237551D02*
G03*
X1688071Y237551I-2000J0D01*
G01*
Y247551D02*
G03*
X1688071Y247551I-2000J0D01*
G01*
X1698071Y237551D02*
G03*
X1698071Y237551I-2000J0D01*
G01*
Y247551D02*
G03*
X1698071Y247551I-2000J0D01*
G01*
X1715571Y448705D02*
G03*
X1715571Y448705I-2000J0D01*
G01*
Y438705D02*
G03*
X1715571Y438705I-2000J0D01*
G01*
X1725571Y443705D02*
G03*
X1725571Y443705I-2000J0D01*
G01*
Y433705D02*
G03*
X1725571Y433705I-2000J0D01*
G01*
X1748571Y416705D02*
X1746571Y420705D01*
X1750571D01*
X1748571Y416705D01*
Y461705D02*
X1746571Y465705D01*
X1750571D01*
X1748571Y461705D01*
X1715575Y535043D02*
G03*
X1715575Y535043I-2000J0D01*
G01*
Y525043D02*
G03*
X1715575Y525043I-2000J0D01*
G01*
X1725575Y530043D02*
G03*
X1725575Y530043I-2000J0D01*
G01*
Y520043D02*
G03*
X1725575Y520043I-2000J0D01*
G01*
X1748575Y503043D02*
X1746575Y507043D01*
X1750575D01*
X1748575Y503043D01*
Y548043D02*
X1746575Y552043D01*
X1750575D01*
X1748575Y548043D01*
X1725575Y510043D02*
G03*
X1725575Y510043I-2000J0D01*
G01*
X1715575Y515043D02*
G03*
X1715575Y515043I-2000J0D01*
G01*
X1725575Y540043D02*
G03*
X1725575Y540043I-2000J0D01*
G01*
X1715575Y545043D02*
G03*
X1715575Y545043I-2000J0D01*
G01*
X1725571Y423705D02*
G03*
X1725571Y423705I-2000J0D01*
G01*
X1715571Y428705D02*
G03*
X1715571Y428705I-2000J0D01*
G01*
X1725571Y453705D02*
G03*
X1725571Y453705I-2000J0D01*
G01*
X1715571Y458705D02*
G03*
X1715571Y458705I-2000J0D01*
G01*
X1446000Y151000D02*
X1447000Y152000D01*
X1448000D01*
X1447000Y153000D01*
X1448000Y154000D01*
X1447000D01*
X1446000Y155000D01*
X1445000Y154000D01*
X1444000D01*
X1445000Y153000D01*
X1444000Y152000D01*
X1445000D01*
X1446000Y151000D01*
X1384000Y136000D02*
X1385000Y137000D01*
X1386000D01*
X1385000Y138000D01*
X1386000Y139000D01*
X1385000D01*
X1384000Y140000D01*
X1383000Y139000D01*
X1382000D01*
X1383000Y138000D01*
X1382000Y137000D01*
X1383000D01*
X1384000Y136000D01*
X1428913Y105740D02*
X1429913Y106740D01*
X1430913D01*
X1429913Y107740D01*
X1430913Y108740D01*
X1429913D01*
X1428913Y109740D01*
X1427913Y108740D01*
X1426913D01*
X1427913Y107740D01*
X1426913Y106740D01*
X1427913D01*
X1428913Y105740D01*
X1384000Y123000D02*
X1385000Y124000D01*
X1386000D01*
X1385000Y125000D01*
X1386000Y126000D01*
X1385000D01*
X1384000Y127000D01*
X1383000Y126000D01*
X1382000D01*
X1383000Y125000D01*
X1382000Y124000D01*
X1383000D01*
X1384000Y123000D01*
X1378000Y144000D02*
X1379000Y145000D01*
X1380000D01*
X1379000Y146000D01*
X1380000Y147000D01*
X1379000D01*
X1378000Y148000D01*
X1377000Y147000D01*
X1376000D01*
X1377000Y146000D01*
X1376000Y145000D01*
X1377000D01*
X1378000Y144000D01*
X1704811Y252961D02*
X1705811Y253961D01*
X1706811D01*
X1705811Y254961D01*
X1706811Y255961D01*
X1705811D01*
X1704811Y256961D01*
X1703811Y255961D01*
X1702811D01*
X1703811Y254961D01*
X1702811Y253961D01*
X1703811D01*
X1704811Y252961D01*
X1667071Y168205D02*
X1668071Y169205D01*
X1669071D01*
X1668071Y170205D01*
X1669071Y171205D01*
X1668071D01*
X1667071Y172205D01*
X1666071Y171205D01*
X1665071D01*
X1666071Y170205D01*
X1665071Y169205D01*
X1666071D01*
X1667071Y168205D01*
X1622071Y258205D02*
X1623071Y259205D01*
X1624071D01*
X1623071Y260205D01*
X1624071Y261205D01*
X1623071D01*
X1622071Y262205D01*
X1621071Y261205D01*
X1620071D01*
X1621071Y260205D01*
X1620071Y259205D01*
X1621071D01*
X1622071Y258205D01*
X1603071Y406205D02*
X1604071Y407205D01*
X1605071D01*
X1604071Y408205D01*
X1605071Y409205D01*
X1604071D01*
X1603071Y410205D01*
X1602071Y409205D01*
X1601071D01*
X1602071Y408205D01*
X1601071Y407205D01*
X1602071D01*
X1603071Y406205D01*
X1626071Y381205D02*
X1627071Y382205D01*
X1628071D01*
X1627071Y383205D01*
X1628071Y384205D01*
X1627071D01*
X1626071Y385205D01*
X1625071Y384205D01*
X1624071D01*
X1625071Y383205D01*
X1624071Y382205D01*
X1625071D01*
X1626071Y381205D01*
X1580500Y325000D02*
X1581500Y326000D01*
X1582500D01*
X1581500Y327000D01*
X1582500Y328000D01*
X1581500D01*
X1580500Y329000D01*
X1579500Y328000D01*
X1578500D01*
X1579500Y327000D01*
X1578500Y326000D01*
X1579500D01*
X1580500Y325000D01*
X1645071Y340205D02*
X1646071Y341205D01*
X1647071D01*
X1646071Y342205D01*
X1647071Y343205D01*
X1646071D01*
X1645071Y344205D01*
X1644071Y343205D01*
X1643071D01*
X1644071Y342205D01*
X1643071Y341205D01*
X1644071D01*
X1645071Y340205D01*
X1661000Y540000D02*
X1662000Y541000D01*
X1663000D01*
X1662000Y542000D01*
X1663000Y543000D01*
X1662000D01*
X1661000Y544000D01*
X1660000Y543000D01*
X1659000D01*
X1660000Y542000D01*
X1659000Y541000D01*
X1660000D01*
X1661000Y540000D01*
X1631071Y540205D02*
X1632071Y541205D01*
X1633071D01*
X1632071Y542205D01*
X1633071Y543205D01*
X1632071D01*
X1631071Y544205D01*
X1630071Y543205D01*
X1629071D01*
X1630071Y542205D01*
X1629071Y541205D01*
X1630071D01*
X1631071Y540205D01*
Y530205D02*
X1632071Y531205D01*
X1633071D01*
X1632071Y532205D01*
X1633071Y533205D01*
X1632071D01*
X1631071Y534205D01*
X1630071Y533205D01*
X1629071D01*
X1630071Y532205D01*
X1629071Y531205D01*
X1630071D01*
X1631071Y530205D01*
X1661000Y530000D02*
X1662000Y531000D01*
X1663000D01*
X1662000Y532000D01*
X1663000Y533000D01*
X1662000D01*
X1661000Y534000D01*
X1660000Y533000D01*
X1659000D01*
X1660000Y532000D01*
X1659000Y531000D01*
X1660000D01*
X1661000Y530000D01*
X1651000Y540000D02*
X1652000Y541000D01*
X1653000D01*
X1652000Y542000D01*
X1653000Y543000D01*
X1652000D01*
X1651000Y544000D01*
X1650000Y543000D01*
X1649000D01*
X1650000Y542000D01*
X1649000Y541000D01*
X1650000D01*
X1651000Y540000D01*
X1641000D02*
X1642000Y541000D01*
X1643000D01*
X1642000Y542000D01*
X1643000Y543000D01*
X1642000D01*
X1641000Y544000D01*
X1640000Y543000D01*
X1639000D01*
X1640000Y542000D01*
X1639000Y541000D01*
X1640000D01*
X1641000Y540000D01*
Y530000D02*
X1642000Y531000D01*
X1643000D01*
X1642000Y532000D01*
X1643000Y533000D01*
X1642000D01*
X1641000Y534000D01*
X1640000Y533000D01*
X1639000D01*
X1640000Y532000D01*
X1639000Y531000D01*
X1640000D01*
X1641000Y530000D01*
X1651000D02*
X1652000Y531000D01*
X1653000D01*
X1652000Y532000D01*
X1653000Y533000D01*
X1652000D01*
X1651000Y534000D01*
X1650000Y533000D01*
X1649000D01*
X1650000Y532000D01*
X1649000Y531000D01*
X1650000D01*
X1651000Y530000D01*
X1662071Y260205D02*
X1663071Y261205D01*
X1664071D01*
X1663071Y262205D01*
X1664071Y263205D01*
X1663071D01*
X1662071Y264205D01*
X1661071Y263205D01*
X1660071D01*
X1661071Y262205D01*
X1660071Y261205D01*
X1661071D01*
X1662071Y260205D01*
X1707071Y337205D02*
X1708071Y338205D01*
X1709071D01*
X1708071Y339205D01*
X1709071Y340205D01*
X1708071D01*
X1707071Y341205D01*
X1706071Y340205D01*
X1705071D01*
X1706071Y339205D01*
X1705071Y338205D01*
X1706071D01*
X1707071Y337205D01*
X1697071Y307205D02*
X1698071Y308205D01*
X1699071D01*
X1698071Y309205D01*
X1699071Y310205D01*
X1698071D01*
X1697071Y311205D01*
X1696071Y310205D01*
X1695071D01*
X1696071Y309205D01*
X1695071Y308205D01*
X1696071D01*
X1697071Y307205D01*
X1570800Y310800D02*
X1571800Y311800D01*
X1572800D01*
X1571800Y312800D01*
X1572800Y313800D01*
X1571800D01*
X1570800Y314800D01*
X1569800Y313800D01*
X1568800D01*
X1569800Y312800D01*
X1568800Y311800D01*
X1569800D01*
X1570800Y310800D01*
X1635071Y355205D02*
X1636071Y356205D01*
X1637071D01*
X1636071Y357205D01*
X1637071Y358205D01*
X1636071D01*
X1635071Y359205D01*
X1634071Y358205D01*
X1633071D01*
X1634071Y357205D01*
X1633071Y356205D01*
X1634071D01*
X1635071Y355205D01*
X1580071Y375205D02*
X1581071Y376205D01*
X1582071D01*
X1581071Y377205D01*
X1582071Y378205D01*
X1581071D01*
X1580071Y379205D01*
X1579071Y378205D01*
X1578071D01*
X1579071Y377205D01*
X1578071Y376205D01*
X1579071D01*
X1580071Y375205D01*
X1686071Y605205D02*
X1687071Y606205D01*
X1688071D01*
X1687071Y607205D01*
X1688071Y608205D01*
X1687071D01*
X1686071Y609205D01*
X1685071Y608205D01*
X1684071D01*
X1685071Y607205D01*
X1684071Y606205D01*
X1685071D01*
X1686071Y605205D01*
X1696071D02*
X1697071Y606205D01*
X1698071D01*
X1697071Y607205D01*
X1698071Y608205D01*
X1697071D01*
X1696071Y609205D01*
X1695071Y608205D01*
X1694071D01*
X1695071Y607205D01*
X1694071Y606205D01*
X1695071D01*
X1696071Y605205D01*
Y595205D02*
X1697071Y596205D01*
X1698071D01*
X1697071Y597205D01*
X1698071Y598205D01*
X1697071D01*
X1696071Y599205D01*
X1695071Y598205D01*
X1694071D01*
X1695071Y597205D01*
X1694071Y596205D01*
X1695071D01*
X1696071Y595205D01*
X1686071D02*
X1687071Y596205D01*
X1688071D01*
X1687071Y597205D01*
X1688071Y598205D01*
X1687071D01*
X1686071Y599205D01*
X1685071Y598205D01*
X1684071D01*
X1685071Y597205D01*
X1684071Y596205D01*
X1685071D01*
X1686071Y595205D01*
X1566071Y580705D02*
X1567071Y581705D01*
X1568071D01*
X1567071Y582705D01*
X1568071Y583705D01*
X1567071D01*
X1566071Y584705D01*
X1565071Y583705D01*
X1564071D01*
X1565071Y582705D01*
X1564071Y581705D01*
X1565071D01*
X1566071Y580705D01*
X1651071Y441705D02*
X1652071Y442705D01*
X1653071D01*
X1652071Y443705D01*
X1653071Y444705D01*
X1652071D01*
X1651071Y445705D01*
X1650071Y444705D01*
X1649071D01*
X1650071Y443705D01*
X1649071Y442705D01*
X1650071D01*
X1651071Y441705D01*
X1565571Y407205D02*
X1566571Y408205D01*
X1567571D01*
X1566571Y409205D01*
X1567571Y410205D01*
X1566571D01*
X1565571Y411205D01*
X1564571Y410205D01*
X1563571D01*
X1564571Y409205D01*
X1563571Y408205D01*
X1564571D01*
X1565571Y407205D01*
X1615071D02*
X1616071Y408205D01*
X1617071D01*
X1616071Y409205D01*
X1617071Y410205D01*
X1616071D01*
X1615071Y411205D01*
X1614071Y410205D01*
X1613071D01*
X1614071Y409205D01*
X1613071Y408205D01*
X1614071D01*
X1615071Y407205D01*
X1576571Y580705D02*
X1577571Y581705D01*
X1578571D01*
X1577571Y582705D01*
X1578571Y583705D01*
X1577571D01*
X1576571Y584705D01*
X1575571Y583705D01*
X1574571D01*
X1575571Y582705D01*
X1574571Y581705D01*
X1575571D01*
X1576571Y580705D01*
X1605071Y428705D02*
X1606071Y429705D01*
X1607071D01*
X1606071Y430705D01*
X1607071Y431705D01*
X1606071D01*
X1605071Y432705D01*
X1604071Y431705D01*
X1603071D01*
X1604071Y430705D01*
X1603071Y429705D01*
X1604071D01*
X1605071Y428705D01*
X905559Y144000D02*
X906559Y145000D01*
X907559D01*
X906559Y146000D01*
X907559Y147000D01*
X906559D01*
X905559Y148000D01*
X904559Y147000D01*
X903559D01*
X904559Y146000D01*
X903559Y145000D01*
X904559D01*
X905559Y144000D01*
X433118D02*
X434118Y145000D01*
X435118D01*
X434118Y146000D01*
X435118Y147000D01*
X434118D01*
X433118Y148000D01*
X432118Y147000D01*
X431118D01*
X432118Y146000D01*
X431118Y145000D01*
X432118D01*
X433118Y144000D01*
X1616071Y600205D02*
X1617071Y601205D01*
X1618071D01*
X1617071Y602205D01*
X1618071Y603205D01*
X1617071D01*
X1616071Y604205D01*
X1615071Y603205D01*
X1614071D01*
X1615071Y602205D01*
X1614071Y601205D01*
X1615071D01*
X1616071Y600205D01*
Y610205D02*
X1617071Y611205D01*
X1618071D01*
X1617071Y612205D01*
X1618071Y613205D01*
X1617071D01*
X1616071Y614205D01*
X1615071Y613205D01*
X1614071D01*
X1615071Y612205D01*
X1614071Y611205D01*
X1615071D01*
X1616071Y610205D01*
X1626071Y600205D02*
X1627071Y601205D01*
X1628071D01*
X1627071Y602205D01*
X1628071Y603205D01*
X1627071D01*
X1626071Y604205D01*
X1625071Y603205D01*
X1624071D01*
X1625071Y602205D01*
X1624071Y601205D01*
X1625071D01*
X1626071Y600205D01*
Y610205D02*
X1627071Y611205D01*
X1628071D01*
X1627071Y612205D01*
X1628071Y613205D01*
X1627071D01*
X1626071Y614205D01*
X1625071Y613205D01*
X1624071D01*
X1625071Y612205D01*
X1624071Y611205D01*
X1625071D01*
X1626071Y610205D01*
X439118Y123000D02*
X440118Y124000D01*
X441118D01*
X440118Y125000D01*
X441118Y126000D01*
X440118D01*
X439118Y127000D01*
X438118Y126000D01*
X437118D01*
X438118Y125000D01*
X437118Y124000D01*
X438118D01*
X439118Y123000D01*
X911559D02*
X912559Y124000D01*
X913559D01*
X912559Y125000D01*
X913559Y126000D01*
X912559D01*
X911559Y127000D01*
X910559Y126000D01*
X909559D01*
X910559Y125000D01*
X909559Y124000D01*
X910559D01*
X911559Y123000D01*
X956472Y105740D02*
X957473Y106740D01*
X958473D01*
X957473Y107740D01*
X958473Y108740D01*
X957473D01*
X956472Y109740D01*
X955472Y108740D01*
X954473D01*
X955472Y107740D01*
X954473Y106740D01*
X955472D01*
X956472Y105740D01*
X484031D02*
X485032Y106740D01*
X486031D01*
X485032Y107740D01*
X486031Y108740D01*
X485032D01*
X484031Y109740D01*
X483032Y108740D01*
X482031D01*
X483032Y107740D01*
X482031Y106740D01*
X483032D01*
X484031Y105740D01*
X1165700Y608100D02*
X1166700Y609100D01*
X1167700D01*
X1166700Y610100D01*
X1167700Y611100D01*
X1166700D01*
X1165700Y612100D01*
X1164700Y611100D01*
X1163700D01*
X1164700Y610100D01*
X1163700Y609100D01*
X1164700D01*
X1165700Y608100D01*
X1155700D02*
X1156700Y609100D01*
X1157700D01*
X1156700Y610100D01*
X1157700Y611100D01*
X1156700D01*
X1155700Y612100D01*
X1154700Y611100D01*
X1153700D01*
X1154700Y610100D01*
X1153700Y609100D01*
X1154700D01*
X1155700Y608100D01*
X1037590Y549045D02*
X1038590Y550045D01*
X1039590D01*
X1038590Y551045D01*
X1039590Y552045D01*
X1038590D01*
X1037590Y553045D01*
X1036590Y552045D01*
X1035590D01*
X1036590Y551045D01*
X1035590Y550045D01*
X1036590D01*
X1037590Y549045D01*
X1047590D02*
X1048590Y550045D01*
X1049590D01*
X1048590Y551045D01*
X1049590Y552045D01*
X1048590D01*
X1047590Y553045D01*
X1046590Y552045D01*
X1045590D01*
X1046590Y551045D01*
X1045590Y550045D01*
X1046590D01*
X1047590Y549045D01*
X919479Y489990D02*
X920479Y490990D01*
X921480D01*
X920479Y491990D01*
X921480Y492990D01*
X920479D01*
X919479Y493990D01*
X918480Y492990D01*
X917480D01*
X918480Y491990D01*
X917480Y490990D01*
X918480D01*
X919479Y489990D01*
X929480D02*
X930480Y490990D01*
X931479D01*
X930480Y491990D01*
X931479Y492990D01*
X930480D01*
X929480Y493990D01*
X928479Y492990D01*
X927479D01*
X928479Y491990D01*
X927479Y490990D01*
X928479D01*
X929480Y489990D01*
X801369Y430935D02*
X802369Y431935D01*
X803369D01*
X802369Y432935D01*
X803369Y433935D01*
X802369D01*
X801369Y434935D01*
X800369Y433935D01*
X799369D01*
X800369Y432935D01*
X799369Y431935D01*
X800369D01*
X801369Y430935D01*
X811369D02*
X812369Y431935D01*
X813369D01*
X812369Y432935D01*
X813369Y433935D01*
X812369D01*
X811369Y434935D01*
X810369Y433935D01*
X809369D01*
X810369Y432935D01*
X809369Y431935D01*
X810369D01*
X811369Y430935D01*
X683259Y371880D02*
X684259Y372880D01*
X685259D01*
X684259Y373880D01*
X685259Y374880D01*
X684259D01*
X683259Y375880D01*
X682259Y374880D01*
X681259D01*
X682259Y373880D01*
X681259Y372880D01*
X682259D01*
X683259Y371880D01*
X693259D02*
X694259Y372880D01*
X695259D01*
X694259Y373880D01*
X695259Y374880D01*
X694259D01*
X693259Y375880D01*
X692259Y374880D01*
X691259D01*
X692259Y373880D01*
X691259Y372880D01*
X692259D01*
X693259Y371880D01*
X565149Y312824D02*
X566149Y313824D01*
X567149D01*
X566149Y314824D01*
X567149Y315824D01*
X566149D01*
X565149Y316824D01*
X564149Y315824D01*
X563149D01*
X564149Y314824D01*
X563149Y313824D01*
X564149D01*
X565149Y312824D01*
X575149D02*
X576149Y313824D01*
X577149D01*
X576149Y314824D01*
X577149Y315824D01*
X576149D01*
X575149Y316824D01*
X574149Y315824D01*
X573149D01*
X574149Y314824D01*
X573149Y313824D01*
X574149D01*
X575149Y312824D01*
X447039Y253769D02*
X448039Y254769D01*
X449039D01*
X448039Y255769D01*
X449039Y256769D01*
X448039D01*
X447039Y257769D01*
X446039Y256769D01*
X445039D01*
X446039Y255769D01*
X445039Y254769D01*
X446039D01*
X447039Y253769D01*
X457039D02*
X458039Y254769D01*
X459039D01*
X458039Y255769D01*
X459039Y256769D01*
X458039D01*
X457039Y257769D01*
X456039Y256769D01*
X455039D01*
X456039Y255769D01*
X455039Y254769D01*
X456039D01*
X457039Y253769D01*
X1561000Y283000D02*
X1562000Y284000D01*
X1563000D01*
X1562000Y285000D01*
X1563000Y286000D01*
X1562000D01*
X1561000Y287000D01*
X1560000Y286000D01*
X1559000D01*
X1560000Y285000D01*
X1559000Y284000D01*
X1560000D01*
X1561000Y283000D01*
X1551000Y273000D02*
X1552000Y274000D01*
X1553000D01*
X1552000Y275000D01*
X1553000Y276000D01*
X1552000D01*
X1551000Y277000D01*
X1550000Y276000D01*
X1549000D01*
X1550000Y275000D01*
X1549000Y274000D01*
X1550000D01*
X1551000Y273000D01*
X1541000Y263000D02*
X1542000Y264000D01*
X1543000D01*
X1542000Y265000D01*
X1543000Y266000D01*
X1542000D01*
X1541000Y267000D01*
X1540000Y266000D01*
X1539000D01*
X1540000Y265000D01*
X1539000Y264000D01*
X1540000D01*
X1541000Y263000D01*
X1571000Y293000D02*
X1572000Y294000D01*
X1573000D01*
X1572000Y295000D01*
X1573000Y296000D01*
X1572000D01*
X1571000Y297000D01*
X1570000Y296000D01*
X1569000D01*
X1570000Y295000D01*
X1569000Y294000D01*
X1570000D01*
X1571000Y293000D01*
X1621000Y519000D02*
X1622000Y520000D01*
X1623000D01*
X1622000Y521000D01*
X1623000Y522000D01*
X1622000D01*
X1621000Y523000D01*
X1620000Y522000D01*
X1619000D01*
X1620000Y521000D01*
X1619000Y520000D01*
X1620000D01*
X1621000Y519000D01*
X1611000D02*
X1612000Y520000D01*
X1613000D01*
X1612000Y521000D01*
X1613000Y522000D01*
X1612000D01*
X1611000Y523000D01*
X1610000Y522000D01*
X1609000D01*
X1610000Y521000D01*
X1609000Y520000D01*
X1610000D01*
X1611000Y519000D01*
X1601000D02*
X1602000Y520000D01*
X1603000D01*
X1602000Y521000D01*
X1603000Y522000D01*
X1602000D01*
X1601000Y523000D01*
X1600000Y522000D01*
X1599000D01*
X1600000Y521000D01*
X1599000Y520000D01*
X1600000D01*
X1601000Y519000D01*
X1591000D02*
X1592000Y520000D01*
X1593000D01*
X1592000Y521000D01*
X1593000Y522000D01*
X1592000D01*
X1591000Y523000D01*
X1590000Y522000D01*
X1589000D01*
X1590000Y521000D01*
X1589000Y520000D01*
X1590000D01*
X1591000Y519000D01*
X1581000D02*
X1582000Y520000D01*
X1583000D01*
X1582000Y521000D01*
X1583000Y522000D01*
X1582000D01*
X1581000Y523000D01*
X1580000Y522000D01*
X1579000D01*
X1580000Y521000D01*
X1579000Y520000D01*
X1580000D01*
X1581000Y519000D01*
X1571000D02*
X1572000Y520000D01*
X1573000D01*
X1572000Y521000D01*
X1573000Y522000D01*
X1572000D01*
X1571000Y523000D01*
X1570000Y522000D01*
X1569000D01*
X1570000Y521000D01*
X1569000Y520000D01*
X1570000D01*
X1571000Y519000D01*
X1561000D02*
X1562000Y520000D01*
X1563000D01*
X1562000Y521000D01*
X1563000Y522000D01*
X1562000D01*
X1561000Y523000D01*
X1560000Y522000D01*
X1559000D01*
X1560000Y521000D01*
X1559000Y520000D01*
X1560000D01*
X1561000Y519000D01*
X1611000Y458528D02*
X1612000Y459528D01*
X1613000D01*
X1612000Y460528D01*
X1613000Y461528D01*
X1612000D01*
X1611000Y462528D01*
X1610000Y461528D01*
X1609000D01*
X1610000Y460528D01*
X1609000Y459528D01*
X1610000D01*
X1611000Y458528D01*
X1601000D02*
X1602000Y459528D01*
X1603000D01*
X1602000Y460528D01*
X1603000Y461528D01*
X1602000D01*
X1601000Y462528D01*
X1600000Y461528D01*
X1599000D01*
X1600000Y460528D01*
X1599000Y459528D01*
X1600000D01*
X1601000Y458528D01*
X1591000D02*
X1592000Y459528D01*
X1593000D01*
X1592000Y460528D01*
X1593000Y461528D01*
X1592000D01*
X1591000Y462528D01*
X1590000Y461528D01*
X1589000D01*
X1590000Y460528D01*
X1589000Y459528D01*
X1590000D01*
X1591000Y458528D01*
X1581000D02*
X1582000Y459528D01*
X1583000D01*
X1582000Y460528D01*
X1583000Y461528D01*
X1582000D01*
X1581000Y462528D01*
X1580000Y461528D01*
X1579000D01*
X1580000Y460528D01*
X1579000Y459528D01*
X1580000D01*
X1581000Y458528D01*
X1250000Y623000D02*
X1251000Y624000D01*
X1252000D01*
X1251000Y625000D01*
X1252000Y626000D01*
X1251000D01*
X1250000Y627000D01*
X1249000Y626000D01*
X1248000D01*
X1249000Y625000D01*
X1248000Y624000D01*
X1249000D01*
X1250000Y623000D01*
X1131890Y623000D02*
X1132890Y624000D01*
X1133890D01*
X1132890Y625000D01*
X1133890Y626000D01*
X1132890D01*
X1131890Y627000D01*
X1130890Y626000D01*
X1129890D01*
X1130890Y625000D01*
X1129890Y624000D01*
X1130890D01*
X1131890Y623000D01*
X1013780Y623000D02*
X1014779Y624000D01*
X1015779D01*
X1014779Y625000D01*
X1015779Y626000D01*
X1014779D01*
X1013780Y627000D01*
X1012780Y626000D01*
X1011779D01*
X1012780Y625000D01*
X1011779Y624000D01*
X1012780D01*
X1013780Y623000D01*
X895669D02*
X896669Y624000D01*
X897669D01*
X896669Y625000D01*
X897669Y626000D01*
X896669D01*
X895669Y627000D01*
X894669Y626000D01*
X893669D01*
X894669Y625000D01*
X893669Y624000D01*
X894669D01*
X895669Y623000D01*
X777559Y623000D02*
X778559Y624000D01*
X779559D01*
X778559Y625000D01*
X779559Y626000D01*
X778559D01*
X777559Y627000D01*
X776559Y626000D01*
X775559D01*
X776559Y625000D01*
X775559Y624000D01*
X776559D01*
X777559Y623000D01*
X659449D02*
X660449Y624000D01*
X661449D01*
X660449Y625000D01*
X661449Y626000D01*
X660449D01*
X659449Y627000D01*
X658449Y626000D01*
X657449D01*
X658449Y625000D01*
X657449Y624000D01*
X658449D01*
X659449Y623000D01*
X541339Y623000D02*
X542339Y624000D01*
X543339D01*
X542339Y625000D01*
X543339Y626000D01*
X542339D01*
X541339Y627000D01*
X540339Y626000D01*
X539339D01*
X540339Y625000D01*
X539339Y624000D01*
X540339D01*
X541339Y623000D01*
X911559Y136000D02*
X912559Y137000D01*
X913559D01*
X912559Y138000D01*
X913559Y139000D01*
X912559D01*
X911559Y140000D01*
X910559Y139000D01*
X909559D01*
X910559Y138000D01*
X909559Y137000D01*
X910559D01*
X911559Y136000D01*
X973559Y151000D02*
X974559Y152000D01*
X975559D01*
X974559Y153000D01*
X975559Y154000D01*
X974559D01*
X973559Y155000D01*
X972559Y154000D01*
X971559D01*
X972559Y153000D01*
X971559Y152000D01*
X972559D01*
X973559Y151000D01*
X501118D02*
X502118Y152000D01*
X503118D01*
X502118Y153000D01*
X503118Y154000D01*
X502118D01*
X501118Y155000D01*
X500118Y154000D01*
X499118D01*
X500118Y153000D01*
X499118Y152000D01*
X500118D01*
X501118Y151000D01*
X439118Y136000D02*
X440118Y137000D01*
X441118D01*
X440118Y138000D01*
X441118Y139000D01*
X440118D01*
X439118Y140000D01*
X438118Y139000D01*
X437118D01*
X438118Y138000D01*
X437118Y137000D01*
X438118D01*
X439118Y136000D01*
X1510400Y211000D02*
X1511400Y212000D01*
X1512400D01*
X1511400Y213000D01*
X1512400Y214000D01*
X1511400D01*
X1510400Y215000D01*
X1509400Y214000D01*
X1508400D01*
X1509400Y213000D01*
X1508400Y212000D01*
X1509400D01*
X1510400Y211000D01*
X1520400D02*
X1521400Y212000D01*
X1522400D01*
X1521400Y213000D01*
X1522400Y214000D01*
X1521400D01*
X1520400Y215000D01*
X1519400Y214000D01*
X1518400D01*
X1519400Y213000D01*
X1518400Y212000D01*
X1519400D01*
X1520400Y211000D01*
X1047959D02*
X1048959Y212000D01*
X1049959D01*
X1048959Y213000D01*
X1049959Y214000D01*
X1048959D01*
X1047959Y215000D01*
X1046959Y214000D01*
X1045959D01*
X1046959Y213000D01*
X1045959Y212000D01*
X1046959D01*
X1047959Y211000D01*
X1037959D02*
X1038959Y212000D01*
X1039959D01*
X1038959Y213000D01*
X1039959Y214000D01*
X1038959D01*
X1037959Y215000D01*
X1036959Y214000D01*
X1035959D01*
X1036959Y213000D01*
X1035959Y212000D01*
X1036959D01*
X1037959Y211000D01*
X575518D02*
X576518Y212000D01*
X577518D01*
X576518Y213000D01*
X577518Y214000D01*
X576518D01*
X575518Y215000D01*
X574518Y214000D01*
X573518D01*
X574518Y213000D01*
X573518Y212000D01*
X574518D01*
X575518Y211000D01*
X565518D02*
X566518Y212000D01*
X567518D01*
X566518Y213000D01*
X567518Y214000D01*
X566518D01*
X565518Y215000D01*
X564518Y214000D01*
X563518D01*
X564518Y213000D01*
X563518Y212000D01*
X564518D01*
X565518Y211000D01*
X1545500Y642500D02*
X1546500Y643500D01*
X1547500D01*
X1546500Y644500D01*
X1547500Y645500D01*
X1546500D01*
X1545500Y646500D01*
X1544500Y645500D01*
X1543500D01*
X1544500Y644500D01*
X1543500Y643500D01*
X1544500D01*
X1545500Y642500D01*
X1555500D02*
X1556500Y643500D01*
X1557500D01*
X1556500Y644500D01*
X1557500Y645500D01*
X1556500D01*
X1555500Y646500D01*
X1554500Y645500D01*
X1553500D01*
X1554500Y644500D01*
X1553500Y643500D01*
X1554500D01*
X1555500Y642500D01*
Y652500D02*
X1556500Y653500D01*
X1557500D01*
X1556500Y654500D01*
X1557500Y655500D01*
X1556500D01*
X1555500Y656500D01*
X1554500Y655500D01*
X1553500D01*
X1554500Y654500D01*
X1553500Y653500D01*
X1554500D01*
X1555500Y652500D01*
X1545500D02*
X1546500Y653500D01*
X1547500D01*
X1546500Y654500D01*
X1547500Y655500D01*
X1546500D01*
X1545500Y656500D01*
X1544500Y655500D01*
X1543500D01*
X1544500Y654500D01*
X1543500Y653500D01*
X1544500D01*
X1545500Y652500D01*
X1624500Y127000D02*
X1625500Y128000D01*
X1626500D01*
X1625500Y129000D01*
X1626500Y130000D01*
X1625500D01*
X1624500Y131000D01*
X1623500Y130000D01*
X1622500D01*
X1623500Y129000D01*
X1622500Y128000D01*
X1623500D01*
X1624500Y127000D01*
X708500Y387000D02*
X709500Y388000D01*
X710500D01*
X709500Y389000D01*
X710500Y390000D01*
X709500D01*
X708500Y391000D01*
X707500Y390000D01*
X706500D01*
X707500Y389000D01*
X706500Y388000D01*
X707500D01*
X708500Y387000D01*
X767555D02*
X768555Y388000D01*
X769555D01*
X768555Y389000D01*
X769555Y390000D01*
X768555D01*
X767555Y391000D01*
X766555Y390000D01*
X765555D01*
X766555Y389000D01*
X765555Y388000D01*
X766555D01*
X767555Y387000D01*
X826610D02*
X827610Y388000D01*
X828610D01*
X827610Y389000D01*
X828610Y390000D01*
X827610D01*
X826610Y391000D01*
X825610Y390000D01*
X824610D01*
X825610Y389000D01*
X824610Y388000D01*
X825610D01*
X826610Y387000D01*
X885665D02*
X886665Y388000D01*
X887665D01*
X886665Y389000D01*
X887665Y390000D01*
X886665D01*
X885665Y391000D01*
X884665Y390000D01*
X883665D01*
X884665Y389000D01*
X883665Y388000D01*
X884665D01*
X885665Y387000D01*
X944720D02*
X945720Y388000D01*
X946721D01*
X945720Y389000D01*
X946721Y390000D01*
X945720D01*
X944720Y391000D01*
X943721Y390000D01*
X942721D01*
X943721Y389000D01*
X942721Y388000D01*
X943721D01*
X944720Y387000D01*
X1062831D02*
X1063831Y388000D01*
X1064831D01*
X1063831Y389000D01*
X1064831Y390000D01*
X1063831D01*
X1062831Y391000D01*
X1061831Y390000D01*
X1060831D01*
X1061831Y389000D01*
X1060831Y388000D01*
X1061831D01*
X1062831Y387000D01*
X1003776D02*
X1004776Y388000D01*
X1005776D01*
X1004776Y389000D01*
X1005776Y390000D01*
X1004776D01*
X1003776Y391000D01*
X1002776Y390000D01*
X1001776D01*
X1002776Y389000D01*
X1001776Y388000D01*
X1002776D01*
X1003776Y387000D01*
X1121886D02*
X1122886Y388000D01*
X1123886D01*
X1122886Y389000D01*
X1123886Y390000D01*
X1122886D01*
X1121886Y391000D01*
X1120886Y390000D01*
X1119886D01*
X1120886Y389000D01*
X1119886Y388000D01*
X1120886D01*
X1121886Y387000D01*
X1239996D02*
X1240996Y388000D01*
X1241996D01*
X1240996Y389000D01*
X1241996Y390000D01*
X1240996D01*
X1239996Y391000D01*
X1238996Y390000D01*
X1237996D01*
X1238996Y389000D01*
X1237996Y388000D01*
X1238996D01*
X1239996Y387000D01*
X1299051D02*
X1300051Y388000D01*
X1301051D01*
X1300051Y389000D01*
X1301051Y390000D01*
X1300051D01*
X1299051Y391000D01*
X1298051Y390000D01*
X1297051D01*
X1298051Y389000D01*
X1297051Y388000D01*
X1298051D01*
X1299051Y387000D01*
X1358106Y387000D02*
X1359106Y388000D01*
X1360106D01*
X1359106Y389000D01*
X1360106Y390000D01*
X1359106D01*
X1358106Y391000D01*
X1357106Y390000D01*
X1356106D01*
X1357106Y389000D01*
X1356106Y388000D01*
X1357106D01*
X1358106Y387000D01*
X1417161D02*
X1418161Y388000D01*
X1419161D01*
X1418161Y389000D01*
X1419161Y390000D01*
X1418161D01*
X1417161Y391000D01*
X1416161Y390000D01*
X1415161D01*
X1416161Y389000D01*
X1415161Y388000D01*
X1416161D01*
X1417161Y387000D01*
X1476217Y387000D02*
X1477217Y388000D01*
X1478216D01*
X1477217Y389000D01*
X1478216Y390000D01*
X1477217D01*
X1476217Y391000D01*
X1475216Y390000D01*
X1474216D01*
X1475216Y389000D01*
X1474216Y388000D01*
X1475216D01*
X1476217Y387000D01*
X1180941Y387000D02*
X1181941Y388000D01*
X1182941D01*
X1181941Y389000D01*
X1182941Y390000D01*
X1181941D01*
X1180941Y391000D01*
X1179941Y390000D01*
X1178941D01*
X1179941Y389000D01*
X1178941Y388000D01*
X1179941D01*
X1180941Y387000D01*
X649445Y387000D02*
X650445Y388000D01*
X651445D01*
X650445Y389000D01*
X651445Y390000D01*
X650445D01*
X649445Y391000D01*
X648445Y390000D01*
X647445D01*
X648445Y389000D01*
X647445Y388000D01*
X648445D01*
X649445Y387000D01*
X590390Y387000D02*
X591390Y388000D01*
X592390D01*
X591390Y389000D01*
X592390Y390000D01*
X591390D01*
X590390Y391000D01*
X589390Y390000D01*
X588390D01*
X589390Y389000D01*
X588390Y388000D01*
X589390D01*
X590390Y387000D01*
X531335D02*
X532335Y388000D01*
X533335D01*
X532335Y389000D01*
X533335Y390000D01*
X532335D01*
X531335Y391000D01*
X530335Y390000D01*
X529335D01*
X530335Y389000D01*
X529335Y388000D01*
X530335D01*
X531335Y387000D01*
X472280D02*
X473280Y388000D01*
X474280D01*
X473280Y389000D01*
X474280Y390000D01*
X473280D01*
X472280Y391000D01*
X471280Y390000D01*
X470280D01*
X471280Y389000D01*
X470280Y388000D01*
X471280D01*
X472280Y387000D01*
X413224Y387000D02*
X414224Y388000D01*
X415224D01*
X414224Y389000D01*
X415224Y390000D01*
X414224D01*
X413224Y391000D01*
X412224Y390000D01*
X411224D01*
X412224Y389000D01*
X411224Y388000D01*
X412224D01*
X413224Y387000D01*
X354169Y387000D02*
X355169Y388000D01*
X356169D01*
X355169Y389000D01*
X356169Y390000D01*
X355169D01*
X354169Y391000D01*
X353169Y390000D01*
X352169D01*
X353169Y389000D01*
X352169Y388000D01*
X353169D01*
X354169Y387000D01*
X295114D02*
X296114Y388000D01*
X297114D01*
X296114Y389000D01*
X297114Y390000D01*
X296114D01*
X295114Y391000D01*
X294114Y390000D01*
X293114D01*
X294114Y389000D01*
X293114Y388000D01*
X294114D01*
X295114Y387000D01*
X236059D02*
X237059Y388000D01*
X238059D01*
X237059Y389000D01*
X238059Y390000D01*
X237059D01*
X236059Y391000D01*
X235059Y390000D01*
X234059D01*
X235059Y389000D01*
X234059Y388000D01*
X235059D01*
X236059Y387000D01*
X177004D02*
X178004Y388000D01*
X179004D01*
X178004Y389000D01*
X179004Y390000D01*
X178004D01*
X177004Y391000D01*
X176004Y390000D01*
X175004D01*
X176004Y389000D01*
X175004Y388000D01*
X176004D01*
X177004Y387000D01*
X117949D02*
X118949Y388000D01*
X119949D01*
X118949Y389000D01*
X119949Y390000D01*
X118949D01*
X117949Y391000D01*
X116949Y390000D01*
X115949D01*
X116949Y389000D01*
X115949Y388000D01*
X116949D01*
X117949Y387000D01*
M02*
