M48
;Layer_Color=9474304
;FILE_FORMAT=2:5
INCH,LZ
;TYPE=PLATED
T1F00S00C0.02756
T2F00S00C0.02800
T3F00S00C0.03543
T4F00S00C0.12500
;TYPE=NON_PLATED
T5F00S00C0.12795
%
T01
X1428893Y0226221
X1438893
X14722
X14822
Y0285276
X14722
X1437877Y0285268
X1427877
X1395586Y0285276
X1385586
X1352279
X1342279
X1308972
X1298972
X1265664
X1255665
Y0226221
X1265664
X1298972
X1308972
X1342279
X1352279
X1385586
X1395586
X1222357
X1212358
X117905
X116905
X1135743
X1125743
Y0285276
X1135743
X116905
X117905
X1212358
X1222357
X1092436
X1082436
X1049129
X1039129
X1005822
X0995822
X0962515
X0952515
Y0226221
X0962515
X0995822
X1005822
X1039129
X1049129
X1082436
X1092436
X0919208
X0909208
X0875901
X0865901
X0832594
X0822594
X0789287
Y0285276
X0822594
X0832594
X0865901
X0875901
X0909208
X0919208
X0779287
X0745979
X073598
X0702672
X0692672
X0659365
X0649365
Y0226221
X0659365
X0692672
X0702672
X073598
X0745979
X0779287
X0616058
X0606058
X0572751
X0562751
X0529444
X0519444
X0486137
X0476137
Y0285276
X0486137
X0519444
X0529444
X0562751
X0572751
X0606058
X0616058
Y0344331
X0606058
X0572751
X0562751
X0529444
X0519444
X0486137
X0476137
Y0403386
X0486137
X0519444
X0529444
X0562751
X0572751
X0606058
X0616058
Y0462441
X0606058
X0572751
X0562751
X0529444
X0519444
X0486137
X0476137
X0649365
X0659365
X0692672
X0702672
X073598
X0745979
X0779287
Y0403386
X0745979
X073598
X0702672
X0692672
X0659365
X0649365
Y0344331
X0659365
X0692672
X0702672
X073598
X0745979
X0779287
X0789287
X0822594
X0832594
X0865901
X0875901
X0909208
X0919208
Y0403386
X0909208
X0875901
X0865901
X0832594
X0822594
X0789287
Y0462441
X0822594
X0832594
X0865901
X0875901
X0909208
X0919208
X0952515
X0962515
X0995822
X1005822
X1039129
X1049129
X1082436
X1092436
Y0403386
X1082436
X1049129
X1039129
X1005822
X0995822
X0962515
X0952515
Y0344331
X0962515
X0995822
X1005822
X1039129
X1049129
X1082436
X1092436
X1125743
X1135743
X116905
X117905
X1212358
X1222357
Y0403386
X1212358
X117905
X116905
X1135743
X1125743
Y0462441
X1135743
X116905
X117905
X1212358
X1222357
X1255665
X1265664
X1298972
X1308972
X1342279
X1352279
X1385586
X1395586
Y0403386
X1385586
X1352279
X1342279
X1308972
X1298972
X1265664
X1255665
Y0344331
X1265664
X1298972
X1308972
X1342279
X1352279
X1385586
X1395586
X1427877Y0344323
X1437877
X14722Y0344331
X14822
Y0403386
X14722
X1437877Y0403378
X1427877
Y0462433
X1437877
X14722Y0462441
X14822
Y0521496
X14722
X1437877Y0521488
X1427877
Y0580543
X1437877
X14722Y0580551
X14822
X1395586
X1385586
X1352279
X1342279
X1308972
X1298972
X1265664
X1255665
Y0521496
X1265664
X1298972
X1308972
X1342279
X1352279
X1385586
X1395586
X1222357
X1212358
X117905
X116905
X1135743
X1125743
Y0580551
X1135743
X116905
X117905
X1212358
X1222357
X1092436
X1082436
X1049129
X1039129
X1005822
X0995822
X0962515
X0952515
Y0521496
X0962515
X0995822
X1005822
X1039129
X1049129
X1082436
X1092436
X0919208
X0909208
X0875901
X0865901
X0832594
X0822594
X0789287
Y0580551
X0822594
X0832594
X0865901
X0875901
X0909208
X0919208
X0779287
X0745979
X073598
X0702672
X0692672
X0659365
X0649365
Y0521496
X0659365
X0692672
X0702672
X073598
X0745979
X0779287
X0616058
X0606058
X0572751
X0562751
X0529444
X0519444
X0486137
X0476137Y0521496
X0476137Y0580551
X0486137
X0519444
X0529444
X0562751
X0572751
X0606058
X0616058
T02
X0714134Y0124858
Y0137858
X0708134Y0145858
X0776134Y0152858
X0759047Y0107599
X1060591Y0124858
Y0137858
X1054591Y0145858
X1122591Y0152858
X1105504Y0107599
X1401047Y0145858
X1407047Y0137858
Y0124858
X1451961Y0107598
X1469047Y0152858
X16245Y0129
X1667071Y0170205
X1662071Y0262205
X1622071Y0260205
X1571Y0295
X1697071Y0309205
X1704811Y0254961
X1561Y0285
X1551Y0275
X1541Y0265
X15204Y0213
X15104
X1173943Y0213
X1163943
X0827487
X0817487
X0740904Y0304997
X0730904
X0610983Y0245942
X0600983
X0860825Y0364052
X0870825
X0990746Y0423107
X1000747
X1565571Y0409205
X1603071Y0408205
X1615071Y0409205
X1605071Y0430705
X1601Y0460528
X1611
X1591
X1581
X1580071Y0377205
X15805Y0327
X15708Y03128
X1645071Y0342205
X1635071Y0357205
X1626071Y0383205
X1651071Y0443705
X1707071Y0339205
X1661Y0532
Y0542
X1651
X1641
Y0532
X1651
X1631071Y0532205
Y0542205
X1621Y0521
X1611
X1601
X1591
X1581
X1571
X1566071Y0582705
X1576571
X1616071Y0602205
Y0612205
X1626071
Y0602205
X1686071Y0607205
X1696071
Y0597205
X1686071
X1561Y0521
X139051Y0600273
X138051
X1260589Y0541218
X1250589
X1130668Y0482162
X1120668
X0685783Y0626
X0815704
X0945625
X1075546
X1205468
X1335389
X146531
X15455Y06445
X15555
Y06545
X15455
T03
X1676071Y0237551
Y0247551
X1686071
Y0237551
X1696071
Y0247551
X1713571Y0428705
Y0438705
Y0448705
Y0458705
X1723571Y0453705
Y0443705
Y0433705
Y0423705
X1723575Y0510043
Y0520043
Y0530043
Y0540043
X1713575Y0535043
Y0525043
Y0515043
Y0545043
T04
X06833Y0068509
X1273851
X06833Y07378
X1273851
T05
X1748571Y0418705
Y0463705
X1748575Y0505043
Y0550043
M30
