%FSLAX25Y25*%
%MOIN*%
G70*
G01*
G75*
G04 Layer_Color=16711935*
%ADD10C,0.03937*%
%ADD11R,0.12992X0.07874*%
%ADD12R,0.22638X0.25590*%
%ADD13R,0.04921X0.12008*%
%ADD14O,0.02362X0.08661*%
%ADD15R,0.03543X0.03543*%
%ADD16O,0.02165X0.06890*%
%ADD17O,0.06890X0.02165*%
%ADD18R,0.03347X0.03347*%
%ADD19R,0.03937X0.03937*%
%ADD20R,0.06299X0.11811*%
%ADD21R,0.07874X0.23622*%
%ADD22R,0.06299X0.02362*%
%ADD23R,0.04724X0.13780*%
%ADD24R,0.08661X0.09252*%
%ADD25R,0.06102X0.09252*%
%ADD26R,0.03347X0.06693*%
%ADD27R,0.21850X0.25590*%
%ADD28R,0.02362X0.08661*%
%ADD29C,0.05000*%
%ADD30C,0.02000*%
%ADD31C,0.03000*%
%ADD32C,0.01500*%
%ADD33C,0.02500*%
%ADD34C,0.01000*%
%ADD35C,0.25000*%
%ADD36C,0.04724*%
%ADD37C,0.04724*%
%ADD38R,0.05906X0.05906*%
%ADD39C,0.05906*%
%ADD40C,0.05906*%
%ADD41C,0.06299*%
%ADD42C,0.11614*%
%ADD43R,0.05906X0.05906*%
%ADD44C,0.05000*%
%ADD45C,0.03937*%
%ADD46C,0.00984*%
%ADD47C,0.02362*%
%ADD48C,0.00787*%
%ADD49C,0.11811*%
%ADD50R,0.13792X0.08674*%
%ADD51R,0.23438X0.26391*%
%ADD52R,0.05721X0.12808*%
%ADD53O,0.03162X0.09461*%
%ADD54R,0.04343X0.04343*%
%ADD55O,0.02965X0.07690*%
%ADD56O,0.07690X0.02965*%
%ADD57C,0.09843*%
%ADD58R,0.04147X0.04147*%
%ADD59R,0.04737X0.04737*%
%ADD60R,0.07099X0.12611*%
%ADD61R,0.08674X0.24422*%
%ADD62R,0.07099X0.03162*%
%ADD63R,0.05524X0.14579*%
%ADD64R,0.09461X0.10052*%
%ADD65R,0.06902X0.10052*%
%ADD66R,0.04147X0.07493*%
%ADD67R,0.22650X0.26391*%
%ADD68R,0.03162X0.09461*%
%ADD69C,0.25800*%
%ADD70C,0.05524*%
%ADD71C,0.05524*%
%ADD72R,0.06706X0.06706*%
%ADD73C,0.06706*%
%ADD74C,0.06706*%
%ADD75C,0.07099*%
%ADD76C,0.12414*%
%ADD77R,0.06706X0.06706*%
%ADD78C,0.05800*%
%ADD79C,0.11811*%
D69*
X1273851Y737800D02*
D03*
X683300D02*
D03*
X1273851Y68509D02*
D03*
X683300D02*
D03*
D70*
X1255665Y580551D02*
D03*
X1265664D02*
D03*
X1298972Y403386D02*
D03*
X1308972D02*
D03*
X1385586Y580551D02*
D03*
X1472200Y226221D02*
D03*
X1482200D02*
D03*
X1395586Y580551D02*
D03*
X486137D02*
D03*
X476137D02*
D03*
X486137Y521496D02*
D03*
Y462441D02*
D03*
X476137D02*
D03*
X486137Y403386D02*
D03*
X476137D02*
D03*
X486137Y344331D02*
D03*
X476137D02*
D03*
X486137Y285276D02*
D03*
X476137D02*
D03*
X486137Y226221D02*
D03*
X476137D02*
D03*
X529444Y580551D02*
D03*
X519444D02*
D03*
X529444Y521496D02*
D03*
X519444D02*
D03*
X529444Y462441D02*
D03*
X519444D02*
D03*
X529444Y403386D02*
D03*
X519444D02*
D03*
X529444Y344331D02*
D03*
X519444D02*
D03*
X529444Y285276D02*
D03*
X519444D02*
D03*
X529444Y226221D02*
D03*
X519444D02*
D03*
X572751Y580551D02*
D03*
X562751D02*
D03*
X572751Y521496D02*
D03*
X562751D02*
D03*
X572751Y462441D02*
D03*
X562751D02*
D03*
X572751Y403386D02*
D03*
X562751D02*
D03*
X572751Y344331D02*
D03*
X562751D02*
D03*
X572751Y285276D02*
D03*
X562751D02*
D03*
X572751Y226221D02*
D03*
X562751D02*
D03*
X616058Y580551D02*
D03*
X606058D02*
D03*
X616058Y521496D02*
D03*
X606058D02*
D03*
X616058Y462441D02*
D03*
X606058D02*
D03*
X616058Y403386D02*
D03*
X606058D02*
D03*
X616058Y344331D02*
D03*
X606058D02*
D03*
X616058Y285276D02*
D03*
X606058D02*
D03*
X616058Y226221D02*
D03*
X606058D02*
D03*
X659365Y580551D02*
D03*
X649365D02*
D03*
X659365Y521496D02*
D03*
X649365D02*
D03*
X659365Y462441D02*
D03*
X649365D02*
D03*
X659365Y403386D02*
D03*
X649365D02*
D03*
X659365Y344331D02*
D03*
X649365D02*
D03*
X659365Y285276D02*
D03*
X649365D02*
D03*
X659365Y226221D02*
D03*
X649365D02*
D03*
X702672Y580551D02*
D03*
X692672D02*
D03*
X702672Y521496D02*
D03*
X692672D02*
D03*
X702672Y462441D02*
D03*
X692672D02*
D03*
X702672Y403386D02*
D03*
X692672D02*
D03*
X702672Y344331D02*
D03*
X692672D02*
D03*
X702672Y285276D02*
D03*
X692672D02*
D03*
X702672Y226221D02*
D03*
X692672D02*
D03*
X745979Y580551D02*
D03*
X735980D02*
D03*
X745979Y521496D02*
D03*
X735980D02*
D03*
X745979Y462441D02*
D03*
X735980D02*
D03*
X745979Y403386D02*
D03*
X735980D02*
D03*
X745979Y344331D02*
D03*
X735980D02*
D03*
X745979Y285276D02*
D03*
X735980D02*
D03*
X745979Y226221D02*
D03*
X735980D02*
D03*
X789287Y580551D02*
D03*
X779287D02*
D03*
X789287Y521496D02*
D03*
X779287D02*
D03*
X789287Y462441D02*
D03*
X779287D02*
D03*
X789287Y403386D02*
D03*
X779287D02*
D03*
X789287Y344331D02*
D03*
X779287D02*
D03*
X789287Y285276D02*
D03*
X779287D02*
D03*
X789287Y226221D02*
D03*
X779287D02*
D03*
X832594Y580551D02*
D03*
X822594D02*
D03*
X832594Y521496D02*
D03*
X822594D02*
D03*
X832594Y462441D02*
D03*
X822594D02*
D03*
X832594Y403386D02*
D03*
X822594D02*
D03*
X832594Y344331D02*
D03*
X822594D02*
D03*
X832594Y285276D02*
D03*
X822594D02*
D03*
X832594Y226221D02*
D03*
X822594D02*
D03*
X875901Y580551D02*
D03*
X865901D02*
D03*
X875901Y521496D02*
D03*
X865901D02*
D03*
X875901Y462441D02*
D03*
X865901D02*
D03*
X875901Y403386D02*
D03*
X865901D02*
D03*
X875901Y344331D02*
D03*
X865901D02*
D03*
X875901Y285276D02*
D03*
X865901D02*
D03*
X875901Y226221D02*
D03*
X865901D02*
D03*
X919208Y580551D02*
D03*
X909208D02*
D03*
X919208Y521496D02*
D03*
X909208D02*
D03*
X919208Y462441D02*
D03*
X909208D02*
D03*
X919208Y403386D02*
D03*
X909208D02*
D03*
X919208Y344331D02*
D03*
X909208D02*
D03*
X919208Y285276D02*
D03*
X909208D02*
D03*
X919208Y226221D02*
D03*
X909208D02*
D03*
X962515Y580551D02*
D03*
X952515D02*
D03*
X962515Y521496D02*
D03*
X952515D02*
D03*
X962515Y462441D02*
D03*
X952515D02*
D03*
X962515Y403386D02*
D03*
X952515D02*
D03*
X962515Y344331D02*
D03*
X952515D02*
D03*
X962515Y285276D02*
D03*
X952515D02*
D03*
X962515Y226221D02*
D03*
X952515D02*
D03*
X1005822Y580551D02*
D03*
X995822D02*
D03*
X1005822Y521496D02*
D03*
X995822D02*
D03*
X1005822Y462441D02*
D03*
X995822D02*
D03*
X1005822Y403386D02*
D03*
X995822D02*
D03*
X1005822Y344331D02*
D03*
X995822D02*
D03*
X1005822Y285276D02*
D03*
X995822D02*
D03*
X1005822Y226221D02*
D03*
X995822D02*
D03*
X1049129Y580551D02*
D03*
X1039129D02*
D03*
X1049129Y521496D02*
D03*
X1039129D02*
D03*
X1049129Y462441D02*
D03*
X1039129D02*
D03*
X1049129Y403386D02*
D03*
X1039129D02*
D03*
X1049129Y344331D02*
D03*
X1039129D02*
D03*
X1049129Y285276D02*
D03*
X1039129D02*
D03*
X1049129Y226221D02*
D03*
X1039129D02*
D03*
X1092436Y580551D02*
D03*
X1082436D02*
D03*
X1092436Y521496D02*
D03*
X1082436D02*
D03*
X1092436Y462441D02*
D03*
X1082436D02*
D03*
X1092436Y403386D02*
D03*
X1082436D02*
D03*
X1092436Y344331D02*
D03*
X1082436D02*
D03*
X1092436Y285276D02*
D03*
X1082436D02*
D03*
X1092436Y226221D02*
D03*
X1082436D02*
D03*
X1135743Y580551D02*
D03*
X1125743D02*
D03*
X1135743Y521496D02*
D03*
X1125743D02*
D03*
X1135743Y462441D02*
D03*
X1125743D02*
D03*
X1135743Y403386D02*
D03*
X1125743D02*
D03*
X1135743Y344331D02*
D03*
X1125743D02*
D03*
X1135743Y285276D02*
D03*
X1125743D02*
D03*
X1135743Y226221D02*
D03*
X1125743D02*
D03*
X1179050Y580551D02*
D03*
X1169050D02*
D03*
X1179050Y521496D02*
D03*
X1169050D02*
D03*
X1179050Y462441D02*
D03*
X1169050D02*
D03*
X1179050Y403386D02*
D03*
X1169050D02*
D03*
X1179050Y344331D02*
D03*
X1169050D02*
D03*
X1179050Y285276D02*
D03*
X1169050D02*
D03*
X1179050Y226221D02*
D03*
X1169050D02*
D03*
X1222357Y580551D02*
D03*
X1212358D02*
D03*
X1222357Y521496D02*
D03*
X1212358D02*
D03*
X1222357Y462441D02*
D03*
X1212358D02*
D03*
X1222357Y403386D02*
D03*
X1212358D02*
D03*
X1222357Y344331D02*
D03*
X1212358D02*
D03*
X1222357Y285276D02*
D03*
X1212358D02*
D03*
X1222357Y226221D02*
D03*
X1212358D02*
D03*
X1265664Y521496D02*
D03*
X1255665D02*
D03*
X1265664Y462441D02*
D03*
X1255665D02*
D03*
X1265664Y403386D02*
D03*
X1255665D02*
D03*
X1265664Y344331D02*
D03*
X1255665D02*
D03*
X1265664Y285276D02*
D03*
X1255665D02*
D03*
X1265664Y226221D02*
D03*
X1255665D02*
D03*
X1308972Y580551D02*
D03*
X1298972D02*
D03*
X1308972Y521496D02*
D03*
X1298972D02*
D03*
X1308972Y462441D02*
D03*
X1298972D02*
D03*
X1308972Y344331D02*
D03*
X1298972D02*
D03*
X1308972Y285276D02*
D03*
X1298972D02*
D03*
X1308972Y226221D02*
D03*
X1298972D02*
D03*
X1352279Y580551D02*
D03*
X1342279D02*
D03*
X1352279Y521496D02*
D03*
X1342279D02*
D03*
X1352279Y462441D02*
D03*
X1342279D02*
D03*
X1352279Y403386D02*
D03*
X1342279D02*
D03*
X1352279Y344331D02*
D03*
X1342279D02*
D03*
X1352279Y285276D02*
D03*
X1342279D02*
D03*
X1352279Y226221D02*
D03*
X1342279D02*
D03*
X1395586Y521496D02*
D03*
X1385586D02*
D03*
X1395586Y462441D02*
D03*
X1385586D02*
D03*
X1395586Y403386D02*
D03*
X1385586D02*
D03*
X1395586Y344331D02*
D03*
X1385586D02*
D03*
X1395586Y285276D02*
D03*
X1385586D02*
D03*
X1395586Y226221D02*
D03*
X1385586D02*
D03*
X1437877Y580543D02*
D03*
X1427877D02*
D03*
X1437877Y521488D02*
D03*
X1427877D02*
D03*
X1437877Y462433D02*
D03*
X1427877D02*
D03*
X1437877Y403378D02*
D03*
X1427877D02*
D03*
X1437877Y344323D02*
D03*
X1427877D02*
D03*
X1437877Y285268D02*
D03*
X1427877D02*
D03*
X1438893Y226221D02*
D03*
X1428893D02*
D03*
X1472200Y580551D02*
D03*
Y521496D02*
D03*
Y462441D02*
D03*
Y403386D02*
D03*
Y344331D02*
D03*
Y285276D02*
D03*
X1482200Y580551D02*
D03*
Y521496D02*
D03*
Y462441D02*
D03*
Y403386D02*
D03*
Y344331D02*
D03*
Y285276D02*
D03*
D71*
X476137Y521496D02*
D03*
D72*
X1676071Y237551D02*
D03*
D73*
Y247551D02*
D03*
X1686071Y237551D02*
D03*
Y247551D02*
D03*
X1696071Y237551D02*
D03*
Y247551D02*
D03*
D74*
X1713571Y448705D02*
D03*
Y438705D02*
D03*
X1723571Y443705D02*
D03*
X1713575Y535043D02*
D03*
Y525043D02*
D03*
X1723575Y530043D02*
D03*
X1713575Y515043D02*
D03*
X1723575Y540043D02*
D03*
X1713575Y545043D02*
D03*
X1713571Y428705D02*
D03*
X1723571Y453705D02*
D03*
X1713571Y458705D02*
D03*
D75*
X1723571Y433705D02*
D03*
X1723575Y520043D02*
D03*
D76*
X1748571Y418705D02*
D03*
Y463705D02*
D03*
X1748575Y505043D02*
D03*
Y550043D02*
D03*
D77*
X1723575Y510043D02*
D03*
X1723571Y423705D02*
D03*
D78*
X600983Y245942D02*
D03*
X610983D02*
D03*
X730904Y304997D02*
D03*
X740904D02*
D03*
X860825Y364052D02*
D03*
X870825D02*
D03*
X990746Y423107D02*
D03*
X1000747D02*
D03*
X1120668Y482162D02*
D03*
X1130668D02*
D03*
X1250589Y541218D02*
D03*
X1260589D02*
D03*
X815704Y626000D02*
D03*
X945625D02*
D03*
X1205468D02*
D03*
X1335389D02*
D03*
X1075546D02*
D03*
X685783D02*
D03*
X1105504Y107599D02*
D03*
X1060591Y124858D02*
D03*
X1122591Y152858D02*
D03*
X1060591Y137858D02*
D03*
X714134D02*
D03*
Y124858D02*
D03*
X759047Y107599D02*
D03*
X776134Y152858D02*
D03*
X827487Y213000D02*
D03*
X817487D02*
D03*
X708134Y145858D02*
D03*
X1173943Y213000D02*
D03*
X1163943D02*
D03*
X1054591Y145858D02*
D03*
X1465310Y626000D02*
D03*
X1390510Y600273D02*
D03*
X1380510D02*
D03*
X1407047Y137858D02*
D03*
X1469047Y152858D02*
D03*
X1451961Y107598D02*
D03*
X1407047Y124858D02*
D03*
X1401047Y145858D02*
D03*
X1704811Y254961D02*
D03*
X1667071Y170205D02*
D03*
X1622071Y260205D02*
D03*
X1603071Y408205D02*
D03*
X1626071Y383205D02*
D03*
X1580500Y327000D02*
D03*
X1645071Y342205D02*
D03*
X1661000Y542000D02*
D03*
X1631071Y542205D02*
D03*
Y532205D02*
D03*
X1661000Y532000D02*
D03*
X1651000Y542000D02*
D03*
X1641000D02*
D03*
Y532000D02*
D03*
X1651000D02*
D03*
X1662071Y262205D02*
D03*
X1707071Y339205D02*
D03*
X1697071Y309205D02*
D03*
X1570800Y312800D02*
D03*
X1635071Y357205D02*
D03*
X1580071Y377205D02*
D03*
X1686071Y607205D02*
D03*
X1696071D02*
D03*
Y597205D02*
D03*
X1686071D02*
D03*
X1566071Y582705D02*
D03*
X1651071Y443705D02*
D03*
X1565571Y409205D02*
D03*
X1615071D02*
D03*
X1576571Y582705D02*
D03*
X1605071Y430705D02*
D03*
X1616071Y602205D02*
D03*
Y612205D02*
D03*
X1626071Y602205D02*
D03*
Y612205D02*
D03*
X1561000Y285000D02*
D03*
X1551000Y275000D02*
D03*
X1541000Y265000D02*
D03*
X1571000Y295000D02*
D03*
X1621000Y521000D02*
D03*
X1611000D02*
D03*
X1601000D02*
D03*
X1591000D02*
D03*
X1581000D02*
D03*
X1571000D02*
D03*
X1561000D02*
D03*
X1611000Y460528D02*
D03*
X1601000D02*
D03*
X1591000D02*
D03*
X1581000D02*
D03*
X1510400Y213000D02*
D03*
X1520400D02*
D03*
X1545500Y644500D02*
D03*
X1555500D02*
D03*
Y654500D02*
D03*
X1545500D02*
D03*
X1624500Y129000D02*
D03*
D79*
X1732284Y708661D02*
D03*
Y78740D02*
D03*
X472441D02*
D03*
M02*
