%FSLAX24Y24*%
%MOIN*%
G70*
G01*
G75*
G04 Layer_Color=16711935*
%ADD10R,0.1299X0.0787*%
%ADD11O,0.0217X0.0689*%
%ADD12O,0.0689X0.0217*%
%ADD13R,0.0354X0.0354*%
%ADD14C,0.0394*%
%ADD15R,0.2264X0.2559*%
%ADD16R,0.0492X0.1201*%
%ADD17O,0.0236X0.0866*%
%ADD18R,0.0335X0.0335*%
%ADD19R,0.0394X0.0394*%
%ADD20R,0.0630X0.1181*%
%ADD21R,0.0787X0.2362*%
%ADD22R,0.0630X0.0236*%
%ADD23R,0.0472X0.1378*%
%ADD24R,0.0866X0.0925*%
%ADD25R,0.0610X0.0925*%
%ADD26R,0.0335X0.0669*%
%ADD27R,0.2185X0.2559*%
%ADD28R,0.0236X0.0866*%
%ADD29C,0.0150*%
%ADD30C,0.0500*%
%ADD31C,0.0200*%
%ADD32C,0.0300*%
%ADD33C,0.0250*%
%ADD34C,0.0100*%
%ADD35C,0.0630*%
%ADD36C,0.0591*%
%ADD37C,0.0591*%
%ADD38R,0.0591X0.0591*%
%ADD39P,0.2706X8X22.5*%
%ADD40C,0.1161*%
%ADD41R,0.0591X0.0591*%
%ADD42C,0.0500*%
%ADD43C,0.0394*%
%ADD44C,0.0098*%
%ADD45C,0.0236*%
%ADD46C,0.0079*%
%ADD47R,0.1379X0.0867*%
%ADD48O,0.0297X0.0769*%
%ADD49O,0.0769X0.0297*%
%ADD50R,0.0434X0.0434*%
%ADD51C,0.1181*%
%ADD52R,0.2344X0.2639*%
%ADD53R,0.0572X0.1281*%
%ADD54O,0.0316X0.0946*%
%ADD55C,0.0984*%
%ADD56R,0.0415X0.0415*%
%ADD57R,0.0474X0.0474*%
%ADD58R,0.0710X0.1261*%
%ADD59R,0.0867X0.2442*%
%ADD60R,0.0710X0.0316*%
%ADD61R,0.0552X0.1458*%
%ADD62R,0.0946X0.1005*%
%ADD63R,0.0690X0.1005*%
%ADD64R,0.0415X0.0749*%
%ADD65R,0.2265X0.2639*%
%ADD66R,0.0316X0.0946*%
%ADD67C,0.0710*%
%ADD68C,0.0671*%
%ADD69C,0.0671*%
%ADD70R,0.0671X0.0671*%
%ADD71P,0.2793X8X22.5*%
%ADD72C,0.1241*%
%ADD73R,0.0671X0.0671*%
%ADD74C,0.0580*%
%ADD75C,0.1181*%
D67*
X61606Y22622D02*
D03*
X60606D02*
D03*
X74598Y28528D02*
D03*
X73598D02*
D03*
X87590Y34433D02*
D03*
X86590D02*
D03*
X100582Y40339D02*
D03*
X99582D02*
D03*
X112574Y46244D02*
D03*
X113574D02*
D03*
X126566Y52150D02*
D03*
X125566D02*
D03*
X143889Y58055D02*
D03*
X142889D02*
D03*
X142889Y52150D02*
D03*
X143889D02*
D03*
X143889Y46244D02*
D03*
X142889D02*
D03*
Y40339D02*
D03*
X143889D02*
D03*
Y34433D02*
D03*
X142889D02*
D03*
Y28528D02*
D03*
X143889D02*
D03*
Y22622D02*
D03*
X142889D02*
D03*
X138559Y58055D02*
D03*
X139559D02*
D03*
X148220Y28528D02*
D03*
X147220D02*
D03*
Y34433D02*
D03*
X148220D02*
D03*
Y40339D02*
D03*
X147220D02*
D03*
X147220Y46244D02*
D03*
X148220D02*
D03*
X148220Y52150D02*
D03*
X147220D02*
D03*
Y58055D02*
D03*
X148220D02*
D03*
X122236Y52150D02*
D03*
X121236D02*
D03*
X112574Y28528D02*
D03*
X113574D02*
D03*
X139559Y22622D02*
D03*
X138559D02*
D03*
Y34433D02*
D03*
X139559D02*
D03*
Y40339D02*
D03*
X138559D02*
D03*
Y46244D02*
D03*
X139559D02*
D03*
Y52150D02*
D03*
X138559D02*
D03*
X134228Y22622D02*
D03*
X135228D02*
D03*
Y28528D02*
D03*
X134228D02*
D03*
Y34433D02*
D03*
X135228D02*
D03*
Y40339D02*
D03*
X134228D02*
D03*
Y46244D02*
D03*
X135228D02*
D03*
X135228Y52150D02*
D03*
X134228D02*
D03*
X134228Y58055D02*
D03*
X135228D02*
D03*
X130897Y22622D02*
D03*
X129897D02*
D03*
Y28528D02*
D03*
X130897D02*
D03*
Y34433D02*
D03*
X129897D02*
D03*
Y46244D02*
D03*
X130897D02*
D03*
Y52150D02*
D03*
X129897D02*
D03*
Y58055D02*
D03*
X130897D02*
D03*
X126566Y22622D02*
D03*
X125566D02*
D03*
Y28528D02*
D03*
X126566D02*
D03*
Y34433D02*
D03*
X125566D02*
D03*
Y40339D02*
D03*
X126566D02*
D03*
Y46244D02*
D03*
X125566D02*
D03*
X122236Y22622D02*
D03*
X121236D02*
D03*
Y28528D02*
D03*
X122236D02*
D03*
Y34433D02*
D03*
X121236D02*
D03*
Y40339D02*
D03*
X122236D02*
D03*
Y46244D02*
D03*
X121236D02*
D03*
Y58055D02*
D03*
X122236D02*
D03*
X117905Y22622D02*
D03*
X116905D02*
D03*
Y28528D02*
D03*
X117905D02*
D03*
Y34433D02*
D03*
X116905D02*
D03*
Y40339D02*
D03*
X117905D02*
D03*
Y46244D02*
D03*
X116905D02*
D03*
Y52150D02*
D03*
X117905D02*
D03*
Y58055D02*
D03*
X116905D02*
D03*
X112574Y22622D02*
D03*
X113574D02*
D03*
Y34433D02*
D03*
X112574D02*
D03*
Y40339D02*
D03*
X113574D02*
D03*
X112574Y52150D02*
D03*
X113574D02*
D03*
Y58055D02*
D03*
X112574D02*
D03*
X108244Y22622D02*
D03*
X109244D02*
D03*
Y28528D02*
D03*
X108244D02*
D03*
Y34433D02*
D03*
X109244D02*
D03*
Y40339D02*
D03*
X108244D02*
D03*
Y46244D02*
D03*
X109244D02*
D03*
Y58055D02*
D03*
X108244D02*
D03*
X103913Y22622D02*
D03*
X104913D02*
D03*
Y28528D02*
D03*
X103913D02*
D03*
Y34433D02*
D03*
X104913D02*
D03*
Y40339D02*
D03*
X103913D02*
D03*
Y46244D02*
D03*
X104913D02*
D03*
Y52150D02*
D03*
X103913D02*
D03*
Y58055D02*
D03*
X104913D02*
D03*
X100582Y22622D02*
D03*
X99582D02*
D03*
Y28528D02*
D03*
X100582D02*
D03*
Y34433D02*
D03*
X99582D02*
D03*
X100582Y46244D02*
D03*
X99582D02*
D03*
Y52150D02*
D03*
X100582D02*
D03*
Y58055D02*
D03*
X99582D02*
D03*
X95251Y22622D02*
D03*
X96251D02*
D03*
Y28528D02*
D03*
X95251D02*
D03*
Y34433D02*
D03*
X96251D02*
D03*
Y40339D02*
D03*
X95251D02*
D03*
Y46244D02*
D03*
X96251D02*
D03*
Y52150D02*
D03*
X95251D02*
D03*
Y58055D02*
D03*
X96251D02*
D03*
X91921Y22622D02*
D03*
X90921D02*
D03*
Y28528D02*
D03*
X91921D02*
D03*
Y34433D02*
D03*
X90921D02*
D03*
Y40339D02*
D03*
X91921D02*
D03*
Y46244D02*
D03*
X90921D02*
D03*
Y52150D02*
D03*
X91921D02*
D03*
Y58055D02*
D03*
X90921D02*
D03*
X86590Y22622D02*
D03*
X87590D02*
D03*
Y28528D02*
D03*
X86590D02*
D03*
X87590Y40339D02*
D03*
X86590D02*
D03*
Y46244D02*
D03*
X87590D02*
D03*
Y52150D02*
D03*
X86590D02*
D03*
Y58055D02*
D03*
X87590D02*
D03*
X83259Y22622D02*
D03*
X82259D02*
D03*
Y28528D02*
D03*
X83259D02*
D03*
Y34433D02*
D03*
X82259D02*
D03*
Y40339D02*
D03*
X83259D02*
D03*
Y46244D02*
D03*
X82259D02*
D03*
Y52150D02*
D03*
X83259D02*
D03*
Y58055D02*
D03*
X82259D02*
D03*
X77929Y22622D02*
D03*
X78929D02*
D03*
Y28528D02*
D03*
X77929D02*
D03*
Y34433D02*
D03*
X78929D02*
D03*
Y40339D02*
D03*
X77929D02*
D03*
Y46244D02*
D03*
X78929D02*
D03*
Y52150D02*
D03*
X77929D02*
D03*
Y58055D02*
D03*
X78929D02*
D03*
X74598Y22622D02*
D03*
X73598D02*
D03*
X74598Y34433D02*
D03*
X73598D02*
D03*
Y40339D02*
D03*
X74598D02*
D03*
Y46244D02*
D03*
X73598D02*
D03*
Y52150D02*
D03*
X74598D02*
D03*
Y58055D02*
D03*
X73598D02*
D03*
X69267Y22622D02*
D03*
X70267D02*
D03*
Y28528D02*
D03*
X69267D02*
D03*
Y34433D02*
D03*
X70267D02*
D03*
Y40339D02*
D03*
X69267D02*
D03*
Y46244D02*
D03*
X70267D02*
D03*
Y52150D02*
D03*
X69267D02*
D03*
Y58055D02*
D03*
X70267D02*
D03*
X65937Y22622D02*
D03*
X64937D02*
D03*
Y28528D02*
D03*
X65937D02*
D03*
Y34433D02*
D03*
X64937D02*
D03*
Y40339D02*
D03*
X65937D02*
D03*
Y46244D02*
D03*
X64937D02*
D03*
Y52150D02*
D03*
X65937D02*
D03*
Y58055D02*
D03*
X64937D02*
D03*
X61606Y28528D02*
D03*
X60606D02*
D03*
Y34433D02*
D03*
X61606D02*
D03*
Y40339D02*
D03*
X60606D02*
D03*
Y46244D02*
D03*
X61606D02*
D03*
Y52150D02*
D03*
X60606D02*
D03*
Y58055D02*
D03*
X61606D02*
D03*
X57275Y22622D02*
D03*
X56275D02*
D03*
Y28528D02*
D03*
X57275D02*
D03*
Y34433D02*
D03*
X56275D02*
D03*
Y40339D02*
D03*
X57275D02*
D03*
Y46244D02*
D03*
X56275D02*
D03*
Y52150D02*
D03*
X57275D02*
D03*
Y58055D02*
D03*
X56275D02*
D03*
X51944Y22622D02*
D03*
X52944D02*
D03*
Y28528D02*
D03*
X51944D02*
D03*
Y34433D02*
D03*
X52944D02*
D03*
Y40339D02*
D03*
X51944D02*
D03*
Y46244D02*
D03*
X52944D02*
D03*
Y52150D02*
D03*
X51944D02*
D03*
Y58055D02*
D03*
X52944D02*
D03*
X48614Y22622D02*
D03*
X47614D02*
D03*
Y28528D02*
D03*
X48614D02*
D03*
Y34433D02*
D03*
X47614D02*
D03*
Y40339D02*
D03*
X48614D02*
D03*
Y46244D02*
D03*
X47614D02*
D03*
Y52150D02*
D03*
X48614D02*
D03*
Y58055D02*
D03*
X47614D02*
D03*
X108244Y52150D02*
D03*
X109244D02*
D03*
X139559Y28528D02*
D03*
X138559D02*
D03*
X147220Y22622D02*
D03*
X148220D02*
D03*
X130897Y40339D02*
D03*
X129897D02*
D03*
X125566Y58055D02*
D03*
X126566D02*
D03*
X172357Y43370D02*
D03*
X172357Y52004D02*
D03*
D68*
X169607Y24755D02*
D03*
X168607Y23755D02*
D03*
X171357Y44870D02*
D03*
Y43870D02*
D03*
X172357Y44370D02*
D03*
X171357Y53504D02*
D03*
Y52504D02*
D03*
Y51504D02*
D03*
X172357Y54004D02*
D03*
X171357Y54504D02*
D03*
X171357Y42870D02*
D03*
X172357Y45370D02*
D03*
X171357Y45870D02*
D03*
D69*
X169607Y23755D02*
D03*
X168607Y24755D02*
D03*
X167607D02*
D03*
X172357Y53004D02*
D03*
D70*
X167607Y23755D02*
D03*
D71*
X64607Y8843D02*
D03*
X124449D02*
D03*
Y76953D02*
D03*
X64607D02*
D03*
D72*
X174857Y41870D02*
D03*
Y46370D02*
D03*
X174857Y50504D02*
D03*
Y55004D02*
D03*
D73*
X172357Y51004D02*
D03*
X172357Y42370D02*
D03*
D74*
X166080Y23370D02*
D03*
X45510Y15400D02*
D03*
X46510D02*
D03*
Y16400D02*
D03*
X45510D02*
D03*
X153360Y16290D02*
D03*
X154360D02*
D03*
Y17290D02*
D03*
X153360D02*
D03*
X71689Y14640D02*
D03*
X106334D02*
D03*
X140980Y14640D02*
D03*
X163100Y30420D02*
D03*
X60098Y24594D02*
D03*
X61098D02*
D03*
X73090Y30500D02*
D03*
X74090D02*
D03*
X86083Y36405D02*
D03*
X87083D02*
D03*
X99075Y42311D02*
D03*
X100075D02*
D03*
X112067Y48216D02*
D03*
X113067D02*
D03*
X125059Y54122D02*
D03*
X126059D02*
D03*
X81570Y62600D02*
D03*
X94563D02*
D03*
X120547D02*
D03*
X133539D02*
D03*
X107555D02*
D03*
X68578D02*
D03*
X110550Y10760D02*
D03*
X106059Y12486D02*
D03*
X112259Y15286D02*
D03*
X106059Y13786D02*
D03*
X71413D02*
D03*
Y12486D02*
D03*
X75905Y10760D02*
D03*
X77613Y15286D02*
D03*
X82749Y21300D02*
D03*
X81749D02*
D03*
X70813Y14586D02*
D03*
X117394Y21300D02*
D03*
X116394D02*
D03*
X105459Y14586D02*
D03*
X146531Y62600D02*
D03*
X139051Y60027D02*
D03*
X138051D02*
D03*
X140705Y13786D02*
D03*
X146905Y15286D02*
D03*
X145196Y10760D02*
D03*
X140705Y12486D02*
D03*
X140105Y14586D02*
D03*
X170481Y25496D02*
D03*
X165150Y15490D02*
D03*
X162207Y26020D02*
D03*
X160307Y40820D02*
D03*
X162607Y38320D02*
D03*
X158050Y32700D02*
D03*
X164507Y34220D02*
D03*
X166100Y54200D02*
D03*
X163107Y54220D02*
D03*
Y53220D02*
D03*
X166100Y53200D02*
D03*
X165100Y54200D02*
D03*
X164100D02*
D03*
Y53200D02*
D03*
X165100D02*
D03*
X166207Y26220D02*
D03*
X170707Y33920D02*
D03*
X169707Y30920D02*
D03*
X157080Y31280D02*
D03*
X163507Y35720D02*
D03*
X158750Y36570D02*
D03*
X168607Y60720D02*
D03*
X169607D02*
D03*
Y59720D02*
D03*
X168607D02*
D03*
X156607Y58270D02*
D03*
X165107Y44370D02*
D03*
X156557Y40920D02*
D03*
X161507D02*
D03*
X157657Y58270D02*
D03*
X160507Y43070D02*
D03*
X161607Y60220D02*
D03*
Y61220D02*
D03*
X162607Y60220D02*
D03*
Y61220D02*
D03*
X156100Y28500D02*
D03*
X155100Y27500D02*
D03*
X154100Y26500D02*
D03*
X157100Y29500D02*
D03*
X162100Y52100D02*
D03*
X161100D02*
D03*
X160100D02*
D03*
X159100D02*
D03*
X158100D02*
D03*
X157100D02*
D03*
X156100D02*
D03*
X161100Y46053D02*
D03*
X160100D02*
D03*
X159100D02*
D03*
X158100D02*
D03*
X151040Y21300D02*
D03*
X152040D02*
D03*
X154550Y64450D02*
D03*
X155550D02*
D03*
Y65450D02*
D03*
X154550D02*
D03*
X162450Y12900D02*
D03*
D75*
X172400Y72400D02*
D03*
X51400Y67000D02*
D03*
X171100Y13600D02*
D03*
X51600Y10200D02*
D03*
M02*
