M48
;Layer_Color=9474304
;FILE_FORMAT=2:5
INCH,LZ
;TYPE=PLATED
T1F00S00C0.02800
T2F00S00C0.03543
T3F00S00C0.06394
T4F00S00C0.15625
;TYPE=NON_PLATED
T5F00S00C0.12795
%
T01
X0312571Y0312205
X0323071
X0291339Y0301339
X0281339
Y0291339
X0291339
X0362571Y0331705
X0372571
Y0341705
X0362571
X0432571Y0346205
Y0336705
Y0326705
Y0356205
X0418071Y0451705
X0378071Y0449705
X03225Y04355
X0460811Y0444461
X052Y0443
X0482283Y0399606
X052Y0538
Y05785
X04535Y0603
X0463071Y0528705
X0453071Y0498705
X0389Y0491
X03881Y0508
X0406Y054
Y0552
X0382071Y0572705
X0371071Y0598705
X0359071Y0597705
X0361071Y0620205
X0321571Y0598705
X0335Y0513
X03225Y0476
X0312Y05805
X0286571Y0747
Y0757
X0363Y07386
X0383Y0738575
X0393Y0708925
X0403
X0413Y0708925
X0433Y0708925
X0423Y07386
X0373Y0708925
X0353Y0708925
X03445Y07185
X03184Y06668
X0429Y0660051
X0407071Y0633205
X03655Y0807
X0325
T02
X0432071Y0426705
X0442071
X0452071
Y0436705
X0442071
X0432071
X0469321Y0618455
X0479321Y0623455
Y0613455
Y0633455
Y0643455
X0469321Y0638455
Y0628455
Y0648455
X0469575Y0704543
Y0714543
Y0724543
Y0734543
X0479575Y0729543
Y0719543
Y0709543
Y0699543
X048Y0782
X047
X049
X05
X051
X052
Y083
Y084
X051
Y083
X05
Y084
X049
Y083
X048
X047
Y084
X048
Y0871
X049
X05
X051
X052
X047
X046
X045
Y084
X046
Y083
X045
Y0782
X046
T03
X0466Y032
X05035
T04
X0288779Y0374016
X0525
Y0933071
X0288779
T05
X0504321Y0608455
Y0653455
X0504575Y0694543
Y0739543
M30
