%FSLAX24Y24*%
%MOIN*%
G70*
G01*
G75*
G04 Layer_Color=16711935*
%ADD10C,0.0394*%
%ADD11R,0.0354X0.0354*%
%ADD12R,0.0394X0.0945*%
%ADD13R,0.1299X0.0945*%
%ADD14R,0.0532X0.0453*%
%ADD15O,0.0217X0.0689*%
%ADD16O,0.0689X0.0217*%
%ADD17R,0.0472X0.1378*%
%ADD18R,0.0630X0.0236*%
%ADD19R,0.0335X0.0335*%
%ADD20R,0.0610X0.0925*%
%ADD21R,0.0335X0.0669*%
%ADD22R,0.0866X0.0925*%
%ADD23R,0.0394X0.0394*%
%ADD24R,0.0630X0.1181*%
%ADD25O,0.0236X0.0866*%
%ADD26R,0.0492X0.1201*%
%ADD27R,0.2185X0.2559*%
%ADD28R,0.0787X0.2362*%
%ADD29R,0.0532X0.0453*%
%ADD30C,0.0150*%
%ADD31C,0.0300*%
%ADD32C,0.1000*%
%ADD33C,0.0500*%
%ADD34C,0.0250*%
%ADD35C,0.0591*%
%ADD36R,0.0591X0.0591*%
%ADD37C,0.0591*%
%ADD38P,0.2706X8X22.5*%
%ADD39C,0.1800*%
%ADD40C,0.0630*%
%ADD41C,0.1161*%
%ADD42R,0.0591X0.0591*%
%ADD43C,0.0500*%
%ADD44C,0.0394*%
%ADD45C,0.0098*%
%ADD46C,0.0100*%
%ADD47C,0.0236*%
%ADD48C,0.0079*%
%ADD49C,0.1181*%
%ADD50R,0.0434X0.0434*%
%ADD51R,0.0474X0.1025*%
%ADD52R,0.1379X0.1025*%
%ADD53R,0.0612X0.0533*%
%ADD54C,0.0984*%
%ADD55O,0.0297X0.0769*%
%ADD56O,0.0769X0.0297*%
%ADD57R,0.0552X0.1458*%
%ADD58R,0.0710X0.0316*%
%ADD59R,0.0415X0.0415*%
%ADD60R,0.0690X0.1005*%
%ADD61R,0.0415X0.0749*%
%ADD62R,0.0946X0.1005*%
%ADD63R,0.0474X0.0474*%
%ADD64R,0.0710X0.1261*%
%ADD65O,0.0316X0.0946*%
%ADD66R,0.0572X0.1281*%
%ADD67R,0.2265X0.2639*%
%ADD68R,0.0867X0.2442*%
%ADD69R,0.0612X0.0533*%
%ADD70C,0.0671*%
%ADD71R,0.0671X0.0671*%
%ADD72C,0.0671*%
%ADD73P,0.2793X8X22.5*%
%ADD74C,0.1880*%
%ADD75C,0.0710*%
%ADD76C,0.1241*%
%ADD77R,0.0671X0.0671*%
%ADD78C,0.0580*%
%ADD79C,0.1181*%
D70*
X50000Y83000D02*
D03*
X46000Y84000D02*
D03*
X47000Y83000D02*
D03*
X52000D02*
D03*
X51000Y84000D02*
D03*
Y83000D02*
D03*
X50000Y84000D02*
D03*
X49000D02*
D03*
Y83000D02*
D03*
X48000Y84000D02*
D03*
Y83000D02*
D03*
X47000Y84000D02*
D03*
X46000Y83000D02*
D03*
X45000D02*
D03*
X45207Y43670D02*
D03*
Y42670D02*
D03*
X44207Y43670D02*
D03*
Y42670D02*
D03*
X43207Y43670D02*
D03*
D71*
X52000Y84000D02*
D03*
X43207Y42670D02*
D03*
D72*
X45000Y84000D02*
D03*
X47957Y71954D02*
D03*
X47932Y63345D02*
D03*
X46957Y70454D02*
D03*
Y71454D02*
D03*
Y72454D02*
D03*
X47957Y72954D02*
D03*
X46957Y73454D02*
D03*
X46932Y61845D02*
D03*
Y62845D02*
D03*
Y63845D02*
D03*
X47932Y64345D02*
D03*
X46932Y64845D02*
D03*
X47000Y78200D02*
D03*
X46000D02*
D03*
X48000D02*
D03*
X49000D02*
D03*
X50000D02*
D03*
X51000D02*
D03*
X52000D02*
D03*
X45000D02*
D03*
X52000Y87100D02*
D03*
X51000D02*
D03*
X50000D02*
D03*
X49000D02*
D03*
X48000D02*
D03*
X47000D02*
D03*
X46000D02*
D03*
X45000D02*
D03*
D73*
X28878Y93307D02*
D03*
X52500D02*
D03*
Y37402D02*
D03*
X28878D02*
D03*
D74*
X46600Y32000D02*
D03*
X50350D02*
D03*
D75*
X47957Y70954D02*
D03*
X47932Y62345D02*
D03*
D76*
X50457Y69454D02*
D03*
Y73954D02*
D03*
X50432Y60845D02*
D03*
Y65345D02*
D03*
D77*
X47957Y69954D02*
D03*
X47932Y61345D02*
D03*
D78*
X36550Y80700D02*
D03*
X32500D02*
D03*
X38900Y49100D02*
D03*
X46081Y44446D02*
D03*
X37807Y44970D02*
D03*
X35907Y59770D02*
D03*
X38207Y57270D02*
D03*
X33500Y51300D02*
D03*
X41807Y45170D02*
D03*
X46307Y52870D02*
D03*
X45307Y49870D02*
D03*
X32250Y47600D02*
D03*
X31200Y58050D02*
D03*
X40707Y63320D02*
D03*
X28134Y30134D02*
D03*
X29134D02*
D03*
Y29134D02*
D03*
X28134D02*
D03*
X31257Y31220D02*
D03*
X43257Y32670D02*
D03*
Y34620D02*
D03*
Y35620D02*
D03*
Y33670D02*
D03*
X32157Y59870D02*
D03*
X37107D02*
D03*
X32307Y31220D02*
D03*
X36107Y62020D02*
D03*
X36257Y33170D02*
D03*
X37257D02*
D03*
X36257Y34170D02*
D03*
X37257D02*
D03*
X31840Y66680D02*
D03*
X39300Y70893D02*
D03*
X40300D02*
D03*
X41300Y70893D02*
D03*
X37300D02*
D03*
X35300Y70893D02*
D03*
X43300Y70893D02*
D03*
X42300Y73860D02*
D03*
X36300Y73860D02*
D03*
X38300Y73857D02*
D03*
X28657Y75700D02*
D03*
Y74700D02*
D03*
X38810Y50800D02*
D03*
X40600Y54000D02*
D03*
Y55200D02*
D03*
X34450Y71850D02*
D03*
X32250Y43550D02*
D03*
X52000Y53800D02*
D03*
Y57850D02*
D03*
X48228Y39961D02*
D03*
X52000Y44300D02*
D03*
X42900Y66005D02*
D03*
X45350Y60300D02*
D03*
D79*
X29600Y89800D02*
D03*
X47700Y93700D02*
D03*
X53000Y27500D02*
D03*
X27900Y33800D02*
D03*
M02*
