%FSLAX24Y24*%
%MOIN*%
G70*
G01*
G75*
G04 Layer_Color=8388736*
%ADD10C,0.0394*%
%ADD11R,0.0354X0.0354*%
%ADD12R,0.0394X0.0945*%
%ADD13R,0.1299X0.0945*%
%ADD14R,0.0532X0.0453*%
%ADD15O,0.0217X0.0689*%
%ADD16O,0.0689X0.0217*%
%ADD17R,0.0472X0.1378*%
%ADD18R,0.0630X0.0236*%
%ADD19R,0.0335X0.0335*%
%ADD20R,0.0610X0.0925*%
%ADD21R,0.0335X0.0669*%
%ADD22R,0.0866X0.0925*%
%ADD23R,0.0394X0.0394*%
%ADD24R,0.0630X0.1181*%
%ADD25O,0.0236X0.0866*%
%ADD26R,0.0492X0.1201*%
%ADD27R,0.2185X0.2559*%
%ADD28R,0.0787X0.2362*%
%ADD29R,0.0532X0.0453*%
%ADD30C,0.0150*%
%ADD31C,0.0300*%
%ADD32C,0.1000*%
%ADD33C,0.0500*%
%ADD34C,0.0250*%
%ADD35C,0.0591*%
%ADD36R,0.0591X0.0591*%
%ADD37C,0.0591*%
%ADD38P,0.2706X8X22.5*%
%ADD39C,0.1800*%
%ADD40C,0.0630*%
%ADD41C,0.1161*%
%ADD42R,0.0591X0.0591*%
%ADD43C,0.0500*%
%ADD44C,0.0394*%
%ADD45C,0.0098*%
%ADD46C,0.0100*%
%ADD47C,0.0236*%
%ADD48C,0.0079*%
%ADD49C,0.1181*%
%ADD50R,0.0434X0.0434*%
%ADD51R,0.0474X0.1025*%
%ADD52R,0.1379X0.1025*%
%ADD53R,0.0612X0.0533*%
%ADD54C,0.0984*%
%ADD55O,0.0297X0.0769*%
%ADD56O,0.0769X0.0297*%
%ADD57R,0.0552X0.1458*%
%ADD58R,0.0710X0.0316*%
%ADD59R,0.0415X0.0415*%
%ADD60R,0.0690X0.1005*%
%ADD61R,0.0415X0.0749*%
%ADD62R,0.0946X0.1005*%
%ADD63R,0.0474X0.0474*%
%ADD64R,0.0710X0.1261*%
%ADD65O,0.0316X0.0946*%
%ADD66R,0.0572X0.1281*%
%ADD67R,0.2265X0.2639*%
%ADD68R,0.0867X0.2442*%
%ADD69R,0.0612X0.0533*%
%ADD70C,0.0671*%
%ADD71R,0.0671X0.0671*%
%ADD72C,0.0671*%
%ADD73P,0.2793X8X22.5*%
%ADD74C,0.1880*%
%ADD75C,0.0710*%
%ADD76C,0.1241*%
%ADD77R,0.0671X0.0671*%
%ADD78C,0.0580*%
D49*
X29600Y89800D02*
D03*
X47700Y93700D02*
D03*
X53000Y27500D02*
D03*
X27900Y33800D02*
D03*
D50*
X39257Y34356D02*
D03*
Y34985D02*
D03*
X31257Y34356D02*
D03*
Y34985D02*
D03*
X37803Y45856D02*
D03*
Y46485D02*
D03*
X32207Y61856D02*
D03*
Y62485D02*
D03*
X37807Y43056D02*
D03*
Y43685D02*
D03*
X45307Y54085D02*
D03*
Y53456D02*
D03*
X34576Y50342D02*
D03*
Y50972D02*
D03*
X45307Y47956D02*
D03*
Y48585D02*
D03*
X38118Y53570D02*
D03*
Y54200D02*
D03*
X45307Y51456D02*
D03*
Y52085D02*
D03*
X41650Y67385D02*
D03*
Y68015D02*
D03*
D51*
X32694Y67458D02*
D03*
X33600D02*
D03*
X34506D02*
D03*
D52*
X33600Y69742D02*
D03*
D53*
X31100Y67706D02*
D03*
Y68494D02*
D03*
X30100Y67706D02*
D03*
D54*
X35467Y52700D02*
D03*
X40777Y47380D02*
D03*
D55*
X39693Y47817D02*
D03*
X39378D02*
D03*
X39063D02*
D03*
X38748D02*
D03*
X38433D02*
D03*
X37173D02*
D03*
X36858D02*
D03*
X36543D02*
D03*
X36858Y52265D02*
D03*
X37173D02*
D03*
X37488D02*
D03*
X38433D02*
D03*
X38748D02*
D03*
X39693D02*
D03*
X39378D02*
D03*
X39063D02*
D03*
X38118D02*
D03*
X37803D02*
D03*
X36543D02*
D03*
X37488Y47817D02*
D03*
X37803D02*
D03*
X38118D02*
D03*
D56*
X35894Y49726D02*
D03*
Y50671D02*
D03*
Y50986D02*
D03*
Y51301D02*
D03*
Y51616D02*
D03*
X40343Y48466D02*
D03*
Y48781D02*
D03*
Y49096D02*
D03*
Y49411D02*
D03*
Y49726D02*
D03*
Y50041D02*
D03*
Y50356D02*
D03*
Y50671D02*
D03*
Y50986D02*
D03*
Y51301D02*
D03*
Y51616D02*
D03*
X35894Y50356D02*
D03*
Y50041D02*
D03*
Y49411D02*
D03*
Y49096D02*
D03*
Y48781D02*
D03*
Y48466D02*
D03*
D57*
X41257Y35770D02*
D03*
Y33570D02*
D03*
X33257Y35770D02*
D03*
Y33570D02*
D03*
D58*
X43233Y62946D02*
D03*
Y63694D02*
D03*
X42524Y63320D02*
D03*
D59*
X32177Y57736D02*
D03*
Y58366D02*
D03*
X37087Y57736D02*
D03*
Y58366D02*
D03*
X33307Y53556D02*
D03*
Y54185D02*
D03*
X32307Y29355D02*
D03*
Y29985D02*
D03*
X37300Y72417D02*
D03*
Y71787D02*
D03*
X39300D02*
D03*
X43300Y71787D02*
D03*
X39300Y72417D02*
D03*
X43300Y72417D02*
D03*
D60*
X38807Y30526D02*
D03*
Y28970D02*
D03*
D61*
X41231Y28489D02*
D03*
X42283D02*
D03*
Y30852D02*
D03*
X41231D02*
D03*
D62*
X36857Y30823D02*
D03*
Y28618D02*
D03*
X34357Y30870D02*
D03*
Y28666D02*
D03*
D63*
X34157Y58405D02*
D03*
Y57736D02*
D03*
X33157Y57736D02*
D03*
Y58405D02*
D03*
X36107Y57736D02*
D03*
Y58405D02*
D03*
X38707Y43036D02*
D03*
Y43705D02*
D03*
X32107Y53536D02*
D03*
Y54205D02*
D03*
X31327Y29355D02*
D03*
Y30025D02*
D03*
X40300Y72456D02*
D03*
Y71787D02*
D03*
X41300Y72456D02*
D03*
Y71787D02*
D03*
X42300Y72456D02*
D03*
Y71787D02*
D03*
X35300Y72456D02*
D03*
Y71787D02*
D03*
X38300Y72453D02*
D03*
Y71784D02*
D03*
X36300Y72456D02*
D03*
Y71787D02*
D03*
D64*
X40207Y41620D02*
D03*
Y45235D02*
D03*
D65*
X33357Y60126D02*
D03*
X33857D02*
D03*
X34357D02*
D03*
X34857D02*
D03*
Y62015D02*
D03*
X34357D02*
D03*
X33857D02*
D03*
X33357D02*
D03*
X37800Y66676D02*
D03*
X38300D02*
D03*
X38800D02*
D03*
X39300D02*
D03*
X39800D02*
D03*
X40300D02*
D03*
X40800D02*
D03*
X38800Y68566D02*
D03*
X38300D02*
D03*
X37800D02*
D03*
X40800D02*
D03*
X40300D02*
D03*
X39800D02*
D03*
X39300D02*
D03*
D66*
X37659Y36265D02*
D03*
X35856D02*
D03*
D67*
X36757Y33726D02*
D03*
D68*
X43707Y50820D02*
D03*
Y54757D02*
D03*
D69*
X30100Y68494D02*
D03*
D70*
X50000Y83000D02*
D03*
X46000Y84000D02*
D03*
X47000Y83000D02*
D03*
X52000D02*
D03*
X51000Y84000D02*
D03*
Y83000D02*
D03*
X50000Y84000D02*
D03*
X49000D02*
D03*
Y83000D02*
D03*
X48000Y84000D02*
D03*
Y83000D02*
D03*
X47000Y84000D02*
D03*
X46000Y83000D02*
D03*
X45000D02*
D03*
X45207Y43670D02*
D03*
Y42670D02*
D03*
X44207Y43670D02*
D03*
Y42670D02*
D03*
X43207Y43670D02*
D03*
D71*
X52000Y84000D02*
D03*
X43207Y42670D02*
D03*
D72*
X45000Y84000D02*
D03*
X47957Y71954D02*
D03*
X47932Y63345D02*
D03*
X46957Y70454D02*
D03*
Y71454D02*
D03*
Y72454D02*
D03*
X47957Y72954D02*
D03*
X46957Y73454D02*
D03*
X46932Y61845D02*
D03*
Y62845D02*
D03*
Y63845D02*
D03*
X47932Y64345D02*
D03*
X46932Y64845D02*
D03*
X47000Y78200D02*
D03*
X46000D02*
D03*
X48000D02*
D03*
X49000D02*
D03*
X50000D02*
D03*
X51000D02*
D03*
X52000D02*
D03*
X45000D02*
D03*
X52000Y87100D02*
D03*
X51000D02*
D03*
X50000D02*
D03*
X49000D02*
D03*
X48000D02*
D03*
X47000D02*
D03*
X46000D02*
D03*
X45000D02*
D03*
D73*
X28878Y93307D02*
D03*
X52500D02*
D03*
Y37402D02*
D03*
X28878D02*
D03*
D74*
X46600Y32000D02*
D03*
X50350D02*
D03*
D75*
X47957Y70954D02*
D03*
X47932Y62345D02*
D03*
D76*
X50457Y69454D02*
D03*
Y73954D02*
D03*
X50432Y60845D02*
D03*
Y65345D02*
D03*
D77*
X47957Y69954D02*
D03*
X47932Y61345D02*
D03*
D78*
X36550Y80700D02*
D03*
X32500D02*
D03*
X38900Y49100D02*
D03*
X46081Y44446D02*
D03*
X37807Y44970D02*
D03*
X35907Y59770D02*
D03*
X38207Y57270D02*
D03*
X33500Y51300D02*
D03*
X41807Y45170D02*
D03*
X46307Y52870D02*
D03*
X45307Y49870D02*
D03*
X32250Y47600D02*
D03*
X31200Y58050D02*
D03*
X40707Y63320D02*
D03*
X28134Y30134D02*
D03*
X29134D02*
D03*
Y29134D02*
D03*
X28134D02*
D03*
X31257Y31220D02*
D03*
X43257Y32670D02*
D03*
Y34620D02*
D03*
Y35620D02*
D03*
Y33670D02*
D03*
X32157Y59870D02*
D03*
X37107D02*
D03*
X32307Y31220D02*
D03*
X36107Y62020D02*
D03*
X36257Y33170D02*
D03*
X37257D02*
D03*
X36257Y34170D02*
D03*
X37257D02*
D03*
X31840Y66680D02*
D03*
X39300Y70893D02*
D03*
X40300D02*
D03*
X41300Y70893D02*
D03*
X37300D02*
D03*
X35300Y70893D02*
D03*
X43300Y70893D02*
D03*
X42300Y73860D02*
D03*
X36300Y73860D02*
D03*
X38300Y73857D02*
D03*
X28657Y75700D02*
D03*
Y74700D02*
D03*
X38810Y50800D02*
D03*
X40600Y54000D02*
D03*
Y55200D02*
D03*
X34450Y71850D02*
D03*
X32250Y43550D02*
D03*
X52000Y53800D02*
D03*
Y57850D02*
D03*
X48228Y39961D02*
D03*
X52000Y44300D02*
D03*
X42900Y66005D02*
D03*
X45350Y60300D02*
D03*
M02*
