%FSLAX24Y24*%
%MOIN*%
G70*
G01*
G75*
G04 Layer_Color=8421504*
%ADD10C,0.0394*%
%ADD11R,0.0354X0.0354*%
%ADD12R,0.0394X0.0945*%
%ADD13R,0.1299X0.0945*%
%ADD14R,0.0532X0.0453*%
%ADD15O,0.0217X0.0689*%
%ADD16O,0.0689X0.0217*%
%ADD17R,0.0472X0.1378*%
%ADD18R,0.0630X0.0236*%
%ADD19R,0.0335X0.0335*%
%ADD20R,0.0610X0.0925*%
%ADD21R,0.0335X0.0669*%
%ADD22R,0.0866X0.0925*%
%ADD23R,0.0394X0.0394*%
%ADD24R,0.0630X0.1181*%
%ADD25O,0.0236X0.0866*%
%ADD26R,0.0492X0.1201*%
%ADD27R,0.2185X0.2559*%
%ADD28R,0.0787X0.2362*%
%ADD29R,0.0532X0.0453*%
%ADD30C,0.0150*%
%ADD31C,0.0300*%
%ADD32C,0.1000*%
%ADD33C,0.0500*%
%ADD34C,0.0250*%
%ADD35C,0.0591*%
%ADD36R,0.0591X0.0591*%
%ADD37C,0.0591*%
%ADD38P,0.2706X8X22.5*%
%ADD39C,0.1800*%
%ADD40C,0.0630*%
%ADD41C,0.1161*%
%ADD42R,0.0591X0.0591*%
%ADD43C,0.0500*%
%ADD44C,0.0394*%
%ADD45C,0.0098*%
%ADD46C,0.0100*%
%ADD47C,0.0236*%
%ADD48C,0.0079*%
D10*
X29600Y89800D02*
D03*
X47700Y93700D02*
D03*
X53000Y27500D02*
D03*
X27900Y33800D02*
D03*
X35467Y52700D02*
D03*
X40777Y47380D02*
D03*
D11*
X39257Y34356D02*
D03*
Y34985D02*
D03*
X31257Y34356D02*
D03*
Y34985D02*
D03*
X37803Y45856D02*
D03*
Y46485D02*
D03*
X32207Y61856D02*
D03*
Y62485D02*
D03*
X37807Y43056D02*
D03*
Y43685D02*
D03*
X45307Y54085D02*
D03*
Y53456D02*
D03*
X34576Y50342D02*
D03*
Y50972D02*
D03*
X45307Y47956D02*
D03*
Y48585D02*
D03*
X38118Y53570D02*
D03*
Y54200D02*
D03*
X45307Y51456D02*
D03*
Y52085D02*
D03*
X41650Y67385D02*
D03*
Y68015D02*
D03*
D12*
X32694Y67458D02*
D03*
X33600D02*
D03*
X34506D02*
D03*
D13*
X33600Y69742D02*
D03*
D14*
X31100Y67706D02*
D03*
Y68494D02*
D03*
X30100Y67706D02*
D03*
D15*
X39693Y47817D02*
D03*
X39378D02*
D03*
X39063D02*
D03*
X38748D02*
D03*
X38433D02*
D03*
X37173D02*
D03*
X36858D02*
D03*
X36543D02*
D03*
X36858Y52265D02*
D03*
X37173D02*
D03*
X37488D02*
D03*
X38433D02*
D03*
X38748D02*
D03*
X39693D02*
D03*
X39378D02*
D03*
X39063D02*
D03*
X38118D02*
D03*
X37803D02*
D03*
X36543D02*
D03*
X37488Y47817D02*
D03*
X37803D02*
D03*
X38118D02*
D03*
D16*
X35894Y49726D02*
D03*
Y50671D02*
D03*
Y50986D02*
D03*
Y51301D02*
D03*
Y51616D02*
D03*
X40343Y48466D02*
D03*
Y48781D02*
D03*
Y49096D02*
D03*
Y49411D02*
D03*
Y49726D02*
D03*
Y50041D02*
D03*
Y50356D02*
D03*
Y50671D02*
D03*
Y50986D02*
D03*
Y51301D02*
D03*
Y51616D02*
D03*
X35894Y50356D02*
D03*
Y50041D02*
D03*
Y49411D02*
D03*
Y49096D02*
D03*
Y48781D02*
D03*
Y48466D02*
D03*
D17*
X41257Y35770D02*
D03*
Y33570D02*
D03*
X33257Y35770D02*
D03*
Y33570D02*
D03*
D18*
X43233Y62946D02*
D03*
Y63694D02*
D03*
X42524Y63320D02*
D03*
D19*
X32177Y57736D02*
D03*
Y58366D02*
D03*
X37087Y57736D02*
D03*
Y58366D02*
D03*
X33307Y53556D02*
D03*
Y54185D02*
D03*
X32307Y29355D02*
D03*
Y29985D02*
D03*
X37300Y72417D02*
D03*
Y71787D02*
D03*
X39300D02*
D03*
X43300Y71787D02*
D03*
X39300Y72417D02*
D03*
X43300Y72417D02*
D03*
D20*
X38807Y30526D02*
D03*
Y28970D02*
D03*
D21*
X41231Y28489D02*
D03*
X42283D02*
D03*
Y30852D02*
D03*
X41231D02*
D03*
D22*
X36857Y30823D02*
D03*
Y28618D02*
D03*
X34357Y30870D02*
D03*
Y28666D02*
D03*
D23*
X34157Y58405D02*
D03*
Y57736D02*
D03*
X33157Y57736D02*
D03*
Y58405D02*
D03*
X36107Y57736D02*
D03*
Y58405D02*
D03*
X38707Y43036D02*
D03*
Y43705D02*
D03*
X32107Y53536D02*
D03*
Y54205D02*
D03*
X31327Y29355D02*
D03*
Y30025D02*
D03*
X40300Y72456D02*
D03*
Y71787D02*
D03*
X41300Y72456D02*
D03*
Y71787D02*
D03*
X42300Y72456D02*
D03*
Y71787D02*
D03*
X35300Y72456D02*
D03*
Y71787D02*
D03*
X38300Y72453D02*
D03*
Y71784D02*
D03*
X36300Y72456D02*
D03*
Y71787D02*
D03*
D24*
X40207Y41620D02*
D03*
Y45235D02*
D03*
D25*
X33357Y60126D02*
D03*
X33857D02*
D03*
X34357D02*
D03*
X34857D02*
D03*
Y62015D02*
D03*
X34357D02*
D03*
X33857D02*
D03*
X33357D02*
D03*
X37800Y66676D02*
D03*
X38300D02*
D03*
X38800D02*
D03*
X39300D02*
D03*
X39800D02*
D03*
X40300D02*
D03*
X40800D02*
D03*
X38800Y68566D02*
D03*
X38300D02*
D03*
X37800D02*
D03*
X40800D02*
D03*
X40300D02*
D03*
X39800D02*
D03*
X39300D02*
D03*
D26*
X37659Y36265D02*
D03*
X35856D02*
D03*
D27*
X36757Y33726D02*
D03*
D28*
X43707Y50820D02*
D03*
Y54757D02*
D03*
D29*
X30100Y68494D02*
D03*
M02*
