%FSLAX24Y24*%
%MOIN*%
G70*
G01*
G75*
G04 Layer_Physical_Order=1*
G04 Layer_Color=255*
%ADD10C,0.0394*%
%ADD11R,0.0354X0.0354*%
%ADD12R,0.0394X0.0945*%
%ADD13R,0.1299X0.0945*%
%ADD14R,0.0532X0.0453*%
%ADD15O,0.0217X0.0689*%
%ADD16O,0.0689X0.0217*%
%ADD17R,0.0472X0.1378*%
%ADD18R,0.0630X0.0236*%
%ADD19R,0.0335X0.0335*%
%ADD20R,0.0610X0.0925*%
%ADD21R,0.0335X0.0669*%
%ADD22R,0.0866X0.0925*%
%ADD23R,0.0394X0.0394*%
%ADD24R,0.0630X0.1181*%
%ADD25O,0.0236X0.0866*%
%ADD26R,0.0492X0.1201*%
%ADD27R,0.2185X0.2559*%
%ADD28R,0.0787X0.2362*%
%ADD29R,0.0532X0.0453*%
%ADD30C,0.0150*%
%ADD31C,0.0300*%
%ADD32C,0.1000*%
%ADD33C,0.0500*%
%ADD34C,0.0250*%
%ADD35C,0.0591*%
%ADD36R,0.0591X0.0591*%
%ADD37C,0.0591*%
%ADD38P,0.2706X8X22.5*%
%ADD39C,0.1800*%
%ADD40C,0.0630*%
%ADD41C,0.1161*%
%ADD42R,0.0591X0.0591*%
%ADD43C,0.0500*%
G36*
X54304Y26302D02*
X27153Y26287D01*
Y26287D01*
Y94973D01*
X54304D01*
Y26302D01*
D02*
G37*
%LPC*%
G36*
X53000Y27951D02*
X52883Y27935D01*
X52775Y27890D01*
X52681Y27819D01*
X52610Y27725D01*
X52565Y27617D01*
X52549Y27500D01*
X52565Y27383D01*
X52610Y27275D01*
X52681Y27181D01*
X52775Y27110D01*
X52883Y27065D01*
X53000Y27049D01*
X53117Y27065D01*
X53225Y27110D01*
X53319Y27181D01*
X53390Y27275D01*
X53435Y27383D01*
X53451Y27500D01*
X53435Y27617D01*
X53390Y27725D01*
X53319Y27819D01*
X53225Y27890D01*
X53117Y27935D01*
X53000Y27951D01*
D02*
G37*
G36*
X47700Y94151D02*
X47583Y94135D01*
X47475Y94090D01*
X47381Y94019D01*
X47310Y93925D01*
X47265Y93817D01*
X47249Y93700D01*
X47265Y93583D01*
X47310Y93475D01*
X47381Y93381D01*
X47475Y93310D01*
X47583Y93265D01*
X47700Y93249D01*
X47817Y93265D01*
X47925Y93310D01*
X48019Y93381D01*
X48090Y93475D01*
X48135Y93583D01*
X48151Y93700D01*
X48135Y93817D01*
X48090Y93925D01*
X48019Y94019D01*
X47925Y94090D01*
X47817Y94135D01*
X47700Y94151D01*
D02*
G37*
G36*
X52000Y78750D02*
X51858Y78731D01*
X51725Y78676D01*
X51611Y78589D01*
X51524Y78475D01*
X51500Y78418D01*
D01*
D01*
D01*
X51500D01*
X51476Y78475D01*
X51389Y78589D01*
X51275Y78676D01*
X51142Y78731D01*
X51000Y78750D01*
X50858Y78731D01*
X50725Y78676D01*
X50611Y78589D01*
X50524Y78475D01*
X50469Y78342D01*
X50450Y78200D01*
X50469Y78058D01*
X50524Y77925D01*
X50611Y77811D01*
X50725Y77724D01*
X50858Y77669D01*
X51000Y77650D01*
X51142Y77669D01*
X51275Y77724D01*
X51389Y77811D01*
X51476Y77925D01*
X51500Y77982D01*
Y77982D01*
X51524Y77925D01*
X51611Y77811D01*
X51725Y77724D01*
X51858Y77669D01*
X52000Y77650D01*
X52142Y77669D01*
X52275Y77724D01*
X52389Y77811D01*
X52476Y77925D01*
X52531Y78058D01*
X52550Y78200D01*
X52531Y78342D01*
X52476Y78475D01*
X52389Y78589D01*
X52275Y78676D01*
X52142Y78731D01*
X52000Y78750D01*
D02*
G37*
G36*
X53250Y38902D02*
X51750D01*
X51000Y38152D01*
Y36652D01*
X51750Y35902D01*
X53250D01*
X54000Y36652D01*
Y38152D01*
X53250Y38902D01*
D02*
G37*
G36*
X29628D02*
X28128D01*
X27378Y38152D01*
Y36652D01*
X28128Y35902D01*
X29628D01*
X30378Y36652D01*
Y38152D01*
X29628Y38902D01*
D02*
G37*
G36*
X27900Y34251D02*
X27783Y34235D01*
X27675Y34190D01*
X27581Y34119D01*
X27510Y34025D01*
X27465Y33917D01*
X27449Y33800D01*
X27465Y33683D01*
X27510Y33575D01*
X27581Y33481D01*
X27675Y33410D01*
X27783Y33365D01*
X27900Y33349D01*
X28017Y33365D01*
X28125Y33410D01*
X28219Y33481D01*
X28290Y33575D01*
X28335Y33683D01*
X28351Y33800D01*
X28335Y33917D01*
X28290Y34025D01*
X28219Y34119D01*
X28125Y34190D01*
X28017Y34235D01*
X27900Y34251D01*
D02*
G37*
G36*
X29600Y90251D02*
X29483Y90235D01*
X29375Y90190D01*
X29281Y90119D01*
X29210Y90025D01*
X29165Y89917D01*
X29149Y89800D01*
X29165Y89683D01*
X29210Y89575D01*
X29281Y89481D01*
X29375Y89410D01*
X29483Y89365D01*
X29600Y89349D01*
X29717Y89365D01*
X29825Y89410D01*
X29919Y89481D01*
X29990Y89575D01*
X30035Y89683D01*
X30051Y89800D01*
X30035Y89917D01*
X29990Y90025D01*
X29919Y90119D01*
X29825Y90190D01*
X29717Y90235D01*
X29600Y90251D01*
D02*
G37*
G36*
X29628Y94807D02*
X28128D01*
X27378Y94057D01*
Y92557D01*
X28128Y91807D01*
X29628D01*
X30378Y92557D01*
Y94057D01*
X29628Y94807D01*
D02*
G37*
G36*
X53250D02*
X51750D01*
X51000Y94057D01*
Y92557D01*
X51750Y91807D01*
X53250D01*
X54000Y92557D01*
Y94057D01*
X53250Y94807D01*
D02*
G37*
G36*
X46000Y87650D02*
X45858Y87631D01*
X45725Y87576D01*
X45611Y87489D01*
X45524Y87375D01*
X45500Y87318D01*
D01*
D01*
D01*
X45500D01*
X45476Y87375D01*
X45389Y87489D01*
X45275Y87576D01*
X45142Y87631D01*
X45000Y87650D01*
X44858Y87631D01*
X44725Y87576D01*
X44611Y87489D01*
X44524Y87375D01*
X44469Y87242D01*
X44450Y87100D01*
X44469Y86958D01*
X44524Y86825D01*
X44611Y86711D01*
X44725Y86624D01*
X44858Y86569D01*
X45000Y86550D01*
X45142Y86569D01*
X45275Y86624D01*
X45389Y86711D01*
X45476Y86825D01*
X45500Y86882D01*
Y86882D01*
X45524Y86825D01*
X45611Y86711D01*
X45725Y86624D01*
X45858Y86569D01*
X46000Y86550D01*
X46142Y86569D01*
X46275Y86624D01*
X46389Y86711D01*
X46476Y86825D01*
X46531Y86958D01*
X46550Y87100D01*
X46531Y87242D01*
X46476Y87375D01*
X46389Y87489D01*
X46275Y87576D01*
X46142Y87631D01*
X46000Y87650D01*
D02*
G37*
G36*
X49240Y86053D02*
X49240Y86053D01*
X44970D01*
X44866Y86040D01*
X44768Y85999D01*
X44685Y85935D01*
X44685Y85935D01*
X43415Y84666D01*
X43351Y84583D01*
X43311Y84485D01*
X43297Y84381D01*
X43297Y84381D01*
Y80808D01*
X42245Y79755D01*
X42181Y79672D01*
X42140Y79574D01*
X42127Y79470D01*
X42127Y79470D01*
Y75547D01*
X41804Y75225D01*
X41692D01*
X41664Y75229D01*
X34574D01*
X34444Y75211D01*
X34322Y75161D01*
X34218Y75081D01*
X33243Y74107D01*
X33163Y74002D01*
X33113Y73881D01*
X33096Y73750D01*
Y70464D01*
X32700D01*
Y70145D01*
X31542D01*
X31542Y70145D01*
X31437Y70131D01*
X31340Y70091D01*
X31256Y70027D01*
X31256Y70027D01*
X30815Y69585D01*
X30751Y69502D01*
X30710Y69404D01*
X30697Y69300D01*
X30697Y69300D01*
Y68970D01*
X30584D01*
Y68183D01*
X29584D01*
Y68110D01*
X29425D01*
X29161Y68379D01*
Y74094D01*
X29337Y74270D01*
X29393Y74352D01*
X29412Y74450D01*
Y75950D01*
X29393Y76048D01*
X29337Y76130D01*
X29087Y76380D01*
X29005Y76435D01*
X28907Y76455D01*
X28407D01*
X28310Y76435D01*
X28227Y76380D01*
X27977Y76130D01*
X27922Y76048D01*
X27902Y75950D01*
Y74450D01*
X27922Y74352D01*
X27977Y74270D01*
X28153Y74094D01*
Y55784D01*
X28152Y55781D01*
X28152Y55781D01*
X28152Y55780D01*
Y54357D01*
X28153Y54354D01*
Y53634D01*
X28152Y53631D01*
X28152Y53631D01*
X28152Y53630D01*
Y52207D01*
X28153Y52204D01*
Y41422D01*
X28153Y41422D01*
X28153D01*
X28170Y41291D01*
X28220Y41170D01*
X28300Y41065D01*
X31222Y38143D01*
X31327Y38063D01*
X31448Y38013D01*
X31579Y37996D01*
X34691D01*
X35353Y37334D01*
Y36769D01*
X34263D01*
X34132Y36752D01*
X34010Y36702D01*
X33906Y36622D01*
X33743Y36459D01*
X33743D01*
D01*
Y36709D01*
X32771D01*
Y36048D01*
X32707D01*
X32622Y36037D01*
X32566Y36014D01*
X32543Y36004D01*
X32514Y35982D01*
X32475Y35952D01*
X31836Y35313D01*
X31684D01*
Y35413D01*
X30830D01*
Y34558D01*
X31684D01*
Y34658D01*
X31972D01*
X32014Y34663D01*
X32057Y34669D01*
X32096Y34685D01*
X32136Y34702D01*
X32204Y34754D01*
X32753Y35303D01*
D01*
Y35120D01*
X32770Y34990D01*
X32771Y34988D01*
Y34832D01*
X32849D01*
X32900Y34764D01*
X33300Y34364D01*
X33405Y34284D01*
X33491Y34248D01*
X33527Y34233D01*
X33657Y34216D01*
X33803D01*
Y31583D01*
X33674D01*
Y31198D01*
X32808D01*
Y31198D01*
X32811Y31220D01*
X32794Y31351D01*
X32744Y31473D01*
X32664Y31577D01*
X32559Y31657D01*
X32438Y31708D01*
X32307Y31725D01*
X32177Y31708D01*
X32055Y31657D01*
X31950Y31577D01*
X31870Y31473D01*
X31820Y31351D01*
X31803Y31220D01*
X31820Y31090D01*
X31870Y30968D01*
X31950Y30864D01*
X31979Y30842D01*
Y30421D01*
X31979Y30420D01*
Y30403D01*
X31890D01*
Y29683D01*
X31774D01*
Y29802D01*
X30880D01*
Y28909D01*
X31774D01*
Y29028D01*
X31890D01*
Y28938D01*
X32724D01*
Y29568D01*
Y30374D01*
X32893Y30543D01*
X33674D01*
Y30158D01*
X33861D01*
X33870Y30090D01*
X33920Y29968D01*
X34000Y29864D01*
X34450Y29414D01*
X34555Y29334D01*
X34677Y29283D01*
X34807Y29266D01*
X37798D01*
X38252Y28812D01*
Y28258D01*
X39362D01*
Y29351D01*
X40642D01*
X40773Y29368D01*
X40792Y29376D01*
X40792D01*
X40744Y29262D01*
X40727Y29132D01*
Y28489D01*
X40744Y28359D01*
X40795Y28237D01*
X40814Y28212D01*
Y27905D01*
X41649D01*
Y28212D01*
X41668Y28237D01*
X41719Y28359D01*
X41736Y28489D01*
Y28923D01*
X41865Y29052D01*
D01*
Y28667D01*
X41846Y28642D01*
X41796Y28520D01*
X41778Y28389D01*
Y27817D01*
X41796Y27687D01*
X41846Y27565D01*
X41926Y27461D01*
X42543Y26843D01*
X42543D01*
X42543D01*
D01*
X42543Y26843D01*
D01*
X42648Y26763D01*
X42769Y26713D01*
X42900Y26696D01*
X45500D01*
X45631Y26713D01*
X45752Y26763D01*
X45857Y26843D01*
X49939Y30926D01*
X49994Y30903D01*
X50170Y30861D01*
X50350Y30846D01*
X50530Y30861D01*
X50706Y30903D01*
X50874Y30972D01*
X51028Y31067D01*
X51166Y31184D01*
X51283Y31322D01*
X51378Y31476D01*
X51447Y31644D01*
X51489Y31820D01*
X51504Y32000D01*
X51489Y32180D01*
X51447Y32356D01*
X51378Y32524D01*
X51283Y32678D01*
X51166Y32816D01*
X51104Y32869D01*
Y34689D01*
X51089Y34836D01*
X51046Y34978D01*
X50977Y35108D01*
X50883Y35222D01*
X49966Y36139D01*
Y38664D01*
X54033Y42731D01*
X54127Y42845D01*
X54196Y42975D01*
X54239Y43117D01*
X54254Y43264D01*
X54254D01*
X54254D01*
X54254D01*
X54254Y43264D01*
Y70000D01*
X54239Y70147D01*
X54196Y70288D01*
X54127Y70419D01*
X54033Y70533D01*
X51533Y73033D01*
X51419Y73127D01*
X51288Y73196D01*
X51147Y73239D01*
X51006Y73253D01*
D01*
X51090Y73322D01*
X51201Y73458D01*
X51283Y73612D01*
X51334Y73780D01*
X51352Y73954D01*
X51334Y74129D01*
X51283Y74296D01*
X51201Y74451D01*
X51090Y74587D01*
X50954Y74698D01*
X50800Y74780D01*
X50632Y74831D01*
X50457Y74848D01*
X50283Y74831D01*
X50115Y74780D01*
X49961Y74698D01*
X49825Y74587D01*
X49714Y74451D01*
X49631Y74296D01*
X49581Y74129D01*
X49563Y73954D01*
X49581Y73780D01*
X49631Y73612D01*
X49714Y73458D01*
X49825Y73322D01*
X49961Y73211D01*
X50115Y73128D01*
X50283Y73077D01*
X50457Y73060D01*
X50506Y73065D01*
Y73065D01*
X50506D01*
X50467Y73033D01*
X50444Y73004D01*
X48621D01*
X48461Y73164D01*
X48434Y73229D01*
X48346Y73343D01*
X48232Y73431D01*
X48167Y73458D01*
X47814Y73811D01*
X47710Y73891D01*
X47588Y73941D01*
X47457Y73959D01*
X47165D01*
X47100Y73986D01*
X46957Y74004D01*
X46815Y73986D01*
X46750Y73959D01*
X45791D01*
X45660Y73941D01*
X45539Y73891D01*
X45434Y73811D01*
X44400Y72777D01*
X44320Y72673D01*
X44270Y72551D01*
X44253Y72420D01*
Y67021D01*
X44253Y67021D01*
X44253D01*
X44270Y66890D01*
X44320Y66769D01*
X44400Y66664D01*
X46429Y64636D01*
X46456Y64570D01*
X46543Y64457D01*
X46657Y64369D01*
X46714Y64345D01*
Y64345D01*
D01*
D01*
D01*
X46657Y64322D01*
X46543Y64234D01*
X46535Y64224D01*
X46057D01*
X46057Y64224D01*
X45975Y64213D01*
X45263Y64925D01*
X45181Y64980D01*
X45083Y64999D01*
X42377D01*
X42371Y65004D01*
X42331Y65021D01*
X42292Y65037D01*
X42250Y65043D01*
X42207Y65048D01*
X38257D01*
X38215Y65043D01*
X38172Y65037D01*
X38133Y65021D01*
X38093Y65004D01*
X38055Y64975D01*
X38025Y64952D01*
X37071Y63998D01*
X34807D01*
X34765Y63993D01*
X34722Y63987D01*
X34683Y63971D01*
X34643Y63954D01*
X34609Y63928D01*
X34575Y63902D01*
X33625Y62952D01*
X33573Y62884D01*
X33557Y62845D01*
X33540Y62805D01*
X33535Y62763D01*
X33529Y62720D01*
Y62657D01*
X33529Y62657D01*
X33453Y62689D01*
X33357Y62702D01*
X33261Y62689D01*
X33171Y62652D01*
X33095Y62593D01*
X33036Y62516D01*
X32998Y62426D01*
X32987Y62343D01*
X32857D01*
X32772Y62332D01*
X32693Y62299D01*
X32655Y62270D01*
X32634Y62254D01*
X32634Y62254D01*
D01*
D01*
Y62283D01*
X31780D01*
Y62183D01*
X31758D01*
X30789Y63152D01*
X30721Y63204D01*
X30681Y63221D01*
X30642Y63237D01*
X30600Y63243D01*
X30557Y63248D01*
X29493D01*
X29161Y63586D01*
Y67011D01*
X29453Y67303D01*
X29584D01*
Y67230D01*
X29697D01*
Y66300D01*
X29697Y66300D01*
X29710Y66196D01*
X29751Y66098D01*
X29815Y66015D01*
X30315Y65515D01*
X30315Y65515D01*
X30398Y65451D01*
X30496Y65410D01*
X30600Y65397D01*
X30600Y65397D01*
X34000D01*
X34000Y65397D01*
X34104Y65410D01*
X34202Y65451D01*
X34285Y65515D01*
X34791Y66020D01*
X34855Y66104D01*
X34895Y66201D01*
X34909Y66306D01*
X34909Y66306D01*
Y66736D01*
X34952D01*
Y67072D01*
X36600D01*
X36642Y67078D01*
X36685Y67083D01*
X36724Y67100D01*
X36764Y67116D01*
X36832Y67168D01*
X36832Y67168D01*
X36832Y67168D01*
X37036Y67372D01*
X40314D01*
X40327Y67359D01*
X40327D01*
X40300Y67363D01*
X40204Y67350D01*
X40114Y67313D01*
X40050Y67263D01*
X39986Y67313D01*
X39896Y67350D01*
X39800Y67363D01*
X39704Y67350D01*
X39614Y67313D01*
X39550Y67263D01*
X39486Y67313D01*
X39396Y67350D01*
X39300Y67363D01*
X39204Y67350D01*
X39114Y67313D01*
X39050Y67263D01*
X38986Y67313D01*
X38896Y67350D01*
X38800Y67363D01*
X38704Y67350D01*
X38614Y67313D01*
X38550Y67263D01*
X38486Y67313D01*
X38396Y67350D01*
X38300Y67363D01*
X38204Y67350D01*
X38114Y67313D01*
X38050Y67263D01*
X37986Y67313D01*
X37896Y67350D01*
X37800Y67363D01*
X37704Y67350D01*
X37614Y67313D01*
X37537Y67254D01*
X37478Y67177D01*
X37441Y67087D01*
X37429Y66991D01*
Y66361D01*
X37441Y66265D01*
X37478Y66176D01*
X37537Y66099D01*
X37614Y66040D01*
X37704Y66003D01*
X37800Y65990D01*
X37896Y66003D01*
X37986Y66040D01*
X38050Y66089D01*
X38114Y66040D01*
X38204Y66003D01*
X38300Y65990D01*
X38396Y66003D01*
X38486Y66040D01*
X38550Y66089D01*
X38614Y66040D01*
X38704Y66003D01*
X38800Y65990D01*
X38896Y66003D01*
X38986Y66040D01*
X39050Y66089D01*
X39114Y66040D01*
X39204Y66003D01*
X39300Y65990D01*
X39396Y66003D01*
X39486Y66040D01*
X39550Y66089D01*
X39614Y66040D01*
X39704Y66003D01*
X39800Y65990D01*
X39896Y66003D01*
X39986Y66040D01*
X40050Y66089D01*
X40114Y66040D01*
X40204Y66003D01*
X40300Y65990D01*
X40396Y66003D01*
X40486Y66040D01*
X40550Y66089D01*
X40614Y66040D01*
X40704Y66003D01*
X40800Y65990D01*
X40896Y66003D01*
X40986Y66040D01*
X41063Y66099D01*
X41122Y66176D01*
X41159Y66265D01*
X41170Y66349D01*
X41426D01*
X41469Y66354D01*
X41511Y66360D01*
X41551Y66376D01*
X41590Y66392D01*
X41658Y66445D01*
X41882Y66668D01*
X41904Y66698D01*
X41934Y66736D01*
X41957Y66792D01*
X41967Y66815D01*
X41968Y66825D01*
X41978Y66900D01*
Y66958D01*
X42077D01*
Y67812D01*
X41223D01*
Y67004D01*
X41170D01*
X41159Y67087D01*
X41128Y67162D01*
Y67350D01*
X41117Y67435D01*
X41084Y67514D01*
X41032Y67582D01*
X40724Y67890D01*
D01*
X40724D01*
X40724Y67890D01*
X40800Y67880D01*
X40896Y67893D01*
X40986Y67930D01*
X41063Y67989D01*
X41122Y68066D01*
X41159Y68155D01*
X41171Y68251D01*
Y68881D01*
X41159Y68977D01*
X41128Y69052D01*
Y69257D01*
X41793Y69922D01*
X42657D01*
X42700Y69928D01*
X42742Y69933D01*
X42782Y69950D01*
X42821Y69966D01*
X42889Y70018D01*
X42889Y70018D01*
X42889Y70018D01*
X43264Y70393D01*
X43300Y70388D01*
X43431Y70405D01*
X43552Y70456D01*
X43657Y70536D01*
X43737Y70640D01*
X43787Y70762D01*
X43804Y70893D01*
X43787Y71023D01*
X43737Y71145D01*
X43657Y71249D01*
X43628Y71271D01*
Y71369D01*
X43717D01*
Y71999D01*
Y72834D01*
X42883D01*
Y72636D01*
X42747Y72500D01*
X42747Y72500D01*
D01*
Y72903D01*
X42628D01*
Y73481D01*
X42657Y73503D01*
X42737Y73608D01*
X42787Y73729D01*
X42804Y73860D01*
X42787Y73991D01*
X42737Y74112D01*
X42657Y74217D01*
X42552Y74297D01*
X42431Y74347D01*
X42300Y74364D01*
X42169Y74347D01*
X42048Y74297D01*
X41943Y74217D01*
X41863Y74112D01*
X41813Y73991D01*
X41796Y73860D01*
X41813Y73729D01*
X41863Y73608D01*
X41943Y73503D01*
X41972Y73481D01*
Y72903D01*
X41853D01*
Y72009D01*
Y71340D01*
X42747D01*
Y71573D01*
X42883Y71709D01*
D01*
Y71369D01*
X42972D01*
Y71271D01*
X42943Y71249D01*
X42863Y71145D01*
X42813Y71023D01*
X42796Y70893D01*
X42800Y70857D01*
X42522Y70578D01*
X41689D01*
D01*
X41737Y70640D01*
X41787Y70762D01*
X41804Y70893D01*
X41787Y71023D01*
X41737Y71145D01*
X41657Y71249D01*
X41628Y71271D01*
Y71340D01*
X41747D01*
Y72009D01*
Y72903D01*
X41628D01*
Y73913D01*
X42284Y74557D01*
X42285Y74557D01*
X42285Y74557D01*
X42301Y74580D01*
X42815Y75095D01*
X42815Y75095D01*
X42879Y75178D01*
X42920Y75276D01*
X42920D01*
X42920D01*
X42920D01*
X42920Y75276D01*
X42933Y75380D01*
X42933Y75380D01*
Y79303D01*
X43986Y80356D01*
X44050Y80439D01*
X44090Y80536D01*
X44104Y80641D01*
X44104Y80641D01*
Y84214D01*
X45137Y85247D01*
X49073D01*
X49597Y84723D01*
Y84370D01*
X49524Y84275D01*
X49500Y84218D01*
D01*
D01*
D01*
X49500D01*
X49476Y84275D01*
X49389Y84389D01*
X49275Y84476D01*
X49142Y84531D01*
X49000Y84550D01*
X48858Y84531D01*
X48725Y84476D01*
X48611Y84389D01*
X48524Y84275D01*
X48500Y84218D01*
D01*
D01*
D01*
X48500D01*
X48476Y84275D01*
X48389Y84389D01*
X48275Y84476D01*
X48142Y84531D01*
X48000Y84550D01*
X47858Y84531D01*
X47725Y84476D01*
X47611Y84389D01*
X47524Y84275D01*
X47469Y84142D01*
X47450Y84000D01*
X47469Y83858D01*
X47524Y83725D01*
X47611Y83611D01*
X47725Y83524D01*
X47782Y83500D01*
Y83500D01*
D01*
D01*
D01*
X47725Y83476D01*
X47611Y83389D01*
X47524Y83275D01*
X47500Y83218D01*
D01*
D01*
D01*
X47500D01*
X47476Y83275D01*
X47389Y83389D01*
X47275Y83476D01*
X47142Y83531D01*
X47000Y83550D01*
X46858Y83531D01*
X46725Y83476D01*
X46611Y83389D01*
X46524Y83275D01*
X46500Y83218D01*
D01*
D01*
D01*
X46500D01*
X46476Y83275D01*
X46389Y83389D01*
X46275Y83476D01*
X46218Y83500D01*
X46218D01*
X46275Y83524D01*
X46389Y83611D01*
X46476Y83725D01*
X46531Y83858D01*
X46550Y84000D01*
X46531Y84142D01*
X46476Y84275D01*
X46389Y84389D01*
X46275Y84476D01*
X46142Y84531D01*
X46000Y84550D01*
X45858Y84531D01*
X45725Y84476D01*
X45611Y84389D01*
X45524Y84275D01*
X45500Y84218D01*
D01*
D01*
D01*
X45500D01*
X45476Y84275D01*
X45389Y84389D01*
X45275Y84476D01*
X45142Y84531D01*
X45000Y84550D01*
X44858Y84531D01*
X44725Y84476D01*
X44611Y84389D01*
X44524Y84275D01*
X44469Y84142D01*
X44450Y84000D01*
X44469Y83858D01*
X44524Y83725D01*
X44611Y83611D01*
X44725Y83524D01*
X44782Y83500D01*
Y83500D01*
D01*
D01*
D01*
X44725Y83476D01*
X44611Y83389D01*
X44524Y83275D01*
X44469Y83142D01*
X44450Y83000D01*
X44469Y82858D01*
X44524Y82725D01*
X44611Y82611D01*
X44672Y82564D01*
Y78636D01*
X44611Y78589D01*
X44524Y78475D01*
X44469Y78342D01*
X44450Y78200D01*
X44469Y78058D01*
X44524Y77925D01*
X44611Y77811D01*
X44725Y77724D01*
X44858Y77669D01*
X45000Y77650D01*
X45142Y77669D01*
X45275Y77724D01*
X45389Y77811D01*
X45476Y77925D01*
X45500Y77982D01*
Y77982D01*
X45524Y77925D01*
X45611Y77811D01*
X45725Y77724D01*
X45858Y77669D01*
X46000Y77650D01*
X46142Y77669D01*
X46275Y77724D01*
X46389Y77811D01*
X46476Y77925D01*
X46500Y77982D01*
Y77982D01*
X46524Y77925D01*
X46611Y77811D01*
X46725Y77724D01*
X46858Y77669D01*
X47000Y77650D01*
X47142Y77669D01*
X47275Y77724D01*
X47389Y77811D01*
X47476Y77925D01*
X47500Y77982D01*
Y77982D01*
X47524Y77925D01*
X47611Y77811D01*
X47725Y77724D01*
X47858Y77669D01*
X48000Y77650D01*
X48142Y77669D01*
X48275Y77724D01*
X48389Y77811D01*
X48476Y77925D01*
X48500Y77982D01*
Y77982D01*
X48524Y77925D01*
X48611Y77811D01*
X48725Y77724D01*
X48858Y77669D01*
X49000Y77650D01*
X49142Y77669D01*
X49275Y77724D01*
X49389Y77811D01*
X49476Y77925D01*
X49531Y78058D01*
X49550Y78200D01*
X49531Y78342D01*
X49476Y78475D01*
X49389Y78589D01*
X49275Y78676D01*
X49142Y78731D01*
X49000Y78750D01*
X48858Y78731D01*
X48725Y78676D01*
X48611Y78589D01*
X48524Y78475D01*
X48500Y78418D01*
D01*
D01*
D01*
X48500D01*
X48476Y78475D01*
X48389Y78589D01*
X48275Y78676D01*
X48142Y78731D01*
X48000Y78750D01*
X47858Y78731D01*
X47725Y78676D01*
X47611Y78589D01*
X47524Y78475D01*
X47500Y78418D01*
D01*
D01*
D01*
X47500D01*
X47476Y78475D01*
X47389Y78589D01*
X47328Y78636D01*
Y82564D01*
X47389Y82611D01*
X47476Y82725D01*
X47500Y82782D01*
Y82782D01*
X47524Y82725D01*
X47611Y82611D01*
X47725Y82524D01*
X47858Y82469D01*
X48000Y82450D01*
X48142Y82469D01*
X48275Y82524D01*
X48389Y82611D01*
X48476Y82725D01*
X48500Y82782D01*
Y82782D01*
X48524Y82725D01*
X48611Y82611D01*
X48725Y82524D01*
X48858Y82469D01*
X49000Y82450D01*
X49142Y82469D01*
X49275Y82524D01*
X49389Y82611D01*
X49476Y82725D01*
X49531Y82858D01*
X49550Y83000D01*
X49531Y83142D01*
X49476Y83275D01*
X49389Y83389D01*
X49275Y83476D01*
X49218Y83500D01*
X49218D01*
X49275Y83524D01*
X49389Y83611D01*
X49476Y83725D01*
X49500Y83782D01*
Y83782D01*
X49524Y83725D01*
X49611Y83611D01*
X49725Y83524D01*
X49858Y83469D01*
X50000Y83450D01*
X50142Y83469D01*
X50275Y83524D01*
X50389Y83611D01*
X50476Y83725D01*
X50500Y83782D01*
Y83782D01*
X50524Y83725D01*
X50611Y83611D01*
X50725Y83524D01*
X50782Y83500D01*
Y83500D01*
D01*
D01*
D01*
X50725Y83476D01*
X50611Y83389D01*
X50524Y83275D01*
X50469Y83142D01*
X50450Y83000D01*
X50469Y82858D01*
X50524Y82725D01*
X50611Y82611D01*
X50725Y82524D01*
X50858Y82469D01*
X51000Y82450D01*
X51142Y82469D01*
X51275Y82524D01*
X51389Y82611D01*
X51476Y82725D01*
X51500Y82782D01*
Y82782D01*
X51524Y82725D01*
X51611Y82611D01*
X51725Y82524D01*
X51858Y82469D01*
X52000Y82450D01*
X52142Y82469D01*
X52275Y82524D01*
X52389Y82611D01*
X52476Y82725D01*
X52531Y82858D01*
X52550Y83000D01*
X52531Y83142D01*
X52476Y83275D01*
X52389Y83389D01*
X52303Y83455D01*
D01*
Y83455D01*
X52545D01*
Y84545D01*
X51455D01*
Y84303D01*
D01*
Y84303D01*
X51455Y84303D01*
X51389Y84389D01*
X51275Y84476D01*
X51142Y84531D01*
X51000Y84550D01*
X50858Y84531D01*
X50725Y84476D01*
X50611Y84389D01*
X50524Y84275D01*
X50500Y84218D01*
D01*
D01*
D01*
X50500D01*
X50476Y84275D01*
X50403Y84370D01*
Y84890D01*
X50390Y84994D01*
X50349Y85092D01*
X50285Y85175D01*
X50285Y85175D01*
X49525Y85935D01*
X49442Y85999D01*
X49344Y86040D01*
X49240Y86053D01*
D02*
G37*
G36*
X52000Y87650D02*
X51858Y87631D01*
X51725Y87576D01*
X51611Y87489D01*
X51524Y87375D01*
X51500Y87318D01*
D01*
D01*
D01*
X51500D01*
X51476Y87375D01*
X51389Y87489D01*
X51275Y87576D01*
X51142Y87631D01*
X51000Y87650D01*
X50858Y87631D01*
X50725Y87576D01*
X50611Y87489D01*
X50524Y87375D01*
X50500Y87318D01*
D01*
D01*
D01*
X50500D01*
X50476Y87375D01*
X50389Y87489D01*
X50275Y87576D01*
X50142Y87631D01*
X50000Y87650D01*
X49858Y87631D01*
X49725Y87576D01*
X49611Y87489D01*
X49524Y87375D01*
X49500Y87318D01*
D01*
D01*
D01*
X49500D01*
X49476Y87375D01*
X49389Y87489D01*
X49275Y87576D01*
X49142Y87631D01*
X49000Y87650D01*
X48858Y87631D01*
X48725Y87576D01*
X48611Y87489D01*
X48524Y87375D01*
X48500Y87318D01*
D01*
D01*
D01*
X48500D01*
X48476Y87375D01*
X48389Y87489D01*
X48275Y87576D01*
X48142Y87631D01*
X48000Y87650D01*
X47858Y87631D01*
X47725Y87576D01*
X47611Y87489D01*
X47524Y87375D01*
X47469Y87242D01*
X47450Y87100D01*
X47469Y86958D01*
X47524Y86825D01*
X47611Y86711D01*
X47725Y86624D01*
X47858Y86569D01*
X48000Y86550D01*
X48142Y86569D01*
X48275Y86624D01*
X48389Y86711D01*
X48476Y86825D01*
X48500Y86882D01*
Y86882D01*
X48524Y86825D01*
X48611Y86711D01*
X48725Y86624D01*
X48858Y86569D01*
X49000Y86550D01*
X49142Y86569D01*
X49275Y86624D01*
X49389Y86711D01*
X49476Y86825D01*
X49500Y86882D01*
Y86882D01*
X49524Y86825D01*
X49611Y86711D01*
X49725Y86624D01*
X49858Y86569D01*
X50000Y86550D01*
X50142Y86569D01*
X50275Y86624D01*
X50389Y86711D01*
X50476Y86825D01*
X50500Y86882D01*
Y86882D01*
X50524Y86825D01*
X50611Y86711D01*
X50725Y86624D01*
X50858Y86569D01*
X51000Y86550D01*
X51142Y86569D01*
X51275Y86624D01*
X51389Y86711D01*
X51476Y86825D01*
X51500Y86882D01*
X51524Y86825D01*
X51611Y86711D01*
X51725Y86624D01*
X51858Y86569D01*
X52000Y86550D01*
X52142Y86569D01*
X52275Y86624D01*
X52389Y86711D01*
X52476Y86825D01*
X52531Y86958D01*
X52550Y87100D01*
X52531Y87242D01*
X52476Y87375D01*
X52389Y87489D01*
X52275Y87576D01*
X52142Y87631D01*
X52000Y87650D01*
D02*
G37*
%LPD*%
G36*
X37997Y61789D02*
X38035Y61759D01*
X38065Y61737D01*
X38088Y61727D01*
X38144Y61704D01*
X38229Y61693D01*
X42307D01*
X42350Y61698D01*
X42392Y61704D01*
X42431Y61720D01*
X42471Y61737D01*
X42509Y61766D01*
X45107D01*
X45205Y61785D01*
X45287Y61840D01*
X45900Y62453D01*
X45944Y62435D01*
X45953Y62431D01*
X46057Y62417D01*
X46057Y62417D01*
X46595D01*
X46657Y62369D01*
X46714Y62345D01*
Y62345D01*
D01*
D01*
D01*
X46657Y62322D01*
X46543Y62234D01*
X46456Y62120D01*
X46401Y61988D01*
X46382Y61845D01*
X46401Y61703D01*
X46428Y61638D01*
Y59024D01*
X46399Y59001D01*
X46305Y58887D01*
X46236Y58756D01*
X46193Y58615D01*
X46178Y58468D01*
X46193Y58321D01*
X46236Y58180D01*
X46305Y58049D01*
X46399Y57935D01*
X49846Y54488D01*
Y44612D01*
X45067Y39833D01*
X44973Y39719D01*
X44904Y39588D01*
X44861Y39447D01*
X44846Y39300D01*
D01*
X44846Y39300D01*
X44846D01*
X44846Y39300D01*
X44846D01*
Y35896D01*
X44846Y35896D01*
X44846D01*
X44861Y35749D01*
X44904Y35608D01*
X44904Y35608D01*
X44904Y35608D01*
X44973Y35477D01*
X45067Y35363D01*
X45067Y35363D01*
X45067Y35363D01*
X45846Y34584D01*
Y32869D01*
X45784Y32816D01*
X45667Y32678D01*
X45572Y32524D01*
X45503Y32356D01*
X45461Y32180D01*
X45446Y32000D01*
X45461Y31820D01*
X45503Y31644D01*
X45511Y31624D01*
X44191Y30304D01*
X41900D01*
X41769Y30287D01*
X41694Y30256D01*
D01*
X41719Y30314D01*
X41736Y30445D01*
Y31586D01*
X42564Y32414D01*
X42644Y32518D01*
X42694Y32640D01*
X42711Y32770D01*
Y35370D01*
X42694Y35501D01*
X42679Y35537D01*
X42644Y35623D01*
X42564Y35727D01*
X42164Y36127D01*
X42059Y36207D01*
X41938Y36258D01*
X41807Y36275D01*
X41761D01*
Y37643D01*
X41744Y37773D01*
X41694Y37895D01*
X41614Y38000D01*
X40907Y38707D01*
X40802Y38787D01*
X40681Y38837D01*
X40550Y38854D01*
X38450D01*
X38450Y38854D01*
X38450Y38854D01*
X38384Y38846D01*
X38320Y38837D01*
X38320Y38837D01*
X38319Y38837D01*
X38259Y38812D01*
X38198Y38787D01*
X38198Y38787D01*
X38198Y38787D01*
X38147Y38747D01*
X38094Y38707D01*
X38094Y38707D01*
X38093Y38706D01*
X37302Y37914D01*
X37302Y37914D01*
X37221Y37810D01*
X37186Y37724D01*
X37171Y37688D01*
X37154Y37557D01*
X37154Y36265D01*
X37163Y36202D01*
Y35415D01*
X38155D01*
Y36202D01*
X38163Y36265D01*
X38163Y37349D01*
X38659Y37846D01*
X40341D01*
X40753Y37434D01*
Y36098D01*
X40753Y36098D01*
X40607Y36098D01*
X40565Y36093D01*
X40522Y36087D01*
X40443Y36054D01*
X40375Y36002D01*
X39686Y35313D01*
X39684D01*
Y35413D01*
X38830D01*
Y34558D01*
X39684D01*
Y34658D01*
X39684D01*
X39684D01*
X39684D01*
D01*
D01*
Y34658D01*
X39822Y34658D01*
X39867Y34664D01*
X39907Y34669D01*
X39953Y34688D01*
X39986Y34702D01*
X40015Y34724D01*
X40054Y34754D01*
X40743Y35443D01*
X40771D01*
Y34831D01*
X41703D01*
Y32979D01*
X40875Y32151D01*
X40795Y32047D01*
X40744Y31925D01*
X40727Y31795D01*
Y30654D01*
X40433Y30360D01*
X39362D01*
Y31238D01*
X39361D01*
Y31470D01*
X39344Y31601D01*
X39329Y31637D01*
X39294Y31723D01*
X39214Y31827D01*
X38814Y32227D01*
X38709Y32307D01*
X38588Y32358D01*
X38457Y32375D01*
X37207D01*
X37077Y32358D01*
X37041Y32343D01*
X36955Y32307D01*
X36850Y32227D01*
X36500Y31877D01*
X36420Y31773D01*
X36370Y31651D01*
X36355Y31535D01*
X36174D01*
Y30275D01*
X35040D01*
Y31583D01*
X34811D01*
Y34520D01*
X34794Y34651D01*
X34744Y34773D01*
X34664Y34877D01*
X34464Y35077D01*
X34359Y35157D01*
X34238Y35208D01*
X34107Y35225D01*
X33866D01*
X33818Y35273D01*
D01*
D01*
Y35273D01*
X33899Y35283D01*
X34020Y35334D01*
X34125Y35414D01*
X34471Y35761D01*
X35359D01*
Y35415D01*
X36352D01*
Y36202D01*
X36360Y36265D01*
X36354Y36312D01*
X36361Y36370D01*
Y37543D01*
X36361D01*
D01*
D01*
X36361Y37543D01*
X36361D01*
X36361Y37543D01*
D01*
X36344Y37673D01*
X36329Y37709D01*
X36294Y37795D01*
X36214Y37900D01*
X35257Y38857D01*
X35152Y38937D01*
X35031Y38987D01*
X34900Y39004D01*
X31788D01*
X29161Y41631D01*
Y52274D01*
X29480Y52593D01*
X30871D01*
X33354Y50110D01*
X33384Y50087D01*
X33422Y50058D01*
X33478Y50035D01*
X33501Y50025D01*
X33511Y50024D01*
X33586Y50014D01*
X34149D01*
Y49915D01*
X35004D01*
Y50028D01*
X35463D01*
D01*
X35463Y50028D01*
X35402Y49981D01*
X35345Y49907D01*
X35308Y49820D01*
X35296Y49726D01*
X35308Y49632D01*
X35335Y49569D01*
X35308Y49505D01*
X35296Y49411D01*
X35308Y49317D01*
X35335Y49254D01*
X35308Y49190D01*
X35296Y49096D01*
X35308Y49003D01*
X35335Y48939D01*
X35308Y48875D01*
X35296Y48781D01*
X35308Y48688D01*
X35335Y48624D01*
X35308Y48560D01*
X35296Y48466D01*
X35308Y48373D01*
X35345Y48285D01*
X35402Y48211D01*
X35477Y48153D01*
X35564Y48117D01*
X35657Y48105D01*
X36130D01*
X36190Y48113D01*
X36190D01*
X36182Y48053D01*
Y47580D01*
X36194Y47487D01*
X36230Y47400D01*
X36288Y47325D01*
X36363Y47267D01*
X36450Y47231D01*
X36543Y47219D01*
X36637Y47231D01*
X36701Y47258D01*
X36765Y47231D01*
X36858Y47219D01*
X36952Y47231D01*
X37016Y47258D01*
X37080Y47231D01*
X37173Y47219D01*
X37267Y47231D01*
X37331Y47258D01*
X37395Y47231D01*
X37475Y47221D01*
Y46913D01*
X37376D01*
Y46058D01*
X38230D01*
Y46134D01*
X38230D01*
D01*
D01*
X38379Y45985D01*
Y44152D01*
X38260D01*
Y43383D01*
X38234D01*
Y43483D01*
X37380D01*
Y42628D01*
X38234D01*
Y42728D01*
X38260D01*
Y42589D01*
X39154D01*
Y42728D01*
X39636D01*
X39879Y42485D01*
Y42461D01*
X39642D01*
Y40780D01*
X39879D01*
Y40770D01*
X39885Y40728D01*
X39890Y40686D01*
X39907Y40646D01*
X39923Y40607D01*
X39975Y40539D01*
X39975Y40539D01*
X39975Y40539D01*
X40375Y40139D01*
X40405Y40116D01*
X40443Y40087D01*
X40499Y40063D01*
X40522Y40054D01*
X40532Y40053D01*
X40607Y40043D01*
X41357D01*
X41400Y40048D01*
X41442Y40054D01*
X41481Y40070D01*
X41521Y40087D01*
X41589Y40139D01*
X41989Y40539D01*
X42011Y40568D01*
X42041Y40607D01*
X42064Y40662D01*
X42074Y40686D01*
X42075Y40696D01*
X42085Y40770D01*
Y41085D01*
X42593Y41593D01*
X44457D01*
X44500Y41598D01*
X44542Y41604D01*
X44581Y41620D01*
X44621Y41637D01*
X44689Y41689D01*
X45131Y42131D01*
X45207Y42120D01*
X45349Y42139D01*
X45482Y42194D01*
X45596Y42282D01*
X45683Y42395D01*
X45738Y42528D01*
X45757Y42670D01*
X45747Y42747D01*
X46193Y43193D01*
X46307D01*
X46350Y43198D01*
X46392Y43204D01*
X46431Y43220D01*
X46471Y43237D01*
X46539Y43289D01*
X46539Y43289D01*
X46539Y43289D01*
X47139Y43889D01*
X47161Y43918D01*
X47191Y43957D01*
X47207Y43996D01*
X47224Y44036D01*
X47229Y44078D01*
X47235Y44120D01*
Y44940D01*
X47229Y44983D01*
X47224Y45025D01*
X47207Y45065D01*
X47191Y45104D01*
X47165Y45138D01*
X47139Y45172D01*
X46779Y45532D01*
X46711Y45584D01*
X46671Y45601D01*
X46632Y45617D01*
X46590Y45623D01*
X46547Y45628D01*
X45713D01*
X43713Y47628D01*
Y47628D01*
X43713Y47628D01*
X43713Y47628D01*
X44880D01*
Y47528D01*
X45734D01*
Y48383D01*
X44880D01*
Y48283D01*
X43708D01*
X42033Y49958D01*
X41965Y50010D01*
X41926Y50026D01*
X41921Y50028D01*
X41921Y50028D01*
X42343D01*
X42385Y50034D01*
X42427Y50039D01*
X42467Y50056D01*
X42506Y50072D01*
X42574Y50124D01*
X42574Y50124D01*
X42574Y50124D01*
X42943Y50493D01*
X43063D01*
X43063D01*
Y49389D01*
X44351D01*
Y50493D01*
X45007D01*
X45050Y50498D01*
X45092Y50504D01*
X45131Y50520D01*
X45171Y50537D01*
X45239Y50589D01*
X45239Y50589D01*
X45239Y50589D01*
X45539Y50889D01*
X45539Y50889D01*
X45539Y50889D01*
X45591Y50957D01*
X45607Y50996D01*
X45621Y51028D01*
X45734D01*
Y51883D01*
X44880D01*
Y51157D01*
X44871Y51148D01*
X44351D01*
Y52252D01*
X43063D01*
Y51148D01*
X42807D01*
X42722Y51137D01*
X42643Y51104D01*
X42605Y51075D01*
X42575Y51052D01*
X42207Y50684D01*
X42034D01*
D01*
X42589Y51239D01*
X42611Y51268D01*
X42641Y51307D01*
X42657Y51346D01*
X42674Y51386D01*
X42679Y51428D01*
X42685Y51470D01*
Y53985D01*
X43063Y54363D01*
D01*
Y53326D01*
X44351D01*
Y54411D01*
X44853D01*
X44880Y54384D01*
Y53658D01*
X45734D01*
Y54513D01*
X45621D01*
X45607Y54545D01*
X45591Y54584D01*
X45539Y54652D01*
X45220Y54971D01*
X45152Y55023D01*
X45113Y55039D01*
X45073Y55056D01*
X45031Y55061D01*
X44989Y55067D01*
X44351D01*
Y56189D01*
X43063D01*
Y55067D01*
X42976D01*
X42933Y55061D01*
X42891Y55056D01*
X42851Y55039D01*
X42812Y55023D01*
X42744Y54971D01*
X42228Y54455D01*
X42228D01*
D01*
Y55978D01*
X42217Y56062D01*
X42184Y56141D01*
X42154Y56180D01*
X42132Y56209D01*
X41001Y57340D01*
X40933Y57392D01*
X40894Y57408D01*
X40854Y57425D01*
X40812Y57430D01*
X40770Y57436D01*
X40155D01*
X39022Y58569D01*
Y59183D01*
X39017Y59225D01*
X39011Y59268D01*
X38978Y59347D01*
X38926Y59415D01*
X37609Y60732D01*
X37541Y60784D01*
X37502Y60800D01*
X37462Y60817D01*
X37420Y60822D01*
X37378Y60828D01*
X36363D01*
X35839Y61352D01*
X35771Y61404D01*
X35731Y61421D01*
X35692Y61437D01*
X35650Y61443D01*
X35607Y61448D01*
X34628D01*
X34628D01*
X34679Y61515D01*
X34716Y61604D01*
X34728Y61700D01*
Y62330D01*
X34716Y62426D01*
X34704Y62454D01*
X34943Y62693D01*
X37093D01*
X37997Y61789D01*
D02*
G37*
G36*
X32890Y54547D02*
Y54101D01*
D01*
X32554Y54437D01*
X32554Y54437D01*
Y54652D01*
X31660D01*
Y53758D01*
Y53089D01*
X31783D01*
X31785Y53078D01*
X31790Y53036D01*
X31807Y52996D01*
X31823Y52957D01*
X31875Y52889D01*
X32175Y52589D01*
X32205Y52566D01*
X32243Y52537D01*
X32322Y52504D01*
X32407Y52493D01*
X33770D01*
X33813Y52498D01*
X33855Y52504D01*
X33895Y52520D01*
X33934Y52537D01*
X34002Y52589D01*
X34002Y52589D01*
X34002Y52589D01*
X34586Y53172D01*
X36064D01*
X36215Y53021D01*
Y52646D01*
X36194Y52595D01*
X36182Y52502D01*
Y52029D01*
X36190Y51969D01*
X36190Y51969D01*
X36130Y51977D01*
X35657D01*
X35564Y51965D01*
X35477Y51929D01*
X35402Y51871D01*
X35345Y51796D01*
X35308Y51709D01*
X35296Y51616D01*
X35308Y51522D01*
X35335Y51458D01*
X35308Y51394D01*
X35296Y51301D01*
X35308Y51207D01*
X35335Y51143D01*
X35308Y51079D01*
X35296Y50986D01*
X35308Y50892D01*
X35335Y50828D01*
X35308Y50764D01*
X35298Y50684D01*
X35004D01*
Y50769D01*
X34149D01*
Y50670D01*
X33722D01*
X31239Y53152D01*
X31171Y53204D01*
X31131Y53221D01*
X31092Y53237D01*
X31050Y53243D01*
X31007Y53248D01*
X29463D01*
X29161Y53555D01*
Y54424D01*
X29480Y54743D01*
X32694D01*
X32890Y54547D01*
D02*
G37*
G36*
X37315Y53339D02*
X37383Y53287D01*
X37462Y53254D01*
X37547Y53243D01*
X37691D01*
Y53143D01*
X37790D01*
Y52696D01*
D01*
Y52696D01*
X37790D01*
X37744Y52757D01*
X37669Y52815D01*
X37582Y52851D01*
X37488Y52863D01*
X37395Y52851D01*
X37331Y52824D01*
X37267Y52851D01*
X37173Y52863D01*
X37080Y52851D01*
X37016Y52824D01*
X36952Y52851D01*
X36871Y52861D01*
Y53157D01*
X36860Y53242D01*
X36837Y53297D01*
X36827Y53321D01*
X36805Y53350D01*
X36775Y53388D01*
X36432Y53732D01*
X36364Y53784D01*
X36324Y53800D01*
X36285Y53817D01*
X36242Y53822D01*
X36200Y53828D01*
X34450D01*
X34365Y53817D01*
X34309Y53793D01*
X34286Y53784D01*
X34257Y53761D01*
X34218Y53732D01*
X33724Y53238D01*
X33724Y53238D01*
Y53238D01*
Y53768D01*
Y53858D01*
X36796D01*
X37315Y53339D01*
D02*
G37*
G36*
X31390Y61624D02*
X31420Y61601D01*
X31458Y61572D01*
X31514Y61548D01*
X31537Y61539D01*
X31547Y61538D01*
X31622Y61528D01*
X31780D01*
Y61428D01*
X31879D01*
Y60288D01*
X31800Y60227D01*
X31720Y60123D01*
X31670Y60001D01*
X31653Y59870D01*
X31670Y59740D01*
X31720Y59618D01*
X31800Y59514D01*
X31829Y59492D01*
Y58783D01*
X31759D01*
Y57948D01*
Y57319D01*
X32594D01*
Y57408D01*
X32710D01*
Y57289D01*
X33604D01*
Y57958D01*
Y58852D01*
X33485D01*
Y59035D01*
X33589Y59139D01*
X33618Y59177D01*
X33641Y59207D01*
X33651Y59230D01*
X33674Y59286D01*
X33685Y59370D01*
X33685D01*
X33685D01*
X33685D01*
X33685Y59370D01*
Y59484D01*
X33685D01*
D01*
D01*
Y59484D01*
X33761Y59452D01*
X33857Y59439D01*
X33953Y59452D01*
X34029Y59484D01*
D01*
Y59456D01*
X33925Y59352D01*
X33873Y59284D01*
X33857Y59245D01*
X33840Y59205D01*
X33835Y59163D01*
X33829Y59120D01*
Y58852D01*
X33710D01*
Y57958D01*
X34422D01*
Y56878D01*
X34428Y56835D01*
X34433Y56793D01*
X34450Y56753D01*
X34466Y56714D01*
X34518Y56646D01*
X34518Y56646D01*
X34518Y56646D01*
X35756Y55408D01*
X35794Y55379D01*
X35824Y55356D01*
X35847Y55347D01*
X35903Y55323D01*
X35988Y55312D01*
X37924D01*
X38729Y54507D01*
Y52860D01*
X38654Y52851D01*
X38591Y52824D01*
X38527Y52851D01*
X38446Y52861D01*
Y53143D01*
X38545D01*
Y53998D01*
X37691D01*
Y53898D01*
X37683D01*
X37164Y54417D01*
X37096Y54469D01*
X37057Y54486D01*
X37017Y54502D01*
X36975Y54508D01*
X36932Y54513D01*
X33724D01*
Y54603D01*
X33634D01*
X33625Y54668D01*
X33624Y54678D01*
X33614Y54701D01*
X33591Y54757D01*
X33561Y54795D01*
X33539Y54825D01*
X33061Y55302D01*
X32993Y55354D01*
X32954Y55371D01*
X32914Y55387D01*
X32872Y55393D01*
X32830Y55398D01*
X29463D01*
X29161Y55705D01*
Y62244D01*
X29510Y62593D01*
X30421D01*
X31390Y61624D01*
D02*
G37*
G36*
X29427Y55070D02*
Y55050D01*
X28638Y54261D01*
X28407Y54357D01*
Y55780D01*
X28639Y55875D01*
X29427Y55070D01*
D02*
G37*
G36*
X35996Y60268D02*
D01*
X35996D01*
D01*
X35996Y60268D01*
D01*
X36064Y60216D01*
X36103Y60200D01*
X36143Y60183D01*
X36185Y60178D01*
X36228Y60172D01*
X36708D01*
D01*
D01*
X36708Y60172D01*
X36670Y60123D01*
X36620Y60001D01*
X36603Y59870D01*
X36620Y59740D01*
X36670Y59618D01*
X36750Y59514D01*
X36779Y59492D01*
Y58783D01*
X36670D01*
Y58064D01*
X36554D01*
Y58852D01*
X36424D01*
X36424Y58855D01*
X36414Y58878D01*
X36391Y58934D01*
X36362Y58973D01*
X36339Y59002D01*
X35989Y59352D01*
X35921Y59404D01*
X35881Y59421D01*
X35842Y59437D01*
X35800Y59443D01*
X35757Y59448D01*
X35343D01*
X35185Y59606D01*
Y59640D01*
X35216Y59715D01*
X35228Y59811D01*
Y60441D01*
X35216Y60537D01*
X35179Y60626D01*
X35120Y60703D01*
X35043Y60762D01*
X34969Y60793D01*
D01*
X35471D01*
X35996Y60268D01*
D02*
G37*
G36*
X34660Y59204D02*
X34975Y58889D01*
X35043Y58837D01*
X35122Y58804D01*
X35207Y58793D01*
X35621D01*
X35660Y58754D01*
Y58733D01*
X35542D01*
X35457Y58722D01*
X35378Y58689D01*
X35339Y58660D01*
X35310Y58637D01*
X35125Y58452D01*
X35073Y58384D01*
X35057Y58345D01*
X35040Y58305D01*
X35037Y58283D01*
D01*
D01*
X35037D01*
D01*
X35034Y58291D01*
X35004Y58330D01*
X34982Y58359D01*
X34704Y58637D01*
X34636Y58689D01*
X34604Y58702D01*
Y58852D01*
X34485D01*
Y58985D01*
X34589Y59089D01*
X34618Y59127D01*
X34641Y59157D01*
X34651Y59180D01*
X34660Y59204D01*
X34660D01*
D02*
G37*
G36*
X41172Y55292D02*
Y53891D01*
X41172Y53891D01*
X41100Y53964D01*
X41104Y54000D01*
X41087Y54131D01*
X41037Y54252D01*
X40957Y54357D01*
X40852Y54437D01*
X40731Y54487D01*
X40600Y54504D01*
X40469Y54487D01*
X40348Y54437D01*
X40243Y54357D01*
X40163Y54252D01*
X40113Y54131D01*
X40096Y54000D01*
X40113Y53869D01*
X40163Y53748D01*
X40243Y53643D01*
X40348Y53563D01*
X40469Y53513D01*
X40600Y53496D01*
X40636Y53500D01*
X40772Y53364D01*
Y52036D01*
X40693Y51956D01*
X40672Y51965D01*
X40579Y51977D01*
X40106D01*
X40046Y51969D01*
Y51969D01*
X40054Y52029D01*
Y52502D01*
X40042Y52595D01*
X40021Y52646D01*
Y54157D01*
X40564Y54700D01*
X40600Y54696D01*
X40731Y54713D01*
X40852Y54763D01*
X40957Y54843D01*
X41037Y54948D01*
X41087Y55069D01*
X41104Y55200D01*
X41087Y55331D01*
X41054Y55410D01*
D01*
D01*
X41172Y55292D01*
D02*
G37*
G36*
X40810Y55654D02*
Y55654D01*
X40731Y55687D01*
X40600Y55704D01*
X40469Y55687D01*
X40348Y55637D01*
X40243Y55557D01*
X40163Y55452D01*
X40113Y55331D01*
X40096Y55200D01*
X40100Y55164D01*
X39461Y54525D01*
X39409Y54457D01*
X39393Y54417D01*
X39385Y54399D01*
Y54399D01*
Y54399D01*
Y54643D01*
X39379Y54685D01*
X39374Y54728D01*
X39357Y54767D01*
X39341Y54807D01*
X39289Y54875D01*
X38321Y55843D01*
Y55843D01*
Y55843D01*
Y55843D01*
X40621D01*
X40810Y55654D01*
D02*
G37*
G36*
X42818Y43282D02*
X42904Y43216D01*
X42904Y43216D01*
X42904D01*
D01*
X42662D01*
Y42248D01*
X42457D01*
X42382Y42238D01*
X42372Y42237D01*
X42349Y42228D01*
X42293Y42204D01*
X42255Y42175D01*
X42225Y42152D01*
X41525Y41452D01*
X41473Y41384D01*
X41457Y41345D01*
X41440Y41305D01*
X41435Y41263D01*
X41429Y41220D01*
Y40906D01*
X41221Y40698D01*
X40743D01*
X40661Y40780D01*
D01*
X40661D01*
X40661Y40780D01*
X40772D01*
Y42461D01*
X40535D01*
Y42620D01*
X40525Y42693D01*
X40525D01*
D01*
D01*
D01*
D01*
Y42693D01*
X41397D01*
X41440Y42698D01*
X41482Y42704D01*
X41522Y42720D01*
X41561Y42737D01*
X41629Y42789D01*
X41629Y42789D01*
X41629Y42789D01*
X42218Y43377D01*
X42745D01*
X42818Y43282D01*
D02*
G37*
G36*
X45035Y45379D02*
X45345Y45069D01*
X45375Y45046D01*
X45413Y45017D01*
X45492Y44984D01*
X45577Y44973D01*
X46411D01*
X46579Y44805D01*
Y44256D01*
X46171Y43848D01*
X46057D01*
X45972Y43837D01*
X45916Y43814D01*
X45893Y43804D01*
X45864Y43782D01*
X45825Y43752D01*
X45283Y43210D01*
X45207Y43220D01*
X45065Y43202D01*
X45035Y43189D01*
Y43189D01*
Y45379D01*
X45035D01*
D01*
D01*
D02*
G37*
G36*
X38353Y31262D02*
Y31238D01*
X38252D01*
Y30210D01*
X38252D01*
X38138Y30258D01*
X38007Y30275D01*
X37540D01*
Y31366D01*
X38248D01*
X38353Y31262D01*
D02*
G37*
G36*
X52746Y63774D02*
Y43576D01*
X48680Y39509D01*
X48586Y39395D01*
X48516Y39265D01*
X48473Y39123D01*
X48459Y38976D01*
D01*
X48459Y38976D01*
X48459D01*
X48459Y38976D01*
X48459D01*
Y35827D01*
X48459Y35827D01*
X48459D01*
X48473Y35680D01*
X48516Y35538D01*
X48541Y35493D01*
X48586Y35408D01*
X48680Y35294D01*
X48680Y35294D01*
X48680Y35294D01*
X49596Y34377D01*
Y32869D01*
X49534Y32816D01*
X49417Y32678D01*
X49322Y32524D01*
X49253Y32356D01*
X49211Y32180D01*
X49196Y32000D01*
X49211Y31820D01*
X49249Y31662D01*
X45291Y27704D01*
X43109D01*
X42787Y28026D01*
Y28389D01*
X42770Y28520D01*
X42719Y28642D01*
X42700Y28667D01*
Y29074D01*
X41887D01*
D01*
X42109Y29296D01*
X44400D01*
X44531Y29313D01*
X44652Y29363D01*
X44757Y29443D01*
X44757Y29443D01*
X44757Y29443D01*
X46224Y30911D01*
X46244Y30903D01*
X46420Y30861D01*
X46600Y30846D01*
X46780Y30861D01*
X46956Y30903D01*
X47124Y30972D01*
X47278Y31067D01*
X47416Y31184D01*
X47533Y31322D01*
X47628Y31476D01*
X47697Y31644D01*
X47739Y31820D01*
X47754Y32000D01*
X47739Y32180D01*
X47697Y32356D01*
X47628Y32524D01*
X47533Y32678D01*
X47416Y32816D01*
X47354Y32869D01*
Y34896D01*
X47339Y35043D01*
X47296Y35184D01*
X47227Y35315D01*
X47133Y35429D01*
X46354Y36208D01*
Y38988D01*
X51133Y43767D01*
X51227Y43881D01*
X51296Y44012D01*
X51339Y44153D01*
X51354Y44300D01*
Y54800D01*
X51339Y54947D01*
X51296Y55088D01*
X51227Y55219D01*
X51133Y55333D01*
X47465Y59001D01*
X47436Y59024D01*
Y60800D01*
X48477D01*
Y60816D01*
X48907D01*
X49038Y60833D01*
X49159Y60884D01*
X49264Y60964D01*
X50966Y62666D01*
X51457D01*
X51588Y62683D01*
X51709Y62734D01*
X51814Y62814D01*
X52664Y63664D01*
X52744Y63768D01*
X52746Y63774D01*
D01*
D02*
G37*
G36*
X43379Y45485D02*
Y44189D01*
X43379Y44189D01*
X43349Y44202D01*
X43207Y44220D01*
X43065Y44202D01*
X42932Y44147D01*
X42818Y44059D01*
X42798Y44033D01*
X42082D01*
X42040Y44027D01*
X41997Y44022D01*
X41958Y44005D01*
X41918Y43989D01*
X41850Y43937D01*
X41262Y43348D01*
X40652D01*
X40064Y43937D01*
X39996Y43989D01*
X39956Y44005D01*
X39917Y44022D01*
X39874Y44027D01*
X39832Y44033D01*
X39154D01*
Y44152D01*
X39035D01*
Y46120D01*
X39024Y46205D01*
X38991Y46284D01*
X38961Y46323D01*
X38939Y46352D01*
X38574Y46717D01*
X38506Y46769D01*
X38466Y46786D01*
X38427Y46802D01*
X38385Y46808D01*
X38342Y46813D01*
X38230D01*
Y46913D01*
X38131D01*
Y47386D01*
X38131Y47386D01*
Y47386D01*
X38178Y47325D01*
X38252Y47267D01*
X38340Y47231D01*
X38433Y47219D01*
X38527Y47231D01*
X38591Y47258D01*
X38654Y47231D01*
X38748Y47219D01*
X38842Y47231D01*
X38905Y47258D01*
X38969Y47231D01*
X39063Y47219D01*
X39157Y47231D01*
X39220Y47258D01*
X39284Y47231D01*
X39378Y47219D01*
X39471Y47231D01*
X39535Y47258D01*
X39599Y47231D01*
X39693Y47219D01*
X39786Y47231D01*
X39874Y47267D01*
X39948Y47325D01*
X40006Y47400D01*
X40042Y47487D01*
X40054Y47580D01*
Y48053D01*
X40046Y48113D01*
X40046D01*
D01*
D01*
D01*
D01*
Y48113D01*
X40106Y48105D01*
X40579D01*
X40672Y48117D01*
X40724Y48138D01*
X40726D01*
X43379Y45485D01*
D02*
G37*
G36*
X37785Y51827D02*
Y50517D01*
X37790Y50475D01*
X37796Y50433D01*
X37812Y50393D01*
X37829Y50353D01*
X37881Y50286D01*
X37881Y50286D01*
X37881Y50286D01*
X38678Y49489D01*
X38707Y49466D01*
X38746Y49437D01*
X38825Y49404D01*
X38910Y49393D01*
X39747D01*
X39757Y49317D01*
X39784Y49254D01*
X39757Y49190D01*
X39745Y49096D01*
X39757Y49003D01*
X39784Y48939D01*
X39757Y48875D01*
X39745Y48781D01*
X39757Y48688D01*
X39784Y48624D01*
X39757Y48560D01*
X39745Y48466D01*
X39753Y48406D01*
X39753Y48406D01*
X39693Y48414D01*
X39599Y48402D01*
X39535Y48375D01*
X39471Y48402D01*
X39378Y48414D01*
X39284Y48402D01*
X39220Y48375D01*
X39157Y48402D01*
X39063Y48414D01*
X38969Y48402D01*
X38905Y48375D01*
X38842Y48402D01*
X38748Y48414D01*
X38654Y48402D01*
X38591Y48375D01*
X38527Y48402D01*
X38433Y48414D01*
X38340Y48402D01*
X38252Y48366D01*
X38178Y48308D01*
X38135Y48253D01*
X38135D01*
D01*
Y49270D01*
X38124Y49355D01*
X38101Y49411D01*
X38091Y49434D01*
X38068Y49464D01*
X38039Y49502D01*
X36953Y50588D01*
X36886Y50640D01*
X36846Y50656D01*
X36806Y50673D01*
X36764Y50678D01*
X36722Y50684D01*
X36490D01*
X36479Y50764D01*
X36452Y50828D01*
X36479Y50892D01*
X36491Y50986D01*
X36479Y51079D01*
X36452Y51143D01*
X36479Y51207D01*
X36491Y51301D01*
X36479Y51394D01*
X36452Y51458D01*
X36479Y51522D01*
X36491Y51616D01*
X36483Y51676D01*
X36483D01*
D01*
D01*
D01*
D01*
Y51676D01*
X36543Y51668D01*
X36637Y51680D01*
X36701Y51707D01*
X36765Y51680D01*
X36858Y51668D01*
X36952Y51680D01*
X37016Y51707D01*
X37080Y51680D01*
X37173Y51668D01*
X37267Y51680D01*
X37331Y51707D01*
X37395Y51680D01*
X37488Y51668D01*
X37582Y51680D01*
X37669Y51716D01*
X37744Y51774D01*
X37785Y51827D01*
D01*
D02*
G37*
G36*
X29427Y52920D02*
Y52900D01*
X28638Y52111D01*
X28407Y52207D01*
Y53630D01*
X28639Y53724D01*
X29427Y52920D01*
D02*
G37*
G36*
X37479Y49135D02*
Y48413D01*
X37395Y48402D01*
X37331Y48375D01*
X37267Y48402D01*
X37173Y48414D01*
X37080Y48402D01*
X37016Y48375D01*
X36952Y48402D01*
X36858Y48414D01*
X36765Y48402D01*
X36701Y48375D01*
X36637Y48402D01*
X36543Y48414D01*
X36483Y48406D01*
Y48406D01*
X36491Y48466D01*
X36479Y48560D01*
X36452Y48624D01*
X36479Y48688D01*
X36491Y48781D01*
X36479Y48875D01*
X36452Y48939D01*
X36479Y49003D01*
X36491Y49096D01*
X36479Y49190D01*
X36452Y49254D01*
X36479Y49317D01*
X36491Y49411D01*
X36479Y49505D01*
X36452Y49569D01*
X36479Y49632D01*
X36491Y49726D01*
X36479Y49820D01*
X36443Y49907D01*
X36385Y49981D01*
X36325Y50028D01*
X36325D01*
Y50028D01*
X36586D01*
X37479Y49135D01*
D02*
G37*
G36*
X39753Y51676D02*
X39745Y51616D01*
X39757Y51522D01*
X39784Y51458D01*
X39757Y51394D01*
X39745Y51301D01*
X39757Y51207D01*
X39784Y51143D01*
X39757Y51079D01*
X39745Y50986D01*
X39757Y50892D01*
X39784Y50828D01*
X39757Y50764D01*
X39745Y50671D01*
X39757Y50577D01*
X39784Y50513D01*
X39757Y50449D01*
X39745Y50356D01*
X39757Y50262D01*
X39793Y50175D01*
X39851Y50100D01*
X39919Y50048D01*
X39919Y50048D01*
X39919D01*
D01*
X39045D01*
X38796Y50298D01*
X38796D01*
X38796D01*
Y50298D01*
X38810Y50296D01*
X38941Y50313D01*
X39062Y50363D01*
X39167Y50443D01*
X39247Y50548D01*
X39297Y50669D01*
X39314Y50800D01*
X39310Y50836D01*
X39610Y51136D01*
X39632Y51166D01*
X39662Y51204D01*
X39678Y51244D01*
X39695Y51283D01*
X39700Y51326D01*
X39706Y51368D01*
Y51669D01*
X39753Y51676D01*
X39753D01*
D02*
G37*
G36*
X40972Y73899D02*
Y72903D01*
X40853D01*
Y72009D01*
Y71340D01*
X40972D01*
Y71271D01*
X40943Y71249D01*
X40863Y71145D01*
X40813Y71023D01*
X40800Y70925D01*
D01*
D01*
D01*
D01*
X40787Y71023D01*
X40737Y71145D01*
X40657Y71249D01*
X40628Y71271D01*
Y71340D01*
X40747D01*
Y72009D01*
Y72903D01*
X40628D01*
Y73913D01*
X40795Y74076D01*
X40972Y73899D01*
D02*
G37*
G36*
X50467Y71967D02*
X52746Y69688D01*
Y67067D01*
Y67067D01*
X52746Y67067D01*
X52744Y67073D01*
X52664Y67177D01*
X51414Y68427D01*
X51309Y68507D01*
X51188Y68558D01*
X51057Y68575D01*
X50605D01*
D01*
X50632Y68577D01*
X50800Y68628D01*
X50954Y68711D01*
X51090Y68822D01*
X51201Y68958D01*
X51283Y69112D01*
X51334Y69280D01*
X51352Y69454D01*
X51334Y69629D01*
X51283Y69796D01*
X51201Y69951D01*
X51090Y70087D01*
X50954Y70198D01*
X50800Y70280D01*
X50632Y70331D01*
X50457Y70348D01*
X50283Y70331D01*
X50115Y70280D01*
X49961Y70198D01*
X49825Y70087D01*
X49714Y69951D01*
X49631Y69796D01*
X49581Y69629D01*
X49563Y69454D01*
X49581Y69280D01*
X49631Y69112D01*
X49714Y68958D01*
X49825Y68822D01*
X49961Y68711D01*
X50115Y68628D01*
X50283Y68577D01*
X50310Y68575D01*
D01*
D01*
X48266D01*
X47462Y69379D01*
Y69409D01*
X48503D01*
Y70500D01*
X48293D01*
D01*
X48360Y70551D01*
X48451Y70669D01*
X48508Y70807D01*
X48527Y70954D01*
X48508Y71102D01*
X48451Y71239D01*
X48360Y71357D01*
X48242Y71448D01*
X48201Y71465D01*
X48201Y71465D01*
X48232Y71478D01*
X48346Y71565D01*
X48434Y71679D01*
X48489Y71812D01*
X48507Y71954D01*
X48502Y71996D01*
D01*
D01*
D01*
Y71996D01*
X48502Y71996D01*
X48502Y71996D01*
X50444D01*
X50467Y71967D01*
D02*
G37*
G36*
X36106Y74739D02*
X35302Y73950D01*
X35282D01*
X34493Y74739D01*
X34589Y74970D01*
X36011D01*
X36106Y74739D01*
D02*
G37*
G36*
X45275Y67589D02*
X46675Y66189D01*
D01*
X46675D01*
D01*
X46675Y66189D01*
D01*
X46743Y66137D01*
X46783Y66120D01*
X46822Y66104D01*
X46865Y66098D01*
X46907Y66093D01*
X48271D01*
X48729Y65635D01*
Y64556D01*
X48477Y64304D01*
X48477Y64304D01*
Y64304D01*
X48482Y64345D01*
X48463Y64488D01*
X48408Y64620D01*
X48321Y64734D01*
X48207Y64822D01*
X48142Y64849D01*
X47814Y65177D01*
X47709Y65257D01*
X47588Y65308D01*
X47457Y65325D01*
X47200D01*
X47143Y65348D01*
X45261Y67230D01*
Y67607D01*
X45261Y67607D01*
Y67607D01*
X45275Y67589D01*
D02*
G37*
G36*
X45875Y68189D02*
X45875Y68189D01*
X45875Y68189D01*
X47175Y66889D01*
X47214Y66859D01*
X47243Y66837D01*
X47266Y66827D01*
X47322Y66804D01*
X47407Y66793D01*
X50671D01*
X51229Y66235D01*
Y65742D01*
D01*
D01*
X51229D01*
X51175Y65842D01*
X51064Y65978D01*
X50929Y66089D01*
X50774Y66171D01*
X50607Y66222D01*
X50432Y66240D01*
X50258Y66222D01*
X50090Y66171D01*
X49935Y66089D01*
X49800Y65978D01*
X49689Y65842D01*
X49606Y65688D01*
X49555Y65520D01*
X49538Y65345D01*
X49555Y65171D01*
X49606Y65003D01*
X49689Y64849D01*
X49800Y64713D01*
X49935Y64602D01*
X50090Y64519D01*
X50258Y64469D01*
X50432Y64451D01*
X50607Y64469D01*
X50774Y64519D01*
X50929Y64602D01*
X51064Y64713D01*
X51175Y64849D01*
X51229Y64949D01*
D01*
Y64806D01*
X50871Y64448D01*
X49807D01*
X49722Y64437D01*
X49666Y64414D01*
X49643Y64404D01*
X49614Y64382D01*
X49575Y64352D01*
X48469Y63246D01*
Y63246D01*
X48469D01*
X48482Y63345D01*
X48463Y63488D01*
X48461Y63493D01*
X48461D01*
D01*
D01*
X48461Y63493D01*
X48461D01*
D01*
X48500Y63498D01*
X48542Y63504D01*
X48581Y63520D01*
X48621Y63537D01*
X48689Y63589D01*
X49289Y64189D01*
X49311Y64218D01*
X49341Y64257D01*
X49357Y64296D01*
X49374Y64336D01*
X49379Y64378D01*
X49385Y64420D01*
Y65770D01*
X49374Y65855D01*
X49341Y65934D01*
X49289Y66002D01*
X48639Y66652D01*
X48571Y66704D01*
X48531Y66721D01*
X48492Y66737D01*
X48450Y66743D01*
X48407Y66748D01*
X47043D01*
X45835Y67956D01*
Y68241D01*
X45835Y68241D01*
Y68241D01*
X45875Y68189D01*
D02*
G37*
G36*
X35948Y74220D02*
X35948Y74220D01*
X35943Y74217D01*
X35863Y74112D01*
X35813Y73991D01*
X35796Y73860D01*
X35813Y73729D01*
X35863Y73608D01*
X35943Y73503D01*
X35972Y73481D01*
Y72903D01*
X35853D01*
Y72009D01*
Y71340D01*
X36747D01*
Y71573D01*
X36883Y71709D01*
D01*
Y71369D01*
X36972D01*
Y71271D01*
X36943Y71249D01*
X36863Y71145D01*
X36813Y71023D01*
X36796Y70893D01*
X36813Y70762D01*
X36863Y70640D01*
X36943Y70536D01*
X37048Y70456D01*
X37115Y70428D01*
Y70428D01*
X37115D01*
X36228D01*
X35800Y70857D01*
X35804Y70893D01*
X35787Y71023D01*
X35737Y71145D01*
X35657Y71249D01*
X35628Y71271D01*
Y71340D01*
X35747D01*
Y72009D01*
Y72903D01*
X35628D01*
Y73913D01*
X35941Y74220D01*
X35948D01*
X35948D01*
D02*
G37*
G36*
X39972Y73899D02*
Y72903D01*
X39853D01*
Y72009D01*
Y71340D01*
X39972D01*
Y71271D01*
X39943Y71249D01*
X39863Y71145D01*
X39813Y71023D01*
X39800Y70925D01*
D01*
D01*
D01*
D01*
X39787Y71023D01*
X39737Y71145D01*
X39657Y71249D01*
X39628Y71271D01*
Y71369D01*
X39717D01*
Y71999D01*
Y72834D01*
X38883D01*
Y72634D01*
X38747Y72498D01*
X38747Y72498D01*
D01*
Y72900D01*
X38628D01*
Y73479D01*
X38657Y73501D01*
X38737Y73605D01*
X38787Y73727D01*
X38804Y73857D01*
X38787Y73988D01*
X38737Y74110D01*
X38657Y74214D01*
X38649Y74220D01*
D01*
Y74220D01*
X39651D01*
X39972Y73899D01*
D02*
G37*
G36*
X45500Y82782D02*
X45524Y82725D01*
X45611Y82611D01*
X45672Y82564D01*
Y78636D01*
X45611Y78589D01*
X45524Y78475D01*
X45500Y78418D01*
D01*
D01*
D01*
X45500D01*
X45476Y78475D01*
X45389Y78589D01*
X45328Y78636D01*
Y82564D01*
X45389Y82611D01*
X45476Y82725D01*
X45500Y82782D01*
Y82782D01*
D02*
G37*
G36*
X46500D02*
X46524Y82725D01*
X46611Y82611D01*
X46672Y82564D01*
Y78636D01*
X46611Y78589D01*
X46524Y78475D01*
X46500Y78418D01*
D01*
D01*
D01*
X46500D01*
X46476Y78475D01*
X46389Y78589D01*
X46328Y78636D01*
Y82564D01*
X46389Y82611D01*
X46476Y82725D01*
X46500Y82782D01*
Y82782D01*
D02*
G37*
G36*
X42106Y74739D02*
X41302Y73950D01*
X41282D01*
X40797Y74435D01*
X40302Y73950D01*
X40282D01*
X39493Y74739D01*
X39589Y74970D01*
X42011D01*
X42106Y74739D01*
D02*
G37*
G36*
X29157Y75950D02*
Y74450D01*
X28907Y74200D01*
X28407D01*
X28157Y74450D01*
Y75950D01*
X28407Y76200D01*
X28907D01*
X29157Y75950D01*
D02*
G37*
G36*
X37951Y74220D02*
Y74220D01*
X37943Y74214D01*
X37863Y74110D01*
X37813Y73988D01*
X37796Y73857D01*
X37813Y73727D01*
X37863Y73605D01*
X37943Y73501D01*
X37972Y73479D01*
Y72900D01*
X37853D01*
Y72007D01*
Y71337D01*
X38747D01*
Y71571D01*
X38883Y71707D01*
D01*
Y71369D01*
X38972D01*
Y71271D01*
X38943Y71249D01*
X38863Y71145D01*
X38813Y71023D01*
X38796Y70893D01*
X38813Y70762D01*
X38863Y70640D01*
X38943Y70536D01*
X38972Y70514D01*
Y70291D01*
X38972Y70291D01*
X38512Y70751D01*
X38445Y70803D01*
X38405Y70820D01*
X38365Y70836D01*
X38323Y70842D01*
X38281Y70847D01*
X37816D01*
X37800Y70863D01*
X37804Y70893D01*
X37787Y71023D01*
X37737Y71145D01*
X37657Y71249D01*
X37628Y71271D01*
Y71369D01*
X37717D01*
Y71999D01*
Y72834D01*
X36883D01*
Y72636D01*
X36747Y72500D01*
X36747Y72500D01*
D01*
Y72903D01*
X36628D01*
Y73481D01*
X36657Y73503D01*
X36737Y73608D01*
X36787Y73729D01*
X36804Y73860D01*
X36787Y73991D01*
X36737Y74112D01*
X36657Y74217D01*
X36652Y74220D01*
D01*
Y74220D01*
X37951D01*
D01*
D02*
G37*
G36*
X29457Y62920D02*
Y62900D01*
X28668Y62111D01*
X28437Y62207D01*
Y63630D01*
X28669Y63724D01*
X29457Y62920D01*
D02*
G37*
G36*
X51803Y64457D02*
Y64229D01*
X51248Y63675D01*
X50757D01*
X50627Y63658D01*
X50505Y63607D01*
X50400Y63527D01*
X48698Y61825D01*
X48477D01*
Y61891D01*
X48268D01*
D01*
X48335Y61943D01*
X48426Y62061D01*
X48483Y62198D01*
X48502Y62345D01*
X48483Y62493D01*
X48483D01*
X48483D01*
X48483D01*
Y62493D01*
Y62493D01*
Y62493D01*
X48507D01*
X48550Y62498D01*
X48592Y62504D01*
X48631Y62520D01*
X48671Y62537D01*
X48739Y62589D01*
X48739Y62589D01*
X48739Y62589D01*
X49943Y63793D01*
X51007D01*
X51050Y63798D01*
X51092Y63804D01*
X51131Y63820D01*
X51171Y63837D01*
X51239Y63889D01*
X51789Y64439D01*
X51803Y64457D01*
D01*
D02*
G37*
G36*
X42642Y63822D02*
X42668Y63759D01*
Y63326D01*
X43076D01*
X43091Y63320D01*
D01*
X43091D01*
X43091Y63320D01*
X43091D01*
X43076Y63315D01*
X42668D01*
Y62845D01*
X42171Y62348D01*
X38365D01*
X37461Y63252D01*
X37393Y63304D01*
X37353Y63321D01*
X37314Y63337D01*
X37271Y63343D01*
X37239Y63347D01*
Y63347D01*
X37250Y63348D01*
X37292Y63354D01*
X37331Y63370D01*
X37371Y63387D01*
X37439Y63439D01*
X37439Y63439D01*
X37439Y63439D01*
X38393Y64393D01*
X42071D01*
X42642Y63822D01*
D02*
G37*
G36*
X37603Y59810D02*
X38367Y59047D01*
Y58433D01*
X38372Y58391D01*
X38378Y58348D01*
X38394Y58309D01*
X38411Y58269D01*
X38463Y58201D01*
X38463Y58201D01*
X38463Y58201D01*
X39788Y56876D01*
D01*
X39788D01*
D01*
X39788Y56876D01*
D01*
X39856Y56824D01*
X39895Y56808D01*
X39935Y56791D01*
X39977Y56786D01*
X40020Y56780D01*
X40634D01*
X41572Y55842D01*
Y55819D01*
X41572Y55819D01*
X40989Y56402D01*
X40921Y56454D01*
X40881Y56471D01*
X40842Y56487D01*
X40800Y56493D01*
X40757Y56498D01*
X36393D01*
X35685Y57206D01*
Y57289D01*
X36554D01*
Y57408D01*
X36670D01*
Y57319D01*
X37505D01*
Y57948D01*
Y58783D01*
X37435D01*
Y59492D01*
X37464Y59514D01*
X37544Y59618D01*
X37594Y59740D01*
X37603Y59810D01*
X37603D01*
X37603D01*
X37603D01*
D02*
G37*
G36*
X32988Y61683D02*
X32998Y61604D01*
X33036Y61515D01*
X33095Y61438D01*
X33171Y61379D01*
X33261Y61342D01*
X33309Y61336D01*
D01*
X33309D01*
D01*
Y61336D01*
X33125Y61152D01*
X33073Y61084D01*
X33057Y61045D01*
X33040Y61005D01*
X33035Y60963D01*
X33029Y60920D01*
Y60611D01*
X32998Y60537D01*
X32986Y60441D01*
Y59811D01*
X32998Y59715D01*
X33029Y59640D01*
Y59506D01*
X32925Y59402D01*
X32873Y59334D01*
X32857Y59295D01*
X32840Y59255D01*
X32835Y59213D01*
X32829Y59170D01*
Y58852D01*
X32710D01*
Y58183D01*
Y58064D01*
X32594D01*
Y58783D01*
X32485D01*
Y59492D01*
X32514Y59514D01*
X32594Y59618D01*
X32644Y59740D01*
X32661Y59870D01*
X32644Y60001D01*
X32594Y60123D01*
X32535Y60199D01*
Y61428D01*
X32634D01*
Y61528D01*
X32697D01*
X32740Y61533D01*
X32782Y61539D01*
X32822Y61555D01*
X32861Y61572D01*
X32929Y61624D01*
X32929Y61624D01*
X32929Y61624D01*
X32988Y61683D01*
D01*
D02*
G37*
G36*
X46033Y62946D02*
X45107Y62020D01*
X42307D01*
X43233Y62946D01*
X46033D01*
Y62946D01*
D02*
G37*
G36*
X29470Y67700D02*
Y67680D01*
X28681Y66891D01*
X28450Y66987D01*
Y68409D01*
X28681Y68504D01*
X29470Y67700D01*
D02*
G37*
G36*
X34972Y73899D02*
Y72903D01*
X34853D01*
Y72009D01*
Y71340D01*
X34972D01*
Y71271D01*
X34943Y71249D01*
X34863Y71145D01*
X34813Y71023D01*
X34796Y70893D01*
X34813Y70762D01*
X34863Y70640D01*
X34943Y70536D01*
X35048Y70456D01*
X35169Y70405D01*
X35300Y70388D01*
X35336Y70393D01*
X35861Y69868D01*
X35890Y69846D01*
X35929Y69816D01*
X35968Y69800D01*
X36008Y69783D01*
X36050Y69778D01*
X36093Y69772D01*
X37564D01*
X37972Y69364D01*
Y69052D01*
X37941Y68977D01*
X37929Y68881D01*
Y68251D01*
X37941Y68155D01*
X37978Y68066D01*
X38007Y68028D01*
Y68028D01*
X36900D01*
X36858Y68022D01*
X36815Y68017D01*
X36776Y68000D01*
X36736Y67984D01*
X36668Y67932D01*
X36464Y67728D01*
X34952D01*
Y68181D01*
X34059D01*
Y66736D01*
X34102D01*
Y66473D01*
X33833Y66203D01*
X30767D01*
X30503Y66467D01*
Y67230D01*
X30616D01*
Y68017D01*
X31616D01*
Y68970D01*
X31503D01*
Y69133D01*
X31709Y69338D01*
X32700D01*
Y69019D01*
X33197D01*
Y68181D01*
X33153D01*
Y66736D01*
X34047D01*
Y68181D01*
X34003D01*
Y69019D01*
X34500D01*
Y70464D01*
X34104D01*
Y73541D01*
X34717Y74154D01*
X34972Y73899D01*
D02*
G37*
G36*
X46133Y63694D02*
X43233D01*
X42183Y64744D01*
Y64744D01*
X45083D01*
X46133Y63694D01*
D02*
G37*
G36*
X46435Y70291D02*
X46453Y70247D01*
Y69170D01*
X46470Y69040D01*
X46521Y68918D01*
X46601Y68813D01*
X47700Y67714D01*
X47805Y67634D01*
X47927Y67583D01*
X48057Y67566D01*
X48057Y67566D01*
X50848D01*
X51803Y66612D01*
Y66584D01*
D01*
D01*
X51803D01*
X51789Y66602D01*
X51039Y67352D01*
X50971Y67404D01*
X50931Y67421D01*
X50892Y67437D01*
X50850Y67443D01*
X50807Y67448D01*
X47543D01*
X46435Y68556D01*
Y70291D01*
D01*
D02*
G37*
%LPC*%
G36*
X50432Y61740D02*
X50258Y61722D01*
X50090Y61671D01*
X49935Y61589D01*
X49800Y61478D01*
X49689Y61342D01*
X49606Y61188D01*
X49555Y61020D01*
X49538Y60845D01*
X49555Y60671D01*
X49606Y60503D01*
X49689Y60349D01*
X49800Y60213D01*
X49935Y60102D01*
X50090Y60019D01*
X50258Y59969D01*
X50432Y59951D01*
X50607Y59969D01*
X50774Y60019D01*
X50929Y60102D01*
X51064Y60213D01*
X51175Y60349D01*
X51258Y60503D01*
X51309Y60671D01*
X51326Y60845D01*
X51309Y61020D01*
X51258Y61188D01*
X51175Y61342D01*
X51064Y61478D01*
X50929Y61589D01*
X50774Y61671D01*
X50607Y61722D01*
X50432Y61740D01*
D02*
G37*
G36*
X40777Y47831D02*
X40661Y47816D01*
X40552Y47771D01*
X40458Y47699D01*
X40387Y47606D01*
X40342Y47497D01*
X40326Y47380D01*
X40342Y47264D01*
X40387Y47155D01*
X40458Y47062D01*
X40552Y46990D01*
X40661Y46945D01*
X40777Y46930D01*
X40894Y46945D01*
X41003Y46990D01*
X41096Y47062D01*
X41167Y47155D01*
X41213Y47264D01*
X41228Y47380D01*
X41213Y47497D01*
X41167Y47606D01*
X41096Y47699D01*
X41003Y47771D01*
X40894Y47816D01*
X40777Y47831D01*
D02*
G37*
G36*
X35467Y53151D02*
X35350Y53136D01*
X35242Y53091D01*
X35148Y53019D01*
X35077Y52926D01*
X35032Y52817D01*
X35016Y52700D01*
X35032Y52584D01*
X35077Y52475D01*
X35148Y52382D01*
X35242Y52310D01*
X35350Y52265D01*
X35467Y52250D01*
X35584Y52265D01*
X35692Y52310D01*
X35786Y52382D01*
X35857Y52475D01*
X35902Y52584D01*
X35918Y52700D01*
X35902Y52817D01*
X35857Y52926D01*
X35786Y53019D01*
X35692Y53091D01*
X35584Y53136D01*
X35467Y53151D01*
D02*
G37*
%LPD*%
D10*
X29600Y89800D02*
D03*
X47700Y93700D02*
D03*
X53000Y27500D02*
D03*
X27900Y33800D02*
D03*
X35467Y52700D02*
D03*
X40777Y47380D02*
D03*
D11*
X39257Y34356D02*
D03*
Y34985D02*
D03*
X31257Y34356D02*
D03*
Y34985D02*
D03*
X37803Y45856D02*
D03*
Y46485D02*
D03*
X32207Y61856D02*
D03*
Y62485D02*
D03*
X37807Y43056D02*
D03*
Y43685D02*
D03*
X45307Y54085D02*
D03*
Y53456D02*
D03*
X34576Y50342D02*
D03*
Y50972D02*
D03*
X45307Y47956D02*
D03*
Y48585D02*
D03*
X38118Y53570D02*
D03*
Y54200D02*
D03*
X45307Y51456D02*
D03*
Y52085D02*
D03*
X41650Y67385D02*
D03*
Y68015D02*
D03*
D12*
X32694Y67458D02*
D03*
X33600D02*
D03*
X34506D02*
D03*
D13*
X33600Y69742D02*
D03*
D14*
X31100Y67706D02*
D03*
Y68494D02*
D03*
X30100Y67706D02*
D03*
D15*
X39693Y47817D02*
D03*
X39378D02*
D03*
X39063D02*
D03*
X38748D02*
D03*
X38433D02*
D03*
X37173D02*
D03*
X36858D02*
D03*
X36543D02*
D03*
X36858Y52265D02*
D03*
X37173D02*
D03*
X37488D02*
D03*
X38433D02*
D03*
X38748D02*
D03*
X39693D02*
D03*
X39378D02*
D03*
X39063D02*
D03*
X38118D02*
D03*
X37803D02*
D03*
X36543D02*
D03*
X37488Y47817D02*
D03*
X37803D02*
D03*
X38118D02*
D03*
D16*
X35894Y49726D02*
D03*
Y50671D02*
D03*
Y50986D02*
D03*
Y51301D02*
D03*
Y51616D02*
D03*
X40343Y48466D02*
D03*
Y48781D02*
D03*
Y49096D02*
D03*
Y49411D02*
D03*
Y49726D02*
D03*
Y50041D02*
D03*
Y50356D02*
D03*
Y50671D02*
D03*
Y50986D02*
D03*
Y51301D02*
D03*
Y51616D02*
D03*
X35894Y50356D02*
D03*
Y50041D02*
D03*
Y49411D02*
D03*
Y49096D02*
D03*
Y48781D02*
D03*
Y48466D02*
D03*
D17*
X41257Y35770D02*
D03*
Y33570D02*
D03*
X33257Y35770D02*
D03*
Y33570D02*
D03*
D18*
X43233Y62946D02*
D03*
Y63694D02*
D03*
X42524Y63320D02*
D03*
D19*
X32177Y57736D02*
D03*
Y58366D02*
D03*
X37087Y57736D02*
D03*
Y58366D02*
D03*
X33307Y53556D02*
D03*
Y54185D02*
D03*
X32307Y29355D02*
D03*
Y29985D02*
D03*
X37300Y72417D02*
D03*
Y71787D02*
D03*
X39300D02*
D03*
X43300Y71787D02*
D03*
X39300Y72417D02*
D03*
X43300Y72417D02*
D03*
D20*
X38807Y30526D02*
D03*
Y28970D02*
D03*
D21*
X41231Y28489D02*
D03*
X42283D02*
D03*
Y30852D02*
D03*
X41231D02*
D03*
D22*
X36857Y30823D02*
D03*
Y28618D02*
D03*
X34357Y30870D02*
D03*
Y28666D02*
D03*
D23*
X34157Y58405D02*
D03*
Y57736D02*
D03*
X33157Y57736D02*
D03*
Y58405D02*
D03*
X36107Y57736D02*
D03*
Y58405D02*
D03*
X38707Y43036D02*
D03*
Y43705D02*
D03*
X32107Y53536D02*
D03*
Y54205D02*
D03*
X31327Y29355D02*
D03*
Y30025D02*
D03*
X40300Y72456D02*
D03*
Y71787D02*
D03*
X41300Y72456D02*
D03*
Y71787D02*
D03*
X42300Y72456D02*
D03*
Y71787D02*
D03*
X35300Y72456D02*
D03*
Y71787D02*
D03*
X38300Y72453D02*
D03*
Y71784D02*
D03*
X36300Y72456D02*
D03*
Y71787D02*
D03*
D24*
X40207Y41620D02*
D03*
Y45235D02*
D03*
D25*
X33357Y60126D02*
D03*
X33857D02*
D03*
X34357D02*
D03*
X34857D02*
D03*
Y62015D02*
D03*
X34357D02*
D03*
X33857D02*
D03*
X33357D02*
D03*
X37800Y66676D02*
D03*
X38300D02*
D03*
X38800D02*
D03*
X39300D02*
D03*
X39800D02*
D03*
X40300D02*
D03*
X40800D02*
D03*
X38800Y68566D02*
D03*
X38300D02*
D03*
X37800D02*
D03*
X40800D02*
D03*
X40300D02*
D03*
X39800D02*
D03*
X39300D02*
D03*
D26*
X37659Y36265D02*
D03*
X35856D02*
D03*
D27*
X36757Y33726D02*
D03*
D28*
X43707Y50820D02*
D03*
Y54757D02*
D03*
D29*
X30100Y68494D02*
D03*
D30*
X47000Y78200D02*
Y83000D01*
X46000Y78200D02*
Y83000D01*
X45000Y78200D02*
Y83000D01*
X36543Y52265D02*
Y53157D01*
X36200Y53500D02*
X36543Y53157D01*
X34450Y53500D02*
X36200D01*
X33770Y52820D02*
X34450Y53500D01*
X32407Y52820D02*
X33770D01*
X32107Y53120D02*
X32407Y52820D01*
X32107Y53120D02*
Y53536D01*
X34576Y50356D02*
X36722D01*
X33586Y50342D02*
X34576D01*
X36722Y50356D02*
X37807Y49270D01*
X31007Y52920D02*
X33586Y50342D01*
X37807Y47817D02*
Y49270D01*
X28707Y52920D02*
X31007D01*
X37803Y46485D02*
Y47817D01*
X37807Y46485D02*
X38342D01*
X28657Y55070D02*
X32830D01*
X28657Y62920D02*
X30557D01*
X36900Y67700D02*
X40400D01*
X38342Y46485D02*
X38707Y46120D01*
X32830Y55070D02*
X33307Y54593D01*
X30557Y62920D02*
X31622Y61856D01*
X40450Y67700D02*
X40800Y67350D01*
X38707Y43705D02*
Y46120D01*
X33307Y54185D02*
X36932D01*
X31622Y61856D02*
X32697D01*
X40800Y66676D02*
Y67350D01*
X38707Y43705D02*
X39832D01*
X36932Y54185D02*
X37547Y53570D01*
X32207Y59920D02*
Y61856D01*
X32697D02*
X32857Y62015D01*
X40800Y66676D02*
X41426D01*
X39832Y43705D02*
X40517Y43020D01*
X37547Y53570D02*
X38118D01*
X32157Y58385D02*
Y59870D01*
X32857Y62015D02*
X33357D01*
X41426Y66676D02*
X41650Y66900D01*
X40517Y43020D02*
X41397D01*
X38118Y52265D02*
Y53570D01*
X41650Y66900D02*
Y67385D01*
X41397Y43020D02*
X42082Y43705D01*
X38113Y50517D02*
Y52320D01*
X42082Y43705D02*
X43207D01*
X32707Y35720D02*
X33257D01*
X38113Y50517D02*
X38910Y49720D01*
X31972Y34985D02*
X32707Y35720D01*
X38910Y49720D02*
X40407D01*
X31257Y34985D02*
X31972D01*
X40343Y49726D02*
X41802D01*
X37107Y58385D02*
Y59870D01*
X41802Y49726D02*
X43572Y47956D01*
X32757Y30870D02*
X34357D01*
X43572Y47956D02*
X45307D01*
X32307Y30420D02*
X32757Y30870D01*
X32307Y29920D02*
Y30420D01*
X32307Y29985D02*
Y31220D01*
X35007Y50041D02*
X36537D01*
X36707Y49870D01*
X38118Y46959D02*
Y49270D01*
X38118Y46959D02*
X38207Y46870D01*
X45307Y54085D02*
Y54420D01*
X44989Y54739D02*
X45307Y54420D01*
X42976Y54739D02*
X44989D01*
X42357Y54120D02*
X42976Y54739D01*
X42357Y51470D02*
Y54120D01*
X41557Y50671D02*
X42357Y51470D01*
X40343Y50671D02*
X41557D01*
X45307Y51120D02*
Y51456D01*
X45007Y50820D02*
X45307Y51120D01*
X43707Y50820D02*
X45007D01*
X42807Y50820D02*
X43707Y50820D01*
X42343Y50356D02*
X42807Y50820D01*
X40343Y50356D02*
X42343Y50356D01*
X44457Y41920D02*
X46057Y43520D01*
X42457Y41920D02*
X44457D01*
X46057Y43520D02*
X46307D01*
X41757Y41220D02*
X42457Y41920D01*
X46307Y43520D02*
X46907Y44120D01*
X41757Y40770D02*
Y41220D01*
X46907Y44120D02*
Y44940D01*
X41357Y40370D02*
X41757Y40770D01*
X46547Y45300D02*
X46907Y44940D01*
X40607Y40370D02*
X41357D01*
X45577Y45300D02*
X46547D01*
X40207Y40770D02*
X40607Y40370D01*
X41467Y49411D02*
X45577Y45300D01*
X40207Y40770D02*
Y41620D01*
X40343Y49411D02*
X41467D01*
X40207Y41563D02*
Y42620D01*
X39772Y43056D02*
X40207Y42620D01*
X37807Y43056D02*
X39772D01*
X43207Y42670D02*
X43707Y43170D01*
Y45620D01*
X40861Y48466D02*
X43707Y45620D01*
X40343Y48466D02*
X40861D01*
X44207Y42670D02*
X44707Y43170D01*
Y45670D01*
X41281Y49096D02*
X44707Y45670D01*
X40343Y49096D02*
X41281D01*
X44223Y43647D02*
Y45605D01*
X41046Y48781D02*
X44223Y45605D01*
X40343Y48781D02*
X41046D01*
X34157Y58405D02*
Y59120D01*
Y58405D02*
X34472D01*
X34157Y59120D02*
X34357Y59320D01*
X34472Y58405D02*
X34750Y58128D01*
X34357Y59320D02*
Y60126D01*
X34750Y56878D02*
Y58128D01*
X33857Y60126D02*
X34357D01*
X34750Y56878D02*
X35988Y55640D01*
X32972Y53556D02*
X33307D01*
X32322Y54205D02*
X32972Y53556D01*
X32107Y54205D02*
X32322D01*
X40343Y50986D02*
X41322D01*
X41900Y51563D01*
Y55978D01*
X40770Y57108D02*
X41900Y55978D01*
X40020Y57108D02*
X40770D01*
X38695Y58433D02*
X40020Y57108D01*
X38695Y58433D02*
Y59183D01*
X37378Y60500D02*
X38695Y59183D01*
X36228Y60500D02*
X37378D01*
X35607Y61120D02*
X36228Y60500D01*
X33557Y61120D02*
X35607D01*
X33357Y60920D02*
X33557Y61120D01*
X33357Y59370D02*
Y60920D01*
X33157Y59170D02*
X33357Y59370D01*
X33157Y58405D02*
Y59170D01*
X40343Y51301D02*
X41037D01*
X41500Y51763D01*
Y55428D01*
X40757Y56170D02*
X41500Y55428D01*
X36257Y56170D02*
X40757D01*
X35357Y57070D02*
X36257Y56170D01*
X35357Y57070D02*
Y58220D01*
X35542Y58405D01*
X36107D01*
Y58770D01*
X35757Y59120D02*
X36107Y58770D01*
X35207Y59120D02*
X35757D01*
X34857Y59470D02*
X35207Y59120D01*
X34857Y59470D02*
Y60126D01*
X37799Y51263D02*
Y52878D01*
X37657Y53020D02*
X37799Y52878D01*
X39837Y50041D02*
X42037D01*
X39557Y50320D02*
X39837Y50041D01*
X42037D02*
X42407Y49670D01*
X39257Y34985D02*
X39822Y34985D01*
X40607Y35770D01*
X41257Y35770D01*
X36107Y57736D02*
X37087D01*
X32177Y57736D02*
X33157D01*
X42307Y62020D02*
X43233Y62946D01*
X38229Y62020D02*
X42307D01*
X37229Y63020D02*
X38229Y62020D01*
X46936Y62820D02*
X48507D01*
X34807Y63020D02*
X37229D01*
X48507Y62820D02*
X49807Y64120D01*
X34357Y62570D02*
X34807Y63020D01*
X49807Y64120D02*
X51007D01*
X34357Y62015D02*
Y62570D01*
X51007Y64120D02*
X51557Y64670D01*
Y66370D01*
X50807Y67120D02*
X51557Y66370D01*
X47407Y67120D02*
X50807D01*
X46107Y68420D02*
X47407Y67120D01*
X46107Y68420D02*
Y71170D01*
X46391Y71454D01*
X46835D01*
X43233Y63694D02*
Y63694D01*
X42207Y64720D02*
X43007Y63920D01*
X38257Y64720D02*
X42207D01*
X46957Y63820D02*
X48457D01*
X37207Y63670D02*
X38257Y64720D01*
X48457Y63820D02*
X49057Y64420D01*
X34807Y63670D02*
X37207D01*
X49057Y64420D02*
Y65770D01*
X33857Y62720D02*
X34807Y63670D01*
X48407Y66420D02*
X49057Y65770D01*
X33857Y62015D02*
Y62720D01*
X46907Y66420D02*
X48407D01*
X45507Y67820D02*
X46907Y66420D01*
X45507Y67820D02*
Y71770D01*
X46191Y72454D01*
X46835D01*
X31327Y29355D02*
X32307D01*
X34857Y62015D02*
X36107D01*
X38300Y68566D02*
Y69500D01*
X40300Y69893D02*
X41300Y70893D01*
X40300Y68566D02*
Y69893D01*
X36600Y67400D02*
X36900Y67700D01*
X34506Y67400D02*
X36600D01*
X40300Y70893D02*
Y71787D01*
X39800Y70393D02*
X40300Y70893D01*
X39800Y68566D02*
Y70393D01*
X40300Y72456D02*
Y74724D01*
X40800Y69393D02*
X41657Y70250D01*
X40800Y68566D02*
Y69393D01*
X41300Y72456D02*
Y74724D01*
X42300Y72456D02*
Y73860D01*
X41300Y70893D02*
Y71787D01*
X37300Y70893D02*
Y71787D01*
X35300Y72456D02*
Y74724D01*
X36300Y72456D02*
Y73860D01*
X36497Y71787D02*
X37127Y72417D01*
X37300D01*
X36300Y71787D02*
X36497D01*
X35300Y70893D02*
Y71787D01*
Y70893D02*
X36093Y70100D01*
X37700D01*
X38300Y69500D01*
X37300Y70893D02*
X37307D01*
X38300Y72453D02*
Y73857D01*
X43300Y70893D02*
Y71787D01*
X41657Y70250D02*
X42657D01*
X43300Y70893D01*
X37681Y70519D02*
X38281D01*
X37307Y70893D02*
X37681Y70519D01*
X38281D02*
X38800Y70000D01*
Y68566D02*
Y70000D01*
X38300Y71784D02*
X38497D01*
X39127Y72414D02*
X39300D01*
X38497Y71784D02*
X39127Y72414D01*
X42300Y71787D02*
X42497D01*
X43127Y72417D02*
X43300D01*
X42497Y71787D02*
X43127Y72417D01*
X35988Y55640D02*
X38060D01*
X39057Y54643D01*
Y52265D02*
Y54643D01*
X39300Y68566D02*
Y71787D01*
X39378Y51368D02*
Y52265D01*
X38810Y50800D02*
X39378Y51368D01*
X40343Y51616D02*
X40816D01*
X41100Y51900D01*
Y53500D01*
X40600Y54000D02*
X41100Y53500D01*
X39693Y52265D02*
Y54293D01*
X40600Y55200D01*
X33307Y54185D02*
X33307Y54185D01*
X33307Y54185D02*
Y54593D01*
D31*
X50000Y84000D02*
Y84890D01*
X49240Y85650D02*
X50000Y84890D01*
X44970Y85650D02*
X49240D01*
X43701Y84381D02*
X44970Y85650D01*
X43701Y80641D02*
Y84381D01*
X43233Y62946D02*
X45931D01*
X46057Y62820D01*
X46936D01*
X43233Y63694D02*
X45931D01*
X45931Y63694D02*
X46057Y63820D01*
X46957D01*
X31100Y68494D02*
Y69300D01*
X30100Y66300D02*
Y67706D01*
Y66300D02*
X30600Y65800D01*
X34000D01*
X34506Y66306D01*
Y67400D01*
X28906Y67706D02*
X30100D01*
X31100Y69300D02*
X31542Y69742D01*
X33600D01*
Y67458D02*
Y69742D01*
X41900Y74750D02*
X42530Y75380D01*
X41690Y74750D02*
X41900D01*
X42530Y75380D02*
Y79470D01*
X43701Y80641D01*
D32*
X50350Y32000D02*
Y34689D01*
X49213Y35827D02*
X50350Y34689D01*
X49213Y35827D02*
Y38976D01*
X53500Y43264D01*
Y70000D01*
X51000Y72500D02*
X53500Y70000D01*
X45600Y39300D02*
X50600Y44300D01*
Y54800D01*
X46932Y58468D02*
X50600Y54800D01*
X45600Y35896D02*
Y39300D01*
Y35896D02*
X46600Y34896D01*
Y32000D02*
Y34896D01*
D33*
X47323Y69954D02*
X47957D01*
X28657Y41422D02*
Y75700D01*
X34900Y38500D02*
X35857Y37543D01*
X31579Y38500D02*
X34900D01*
X28657Y41422D02*
X31579Y38500D01*
X35857Y36370D02*
Y37543D01*
X34263Y36265D02*
X35856D01*
X33768Y35770D02*
X34263Y36265D01*
X33257Y35770D02*
X33768D01*
X33257Y35120D02*
Y35770D01*
Y35120D02*
X33657Y34720D01*
X34107D01*
X34307Y34520D01*
Y30820D02*
Y34520D01*
X34357Y30220D02*
Y30770D01*
Y30220D02*
X34807Y29770D01*
X38007D01*
X38807Y28970D01*
X41257Y35820D02*
Y37643D01*
Y35770D02*
X41807D01*
X40550Y38350D02*
X41257Y37643D01*
X41807Y35770D02*
X42207Y35370D01*
X38450Y38350D02*
X40550D01*
X42207Y32770D02*
Y35370D01*
X37658Y37558D02*
X38450Y38350D01*
X41231Y31795D02*
X42207Y32770D01*
X37658Y37558D02*
X37659Y36265D01*
X41231Y30445D02*
Y31795D01*
X40642Y29856D02*
X41231Y30445D01*
X39122Y29856D02*
X40642D01*
X38857Y30120D02*
X39122Y29856D01*
X38857Y30120D02*
Y31470D01*
X38457Y31870D02*
X38857Y31470D01*
X37207Y31870D02*
X38457D01*
X36857Y30823D02*
Y31520D01*
X37207Y31870D01*
X46957Y69170D02*
Y70454D01*
Y70320D02*
X47323Y69954D01*
X46957Y69170D02*
X48057Y68070D01*
X51057D01*
X52307Y66820D01*
Y64020D02*
Y66820D01*
X51457Y63170D02*
X52307Y64020D01*
X50757Y63170D02*
X51457D01*
X48907Y61320D02*
X50757Y63170D01*
X47457Y61320D02*
X48907D01*
X46957Y61820D02*
X47457Y61320D01*
X46957Y73454D02*
X46991Y73420D01*
X45791Y73454D02*
X47457D01*
X44757Y72420D02*
X45791Y73454D01*
X44757Y67021D02*
Y72420D01*
Y67021D02*
X46957Y64820D01*
X47457D01*
X47932Y64345D01*
X42283Y27817D02*
Y28389D01*
Y27817D02*
X42900Y27200D01*
X45500D01*
X50325Y32025D01*
X41231Y28489D02*
Y29132D01*
X41900Y29800D01*
X44400D01*
X46600Y32000D01*
X48412Y72500D02*
X51000D01*
X47457Y73454D02*
X48412Y72500D01*
X46932Y58468D02*
Y61845D01*
X33600Y69742D02*
Y73750D01*
X34574Y74724D01*
X41664D01*
D34*
X43057Y62720D02*
X44007D01*
X43007Y63920D02*
X43757D01*
D35*
X50000Y83000D02*
D03*
X46000Y84000D02*
D03*
X47000Y83000D02*
D03*
X52000D02*
D03*
X51000Y84000D02*
D03*
Y83000D02*
D03*
X50000Y84000D02*
D03*
X49000D02*
D03*
Y83000D02*
D03*
X48000Y84000D02*
D03*
Y83000D02*
D03*
X47000Y84000D02*
D03*
X46000Y83000D02*
D03*
X45000D02*
D03*
X45207Y43670D02*
D03*
Y42670D02*
D03*
X44207Y43670D02*
D03*
Y42670D02*
D03*
X43207Y43670D02*
D03*
D36*
X52000Y84000D02*
D03*
X43207Y42670D02*
D03*
D37*
X45000Y84000D02*
D03*
X47957Y71954D02*
D03*
X47932Y63345D02*
D03*
X46957Y70454D02*
D03*
Y71454D02*
D03*
Y72454D02*
D03*
X47957Y72954D02*
D03*
X46957Y73454D02*
D03*
X46932Y61845D02*
D03*
Y62845D02*
D03*
Y63845D02*
D03*
X47932Y64345D02*
D03*
X46932Y64845D02*
D03*
X47000Y78200D02*
D03*
X46000D02*
D03*
X48000D02*
D03*
X49000D02*
D03*
X50000D02*
D03*
X51000D02*
D03*
X52000D02*
D03*
X45000D02*
D03*
X52000Y87100D02*
D03*
X51000D02*
D03*
X50000D02*
D03*
X49000D02*
D03*
X48000D02*
D03*
X47000D02*
D03*
X46000D02*
D03*
X45000D02*
D03*
D38*
X28878Y93307D02*
D03*
X52500D02*
D03*
Y37402D02*
D03*
X28878D02*
D03*
D39*
X46600Y32000D02*
D03*
X50350D02*
D03*
D40*
X47957Y70954D02*
D03*
X47932Y62345D02*
D03*
D41*
X50457Y69454D02*
D03*
Y73954D02*
D03*
X50432Y60845D02*
D03*
Y65345D02*
D03*
D42*
X47957Y69954D02*
D03*
X47932Y61345D02*
D03*
D43*
X36550Y80700D02*
D03*
X32500D02*
D03*
X38900Y49100D02*
D03*
X46081Y44446D02*
D03*
X37807Y44970D02*
D03*
X35907Y59770D02*
D03*
X38207Y57270D02*
D03*
X33500Y51300D02*
D03*
X41807Y45170D02*
D03*
X46307Y52870D02*
D03*
X45307Y49870D02*
D03*
X32250Y47600D02*
D03*
X31200Y58050D02*
D03*
X40707Y63320D02*
D03*
X28134Y30134D02*
D03*
X29134D02*
D03*
Y29134D02*
D03*
X28134D02*
D03*
X31257Y31220D02*
D03*
X43257Y32670D02*
D03*
Y34620D02*
D03*
Y35620D02*
D03*
Y33670D02*
D03*
X32157Y59870D02*
D03*
X37107D02*
D03*
X32307Y31220D02*
D03*
X36107Y62020D02*
D03*
X36257Y33170D02*
D03*
X37257D02*
D03*
X36257Y34170D02*
D03*
X37257D02*
D03*
X31840Y66680D02*
D03*
X39300Y70893D02*
D03*
X40300D02*
D03*
X41300Y70893D02*
D03*
X37300D02*
D03*
X35300Y70893D02*
D03*
X43300Y70893D02*
D03*
X42300Y73860D02*
D03*
X36300Y73860D02*
D03*
X38300Y73857D02*
D03*
X28657Y75700D02*
D03*
Y74700D02*
D03*
X38810Y50800D02*
D03*
X40600Y54000D02*
D03*
Y55200D02*
D03*
X34450Y71850D02*
D03*
X32250Y43550D02*
D03*
X52000Y53800D02*
D03*
Y57850D02*
D03*
X48228Y39961D02*
D03*
X52000Y44300D02*
D03*
X42900Y66005D02*
D03*
X45350Y60300D02*
D03*
M02*
