%FSLAX24Y24*%
%MOIN*%
G70*
G01*
G75*
G04 Layer_Physical_Order=2*
G04 Layer_Color=16711680*
%ADD10C,0.0394*%
%ADD11R,0.0354X0.0354*%
%ADD12R,0.0394X0.0945*%
%ADD13R,0.1299X0.0945*%
%ADD14R,0.0532X0.0453*%
%ADD15O,0.0217X0.0689*%
%ADD16O,0.0689X0.0217*%
%ADD17R,0.0472X0.1378*%
%ADD18R,0.0630X0.0236*%
%ADD19R,0.0335X0.0335*%
%ADD20R,0.0610X0.0925*%
%ADD21R,0.0335X0.0669*%
%ADD22R,0.0866X0.0925*%
%ADD23R,0.0394X0.0394*%
%ADD24R,0.0630X0.1181*%
%ADD25O,0.0236X0.0866*%
%ADD26R,0.0492X0.1201*%
%ADD27R,0.2185X0.2559*%
%ADD28R,0.0787X0.2362*%
%ADD29R,0.0532X0.0453*%
%ADD30C,0.0150*%
%ADD31C,0.0300*%
%ADD32C,0.1000*%
%ADD33C,0.0500*%
%ADD34C,0.0250*%
%ADD35C,0.0591*%
%ADD36R,0.0591X0.0591*%
%ADD37C,0.0591*%
%ADD38P,0.2706X8X22.5*%
%ADD39C,0.1800*%
%ADD40C,0.0630*%
%ADD41C,0.1161*%
%ADD42R,0.0591X0.0591*%
%ADD43C,0.0500*%
%ADD44C,0.0394*%
G36*
X54304Y26302D02*
X27153Y26287D01*
Y26287D01*
Y94973D01*
X54304D01*
Y26302D01*
D02*
G37*
%LPC*%
G36*
X36607Y60848D02*
X32757D01*
X32751Y60847D01*
X32744Y60848D01*
X32708Y60842D01*
X32672Y60837D01*
X32666Y60835D01*
X32660Y60833D01*
X32627Y60818D01*
X32593Y60804D01*
X32588Y60800D01*
X32582Y60798D01*
X32554Y60774D01*
X32525Y60752D01*
X32521Y60747D01*
X32516Y60743D01*
X32174Y60373D01*
X32157Y60375D01*
X32027Y60358D01*
X31905Y60307D01*
X31800Y60227D01*
X31720Y60123D01*
X31670Y60001D01*
X31653Y59870D01*
X31670Y59740D01*
X31720Y59618D01*
X31800Y59514D01*
X31905Y59434D01*
X32027Y59383D01*
X32157Y59366D01*
X32288Y59383D01*
X32409Y59434D01*
X32514Y59514D01*
X32594Y59618D01*
X32644Y59740D01*
X32661Y59870D01*
X32654Y59926D01*
X32901Y60193D01*
X36471D01*
X36633Y60031D01*
X36620Y60001D01*
X36603Y59870D01*
X36620Y59740D01*
X36670Y59618D01*
X36750Y59514D01*
X36855Y59434D01*
X36977Y59383D01*
X37107Y59366D01*
X37238Y59383D01*
X37359Y59434D01*
X37464Y59514D01*
X37544Y59618D01*
X37594Y59740D01*
X37611Y59870D01*
X37594Y60001D01*
X37544Y60123D01*
X37464Y60227D01*
X37359Y60307D01*
X37238Y60358D01*
X37233Y60358D01*
X36839Y60752D01*
X36771Y60804D01*
X36731Y60821D01*
X36692Y60837D01*
X36650Y60843D01*
X36607Y60848D01*
D02*
G37*
G36*
X50432Y66240D02*
X50258Y66222D01*
X50090Y66171D01*
X49935Y66089D01*
X49800Y65978D01*
X49689Y65842D01*
X49606Y65688D01*
X49555Y65520D01*
X49538Y65345D01*
X49555Y65171D01*
X49606Y65003D01*
X49689Y64849D01*
X49800Y64713D01*
X49935Y64602D01*
X50090Y64519D01*
X50258Y64469D01*
X50432Y64451D01*
X50607Y64469D01*
X50774Y64519D01*
X50929Y64602D01*
X51064Y64713D01*
X51175Y64849D01*
X51258Y65003D01*
X51309Y65171D01*
X51326Y65345D01*
X51309Y65520D01*
X51258Y65688D01*
X51175Y65842D01*
X51064Y65978D01*
X50929Y66089D01*
X50774Y66171D01*
X50607Y66222D01*
X50432Y66240D01*
D02*
G37*
G36*
Y61740D02*
X50258Y61722D01*
X50090Y61671D01*
X49935Y61589D01*
X49800Y61478D01*
X49689Y61342D01*
X49606Y61188D01*
X49555Y61020D01*
X49538Y60845D01*
X49555Y60671D01*
X49606Y60503D01*
X49689Y60349D01*
X49800Y60213D01*
X49935Y60102D01*
X50090Y60019D01*
X50258Y59969D01*
X50432Y59951D01*
X50607Y59969D01*
X50774Y60019D01*
X50929Y60102D01*
X51064Y60213D01*
X51175Y60349D01*
X51258Y60503D01*
X51309Y60671D01*
X51326Y60845D01*
X51309Y61020D01*
X51258Y61188D01*
X51175Y61342D01*
X51064Y61478D01*
X50929Y61589D01*
X50774Y61671D01*
X50607Y61722D01*
X50432Y61740D01*
D02*
G37*
G36*
X46932Y65395D02*
X46790Y65377D01*
X46657Y65322D01*
X46543Y65234D01*
X46456Y65120D01*
X46401Y64988D01*
X46382Y64845D01*
X46401Y64703D01*
X46456Y64570D01*
X46543Y64457D01*
X46657Y64369D01*
X46714Y64345D01*
Y64345D01*
D01*
D01*
D01*
X46657Y64322D01*
X46543Y64234D01*
X46456Y64120D01*
X46401Y63988D01*
X46382Y63845D01*
X46401Y63703D01*
X46456Y63570D01*
X46543Y63457D01*
X46657Y63369D01*
X46714Y63345D01*
Y63345D01*
D01*
D01*
D01*
X46657Y63322D01*
X46543Y63234D01*
X46456Y63120D01*
X46401Y62988D01*
X46382Y62845D01*
X46401Y62703D01*
X46456Y62570D01*
X46543Y62457D01*
X46657Y62369D01*
X46714Y62345D01*
Y62345D01*
D01*
D01*
D01*
X46657Y62322D01*
X46543Y62234D01*
X46456Y62120D01*
X46401Y61988D01*
X46382Y61845D01*
X46401Y61703D01*
X46456Y61570D01*
X46543Y61457D01*
X46657Y61369D01*
X46790Y61314D01*
X46932Y61295D01*
X47074Y61314D01*
X47207Y61369D01*
X47321Y61457D01*
X47387Y61542D01*
D01*
Y60800D01*
X48477D01*
Y61891D01*
X48268D01*
D01*
X48335Y61943D01*
X48426Y62061D01*
X48483Y62198D01*
X48502Y62345D01*
X48483Y62493D01*
X48426Y62630D01*
X48335Y62748D01*
X48217Y62839D01*
X48176Y62856D01*
X48176Y62856D01*
X48207Y62869D01*
X48321Y62957D01*
X48408Y63070D01*
X48463Y63203D01*
X48482Y63345D01*
X48463Y63488D01*
X48408Y63620D01*
X48321Y63734D01*
X48207Y63822D01*
X48150Y63845D01*
X48150D01*
X48207Y63869D01*
X48321Y63957D01*
X48408Y64070D01*
X48463Y64203D01*
X48482Y64345D01*
X48463Y64488D01*
X48408Y64620D01*
X48321Y64734D01*
X48207Y64822D01*
X48074Y64877D01*
X47932Y64895D01*
X47790Y64877D01*
X47657Y64822D01*
X47543Y64734D01*
X47456Y64620D01*
X47401Y64488D01*
X47382Y64345D01*
X47401Y64203D01*
X47456Y64070D01*
X47543Y63957D01*
X47657Y63869D01*
X47714Y63845D01*
Y63845D01*
D01*
D01*
D01*
X47657Y63822D01*
X47543Y63734D01*
X47456Y63620D01*
X47401Y63488D01*
X47382Y63345D01*
X47401Y63203D01*
X47456Y63070D01*
X47543Y62957D01*
X47657Y62869D01*
X47689Y62856D01*
D01*
D01*
Y62856D01*
D01*
X47647Y62839D01*
X47529Y62748D01*
X47439Y62630D01*
X47382Y62493D01*
X47362Y62345D01*
X47382Y62198D01*
X47439Y62061D01*
X47529Y61943D01*
X47597Y61891D01*
Y61891D01*
X47597D01*
X47597D01*
X47476D01*
X47463Y61988D01*
X47408Y62120D01*
X47321Y62234D01*
X47207Y62322D01*
X47150Y62345D01*
X47150D01*
X47207Y62369D01*
X47321Y62457D01*
X47408Y62570D01*
X47463Y62703D01*
X47482Y62845D01*
X47463Y62988D01*
X47408Y63120D01*
X47321Y63234D01*
X47207Y63322D01*
X47150Y63345D01*
X47150D01*
X47207Y63369D01*
X47321Y63457D01*
X47408Y63570D01*
X47463Y63703D01*
X47482Y63845D01*
X47463Y63988D01*
X47408Y64120D01*
X47321Y64234D01*
X47207Y64322D01*
X47150Y64345D01*
X47150D01*
X47207Y64369D01*
X47321Y64457D01*
X47408Y64570D01*
X47463Y64703D01*
X47482Y64845D01*
X47463Y64988D01*
X47408Y65120D01*
X47321Y65234D01*
X47207Y65322D01*
X47074Y65377D01*
X46932Y65395D01*
D02*
G37*
G36*
X37300Y71397D02*
X37169Y71380D01*
X37048Y71329D01*
X36943Y71249D01*
X36863Y71145D01*
X36813Y71023D01*
X36796Y70893D01*
X36800Y70857D01*
X35168Y69224D01*
X35116Y69156D01*
X35100Y69117D01*
X35083Y69077D01*
X35078Y69035D01*
X35072Y68993D01*
Y66036D01*
X34664Y65628D01*
X31600D01*
X31515Y65617D01*
X31436Y65584D01*
X31398Y65554D01*
X31368Y65532D01*
X28468Y62632D01*
X28416Y62564D01*
X28400Y62524D01*
X28383Y62485D01*
X28378Y62442D01*
X28372Y62400D01*
Y56900D01*
X28378Y56858D01*
X28383Y56815D01*
X28400Y56776D01*
X28416Y56736D01*
X28468Y56668D01*
X28468Y56668D01*
X28468Y56668D01*
X32068Y53068D01*
X32136Y53016D01*
X32215Y52983D01*
X32300Y52972D01*
X36664D01*
X36872Y52764D01*
Y51300D01*
X36878Y51258D01*
X36883Y51215D01*
X36900Y51176D01*
X36916Y51136D01*
X36968Y51068D01*
X36968Y51068D01*
X36968Y51068D01*
X37468Y50568D01*
X37536Y50516D01*
X37615Y50483D01*
X37700Y50472D01*
X38431D01*
X38453Y50443D01*
X38558Y50363D01*
X38679Y50313D01*
X38810Y50296D01*
X38941Y50313D01*
X39062Y50363D01*
X39167Y50443D01*
X39247Y50548D01*
X39297Y50669D01*
X39314Y50800D01*
X39297Y50931D01*
X39247Y51052D01*
X39167Y51157D01*
X39062Y51237D01*
X38941Y51287D01*
X38810Y51304D01*
X38679Y51287D01*
X38558Y51237D01*
X38453Y51157D01*
X38431Y51128D01*
X37836D01*
X37528Y51436D01*
Y52900D01*
X37518Y52975D01*
X37517Y52985D01*
X37507Y53008D01*
X37484Y53064D01*
X37454Y53102D01*
X37432Y53132D01*
X37032Y53532D01*
X36964Y53584D01*
X36924Y53600D01*
X36885Y53617D01*
X36842Y53622D01*
X36800Y53628D01*
X32436D01*
X29028Y57036D01*
Y62264D01*
X31736Y64972D01*
X34800D01*
X34842Y64978D01*
X34885Y64983D01*
X34924Y65000D01*
X34964Y65016D01*
X35032Y65068D01*
X35032Y65068D01*
X35032Y65068D01*
X35632Y65668D01*
X35654Y65698D01*
X35684Y65736D01*
X35700Y65776D01*
X35717Y65815D01*
X35722Y65858D01*
X35728Y65900D01*
Y68857D01*
X37264Y70393D01*
X37300Y70388D01*
X37431Y70405D01*
X37552Y70456D01*
X37657Y70536D01*
X37737Y70640D01*
X37787Y70762D01*
X37804Y70893D01*
X37787Y71023D01*
X37737Y71145D01*
X37657Y71249D01*
X37552Y71329D01*
X37431Y71380D01*
X37300Y71397D01*
D02*
G37*
G36*
X43300Y71397D02*
X43169Y71380D01*
X43048Y71329D01*
X42943Y71249D01*
X42863Y71145D01*
X42813Y71023D01*
X42796Y70893D01*
X42800Y70857D01*
X42272Y70328D01*
X39400D01*
X39315Y70317D01*
X39259Y70293D01*
X39236Y70284D01*
X39207Y70261D01*
X39168Y70232D01*
X36543Y67607D01*
X36491Y67539D01*
X36475Y67499D01*
X36458Y67460D01*
X36453Y67417D01*
X36447Y67375D01*
Y65311D01*
X35364Y64228D01*
X32200D01*
X32125Y64218D01*
X32115Y64217D01*
X32092Y64207D01*
X32036Y64184D01*
X31998Y64154D01*
X31968Y64132D01*
X29868Y62032D01*
X29816Y61964D01*
X29800Y61924D01*
X29783Y61885D01*
X29778Y61842D01*
X29772Y61800D01*
Y57400D01*
X29778Y57358D01*
X29783Y57315D01*
X29800Y57276D01*
X29816Y57236D01*
X29868Y57168D01*
X29868Y57168D01*
X29868Y57168D01*
X31098Y55939D01*
X31109Y55930D01*
X31166Y55887D01*
X31245Y55854D01*
X31330Y55843D01*
X40046D01*
X40272Y55616D01*
Y55579D01*
X40243Y55557D01*
X40163Y55452D01*
X40113Y55331D01*
X40096Y55200D01*
X40113Y55069D01*
X40163Y54948D01*
X40243Y54843D01*
X40348Y54763D01*
X40469Y54713D01*
X40600Y54696D01*
X40731Y54713D01*
X40852Y54763D01*
X40957Y54843D01*
X41037Y54948D01*
X41087Y55069D01*
X41104Y55200D01*
X41087Y55331D01*
X41037Y55452D01*
X40957Y55557D01*
X40928Y55579D01*
Y55752D01*
X40917Y55837D01*
X40893Y55893D01*
X40884Y55916D01*
X40861Y55945D01*
X40832Y55984D01*
X40413Y56402D01*
X40345Y56454D01*
X40266Y56487D01*
X40182Y56498D01*
X40182Y56498D01*
X31465D01*
X30428Y57536D01*
Y61664D01*
X32336Y63572D01*
X35500D01*
X35542Y63578D01*
X35585Y63583D01*
X35624Y63600D01*
X35664Y63616D01*
X35732Y63668D01*
X35732Y63668D01*
X35732Y63668D01*
X37007Y64943D01*
X37029Y64973D01*
X37059Y65011D01*
X37092Y65090D01*
X37103Y65175D01*
Y67239D01*
X39536Y69672D01*
X42407D01*
X42450Y69678D01*
X42492Y69683D01*
X42532Y69700D01*
X42571Y69716D01*
X42639Y69768D01*
X42639Y69768D01*
X42639Y69768D01*
X43264Y70393D01*
X43300Y70388D01*
X43431Y70405D01*
X43552Y70456D01*
X43657Y70536D01*
X43737Y70640D01*
X43787Y70762D01*
X43804Y70893D01*
X43787Y71023D01*
X43737Y71145D01*
X43657Y71249D01*
X43552Y71329D01*
X43431Y71380D01*
X43300Y71397D01*
D02*
G37*
G36*
X50457Y70348D02*
X50283Y70331D01*
X50115Y70280D01*
X49961Y70198D01*
X49825Y70087D01*
X49714Y69951D01*
X49631Y69796D01*
X49581Y69629D01*
X49563Y69454D01*
X49581Y69280D01*
X49631Y69112D01*
X49714Y68958D01*
X49825Y68822D01*
X49961Y68711D01*
X50115Y68628D01*
X50283Y68577D01*
X50457Y68560D01*
X50632Y68577D01*
X50800Y68628D01*
X50954Y68711D01*
X51090Y68822D01*
X51201Y68958D01*
X51283Y69112D01*
X51334Y69280D01*
X51352Y69454D01*
X51334Y69629D01*
X51283Y69796D01*
X51201Y69951D01*
X51090Y70087D01*
X50954Y70198D01*
X50800Y70280D01*
X50632Y70331D01*
X50457Y70348D01*
D02*
G37*
G36*
X46957Y74004D02*
X46815Y73986D01*
X46682Y73931D01*
X46569Y73843D01*
X46481Y73729D01*
X46426Y73597D01*
X46407Y73454D01*
X46426Y73312D01*
X46481Y73179D01*
X46569Y73065D01*
X46682Y72978D01*
X46740Y72954D01*
Y72954D01*
D01*
D01*
D01*
X46682Y72931D01*
X46569Y72843D01*
X46481Y72729D01*
X46426Y72597D01*
X46407Y72454D01*
X46426Y72312D01*
X46481Y72179D01*
X46569Y72065D01*
X46682Y71978D01*
X46740Y71954D01*
Y71954D01*
D01*
D01*
D01*
X46682Y71931D01*
X46569Y71843D01*
X46481Y71729D01*
X46426Y71597D01*
X46407Y71454D01*
X46426Y71312D01*
X46481Y71179D01*
X46569Y71065D01*
X46682Y70978D01*
X46740Y70954D01*
Y70954D01*
D01*
D01*
D01*
X46682Y70931D01*
X46569Y70843D01*
X46481Y70729D01*
X46426Y70597D01*
X46407Y70454D01*
X46426Y70312D01*
X46481Y70179D01*
X46569Y70065D01*
X46682Y69978D01*
X46815Y69923D01*
X46957Y69904D01*
X47100Y69923D01*
X47232Y69978D01*
X47346Y70065D01*
X47412Y70151D01*
D01*
Y69409D01*
X48503D01*
Y70500D01*
X48293D01*
D01*
X48360Y70551D01*
X48451Y70669D01*
X48508Y70807D01*
X48527Y70954D01*
X48508Y71102D01*
X48451Y71239D01*
X48360Y71357D01*
X48242Y71448D01*
X48201Y71465D01*
X48201Y71465D01*
X48232Y71478D01*
X48346Y71565D01*
X48434Y71679D01*
X48489Y71812D01*
X48507Y71954D01*
X48489Y72097D01*
X48434Y72229D01*
X48346Y72343D01*
X48232Y72431D01*
X48175Y72454D01*
X48175D01*
X48232Y72478D01*
X48346Y72565D01*
X48434Y72679D01*
X48489Y72812D01*
X48507Y72954D01*
X48489Y73097D01*
X48434Y73229D01*
X48346Y73343D01*
X48232Y73431D01*
X48100Y73486D01*
X47957Y73504D01*
X47815Y73486D01*
X47682Y73431D01*
X47569Y73343D01*
X47481Y73229D01*
X47426Y73097D01*
X47407Y72954D01*
X47426Y72812D01*
X47481Y72679D01*
X47569Y72565D01*
X47682Y72478D01*
X47740Y72454D01*
Y72454D01*
D01*
D01*
D01*
X47682Y72431D01*
X47569Y72343D01*
X47481Y72229D01*
X47426Y72097D01*
X47407Y71954D01*
X47426Y71812D01*
X47481Y71679D01*
X47569Y71565D01*
X47682Y71478D01*
X47714Y71465D01*
D01*
D01*
Y71465D01*
D01*
X47673Y71448D01*
X47555Y71357D01*
X47464Y71239D01*
X47407Y71102D01*
X47388Y70954D01*
X47407Y70807D01*
X47464Y70669D01*
X47555Y70551D01*
X47622Y70500D01*
Y70500D01*
X47622D01*
X47622D01*
X47501D01*
X47489Y70597D01*
X47434Y70729D01*
X47346Y70843D01*
X47232Y70931D01*
X47175Y70954D01*
X47175D01*
X47232Y70978D01*
X47346Y71065D01*
X47434Y71179D01*
X47489Y71312D01*
X47507Y71454D01*
X47489Y71597D01*
X47434Y71729D01*
X47346Y71843D01*
X47232Y71931D01*
X47175Y71954D01*
X47232Y71978D01*
X47346Y72065D01*
X47434Y72179D01*
X47489Y72312D01*
X47507Y72454D01*
X47489Y72597D01*
X47434Y72729D01*
X47346Y72843D01*
X47232Y72931D01*
X47175Y72954D01*
X47175D01*
X47232Y72978D01*
X47346Y73065D01*
X47434Y73179D01*
X47489Y73312D01*
X47507Y73454D01*
X47489Y73597D01*
X47434Y73729D01*
X47346Y73843D01*
X47232Y73931D01*
X47100Y73986D01*
X46957Y74004D01*
D02*
G37*
G36*
X46600Y33154D02*
X46420Y33139D01*
X46244Y33097D01*
X46076Y33028D01*
X45922Y32933D01*
X45784Y32816D01*
X45667Y32678D01*
X45572Y32524D01*
X45503Y32356D01*
X45461Y32180D01*
X45446Y32000D01*
X45461Y31820D01*
X45503Y31644D01*
X45572Y31476D01*
X45667Y31322D01*
X45784Y31184D01*
X45922Y31067D01*
X46076Y30972D01*
X46244Y30903D01*
X46420Y30861D01*
X46600Y30846D01*
X46780Y30861D01*
X46956Y30903D01*
X47124Y30972D01*
X47278Y31067D01*
X47416Y31184D01*
X47533Y31322D01*
X47628Y31476D01*
X47697Y31644D01*
X47739Y31820D01*
X47754Y32000D01*
X47739Y32180D01*
X47697Y32356D01*
X47628Y32524D01*
X47533Y32678D01*
X47416Y32816D01*
X47278Y32933D01*
X47124Y33028D01*
X46956Y33097D01*
X46780Y33139D01*
X46600Y33154D01*
D02*
G37*
G36*
X50350D02*
X50170Y33139D01*
X49994Y33097D01*
X49826Y33028D01*
X49672Y32933D01*
X49534Y32816D01*
X49417Y32678D01*
X49322Y32524D01*
X49253Y32356D01*
X49211Y32180D01*
X49196Y32000D01*
X49211Y31820D01*
X49253Y31644D01*
X49322Y31476D01*
X49417Y31322D01*
X49534Y31184D01*
X49672Y31067D01*
X49826Y30972D01*
X49994Y30903D01*
X50170Y30861D01*
X50350Y30846D01*
X50530Y30861D01*
X50706Y30903D01*
X50874Y30972D01*
X51028Y31067D01*
X51166Y31184D01*
X51283Y31322D01*
X51378Y31476D01*
X51447Y31644D01*
X51489Y31820D01*
X51504Y32000D01*
X51489Y32180D01*
X51447Y32356D01*
X51378Y32524D01*
X51283Y32678D01*
X51166Y32816D01*
X51028Y32933D01*
X50874Y33028D01*
X50706Y33097D01*
X50530Y33139D01*
X50350Y33154D01*
D02*
G37*
G36*
X53000Y27951D02*
X52883Y27935D01*
X52775Y27890D01*
X52681Y27819D01*
X52610Y27725D01*
X52565Y27617D01*
X52549Y27500D01*
X52565Y27383D01*
X52610Y27275D01*
X52681Y27181D01*
X52775Y27110D01*
X52883Y27065D01*
X53000Y27049D01*
X53117Y27065D01*
X53225Y27110D01*
X53319Y27181D01*
X53390Y27275D01*
X53435Y27383D01*
X53451Y27500D01*
X53435Y27617D01*
X53390Y27725D01*
X53319Y27819D01*
X53225Y27890D01*
X53117Y27935D01*
X53000Y27951D01*
D02*
G37*
G36*
X32307Y31725D02*
X32177Y31708D01*
X32055Y31657D01*
X31950Y31577D01*
X31870Y31473D01*
X31820Y31351D01*
X31803Y31220D01*
X31820Y31090D01*
X31870Y30968D01*
X31950Y30864D01*
X32055Y30784D01*
X32177Y30733D01*
X32307Y30716D01*
X32438Y30733D01*
X32559Y30784D01*
X32664Y30864D01*
X32744Y30968D01*
X32794Y31090D01*
X32811Y31220D01*
X32794Y31351D01*
X32744Y31473D01*
X32664Y31577D01*
X32559Y31657D01*
X32438Y31708D01*
X32307Y31725D01*
D02*
G37*
G36*
X53250Y38902D02*
X51750D01*
X51000Y38152D01*
Y36652D01*
X51750Y35902D01*
X53250D01*
X54000Y36652D01*
Y38152D01*
X53250Y38902D01*
D02*
G37*
G36*
X44207Y44220D02*
X44065Y44202D01*
X43932Y44147D01*
X43818Y44059D01*
X43731Y43945D01*
X43707Y43888D01*
D01*
D01*
D01*
X43707D01*
X43683Y43945D01*
X43596Y44059D01*
X43482Y44147D01*
X43349Y44202D01*
X43207Y44220D01*
X43065Y44202D01*
X42932Y44147D01*
X42818Y44059D01*
X42731Y43945D01*
X42676Y43813D01*
X42657Y43670D01*
X42676Y43528D01*
X42731Y43395D01*
X42818Y43282D01*
X42904Y43216D01*
X42904Y43216D01*
X42904D01*
D01*
X42662D01*
Y42125D01*
X43752D01*
Y42367D01*
X43752D01*
D01*
X43818Y42282D01*
X43932Y42194D01*
X44065Y42139D01*
X44207Y42120D01*
X44349Y42139D01*
X44482Y42194D01*
X44596Y42282D01*
X44683Y42395D01*
X44707Y42453D01*
Y42453D01*
X44731Y42395D01*
X44818Y42282D01*
X44932Y42194D01*
X45065Y42139D01*
X45207Y42120D01*
X45349Y42139D01*
X45482Y42194D01*
X45596Y42282D01*
X45683Y42395D01*
X45738Y42528D01*
X45757Y42670D01*
X45738Y42813D01*
X45683Y42945D01*
X45596Y43059D01*
X45482Y43147D01*
X45349Y43202D01*
X45207Y43220D01*
X45065Y43202D01*
X44932Y43147D01*
X44818Y43059D01*
X44731Y42945D01*
X44707Y42888D01*
D01*
D01*
D01*
X44707D01*
X44683Y42945D01*
X44596Y43059D01*
X44482Y43147D01*
X44425Y43170D01*
X44425D01*
X44482Y43194D01*
X44596Y43282D01*
X44683Y43395D01*
X44738Y43528D01*
X44757Y43670D01*
X44738Y43813D01*
X44683Y43945D01*
X44596Y44059D01*
X44482Y44147D01*
X44349Y44202D01*
X44207Y44220D01*
D02*
G37*
G36*
X27900Y34251D02*
X27783Y34235D01*
X27675Y34190D01*
X27581Y34119D01*
X27510Y34025D01*
X27465Y33917D01*
X27449Y33800D01*
X27465Y33683D01*
X27510Y33575D01*
X27581Y33481D01*
X27675Y33410D01*
X27783Y33365D01*
X27900Y33349D01*
X28017Y33365D01*
X28125Y33410D01*
X28219Y33481D01*
X28290Y33575D01*
X28335Y33683D01*
X28351Y33800D01*
X28335Y33917D01*
X28290Y34025D01*
X28219Y34119D01*
X28125Y34190D01*
X28017Y34235D01*
X27900Y34251D01*
D02*
G37*
G36*
X29628Y38902D02*
X28128D01*
X27378Y38152D01*
Y36652D01*
X28128Y35902D01*
X29628D01*
X30378Y36652D01*
Y38152D01*
X29628Y38902D01*
D02*
G37*
G36*
Y94807D02*
X28128D01*
X27378Y94057D01*
Y92557D01*
X28128Y91807D01*
X29628D01*
X30378Y92557D01*
Y94057D01*
X29628Y94807D01*
D02*
G37*
G36*
X29600Y90251D02*
X29483Y90235D01*
X29375Y90190D01*
X29281Y90119D01*
X29210Y90025D01*
X29165Y89917D01*
X29149Y89800D01*
X29165Y89683D01*
X29210Y89575D01*
X29281Y89481D01*
X29375Y89410D01*
X29483Y89365D01*
X29600Y89349D01*
X29717Y89365D01*
X29825Y89410D01*
X29919Y89481D01*
X29990Y89575D01*
X30035Y89683D01*
X30051Y89800D01*
X30035Y89917D01*
X29990Y90025D01*
X29919Y90119D01*
X29825Y90190D01*
X29717Y90235D01*
X29600Y90251D01*
D02*
G37*
G36*
X52000Y87650D02*
X51858Y87631D01*
X51725Y87576D01*
X51611Y87489D01*
X51524Y87375D01*
X51500Y87318D01*
D01*
D01*
D01*
X51500D01*
X51476Y87375D01*
X51389Y87489D01*
X51275Y87576D01*
X51142Y87631D01*
X51000Y87650D01*
X50858Y87631D01*
X50725Y87576D01*
X50611Y87489D01*
X50524Y87375D01*
X50500Y87318D01*
D01*
D01*
D01*
X50500D01*
X50476Y87375D01*
X50389Y87489D01*
X50275Y87576D01*
X50142Y87631D01*
X50000Y87650D01*
X49858Y87631D01*
X49725Y87576D01*
X49611Y87489D01*
X49524Y87375D01*
X49500Y87318D01*
D01*
D01*
D01*
X49500D01*
X49476Y87375D01*
X49389Y87489D01*
X49275Y87576D01*
X49142Y87631D01*
X49000Y87650D01*
X48858Y87631D01*
X48725Y87576D01*
X48611Y87489D01*
X48524Y87375D01*
X48500Y87318D01*
D01*
D01*
D01*
X48500D01*
X48476Y87375D01*
X48389Y87489D01*
X48275Y87576D01*
X48142Y87631D01*
X48000Y87650D01*
X47858Y87631D01*
X47725Y87576D01*
X47611Y87489D01*
X47524Y87375D01*
X47469Y87242D01*
X47450Y87100D01*
X47469Y86958D01*
X47524Y86825D01*
X47611Y86711D01*
X47672Y86664D01*
Y84436D01*
X47611Y84389D01*
X47524Y84275D01*
X47469Y84142D01*
X47450Y84000D01*
X47469Y83858D01*
X47524Y83725D01*
X47611Y83611D01*
X47725Y83524D01*
X47782Y83500D01*
Y83500D01*
D01*
D01*
D01*
X47725Y83476D01*
X47611Y83389D01*
X47524Y83275D01*
X47500Y83218D01*
D01*
D01*
D01*
X47500D01*
X47476Y83275D01*
X47389Y83389D01*
X47275Y83476D01*
X47142Y83531D01*
X47000Y83550D01*
X46858Y83531D01*
X46725Y83476D01*
X46611Y83389D01*
X46524Y83275D01*
X46500Y83218D01*
D01*
D01*
D01*
X46500D01*
X46476Y83275D01*
X46389Y83389D01*
X46275Y83476D01*
X46218Y83500D01*
X46218D01*
X46275Y83524D01*
X46389Y83611D01*
X46476Y83725D01*
X46531Y83858D01*
X46550Y84000D01*
X46531Y84142D01*
X46476Y84275D01*
X46389Y84389D01*
X46328Y84436D01*
Y86664D01*
X46389Y86711D01*
X46476Y86825D01*
X46531Y86958D01*
X46550Y87100D01*
X46531Y87242D01*
X46476Y87375D01*
X46389Y87489D01*
X46275Y87576D01*
X46142Y87631D01*
X46000Y87650D01*
X45858Y87631D01*
X45725Y87576D01*
X45611Y87489D01*
X45524Y87375D01*
X45500Y87318D01*
D01*
D01*
D01*
X45500D01*
X45476Y87375D01*
X45389Y87489D01*
X45275Y87576D01*
X45142Y87631D01*
X45000Y87650D01*
X44858Y87631D01*
X44725Y87576D01*
X44611Y87489D01*
X44524Y87375D01*
X44469Y87242D01*
X44450Y87100D01*
X44469Y86958D01*
X44524Y86825D01*
X44611Y86711D01*
X44672Y86664D01*
Y84436D01*
X44611Y84389D01*
X44524Y84275D01*
X44469Y84142D01*
X44450Y84000D01*
X44469Y83858D01*
X44524Y83725D01*
X44611Y83611D01*
X44725Y83524D01*
X44782Y83500D01*
Y83500D01*
D01*
D01*
D01*
X44725Y83476D01*
X44611Y83389D01*
X44524Y83275D01*
X44469Y83142D01*
X44450Y83000D01*
X44469Y82858D01*
X44524Y82725D01*
X44611Y82611D01*
X44672Y82564D01*
Y81057D01*
X42808Y79193D01*
X42756Y79125D01*
X42740Y79086D01*
X42723Y79046D01*
X42718Y79004D01*
X42712Y78961D01*
Y75154D01*
D01*
Y75154D01*
X42712Y75154D01*
X42657Y75227D01*
X42292Y75591D01*
X42188Y75671D01*
X42066Y75721D01*
X41936Y75739D01*
X29490D01*
X29402Y75828D01*
Y75950D01*
X29383Y76048D01*
X29327Y76130D01*
X29077Y76380D01*
X28995Y76435D01*
X28897Y76455D01*
X28397D01*
X28300Y76435D01*
X28217Y76380D01*
X27967Y76130D01*
X27912Y76048D01*
X27892Y75950D01*
Y74450D01*
X27912Y74352D01*
X27967Y74270D01*
X28217Y74020D01*
X28300Y73965D01*
X28397Y73945D01*
X28897D01*
X28995Y73965D01*
X29077Y74020D01*
X29327Y74270D01*
X29383Y74352D01*
X29402Y74450D01*
Y74589D01*
X29543Y74730D01*
X35620D01*
X35972Y74377D01*
Y74239D01*
X35943Y74217D01*
X35863Y74112D01*
X35813Y73991D01*
X35796Y73860D01*
X35813Y73729D01*
X35863Y73608D01*
X35943Y73503D01*
X36048Y73423D01*
X36169Y73373D01*
X36300Y73356D01*
X36431Y73373D01*
X36552Y73423D01*
X36657Y73503D01*
X36737Y73608D01*
X36787Y73729D01*
X36804Y73860D01*
X36787Y73991D01*
X36737Y74112D01*
X36657Y74217D01*
X36628Y74239D01*
Y74394D01*
X36970Y74730D01*
X37627D01*
X37972Y74385D01*
Y74236D01*
X37943Y74214D01*
X37863Y74110D01*
X37813Y73988D01*
X37796Y73857D01*
X37813Y73727D01*
X37863Y73605D01*
X37943Y73501D01*
X38048Y73421D01*
X38169Y73370D01*
X38300Y73353D01*
X38431Y73370D01*
X38552Y73421D01*
X38657Y73501D01*
X38737Y73605D01*
X38787Y73727D01*
X38804Y73857D01*
X38787Y73988D01*
X38737Y74110D01*
X38657Y74214D01*
X38628Y74236D01*
Y74402D01*
X38962Y74730D01*
X41727D01*
X41943Y74513D01*
X41972Y74491D01*
Y74239D01*
X41943Y74217D01*
X41863Y74112D01*
X41813Y73991D01*
X41796Y73860D01*
X41813Y73729D01*
X41863Y73608D01*
X41943Y73503D01*
X42048Y73423D01*
X42169Y73373D01*
X42300Y73356D01*
X42431Y73373D01*
X42552Y73423D01*
X42657Y73503D01*
X42712Y73576D01*
Y73576D01*
Y73406D01*
X42334Y73028D01*
X37107D01*
X37065Y73022D01*
X37023Y73017D01*
X36983Y73000D01*
X36944Y72984D01*
X36876Y72932D01*
X35336Y71392D01*
X35300Y71397D01*
X35169Y71380D01*
X35048Y71329D01*
X34943Y71249D01*
X34863Y71145D01*
X34813Y71023D01*
X34796Y70893D01*
X34813Y70762D01*
X34863Y70640D01*
X34943Y70536D01*
X35048Y70456D01*
X35169Y70405D01*
X35300Y70388D01*
X35431Y70405D01*
X35552Y70456D01*
X35657Y70536D01*
X35737Y70640D01*
X35787Y70762D01*
X35804Y70893D01*
X35800Y70929D01*
X37243Y72372D01*
X42249D01*
D01*
Y72372D01*
X42204Y72328D01*
X41407D01*
X41323Y72317D01*
X41267Y72293D01*
X41244Y72284D01*
X41214Y72261D01*
X41176Y72232D01*
X40336Y71392D01*
X40300Y71397D01*
X40169Y71380D01*
X40048Y71329D01*
X39943Y71249D01*
X39863Y71145D01*
X39813Y71023D01*
X39800Y70925D01*
D01*
D01*
D01*
D01*
X39787Y71023D01*
X39737Y71145D01*
X39657Y71249D01*
X39552Y71329D01*
X39431Y71380D01*
X39300Y71397D01*
X39169Y71380D01*
X39048Y71329D01*
X38943Y71249D01*
X38863Y71145D01*
X38813Y71023D01*
X38796Y70893D01*
X38800Y70857D01*
X35868Y67924D01*
X35816Y67856D01*
X35800Y67817D01*
X35783Y67777D01*
X35778Y67735D01*
X35772Y67693D01*
Y65636D01*
X35064Y64928D01*
X31900D01*
X31858Y64922D01*
X31815Y64917D01*
X31776Y64900D01*
X31736Y64884D01*
X31668Y64832D01*
X29168Y62332D01*
X29116Y62264D01*
X29100Y62224D01*
X29083Y62185D01*
X29078Y62142D01*
X29072Y62100D01*
Y57153D01*
X29078Y57111D01*
X29083Y57068D01*
X29100Y57029D01*
X29116Y56989D01*
X29168Y56921D01*
X31581Y54508D01*
X31611Y54486D01*
X31649Y54456D01*
X31689Y54440D01*
X31728Y54423D01*
X31771Y54418D01*
X31813Y54412D01*
X39024D01*
X39668Y53768D01*
X39668D01*
X39668D01*
D01*
X39668Y53768D01*
D01*
X39736Y53716D01*
X39776Y53700D01*
X39815Y53683D01*
X39858Y53678D01*
X39900Y53672D01*
X40221D01*
X40243Y53643D01*
X40348Y53563D01*
X40469Y53513D01*
X40600Y53496D01*
X40731Y53513D01*
X40852Y53563D01*
X40957Y53643D01*
X41037Y53748D01*
X41087Y53869D01*
X41104Y54000D01*
X41087Y54131D01*
X41037Y54252D01*
X40957Y54357D01*
X40852Y54437D01*
X40731Y54487D01*
X40600Y54504D01*
X40469Y54487D01*
X40348Y54437D01*
X40243Y54357D01*
X40221Y54328D01*
X40036D01*
X39392Y54972D01*
X39324Y55024D01*
X39284Y55040D01*
X39245Y55057D01*
X39202Y55062D01*
X39160Y55068D01*
X31949D01*
X29728Y57289D01*
Y61964D01*
X32036Y64272D01*
X35200D01*
X35242Y64278D01*
X35285Y64283D01*
X35324Y64300D01*
X35364Y64316D01*
X35432Y64368D01*
X36332Y65268D01*
X36354Y65298D01*
X36384Y65336D01*
X36417Y65415D01*
X36428Y65500D01*
Y67557D01*
X39264Y70393D01*
X39300Y70388D01*
X39431Y70405D01*
X39552Y70456D01*
X39657Y70536D01*
X39737Y70640D01*
X39787Y70762D01*
X39800Y70860D01*
D01*
X39813Y70762D01*
X39863Y70640D01*
X39943Y70536D01*
X40048Y70456D01*
X40169Y70405D01*
X40300Y70388D01*
X40431Y70405D01*
X40552Y70456D01*
X40657Y70536D01*
X40737Y70640D01*
X40787Y70762D01*
X40800Y70860D01*
D01*
X40813Y70762D01*
X40863Y70640D01*
X40943Y70536D01*
X41048Y70456D01*
X41169Y70405D01*
X41300Y70388D01*
X41431Y70405D01*
X41552Y70456D01*
X41657Y70536D01*
X41737Y70640D01*
X41787Y70762D01*
X41804Y70893D01*
X41800Y70929D01*
X42043Y71172D01*
X42410D01*
X42452Y71178D01*
X42495Y71183D01*
X42534Y71200D01*
X42574Y71216D01*
X42642Y71268D01*
X44072Y72698D01*
X44094Y72728D01*
X44124Y72766D01*
X44157Y72845D01*
X44168Y72930D01*
Y77974D01*
X44459Y78265D01*
D01*
X44450Y78200D01*
X44469Y78058D01*
X44524Y77925D01*
X44611Y77811D01*
X44725Y77724D01*
X44858Y77669D01*
X45000Y77650D01*
X45142Y77669D01*
X45275Y77724D01*
X45389Y77811D01*
X45476Y77925D01*
X45500Y77982D01*
Y77982D01*
X45524Y77925D01*
X45611Y77811D01*
X45725Y77724D01*
X45858Y77669D01*
X46000Y77650D01*
X46142Y77669D01*
X46275Y77724D01*
X46389Y77811D01*
X46476Y77925D01*
X46500Y77982D01*
Y77982D01*
X46524Y77925D01*
X46611Y77811D01*
X46725Y77724D01*
X46858Y77669D01*
X47000Y77650D01*
X47142Y77669D01*
X47275Y77724D01*
X47389Y77811D01*
X47476Y77925D01*
X47500Y77982D01*
Y77982D01*
X47524Y77925D01*
X47611Y77811D01*
X47725Y77724D01*
X47858Y77669D01*
X48000Y77650D01*
X48142Y77669D01*
X48275Y77724D01*
X48389Y77811D01*
X48476Y77925D01*
X48500Y77982D01*
Y77982D01*
X48524Y77925D01*
X48611Y77811D01*
X48725Y77724D01*
X48858Y77669D01*
X49000Y77650D01*
X49142Y77669D01*
X49275Y77724D01*
X49389Y77811D01*
X49476Y77925D01*
X49531Y78058D01*
X49550Y78200D01*
X49531Y78342D01*
X49476Y78475D01*
X49389Y78589D01*
X49328Y78636D01*
Y82564D01*
X49389Y82611D01*
X49476Y82725D01*
X49531Y82858D01*
X49550Y83000D01*
X49531Y83142D01*
X49476Y83275D01*
X49389Y83389D01*
X49275Y83476D01*
X49218Y83500D01*
X49218D01*
X49275Y83524D01*
X49389Y83611D01*
X49476Y83725D01*
X49500Y83782D01*
Y83782D01*
X49524Y83725D01*
X49611Y83611D01*
X49725Y83524D01*
X49858Y83469D01*
X50000Y83450D01*
X50142Y83469D01*
X50275Y83524D01*
X50389Y83611D01*
X50476Y83725D01*
X50500Y83782D01*
Y83782D01*
X50524Y83725D01*
X50611Y83611D01*
X50725Y83524D01*
X50782Y83500D01*
Y83500D01*
D01*
D01*
D01*
X50725Y83476D01*
X50611Y83389D01*
X50524Y83275D01*
X50469Y83142D01*
X50450Y83000D01*
X50469Y82858D01*
X50524Y82725D01*
X50611Y82611D01*
X50672Y82564D01*
Y78636D01*
X50611Y78589D01*
X50524Y78475D01*
X50469Y78342D01*
X50450Y78200D01*
X50469Y78058D01*
X50524Y77925D01*
X50611Y77811D01*
X50725Y77724D01*
X50858Y77669D01*
X51000Y77650D01*
X51142Y77669D01*
X51275Y77724D01*
X51389Y77811D01*
X51476Y77925D01*
X51500Y77982D01*
Y77982D01*
X51524Y77925D01*
X51611Y77811D01*
X51725Y77724D01*
X51858Y77669D01*
X52000Y77650D01*
X52142Y77669D01*
X52275Y77724D01*
X52389Y77811D01*
X52476Y77925D01*
X52531Y78058D01*
X52550Y78200D01*
X52531Y78342D01*
X52476Y78475D01*
X52389Y78589D01*
X52328Y78636D01*
Y82564D01*
X52389Y82611D01*
X52476Y82725D01*
X52531Y82858D01*
X52550Y83000D01*
X52531Y83142D01*
X52476Y83275D01*
X52389Y83389D01*
X52303Y83455D01*
D01*
Y83455D01*
X52545D01*
Y84545D01*
X52328D01*
Y86664D01*
X52389Y86711D01*
X52476Y86825D01*
X52531Y86958D01*
X52550Y87100D01*
X52531Y87242D01*
X52476Y87375D01*
X52389Y87489D01*
X52275Y87576D01*
X52142Y87631D01*
X52000Y87650D01*
D02*
G37*
G36*
X50457Y74848D02*
X50283Y74831D01*
X50115Y74780D01*
X49961Y74698D01*
X49825Y74587D01*
X49714Y74451D01*
X49631Y74296D01*
X49581Y74129D01*
X49563Y73954D01*
X49581Y73780D01*
X49631Y73612D01*
X49714Y73458D01*
X49825Y73322D01*
X49961Y73211D01*
X50115Y73128D01*
X50283Y73077D01*
X50457Y73060D01*
X50632Y73077D01*
X50800Y73128D01*
X50954Y73211D01*
X51090Y73322D01*
X51201Y73458D01*
X51283Y73612D01*
X51334Y73780D01*
X51352Y73954D01*
X51334Y74129D01*
X51283Y74296D01*
X51201Y74451D01*
X51090Y74587D01*
X50954Y74698D01*
X50800Y74780D01*
X50632Y74831D01*
X50457Y74848D01*
D02*
G37*
G36*
X47700Y94151D02*
X47583Y94135D01*
X47475Y94090D01*
X47381Y94019D01*
X47310Y93925D01*
X47265Y93817D01*
X47249Y93700D01*
X47265Y93583D01*
X47310Y93475D01*
X47381Y93381D01*
X47475Y93310D01*
X47583Y93265D01*
X47700Y93249D01*
X47817Y93265D01*
X47925Y93310D01*
X48019Y93381D01*
X48090Y93475D01*
X48135Y93583D01*
X48151Y93700D01*
X48135Y93817D01*
X48090Y93925D01*
X48019Y94019D01*
X47925Y94090D01*
X47817Y94135D01*
X47700Y94151D01*
D02*
G37*
G36*
X53250Y94807D02*
X51750D01*
X51000Y94057D01*
Y92557D01*
X51750Y91807D01*
X53250D01*
X54000Y92557D01*
Y94057D01*
X53250Y94807D01*
D02*
G37*
%LPD*%
G36*
X49500Y86882D02*
X49524Y86825D01*
X49611Y86711D01*
X49672Y86664D01*
Y84436D01*
X49611Y84389D01*
X49524Y84275D01*
X49500Y84218D01*
D01*
D01*
D01*
X49500D01*
X49476Y84275D01*
X49389Y84389D01*
X49328Y84436D01*
Y86664D01*
X49389Y86711D01*
X49476Y86825D01*
X49500Y86882D01*
Y86882D01*
D02*
G37*
G36*
X50500D02*
X50524Y86825D01*
X50611Y86711D01*
X50672Y86664D01*
Y84436D01*
X50611Y84389D01*
X50524Y84275D01*
X50500Y84218D01*
D01*
D01*
D01*
X50500D01*
X50476Y84275D01*
X50389Y84389D01*
X50328Y84436D01*
Y86664D01*
X50389Y86711D01*
X50476Y86825D01*
X50500Y86882D01*
Y86882D01*
D02*
G37*
G36*
X51524Y86825D02*
X51611Y86711D01*
X51672Y86664D01*
Y84545D01*
X51455D01*
Y84303D01*
D01*
Y84303D01*
X51455Y84303D01*
X51389Y84389D01*
X51328Y84436D01*
Y86664D01*
X51389Y86711D01*
X51476Y86825D01*
X51500Y86882D01*
X51524Y86825D01*
D02*
G37*
G36*
X39104Y75226D02*
X38300Y74437D01*
X38280D01*
X37491Y75226D01*
X37587Y75457D01*
X39009D01*
X39104Y75226D01*
D02*
G37*
G36*
X48500Y82782D02*
X48524Y82725D01*
X48611Y82611D01*
X48672Y82564D01*
Y78636D01*
X48611Y78589D01*
X48524Y78475D01*
X48500Y78418D01*
D01*
D01*
D01*
X48500D01*
X48476Y78475D01*
X48389Y78589D01*
X48328Y78636D01*
Y82564D01*
X48389Y82611D01*
X48476Y82725D01*
X48500Y82782D01*
Y82782D01*
D02*
G37*
G36*
X29147Y75950D02*
Y75724D01*
X29647Y75214D01*
Y75194D01*
X29147Y74694D01*
Y74450D01*
X28897Y74200D01*
X28397D01*
X28147Y74450D01*
Y75950D01*
X28397Y76200D01*
X28897D01*
X29147Y75950D01*
D02*
G37*
G36*
X37104Y75219D02*
X36300Y74430D01*
X36280D01*
X35491Y75219D01*
X35587Y75450D01*
X37009D01*
X37104Y75219D01*
D02*
G37*
G36*
X45500Y86882D02*
X45524Y86825D01*
X45611Y86711D01*
X45672Y86664D01*
Y84436D01*
X45611Y84389D01*
X45524Y84275D01*
X45500Y84218D01*
D01*
D01*
D01*
X45500D01*
X45476Y84275D01*
X45389Y84389D01*
X45328Y84436D01*
Y86664D01*
X45389Y86711D01*
X45476Y86825D01*
X45500Y86882D01*
Y86882D01*
D02*
G37*
G36*
X48500D02*
X48524Y86825D01*
X48611Y86711D01*
X48672Y86664D01*
Y84436D01*
X48611Y84389D01*
X48524Y84275D01*
X48500Y84218D01*
D01*
D01*
D01*
X48500D01*
X48476Y84275D01*
X48389Y84389D01*
X48328Y84436D01*
Y86664D01*
X48389Y86711D01*
X48476Y86825D01*
X48500Y86882D01*
Y86882D01*
D02*
G37*
G36*
X51500Y82782D02*
X51524Y82725D01*
X51611Y82611D01*
X51672Y82564D01*
Y78636D01*
X51611Y78589D01*
X51524Y78475D01*
X51500Y78418D01*
D01*
D01*
D01*
X51500D01*
X51476Y78475D01*
X51389Y78589D01*
X51328Y78636D01*
Y82564D01*
X51389Y82611D01*
X51476Y82725D01*
X51500Y82782D01*
Y82782D01*
D02*
G37*
G36*
X47500D02*
X47524Y82725D01*
X47611Y82611D01*
X47672Y82564D01*
Y78636D01*
X47611Y78589D01*
X47524Y78475D01*
X47500Y78418D01*
D01*
D01*
D01*
X47500D01*
X47476Y78475D01*
X47389Y78589D01*
X47275Y78676D01*
X47142Y78731D01*
X47000Y78750D01*
X46858Y78731D01*
X46725Y78676D01*
X46611Y78589D01*
X46524Y78475D01*
X46500Y78418D01*
D01*
D01*
D01*
X46500D01*
X46476Y78475D01*
X46389Y78589D01*
X46275Y78676D01*
X46142Y78731D01*
X46000Y78750D01*
X45858Y78731D01*
X45725Y78676D01*
X45611Y78589D01*
X45524Y78475D01*
X45500Y78418D01*
D01*
D01*
D01*
X45500D01*
X45476Y78475D01*
X45389Y78589D01*
X45275Y78676D01*
X45142Y78731D01*
X45000Y78750D01*
X44935Y78741D01*
D01*
X46282Y80088D01*
X46282Y80088D01*
X46282Y80088D01*
X46334Y80156D01*
X46350Y80196D01*
X46367Y80235D01*
X46372Y80278D01*
X46378Y80320D01*
Y81904D01*
X46932Y82459D01*
X47000Y82450D01*
X47142Y82469D01*
X47275Y82524D01*
X47389Y82611D01*
X47476Y82725D01*
X47500Y82782D01*
Y82782D01*
D02*
G37*
D30*
X48000Y78200D02*
Y83000D01*
X49000Y78200D02*
Y83000D01*
X50000Y78200D02*
Y83000D01*
X51000Y78200D02*
Y83000D01*
X52000Y78200D02*
Y83000D01*
Y84000D02*
Y87100D01*
X51000Y84000D02*
Y87100D01*
X50000Y84000D02*
Y87100D01*
X49000Y84000D02*
Y87100D01*
X48000Y84000D02*
Y87100D01*
X47000Y84000D02*
Y87100D01*
X46000Y84000D02*
Y87100D01*
X45000Y84000D02*
Y87100D01*
X32157Y59870D02*
X32757Y60520D01*
X36607D01*
X37107Y60020D01*
Y59870D02*
Y60020D01*
X30100Y57400D02*
Y61800D01*
X29400Y57153D02*
Y62100D01*
X28700Y56900D02*
Y62400D01*
X37107Y72700D02*
X42470D01*
X41407Y72000D02*
X42340D01*
X43040Y73270D02*
Y78961D01*
X42340Y72000D02*
X43440Y73100D01*
Y78530D01*
X43840Y72930D02*
Y78110D01*
X46050Y80320D01*
X43040Y78961D02*
X45000Y80921D01*
X43440Y78530D02*
X45460Y80550D01*
X42410Y71500D02*
X43840Y72930D01*
X42470Y72700D02*
X43040Y73270D01*
X40300Y70893D02*
X41407Y72000D01*
X41907Y71500D02*
X42410D01*
X41300Y70893D02*
X41907Y71500D01*
X45000Y80921D02*
Y83000D01*
X45460Y80550D02*
Y83460D01*
X46000Y84000D01*
X46050Y80320D02*
Y82040D01*
X47010Y83000D01*
X35300Y70893D02*
X37107Y72700D01*
X42300Y73860D02*
Y74870D01*
X36300Y73860D02*
Y75234D01*
X38300Y73857D02*
Y75232D01*
X31813Y54740D02*
X39160D01*
X40182Y56170D02*
X40600Y55752D01*
X31330Y56170D02*
X40182D01*
X40600Y55200D02*
Y55752D01*
X39160Y54740D02*
X39900Y54000D01*
X40600D01*
X37700Y50800D02*
X38810D01*
X37200Y51300D02*
X37700Y50800D01*
X37200Y51300D02*
Y52900D01*
X36800Y53300D02*
X37200Y52900D01*
X32300Y53300D02*
X36800D01*
X30100Y57400D02*
X31330Y56170D01*
X29400Y57153D02*
X31813Y54740D01*
X28700Y56900D02*
X32300Y53300D01*
X35400Y65900D02*
Y68993D01*
X34800Y65300D02*
X35400Y65900D01*
X31600Y65300D02*
X34800D01*
X36100Y65500D02*
Y67693D01*
X35200Y64600D02*
X36100Y65500D01*
X36775Y65175D02*
Y67375D01*
X35500Y63900D02*
X36775Y65175D01*
X28700Y62400D02*
X31600Y65300D01*
X29400Y62100D02*
X31900Y64600D01*
X30100Y61800D02*
X32200Y63900D01*
X35500D01*
X35400Y68993D02*
X37300Y70893D01*
X31900Y64600D02*
X35200D01*
X36100Y67693D02*
X39300Y70893D01*
X36775Y67375D02*
X39400Y70000D01*
X42407D01*
X43300Y70893D01*
D33*
X41936Y75234D02*
X42300Y74870D01*
X28590Y75234D02*
X41936D01*
D35*
X50000Y83000D02*
D03*
X46000Y84000D02*
D03*
X47000Y83000D02*
D03*
X52000D02*
D03*
X51000Y84000D02*
D03*
Y83000D02*
D03*
X50000Y84000D02*
D03*
X49000D02*
D03*
Y83000D02*
D03*
X48000Y84000D02*
D03*
Y83000D02*
D03*
X47000Y84000D02*
D03*
X46000Y83000D02*
D03*
X45000D02*
D03*
X45207Y43670D02*
D03*
Y42670D02*
D03*
X44207Y43670D02*
D03*
Y42670D02*
D03*
X43207Y43670D02*
D03*
D36*
X52000Y84000D02*
D03*
X43207Y42670D02*
D03*
D37*
X45000Y84000D02*
D03*
X47957Y71954D02*
D03*
X47932Y63345D02*
D03*
X46957Y70454D02*
D03*
Y71454D02*
D03*
Y72454D02*
D03*
X47957Y72954D02*
D03*
X46957Y73454D02*
D03*
X46932Y61845D02*
D03*
Y62845D02*
D03*
Y63845D02*
D03*
X47932Y64345D02*
D03*
X46932Y64845D02*
D03*
X47000Y78200D02*
D03*
X46000D02*
D03*
X48000D02*
D03*
X49000D02*
D03*
X50000D02*
D03*
X51000D02*
D03*
X52000D02*
D03*
X45000D02*
D03*
X52000Y87100D02*
D03*
X51000D02*
D03*
X50000D02*
D03*
X49000D02*
D03*
X48000D02*
D03*
X47000D02*
D03*
X46000D02*
D03*
X45000D02*
D03*
D38*
X28878Y93307D02*
D03*
X52500D02*
D03*
Y37402D02*
D03*
X28878D02*
D03*
D39*
X46600Y32000D02*
D03*
X50350D02*
D03*
D40*
X47957Y70954D02*
D03*
X47932Y62345D02*
D03*
D41*
X50457Y69454D02*
D03*
Y73954D02*
D03*
X50432Y60845D02*
D03*
Y65345D02*
D03*
D42*
X47957Y69954D02*
D03*
X47932Y61345D02*
D03*
D43*
X36550Y80700D02*
D03*
X32500D02*
D03*
X38900Y49100D02*
D03*
X46081Y44446D02*
D03*
X37807Y44970D02*
D03*
X35907Y59770D02*
D03*
X38207Y57270D02*
D03*
X33500Y51300D02*
D03*
X41807Y45170D02*
D03*
X46307Y52870D02*
D03*
X45307Y49870D02*
D03*
X32250Y47600D02*
D03*
X31200Y58050D02*
D03*
X40707Y63320D02*
D03*
X28134Y30134D02*
D03*
X29134D02*
D03*
Y29134D02*
D03*
X28134D02*
D03*
X31257Y31220D02*
D03*
X43257Y32670D02*
D03*
Y34620D02*
D03*
Y35620D02*
D03*
Y33670D02*
D03*
X32157Y59870D02*
D03*
X37107D02*
D03*
X32307Y31220D02*
D03*
X36107Y62020D02*
D03*
X36257Y33170D02*
D03*
X37257D02*
D03*
X36257Y34170D02*
D03*
X37257D02*
D03*
X31840Y66680D02*
D03*
X39300Y70893D02*
D03*
X40300D02*
D03*
X41300Y70893D02*
D03*
X37300D02*
D03*
X35300Y70893D02*
D03*
X43300Y70893D02*
D03*
X42300Y73860D02*
D03*
X36300Y73860D02*
D03*
X38300Y73857D02*
D03*
X28657Y75700D02*
D03*
Y74700D02*
D03*
X38810Y50800D02*
D03*
X40600Y54000D02*
D03*
Y55200D02*
D03*
X34450Y71850D02*
D03*
X32250Y43550D02*
D03*
X52000Y53800D02*
D03*
Y57850D02*
D03*
X48228Y39961D02*
D03*
X52000Y44300D02*
D03*
X42900Y66005D02*
D03*
X45350Y60300D02*
D03*
D44*
X29600Y89800D02*
D03*
X47700Y93700D02*
D03*
X53000Y27500D02*
D03*
X27900Y33800D02*
D03*
M02*
